<?xml version="1.0" encoding="utf-8"?>
<!-- Generator: Adobe Illustrator 27.5.0, SVG Export Plug-In . SVG Version: 6.00 Build 0)  -->
<svg version="1.1" id="Layer_2" xmlns="http://www.w3.org/2000/svg" xmlns:xlink="http://www.w3.org/1999/xlink" x="0px" y="0px"
	 viewBox="0 0 450 320" style="enable-background:new 0 0 450 320;" xml:space="preserve">
<!-- Background checkerboard removed for transparency -->
<!-- Bubbles start below -->
	<linearGradient id="SVGID_1_" gradientUnits="userSpaceOnUse" x1="352.1213" y1="76.4527" x2="396.3517" y2="129.529">
		<stop  offset="0" style="stop-color:#0093AA"/>
		<stop  offset="1" style="stop-color:#48707C"/>
	</linearGradient>
	<circle style="fill:url(#SVGID_1_);" cx="368.481" cy="96.085" r="52.175"/>
	<path style="opacity:0.5;fill:#72A4A6;" d="M400.898,58.79c5.24,8.984,8.695,19.167,8.113,29.504
		c-0.92,16.354-13.524,30.812-30.273,31.363c-5.659,0.186-11.685-0.124-16.559,2.757c-2.784,1.646-4.944,4.215-7.773,5.782
		c-3.784,2.097-8.278,2.064-12.417,0.656c-2.667-0.908-5.187-2.388-7.274-4.238c-4.17-3.697-8.817-9.622-9.085-15.446
		c-0.16-3.494,2.422-4.131,4.165-1.461c1.228,1.881,1.77,4.119,2.905,6.039c2.191,3.707,5.369,7.212,10.059,6.955
		c8.362-0.458,10.44-10.471,11.714-16.939c2.371-12.045,9.642-20.894,19.151-28.322c6.364-4.972,14.985-12.24,22.513-6.856
		c0.992,0.709,4.811,6.658,4.027-0.076c-0.658-5.651-4.289-10.729-9.087-13.785c-2.206-1.405-19.873-8.287-17.25-1.004
		c1.908,5.298,5.338,8.478,2.425,14.303c-0.177,0.354-0.386,0.686-0.581,1.028c1.17-3.132,0.901-6.121-0.356-8.706
		c-3.783-7.779-15.37-10.567-23.095-8c-20.271,6.736-36.584,30.03-32.78,51.637c4.168,23.67,24.838,41.709,49.039,41.709
		c27.34,0,49.504-22.164,49.504-49.504C417.986,81.248,411.36,67.866,400.898,58.79z"/>
	<path style="fill:#FFFFFF;" d="M336.995,57.483c-7.358,5.975-13.745,16.624-15.837,25.411c-2.569,10.792-1.541,22.097-1.541,22.097
		s-1.028-20.044,12.85-35.464c4.931-5.478,11.044-9.889,17.911-12.601c2.813-1.111,18.514-2.752,11.245-7.417
		c-5.841-3.749-18.092,3.281-23.031,6.762C338.055,56.65,337.523,57.054,336.995,57.483z"/>
	<path style="opacity:0.5;fill:#72A4A6;" d="M402.055,73.221c-2.86-0.337-1.245,6.056,1.441,4.073
		c0.735-0.543,0.712-1.674,0.346-2.511C403.51,74.024,402.878,73.318,402.055,73.221z"/>
	<g style="opacity:0.7;">
		<path style="fill:#B4E1FA;" d="M413.351,93.548c-0.791,8.352-3.473,16.528-7.858,23.683c-3.639,5.938-12.61,12.76-19.835,13.493
			c-2.455,0.249-19.005,0.115-24.674,3.539c-0.956,0.579-2.222,1.469-2.222,2.713c0,1.215,1.134,2.113,1.79,2.965
			c0.531,0.689,0.5,1.752-0.069,2.41c-1.777,2.055-10.607-2.199-12.614-3.223c-15.534-7.926-19.973-14.583-24.728-23.143
			c0,0,4.121,12.998,22.509,24.094c18.387,11.096,40.262,2.536,40.262,2.536c-0.846,0.331-6.661,1.313-7.114,0.415
			c-0.053-0.105-0.017-0.232,0.031-0.339c0.555-1.241,2.822-1.209,3.99-1.586c1.528-0.494,3.023-1.091,4.47-1.788
			c2.826-1.361,5.462-3.1,7.85-5.132c4.846-4.122,8.624-9.385,11.441-15.063C410.522,111.181,412.698,102.37,413.351,93.548z"/>
		<path style="fill:#B4E1FA;" d="M413.451,84.293c0.169,3.015,0.132,6.121-0.1,9.255C413.642,90.472,413.685,87.374,413.451,84.293z
			"/>
	</g>
	<path style="opacity:0.7;fill:#FFFFFF;" d="M356.901,135.121c-0.031,0.165-0.127,0.321-0.25,0.438
		c-1.022,0.965-3.313,0.45-4.254-0.394c-0.128-0.114-0.249-0.257-0.26-0.428c-0.008-0.137,0.057-0.268,0.141-0.376
		c0.96-1.242,2.949-0.672,4.07-0.049c0.235,0.131,0.48,0.3,0.547,0.56C356.916,134.954,356.917,135.038,356.901,135.121z"/>
	
		<linearGradient id="SVGID_00000138575470324750536120000009933874791370999472_" gradientUnits="userSpaceOnUse" x1="208.6402" y1="76.4527" x2="252.8705" y2="129.529">
		<stop  offset="0" style="stop-color:#E9530E"/>
		<stop  offset="1" style="stop-color:#98211E"/>
	</linearGradient>
	<circle style="fill:url(#SVGID_00000138575470324750536120000009933874791370999472_);" cx="225" cy="96.085" r="52.175"/>
	<path style="opacity:0.5;fill:#EC6138;" d="M257.417,58.79c5.24,8.984,8.695,19.167,8.113,29.504
		c-0.92,16.354-13.524,30.812-30.273,31.363c-5.659,0.186-11.685-0.124-16.559,2.757c-2.784,1.646-4.944,4.215-7.773,5.782
		c-3.785,2.097-8.278,2.064-12.417,0.656c-2.667-0.908-5.187-2.388-7.274-4.238c-4.17-3.697-8.817-9.622-9.085-15.446
		c-0.16-3.494,2.422-4.131,4.165-1.461c1.228,1.881,1.77,4.119,2.905,6.039c2.191,3.707,5.369,7.212,10.059,6.955
		c8.362-0.458,10.44-10.471,11.714-16.939c2.371-12.045,9.642-20.894,19.151-28.322c6.364-4.972,14.985-12.24,22.513-6.856
		c0.992,0.709,4.811,6.658,4.027-0.076c-0.658-5.651-4.289-10.729-9.087-13.785c-2.206-1.405-19.873-8.287-17.25-1.004
		c1.908,5.298,5.338,8.478,2.425,14.303c-0.177,0.354-0.386,0.686-0.581,1.028c1.17-3.132,0.901-6.121-0.356-8.706
		c-3.783-7.779-15.37-10.567-23.095-8c-20.271,6.736-36.584,30.03-32.78,51.637c4.168,23.67,24.838,41.709,49.039,41.709
		c27.34,0,49.504-22.164,49.504-49.504C274.504,81.248,267.879,67.866,257.417,58.79z"/>
	<path style="fill:#FFFFFF;" d="M193.514,57.483c-7.358,5.975-13.745,16.624-15.837,25.411c-2.569,10.792-1.541,22.097-1.541,22.097
		s-1.028-20.044,12.85-35.464c4.931-5.478,11.044-9.889,17.911-12.601c2.813-1.111,18.514-2.752,11.245-7.417
		c-5.841-3.749-18.092,3.281-23.031,6.762C194.574,56.65,194.042,57.054,193.514,57.483z"/>
	<path style="opacity:0.5;fill:#EC6138;" d="M258.574,73.221c-2.86-0.337-1.244,6.056,1.441,4.073
		c0.735-0.543,0.712-1.674,0.346-2.511C260.029,74.024,259.397,73.318,258.574,73.221z"/>
	<g style="opacity:0.7;">
		<path style="fill:#FAC59A;" d="M269.87,93.548c-0.791,8.352-3.473,16.528-7.858,23.683c-3.639,5.938-12.61,12.76-19.835,13.493
			c-2.455,0.249-19.006,0.115-24.674,3.539c-0.956,0.579-2.222,1.469-2.222,2.713c0,1.215,1.134,2.113,1.79,2.965
			c0.531,0.689,0.5,1.752-0.069,2.41c-1.777,2.055-10.607-2.199-12.614-3.223c-15.534-7.926-19.973-14.583-24.728-23.143
			c0,0,4.121,12.998,22.508,24.094c18.387,11.096,40.262,2.536,40.262,2.536c-0.846,0.331-6.661,1.313-7.114,0.415
			c-0.053-0.105-0.017-0.232,0.031-0.339c0.555-1.241,2.822-1.209,3.99-1.586c1.528-0.494,3.023-1.091,4.47-1.788
			c2.826-1.361,5.462-3.1,7.85-5.132c4.846-4.122,8.624-9.385,11.442-15.063C267.04,111.181,269.217,102.37,269.87,93.548z"/>
		<path style="fill:#FAC59A;" d="M269.97,84.293c0.169,3.015,0.132,6.121-0.1,9.255C270.161,90.472,270.203,87.374,269.97,84.293z"
			/>
	</g>
	<path style="opacity:0.7;fill:#FFFFFF;" d="M213.42,135.121c-0.031,0.165-0.127,0.321-0.25,0.438
		c-1.022,0.965-3.313,0.45-4.254-0.394c-0.127-0.114-0.249-0.257-0.26-0.428c-0.008-0.137,0.057-0.268,0.141-0.376
		c0.96-1.242,2.949-0.672,4.07-0.049c0.235,0.131,0.48,0.3,0.547,0.56C213.435,134.954,213.436,135.038,213.42,135.121z"/>
	
		<linearGradient id="SVGID_00000021114816821009020600000002129854015001466547_" gradientUnits="userSpaceOnUse" x1="65.1591" y1="76.4527" x2="109.3894" y2="129.529">
		<stop  offset="0" style="stop-color:#FFF04E"/>
		<stop  offset="1" style="stop-color:#EF7F12"/>
	</linearGradient>
	<circle style="fill:url(#SVGID_00000021114816821009020600000002129854015001466547_);" cx="81.519" cy="96.085" r="52.175"/>
	<path style="opacity:0.5;fill:#FBBF37;" d="M113.936,58.79c5.24,8.984,8.695,19.167,8.113,29.504
		c-0.92,16.354-13.524,30.812-30.273,31.363c-5.659,0.186-11.685-0.124-16.559,2.757c-2.784,1.646-4.944,4.215-7.773,5.782
		c-3.785,2.097-8.278,2.064-12.417,0.656c-2.667-0.908-5.187-2.388-7.274-4.238c-4.17-3.697-8.816-9.622-9.085-15.446
		c-0.16-3.494,2.422-4.131,4.165-1.461c1.228,1.881,1.77,4.119,2.905,6.039c2.191,3.707,5.369,7.212,10.059,6.955
		c8.362-0.458,10.44-10.471,11.714-16.939c2.371-12.045,9.641-20.894,19.151-28.322c6.364-4.972,14.985-12.24,22.513-6.856
		c0.992,0.709,4.811,6.658,4.027-0.076c-0.658-5.651-4.289-10.729-9.087-13.785c-2.206-1.405-19.873-8.287-17.249-1.004
		c1.908,5.298,5.338,8.478,2.425,14.303c-0.177,0.354-0.386,0.686-0.581,1.028c1.17-3.132,0.901-6.121-0.356-8.706
		c-3.783-7.779-15.37-10.567-23.095-8c-20.271,6.736-36.584,30.03-32.78,51.637c4.168,23.67,24.838,41.709,49.039,41.709
		c27.34,0,49.504-22.164,49.504-49.504C131.023,81.248,124.398,67.866,113.936,58.79z"/>
	<path style="fill:#FFFFFF;" d="M50.033,57.483c-7.358,5.975-13.745,16.624-15.837,25.411c-2.569,10.792-1.541,22.097-1.541,22.097
		s-1.028-20.044,12.85-35.464c4.931-5.478,11.044-9.889,17.911-12.601c2.813-1.111,18.514-2.752,11.245-7.417
		c-5.841-3.749-18.092,3.281-23.031,6.762C51.093,56.65,50.56,57.054,50.033,57.483z"/>
	<path style="opacity:0.5;fill:#FBBF37;" d="M115.093,73.221c-2.86-0.337-1.244,6.056,1.441,4.073
		c0.735-0.543,0.712-1.674,0.346-2.511C116.548,74.024,115.916,73.318,115.093,73.221z"/>
	<g style="opacity:0.7;">
		<path style="fill:#FFF6A2;" d="M126.388,93.548c-0.791,8.352-3.473,16.528-7.858,23.683c-3.639,5.938-12.61,12.76-19.835,13.493
			c-2.455,0.249-19.006,0.115-24.674,3.539c-0.956,0.579-2.222,1.469-2.222,2.713c0,1.215,1.134,2.113,1.79,2.965
			c0.531,0.689,0.5,1.752-0.069,2.41c-1.777,2.055-10.607-2.199-12.615-3.223c-15.534-7.926-19.972-14.583-24.728-23.143
			c0,0,4.121,12.998,22.508,24.094c18.387,11.096,40.262,2.536,40.262,2.536c-0.847,0.331-6.661,1.313-7.114,0.415
			c-0.053-0.105-0.017-0.232,0.031-0.339c0.555-1.241,2.822-1.209,3.99-1.586c1.528-0.494,3.023-1.091,4.47-1.788
			c2.826-1.361,5.462-3.1,7.85-5.132c4.845-4.122,8.624-9.385,11.441-15.063C123.559,111.181,125.736,102.37,126.388,93.548z"/>
		<path style="fill:#FFF6A2;" d="M126.489,84.293c0.169,3.015,0.132,6.121-0.1,9.255C126.68,90.472,126.722,87.374,126.489,84.293z"
			/>
	</g>
	<path style="opacity:0.7;fill:#FFFFFF;" d="M69.939,135.121c-0.031,0.165-0.127,0.321-0.25,0.438
		c-1.022,0.965-3.313,0.45-4.254-0.394c-0.127-0.114-0.249-0.257-0.259-0.428c-0.008-0.137,0.057-0.268,0.141-0.376
		c0.96-1.242,2.949-0.672,4.07-0.049c0.235,0.131,0.48,0.3,0.547,0.56C69.954,134.954,69.954,135.038,69.939,135.121z"/>
	
		<linearGradient id="SVGID_00000003083078978949232710000001391173340753832326_" gradientUnits="userSpaceOnUse" x1="65.1591" y1="204.208" x2="109.3895" y2="257.2843">
		<stop  offset="0" style="stop-color:#52C3F1"/>
		<stop  offset="1" style="stop-color:#0052A1"/>
	</linearGradient>
	<circle style="fill:url(#SVGID_00000003083078978949232710000001391173340753832326_);" cx="81.519" cy="223.84" r="52.175"/>
	<path style="opacity:0.5;fill:#008CBC;" d="M113.936,186.545c5.24,8.984,8.695,19.167,8.113,29.503
		c-0.92,16.355-13.524,30.812-30.273,31.364c-5.659,0.186-11.685-0.124-16.559,2.757c-2.784,1.646-4.944,4.215-7.773,5.782
		c-3.785,2.097-8.278,2.064-12.417,0.656c-2.667-0.908-5.187-2.388-7.274-4.238c-4.17-3.697-8.816-9.622-9.085-15.446
		c-0.16-3.494,2.422-4.131,4.165-1.461c1.228,1.881,1.77,4.119,2.905,6.039c2.191,3.707,5.369,7.212,10.059,6.955
		c8.362-0.458,10.44-10.471,11.714-16.939c2.371-12.045,9.641-20.894,19.151-28.322c6.364-4.972,14.985-12.24,22.513-6.856
		c0.992,0.709,4.811,6.658,4.027-0.076c-0.658-5.651-4.289-10.729-9.087-13.785c-2.206-1.405-19.873-8.287-17.249-1.004
		c1.908,5.298,5.338,8.478,2.425,14.303c-0.177,0.354-0.386,0.686-0.581,1.028c1.17-3.132,0.901-6.121-0.356-8.706
		c-3.783-7.779-15.37-10.567-23.095-8c-20.271,6.736-36.584,30.03-32.78,51.637c4.168,23.669,24.838,41.709,49.039,41.709
		c27.34,0,49.504-22.164,49.504-49.504C131.023,209.003,124.398,195.621,113.936,186.545z"/>
	<path style="fill:#FFFFFF;" d="M50.033,185.238c-7.358,5.975-13.745,16.623-15.837,25.411c-2.569,10.792-1.541,22.097-1.541,22.097
		s-1.028-20.044,12.85-35.464c4.931-5.478,11.044-9.889,17.911-12.601c2.813-1.111,18.514-2.752,11.245-7.417
		c-5.841-3.749-18.092,3.281-23.031,6.762C51.093,184.405,50.56,184.81,50.033,185.238z"/>
	<path style="opacity:0.5;fill:#008CBC;" d="M115.093,200.976c-2.86-0.337-1.244,6.057,1.441,4.073
		c0.735-0.543,0.712-1.674,0.346-2.511C116.548,201.779,115.916,201.073,115.093,200.976z"/>
	<g style="opacity:0.7;">
		<path style="fill:#B7E2FA;" d="M126.388,221.303c-0.791,8.352-3.473,16.528-7.858,23.683c-3.639,5.938-12.61,12.76-19.835,13.493
			c-2.455,0.249-19.006,0.115-24.674,3.54c-0.956,0.579-2.222,1.469-2.222,2.713c0,1.215,1.134,2.113,1.79,2.965
			c0.531,0.69,0.5,1.752-0.069,2.41c-1.777,2.055-10.607-2.199-12.615-3.224c-15.534-7.925-19.972-14.583-24.728-23.143
			c0,0,4.121,12.998,22.508,24.094c18.387,11.096,40.262,2.536,40.262,2.536c-0.847,0.331-6.661,1.313-7.114,0.415
			c-0.053-0.105-0.017-0.232,0.031-0.339c0.555-1.241,2.822-1.209,3.99-1.586c1.528-0.494,3.023-1.091,4.47-1.788
			c2.826-1.361,5.462-3.1,7.85-5.132c4.845-4.122,8.624-9.385,11.441-15.063C123.559,238.936,125.736,230.125,126.388,221.303z"/>
		<path style="fill:#B7E2FA;" d="M126.489,212.048c0.169,3.016,0.132,6.122-0.1,9.255
			C126.68,218.228,126.722,215.129,126.489,212.048z"/>
	</g>
	<path style="opacity:0.7;fill:#FFFFFF;" d="M69.939,262.876c-0.031,0.165-0.127,0.321-0.25,0.438
		c-1.022,0.965-3.313,0.45-4.254-0.394c-0.127-0.115-0.249-0.257-0.259-0.428c-0.008-0.137,0.057-0.268,0.141-0.376
		c0.96-1.242,2.949-0.672,4.07-0.049c0.235,0.131,0.48,0.3,0.547,0.561C69.954,262.709,69.954,262.794,69.939,262.876z"/>
	
		<linearGradient id="SVGID_00000017485632571532861640000007843263339447395460_" gradientUnits="userSpaceOnUse" x1="352.1213" y1="204.208" x2="396.3517" y2="257.2843">
		<stop  offset="0" style="stop-color:#009640"/>
		<stop  offset="1" style="stop-color:#3C8840"/>
	</linearGradient>
	<circle style="fill:url(#SVGID_00000017485632571532861640000007843263339447395460_);" cx="368.481" cy="223.84" r="52.175"/>
	<path style="opacity:0.5;fill:#9BC24E;" d="M400.898,186.545c5.24,8.984,8.695,19.167,8.113,29.503
		c-0.92,16.355-13.524,30.812-30.273,31.364c-5.659,0.186-11.685-0.124-16.559,2.757c-2.784,1.646-4.944,4.215-7.773,5.782
		c-3.784,2.097-8.278,2.064-12.417,0.656c-2.667-0.908-5.187-2.388-7.274-4.238c-4.17-3.697-8.817-9.622-9.085-15.446
		c-0.16-3.494,2.422-4.131,4.165-1.461c1.228,1.881,1.77,4.119,2.905,6.039c2.191,3.707,5.369,7.212,10.059,6.955
		c8.362-0.458,10.44-10.471,11.714-16.939c2.371-12.045,9.642-20.894,19.151-28.322c6.364-4.972,14.985-12.24,22.513-6.856
		c0.992,0.709,4.811,6.658,4.027-0.076c-0.658-5.651-4.289-10.729-9.087-13.785c-2.206-1.405-19.873-8.287-17.25-1.004
		c1.908,5.298,5.338,8.478,2.425,14.303c-0.177,0.354-0.386,0.686-0.581,1.028c1.17-3.132,0.901-6.121-0.356-8.706
		c-3.783-7.779-15.37-10.567-23.095-8c-20.271,6.736-36.584,30.03-32.78,51.637c4.168,23.669,24.838,41.709,49.039,41.709
		c27.34,0,49.504-22.164,49.504-49.504C417.986,209.003,411.36,195.621,400.898,186.545z"/>
	<path style="fill:#FFFFFF;" d="M336.995,185.238c-7.358,5.975-13.745,16.623-15.837,25.411
		c-2.569,10.792-1.541,22.097-1.541,22.097s-1.028-20.044,12.85-35.464c4.931-5.478,11.044-9.889,17.911-12.601
		c2.813-1.111,18.514-2.752,11.245-7.417c-5.841-3.749-18.092,3.281-23.031,6.762C338.055,184.405,337.523,184.81,336.995,185.238z"
		/>
	<path style="opacity:0.5;fill:#9BC24E;" d="M402.055,200.976c-2.86-0.337-1.245,6.057,1.441,4.073
		c0.735-0.543,0.712-1.674,0.346-2.511C403.51,201.779,402.878,201.073,402.055,200.976z"/>
	<g style="opacity:0.7;">
		<path style="fill:#D1E5C3;" d="M413.351,221.303c-0.791,8.352-3.473,16.528-7.858,23.683c-3.639,5.938-12.61,12.76-19.835,13.493
			c-2.455,0.249-19.005,0.115-24.674,3.54c-0.956,0.579-2.222,1.469-2.222,2.713c0,1.215,1.134,2.113,1.79,2.965
			c0.531,0.69,0.5,1.752-0.069,2.41c-1.777,2.055-10.607-2.199-12.614-3.224c-15.534-7.925-19.973-14.583-24.728-23.143
			c0,0,4.121,12.998,22.509,24.094c18.387,11.096,40.262,2.536,40.262,2.536c-0.846,0.331-6.661,1.313-7.114,0.415
			c-0.053-0.105-0.017-0.232,0.031-0.339c0.555-1.241,2.822-1.209,3.99-1.586c1.528-0.494,3.023-1.091,4.47-1.788
			c2.826-1.361,5.462-3.1,7.85-5.132c4.846-4.122,8.624-9.385,11.441-15.063C410.522,238.936,412.698,230.125,413.351,221.303z"/>
		<path style="fill:#D1E5C3;" d="M413.451,212.048c0.169,3.016,0.132,6.122-0.1,9.255
			C413.642,218.228,413.685,215.129,413.451,212.048z"/>
	</g>
	<path style="opacity:0.7;fill:#FFFFFF;" d="M356.901,262.876c-0.031,0.165-0.127,0.321-0.25,0.438
		c-1.022,0.965-3.313,0.45-4.254-0.394c-0.128-0.115-0.249-0.257-0.26-0.428c-0.008-0.137,0.057-0.268,0.141-0.376
		c0.96-1.242,2.949-0.672,4.07-0.049c0.235,0.131,0.48,0.3,0.547,0.561C356.916,262.709,356.917,262.794,356.901,262.876z"/>
	
		<linearGradient id="SVGID_00000112615292702013807610000003622850187544947096_" gradientUnits="userSpaceOnUse" x1="208.6402" y1="204.208" x2="252.8706" y2="257.2843">
		<stop  offset="0" style="stop-color:#8D6587"/>
		<stop  offset="1" style="stop-color:#564A67"/>
	</linearGradient>
	<circle style="fill:url(#SVGID_00000112615292702013807610000003622850187544947096_);" cx="225" cy="223.84" r="52.175"/>
	<path style="opacity:0.5;fill:#C35E7F;" d="M257.417,186.545c5.24,8.984,8.695,19.167,8.113,29.503
		c-0.92,16.355-13.524,30.812-30.273,31.364c-5.659,0.186-11.685-0.124-16.559,2.757c-2.784,1.646-4.944,4.215-7.773,5.782
		c-3.785,2.097-8.278,2.064-12.417,0.656c-2.667-0.908-5.187-2.388-7.274-4.238c-4.17-3.697-8.817-9.622-9.085-15.446
		c-0.16-3.494,2.422-4.131,4.165-1.461c1.228,1.881,1.77,4.119,2.905,6.039c2.191,3.707,5.369,7.212,10.059,6.955
		c8.362-0.458,10.44-10.471,11.714-16.939c2.371-12.045,9.642-20.894,19.151-28.322c6.364-4.972,14.985-12.24,22.513-6.856
		c0.992,0.709,4.811,6.658,4.027-0.076c-0.658-5.651-4.289-10.729-9.087-13.785c-2.206-1.405-19.873-8.287-17.25-1.004
		c1.908,5.298,5.338,8.478,2.425,14.303c-0.177,0.354-0.386,0.686-0.581,1.028c1.17-3.132,0.901-6.121-0.356-8.706
		c-3.783-7.779-15.37-10.567-23.095-8c-20.271,6.736-36.584,30.03-32.78,51.637c4.168,23.669,24.838,41.709,49.039,41.709
		c27.34,0,49.504-22.164,49.504-49.504C274.504,209.003,267.879,195.621,257.417,186.545z"/>
	<path style="fill:#FFFFFF;" d="M193.514,185.238c-7.358,5.975-13.745,16.623-15.837,25.411
		c-2.569,10.792-1.541,22.097-1.541,22.097s-1.028-20.044,12.85-35.464c4.931-5.478,11.044-9.889,17.911-12.601
		c2.813-1.111,18.514-2.752,11.245-7.417c-5.841-3.749-18.092,3.281-23.031,6.762C194.574,184.405,194.042,184.81,193.514,185.238z"
		/>
	<path style="opacity:0.5;fill:#C35E7F;" d="M258.574,200.976c-2.86-0.337-1.244,6.057,1.441,4.073
		c0.735-0.543,0.712-1.674,0.346-2.511C260.029,201.779,259.397,201.073,258.574,200.976z"/>
	<g style="opacity:0.7;">
		<path style="fill:#F5B5D2;" d="M269.87,221.303c-0.791,8.352-3.473,16.528-7.858,23.683c-3.639,5.938-12.61,12.76-19.835,13.493
			c-2.455,0.249-19.006,0.115-24.674,3.54c-0.956,0.579-2.222,1.469-2.222,2.713c0,1.215,1.134,2.113,1.79,2.965
			c0.531,0.69,0.5,1.752-0.069,2.41c-1.777,2.055-10.607-2.199-12.614-3.224c-15.534-7.925-19.973-14.583-24.728-23.143
			c0,0,4.121,12.998,22.508,24.094c18.387,11.096,40.262,2.536,40.262,2.536c-0.846,0.331-6.661,1.313-7.114,0.415
			c-0.053-0.105-0.017-0.232,0.031-0.339c0.555-1.241,2.822-1.209,3.99-1.586c1.528-0.494,3.023-1.091,4.47-1.788
			c2.826-1.361,5.462-3.1,7.85-5.132c4.846-4.122,8.624-9.385,11.442-15.063C267.04,238.936,269.217,230.125,269.87,221.303z"/>
		<path style="fill:#F5B5D2;" d="M269.97,212.048c0.169,3.016,0.132,6.122-0.1,9.255
			C270.161,218.228,270.203,215.129,269.97,212.048z"/>
	</g>
	<path style="opacity:0.7;fill:#FFFFFF;" d="M213.42,262.876c-0.031,0.165-0.127,0.321-0.25,0.438
		c-1.022,0.965-3.313,0.45-4.254-0.394c-0.127-0.115-0.249-0.257-0.26-0.428c-0.008-0.137,0.057-0.268,0.141-0.376
		c0.96-1.242,2.949-0.672,4.07-0.049c0.235,0.131,0.48,0.3,0.547,0.561C213.435,262.709,213.436,262.794,213.42,262.876z"/>
</g>
</svg>
