<?xml version="1.0" encoding="utf-8"?>
<!-- Generator: Adobe Illustrator 27.5.0, SVG Export Plug-In . SVG Version: 6.00 Build 0)  -->
<svg version="1.1" xmlns="http://www.w3.org/2000/svg" xmlns:xlink="http://www.w3.org/1999/xlink" x="0px" y="0px"
	 viewBox="0 0 2970 4200" style="enable-background:new 0 0 2970 4200;" xml:space="preserve">
<g id="BACKGROUND">
	<rect id="WHITE" style="fill:#FFFFFF;" width="2970" height="4200"/>
	<g id="BORDER">
		<g>
			<g>
				<polyline style="fill:none;stroke:#ED1C24;stroke-width:10;stroke-linecap:round;stroke-linejoin:round;" points="2900,4125 
					2900,4130 2895,4130 				"/>
				
					<line style="fill:none;stroke:#ED1C24;stroke-width:10;stroke-linecap:round;stroke-linejoin:round;stroke-dasharray:10.0356,20.0712;" x1="2874.929" y1="4130" x2="85.036" y2="4130"/>
				<polyline style="fill:none;stroke:#ED1C24;stroke-width:10;stroke-linecap:round;stroke-linejoin:round;" points="75,4130 
					70,4130 70,4125 				"/>
				
					<line style="fill:none;stroke:#ED1C24;stroke-width:10;stroke-linecap:round;stroke-linejoin:round;stroke-dasharray:10.0248,20.0495;" x1="70" y1="4104.951" x2="70" y2="85.025"/>
				<polyline style="fill:none;stroke:#ED1C24;stroke-width:10;stroke-linecap:round;stroke-linejoin:round;" points="70,75 70,70 
					75,70 				"/>
				
					<line style="fill:none;stroke:#ED1C24;stroke-width:10;stroke-linecap:round;stroke-linejoin:round;stroke-dasharray:10.0356,20.0712;" x1="95.071" y1="70" x2="2884.965" y2="70"/>
				<polyline style="fill:none;stroke:#ED1C24;stroke-width:10;stroke-linecap:round;stroke-linejoin:round;" points="2895,70 
					2900,70 2900,75 				"/>
				
					<line style="fill:none;stroke:#ED1C24;stroke-width:10;stroke-linecap:round;stroke-linejoin:round;stroke-dasharray:10.0248,20.0495;" x1="2900" y1="95.049" x2="2900" y2="4114.975"/>
			</g>
		</g>
	</g>
</g>
<g id="WORKSHEET">
	<g id="v-z">
		<g>
			<g>
				
					<line style="fill:none;stroke:#231F20;stroke-width:5;stroke-linecap:round;stroke-linejoin:round;" x1="2332.412" y1="3388.998" x2="2339.912" y2="3388.998"/>
				
					<line style="fill:none;stroke:#231F20;stroke-width:5;stroke-linecap:round;stroke-linejoin:round;stroke-dasharray:13.4852,20.2278;" x1="2360.14" y1="3388.998" x2="2484.878" y2="3388.998"/>
				<polyline style="fill:none;stroke:#231F20;stroke-width:5;stroke-linecap:round;stroke-linejoin:round;" points="
					2494.992,3388.998 2502.492,3388.998 2497.807,3394.854 				"/>
				
					<line style="fill:none;stroke:#231F20;stroke-width:5;stroke-linecap:round;stroke-linejoin:round;stroke-dasharray:15.5912,23.3868;" x1="2483.197" y1="3413.116" x2="2344.402" y2="3586.604"/>
				<polyline style="fill:none;stroke:#231F20;stroke-width:5;stroke-linecap:round;stroke-linejoin:round;" points="
					2337.098,3595.734 2332.412,3601.591 2339.912,3601.591 				"/>
				
					<line style="fill:none;stroke:#231F20;stroke-width:5;stroke-linecap:round;stroke-linejoin:round;stroke-dasharray:13.4837,20.2255;" x1="2360.138" y1="3601.591" x2="2484.862" y2="3601.591"/>
				
					<line style="fill:none;stroke:#231F20;stroke-width:5;stroke-linecap:round;stroke-linejoin:round;" x1="2494.975" y1="3601.591" x2="2502.475" y2="3601.591"/>
			</g>
		</g>
		<g>
			<g>
				
					<path style="fill:none;stroke:#231F20;stroke-width:5;stroke-linecap:round;stroke-linejoin:round;stroke-dasharray:14.2255,21.3382;" d="
					M2038.564,3579.75c-13.184,10.903-33.815,21.841-63.536,21.841c-48.422,0-87.697-47.593-87.697-106.304
					c0-36.677-0.005-69.018-0.008-88.121"/>
				<path style="fill:none;stroke:#231F20;stroke-width:5;stroke-linecap:round;stroke-linejoin:round;" d="M1887.321,3396.494
					c-0.001-4.837-0.002-7.496-0.002-7.496"/>
			</g>
		</g>
		<g>
			<g>
				<path style="fill:none;stroke:#231F20;stroke-width:5;stroke-linecap:round;stroke-linejoin:round;" d="M1887.331,3669.918
					c0,2.515,0.154,5.01,0.456,7.48"/>
				
					<path style="fill:none;stroke:#231F20;stroke-width:5;stroke-linecap:round;stroke-linejoin:round;stroke-dasharray:15.1811,22.7717;" d="
					M1894.44,3699.063c13.434,26.651,44.466,46.338,80.588,46.338c59.256,0,82.383-50.961,82.383-88.703
					c0-15.691,0-190.448,0-248.834"/>
				<path style="fill:none;stroke:#231F20;stroke-width:5;stroke-linecap:round;stroke-linejoin:round;" d="M2057.411,3396.494
					c0-4.819,0-7.496,0-7.496"/>
			</g>
		</g>
		<g>
			<g>
				
					<line style="fill:none;stroke:#231F20;stroke-width:5;stroke-linecap:round;stroke-linejoin:round;" x1="467.508" y1="3388.998" x2="470.293" y2="3395.962"/>
				
					<line style="fill:none;stroke:#231F20;stroke-width:5;stroke-linecap:round;stroke-linejoin:round;stroke-dasharray:15.2835,22.9253;" x1="478.808" y1="3417.247" x2="545.503" y2="3583.984"/>
				<polyline style="fill:none;stroke:#231F20;stroke-width:5;stroke-linecap:round;stroke-linejoin:round;" points="
					549.76,3594.627 552.545,3601.591 555.331,3594.627 				"/>
				
					<line style="fill:none;stroke:#231F20;stroke-width:5;stroke-linecap:round;stroke-linejoin:round;stroke-dasharray:15.2837,22.9255;" x1="563.846" y1="3573.342" x2="630.545" y2="3406.604"/>
				
					<line style="fill:none;stroke:#231F20;stroke-width:5;stroke-linecap:round;stroke-linejoin:round;" x1="634.803" y1="3395.962" x2="637.588" y2="3388.998"/>
			</g>
		</g>
		<g>
			<g>
				
					<line style="fill:none;stroke:#231F20;stroke-width:5;stroke-linecap:round;stroke-linejoin:round;" x1="912.608" y1="3388.998" x2="914.766" y2="3396.182"/>
				
					<line style="fill:none;stroke:#231F20;stroke-width:5;stroke-linecap:round;stroke-linejoin:round;stroke-dasharray:14.7836,22.1754;" x1="921.144" y1="3417.42" x2="971.101" y2="3583.788"/>
				<polyline style="fill:none;stroke:#231F20;stroke-width:5;stroke-linecap:round;stroke-linejoin:round;" points="
					974.289,3594.408 976.446,3601.591 978.604,3594.408 				"/>
				
					<line style="fill:none;stroke:#231F20;stroke-width:5;stroke-linecap:round;stroke-linejoin:round;stroke-dasharray:14.7844,22.1765;" x1="984.985" y1="3573.17" x2="1034.972" y2="3406.8"/>
				<polyline style="fill:none;stroke:#231F20;stroke-width:5;stroke-linecap:round;stroke-linejoin:round;" points="
					1038.162,3396.181 1040.32,3388.998 1039.509,3388.998 1041.667,3396.181 				"/>
				
					<line style="fill:none;stroke:#231F20;stroke-width:5;stroke-linecap:round;stroke-linejoin:round;stroke-dasharray:14.7842,22.1762;" x1="1048.047" y1="3417.42" x2="1098.025" y2="3583.789"/>
				<polyline style="fill:none;stroke:#231F20;stroke-width:5;stroke-linecap:round;stroke-linejoin:round;" points="
					1101.216,3594.408 1103.373,3601.591 1105.53,3594.408 				"/>
				
					<line style="fill:none;stroke:#231F20;stroke-width:5;stroke-linecap:round;stroke-linejoin:round;stroke-dasharray:14.7838,22.1757;" x1="1111.909" y1="3573.169" x2="1161.874" y2="3406.801"/>
				
					<line style="fill:none;stroke:#231F20;stroke-width:5;stroke-linecap:round;stroke-linejoin:round;" x1="1165.063" y1="3396.182" x2="1167.221" y2="3388.998"/>
			</g>
		</g>
		<g>
			<g>
				
					<line style="fill:none;stroke:#231F20;stroke-width:5;stroke-linecap:round;stroke-linejoin:round;" x1="1442.308" y1="3388.998" x2="1446.991" y2="3394.855"/>
				
					<line style="fill:none;stroke:#231F20;stroke-width:5;stroke-linecap:round;stroke-linejoin:round;stroke-dasharray:15.5889,23.3834;" x1="1461.596" y1="3413.118" x2="1600.331" y2="3586.61"/>
				
					<line style="fill:none;stroke:#231F20;stroke-width:5;stroke-linecap:round;stroke-linejoin:round;" x1="1607.634" y1="3595.741" x2="1612.317" y2="3601.599"/>
			</g>
		</g>
		<g>
			<g>
				
					<line style="fill:none;stroke:#231F20;stroke-width:5;stroke-linecap:round;stroke-linejoin:round;" x1="1612.317" y1="3388.998" x2="1607.632" y2="3394.854"/>
				
					<line style="fill:none;stroke:#231F20;stroke-width:5;stroke-linecap:round;stroke-linejoin:round;stroke-dasharray:15.5918,23.3877;" x1="1593.021" y1="3413.117" x2="1454.222" y2="3586.611"/>
				
					<line style="fill:none;stroke:#231F20;stroke-width:5;stroke-linecap:round;stroke-linejoin:round;" x1="1446.917" y1="3595.742" x2="1442.231" y2="3601.599"/>
			</g>
		</g>
		<path style="fill:none;stroke:#231F20;stroke-width:5;stroke-linecap:round;stroke-linejoin:round;stroke-miterlimit:10;" d="
			M2502.479,3564.091h-92.038l121.337-151.666c9.006-11.257,10.763-26.679,4.518-39.671c-6.244-12.993-19.384-21.256-33.799-21.256
			h-170.08c-20.711,0-37.5,16.789-37.5,37.5s16.789,37.5,37.5,37.5h92.055l-121.337,151.667
			c-9.005,11.256-10.762,26.678-4.517,39.67c6.244,12.992,19.383,21.256,33.799,21.256h170.063c20.711,0,37.5-16.789,37.5-37.5
			S2523.19,3564.091,2502.479,3564.091z"/>
		<path style="fill:none;stroke:#231F20;stroke-width:5;stroke-linecap:round;stroke-linejoin:round;stroke-miterlimit:10;" d="
			M2057.416,3351.498c-20.711,0-37.5,16.789-37.5,37.5v157.024c-6.693,7.259-20.712,18.068-44.883,18.068
			c-27.21,0-50.197-31.508-50.197-68.804c0-58.701-0.012-106.298-0.012-106.298c-0.005-20.708-16.793-37.491-37.5-37.491
			c0,0-0.007,0-0.01,0c-20.711,0.005-37.495,16.799-37.49,37.51c0,0.001,0.012,47.589,0.012,106.279
			c0,37.082,12.168,72.253,34.265,99.033c11.324,13.726,24.679,24.588,39.692,32.287c16.157,8.283,33.396,12.483,51.24,12.483
			c15.728,0,30.804-2.38,44.883-7.008v24.615c0,12.843-4.365,26.599-11.393,35.901c-7.887,10.44-18.528,15.302-33.49,15.302
			c-28.73,0-50.197-20.053-50.197-37.983c0-20.71-16.789-37.5-37.5-37.5s-37.5,16.79-37.5,37.5
			c0,30.119,14.043,59.653,38.526,81.031c23.601,20.604,54.381,31.952,86.671,31.952c38.219,0,71.365-16.015,93.334-45.094
			c16.872-22.334,26.549-51.897,26.549-81.109v-267.7C2094.916,3368.287,2078.127,3351.498,2057.416,3351.498z"/>
		<path style="fill:none;stroke:#231F20;stroke-width:5;stroke-linecap:round;stroke-linejoin:round;stroke-miterlimit:10;" d="
			M651.521,3354.181c-19.229-7.692-41.053,1.661-48.746,20.89l-50.224,125.552l-50.221-125.551
			c-7.691-19.229-29.517-28.583-48.744-20.892c-19.23,7.692-28.583,29.516-20.892,48.745l85.037,212.593
			c5.695,14.237,19.484,23.573,34.817,23.573c0.002,0,0,0,0.001,0c15.332,0,29.122-9.336,34.817-23.572l85.043-212.592
			C680.102,3383.696,670.75,3361.873,651.521,3354.181z"/>
		<path style="fill:none;stroke:#231F20;stroke-width:5;stroke-linecap:round;stroke-linejoin:round;stroke-miterlimit:10;" d="
			M1178.012,3353.083c-19.837-5.957-40.744,5.293-46.701,25.129l-27.937,93.021l-25.694-85.53
			c-0.602-6.822-3.068-13.442-7.264-19.084c-7.076-9.514-18.234-15.121-30.091-15.121h-0.812c-11.856,0-23.014,5.607-30.09,15.121
			c-4.195,5.641-6.663,12.261-7.265,19.083l-25.698,85.531l-27.932-93.021c-5.956-19.836-26.868-31.086-46.701-25.13
			c-19.835,5.956-31.087,26.864-25.131,46.7l63.838,212.593c4.762,15.856,19.357,26.714,35.913,26.715c0.001,0,0.002,0,0.003,0
			c16.554,0,31.15-10.855,35.914-26.709l27.552-91.702l27.547,91.7c4.763,15.855,19.36,26.712,35.916,26.711
			c16.556,0,31.152-10.857,35.913-26.714l63.848-212.592C1209.099,3379.949,1197.848,3359.04,1178.012,3353.083z"/>
		<path style="fill:none;stroke:#231F20;stroke-width:5;stroke-linecap:round;stroke-linejoin:round;stroke-miterlimit:10;" d="
			M1575.318,3495.279l66.286-82.854c12.938-16.172,10.316-39.771-5.855-52.709c-16.172-12.938-39.771-10.317-52.709,5.855
			l-55.735,69.667l-55.705-69.66c-12.936-16.175-36.532-18.803-52.707-5.867c-16.176,12.935-18.802,36.532-5.867,52.707
			l66.253,82.852l-66.324,82.902c-12.938,16.172-10.316,39.771,5.855,52.708c6.916,5.533,15.186,8.22,23.403,8.22
			c10.999,0,21.9-4.818,29.306-14.075l55.773-69.714l55.743,69.708c7.406,9.262,18.308,14.081,29.312,14.081
			c8.212,0,16.482-2.687,23.396-8.214c16.176-12.935,18.802-36.533,5.867-52.708L1575.318,3495.279z"/>
	</g>
	<g id="q-u">
		<g>
			<g>
				<path style="fill:none;stroke:#231F20;stroke-width:5;stroke-linecap:round;stroke-linejoin:round;" d="M1390.934,2922.296
					c0,0,2.177,1.716,6.064,4.407"/>
				
					<path style="fill:none;stroke:#231F20;stroke-width:5;stroke-linecap:round;stroke-linejoin:round;stroke-dasharray:15.0423,22.5635;" d="
					M1416.177,2938.569c17.992,9.928,43.421,20.723,68.925,20.723c47.227,0,85.518-23.797,85.518-53.152
					s-38.291-53.145-85.518-53.145c-47.215,0-85.512-23.804-85.512-53.151c0-29.349,38.297-53.152,85.512-53.152
					c29.436,0,55.4,14.182,70.785,24.866"/>
				<path style="fill:none;stroke:#231F20;stroke-width:5;stroke-linecap:round;stroke-linejoin:round;" d="M1564.93,2778.314
					c3.675,2.96,5.689,4.881,5.689,4.881"/>
			</g>
		</g>
		<g>
			<g>
				
					<path style="fill:none;stroke:#231F20;stroke-width:5;stroke-linecap:round;stroke-linejoin:round;stroke-dasharray:15.3913,23.0869;" d="
					M658.235,2767.429c-13.226-10.525-33.458-20.737-62.178-20.737c-48.428,0-87.691,47.593-87.691,106.304
					c0,58.703,39.264,106.297,87.691,106.297c36.317,0,58.676-15.21,70.773-27.42"/>
			</g>
		</g>
		<g>
			<g>
				
					<line style="fill:none;stroke:#231F20;stroke-width:5;stroke-linecap:round;stroke-linejoin:round;" x1="678.451" y1="3065.595" x2="678.451" y2="3058.095"/>
				
					<line style="fill:none;stroke:#231F20;stroke-width:5;stroke-linecap:round;stroke-linejoin:round;stroke-dasharray:14.135,21.2026;" x1="678.451" y1="3036.893" x2="678.451" y2="2764.793"/>
				
					<line style="fill:none;stroke:#231F20;stroke-width:5;stroke-linecap:round;stroke-linejoin:round;" x1="678.451" y1="2754.191" x2="678.451" y2="2746.691"/>
			</g>
		</g>
		<g>
			<g>
				<g>
					<path style="fill:none;stroke:#231F20;stroke-width:5;stroke-linecap:round;stroke-linejoin:round;" d="M1885.404,2618.796
						c0,0,0,2.683,0,7.495"/>
					
						<path style="fill:none;stroke:#231F20;stroke-width:5;stroke-linecap:round;stroke-linejoin:round;stroke-dasharray:14.703,22.0544;" d="
						M1885.404,2648.344c0,52.579,0,160.956,0,204.651c0,58.703,29.842,106.297,66.645,106.297
						c41.811,0,55.694-31.806,60.304-52.927"/>
					<path style="fill:none;stroke:#231F20;stroke-width:5;stroke-linecap:round;stroke-linejoin:round;" d="M2014.137,2895.481
						c0.508-4.599,0.508-7.477,0.508-7.477"/>
				</g>
			</g>
		</g>
		<g>
			<g>
				
					<line style="fill:none;stroke:#231F20;stroke-width:5;stroke-linecap:round;stroke-linejoin:round;" x1="1845.619" y1="2746.691" x2="1853.119" y2="2746.691"/>
				
					<line style="fill:none;stroke:#231F20;stroke-width:5;stroke-linecap:round;stroke-linejoin:round;stroke-dasharray:13.4847,20.2271;" x1="1873.346" y1="2746.691" x2="1998.08" y2="2746.691"/>
				
					<line style="fill:none;stroke:#231F20;stroke-width:5;stroke-linecap:round;stroke-linejoin:round;" x1="2008.193" y1="2746.691" x2="2015.693" y2="2746.691"/>
			</g>
		</g>
		<g>
			<g>
				
					<line style="fill:none;stroke:#231F20;stroke-width:5;stroke-linecap:round;stroke-linejoin:round;" x1="2461.635" y1="2959.292" x2="2461.635" y2="2951.792"/>
				
					<line style="fill:none;stroke:#231F20;stroke-width:5;stroke-linecap:round;stroke-linejoin:round;stroke-dasharray:14.1143,21.1715;" x1="2461.635" y1="2930.621" x2="2461.635" y2="2764.777"/>
				
					<line style="fill:none;stroke:#231F20;stroke-width:5;stroke-linecap:round;stroke-linejoin:round;" x1="2461.635" y1="2754.191" x2="2461.635" y2="2746.691"/>
			</g>
		</g>
		<g>
			<g>
				<path style="fill:none;stroke:#231F20;stroke-width:5;stroke-linecap:round;stroke-linejoin:round;" d="M2292.41,2746.691
					c0,0-0.267,2.693-0.59,7.474"/>
				
					<path style="fill:none;stroke:#231F20;stroke-width:5;stroke-linecap:round;stroke-linejoin:round;stroke-dasharray:15.0982,22.6473;" d="
					M2290.827,2776.789c-1.304,58.638,5.45,182.495,85.765,182.495c41.638,0.005,66.162-38.948,77.176-62.473"/>
			</g>
		</g>
		<g>
			<g>
				
					<line style="fill:none;stroke:#231F20;stroke-width:5;stroke-linecap:round;stroke-linejoin:round;" x1="953.451" y1="2746.691" x2="953.451" y2="2754.191"/>
				
					<line style="fill:none;stroke:#231F20;stroke-width:5;stroke-linecap:round;stroke-linejoin:round;stroke-dasharray:14.1143,21.1715;" x1="953.451" y1="2775.363" x2="953.451" y2="2941.206"/>
				
					<line style="fill:none;stroke:#231F20;stroke-width:5;stroke-linecap:round;stroke-linejoin:round;" x1="953.451" y1="2951.792" x2="953.451" y2="2959.292"/>
			</g>
		</g>
		<g>
			<g>
				<path style="fill:none;stroke:#231F20;stroke-width:5;stroke-linecap:round;stroke-linejoin:round;" d="M1124.393,2786.667
					c0,0-1.561-2.303-4.74-5.803"/>
				
					<path style="fill:none;stroke:#231F20;stroke-width:5;stroke-linecap:round;stroke-linejoin:round;stroke-dasharray:14.7748,22.1621;" d="
					M1103.006,2766.299c-14.076-9.865-35.271-19.607-64.09-19.607c-41.988,0-66.661,39.216-77.677,62.717"/>
			</g>
		</g>
		<path style="fill:none;stroke:#231F20;stroke-width:5;stroke-linecap:round;stroke-linejoin:round;stroke-miterlimit:10;" d="
			M678.451,2709.191c-10.42,0-19.844,4.252-26.64,11.112c-17.08-7.323-35.899-11.112-55.755-11.112
			c-17.846,0-35.085,4.201-51.242,12.484c-15.015,7.698-28.368,18.562-39.692,32.287c-22.092,26.78-34.258,61.95-34.258,99.032
			c0,37.079,12.166,72.247,34.259,99.026c11.323,13.726,24.677,24.588,39.691,32.286c16.157,8.284,33.396,12.484,51.242,12.484
			c17.182,0,32.11-2.653,44.895-6.708v75.511c0,20.711,16.789,37.5,37.5,37.5c20.711,0,37.5-16.789,37.5-37.5v-318.903
			C715.951,2725.98,699.162,2709.191,678.451,2709.191z M596.057,2921.792c-27.207,0-50.191-31.506-50.191-68.797
			c0-37.295,22.984-68.804,50.191-68.804c20.887,0,34.191,8.069,41.74,14.945c1.193,1.087,3.155,3.121,3.155,5.871
			s0,95.729,0,97.771s-1.408,3.468-2.233,4.229C631.556,2913.622,618.227,2921.792,596.057,2921.792z"/>
		<path style="fill:none;stroke:#231F20;stroke-width:5;stroke-linecap:round;stroke-linejoin:round;stroke-miterlimit:10;" d="
			M2015.693,2784.191c20.711,0,37.5-16.789,37.5-37.5s-16.789-37.5-37.5-37.5h-92.789v-90.396c0-20.711-16.789-37.5-37.5-37.5
			s-37.5,16.789-37.5,37.5v90.396h-2.285c-20.711,0-37.5,16.789-37.5,37.5s16.789,37.5,37.5,37.5h2.285v68.804
			c0,35.345,8.967,69.113,25.25,95.082c19.41,30.959,48.166,48.715,78.895,48.715c22.652,0,42.459-6.315,58.863-18.771
			c12.93-9.817,23.105-23.039,30.244-39.297c10.459-23.821,10.988-46.429,10.988-50.719c0-20.711-16.789-37.5-37.5-37.5
			s-37.5,16.789-37.5,37.5c0,0.1-0.422,10.911-4.66,20.568c-4.34,9.883-9.496,13.219-20.436,13.219
			c-8.459,0-29.145-24.108-29.145-68.797v-68.804H2015.693z"/>
		<path style="fill:none;stroke:#231F20;stroke-width:5;stroke-linecap:round;stroke-linejoin:round;stroke-miterlimit:10;" d="
			M2461.635,2709.191c-20.711,0-37.5,16.789-37.5,37.5v123.873c-1.844,5.03-6.773,17.24-14.93,28.875
			c-10.393,14.828-21.363,22.345-32.609,22.345c-0.002,0-0.002,0-0.004,0c-8.756,0-15.008-2.773-20.906-9.272
			c-8.105-8.93-22.314-32.763-26.434-92.055c-2.592-37.301,0.406-69.336,0.479-70.095c2.027-20.601-13.023-38.949-33.627-40.988
			c-20.623-2.04-38.971,13.014-41.012,33.624c-0.15,1.523-3.658,37.813-0.746,81.394c4.211,63.019,19.598,109.599,45.73,138.446
			c20.119,22.208,46.578,33.946,76.512,33.946c0.006,0,0.008,0,0.014,0c19.379,0,37.674-5.312,54.48-15.764
			c6.797,9.542,17.945,15.771,30.553,15.771c20.711,0,37.5-16.79,37.5-37.5v-212.601
			C2499.135,2725.98,2482.346,2709.191,2461.635,2709.191z"/>
		<path style="fill:none;stroke:#231F20;stroke-width:5;stroke-linecap:round;stroke-linejoin:round;stroke-miterlimit:10;" d="
			M1570.619,2820.695c20.711,0,37.5-16.79,37.5-37.5c0-9.177-3.301-17.579-8.771-24.096l0.004-0.004
			c-5.07-6.044-51.348-49.904-114.25-49.904c-29.738,0-58.241,7.537-80.258,21.222c-27.171,16.889-42.754,42.195-42.754,69.431
			s15.583,52.542,42.754,69.43c22.017,13.686,50.52,21.222,80.258,21.222c13.557,0,30.056,3.251,36.471,7.594
			c6.928,4.689,6.428,11.773,0,16.106c-9.206,6.206-22.914,7.597-36.471,7.597c-23.777,0-52.936-11.596-65.441-23.593
			c-8.208-7.874-17.193-13.403-28.727-13.403c-20.711,0-37.5,16.789-37.5,37.5c0,9.177,3.301,17.58,8.774,24.098l-0.004,0.003
			c5.07,6.045,60.009,50.396,122.897,50.396c29.744,0,58.25-7.536,80.264-21.219c27.172-16.887,42.754-42.194,42.754-69.434
			c0-27.24-15.584-52.547-42.756-69.432c-22.014-13.68-50.518-21.213-80.262-21.213c-13.549,0-29.352-1.8-36.459-7.597
			c-5.02-4.094-6.896-10.442,0-16.11c7.107-5.843,22.91-7.597,36.459-7.597c23.785,0,48.659,17.65,56.912,23.251
			S1559.084,2820.695,1570.619,2820.695z"/>
		<path style="fill:none;stroke:#231F20;stroke-width:5;stroke-linecap:round;stroke-linejoin:round;stroke-miterlimit:10;" d="
			M1155.431,2765.626l0.002-0.001c-1.767-2.605-11.521-16.273-30.174-29.52c-24.792-17.607-54.648-26.914-86.343-26.914
			c-19.509,0-37.924,5.35-54.838,15.875c-6.791-9.601-17.973-15.875-30.627-15.875c-20.711,0-37.5,16.789-37.5,37.5v212.601
			c0,20.71,16.789,37.5,37.5,37.5c20.711,0,37.5-16.79,37.5-37.5c0,0,0-110.159,0-116.534c0-17.229,16.714-57.903,47.965-58.566
			c31.251-0.663,45.682,14.764,54.437,23.518s18.203,16.742,31.237,16.742c20.711,0,37.5-16.79,37.5-37.5
			C1162.09,2779.026,1159.626,2771.682,1155.431,2765.626z"/>
	</g>
	<g id="l-p">
		<g>
			<g>
				
					<path style="fill:none;stroke:#231F20;stroke-width:5;stroke-linecap:round;stroke-linejoin:round;stroke-dasharray:15.3912,23.0868;" d="
					M2240.147,2084.779c13.226-10.525,33.458-20.737,62.179-20.737c48.422,0,87.691,47.593,87.691,106.304
					c0,58.703-39.27,106.297-87.691,106.297c-36.317,0-58.676-15.21-70.773-27.42"/>
			</g>
		</g>
		<g>
			<g>
				
					<line style="fill:none;stroke:#231F20;stroke-width:5;stroke-linecap:round;stroke-linejoin:round;" x1="2219.938" y1="2382.945" x2="2219.938" y2="2375.445"/>
				
					<line style="fill:none;stroke:#231F20;stroke-width:5;stroke-linecap:round;stroke-linejoin:round;stroke-dasharray:14.135,21.2026;" x1="2219.938" y1="2354.242" x2="2219.938" y2="2082.144"/>
				
					<line style="fill:none;stroke:#231F20;stroke-width:5;stroke-linecap:round;stroke-linejoin:round;" x1="2219.938" y1="2071.542" x2="2219.938" y2="2064.042"/>
			</g>
		</g>
		<g>
			<g>
				
					<line style="fill:none;stroke:#231F20;stroke-width:5;stroke-linecap:round;stroke-linejoin:round;" x1="579.982" y1="1851.445" x2="579.982" y2="1858.945"/>
				
					<line style="fill:none;stroke:#231F20;stroke-width:5;stroke-linecap:round;stroke-linejoin:round;stroke-dasharray:15.479,23.2185;" x1="579.982" y1="1882.163" x2="579.982" y2="2257.529"/>
				
					<line style="fill:none;stroke:#231F20;stroke-width:5;stroke-linecap:round;stroke-linejoin:round;" x1="579.982" y1="2269.139" x2="579.982" y2="2276.639"/>
			</g>
		</g>
		<g>
			<g>
				
					<line style="fill:none;stroke:#231F20;stroke-width:5;stroke-linecap:round;stroke-linejoin:round;" x1="854.982" y1="2064.038" x2="854.982" y2="2071.538"/>
				
					<line style="fill:none;stroke:#231F20;stroke-width:5;stroke-linecap:round;stroke-linejoin:round;stroke-dasharray:14.1144,21.1715;" x1="854.982" y1="2092.709" x2="854.982" y2="2258.553"/>
				
					<line style="fill:none;stroke:#231F20;stroke-width:5;stroke-linecap:round;stroke-linejoin:round;" x1="854.982" y1="2269.139" x2="854.982" y2="2276.639"/>
			</g>
		</g>
		<g>
			<g>
				<path style="fill:none;stroke:#231F20;stroke-width:5;stroke-linecap:round;stroke-linejoin:round;" d="M957.063,2276.639
					c0,0,0.162-2.698,0.358-7.487"/>
				
					<path style="fill:none;stroke:#231F20;stroke-width:5;stroke-linecap:round;stroke-linejoin:round;stroke-dasharray:14.8045,22.2068;" d="
					M958.018,2246.957c0.815-58.466-3.183-182.908-52.002-182.919c-25.027,0-39.857,38.296-46.616,61.878"/>
			</g>
		</g>
		<g>
			<g>
				<path style="fill:none;stroke:#231F20;stroke-width:5;stroke-linecap:round;stroke-linejoin:round;" d="M1058.664,2276.639
					c0,0,0.162-2.698,0.358-7.487"/>
				
					<path style="fill:none;stroke:#231F20;stroke-width:5;stroke-linecap:round;stroke-linejoin:round;stroke-dasharray:14.8047,22.207;" d="
					M1059.619,2246.956c0.815-58.465-3.183-182.907-52.002-182.918c-25.027,0-39.86,38.296-46.621,61.879"/>
			</g>
		</g>
		<g>
			<g>
				
					<line style="fill:none;stroke:#231F20;stroke-width:5;stroke-linecap:round;stroke-linejoin:round;" x1="1334.71" y1="2064.042" x2="1334.71" y2="2071.542"/>
				
					<line style="fill:none;stroke:#231F20;stroke-width:5;stroke-linecap:round;stroke-linejoin:round;stroke-dasharray:14.1143,21.1715;" x1="1334.71" y1="2092.713" x2="1334.71" y2="2258.557"/>
				
					<line style="fill:none;stroke:#231F20;stroke-width:5;stroke-linecap:round;stroke-linejoin:round;" x1="1334.71" y1="2269.143" x2="1334.71" y2="2276.643"/>
			</g>
		</g>
		<g>
			<g>
				<path style="fill:none;stroke:#231F20;stroke-width:5;stroke-linecap:round;stroke-linejoin:round;" d="M1503.073,2276.643
					c0,0,0.267-2.693,0.59-7.474"/>
				
					<path style="fill:none;stroke:#231F20;stroke-width:5;stroke-linecap:round;stroke-linejoin:round;stroke-dasharray:15.0991,22.6486;" d="
					M1504.657,2246.544c1.305-58.638-5.446-182.491-85.76-182.502c-41.646,0-66.173,38.96-77.188,62.486"/>
			</g>
		</g>
		<g>
			
				<path style="fill:none;stroke:#231F20;stroke-width:5;stroke-linecap:round;stroke-linejoin:round;stroke-dasharray:14.8933,22.34;" d="
				M1944.938,2170.346c0,58.703-36.967,106.297-82.576,106.297c-45.604,0-82.57-47.594-82.57-106.297
				c0-58.711,36.967-106.304,82.57-106.304C1907.971,2064.042,1944.938,2111.635,1944.938,2170.346z"/>
		</g>
		<path style="fill:none;stroke:#231F20;stroke-width:5;stroke-linecap:round;stroke-linejoin:round;stroke-miterlimit:10;" d="
			M2353.565,2039.027c-16.156-8.284-33.396-12.485-51.239-12.485c-19.854,0-38.672,3.789-55.751,11.11
			c-6.796-6.858-16.219-11.11-26.638-11.11c-20.711,0-37.5,16.789-37.5,37.5v43.772c0,0.002,0,0.004,0,0.005v275.126
			c0,20.711,16.789,37.5,37.5,37.5s37.5-16.789,37.5-37.5v-75.509c12.783,4.054,27.71,6.706,44.889,6.706
			c17.844,0,35.083-4.2,51.239-12.484c15.014-7.698,28.367-18.561,39.69-32.286c22.094-26.779,34.262-61.948,34.262-99.026
			c0-37.081-12.168-72.252-34.261-99.032C2381.934,2057.588,2368.579,2046.726,2353.565,2039.027z M2302.326,2239.143
			c-24.716,0-38.443-10.153-44.889-16.985v-102.411c1.449-1.558,3.229-3.301,5.324-5.027c10.608-8.743,23.92-13.177,39.564-13.177
			c27.206,0,50.191,31.509,50.191,68.804C2352.518,2207.637,2329.532,2239.143,2302.326,2239.143z"/>
		<path style="fill:none;stroke:#231F20;stroke-width:5;stroke-linecap:round;stroke-linejoin:round;stroke-miterlimit:10;" d="
			M579.982,2314.139c20.711,0,37.5-16.79,37.5-37.5v-425.194c0-20.71-16.789-37.5-37.5-37.5c-20.711,0-37.5,16.79-37.5,37.5v425.194
			C542.482,2297.349,559.271,2314.139,579.982,2314.139z"/>
		<path style="fill:none;stroke:#231F20;stroke-width:5;stroke-linecap:round;stroke-linejoin:round;stroke-miterlimit:10;" d="
			M1056.158,2048.222c-13.354-14.181-30.135-21.68-48.541-21.684c-14.715,0-33.404,5.017-50.622,24.404
			c-0.801-0.93-1.611-1.841-2.438-2.72c-13.352-14.181-30.135-21.68-48.541-21.684c-8.67,0-18.72,1.744-29.035,7.138
			c-6.18-4.486-13.777-7.138-21.998-7.138c-20.711,0-37.5,16.79-37.5,37.5v80.535c0.001,0.051-0.001,0.1,0,0.15v131.916
			c0,20.71,16.789,37.5,37.5,37.5c20.711,0,37.5-16.79,37.5-37.5v-128.79c0,0-0.482-21.495,11.684-21.495
			c14.264,0,12.458,18.488,15.183,63.891c2.622,43.679,0.303,83.76,0.279,84.159c-1.234,20.669,14.517,38.427,35.186,39.667
			c0.766,0.047,1.524,0.068,2.282,0.068c19.682,0,36.202-15.346,37.397-35.254c0.104-1.729,2.513-42.902-0.096-89.961
			c-0.766-13.797-1.86-26.588-3.29-38.44c0,0-3.359-24.538,9.353-24.974c10.032-0.344,17.765,19.332,20.489,64.734
			c2.621,43.679,0.303,83.76,0.279,84.159c-1.234,20.669,14.517,38.427,35.186,39.667c0.766,0.047,1.524,0.068,2.282,0.068
			c19.683,0,36.202-15.346,37.397-35.254c0.104-1.729,2.513-42.902-0.096-89.961
			C1092.046,2117.6,1079.386,2072.891,1056.158,2048.222z"/>
		<path style="fill:none;stroke:#231F20;stroke-width:5;stroke-linecap:round;stroke-linejoin:round;stroke-miterlimit:10;" d="
			M1495.415,2060.498c-20.117-22.21-46.574-33.952-76.518-33.956c-19.157,0-37.254,5.185-53.9,15.396
			c-6.821-9.331-17.844-15.396-30.287-15.396c-20.711,0-37.5,16.789-37.5,37.5v212.601c0,20.71,16.789,37.5,37.5,37.5
			c20.71,0,37.5-16.79,37.5-37.5c0,0,0-102.197,0-114.697c0-8.834,6.958-27.91,14.064-38.05
			c10.397-14.833,21.373-22.354,32.617-22.354c8.757,0.001,15.011,2.776,20.911,9.278c8.104,8.931,22.313,32.766,26.431,92.058
			c2.59,37.295-0.407,69.325-0.48,70.092c-2.026,20.6,13.023,38.95,33.625,40.99c1.257,0.125,2.503,0.185,3.74,0.185
			c19.047,0,35.356-14.455,37.272-33.808c0.15-1.523,3.66-37.812,0.749-81.392
			C1536.929,2135.929,1521.546,2089.348,1495.415,2060.498z"/>
		<path style="fill:none;stroke:#231F20;stroke-width:5;stroke-linecap:round;stroke-linejoin:round;stroke-miterlimit:10;" d="
			M1862.361,2026.542c-33.402,0-65.478,16.632-88.002,45.632c-20.68,26.623-32.068,61.488-32.068,98.172
			c0,36.681,11.389,71.544,32.068,98.166c22.525,28.999,54.601,45.631,88.002,45.631c33.403,0,65.48-16.632,88.006-45.63
			c20.681-26.623,32.07-61.485,32.07-98.167c0-36.685-11.39-71.55-32.069-98.173
			C1927.842,2043.174,1895.765,2026.542,1862.361,2026.542z M1862.361,2239.143c-24.01,0-45.07-32.148-45.07-68.797
			c0-36.652,21.061-68.804,45.07-68.804c24.013,0,45.076,32.151,45.076,68.804
			C1907.438,2206.994,1886.374,2239.143,1862.361,2239.143z"/>
	</g>
	<g id="f-k">
		<g>
			<g>
				
					<path style="fill:none;stroke:#231F20;stroke-width:5;stroke-linecap:round;stroke-linejoin:round;stroke-dasharray:15.3912,23.0868;" d="
					M967.239,1512.158c-13.226,10.523-33.458,20.733-62.175,20.733c-48.428,0-87.69-47.593-87.69-106.297
					c0-58.711,39.263-106.304,87.69-106.304c36.319,0,58.678,15.214,70.775,27.426"/>
				<path style="fill:none;stroke:#231F20;stroke-width:5;stroke-linecap:round;stroke-linejoin:round;" d="M983.367,1356.458
					c2.802,3.785,4.08,6.283,4.08,6.283"/>
			</g>
		</g>
		<g>
			<g>
				<path style="fill:none;stroke:#231F20;stroke-width:5;stroke-linecap:round;stroke-linejoin:round;" d="M1982.54,1563.71
					c0,2.514,0.154,5.01,0.456,7.48"/>
				
					<path style="fill:none;stroke:#231F20;stroke-width:5;stroke-linecap:round;stroke-linejoin:round;stroke-dasharray:15.1955,22.7932;" d="
					M1989.659,1592.875c13.439,26.642,44.465,46.318,80.578,46.318c59.256,0,82.383-50.962,82.383-88.704
					c0-15.402,0-159.073,0-211.32"/>
				<path style="fill:none;stroke:#231F20;stroke-width:5;stroke-linecap:round;stroke-linejoin:round;" d="M2152.62,1327.786
					c0-4.804,0-7.496,0-7.496"/>
			</g>
		</g>
		<g>
			<g>
				<path style="fill:none;stroke:#231F20;stroke-width:5;stroke-linecap:round;stroke-linejoin:round;" d="M817.38,1601.21
					c0,2.514,0.154,5.01,0.456,7.48"/>
				
					<path style="fill:none;stroke:#231F20;stroke-width:5;stroke-linecap:round;stroke-linejoin:round;stroke-dasharray:15.1953,22.793;" d="
					M824.498,1630.375c13.44,26.641,44.463,46.318,80.572,46.318c59.262,0,82.383-50.962,82.383-88.704c0-15.402,0-159.073,0-211.32
					"/>
			</g>
		</g>
		<g>
			<g>
				
					<path style="fill:none;stroke:#231F20;stroke-width:5;stroke-linecap:round;stroke-linejoin:round;stroke-dasharray:14.8816,22.3224;" d="
					M1273.861,1374.129c15.081-32.153,43.598-53.839,76.284-53.839c82.383,0,82.383,106.304,82.383,106.304l0.01,77.625"/>
				
					<line style="fill:none;stroke:#231F20;stroke-width:5;stroke-linecap:round;stroke-linejoin:round;" x1="1432.539" y1="1519.195" x2="1432.54" y2="1532.891"/>
			</g>
		</g>
		<g>
			<g>
				<g>
					
						<path style="fill:none;stroke:#231F20;stroke-width:5;stroke-linecap:round;stroke-linejoin:round;stroke-dasharray:15,22.5;" d="
						M412.079,1532.897c0,0,0-5.238,0-10.077"/>
					
						<path style="fill:none;stroke:#231F20;stroke-width:5;stroke-linecap:round;stroke-linejoin:round;stroke-dasharray:15,22.5;" d="
						M412.079,1498.492c0-70.161,0-238.092,0-284.499c0-58.704,29.836-106.296,66.645-106.296c34.335,0,49.837,21.45,56.835,40.819"
						/>
					
						<path style="fill:none;stroke:#231F20;stroke-width:5;stroke-linecap:round;stroke-linejoin:round;stroke-dasharray:15,22.5;" d="
						M540.811,1171.515c0.508,4.599,0.508,7.477,0.508,7.477"/>
				</g>
			</g>
		</g>
		<g>
			<g>
				
					<line style="fill:none;stroke:#231F20;stroke-width:5;stroke-linecap:round;stroke-linejoin:round;" x1="1262.454" y1="1107.697" x2="1262.454" y2="1115.197"/>
				
					<line style="fill:none;stroke:#231F20;stroke-width:5;stroke-linecap:round;stroke-linejoin:round;stroke-dasharray:15.479,23.2185;" x1="1262.454" y1="1138.416" x2="1262.454" y2="1513.781"/>
				
					<line style="fill:none;stroke:#231F20;stroke-width:5;stroke-linecap:round;stroke-linejoin:round;" x1="1262.454" y1="1525.391" x2="1262.454" y2="1532.891"/>
			</g>
		</g>
		<g>
			<g>
				
					<line style="fill:none;stroke:#231F20;stroke-width:5;stroke-linecap:round;stroke-linejoin:round;stroke-dasharray:15,22.5;" x1="372.294" y1="1320.29" x2="542.374" y2="1320.29"/>
			</g>
		</g>
		<g>
			<g>
				
					<line style="fill:none;stroke:#231F20;stroke-width:5;stroke-linecap:round;stroke-linejoin:round;" x1="1707.54" y1="1532.891" x2="1707.54" y2="1525.391"/>
				
					<line style="fill:none;stroke:#231F20;stroke-width:5;stroke-linecap:round;stroke-linejoin:round;stroke-dasharray:14.1143,21.1715;" x1="1707.54" y1="1504.219" x2="1707.54" y2="1338.376"/>
				
					<line style="fill:none;stroke:#231F20;stroke-width:5;stroke-linecap:round;stroke-linejoin:round;" x1="1707.54" y1="1327.79" x2="1707.54" y2="1320.29"/>
			</g>
		</g>
		<g>
			<g>
				
					<line style="fill:none;stroke:#231F20;stroke-width:5;stroke-linecap:round;stroke-linejoin:round;" x1="2427.62" y1="1107.697" x2="2427.62" y2="1115.197"/>
				
					<line style="fill:none;stroke:#231F20;stroke-width:5;stroke-linecap:round;stroke-linejoin:round;stroke-dasharray:15.479,23.2185;" x1="2427.62" y1="1138.416" x2="2427.62" y2="1513.781"/>
				
					<line style="fill:none;stroke:#231F20;stroke-width:5;stroke-linecap:round;stroke-linejoin:round;" x1="2427.62" y1="1525.391" x2="2427.62" y2="1532.891"/>
			</g>
		</g>
		<g>
			<g>
				
					<line style="fill:none;stroke:#231F20;stroke-width:5;stroke-linecap:round;stroke-linejoin:round;" x1="2597.706" y1="1320.29" x2="2591.742" y2="1324.838"/>
				
					<line style="fill:none;stroke:#231F20;stroke-width:5;stroke-linecap:round;stroke-linejoin:round;stroke-dasharray:14.1998,21.2998;" x1="2574.805" y1="1337.753" x2="2442.129" y2="1438.923"/>
			</g>
		</g>
		<g>
			<g>
				
					<line style="fill:none;stroke:#231F20;stroke-width:5;stroke-linecap:round;stroke-linejoin:round;" x1="2597.706" y1="1532.891" x2="2592.402" y2="1527.587"/>
				
					<line style="fill:none;stroke:#231F20;stroke-width:5;stroke-linecap:round;stroke-linejoin:round;stroke-dasharray:13.5343,20.3014;" x1="2578.047" y1="1513.233" x2="2489.52" y2="1424.712"/>
			</g>
		</g>
		<g>
			
				<line style="fill:none;stroke:#231F20;stroke-width:5;stroke-miterlimit:10;" x1="1707.563" y1="1213.994" x2="1707.563" y2="1213.994"/>
		</g>
		<g>
			
				<line style="fill:none;stroke:#231F20;stroke-width:5;stroke-miterlimit:10;" x1="2152.638" y1="1107.697" x2="2152.638" y2="1107.697"/>
		</g>
		<path style="fill:#231F20;stroke:#231F20;stroke-width:5;stroke-miterlimit:10;" d="M1707.562,1111.447
			c0.987,0,1.954-0.401,2.652-1.098c0.697-0.698,1.098-1.665,1.098-2.652c0-0.987-0.4-1.954-1.098-2.652
			c-0.698-0.697-1.665-1.098-2.652-1.098s-1.953,0.4-2.652,1.098c-0.697,0.698-1.098,1.665-1.098,2.652
			c0,0.987,0.4,1.954,1.098,2.652C1705.608,1111.046,1706.574,1111.447,1707.562,1111.447z"/>
		<path style="fill:#231F20;stroke:#231F20;stroke-width:5;stroke-miterlimit:10;" d="M2152.62,1111.447
			c0.987,0,1.954-0.401,2.652-1.098c0.697-0.698,1.098-1.665,1.098-2.652c0-0.987-0.4-1.954-1.098-2.652
			c-0.698-0.697-1.665-1.098-2.652-1.098s-1.953,0.4-2.652,1.098c-0.697,0.698-1.098,1.665-1.098,2.652
			c0,0.987,0.4,1.954,1.098,2.652C2150.667,1111.046,2151.633,1111.447,2152.62,1111.447z"/>
		<path style="fill:none;stroke:#231F20;stroke-width:5;stroke-linecap:round;stroke-linejoin:round;stroke-miterlimit:10;" d="
			M1983.565,1644.741c23.601,20.605,54.381,31.953,86.671,31.953c38.219,0,71.365-16.015,93.334-45.094
			c16.872-22.334,26.549-51.897,26.549-81.109v-230.2c0-20.71-16.789-37.5-37.5-37.5s-37.5,16.79-37.5,37.5v230.2
			c0,12.843-4.365,26.6-11.393,35.901c-7.887,10.44-18.528,15.303-33.49,15.303c-28.73,0-49.075-18.135-50.197-37.983
			s-16.789-37.5-37.5-37.5s-37.5,16.79-37.5,37.5C1945.039,1593.829,1959.082,1623.363,1983.565,1644.741z"/>
		<path style="fill:none;stroke:#231F20;stroke-width:5;stroke-linecap:round;stroke-linejoin:round;stroke-miterlimit:10;" d="
			M1006.299,1325.375c-4.113-4.113-8.237-8.553-13.592-12.919c-16.593-13.534-45.268-29.666-87.643-29.666
			c-17.845,0-35.085,4.201-51.242,12.484c-15.014,7.698-28.368,18.562-39.69,32.288c-22.092,26.78-34.258,61.95-34.258,99.032
			c0,37.079,12.166,72.247,34.259,99.026c11.322,13.726,24.676,24.588,39.69,32.286c16.156,8.284,33.396,12.484,51.241,12.484
			c15.73,0,30.809-2.381,44.889-7.009v24.608c0,12.844-4.364,26.601-11.391,35.901c-7.886,10.44-18.528,15.302-33.492,15.302
			c-28.727,0-46.813-14.093-50.191-37.983c-3.378-23.89-16.789-37.5-37.499-37.5c-20.711,0-37.5,16.79-37.5,37.5
			c0,30.118,14.042,59.652,38.525,81.03c23.599,20.605,54.378,31.954,86.665,31.954c38.222,0,71.369-16.015,93.337-45.095
			c16.87-22.333,26.546-51.896,26.546-81.108v-227.045C1024.952,1344.445,1010.412,1329.488,1006.299,1325.375z M905.063,1495.391
			c-27.206,0-50.191-31.505-50.191-68.797c0-37.295,22.985-68.804,50.191-68.804c24.716,0,38.444,10.156,44.889,16.99v102.54
			C943.261,1484.578,929.241,1495.391,905.063,1495.391z"/>
		<path style="fill:none;stroke:#231F20;stroke-width:5;stroke-linecap:round;stroke-linejoin:round;stroke-miterlimit:10;" d="
			M1262.453,1570.391c20.711,0,37.5-16.79,37.5-37.5v-106.297c0-37.295,22.984-68.804,50.191-68.804
			c12.484,0,26.593,3.307,36.574,27.832c7.839,19.26,8.291,40.031,8.309,41.106l0.012,106.166
			c0.002,20.711,16.794,37.498,37.504,37.496c20.711-0.002,37.498-16.794,37.496-37.504l-0.012-106.292
			c0-3.438-0.36-34.516-12.831-66.701c-8.23-21.24-19.995-38.541-34.969-51.421c-19.53-16.801-44.456-25.682-72.083-25.682
			c-17.46,0-34.338,4.032-50.191,11.966v-187.059c0-20.71-16.789-37.5-37.5-37.5s-37.501,16.79-37.501,37.5v425.193
			C1224.952,1553.601,1241.742,1570.391,1262.453,1570.391z"/>
		<path style="fill:none;stroke:#231F20;stroke-width:5;stroke-linecap:round;stroke-linejoin:round;stroke-miterlimit:10;" d="
			M1707.539,1570.391c20.711,0,37.5-16.79,37.5-37.5V1320.29c0-20.71-16.789-37.5-37.5-37.5s-37.5,16.79-37.5,37.5v212.601
			C1670.039,1553.601,1686.828,1570.391,1707.539,1570.391z"/>
		<path style="fill:none;stroke:#231F20;stroke-width:5;stroke-linecap:round;stroke-linejoin:round;stroke-miterlimit:10;" d="
			M2427.619,1570.391c20.711,0,37.5-16.79,37.5-37.5v-64.34l8.627-6.579l97.443,97.436c7.322,7.322,16.919,10.983,26.516,10.983
			s19.195-3.662,26.518-10.985c14.644-14.645,14.643-38.389-0.002-53.033l-90.296-90.29l86.519-65.974
			c16.469-12.558,19.64-36.089,7.081-52.558c-12.557-16.469-36.088-19.64-52.559-7.081l-109.847,83.762v-266.536
			c0-20.71-16.789-37.5-37.5-37.5s-37.5,16.79-37.5,37.5v425.193C2390.119,1553.601,2406.908,1570.391,2427.619,1570.391z"/>
		<path style="fill:none;stroke:#231F20;stroke-width:5;stroke-linecap:round;stroke-linejoin:round;stroke-miterlimit:10;" d="
			M1707.561,1145.197c9.87,0,19.538-4.005,26.521-10.98c6.975-6.982,10.979-16.65,10.979-26.52c0-9.87-4.005-19.537-10.979-26.52
			c-6.982-6.975-16.65-10.98-26.521-10.98s-19.537,4.005-26.52,10.98c-6.976,6.983-10.98,16.65-10.98,26.52
			c0,9.87,4.005,19.538,10.98,26.52C1688.023,1141.192,1697.69,1145.197,1707.561,1145.197z"/>
		<path style="fill:none;stroke:#231F20;stroke-width:5;stroke-linecap:round;stroke-linejoin:round;stroke-miterlimit:10;" d="
			M2152.639,1145.197c9.87,0,19.53-4.005,26.513-10.987c6.982-6.975,10.987-16.643,10.987-26.513c0-9.87-4.005-19.537-10.987-26.52
			c-6.982-6.975-16.643-10.98-26.513-10.98c-9.877,0-19.538,4.005-26.521,10.98c-6.981,6.983-10.979,16.65-10.979,26.52
			c0,9.87,3.998,19.538,10.979,26.513C2133.101,1141.192,2142.762,1145.197,2152.639,1145.197z"/>
		<path style="fill:none;stroke:#231F20;stroke-width:5;stroke-linecap:round;stroke-linejoin:round;stroke-miterlimit:10;" d="
			M542.373,1282.79h-92.795v-68.796c0-44.688,20.686-68.796,29.145-68.796c10.426,0,15.627,3.142,19.877,12.006
			c4.088,8.528,5.219,21.788,5.219,21.788c0,20.711,16.789,37.5,37.5,37.5c20.71,0,37.5-16.789,37.5-37.5
			c0-4.29-0.53-26.899-10.987-50.721c-7.139-16.26-17.314-29.481-30.243-39.3c-16.406-12.457-36.211-18.773-58.865-18.773
			c-30.732,0-59.488,17.756-78.897,48.715c-16.281,25.969-25.247,59.736-25.247,95.082v68.796h-2.285
			c-20.711,0-37.5,16.79-37.5,37.5c0,20.711,16.789,37.5,37.5,37.5h2.285v175.107c0,20.711,16.789,37.5,37.5,37.5
			c20.711,0,37.5-16.789,37.5-37.5V1357.79h92.795c20.711,0,37.5-16.789,37.5-37.5C579.873,1299.58,563.084,1282.79,542.373,1282.79
			z"/>
	</g>
	<g id="a-e">
		<g>
			<g>
				
					<path style="fill:none;stroke:#231F20;stroke-width:5;stroke-linecap:round;stroke-linejoin:round;stroke-dasharray:15.3911,23.0867;" d="
					M659.666,859.06c-13.226,10.523-33.457,20.732-62.176,20.732c-48.422,0-87.691-47.593-87.691-106.297
					c0-58.711,39.27-106.304,87.691-106.304c36.319,0,58.677,15.214,70.774,27.426"/>
			</g>
		</g>
		<g>
			<g>
				
					<path style="fill:none;stroke:#231F20;stroke-width:5;stroke-linecap:round;stroke-linejoin:round;stroke-dasharray:15.3913,23.0869;" d="
					M975.086,859.06c13.225,10.523,33.455,20.732,62.17,20.732c48.434,0,87.697-47.593,87.697-106.297
					c0-58.711-39.264-106.304-87.697-106.304c-36.314,0-58.672,15.214-70.769,27.426"/>
			</g>
		</g>
		<g>
			<g>
				<path style="fill:none;stroke:#231F20;stroke-width:5;stroke-linecap:round;stroke-linejoin:round;" d="M1570.021,836.322
					c0,0-1.318,2.478-4.131,6.251"/>
				
					<path style="fill:none;stroke:#231F20;stroke-width:5;stroke-linecap:round;stroke-linejoin:round;stroke-dasharray:15.391,23.0865;" d="
					M1549.816,859.061c-13.224,10.523-33.453,20.731-62.172,20.731c-48.428,0-87.691-47.593-87.691-106.297
					c0-58.711,39.264-106.304,87.691-106.304c36.318,0,58.675,15.213,70.771,27.425"/>
				<path style="fill:none;stroke:#231F20;stroke-width:5;stroke-linecap:round;stroke-linejoin:round;" d="M1565.941,703.359
					c2.803,3.785,4.08,6.284,4.08,6.284"/>
			</g>
		</g>
		<g>
			<g>
				
					<path style="fill:none;stroke:#231F20;stroke-width:5;stroke-linecap:round;stroke-linejoin:round;stroke-dasharray:15.3913,23.0869;" d="
					M1994.902,859.06c-13.226,10.523-33.457,20.732-62.176,20.732c-48.428,0-87.691-47.593-87.691-106.297
					c0-58.711,39.264-106.304,87.691-106.304c36.318,0,58.678,15.214,70.774,27.426"/>
			</g>
		</g>
		<g>
			<g>
				
					<path style="fill:none;stroke:#231F20;stroke-width:5;stroke-linecap:round;stroke-linejoin:round;stroke-dasharray:15.391,23.0865;" d="
					M2460.201,858.822c0,0-1.993,1.726-6.21,4.188"/>
				
					<path style="fill:none;stroke:#231F20;stroke-width:5;stroke-linecap:round;stroke-linejoin:round;stroke-dasharray:15.391,23.0865;" d="
					M2432.672,872.184c-13.086,4.126-31.15,7.608-54.854,7.608c-48.428,0-87.697-47.593-87.697-106.297
					c0-58.711,39.27-106.304,87.697-106.304c60.146,0,76.381,56.663,80.763,87.251"/>
				
					<path style="fill:none;stroke:#231F20;stroke-width:5;stroke-linecap:round;stroke-linejoin:round;stroke-dasharray:15.391,23.0865;" d="
					M2459.85,766.007c0.352,4.69,0.352,7.488,0.352,7.488h-7.5"/>
				
					<line style="fill:none;stroke:#231F20;stroke-width:5;stroke-linecap:round;stroke-linejoin:round;stroke-dasharray:15.391,23.0865;" x1="2428.029" y1="773.495" x2="2301.833" y2="773.495"/>
			</g>
		</g>
		<g>
			<g>
				
					<line style="fill:none;stroke:#231F20;stroke-width:5;stroke-linecap:round;stroke-linejoin:round;" x1="679.872" y1="667.191" x2="679.872" y2="674.691"/>
				
					<line style="fill:none;stroke:#231F20;stroke-width:5;stroke-linecap:round;stroke-linejoin:round;stroke-dasharray:14.1143,21.1715;" x1="679.872" y1="695.863" x2="679.872" y2="861.706"/>
				
					<line style="fill:none;stroke:#231F20;stroke-width:5;stroke-linecap:round;stroke-linejoin:round;" x1="679.872" y1="872.292" x2="679.872" y2="879.792"/>
			</g>
		</g>
		<g>
			<g>
				
					<line style="fill:none;stroke:#231F20;stroke-width:5;stroke-linecap:round;stroke-linejoin:round;" x1="954.873" y1="454.599" x2="954.873" y2="462.099"/>
				
					<line style="fill:none;stroke:#231F20;stroke-width:5;stroke-linecap:round;stroke-linejoin:round;stroke-dasharray:15.479,23.2185;" x1="954.873" y1="485.317" x2="954.873" y2="860.683"/>
				
					<line style="fill:none;stroke:#231F20;stroke-width:5;stroke-linecap:round;stroke-linejoin:round;" x1="954.873" y1="872.292" x2="954.873" y2="879.792"/>
			</g>
		</g>
		<g>
			<g>
				
					<line style="fill:none;stroke:#231F20;stroke-width:5;stroke-linecap:round;stroke-linejoin:round;" x1="2015.121" y1="454.599" x2="2015.121" y2="462.099"/>
				
					<line style="fill:none;stroke:#231F20;stroke-width:5;stroke-linecap:round;stroke-linejoin:round;stroke-dasharray:15.479,23.2185;" x1="2015.121" y1="485.317" x2="2015.121" y2="860.683"/>
				
					<line style="fill:none;stroke:#231F20;stroke-width:5;stroke-linecap:round;stroke-linejoin:round;" x1="2015.121" y1="872.292" x2="2015.121" y2="879.792"/>
			</g>
		</g>
		<path style="fill:none;stroke:#231F20;stroke-width:5;stroke-linecap:round;stroke-linejoin:round;stroke-miterlimit:10;" d="
			M546.25,904.808c16.157,8.284,33.396,12.484,51.24,12.484c19.853,0,38.669-3.789,55.747-11.108
			c6.796,6.858,16.218,11.108,26.635,11.108c20.711,0,37.5-16.79,37.5-37.5v-43.376c0.001-0.191,0.003-0.383,0-0.573V667.191
			c0-20.71-16.789-37.5-37.5-37.5c-10.26,0-19.554,4.125-26.325,10.801c-15-6.271-33.604-10.801-56.057-10.801
			c-17.844,0-35.084,4.201-51.24,12.485c-15.014,7.698-28.367,18.561-39.691,32.287c-22.093,26.78-34.26,61.951-34.26,99.032
			c0,37.079,12.167,72.247,34.261,99.027C517.883,886.247,531.237,897.109,546.25,904.808z M597.49,704.691
			c21.239,0,34.365,7.5,41.727,13.947c1.202,1.053,3.155,2.807,3.155,5.275c0,1.844,0,94.615,0,97.615s-3.225,5.865-5.315,7.588
			c-10.609,8.742-23.921,13.175-39.566,13.175c-27.207,0-50.191-31.505-50.191-68.797C547.299,736.2,570.283,704.691,597.49,704.691
			z"/>
		<path style="fill:none;stroke:#231F20;stroke-width:5;stroke-linecap:round;stroke-linejoin:round;stroke-miterlimit:10;" d="
			M1088.5,642.175c-16.156-8.284-33.398-12.484-51.244-12.484c-17.176,0-32.1,2.652-44.882,6.706V454.599
			c0-20.71-16.789-37.5-37.5-37.5c-20.711,0-37.5,16.79-37.5,37.5v425.193c0,20.71,16.789,37.5,37.5,37.5
			c10.418,0,19.841-4.251,26.636-11.11c17.078,7.321,35.895,11.11,55.747,11.11c17.846,0,35.088-4.2,51.244-12.484
			c15.016-7.697,28.369-18.56,39.693-32.286c22.094-26.778,34.26-61.947,34.26-99.027c0-37.083-12.166-72.253-34.26-99.032
			C1116.871,660.737,1103.516,649.874,1088.5,642.175z M1037.256,842.292c-20.628,0-33.86-7.872-41.455-14.69
			c-1.306-1.173-3.427-4.199-3.427-6.116s0-92.375,0-96.208s1.725-5.359,2.765-6.291c7.283-6.521,20.494-14.297,42.117-14.297
			c27.211,0,50.197,31.509,50.197,68.804C1087.453,810.787,1064.467,842.292,1037.256,842.292z"/>
		<path style="fill:none;stroke:#231F20;stroke-width:5;stroke-linecap:round;stroke-linejoin:round;stroke-miterlimit:10;" d="
			M1483.85,704.896c1.254-0.136,2.52-0.205,3.795-0.205c0.998,0,1.975,0.021,2.938,0.054c14.379,0.524,26.691,4.931,36.629,13.121
			c6.174,5.088,9.686,10.362,9.709,10.405c9.725,18.286,32.432,25.223,50.717,15.498c18.285-9.726,25.225-32.433,15.498-50.718
			c-0.041-0.079-0.09-0.171-0.143-0.269l0.418-0.213l-0.002-0.001l0.006-0.002c-1.506-2.942-9.936-18.372-28.125-33.208
			c-14.896-12.148-39.533-26.384-75.072-29.171c-2.012-0.158-4.061-0.277-6.143-0.359c-0.309-0.013-0.618-0.021-0.927-0.033
			c-0.691-0.023-1.382-0.048-2.081-0.062c-1.137-0.025-2.277-0.041-3.422-0.041c-5.576,0-11.094,0.41-16.537,1.227
			c-11.977,1.797-23.598,5.562-34.705,11.257c-15.014,7.698-28.367,18.561-39.689,32.286c-22.094,26.779-34.26,61.947-34.26,99.026
			c0,0.002,0,0.002,0,0.004c0,0.001,0,0.002,0,0.003c0,8.111,0.582,16.131,1.723,23.991c4.076,28.073,15.277,54.114,32.535,75.035
			c10.617,12.867,23.018,23.219,36.896,30.806c0.926,0.506,1.857,0.999,2.795,1.481c11.107,5.695,22.729,9.46,34.705,11.257
			c5.443,0.817,10.961,1.227,16.537,1.227c1.145,0,2.285-0.016,3.422-0.041c0.699-0.014,1.389-0.039,2.081-0.062
			c0.309-0.011,0.618-0.021,0.927-0.033c38.859-1.529,65.477-16.694,81.215-29.53c18.189-14.836,26.619-30.266,28.125-33.208
			l-0.424-0.216c0.053-0.098,0.104-0.19,0.145-0.269c9.727-18.285,2.787-40.992-15.498-50.718
			c-18.285-9.726-40.992-2.788-50.717,15.498l-0.004,0.005l-0.004-0.002c0,0,0.117-0.244,0.377-0.684
			c-0.207,0.35-0.67,1.093-1.393,2.095c-1.461,1.915-4.445,5.496-8.686,8.99c-3.898,3.213-8.168,5.839-12.779,7.882
			c-0.117,0.051-0.227,0.105-0.344,0.156c-0.123,0.054-0.25,0.101-0.375,0.154c-4.781,2.02-10.367,3.628-16.846,4.428
			c-0.048,0.006-0.094,0.013-0.141,0.019c-0.826,0.1-1.672,0.182-2.527,0.255c-0.151,0.014-0.299,0.03-0.451,0.042
			c-0.783,0.062-1.584,0.106-2.392,0.144c-0.216,0.01-0.427,0.027-0.644,0.036c-1.004,0.039-2.025,0.061-3.068,0.061
			c-1.275,0-2.541-0.069-3.795-0.206c-25.516-2.761-46.395-33.049-46.396-68.595C1437.455,737.946,1458.334,707.658,1483.85,704.896
			z"/>
		<path style="fill:none;stroke:#231F20;stroke-width:5;stroke-linecap:round;stroke-linejoin:round;stroke-miterlimit:10;" d="
			M2326.576,904.808c16.156,8.284,33.396,12.484,51.242,12.484c68.666,0,101.121-25.091,106.93-30.121
			c15.656-13.557,17.359-37.24,3.801-52.896c-13.275-15.333-35.284-15.666-51.916-4.623c-16.632,11.043-38.383,16.293-58.814,12.64
			c-14.813-2.648-29.237-9.991-38.083-24.678c-2.36-3.919-0.36-6.619,4.39-6.619s116.076,0,116.076,0
			c20.711,0,37.5-16.789,37.5-37.5c0-3.439-0.361-34.516-12.832-66.701c-8.23-21.24-19.994-38.541-34.969-51.421
			c-19.531-16.801-44.457-25.682-72.082-25.682c-17.846,0-35.086,4.201-51.242,12.484c-15.016,7.698-28.369,18.561-39.693,32.287
			c-22.094,26.78-34.262,61.951-34.262,99.033c0,37.079,12.168,72.248,34.262,99.028
			C2298.207,886.248,2311.561,897.11,2326.576,904.808z M2377.818,704.691c12.484,0,26.592,3.307,36.574,27.832
			c0.469,1.153,0.912,2.313,1.33,3.472h-79.719C2345.088,717.296,2360.609,704.691,2377.818,704.691z"/>
		<path style="fill:none;stroke:#231F20;stroke-width:5;stroke-linecap:round;stroke-linejoin:round;stroke-miterlimit:10;" d="
			M2015.121,417.099c-20.711,0-37.5,16.79-37.5,37.5V636.4c-12.785-4.056-27.713-6.709-44.895-6.709
			c-17.846,0-35.086,4.201-51.242,12.484c-15.016,7.698-28.369,18.562-39.691,32.288c-22.092,26.78-34.258,61.95-34.258,99.032
			c0,37.079,12.166,72.247,34.258,99.026c11.324,13.726,24.678,24.588,39.691,32.286c16.156,8.284,33.396,12.484,51.242,12.484
			c19.855,0,38.676-3.79,55.756-11.112c6.795,6.86,16.219,11.112,26.639,11.112c20.711,0,37.5-16.79,37.5-37.5V454.599
			C2052.621,433.888,2035.832,417.099,2015.121,417.099z M1972.293,829.117c-10.609,8.742-23.922,13.175-39.566,13.175
			c-27.207,0-50.191-31.505-50.191-68.797c0-37.295,22.984-68.804,50.191-68.804c21.762,0,35.006,7.875,42.26,14.42
			c0.32,0.29,2.635,2.209,2.635,5.25c0,1.5,0,91.099,0,95.583C1977.621,824.43,1974.389,827.39,1972.293,829.117z"/>
	</g>
</g>
</svg>
