<?xml version="1.0" encoding="utf-8"?>
<!-- Generator: Adobe Illustrator 27.5.0, SVG Export Plug-In . SVG Version: 6.00 Build 0)  -->
<svg version="1.1" xmlns="http://www.w3.org/2000/svg" xmlns:xlink="http://www.w3.org/1999/xlink" x="0px" y="0px"
	 viewBox="0 0 500 500" style="enable-background:new 0 0 500 500;" xml:space="preserve">
<g id="BACKGROUND">
	<rect style="fill:#FFFFFF;" width="500" height="500"/>
</g>
<g id="OBJECTS">
	<g>
		
			<rect x="90.552" y="197.164" transform="matrix(-0.9662 -0.258 0.258 -0.9662 125.6486 472.5163)" style="fill:#F8DBA1;" width="6.54" height="61.703"/>
		<path style="fill:#EC1C24;" d="M87.256,188.416c-0.078,0.395-1.713,9.738,13.608,13.828c14.758,3.94,18.22-4.854,18.36-5.231
			l-0.01-0.004l4.923-18.439l-4.129-1.102l-0.17-0.045l-23.405-6.249l-0.046-0.012l-4.199-1.121l-4.908,18.381L87.256,188.416z
			 M91.619,189.219l-0.004-0.001l3.131-11.726l23.406,6.249l-3.176,11.895c-0.536,0.971-3.355,4.889-12.967,2.323
			C90.895,194.992,91.584,189.453,91.619,189.219z"/>
		
			<rect x="91.857" y="205.405" transform="matrix(-0.9662 -0.258 0.258 -0.9662 123.7539 473.6125)" style="fill:#DDBC83;" width="2.176" height="46.567"/>
		<path style="fill:#EC1C24;" d="M64.427,274.172c0,0-9.364,29.285,8.149,33.961c14.836,3.961,23.788-25.434,23.788-25.434
			l4.566-17.101l-31.937-8.527L64.427,274.172z"/>
		<path style="fill:#C61724;" d="M70.3,260.142l27.76,7.412c0,0-4.789,5.603-13.492,4.449l-7.053,17.332l2.517-18.482
			C71.577,267.596,70.3,260.142,70.3,260.142z"/>
		
			<rect x="96.792" y="197.748" transform="matrix(-0.9662 -0.2579 0.2579 -0.9662 145.8632 423.5367)" style="fill:#EC1C24;" width="7.844" height="8.904"/>
		
			<rect x="82.107" y="251.056" transform="matrix(-0.9662 -0.258 0.258 -0.9662 102.7962 527.8947)" style="fill:#EC1C24;" width="7.844" height="12.296"/>
		
			<rect x="94.854" y="177.455" transform="matrix(-0.9662 -0.258 0.258 -0.9662 164.3352 378.6504)" style="fill:#C61724;" width="24.306" height="2.179"/>
	</g>
	<g>
		<g>
			<path style="fill:#F8DBA1;" d="M246.899,398.538c-0.414,8.133-0.441,17.125-0.441,25.153c0,1.451,0.079,2.975,0.333,4.337
				c0.318,1.705,0.863,3.308,3.111,3.661c3.791,0.595,4.637-2.529,4.88-3.704c0.408-1.969,0.426-4.074,0.44-6.147
				c0.056-8.033,0.112-16.066,0.168-24.1L246.899,398.538z"/>
		</g>
		<path style="fill:#DDBC83;" d="M246.694,405.227l8.764-0.109c0,0-0.381,2.52-4.205,2.546
			C247.428,407.69,246.702,406.292,246.694,405.227z"/>
		<g>
			<path style="fill:#EC1C24;" d="M250.488,332.495c-11.189,15.397-20.084,33.335-30.126,50.003
				c-1.041,1.729,15.419,12.875,26.239,13.124c27.146,0.625,34.532-9.333,33.364-11.349c-0.389-0.672-0.701-1.159-0.826-1.335
				c-5.444-7.685-6.508-10.845-11.613-18.592c-1.302,1.434-3.487,1.989-5.316,1.351c-1.829-0.638-3.194-2.432-3.322-4.365
				c-0.049-0.742,0.067-1.5-0.109-2.222c-0.819-3.361-6.522-2.895-7.999-6.024c-1.672-3.543,4.442-7.509,4.124-11.414
				C254.379,335.199,251.444,331.18,250.488,332.495z"/>
		</g>
		<g>
			<path style="fill:#DEE78C;" d="M272.141,387.589c-7.299,3.472-12.766,4.209-22.98,3.933c-17.136-0.463-28.745-9.113-28.798-9.024
				c-0.932,1.561-2.142,3.457-2.374,5.52c-0.395,3.509,1.619,6.888,4.247,9.247c5.61,5.036,13.349,7.232,20.856,7.922
				c27.039,2.484,38.641-8.734,39.522-13.24c0.462-2.363-2.295-7.163-3.227-8.633C277.078,384.935,274.665,386.389,272.141,387.589z
				"/>
		</g>
		<path d="M249.186,343.088c-0.114,0.452-0.3,0.974-0.623,1.32c-0.389,0.418-0.337,1.099,0.169,1.401
			c0.481,0.286,1.173,0.039,1.313-0.522c0.082-0.328,0.156-0.649,0.207-0.983c0.058-0.375,0.053-0.686,0.015-1.061
			C250.208,342.668,249.35,342.438,249.186,343.088L249.186,343.088z"/>
		<path d="M240.102,363.916c-0.062,0.589,0.053,1.205,0.249,1.761c0.237,0.67,0.452,1.409,1.108,1.776
			c0.775,0.433,1.763-0.093,1.775-1c0.009-0.691-0.419-1.194-0.787-1.739c-0.315-0.466-0.654-0.941-1.083-1.308
			C240.856,362.971,240.17,363.266,240.102,363.916L240.102,363.916z"/>
		<path d="M250.277,375.499c-0.359,0.937-0.469,1.973-0.745,2.938c-0.119,0.415,0,0.872,0.302,1.179
			c0.036,0.036,0.071,0.073,0.107,0.109c0.32,0.326,0.821,0.376,1.216,0.167c0.047-0.025,0.094-0.05,0.141-0.075
			c0.374-0.199,0.601-0.624,0.607-1.04c0.015-1.076,0.118-2.21-0.128-3.267C251.589,374.706,250.534,374.829,250.277,375.499
			L250.277,375.499z"/>
		<path d="M264.67,378.289c-0.046,0.577,0.094,1.201,0.213,1.765c0.129,0.608,0.23,1.242,0.528,1.793
			c0.283,0.523,0.967,0.734,1.501,0.505c0.58-0.249,0.817-0.808,0.709-1.416c-0.105-0.59-0.462-1.176-0.729-1.71
			c-0.255-0.512-0.533-1.041-0.926-1.461C265.49,377.254,264.719,377.667,264.67,378.289L264.67,378.289z"/>
		<path d="M236.881,376.487c-1.333,0.513-2.177,2.176-2.855,3.35c-0.249,0.431-0.23,1.124,0.178,1.47
			c0.276,0.234,0.497,0.333,0.854,0.361c0.53,0.043,1.031-0.396,1.175-0.88c0.195-0.656,0.458-1.261,0.754-1.877
			c0.281-0.584,0.625-1.148,0.704-1.797C237.739,376.723,237.246,376.346,236.881,376.487L236.881,376.487z"/>
		<g>
			<path style="fill:#7FAF2C;" d="M273.741,395.416c-7.726,3.633-15.79,5.345-24.359,4.881c-8.636-0.469-16.938-2.837-24.377-7.265
				c-1.571-0.934-4.483-2.408-6.952-4.25c-1.176,3.858,3.63,8.256,3.63,8.256c8.289,7.399,23.677,8.439,26.906,8.427
				c6.456-0.024,13.059,0.087,19.209-1.881c11.165-3.572,15.212-9.682,14.832-12.718
				C279.738,392.561,276.696,394.026,273.741,395.416z"/>
		</g>
	</g>
	<g>
		<g>
			<path style="fill:#FF6E79;" d="M138.402,96.2c-0.808-0.605-1.931-0.443-2.927-0.278c-4.598,0.761-9.286,0.973-13.934,0.63
				c-1.945-0.144-3.926-0.396-5.679-1.25c-3.914-1.906-5.869-6.346-6.939-10.566c-1.171-4.618-1.733-9.564-4.77-13.346
				c-0.625-0.778-1.472-1.395-2.453-1.576c-2.356-0.435-3.569,1.539-4.43,3.313c-1.941,3.997-3.549,8.157-4.799,12.421
				c-0.756,2.577-1.44,5.299-2.87,7.523c-0.659,1.024-1.846,1.574-3.054,1.425c-5.33-0.657-21.301-2.061-24.46,4.218
				c-0.325,0.645-0.144,1.436,0.441,1.86c6.752,4.893,11.99,8.645,18.743,13.539c2.783,1.652-0.62,13.911-3,19.913
				c-1.015,2.56-2.21,5.238-1.775,7.958c0.067,0.418,0.192,0.862,0.526,1.122c0.4,0.311,0.964,0.262,1.465,0.184
				c8.068-1.262,17.469-5.318,21.521-12.408c2.037-2.58,9.142,2.607,13.51,6.925c2.655,2.624,6.035,5.73,9.756,6.027
				c0.548,0.044,1.175-0.022,1.514-0.455c0.294-0.376,1.289-6.862-0.815-15.62c-1.859-7.736-5.884-10.726-4.594-12.288
				c0.704-0.852,8.582-4.145,13.532-7.718c2.762-1.993,5.381-5.068,6.198-8.375C139.383,98.26,139.323,96.89,138.402,96.2z"/>
		</g>
		<g>
			<g>
				<path style="fill:#EC1C24;" d="M90.367,98.226c3.447-1.205,3.667-4.597,4.345-7.807c0.726-3.441,1.222-13.646,2.923-17.919
					c-0.112,0.209-0.219,0.419-0.319,0.627c-1.942,3.997-3.549,8.157-4.799,12.421c-0.756,2.578-1.44,5.299-2.87,7.523
					c-0.659,1.024-1.846,1.574-3.054,1.425c-3.528-0.435-11.716-1.195-17.766,0.16C80.591,95.578,87.57,99.204,90.367,98.226z"/>
			</g>
			<g>
				<path style="fill:#EC1C24;" d="M112.77,98.226c6.214,2.962,8.011,1.154,18.605-1.786c-3.253,0.303-6.53,0.352-9.789,0.111
					c-1.945-0.144-3.926-0.396-5.679-1.25c-3.914-1.906-5.869-6.346-6.939-10.566c-0.75-2.957-1.257-6.045-2.317-8.878
					C107.746,86.957,105.874,94.938,112.77,98.226z"/>
			</g>
			<g>
				<path style="fill:#EC1C24;" d="M105.845,127.011c-3.351-1.443-4.789-1.804-7.875,0.407c-1.446,1.036-5.635,8.825-13.872,14.585
					c6.457-1.962,12.813-5.627,15.954-11.123c2.037-2.58,9.142,2.607,13.51,6.925c2.297,2.271,5.138,4.899,8.273,5.759
					C113.109,136.04,110.733,129.115,105.845,127.011z"/>
			</g>
			<g>
				<path style="fill:#EC1C24;" d="M114.403,112.444c-1.052,1.388-0.751,3.395-0.173,4.924c0.848,2.243,5.193,4.076,8.501,11.281
					c0.463,1.009,1.363,1.811,2.016,2.794c-0.187-1.174-0.422-2.401-0.731-3.685c-1.859-7.736-5.884-10.726-4.594-12.288
					c0.704-0.852,8.582-4.145,13.532-7.718c1.212-0.875,2.387-1.967,3.404-3.187C127.027,111.668,116.843,109.224,114.403,112.444z"
					/>
			</g>
			<g>
				<path style="fill:#EC1C24;" d="M78.022,134.758c0.607-0.579,4.631-6.979,6.099-9.58c2.07-3.668,4.51-9.987,0.815-13.51
					c-2.085-1.988-11.473-3.938-16.371-6.763c4.187,3.021,8.115,5.847,12.75,9.207c2.784,1.652-0.62,13.911-3,19.913
					C78.218,134.268,78.12,134.513,78.022,134.758z"/>
			</g>
		</g>
		<circle style="fill:#FFFFFF;" cx="102.179" cy="108.907" r="2.308"/>
		<path style="fill:#FFFFFF;" d="M99.328,115.803c0,0.978-0.793,1.771-1.771,1.771c-0.978,0-1.771-0.793-1.771-1.771
			c0-0.978,0.793-1.771,1.771-1.771C98.535,114.033,99.328,114.826,99.328,115.803z"/>
		<path style="fill:#FFFFFF;" d="M96.04,120.154c0,0.81-0.657,1.467-1.467,1.467c-0.81,0-1.467-0.657-1.467-1.467
			c0-0.81,0.657-1.467,1.467-1.467C95.383,118.687,96.04,119.344,96.04,120.154z"/>
		<path style="fill:#FFFFFF;" d="M93.358,124.1c0,0.81-0.657,1.467-1.467,1.467c-0.81,0-1.467-0.657-1.467-1.467
			c0-0.81,0.657-1.467,1.467-1.467C92.701,122.633,93.358,123.29,93.358,124.1z"/>
		<path style="fill:#FFFFFF;" d="M90.525,128.198c0,0.699-0.566,1.265-1.265,1.265c-0.699,0-1.265-0.566-1.265-1.265
			c0-0.698,0.566-1.265,1.265-1.265C89.959,126.934,90.525,127.5,90.525,128.198z"/>
		<path style="fill:#FFFFFF;" d="M87.844,131.993c0,0.698-0.566,1.265-1.265,1.265c-0.699,0-1.265-0.566-1.265-1.265
			c0-0.699,0.566-1.265,1.265-1.265C87.278,130.728,87.844,131.294,87.844,131.993z"/>
		<circle style="fill:#FFFFFF;" cx="83.594" cy="136.091" r="1.012"/>
		<path style="fill:#FFFFFF;" d="M95.576,107.121c-0.908,0.364-1.938-0.077-2.302-0.984c-0.364-0.908,0.077-1.939,0.984-2.303
			c0.908-0.364,1.939,0.077,2.303,0.985C96.924,105.726,96.483,106.757,95.576,107.121z"/>
		<path style="fill:#FFFFFF;" d="M89.838,105.654c-0.752,0.302-1.606-0.064-1.908-0.816c-0.302-0.752,0.064-1.606,0.816-1.908
			c0.752-0.302,1.606,0.064,1.908,0.816C90.956,104.498,90.59,105.353,89.838,105.654z"/>
		<path style="fill:#FFFFFF;" d="M84.884,104.577c-0.752,0.301-1.606-0.064-1.908-0.816c-0.302-0.752,0.064-1.606,0.816-1.908
			c0.752-0.301,1.606,0.064,1.908,0.816C86.001,103.422,85.636,104.276,84.884,104.577z"/>
		<path style="fill:#FFFFFF;" d="M80.111,103.428c-0.648,0.26-1.385-0.055-1.645-0.703c-0.26-0.648,0.055-1.385,0.703-1.645
			c0.648-0.26,1.385,0.055,1.645,0.703C81.074,102.432,80.76,103.168,80.111,103.428z"/>
		<path style="fill:#FFFFFF;" d="M75.483,102.419c-0.648,0.26-1.385-0.055-1.645-0.703c-0.26-0.648,0.055-1.385,0.703-1.645
			c0.648-0.26,1.385,0.055,1.645,0.703C76.447,101.422,76.132,102.159,75.483,102.419z"/>
		<path style="fill:#FFFFFF;" d="M70.203,100.984c-0.519,0.208-1.108-0.044-1.316-0.563c-0.208-0.519,0.044-1.108,0.563-1.316
			c0.519-0.208,1.108,0.044,1.316,0.563C70.974,100.187,70.722,100.776,70.203,100.984z"/>
		<path style="fill:#FFFFFF;" d="M100.899,100.75c-0.582-0.786-0.417-1.895,0.369-2.477c0.786-0.582,1.895-0.417,2.477,0.369
			c0.582,0.786,0.417,1.895-0.369,2.477C102.59,101.701,101.481,101.536,100.899,100.75z"/>
		<path style="fill:#FFFFFF;" d="M100.865,94.828c-0.482-0.651-0.345-1.57,0.306-2.052c0.651-0.482,1.57-0.345,2.052,0.306
			s0.345,1.57-0.306,2.052C102.266,95.616,101.347,95.479,100.865,94.828z"/>
		<path style="fill:#FFFFFF;" d="M100.651,89.762c-0.482-0.651-0.345-1.57,0.306-2.052c0.651-0.482,1.57-0.345,2.052,0.306
			c0.482,0.651,0.345,1.57-0.306,2.052C102.052,90.55,101.133,90.413,100.651,89.762z"/>
		<path style="fill:#FFFFFF;" d="M100.554,84.854c-0.416-0.562-0.298-1.354,0.264-1.769c0.561-0.416,1.353-0.298,1.769,0.264
			c0.416,0.562,0.298,1.354-0.264,1.769C101.762,85.534,100.97,85.416,100.554,84.854z"/>
		<path style="fill:#FFFFFF;" d="M100.358,80.122c-0.416-0.561-0.298-1.354,0.264-1.769c0.561-0.416,1.354-0.298,1.769,0.264
			c0.416,0.561,0.298,1.353-0.264,1.769C101.566,80.801,100.774,80.683,100.358,80.122z"/>
		<path style="fill:#FFFFFF;" d="M100.409,74.65c-0.333-0.449-0.238-1.083,0.211-1.415c0.449-0.333,1.083-0.238,1.415,0.211
			c0.332,0.449,0.238,1.083-0.211,1.415C101.375,75.194,100.742,75.1,100.409,74.65z"/>
		<path style="fill:#FFFFFF;" d="M108.244,105.132c0.669-0.714,1.789-0.75,2.503-0.082c0.714,0.669,0.75,1.789,0.082,2.503
			c-0.669,0.714-1.789,0.75-2.503,0.082C107.612,106.966,107.575,105.846,108.244,105.132z"/>
		<path style="fill:#FFFFFF;" d="M114.063,104.035c0.554-0.591,1.482-0.622,2.074-0.068c0.591,0.554,0.622,1.482,0.068,2.074
			c-0.554,0.591-1.482,0.622-2.074,0.068C113.539,105.554,113.509,104.626,114.063,104.035z"/>
		<path style="fill:#FFFFFF;" d="M119.008,102.914c0.554-0.591,1.482-0.622,2.074-0.068c0.591,0.554,0.622,1.482,0.068,2.074
			c-0.554,0.591-1.482,0.622-2.074,0.068C118.485,104.434,118.454,103.506,119.008,102.914z"/>
		<path style="fill:#FFFFFF;" d="M123.819,101.937c0.478-0.51,1.278-0.536,1.788-0.058c0.51,0.478,0.536,1.278,0.058,1.788
			c-0.478,0.51-1.278,0.536-1.788,0.058C123.368,103.247,123.341,102.447,123.819,101.937z"/>
		<path style="fill:#FFFFFF;" d="M128.439,100.894c0.478-0.51,1.278-0.536,1.788-0.059s0.536,1.278,0.058,1.788
			c-0.477,0.51-1.278,0.536-1.788,0.059C127.988,102.204,127.962,101.404,128.439,100.894z"/>
		<path style="fill:#FFFFFF;" d="M133.831,99.961c0.382-0.408,1.022-0.429,1.43-0.047c0.408,0.382,0.429,1.022,0.047,1.43
			c-0.382,0.408-1.022,0.429-1.43,0.047C133.47,101.009,133.449,100.369,133.831,99.961z"/>
		<path style="fill:#FFFFFF;" d="M105.053,115.532c0,0.978,0.793,1.771,1.771,1.771c0.978,0,1.771-0.793,1.771-1.771
			c0-0.978-0.793-1.771-1.771-1.771C105.846,113.761,105.053,114.554,105.053,115.532z"/>
		<path style="fill:#FFFFFF;" d="M108.07,120.109c0,0.81,0.657,1.467,1.467,1.467c0.81,0,1.467-0.657,1.467-1.467
			c0-0.81-0.657-1.467-1.467-1.467C108.727,118.642,108.07,119.299,108.07,120.109z"/>
		<path style="fill:#FFFFFF;" d="M110.797,123.965c0,0.81,0.657,1.467,1.467,1.467c0.81,0,1.467-0.657,1.467-1.467
			c0-0.81-0.657-1.467-1.467-1.467C111.454,122.497,110.797,123.154,110.797,123.965z"/>
		<path style="fill:#FFFFFF;" d="M114.128,127.836c0,0.699,0.566,1.265,1.265,1.265c0.699,0,1.265-0.566,1.265-1.265
			c0-0.699-0.566-1.265-1.265-1.265C114.694,126.572,114.128,127.138,114.128,127.836z"/>
		<path style="fill:#FFFFFF;" d="M117.216,132.309c0,0.699,0.566,1.265,1.265,1.265c0.698,0,1.265-0.566,1.265-1.265
			s-0.566-1.265-1.265-1.265C117.783,131.045,117.216,131.611,117.216,132.309z"/>
		<path style="fill:#FFFFFF;" d="M119.64,137.222c0,0.559,0.453,1.012,1.012,1.012s1.012-0.453,1.012-1.012
			c0-0.559-0.453-1.012-1.012-1.012S119.64,136.663,119.64,137.222z"/>
	</g>
	<g>
		<g>
			<path style="fill:#94E6FF;" d="M100.367,349.603l2.844,3.556c0.162-0.054,0.402-0.132,0.698-0.228
				c19.394-6.26,33.87-7.039,42.358-2.373c-8.131-9.142-19.748-15.116-32.75-15.797l0.165,0.148L100.367,349.603z"/>
			<path style="fill:#EC1C24;" d="M104.303,354.148c-0.389,0.125-0.649,0.209-0.832,0.265l-1.828,5.484
				c5.007,1.912,40.102,16.376,48.567,48.207c5.041-7.506,7.988-16.532,7.988-26.234c0-10.399-3.389-20.017-9.111-27.824
				l-0.08,0.081C141.892,347.134,126.015,347.139,104.303,354.148z"/>
			<path style="fill:#94E6FF;" d="M101.067,361.046l-6.65,8.867c-3.107,20.408,2.935,35.438,8.561,44.46
				c5.107,8.188,10.787,13.036,12.575,14.451c13.848-1.326,25.959-8.665,33.702-19.367
				C141.362,377.143,105.368,362.668,101.067,361.046z"/>
			<path style="fill:#EF1C25;" d="M102.255,354.012l-2.884-3.606l-13.52,6.053l-1.145,7.067c1.767,0.884,6.715,3.914,8.938,5.286
				l6.625-8.833L102.255,354.012z"/>
			<path style="fill:#FFB450;" d="M67.864,400.889c7.329,16.565,23.91,28.157,43.158,28.157c0.909,0,1.81-0.032,2.706-0.083
				c-5.959-5.128-25.684-24.953-20.619-58.978c-3.786-2.339-7.922-4.816-9.039-5.356C81.676,366.289,64.262,379.221,67.864,400.889z
				"/>
			<path style="fill:#FF6E79;" d="M83.408,363.531l1.142-7.042c-3.202-0.833-9.099-2.391-11.119-3.083
				c-6.01,7.918-9.586,17.78-9.586,28.464c0,5.04,0.803,9.894,2.273,14.451C65.417,376.65,81.239,365.026,83.408,363.531z"/>
			<path style="fill:#FFB450;" d="M99.176,349.091l12.952-14.369c-0.369-0.009-0.736-0.028-1.107-0.028
				c-14.845,0-28.102,6.898-36.756,17.651c2.05,0.642,7.367,2.065,10.953,2.996L99.176,349.091z"/>
			<path style="fill:#FFFFFF;" d="M111.021,332.775c-27.071,0-49.095,22.024-49.095,49.095c0,6.781,1.373,13.366,4.083,19.571
				c0.17,0.985,0.34,1.825,0.536,2.638l0.15,0.623l0.786-0.191c8.521,16.33,25.157,26.454,43.54,26.454
				c1.236,0,2.529-0.056,3.948-0.171l0.552,0.441l0.371-0.518c24.822-2.461,44.224-23.859,44.224-48.846
				C160.116,354.799,138.093,332.775,111.021,332.775z M115.75,428.162c-1.858-1.497-7.333-6.276-12.23-14.127
				c-5.548-8.899-11.518-23.726-8.494-43.866l6.263-8.351c5.72,2.228,39.539,16.602,47.275,47.504
				C140.744,419.985,128.812,426.837,115.75,428.162z M93.481,367.961c-2.143-1.319-6.15-3.765-8.07-4.789l1.014-6.27l12.755-5.71
				l2.356,2.948l-1.844,5.538L93.481,367.961z M103.712,352.322l-0.28,0.091l-2.226-2.784l12.863-14.195
				c11.186,0.724,21.534,5.38,29.51,13.226C134.705,345.486,121.037,346.729,103.712,352.322z M98.791,348.563l-13.629,6.103
				c-3.362-0.875-7.515-1.99-9.793-2.656c8.828-10.532,21.64-16.586,35.346-16.674L98.791,348.563z M84.124,365.375
				c1.282,0.683,4.525,2.612,8.291,4.934c-4.593,32.029,12.571,51.516,19.709,58.083c-0.366,0.009-0.733,0.015-1.102,0.015
				c-18.369,0-35.057-10.871-42.538-27.702C65.118,380.189,81.072,367.579,84.124,365.375z M103.974,354.924l0.525-0.167
				c21.475-6.93,37.122-6.992,44.06-0.173l0.255,0.175c5.722,7.95,8.744,17.315,8.744,27.112c0,8.785-2.455,17.294-7.113,24.699
				c-8.917-30.285-41.966-44.65-48.003-47.047L103.974,354.924z M64.485,381.871c0-10.068,3.173-19.639,9.182-27.713
				c2.21,0.708,7.033,1.988,10.16,2.803l-1.007,6.201c-2.48,1.762-15.734,11.925-17.226,28.795
				C64.857,388.65,64.485,385.272,64.485,381.871z"/>
			<circle style="fill:#FFFFFF;" cx="94.337" cy="361.934" r="14.073"/>
		</g>
		<path style="fill:#FFFFFF;" d="M81.419,408.989c9.236,12.285,25.491,15.296,39.672,11.663c1.532-0.393,0.881-2.683-0.65-2.358
			c-14.615,3.107-27.065-0.103-38.497-9.711C81.678,408.359,81.174,408.663,81.419,408.989L81.419,408.989z"/>
		<path style="fill:#FFFFFF;" d="M133.458,411.896c-1.427,0.114-2.711,1.194-2.966,2.63c-0.209,1.179,1.068,1.985,2.002,1.165
			c0.114-0.093,0.133-0.112,0.055-0.057c0.055-0.037,0.111-0.073,0.168-0.108c0.184-0.117,0.361-0.232,0.529-0.374
			c0.283-0.239,0.491-0.54,0.61-0.892c0.291-0.862-0.096-1.902-1.025-2.161c-0.887-0.248-1.681,0.41-1.808,1.267
			c-0.148,0.995,0.684,1.749,1.657,1.556c0.405-0.08,0.722-0.455,0.833-0.834c0.004-0.012,0.007-0.024,0.011-0.036
			c0.146-0.493-0.099-1.027-0.525-1.29c-0.106-0.066-0.244-0.12-0.364-0.154c0.177,0.103,0.355,0.207,0.532,0.31
			c-0.01-0.01-0.02-0.019-0.029-0.029c0.104,0.179,0.208,0.357,0.312,0.536c0.012,0.252,0.023,0.309,0.032,0.172
			c-0.001,0.313-0.149,0.568-0.443,0.765c-0.209,0.057-0.417,0.113-0.626,0.169c-0.792-0.281-1.085-0.639-0.879-1.075
			c0.017-0.047,0.042-0.089,0.077-0.125c0.057-0.043,0.051-0.041-0.018,0.006c-0.056,0.037-0.112,0.073-0.169,0.109
			c-0.337,0.227-0.599,0.445-0.81,0.796c0.744,0.202,1.488,0.403,2.232,0.604c-0.051-0.39-0.049-0.565,0.126-0.863
			c0.156-0.264,0.404-0.459,0.695-0.556C134.45,413.162,134.381,411.822,133.458,411.896L133.458,411.896z"/>
	</g>
	<g>
		<g>
			<g>
				<path style="fill:#E0A338;" d="M352.214,400.061c-5.259-1.032-14.472-0.819-17.353-6.092
					c-2.819-5.161,0.925-10.247,0.863-15.572c-0.035-3.031-0.519-5.591,0.89-8.433c1.615-3.257,4.535-4.901,8.016-5.516
					c4.174-0.738,8.228-0.969,11.13-4.393c0.499-0.589-0.401-1.358-0.973-0.9c-5.421,4.345-13.199,0.975-18.433,6.239
					c-5.206,5.236-2.224,11.144-4.025,17.373c-1.459,5.047-2.483,10.06,1.368,14.467c4.077,4.665,12.684,4.481,18.307,5.324
					C353.621,402.799,353.766,400.366,352.214,400.061z"/>
				<path style="fill:#E0A338;" d="M423.388,407.459c1.705-1.828,4.188-2.431,6.173-3.903c1.64-1.216,3.02-2.743,4.381-4.254
					c2.678-2.974,4.592-5.755,4.035-9.88c-0.322-2.389-0.56-4.437-0.55-6.855c0.006-1.471-0.273-2.82-1.004-4.121
					c-1.671-2.978-4.885-4.469-8.081-5.15c-1.404-0.299-1.962,2.176-0.539,2.486c4.74,1.032,6.758,3.427,6.914,8.226
					c0.098,2.992,1.253,6.249,0.297,9.087c-1.085,3.22-4.362,6.559-7.012,8.57c-2.202,1.672-5.006,2.082-5.891,4.896
					C421.897,407.249,422.804,408.086,423.388,407.459z"/>
				<path style="fill:#E0A338;" d="M378.028,343.379c-0.215-2.558-1.326-6.099,2.049-7.615c1.236-0.555,3.153-0.297,4.481-0.409
					c2.753-0.231,4.863-1.434,7.491-1.98c5.371-1.117,6.26,3.779,7.903,7.407c1.178,2.6,3.246,4.318,5.449,6.038
					c0.689,0.538,1.717-0.53,1.064-1.149c-2.482-2.354-3.866-4.496-4.958-7.775c-0.592-1.777-1.299-3.39-2.572-4.787
					c-2.47-2.71-5.5-3.006-8.804-1.817c-2.405,0.865-4.584,1.426-7.143,1.596c-1.862,0.124-3.951,0.154-5.632,1.077
					c-3.463,1.901-2.331,6.658-1.687,9.826C375.98,345.325,378.155,344.896,378.028,343.379z"/>
				<path style="fill:#E0A338;" d="M374.516,431.861c3.678,0.941,8.019,2.257,11.764,1.01c4.344-1.447,5.811-6.294,9.392-8.754
					c0.686-0.472-0.053-1.668-0.781-1.247c-1.846,1.068-3.103,2.409-4.522,3.972c-2.969,3.271-5.552,4.415-9.846,3.691
					c-4.527-0.764-20.376-4.212-15.337-11.818c0.927-1.399-1.187-2.896-2.139-1.502
					C357.728,425.006,368.481,430.316,374.516,431.861z"/>
			</g>
			<g>
				<g>
					<path style="fill:#94E6FF;" d="M422.988,407.678l1.835-2.571l1.476-2.794l1.208-2.915l1.211-2.916l0.672-3.086l0.878-3.04
						l0.223-3.154l0.275-3.145l-0.205-3.151l-0.277-3.139l-0.537-3.107l-0.611-3.104l-1.26-2.906l-1.037-2.983l-1.475-2.792
						l-1.773-2.608l-1.771-2.602l-1.938-2.491l-2.215-2.25l-2.398-2.052l-2.456-1.987l-2.638-1.744l-2.798-1.471l-2.89-1.274
						l-2.966-1.078l-3.011-0.961l-3.128-0.457l-3.117-0.49l-3.155-0.063l-3.156-0.037l-3.146,0.288l-3.126,0.485l-3.03,0.907
						l-3.001,0.975l-2.891,1.264l-2.755,1.527l-2.703,1.608l-2.617,1.756l-2.399,2.047l-2.182,2.271l-2.275,2.199l-1.815,2.589
						l-1.68,2.668l-1.576,2.732l-1.285,2.882l-1.147,2.942l-0.908,3.028l-0.517,3.118l-0.388,3.13l-0.178,3.15l0.162,3.149
						l0.26,3.141l0.467,3.122l0.711,3.08l1.026,2.991l1.314,2.873l1.412,2.82l1.549,2.756l1.833,2.579l2.169,2.302l2.203,2.252
						l2.312,2.146l2.61,1.773l2.635,1.716l2.707,1.613l2.835,1.392l2.948,1.147l3.084,0.701l3.081,0.676l3.146,0.226l3.136,0.434
						l3.157-0.178l3.142-0.305l3.126-0.467l2.995-1.018l3.07-0.759l2.922-1.21l2.801-1.467l2.596-1.8l2.698-1.651l2.266-2.207
						l2.301-2.149l2.014-2.421L422.988,407.678z M374.524,373.635l2.018-2.185l2.24-1.939l2.527-1.574l2.842-0.885l2.9-0.703
						l2.973,0.257l2.95,0.347l2.749,1.131l2.634,1.382l2.261,1.943l1.906,2.286l1.331,2.651l1.268,2.701l0.321,2.967l0.044,2.965
						l-0.364,2.964l-1.1,2.781l-1.591,2.515l-1.896,2.281l-2.246,1.945l-2.621,1.393l-2.789,0.979l-2.904,0.563l-2.966,0.033
						l-2.925-0.51l-2.744-1.117l-2.654-1.34l-2.215-1.988l-1.983-2.218l-1.382-2.634l-0.984-2.792l-0.449-2.919l-0.135-2.96
						l0.542-2.919l0.976-2.807L374.524,373.635z"/>
				</g>
				<path style="fill:#FFFFFF;" d="M421.038,406.309c12.614-17.958,8.283-42.742-9.675-55.356
					c-17.958-12.614-42.742-8.283-55.356,9.675c-12.614,17.958-8.283,42.741,9.675,55.356
					C383.639,428.598,408.423,424.266,421.038,406.309z M375.359,374.222c5.107-7.27,15.14-9.023,22.409-3.917
					c7.27,5.106,9.023,15.139,3.917,22.409c-5.107,7.27-15.14,9.023-22.409,3.917C372.006,391.525,370.252,381.491,375.359,374.222z
					"/>
				<g>
					<path style="fill:#EC1C24;" d="M373.088,371.052l-9.834-14.959c-11.715,10.791-15.259,27.936-8.783,42.487l14.959-9.834
						C367.735,382.62,369.102,376.005,373.088,371.052z"/>
					<path style="fill:#EC1C24;" d="M376.106,398.902l-14.959,9.834c10.791,11.715,27.936,15.259,42.487,8.783l-9.834-14.959
						C387.674,404.255,381.059,402.888,376.106,398.902z"/>
					<path style="fill:#EC1C24;" d="M403.956,395.884l9.834,14.959c11.715-10.791,15.259-27.936,8.783-42.487l-14.959,9.834
						C409.309,384.317,407.942,390.931,403.956,395.884z"/>
					<path style="fill:#EC1C24;" d="M400.938,368.034l14.959-9.834c-10.791-11.715-27.936-15.259-42.487-8.783l9.834,14.959
						C389.37,362.681,395.985,364.048,400.938,368.034z"/>
					<path style="fill:#FFFFFF;" d="M399.405,400.023c-1.773,1.165-3.664,2-5.604,2.537l9.834,14.959
						c1.835-0.817,3.64-1.749,5.373-2.889c1.733-1.139,3.305-2.427,4.782-3.788l-9.834-14.959
						C402.694,397.452,401.177,398.858,399.405,400.023z"/>
					<path style="fill:#FFFFFF;" d="M377.639,366.913c1.772-1.165,3.664-2,5.604-2.537l-9.834-14.959
						c-1.835,0.817-3.64,1.749-5.373,2.888c-1.733,1.14-3.305,2.427-4.782,3.788l9.834,14.959
						C374.35,369.484,375.866,368.078,377.639,366.913z"/>
					<path style="fill:#FFFFFF;" d="M405.077,372.585c1.165,1.772,2,3.664,2.537,5.604l14.959-9.834
						c-0.817-1.835-1.749-3.64-2.888-5.373c-1.139-1.733-2.427-3.305-3.788-4.782l-14.959,9.834
						C402.506,369.296,403.912,370.813,405.077,372.585z"/>
					<path style="fill:#FFFFFF;" d="M361.147,408.736l14.959-9.834c-1.568-1.262-2.974-2.779-4.139-4.551
						c-1.165-1.772-2-3.664-2.537-5.604l-14.959,9.834c0.817,1.835,1.749,3.64,2.888,5.373
						C358.499,405.687,359.786,407.259,361.147,408.736z"/>
				</g>
			</g>
		</g>
		<path style="fill:#FFFFFF;" d="M403.351,355.192c-3.319-2.675-7.078-4.424-11.449-4.773c-1.922-0.154-3.95,1.769-0.35,1.836
			c3.54,0.066,7.468,2.04,11.2,4.37C403.768,357.259,403.898,355.531,403.351,355.192L403.351,355.192z"/>
		<path style="fill:#FFFFFF;" d="M362.248,367.788c0.184-0.784-0.238-1.518-1-1.341c-0.462,0.107-1.037,0.614-1.446,1.108
			c-0.174,0.192-0.329,0.402-0.455,0.616c-0.449,0.76-0.607,1.577-0.53,2.446c0.075,0.85,1.036,1.421,1.739,0.965
			C361.692,370.844,361.893,369.304,362.248,367.788z"/>
	</g>
	<g>
		<g>
			<path style="fill:#E0A338;" d="M401.624,132.006c-0.443-0.361-0.917-0.711-1.366-1.071c-2.078-4.782-6.518-8.053-9.806-12.008
				c-3.814-4.587-7.515-9.286-11.234-13.95c-1.176-1.474-3.888-1.962-4.816,0.157c-2.719,6.203-2.31,11.177,2.771,15.656
				c6.39,5.633,13.777,10.241,20.592,15.335C400.615,138.257,404.482,134.338,401.624,132.006z"/>
			<path style="fill:#E0A338;" d="M405.376,131.548c-6.631-12.07-11.78-23.864-17.172-36.504c-1.99-4.665-4.082-11.473-10.22-7.041
				c-17.069,12.324,8.142,32.406,18.822,41.847c0.985,1.752,1.976,3.495,2.964,5.226
				C401.888,138.791,407.421,135.272,405.376,131.548z"/>
			<path style="fill:#FFE840;" d="M406.427,129.715c-2.994-16.994-7.634-34.506-8.716-51.752c-0.083-1.322-0.968-2.417-2.247-2.76
				c-6.336-1.697-17.977,0.984-16.921,9.495c0.786,6.337,6.452,14.812,9.296,20.563c3.637,7.354,7.14,14.946,11.325,22.038
				c0.201,1.181,0.412,2.368,0.599,3.54C400.534,135.685,407.293,134.63,406.427,129.715z"/>
			<path style="fill:#E0A338;" d="M410.533,134.327c0.419-0.389,0.868-0.769,1.293-1.158c1.762-4.908,5.979-8.461,9.002-12.622
				c3.506-4.826,6.893-9.756,10.301-14.653c1.077-1.548,3.751-2.211,4.816-0.157c3.117,6.013,3.034,11.003-1.744,15.803
				c-6.009,6.038-13.08,11.117-19.549,16.645C411.947,140.498,407.833,136.84,410.533,134.327z"/>
			<path style="fill:#E0A338;" d="M406.759,134.115c5.83-12.477,10.199-24.581,14.756-37.546c1.681-4.784,3.325-11.715,9.74-7.693
				c17.837,11.185-6.012,32.868-16.053,42.985c-0.868,1.812-1.744,3.617-2.617,5.408
				C410.712,141.115,404.96,137.964,406.759,134.115z"/>
			<path style="fill:#FFE840;" d="M405.59,132.354c1.879-17.153,5.368-34.93,5.323-52.21c-0.003-1.324,0.809-2.475,2.063-2.9
				c6.212-2.106,18.003-0.19,17.504,8.371c-0.371,6.375-5.472,15.202-7.935,21.125c-3.149,7.575-6.15,15.38-9.864,22.73
				c-0.124,1.192-0.257,2.39-0.367,3.572C411.86,137.927,405.047,137.315,405.59,132.354z"/>
			<path style="fill:#E0A338;" d="M415.208,71.114c-2.682-3.136-8.008-4.434-11.957-4.492c-13.019-0.193-12.856,8.316-11.248,18.921
				c2.424,15.996,6.925,31.278,10.516,46.997c0.186,0.816,0.967,1.074,1.654,0.917c1.476,2.611,5.363,1.487,6.099-1.086
				c4.831-16.893,1.091-35.494,5.516-52.458C416.834,75.904,418.176,74.585,415.208,71.114z"/>
			<path style="fill:#FFE840;" d="M417.183,133.14c-2.993-2.538-7.188-4.669-11.213-4.355c-6.168-1.27-14.749,5.3-15.612,11.166
				c-1.173,7.974,17.972,7.258,22.305,6.737c2.883-0.346,7.198-1.318,8.459-4.334C422.517,139.018,419.555,135.151,417.183,133.14z"
				/>
		</g>
		<path style="fill:#FFFFFF;" d="M400.711,70.017c-4.115-0.48-7.553,3.29-6.349,7.367c0.585,1.981,1.085,1.808,1.333-0.176
			c0.313-2.5,2.921-6.085,5.125-5.875C402.098,71.454,401.953,70.161,400.711,70.017L400.711,70.017z"/>
		<path style="fill:#FFFFFF;" d="M377.718,108.522c4.405,8.152,11.739,16.899,18.539,23.154c0,0,1.827-1.145,1.781-1.188
			c-2.469-2.25-6.747-7.075-10.031-10.594c-3.282-3.515-6.238-8.536-9.885-11.684C377.905,108.023,377.575,108.257,377.718,108.522
			L377.718,108.522z"/>
		<path style="fill:#FFFFFF;" d="M385.481,89.572c0.265,0.969,0.476,1.975,0.869,2.9c0.539,1.265,2.676,0.363,2.23-0.94
			c-0.322-0.94-0.86-1.829-1.305-2.716C386.77,87.808,385.192,88.515,385.481,89.572L385.481,89.572z"/>
		<path style="fill:#FFFFFF;" d="M428.407,113.124c-1.037,0.96-1.766,2.345-2.614,3.477c-0.893,1.192-1.942,2.34-2.505,3.726
			c-0.443,1.091,0.54,1.792,1.282,0.943c0.976-1.117,2.205-2.39,2.86-3.712c0.629-1.268,1.522-2.531,1.913-3.889
			C429.502,113.115,428.806,112.754,428.407,113.124L428.407,113.124z"/>
	</g>
	<g>
		<g>
			<path style="fill:#F8DBA1;" d="M407.003,256.29c-0.408,8.359-0.47,30.653-0.452,38.904c0.003,1.491,0.088,3.058,0.352,4.456
				c0.331,1.752,0.894,3.398,3.204,3.756c3.897,0.604,4.76-2.609,5.007-3.817c0.415-2.024,0.429-4.188,0.439-6.318
				c0.04-8.256,0.135-29.565,0.175-37.821L407.003,256.29z"/>
		</g>
		<path style="fill:#FF6E79;" d="M429.922,264.527h-36.614c-4.483,0-8.151-3.668-8.151-8.151v-64.464
			c0-9.273,6.997-16.853,16.853-16.853h19.21c11.181,0,16.853,7.218,16.853,16.853v64.464
			C438.073,260.859,434.405,264.527,429.922,264.527z"/>
		<path style="fill:#FF485E;" d="M385.157,204.39v51.986c0,4.483,3.668,8.151,8.151,8.151h36.614c4.483,0,8.151-3.668,8.151-8.151
			V204.39H385.157z"/>
		<path style="fill:#EC1C24;" d="M385.157,232.309v24.067c0,4.483,3.668,8.151,8.151,8.151h36.614c4.483,0,8.151-3.668,8.151-8.151
			v-24.067H385.157z"/>
		<path style="fill:#FFAEAE;" d="M399.212,257.797L399.212,257.797c-1.944,0-3.535-1.591-3.535-3.535v-66.489
			c0-1.944,1.591-3.535,3.535-3.535l0,0c1.945,0,3.535,1.591,3.535,3.535v66.489C402.747,256.206,401.156,257.797,399.212,257.797z"
			/>
		<path style="fill:#FFFFFF;" d="M398.552,253.982L398.552,253.982c-0.452,0-0.821-1.443-0.821-3.208v-60.328
			c0-1.764,0.37-3.208,0.821-3.208l0,0c0.452,0,0.821,1.444,0.821,3.208v60.328C399.373,252.539,399.003,253.982,398.552,253.982z"
			/>
		<path style="fill:#FFAEAE;" d="M423.414,257.797L423.414,257.797c-1.944,0-3.535-1.591-3.535-3.535v-66.489
			c0-1.944,1.591-3.535,3.535-3.535l0,0c1.945,0,3.535,1.591,3.535,3.535v66.489C426.95,256.206,425.359,257.797,423.414,257.797z"
			/>
		<path style="fill:#FFFFFF;" d="M422.611,253.835L422.611,253.835c-0.452,0-0.821-1.443-0.821-3.208v-60.328
			c0-1.764,0.37-3.208,0.821-3.208l0,0c0.452,0,0.821,1.443,0.821,3.208v60.328C423.432,252.392,423.063,253.835,422.611,253.835z"
			/>
	</g>
	<g>
		<g>
			<path style="fill:#94E6FF;" d="M282.309,198.366c1.877,7.949,1.378,25.589-0.474,33.544c-1.014,4.358-2.575,8.574-3.576,12.935
				c-1.001,4.361-0.491,9.905,0.782,14.194c1.86,6.267,6.265,10.15,12.286,12.694c6.021,2.544,28.356,6.954,36.719-9.688
				c4.26-8.478,3.817-16.404,0.083-24.828c-6.329-14.277-4.525-34.263-1.964-40.033"/>
		</g>
		<g>
			<path style="fill:#94E6FF;" d="M301.762,272.739c0.095,4.604-0.309,11.257-0.213,15.86c0.03,1.469,0.046,3.006-0.602,4.318
				c-0.988,2-3.216,2.94-5.225,3.833c-2.134,0.949-6.762,3.532-6.859,3.816c-0.163,0.476,3.04,6.29,16.722,6.213
				c9.889-0.056,16.513-4.808,16.111-5.829c-0.857-2.175-11.263-5.969-11.933-6.933c-0.687-0.989-0.681-3.081-0.74-4.294
				c-0.24-4.931-0.26-11.951,0.157-16.871"/>
		</g>
		<path style="fill:#63D3E5;" d="M325.955,197.494c0.031,1.576-9.704,3.046-21.744,3.283c-12.04,0.237-21.825-0.849-21.856-2.425
			c-0.031-1.576,9.704-3.046,21.744-3.283C316.138,194.832,325.924,195.918,325.955,197.494z"/>
		<g>
			<g>
				<path style="fill:#FFFFFF;" d="M329.04,213.936c7.33-5.64,8.322-12.376,8.419-13.525c0.405-4.78-0.46-10.023-3.91-13.357
					c-2.409-2.328-5.833-3.431-9.184-3.438c-3.35-0.008-6.637,1.002-9.665,2.436c-0.886,0.419-1.763,0.882-2.5,1.529
					C313.855,191.247,327.09,211.22,329.04,213.936z"/>
				<path style="fill:#EB7600;" d="M337.423,192.372c-1.271-4.173-4.059-7.099-8.062-8.463c-5.324-1.814-12.363-0.567-17.522,3.102
					c-0.298,0.211-0.388,0.561-0.229,0.893c3.95,8.277,9.567,16.155,14.997,23.773c0.627,0.879,1.249,1.753,1.865,2.621
					c0.133,0.188,0.333,0.292,0.555,0.292c0.006,0,0.013-0.001,0.02-0.001c0.165,0.006,0.32-0.051,0.453-0.16
					C336.949,208.334,339.837,200.295,337.423,192.372z M322.237,202.533c-0.813-1.246-1.717-2.505-2.673-3.837
					c-2.284-3.182-4.645-6.473-5.915-9.814c-0.149-0.391-0.268-0.624-0.346-0.778c-0.029-0.056-0.06-0.118-0.076-0.118
					c-0.002,0-0.004,0.001-0.005,0.003c0.013-0.025,0.07-0.093,0.127-0.158c0.105-0.123,0.258-0.303,0.465-0.59
					c1.319-1.826,6.988-2.797,9.73-2.911c6.414-0.268,11.478,3.527,12.904,9.67c1.587,6.839-0.995,13.543-7.28,18.951
					c-2.03-2.894-3.987-5.899-5.885-8.812L322.237,202.533z"/>
			</g>
			<g>
				<g>
					<path style="fill:#FFE840;" d="M331.257,188.567c-2.58,3.277-5.561,6.648-7.588,10.287c-0.109,0.196,0.088,0.426,0.301,0.355
						c1.458-0.493,2.915-1.001,4.42-1.29c2.063-0.397,4.158-0.675,6.253-0.943c0.125-0.016,0.22-0.125,0.217-0.251
						c-0.077-3.076-0.948-6.159-3.225-8.192C331.484,188.546,331.407,188.553,331.257,188.567z"/>
				</g>
				<g>
					<path style="fill:#FFE840;" d="M323.214,195.334c-0.005,0.981-0.005,2.057-0.042,3.011c0.045,0.109,0.127-0.03,0.18-0.12
						c2.036-3.481,4.862-6.919,7.349-10.072c0.09-0.114,0.064-0.286-0.058-0.365c-1.657-1.087-3.681-1.617-5.676-1.622
						c-0.499-0.001-0.996,0.031-1.489,0.088c-0.125,0.014-0.22,0.122-0.22,0.247C323.242,189.445,323.227,192.39,323.214,195.334z"
						/>
				</g>
				<g>
					<path style="fill:#FFE840;" d="M324.68,200.197c2.92,0.923,5.876,1.659,8.882,2.205c0.114,0.021,0.231-0.044,0.277-0.15
						c0.749-1.729,0.935-3.057,0.97-3.461c0.031-0.373,0.046-0.751,0.056-1.13c-1.855,0.246-3.711,0.498-5.553,0.808
						c-1.588,0.268-3.111,0.756-4.634,1.255C324.451,199.798,324.452,200.124,324.68,200.197z"/>
				</g>
				<g>
					<path style="fill:#FFE840;" d="M322.482,199.092c0.27-2.073,0.041-4.35,0.05-6.292c0.01-2.036,0.02-4.072,0.029-6.108
						c0.001-0.156-0.144-0.278-0.297-0.248c-1.575,0.311-3.11,0.863-4.564,1.552c-0.607,0.287-1.208,0.601-1.729,1.022
						c-0.089,0.072-0.12,0.196-0.069,0.299c0.749,1.533,3.395,5.733,6.085,9.878C322.092,199.465,322.415,199.462,322.482,199.092z"
						/>
				</g>
				<g>
					<path style="fill:#FFE840;" d="M323.699,200.615c-0.389-0.341-0.924-0.114-0.427,0.553c2.229,3.406,4.28,6.468,5.057,7.577
						c0.082,0.116,0.248,0.137,0.359,0.048c2.274-1.797,3.702-3.727,4.604-5.417c0.078-0.145-0.013-0.319-0.175-0.349
						C329.928,202.435,326.795,201.629,323.699,200.615z"/>
				</g>
			</g>
		</g>
		<path style="fill:#94E6FF;" d="M317.207,199.963c0,0,4.657-0.462,6.742-1.211l-0.226,11.025l-7.098,0.04L317.207,199.963z"/>
		<path style="fill:#63D3E5;" d="M288.34,226.868c0,0,0.841-13.622-0.122-19.991c0,0,3.594,1.856,10.658,0.889
			c0,0,8.115,0.344,8.115,9.103c0,7.417,0.129,7.772,0.129,7.772L288.34,226.868z"/>
		<g>
			<path style="fill:#FFD283;" d="M284.352,243.833c-0.306,1.611-0.648,3.223-0.719,4.861c-0.102,2.347-0.065,4.911,0.331,7.226
				c0.264,1.547,3.016,10.674,12.261,12.908c5.009,1.21,10.19,1.268,15.261,0.347c5.07-0.921,9.361-4.214,12.211-8.508
				c1.601-2.411,2.686-5.357,2.738-8.269c0.177-9.853-6.454-21.095-7.217-26.234c-0.031-0.206-0.161-0.394-0.318-0.531
				c-0.139-0.12-0.32-0.177-0.495-0.23c-8.012-2.411-23.06-1.712-30.064,1.463C288.34,226.868,284.9,240.95,284.352,243.833z"/>
		</g>
		<g>
			<path style="fill:#FFB450;" d="M316.648,236.029c-4.857,0.511-9.831,0.9-14.716,0.953c-4.519,0.049-15.661-1.539-15.738-1.213
				c-0.814,3.42-1.603,6.807-1.842,8.064c-0.306,1.611-0.648,3.223-0.719,4.861c-0.102,2.347-0.065,4.911,0.331,7.226
				c0.264,1.547,3.016,10.674,12.261,12.908c5.009,1.21,10.19,1.268,15.261,0.347c5.07-0.921,9.361-4.214,12.211-8.508
				c1.601-2.411,2.686-5.357,2.738-8.269c0.102-5.675-2.053-11.804-4.046-16.969C320.454,235.721,318.473,235.837,316.648,236.029z"
				/>
		</g>
		<g>
			<path style="fill:#FF8F43;" d="M319.791,252.771c-5.494,0.975-11.191,1.577-16.764,1.791c-5.779,0.222-12.338-0.247-17.901-1.917
				c-0.449-0.135-0.974-0.292-1.523-0.477c0.043,1.275,0.148,2.547,0.354,3.753c0.264,1.546,3.016,10.674,12.261,12.908
				c5.009,1.21,10.191,1.268,15.261,0.347c5.07-0.921,9.361-4.214,12.211-8.508c1.601-2.411,2.686-5.357,2.738-8.269
				c0.007-0.392-0.014-0.789-0.028-1.184C324.252,251.99,321.913,252.394,319.791,252.771z"/>
		</g>
		<path style="fill:#44C1B8;" d="M279.942,181.587c10.724,16.235,21.69,32.334,32.173,48.725c0.481,0.752,1.681,0.048,1.197-0.709
			c-10.483-16.391-21.45-32.49-32.173-48.725C280.647,180.135,279.447,180.837,279.942,181.587L279.942,181.587z"/>
		<path style="fill:#2FA89C;" d="M294.292,200.658c-0.747-1.188-8.796-13.174-13.16-19.779c-0.491-0.744-1.692-0.041-1.197,0.709
			c4.185,6.335,8.405,12.652,12.621,18.971C292.6,200.624,294.292,200.659,294.292,200.658z"/>
		<path style="fill:#3893A8;" d="M303.205,176.831l-26.12-3.901c0.012-0.064,0.038-0.123,0.037-0.19
			c-0.003-0.544-0.447-0.983-0.991-0.979c-0.544,0.003-0.982,0.447-0.979,0.99c0.003,0.457,0.323,0.823,0.746,0.932
			c-1.382,4.515-7.601,24.943-6.805,24.185c4.765-4.538,9.341-1.15,9.64-1.522c4.581-5.692,9.613-3.691,9.64-3.78
			c1.762-5.714,9.164-7.562,9.164-7.562c0.874-4.482,4.106-6.777,5.948-7.824C303.701,177.057,303.444,176.895,303.205,176.831z"/>
		<path style="fill:#63D3E5;" d="M301.452,296.231l-6.215,5.088c0,0,2.335,2.327,9.52,2.286c7.185-0.041,9.612-1.691,9.49-2.198
			c-0.331-1.377-4.743-0.475-6.676-1.248C304.948,299.111,306.199,295.509,301.452,296.231z"/>
		<g>
			<path style="fill:#FFFFFF;" d="M288.2,226.163c-1.833,7.332-3.889,14.826-4.842,22.334c-0.719,5.666-0.122,11.807,4.084,16.056
				c0.62,0.626,1.697-0.193,1.223-0.955c-3.789-6.095-3.191-12.435-2.014-19.271c1.021-5.931,1.914-11.887,2.697-17.855
				C289.443,225.74,288.391,225.397,288.2,226.163L288.2,226.163z"/>
			<path style="fill:#FFFFFF;" d="M318.397,207.557c-0.325,1.472-0.459,2.974-0.552,4.477c-0.089,1.436,2.26,1.448,2.251-0.013
				c-0.01-1.501-0.076-2.989-0.317-4.472C319.665,206.841,318.543,206.897,318.397,207.557L318.397,207.557z"/>
			<path style="fill:#FFFFFF;" d="M317.535,246.915c-0.631,2.161,0.025,4.318,0.273,6.502c0.275,2.417,0.314,4.318-0.537,6.617
				c-0.17,0.46,0.337,0.824,0.744,0.735c5.09-1.115,0.578-10.868,0.204-13.766C318.171,246.634,317.653,246.512,317.535,246.915
				L317.535,246.915z"/>
			<path style="fill:#FFFFFF;" d="M301.346,296.293c-2.016,1.038-4.721,1.987-6.161,3.822c-0.473,0.603-0.052,1.657,0.818,1.388
				c2.286-0.707,4.258-2.802,6.015-4.349C302.508,296.722,301.878,296.02,301.346,296.293L301.346,296.293z"/>
		</g>
		<path style="fill:#FFFFFF;" d="M276.056,186.929c-0.451,0.137-0.726,0.584-0.869,1.103c-0.35,0.689-0.53,1.557-0.216,2.096
			c0.233,0.401,0.715,0.582,1.144,0.397c0.518-0.223,0.723-0.799,0.868-1.304C277.186,188.508,277.448,186.508,276.056,186.929z"/>
		<path style="fill:#FFFFFF;" d="M275.545,188.906c0.013-0.054,0.027-0.108,0.041-0.162c0.069-0.273-0.391-0.267-0.322-0.005
			c0.014,0.054,0.029,0.109,0.043,0.163C275.337,189.017,275.514,189.026,275.545,188.906L275.545,188.906z"/>
	</g>
	<g>
		<g>
			<path style="fill:#D74B2A;" d="M185.742,302.776c-0.514,0.557-1.422,0.471-1.815-0.176
				c-11.311-18.593-14.873-41.244-13.002-62.954c1.875-21.752,7.787-43.409,16.253-63.552c0.282-0.672,1.113-0.907,1.712-0.491
				c3.007,2.086,8.059,7.529,8.758,7.533c0.554,0.003,6.725-3.796,10.086-5.473c0.68-0.339,1.49,0.063,1.625,0.811
				c1.133,6.257,5.072,31.615,1.536,65.169C207.338,277.404,190.157,297.987,185.742,302.776z"/>
		</g>
		<path style="fill:#EB7600;" d="M186.206,292.279c0.886-8.866,3.13-17.507,3.821-26.419c0.722-9.312,1.075-18.605,2.137-27.893
			c1.108-9.69,2.198-19.383,3.364-29.067c0.551-4.576,0.889-9.243,1.798-13.765c0.054-0.269,0.113-0.528,0.177-0.78
			c-0.198-0.382-0.295-0.821-0.286-1.296c0.039-1.977,1.281-4.273,3.271-4.888c0.044-0.013,0.087-0.022,0.131-0.034
			c0.603-0.872,1.244-1.777,1.895-2.808c1.036-1.639,4.031-1.096,4.205,0.934c1.192,13.947,1.936,27.871,1.202,41.815
			c0.407,0.471,0.655,1.122,0.604,1.959c-0.619,10.16-1.315,20.384-4.023,30.243c-2.775,10.102-7.612,19.749-12.836,28.793
			c-0.359,0.622-0.889,0.951-1.464,1.055c-0.658,0.971-1.371,1.913-2.155,2.815C187.428,293.658,186.097,293.372,186.206,292.279z"
			/>
		<path style="fill:#F3D189;" d="M208.199,190.826c-0.354-2.649,0.036-8.884-3.629-7.292c-2.042,0.887-3.608,2.798-5.509,3.91
			c-1.844,1.079-1.089,1.55-2.749-0.321c-0.937-1.057-4.199-6.057-6.013-5.898c-1.779,0.156-2.793,4.475-3.303,5.768
			c-2.394,6.066-4.518,12.24-6.337,18.502c-3.475,11.962-5.929,24.304-6.821,36.739c-0.813,11.337-0.044,22.863,2.893,33.867
			c1.383,5.182,3.218,10.25,5.656,15.032c0.826,1.62,1.673,4.887,3.717,4.667c0.301,0.228,0.767,0.276,1.085-0.089
			c11.564-13.257,18.338-30.95,20.723-48.202C210.477,228.965,210.685,209.414,208.199,190.826z M208.371,225.077
			c-0.046,1.957-0.119,3.916-0.224,5.876c-1.763-1.928-3.557-3.822-5.438-5.638c-0.313-0.302-0.737-0.486-1.168-0.277
			c-1.769,0.855-3.535,1.756-5.149,2.887c-0.883,0.619-1.859,1.732-2.833,2.351l0.516-4.897c1.693-1.643,5.718-6.111,7.691-5.984
			C203.297,219.492,206.998,223.841,208.371,225.077z M188.718,221.801c1.299,1.228,2.599,2.457,3.898,3.685l-0.549,5.209
			c-0.025-0.004-0.051-0.003-0.076-0.009c-2.034-0.508-5.724-5.748-8.258-6.312c-1.375-0.306-4.492,1.581-6.811,3.593
			c0.17-1.02,0.346-2.04,0.533-3.056c0.158-0.859,0.335-1.715,0.506-2.571c0.018-0.008,0.034-0.007,0.052-0.018
			c1.481-0.885,5.275-4.509,6.62-4.384C185.295,217.999,188.212,221.322,188.718,221.801z M186.867,293.779l6.427-60.99
			c1.758-1.723,5.969-5.742,8.375-5.761c2.442-0.018,4.193,4.296,5.766,6.028c0.17,0.188,0.369,0.284,0.569,0.316
			C206.545,255.26,201.032,276.941,186.867,293.779z M176.713,229.229c1.772-1.072,3.663-1.974,5.396-3.102
			c1.513-0.985,0.942-0.914,1.709-0.433c2.807,1.761,5.605,4.777,8.045,6.934l-6.516,61.832c-2.639-2.653-6.558-15.437-6.997-17.01
			c-1.443-5.171-2.4-10.472-2.952-15.81C174.28,250.827,175.003,239.939,176.713,229.229z M192.845,185.3
			c-2.882,10.388-5.89,20.81-8.135,31.36c-2.256,0.11-4.597,2.449-6.441,4.11c2.12-10.196,5.098-20.21,8.775-29.952
			c0.764-2.025,1.338-4.387,2.477-6.238C190.872,182.384,191.383,183.65,192.845,185.3z M196.397,189.6l-3.543,33.622
			c-2.819-0.689-4.564-5.674-7.141-6.446c2.973-9.98,5.22-20.173,8.133-30.176C194.584,187.632,195.502,188.928,196.397,189.6z
			 M201.727,187.266c0.02-0.015,0.042-0.032,0.062-0.047c-0.198,9.889-0.938,19.945-0.441,29.829
			c-1.476,1.157-2.936,2.33-4.363,3.549c-0.576,0.492-1.791,2.064-2.675,2.545l3.49-33.116
			C199.169,189.784,200.817,187.932,201.727,187.266z M207.85,202.629c0.418,6.575,0.649,13.347,0.563,20.172
			c-2.023-1.8-3.971-3.669-5.83-5.647c-0.02-0.021-0.045-0.032-0.066-0.05c0.9-10.093,0.439-20.444,0.622-30.558
			c0.002-0.128-0.032-0.234-0.081-0.329c1.007-0.765,2.123-1.404,2.835-0.57c0.413,0.484,0.395,2.253,0.502,2.949
			C207.114,193.245,207.552,197.935,207.85,202.629z"/>
	</g>
	<g>
		<g>
			<path style="fill:#FFE840;" d="M203.619,97.999c-0.879-7.064-2.888-14.025-4.405-20.97c-0.062-0.282-0.269-0.384-0.481-0.368
				c-0.273-0.443-1.117-0.245-1.113,0.351c0.036,5.491-0.17,10.972-0.268,16.456c-2.164-3.83-4.942-7.387-7.598-10.856
				c-0.555-0.725-1.607-0.308-1.46,0.616c0.796,5.006,3.561,9.864,5.832,14.485c-4.645-1.155-9.319-2.127-14.121-2.31
				c-0.917-0.035-1.241,1.27-0.463,1.71c3.874,2.195,7.746,4.391,11.615,6.595c-2.694,1.577-5.281,3.298-7.772,5.194
				c-0.701,0.533-0.542,1.755,0.476,1.759c4.38,0.017,8.794-1.776,12.981-2.917c1.029-0.28,0.769-1.723-0.105-1.851
				c0.055-0.114,0.104-0.229,0.148-0.344c0.16-0.099,0.32-0.2,0.48-0.302c0.769-0.488,0.388-1.444-0.309-1.575
				c-0.164-0.735-0.621-1.423-1.446-1.987c-0.252-0.173-0.526-0.321-0.807-0.461c0.018-0.191-0.034-0.386-0.207-0.537
				c-0.062-0.054-0.125-0.113-0.187-0.17c0.049,0.013,0.099,0.027,0.148,0.04c0.109,0.029,0.209,0.034,0.304,0.027
				c0.582,0.133,1.162,0.272,1.749,0.39c0.758,0.152,1.209-0.582,1.036-1.137c0.063-0.152,0.084-0.331,0.035-0.534
				c-0.026-0.105-0.063-0.206-0.092-0.31c0.498,0.011,1.018-0.449,0.937-1.013c0.063-0.05,0.12-0.109,0.17-0.174
				c0.194-0.141,0.339-0.361,0.364-0.664c0.001-0.005,0.001-0.011,0.001-0.016c0.194-0.006,0.39-0.07,0.552-0.193
				c0.402,0.588,1.552,0.283,1.563-0.538c0.002-0.184-0.019-0.329-0.063-0.463c-0.01-0.066-0.018-0.132-0.027-0.198
				c0.182,0.847,0.377,1.689,0.59,2.527C201.942,99.311,203.759,99.128,203.619,97.999z M192.96,89.664
				c-0.074-0.161-0.146-0.322-0.22-0.482c0.107,0.146,0.214,0.292,0.321,0.438C193.026,89.632,192.993,89.648,192.96,89.664z"/>
			<path style="fill:#FFE840;" d="M197.797,112.47c-0.65-0.456-1.788-1.256-2.667-1.144c-0.235-0.221-0.66-0.264-0.815,0.088
				c-1.005,2.269-2.114,4.543-3.427,6.651c-0.489,0.785,0.703,1.756,1.309,1.01c1.607-1.98,3.461-3.715,5.601-5.11
				C198.368,113.592,198.337,112.849,197.797,112.47z M194.282,114.47c0.021,0.003,0.041,0.006,0.061,0.008
				c-0.033,0.028-0.066,0.055-0.098,0.083C194.257,114.531,194.27,114.5,194.282,114.47z"/>
		</g>
		<path style="fill:#FF6E79;" d="M264.33,134.84c-2.125-2.705-5.682-4.322-8.546-6.073c-4.186-2.559-8.379-5.107-12.558-7.676
			c-4.024-2.474-7.555-5.556-11.741-7.777c-4.508-2.391-8.626-5.205-12.988-7.814c-0.366-0.219-0.698,0.267-0.437,0.567
			c0.224,0.258,0.466,0.5,0.703,0.747c-0.332,0.186-0.53,0.581-0.262,1.002c0.256,0.402,0.512,0.804,0.768,1.206
			c-0.285,0.211-0.431,0.599-0.21,1.003c0.272,0.496,0.563,0.97,0.864,1.434c-0.111-0.058-0.221-0.117-0.332-0.175
			c-0.809-0.427-1.569,0.572-0.964,1.25c0.128,0.143,0.261,0.278,0.391,0.417c-0.044,0.219,0.005,0.45,0.184,0.635
			c-0.074-0.037-0.148-0.073-0.221-0.11c-0.953-0.472-1.794,0.959-0.837,1.431c4.245,2.094,8.49,4.188,12.735,6.281
			c1.606,0.792,3.227,1.749,4.964,2.229c2.072,0.572,4.186,0.032,6.286,0.255c2.758,0.293,4.619,1.776,6.717,3.44
			c1.508,1.197,3.16,2.134,4.8,3.133c2.213,1.348,4.406,2.857,5.468,5.309c0.676,1.562,0.535,3.455,1.581,4.862
			c1.067,1.434,3.15,1.918,4.384,0.431C266.556,139.064,265.574,136.424,264.33,134.84z"/>
		<g>
			<path style="fill:#FF6E79;" d="M274.101,72.49c-0.108-0.203-0.225-0.417-0.422-0.536c-0.253-0.153-0.573-0.113-0.867-0.079
				c-2.31,0.268-4.72,0.406-7.038,0.593c-6.565,0.53-11.655,2.549-17.391,5.498c-5.869,3.017-7.937,8.488-10.214,10.293
				c-0.101,0.08-0.298,0.186-0.528,0.306c-1.726,0.862-4.795,1.782-5.601,2.016c-0.367,0.073-0.705,0.146-0.878,0.148
				c-2.905,0.022-7.947-2.943-14.411-1.613c-6.317,1.3-11.548,2.919-16.994,6.623c-1.923,1.308-3.887,2.711-5.854,3.952
				c-0.25,0.158-0.525,0.327-0.626,0.605c-0.079,0.216-0.037,0.456,0.007,0.682c0.356,1.852,1.477,4.898,1.74,5.417
				c0.313,0.619,0.923,1.701,1.569,1.953c3.431,1.342,10.461,10.918,14.181,13.133c2.286,1.362,5.667,2.112,9.173,1.601
				c7.12-1.039,11.649-7.36,12.509-9.709c1.211-3.307,2.194-6.766,2.19-10.287c-0.001-0.897,0.13-5.28,2.646-6.166
				c2.575-0.908,5.369,2.469,5.915,3.149c2.205,2.745,5.14,4.823,8.157,6.64c2.143,1.29,9.634,3.375,15.832-0.282
				c3.052-1.8,5.214-4.505,6.142-6.999c1.508-4.059,0.979-15.926,2.811-19.123c0.345-0.602,0.142-1.827-0.003-2.506
				C276.022,77.231,274.984,74.156,274.101,72.49z"/>
			<g>
				<path style="fill:#3D383F;" d="M227.716,115.091c2.878-4.019,3.845-9.191,3.328-14.107c-0.214-2.033-0.699-4.129-2.01-5.697
					c-1.413-1.691-3.629-2.55-5.822-2.755c-2.193-0.205-4.396,0.174-6.56,0.586c-2.748,0.523-5.503,1.107-8.097,2.154
					c-1.379,0.557-2.731,1.26-3.775,2.319c-2.239,2.272-2.682,5.877-1.825,8.95c0.857,3.073,2.82,5.711,4.903,8.126
					c0.627,0.727,4.563,4.588,8.637,4.986C216.495,119.653,223.875,120.456,227.716,115.091z"/>
			</g>
			<g>
				<path style="fill:#3D383F;" d="M256.111,105.191c-4.804-1.338-8.836-4.79-11.54-8.98c-1.118-1.733-2.063-3.687-2.025-5.749
					c0.04-2.222,1.239-4.299,2.832-5.849c1.594-1.549,3.564-2.645,5.526-3.69c2.491-1.327,5.025-2.612,7.726-3.43
					c1.436-0.435,2.943-0.738,4.433-0.566c3.197,0.369,5.826,2.922,7.096,5.879c1.27,2.957,1.397,6.271,1.289,9.488
					c-0.033,0.967-0.683,6.492-3.633,9.383C267.815,101.677,262.523,106.977,256.111,105.191z"/>
			</g>
			<path style="fill:#FFFFFF;" d="M208.648,108.786c0.116-1.141-0.478-2.273-0.748-3.37c-0.37-1.507-0.379-2.984,0.183-4.441
				c0.501-1.299-1.749-1.969-2.114-0.583c-0.666,2.528-0.368,7.265,2.458,8.521C208.534,108.961,208.636,108.904,208.648,108.786
				L208.648,108.786z"/>
			<path style="fill:#FFFFFF;" d="M253.108,99.793c1.609,1.52,4.831,3.935,6.986,1.958c0.446-0.41,0.206-1.171-0.35-1.326
				c-1.023-0.285-2.138-0.065-3.205-0.299c-1.062-0.233-2.076-0.525-3.089-0.922C253.116,99.073,252.865,99.564,253.108,99.793
				L253.108,99.793z"/>
			<path style="fill:#FFFFFF;" d="M197.663,101.401c0.164,0.466-0.08,0.977-0.546,1.141c-0.466,0.164-0.977-0.08-1.141-0.546
				c-0.164-0.466,0.08-0.977,0.546-1.141S197.499,100.935,197.663,101.401z"/>
			<path style="fill:#FFFFFF;" d="M272.922,74.871c0.164,0.466-0.08,0.977-0.546,1.141c-0.466,0.164-0.977-0.08-1.141-0.546
				c-0.164-0.466,0.08-0.977,0.546-1.141C272.247,74.161,272.758,74.405,272.922,74.871z"/>
		</g>
		<path style="fill:#FF6E79;" d="M319.939,101.332c-2.125-2.705-5.682-4.322-8.546-6.073c-4.186-2.559-8.379-5.107-12.558-7.676
			c-4.024-2.474-7.555-5.556-11.741-7.777c-4.508-2.391-8.626-5.205-12.988-7.814c-0.366-0.219-0.698,0.267-0.437,0.567
			c0.224,0.258,0.466,0.5,0.703,0.747c-0.332,0.186-0.53,0.581-0.262,1.002c0.256,0.402,0.512,0.804,0.768,1.206
			c-0.285,0.211-0.431,0.599-0.21,1.003c0.272,0.496,0.563,0.969,0.864,1.434c-0.111-0.058-0.221-0.117-0.332-0.175
			c-0.81-0.427-1.569,0.572-0.965,1.25c0.128,0.143,0.261,0.278,0.391,0.417c-0.044,0.219,0.005,0.45,0.184,0.635
			c-0.074-0.037-0.148-0.073-0.221-0.11c-0.953-0.472-1.794,0.959-0.837,1.431c4.245,2.094,8.49,4.188,12.735,6.281
			c1.606,0.791,3.227,1.749,4.964,2.229c2.072,0.572,4.186,0.032,6.286,0.255c2.758,0.292,4.619,1.776,6.716,3.44
			c1.508,1.196,3.16,2.134,4.8,3.133c2.213,1.348,4.406,2.857,5.468,5.309c0.676,1.562,0.534,3.455,1.581,4.862
			c1.067,1.434,3.15,1.918,4.384,0.431C322.165,105.556,321.183,102.916,319.939,101.332z"/>
	</g>
</g>
<g id="DESIGNED_BY_FREEPIK">
	<g id="XMLID_1_">
		<g>
			<g id="XMLID_479_">
				<g id="XMLID_498_">
					<path id="XMLID_506_" d="M260.104,465.173c-0.432,0.443-0.803,0.931-1.108,1.453l-0.465-0.241
						c-0.067-0.298-0.349-0.503-0.659-0.466c-0.331,0.039-0.568,0.339-0.529,0.67c0.039,0.331,0.339,0.568,0.67,0.529
						c0.066-0.008,0.127-0.026,0.184-0.052l0.451,0.234c-0.251,0.554-0.433,1.139-0.539,1.744l0.747,0.132
						c0.23-1.306,0.85-2.507,1.792-3.473L260.104,465.173z"/>
					<path id="XMLID_505_" d="M265.592,462.871c-0.171,0-0.341,0.006-0.51,0.017l-0.074-0.626c0.188-0.149,0.296-0.389,0.266-0.645
						c-0.046-0.393-0.402-0.674-0.795-0.628c-0.393,0.046-0.674,0.402-0.628,0.795c0.03,0.254,0.189,0.461,0.404,0.564l0.074,0.624
						c-0.714,0.116-1.403,0.332-2.06,0.646l0.327,0.684c0.934-0.447,1.942-0.673,2.995-0.673c0.496,0,0.993,0.053,1.475,0.158
						l0.161-0.741C266.692,462.93,266.142,462.871,265.592,462.871z"/>
					<path id="XMLID_504_" d="M272.194,465.418c0.331-0.04,0.566-0.342,0.526-0.672c-0.04-0.331-0.341-0.566-0.672-0.526
						c-0.309,0.038-0.535,0.304-0.53,0.609l-0.416,0.363c-0.418-0.43-0.889-0.813-1.408-1.139l-0.404,0.641
						c1.134,0.715,2.021,1.726,2.563,2.925l0.69-0.313c-0.251-0.554-0.567-1.072-0.942-1.545l0.402-0.351
						C272.065,465.423,272.129,465.426,272.194,465.418z"/>
					<path id="XMLID_503_" d="M265.044,473.079c-0.386,0.023-0.775,0.035-1.157,0.035c-0.88,0-1.733-0.061-2.478-0.179
						c-0.39-0.062-0.846-0.155-1.27-0.292c1.046,1.861,3.069,3.125,5.388,3.125c2.855,0,5.262-1.916,5.95-4.504
						c-0.682,0.449-1.505,0.825-2.459,1.123C267.839,472.754,266.463,472.994,265.044,473.079z"/>
					<path id="XMLID_499_" d="M265.592,464.387c-3.352,0-6.08,2.666-6.08,5.943c0,0.426,0.046,0.849,0.137,1.261
						c0.673,0.483,2.706,0.89,5.348,0.731c2.879-0.173,5.297-0.957,6.672-2.159c-0.006-0.195-0.021-0.39-0.045-0.582
						C271.244,466.62,268.65,464.387,265.592,464.387z M263.432,470.902c-1.02,0-1.85-0.83-1.85-1.85c0-1.02,0.83-1.85,1.85-1.85
						c1.02,0,1.85,0.83,1.85,1.85C265.282,470.072,264.452,470.902,263.432,470.902z M268.17,469.993c-0.75,0-1.36-0.61-1.36-1.36
						c0-0.75,0.61-1.361,1.36-1.361c0.75,0,1.361,0.61,1.361,1.361C269.53,469.383,268.92,469.993,268.17,469.993z"/>
				</g>
				<path id="XMLID_496_" d="M281.595,466.254c-0.295-0.116-0.805-0.309-1.382-0.237c-0.551,0.069-0.844,0.341-0.844,1.007v0.866
					h2.228v1.717h-2.228v5.455h-1.932v-5.455h-1.34v-1.717h1.34v-0.888c0-1.68,0.896-2.783,2.568-2.783
					c0.643,0,1.157,0.122,1.59,0.308L281.595,466.254z"/>
				<path id="XMLID_494_" d="M286.298,469.586c-0.177-0.03-0.358-0.046-0.526-0.046c-0.896,0-1.51,0.548-1.51,1.613v3.908h-1.932
					v-7.172h1.873v0.785c0.451-0.673,1.14-0.977,2.021-0.977c0.414,0,0.848,0.128,1.094,0.337L286.298,469.586z"/>
				<path id="XMLID_491_" d="M293.965,471.464c0,0.222-0.015,0.489-0.037,0.651h-5.085c0.207,1.036,0.933,1.488,1.843,1.488
					c0.622,0,1.295-0.252,1.813-0.688l1.133,1.243c-0.814,0.748-1.85,1.088-3.057,1.088c-2.198,0-3.723-1.495-3.723-3.753
					c0-2.258,1.48-3.797,3.627-3.797C292.544,467.697,293.958,469.229,293.965,471.464z M288.851,470.798h3.175
					c-0.177-0.918-0.733-1.436-1.562-1.436C289.554,469.362,289.021,469.91,288.851,470.798z"/>
				<path id="XMLID_488_" d="M301.618,471.464c0,0.222-0.015,0.489-0.037,0.651h-5.085c0.207,1.036,0.933,1.488,1.843,1.488
					c0.622,0,1.295-0.252,1.814-0.688l1.132,1.243c-0.814,0.748-1.85,1.088-3.057,1.088c-2.198,0-3.723-1.495-3.723-3.753
					c0-2.258,1.48-3.797,3.627-3.797C300.197,467.697,301.611,469.229,301.618,471.464z M296.504,470.798h3.175
					c-0.178-0.918-0.733-1.436-1.562-1.436C297.207,469.362,296.674,469.91,296.504,470.798z"/>
				<path id="XMLID_485_" d="M309.964,471.472c0,2.154-1.495,3.775-3.471,3.775c-0.962,0-1.643-0.378-2.109-0.933v3.708h-1.924
					v-10.133h1.887v0.792c0.466-0.585,1.155-0.984,2.139-0.984C308.469,467.697,309.964,469.318,309.964,471.472z M304.287,471.472
					c0,1.132,0.748,1.976,1.843,1.976c1.14,0,1.85-0.881,1.85-1.976c0-1.095-0.71-1.976-1.85-1.976
					C305.035,469.495,304.287,470.339,304.287,471.472z"/>
				<path id="XMLID_482_" d="M313.068,465.543c0,0.696-0.54,1.229-1.236,1.229c-0.696,0-1.229-0.533-1.229-1.229
					c0-0.696,0.533-1.243,1.229-1.243C312.527,464.3,313.068,464.847,313.068,465.543z M312.809,475.061h-1.932v-7.172h1.932
					V475.061z"/>
				<path id="XMLID_480_" d="M316.032,470.443l2.701-2.554h2.368l-3.479,3.375l3.501,3.797h-2.376l-2.716-2.901v2.901H314.1v-10.658
					h1.932V470.443z"/>
			</g>
			<g id="XMLID_451_">
				<path id="XMLID_476_" d="M184.412,474.996v-1.055c-0.527,0.718-1.391,1.23-2.387,1.23c-1.846,0-3.149-1.406-3.149-3.706
					c0-2.256,1.289-3.721,3.149-3.721c0.952,0,1.816,0.469,2.387,1.245v-3.765h1.099v9.77H184.412z M184.412,473.077v-3.208
					c-0.395-0.615-1.245-1.143-2.124-1.143c-1.421,0-2.27,1.172-2.27,2.739c0,1.567,0.85,2.724,2.27,2.724
					C183.168,474.191,184.017,473.693,184.412,473.077z"/>
				<path id="XMLID_473_" d="M186.932,471.452c0-2.051,1.465-3.706,3.486-3.706c2.139,0,3.398,1.67,3.398,3.794v0.279h-5.727
					c0.088,1.333,1.025,2.446,2.549,2.446c0.805,0,1.626-0.322,2.182-0.893l0.527,0.718c-0.703,0.703-1.655,1.084-2.812,1.084
					C188.44,475.172,186.932,473.663,186.932,471.452z M190.403,468.654c-1.509,0-2.256,1.274-2.314,2.358h4.643
					C192.718,469.957,192.015,468.654,190.403,468.654z"/>
				<path id="XMLID_471_" d="M194.607,474.059l0.571-0.791c0.469,0.542,1.362,1.011,2.329,1.011c1.084,0,1.67-0.513,1.67-1.216
					c0-1.714-4.38-0.659-4.38-3.281c0-1.098,0.952-2.036,2.636-2.036c1.201,0,2.051,0.454,2.622,1.025l-0.513,0.762
					c-0.424-0.513-1.201-0.894-2.109-0.894c-0.967,0-1.567,0.483-1.567,1.113c0,1.552,4.38,0.527,4.38,3.281
					c0,1.187-0.952,2.138-2.783,2.138C196.306,475.172,195.325,474.82,194.607,474.059z"/>
				<path id="XMLID_468_" d="M201.477,466.178c0-0.41,0.337-0.747,0.732-0.747c0.41,0,0.747,0.337,0.747,0.747
					c0,0.41-0.337,0.732-0.747,0.732C201.814,466.91,201.477,466.589,201.477,466.178z M201.667,474.996v-7.075h1.099v7.075H201.667
					z"/>
				<path id="XMLID_465_" d="M204.582,476.813l0.556-0.82c0.586,0.703,1.289,0.967,2.3,0.967c1.172,0,2.27-0.571,2.27-2.124v-1.011
					c-0.513,0.718-1.377,1.26-2.373,1.26c-1.845,0-3.149-1.377-3.149-3.662c0-2.27,1.289-3.676,3.149-3.676
					c0.952,0,1.802,0.469,2.373,1.245v-1.069h1.098v6.87c0,2.344-1.641,3.076-3.369,3.076
					C206.237,477.867,205.417,477.633,204.582,476.813z M209.709,472.96v-3.091c-0.381-0.615-1.23-1.143-2.109-1.143
					c-1.421,0-2.27,1.128-2.27,2.695c0,1.553,0.849,2.695,2.27,2.695C208.478,474.117,209.328,473.576,209.709,472.96z"/>
				<path id="XMLID_463_" d="M217.413,474.996v-4.629c0-1.245-0.63-1.641-1.582-1.641c-0.865,0-1.685,0.527-2.095,1.099v5.17h-1.099
					v-7.075h1.099v1.025c0.498-0.586,1.464-1.201,2.519-1.201c1.48,0,2.256,0.747,2.256,2.285v4.966H217.413z"/>
				<path id="XMLID_460_" d="M219.932,471.452c0-2.051,1.465-3.706,3.486-3.706c2.139,0,3.398,1.67,3.398,3.794v0.279h-5.727
					c0.088,1.333,1.025,2.446,2.549,2.446c0.806,0,1.626-0.322,2.183-0.893l0.527,0.718c-0.703,0.703-1.655,1.084-2.812,1.084
					C221.441,475.172,219.932,473.663,219.932,471.452z M223.404,468.654c-1.509,0-2.256,1.274-2.314,2.358h4.643
					C225.718,469.957,225.015,468.654,223.404,468.654z"/>
				<path id="XMLID_457_" d="M233.35,474.996v-1.055c-0.527,0.718-1.392,1.23-2.388,1.23c-1.846,0-3.149-1.406-3.149-3.706
					c0-2.256,1.289-3.721,3.149-3.721c0.952,0,1.817,0.469,2.388,1.245v-3.765h1.098v9.77H233.35z M233.35,473.077v-3.208
					c-0.396-0.615-1.245-1.143-2.124-1.143c-1.421,0-2.27,1.172-2.27,2.739c0,1.567,0.849,2.724,2.27,2.724
					C232.105,474.191,232.954,473.693,233.35,473.077z"/>
				<path id="XMLID_454_" d="M239.692,474.996v-9.77h1.098v3.765c0.572-0.776,1.421-1.245,2.388-1.245
					c1.845,0,3.149,1.465,3.149,3.721c0,2.299-1.304,3.706-3.149,3.706c-0.996,0-1.86-0.513-2.388-1.23v1.055H239.692z
					 M242.9,474.191c1.436,0,2.285-1.157,2.285-2.724c0-1.568-0.85-2.739-2.285-2.739c-0.864,0-1.728,0.527-2.109,1.143v3.208
					C241.171,473.693,242.036,474.191,242.9,474.191z"/>
				<path id="XMLID_452_" d="M247.528,476.769c0.161,0.073,0.425,0.117,0.601,0.117c0.483,0,0.805-0.161,1.055-0.747l0.469-1.069
					l-2.959-7.148h1.187l2.358,5.801l2.344-5.801h1.201l-3.545,8.51c-0.425,1.025-1.143,1.421-2.08,1.435
					c-0.234,0-0.601-0.044-0.805-0.103L247.528,476.769z"/>
			</g>
		</g>
	</g>
</g>
</svg>
