<?xml version="1.0"?>
<svg width="2000" height="2000" xmlns="http://www.w3.org/2000/svg" xmlns:svg="http://www.w3.org/2000/svg" enable-background="new 0 0 2000 2000" version="1.1" xml:space="preserve">
 <g class="layer">
  <title>Layer 1</title>
  <g id="svg_147" transform="matrix(1 0 0 1 0 0)">
   <g id="svg_148">
    <g id="svg_149">
     <path d="m1299.59,847.78c-13.89,0 -26.05,-7.22 -32.5,-17.91c-2.19,1.28 -4.41,2.49 -6.66,3.63c-17.17,8.74 -36.15,13.17 -56.41,13.17c-26.27,0 -50.27,-6.12 -71.33,-18.19c-21.05,-12.06 -37.73,-29 -49.58,-50.38c-11.62,-20.95 -17.51,-44.95 -17.51,-71.33c0,-26.04 5.79,-49.79 17.22,-70.57c11.65,-21.19 28.15,-38.06 49.04,-50.16c20.92,-12.1 44.85,-18.23 71.17,-18.23c20.55,0 39.74,4.4 57.06,13.11c2.36,1.19 4.68,2.45 6.96,3.79c6.46,-10.77 18.63,-18.02 32.54,-18.02l4.42,0c20.64,0 37.44,15.95 37.44,35.55l0,209.99c0,19.61 -16.8,35.55 -37.44,35.55l-4.42,0zm-96.56,-207.51c-11.17,0 -20.75,2.56 -29.3,7.83c-8.83,5.43 -15.62,12.88 -20.77,22.77c-5.34,10.29 -8.06,22.36 -8.06,35.9c0,13.88 2.73,26.23 8.11,36.69c5.15,10.01 11.92,17.5 20.71,22.92c8.56,5.27 18.14,7.83 29.31,7.83c11.54,0 21.41,-2.58 30.15,-7.9c8.91,-5.41 15.72,-12.88 20.85,-22.85c5.38,-10.46 8.11,-22.65 8.11,-36.22c0,-13.57 -2.73,-25.76 -8.11,-36.23c-5.13,-9.96 -11.95,-17.43 -20.85,-22.84c-8.75,-5.32 -18.61,-7.9 -30.15,-7.9z" fill="#FFFFFF" id="svg_150"/>
    </g>
   </g>
   <g id="svg_151">
    <defs>
     <rect height="289.74" id="SVGID_00000145055760983934210000000008668704217904539834_" width="284.96" x="1061.04" y="562.36"/>
    </defs>
    <clipPath id="SVGID_00000147214115489618289420000007515943028007680686_">
     <use href="#SVGID_00000145055760983934210000000008668704217904539834_" id="svg_152" overflow="visible"/>
    </clipPath>
    <g clip-path="url(#SVGID_00000147214115489618289420000007515943028007680686_)" id="svg_153">
     <g id="svg_154">
      <g id="svg_155">
       <path d="m1304.01,566.69c20.64,0 37.44,15.95 37.44,35.55l0,209.99c0,19.61 -16.8,35.55 -37.44,35.55l-4.42,0c-13.89,0 -26.05,-7.22 -32.5,-17.91c-2.18,1.28 -4.41,2.49 -6.66,3.63c-17.17,8.74 -36.15,13.17 -56.41,13.17c-26.27,0 -50.27,-6.12 -71.33,-18.19c-21.05,-12.06 -37.73,-29 -49.58,-50.38c-11.62,-20.95 -17.51,-44.95 -17.51,-71.33c0,-26.04 5.8,-49.79 17.23,-70.57c11.64,-21.19 28.15,-38.06 49.03,-50.16c20.92,-12.1 44.85,-18.23 71.17,-18.23c20.55,0 39.74,4.4 57.06,13.11c2.36,1.19 4.68,2.45 6.96,3.79c6.46,-10.77 18.63,-18.02 32.54,-18.02l4.42,0m-100.98,207.52c11.54,0 21.41,-2.58 30.15,-7.9c8.91,-5.41 15.72,-12.88 20.85,-22.85c5.38,-10.46 8.11,-22.65 8.11,-36.22c0,-13.57 -2.73,-25.76 -8.11,-36.23c-5.13,-9.96 -11.95,-17.43 -20.85,-22.84c-8.75,-5.32 -18.61,-7.9 -30.15,-7.9c-11.17,0 -20.75,2.56 -29.3,7.83c-8.83,5.43 -15.62,12.88 -20.77,22.77c-5.34,10.29 -8.06,22.36 -8.06,35.9c0,13.88 2.73,26.23 8.11,36.69c5.15,10.01 11.92,17.5 20.71,22.92c8.56,5.26 18.14,7.83 29.31,7.83m100.98,-211.84l-4.42,0c-7.54,0 -14.94,1.92 -21.4,5.58c-4.93,2.78 -9.22,6.51 -12.58,10.91c-1.13,-0.6 -2.26,-1.19 -3.39,-1.77c-17.98,-9.03 -37.89,-13.61 -59.19,-13.61c-27.16,0 -51.9,6.35 -73.54,18.87c-21.6,12.51 -38.66,29.95 -50.7,51.85c-11.78,21.41 -17.75,45.82 -17.75,72.57c0,27.08 6.07,51.76 18.04,73.35c12.24,22.07 29.48,39.59 51.25,52.06c21.79,12.49 46.57,18.82 73.69,18.82c21.02,0 40.72,-4.61 58.56,-13.68c1.03,-0.53 2.06,-1.07 3.07,-1.61c3.37,4.36 7.65,8.07 12.58,10.85c6.45,3.62 13.83,5.55 21.36,5.55l4.42,0c23.15,0 41.99,-17.89 41.99,-39.88l0,-209.99c0,-21.98 -18.84,-39.87 -41.99,-39.87zm-100.98,207.51c-10.26,0 -19.04,-2.33 -26.82,-7.13c-8.08,-4.97 -14.33,-11.9 -19.11,-21.19c-5.07,-9.87 -7.65,-21.57 -7.65,-34.79c0,-12.86 2.56,-24.29 7.6,-33.98c4.77,-9.18 11.04,-16.07 19.16,-21.07c7.79,-4.79 16.56,-7.13 26.81,-7.13c10.65,0 19.72,2.36 27.71,7.22c8.17,4.96 14.45,11.87 19.21,21.1c5.08,9.87 7.65,21.42 7.65,34.32c0,12.92 -2.57,24.46 -7.65,34.33c-4.75,9.24 -11.03,16.13 -19.21,21.1c-7.99,4.86 -17.05,7.22 -27.7,7.22z" id="svg_156"/>
      </g>
     </g>
    </g>
   </g>
   <g id="svg_157">
    <g id="svg_158">
     <path d="m1303.13,807.4l-2.28,0l0,-8.66l2.28,0l0,8.66zm0,-17.3l-2.28,0l0,-8.65l2.28,0l0,8.65zm0,-17.31l-2.28,0l0,-8.64l2.28,0l0,8.64zm0,-17.3l-2.28,0l0,-8.64l2.28,0l0,8.64zm0,-17.29l-2.28,0l0,-8.66l2.28,0l0,8.66zm0,-17.3l-2.28,0l0,-8.65l2.28,0l0,8.65zm0,-17.3l-2.28,0l0,-8.65l2.28,0l0,8.65zm0,-17.3l-2.28,0l0,-8.65l2.28,0l0,8.65zm0,-17.3l-2.28,0l0,-8.65l2.28,0l0,8.65zm0,-17.3l-2.28,0l0,-8.65l2.28,0l0,8.65zm0,-17.3l-2.28,0l0,-8.65l2.28,0l0,8.65zm0,-17.29l-2.28,0l0,-8.66l2.28,0l0,8.66zm0,-17.31l-2.28,0l0,-4.34l2.28,0l0,4.34z" fill="#59595C" id="svg_159"/>
    </g>
   </g>
   <g id="svg_160">
    <g id="svg_161">
     <path d="m1203.04,811.14l-0.01,-2.16c3.02,-0.01 6.04,-0.13 9.01,-0.37l0.2,2.14c-3.04,0.26 -6.13,0.38 -9.2,0.39zm-9.19,-0.32c-3.1,-0.23 -6.18,-0.58 -9.14,-1.05l0.38,-2.13c2.89,0.46 5.9,0.8 8.94,1.03l-0.18,2.15zm27.51,-1.19l-0.4,-2.13c2.97,-0.49 5.93,-1.11 8.79,-1.85l0.59,2.09c-2.93,0.75 -5.95,1.39 -8.98,1.89zm-45.66,-1.7c-2.97,-0.76 -5.93,-1.66 -8.78,-2.69l0.81,-2.02c2.78,1 5.66,1.88 8.56,2.62l-0.59,2.09zm63.41,-2.87l-0.8,-2.02c2.81,-1.01 5.59,-2.15 8.25,-3.4l1.01,1.95c-2.72,1.27 -5.57,2.44 -8.46,3.47zm-80.62,-3.35c-2.16,-1.03 -4.32,-2.17 -6.42,-3.37c-0.53,-0.32 -1.07,-0.63 -1.6,-0.95l1.22,-1.83c0.52,0.31 1.04,0.62 1.57,0.93c2.04,1.17 4.15,2.28 6.25,3.29l-1.02,1.93zm97.12,-4.4l-1.21,-1.83c2.54,-1.52 5,-3.18 7.33,-4.93l1.42,1.7c-2.39,1.8 -4.93,3.5 -7.54,5.06zm-112.68,-4.96c-2.42,-1.79 -4.77,-3.72 -6.98,-5.72l1.58,-1.56c2.15,1.95 4.44,3.83 6.8,5.57l-1.4,1.71zm127.12,-5.91l-1.6,-1.54c2.12,-2 4.14,-4.13 6.01,-6.33l1.78,1.36c-1.93,2.27 -4.01,4.46 -6.19,6.51zm-140.43,-6.17c-1.96,-2.19 -3.85,-4.52 -5.63,-6.92l1.86,-1.24c1.74,2.35 3.59,4.62 5.5,6.75l-1.73,1.41zm151.99,-7.47l-1.92,-1.16c1.6,-2.37 3.08,-4.88 4.4,-7.43l2.04,0.95c-1.36,2.63 -2.88,5.2 -4.52,7.64zm-162.57,-6.83c-0.8,-1.32 -1.6,-2.69 -2.35,-4.08c-0.67,-1.2 -1.31,-2.42 -1.92,-3.65l2.06,-0.92c0.6,1.2 1.23,2.4 1.87,3.57c0.75,1.36 1.52,2.7 2.32,4l-1.98,1.08zm-7.83,-15.79c-1.06,-2.69 -2.01,-5.48 -2.86,-8.3l2.2,-0.58c0.82,2.75 1.76,5.49 2.79,8.13l-2.13,0.75zm-5.03,-16.78c-0.59,-2.79 -1.1,-5.69 -1.5,-8.6l2.26,-0.28c0.39,2.86 0.89,5.71 1.48,8.46l-2.24,0.42zm-2.39,-17.28c-0.2,-2.84 -0.31,-5.77 -0.33,-8.7l2.28,-0.01c0.01,2.88 0.13,5.77 0.32,8.57l-2.27,0.14zm2.18,-17.29l-2.28,-0.12c0.18,-2.93 0.45,-5.85 0.82,-8.69l2.26,0.27c-0.36,2.78 -0.64,5.66 -0.8,8.54zm2.23,-17.01l-2.24,-0.42c0.6,-2.88 1.31,-5.74 2.12,-8.5l2.19,0.58c-0.79,2.71 -1.49,5.52 -2.07,8.34zm4.84,-16.48l-2.14,-0.75c1.07,-2.74 2.26,-5.45 3.56,-8.07l2.06,0.92c-1.27,2.56 -2.44,5.22 -3.48,7.9zm7.65,-15.48l-1.97,-1.08c1.55,-2.55 3.21,-5.04 4.94,-7.38l1.87,1.25c-1.69,2.28 -3.32,4.71 -4.84,7.21zm10.34,-13.98l-1.74,-1.4c2,-2.22 4.13,-4.37 6.32,-6.37l1.59,1.56c-2.15,1.95 -4.22,4.04 -6.17,6.21zm12.95,-11.8l-1.4,-1.71c2.38,-1.77 4.91,-3.48 7.52,-5.05l1.22,1.82c-2.54,1.54 -5.01,3.2 -7.34,4.94zm118.18,-0.49c-0.18,-0.13 -0.36,-0.26 -0.55,-0.39l1.37,-1.73c0.19,0.13 0.38,0.26 0.56,0.4l-1.38,1.72zm-8,-5.18c-0.21,-0.12 -0.42,-0.25 -0.64,-0.37c-2.37,-1.34 -4.81,-2.6 -7.25,-3.71l0.98,-1.95c2.51,1.15 5.02,2.43 7.44,3.8c0.22,0.13 0.44,0.26 0.66,0.38l-1.19,1.85zm-95.04,-3.52l-1.03,-1.93c2.73,-1.32 5.57,-2.52 8.42,-3.57l0.82,2.02c-2.78,1.01 -5.53,2.18 -8.21,3.48zm78.86,-3.88c-2.79,-0.96 -5.68,-1.81 -8.6,-2.52l0.57,-2.09c2.99,0.72 5.95,1.59 8.8,2.58l-0.77,2.03zm-62.11,-2.26l-0.6,-2.09c2.92,-0.76 5.95,-1.39 9,-1.89l0.38,2.13c-2.98,0.49 -5.93,1.1 -8.78,1.85zm44.69,-1.98c-2.89,-0.43 -5.91,-0.76 -8.94,-0.98l0.16,-2.15c3.1,0.22 6.18,0.55 9.14,1l-0.36,2.13zm-26.97,-0.93l-0.19,-2.15c2.98,-0.23 6.07,-0.35 9.19,-0.35l0.01,2.16c-3.06,0 -6.09,0.12 -9.01,0.34z" fill="#59595C" id="svg_162"/>
    </g>
   </g>
   <g id="svg_163">
    <g id="svg_164">
     <path d="m1301.99,820.73l9.32,-15.33l-18.64,0l9.32,15.33z" fill="#59595C" id="svg_165"/>
    </g>
   </g>
   <g id="svg_166">
    <g id="svg_167">
     <path d="m1290.63,772.33l0,-17.71l-16.15,8.85l16.15,8.86z" fill="#59595C" id="svg_168"/>
    </g>
   </g>
   <g id="svg_172">
    <g id="svg_173">
     <path d="m1253.03,603.24l-2.64,0c-0.3,0 -0.59,0.12 -0.78,0.34l-7.79,8.65c-0.35,0.39 -0.33,0.96 0.06,1.32l1.47,1.41c0.4,0.38 1.05,0.38 1.45,0l4.56,-4.28l0,18.75c0,0.54 0.46,0.98 1.03,0.98l2.64,0c0.57,0 1.03,-0.44 1.03,-0.98l0,-25.22c0,-0.53 -0.46,-0.97 -1.03,-0.97z" fill="#FCFDFF" id="svg_174"/>
    </g>
   </g>
   <g id="svg_178">
    <g id="svg_179">
     <path d="m1310.18,621.62l-11.59,0c0.16,-0.27 0.36,-0.53 0.63,-0.82c0.73,-0.76 1.9,-1.77 3.47,-3.01l-0.02,-0.02c0.25,-0.15 0.51,-0.36 0.81,-0.61c2.23,-1.79 4.02,-3.55 5.31,-5.24c1.37,-1.78 2.06,-3.84 2.06,-6.11c0,-2.25 -0.81,-4.08 -2.4,-5.44c-1.57,-1.33 -3.66,-2.01 -6.22,-2.01c-1.79,0 -3.54,0.42 -5.21,1.26c-1.64,0.83 -3.05,1.99 -4.18,3.46c-0.32,0.42 -0.25,0.99 0.16,1.32l2.14,1.74c0.22,0.17 0.49,0.26 0.79,0.22c0.28,-0.03 0.53,-0.17 0.7,-0.38c0.82,-1.05 1.71,-1.85 2.65,-2.4c1.8,-1.03 4.31,-1.02 5.6,0.08c0.62,0.54 0.93,1.24 0.93,2.15c0,1.51 -0.4,2.81 -1.23,3.96c-0.88,1.23 -2.13,2.5 -3.77,3.82c-0.09,0.07 -0.52,0.4 -1.29,1c-1.34,1.06 -2.44,1.98 -3.26,2.74c-0.85,0.8 -1.57,1.71 -2.15,2.71c-0.61,1.06 -0.92,2.23 -0.92,3.48l0,1.59c0,0.54 0.46,0.97 1.02,0.97l15.97,0c0.57,0 1.02,-0.43 1.02,-0.97l0,-2.52c0,-0.54 -0.45,-0.97 -1.02,-0.97z" fill="#FCFDFF" id="svg_180"/>
    </g>
   </g>
  </g>
 </g>
</svg>