<?xml version="1.0"?>
<svg width="2000" height="2000" xmlns="http://www.w3.org/2000/svg" xmlns:svg="http://www.w3.org/2000/svg" enable-background="new 0 0 2000 2000" version="1.1" xml:space="preserve">
 <g class="layer">
  <title>Layer 1</title>
  <g id="svg_147" transform="matrix(1 0 0 1 0 0)">
   <g id="svg_181">
    <g id="svg_182">
     <path d="m987.83,847.93c-21.14,0 -40.22,-12.66 -47.5,-31.52l-33.53,-86.91l-143.31,0l-29.66,85.43c-6.86,19.74 -26.17,33 -48.04,33l-3.04,0c-16.41,0 -31.86,-7.6 -41.32,-20.33c-9.47,-12.74 -11.85,-29.11 -6.36,-43.8l140.12,-375.13c8.7,-23.31 32.04,-38.97 58.07,-38.97c25.78,0 49.05,15.46 57.89,38.47l144.21,375.21c5.66,14.73 3.39,31.19 -6.07,44.04c-9.45,12.84 -24.96,20.51 -41.46,20.51zm-117.47,-212.21l-37.04,-95.49l-34.93,95.49l71.97,0z" fill="#FFFFFF" id="svg_183"/>
    </g>
   </g>
   <g id="svg_184">
    <defs>
     <rect height="487.18" id="SVGID_00000008849599340937296760000004719184787109550759_" width="417.76" x="627.14" y="365.22"/>
    </defs>
    <clipPath id="SVGID_00000003104244636410769530000001162379861342400152_">
     <use href="#SVGID_00000008849599340937296760000004719184787109550759_" id="svg_185" overflow="visible"/>
    </clipPath>
    <g clip-path="url(#SVGID_00000003104244636410769530000001162379861342400152_)" id="svg_186">
     <g id="svg_187">
      <g id="svg_188">
       <path d="m833.27,369.7c25.78,0 49.05,15.46 57.89,38.47l144.2,375.21c5.66,14.73 3.39,31.19 -6.07,44.04c-9.45,12.84 -24.96,20.51 -41.46,20.51c-21.14,0 -40.22,-12.66 -47.5,-31.52l-33.53,-86.91l-143.3,0l-29.67,85.43c-6.86,19.74 -26.17,33 -48.04,33l-3.04,0c-16.41,0 -31.86,-7.6 -41.32,-20.33c-9.47,-12.74 -11.85,-29.11 -6.36,-43.8l140.12,-375.13c8.71,-23.31 32.04,-38.97 58.08,-38.97m-34.88,266.02l71.97,0l-37.04,-95.49l-34.93,95.49m34.88,-270.5c-28.03,0 -53.15,16.86 -62.53,41.95l-140.11,375.13c-6,16.06 -3.4,33.96 6.95,47.89c10.34,13.91 27.23,22.22 45.17,22.22l3.04,0c23.91,0 45.02,-14.5 52.52,-36.08l28.59,-82.35l136.6,0l32.41,83.97c7.94,20.62 28.81,34.47 51.92,34.47c18.04,0 34.99,-8.39 45.33,-22.43c10.34,-14.05 12.81,-32.04 6.63,-48.14l-144.2,-375.22c-9.53,-24.77 -34.57,-41.41 -62.32,-41.41zm-28.24,266.02l28.41,-77.72l30.15,77.72l-58.56,0z" id="svg_189"/>
      </g>
     </g>
    </g>
   </g>
   <g id="svg_190">
    <g id="svg_191">
     <path d="m915.89,683.74l-9.43,0l0,-2.25l9.43,0l0,2.25zm-18.87,0l-9.43,0l0,-2.25l9.43,0l0,2.25zm-18.87,0l-9.43,0l0,-2.25l9.43,0l0,2.25zm-18.87,0l-9.43,0l0,-2.25l9.43,0l0,2.25zm-18.86,0l-9.43,0l0,-2.25l9.43,0l0,2.25zm-18.87,0l-9.43,0l0,-2.25l9.43,0l0,2.25zm-18.86,0l-9.43,0l0,-2.25l9.43,0l0,2.25zm-18.86,0l-9.44,0l0,-2.25l9.44,0l0,2.25z" fill="#59595C" id="svg_192"/>
    </g>
   </g>
   <g id="svg_193">
    <g id="svg_194">
     <path d="m930.93,682.38l-16.72,-9.17l0,18.33l16.72,-9.16z" fill="#59595C" id="svg_195"/>
    </g>
   </g>
   <g id="svg_196">
    <g id="svg_197">
     <path d="m992.23,812.16l-3.23,-8.42l2.21,-0.77l3.24,8.42l-2.22,0.77zm-6.47,-16.84l-3.23,-8.42l2.21,-0.77l3.24,8.42l-2.22,0.77zm-6.47,-16.83l-3.23,-8.42l2.21,-0.77l3.24,8.42l-2.22,0.77zm-6.46,-16.84l-3.24,-8.42l2.22,-0.77l3.23,8.42l-2.21,0.77zm-6.47,-16.83l-3.24,-8.42l2.22,-0.77l3.23,8.42l-2.21,0.77zm-6.48,-16.84l-3.23,-8.42l2.22,-0.77l3.23,8.42l-2.22,0.77zm-6.47,-16.84l-3.23,-8.42l2.21,-0.77l3.24,8.42l-2.22,0.77zm-6.47,-16.83l-3.23,-8.42l2.21,-0.77l3.24,8.42l-2.22,0.77zm-6.47,-16.84l-3.23,-8.42l2.21,-0.76l3.24,8.41l-2.22,0.77zm-6.47,-16.84l-3.24,-8.41l2.22,-0.77l3.24,8.42l-2.22,0.76zm-6.47,-16.83l-3.23,-8.42l2.21,-0.77l3.23,8.42l-2.21,0.77zm-6.46,-16.84l-3.24,-8.41l2.22,-0.78l3.22,8.42l-2.2,0.77zm-6.48,-16.83l-3.23,-8.42l2.21,-0.77l3.24,8.42l-2.22,0.77zm-6.47,-16.84l-3.23,-8.42l2.21,-0.76l3.24,8.41l-2.22,0.77zm-6.47,-16.84l-3.24,-8.42l2.22,-0.76l3.24,8.42l-2.22,0.76zm-6.47,-16.83l-3.24,-8.42l2.22,-0.77l3.24,8.42l-2.22,0.77zm-6.47,-16.84l-3.24,-8.41l2.22,-0.77l3.23,8.41l-2.21,0.77zm-6.47,-16.83l-3.24,-8.42l2.22,-0.77l3.23,8.42l-2.21,0.77zm-6.47,-16.84l-3.23,-8.42l2.21,-0.76l3.23,8.42l-2.21,0.76zm-6.47,-16.84l-3.23,-8.41l2.21,-0.77l3.23,8.42l-2.21,0.76zm-6.47,-16.83l-2.71,-7.07l2.21,-0.76l2.72,7.06l-2.22,0.77z" fill="#59595C" id="svg_198"/>
    </g>
   </g>
   <g id="svg_199">
    <g id="svg_200">
     <path d="m819.15,434.21l1.58,-4.22l2.22,0.75l-1.58,4.23l-2.22,-0.76z" fill="#59595C" id="svg_201"/>
    </g>
   </g>
   <g id="svg_202">
    <g id="svg_203">
     <path d="m685.22,799.44l-2.22,-0.74l3.1,-8.29l2.22,0.75l-3.1,8.28zm6.19,-16.56l-2.22,-0.75l3.1,-8.29l2.22,0.75l-3.1,8.29zm6.19,-16.57l-2.22,-0.76l3.1,-8.28l2.22,0.75l-3.1,8.29zm6.19,-16.57l-2.22,-0.75l3.09,-8.28l2.22,0.75l-3.09,8.28zm6.19,-16.57l-2.23,-0.75l3.1,-8.28l2.22,0.75l-3.09,8.28zm6.19,-16.57l-2.23,-0.74l3.1,-8.28l2.22,0.74l-3.09,8.28zm6.19,-16.56l-2.23,-0.75l3.1,-8.29l2.22,0.76l-3.09,8.28zm6.18,-16.57l-2.22,-0.75l3.09,-8.28l2.22,0.75l-3.09,8.28zm6.19,-16.57l-2.23,-0.74l3.1,-8.29l2.22,0.75l-3.09,8.28zm6.19,-16.56l-2.22,-0.75l3.09,-8.29l2.22,0.75l-3.09,8.29zm6.19,-16.57l-2.23,-0.75l3.1,-8.28l2.22,0.75l-3.09,8.28zm6.19,-16.56l-2.22,-0.76l3.09,-8.28l2.22,0.75l-3.09,8.29zm6.18,-16.57l-2.22,-0.76l3.09,-8.28l2.23,0.75l-3.1,8.29zm6.19,-16.57l-2.22,-0.75l3.09,-8.28l2.23,0.75l-3.1,8.28zm6.19,-16.57l-2.22,-0.75l3.09,-8.29l2.23,0.76l-3.1,8.28zm6.19,-16.57l-2.22,-0.75l3.08,-8.28l2.23,0.75l-3.09,8.28zm6.18,-16.56l-2.22,-0.75l3.1,-8.29l2.22,0.75l-3.1,8.29zm6.19,-16.57l-2.22,-0.75l3.1,-8.29l2.22,0.75l-3.1,8.29zm6.19,-16.57l-2.22,-0.74l3.1,-8.29l2.22,0.75l-3.1,8.28zm6.19,-16.56l-2.22,-0.76l3.1,-8.28l2.22,0.75l-3.1,8.29zm6.19,-16.57l-2.23,-0.75l3.1,-8.28l2.22,0.74l-3.09,8.29zm6.18,-16.57l-2.22,-0.75l3.1,-8.28l2.22,0.75l-3.1,8.28z" fill="#59595C" id="svg_204"/>
    </g>
   </g>
   <g id="svg_205">
    <g id="svg_206">
     <path d="m678.33,811.21l1.58,-4.22l2.22,0.75l-1.58,4.22l-2.22,-0.75z" fill="#59595C" id="svg_207"/>
    </g>
   </g>
   <g id="svg_211">
    <g id="svg_212">
     <path d="m826.8,403l-3.04,0c-0.35,0 -0.68,0.15 -0.9,0.4l-8.96,9.95c-0.4,0.45 -0.38,1.11 0.06,1.53l1.7,1.62c0.47,0.43 1.2,0.43 1.67,0l5.24,-4.92l0,21.58c0,0.61 0.53,1.12 1.19,1.12l3.04,0c0.65,0 1.18,-0.51 1.18,-1.12l0,-29.03c0,-0.63 -0.53,-1.13 -1.18,-1.13z" fill="#FCFDFF" id="svg_213"/>
    </g>
   </g>
   <g id="svg_217">
    <g id="svg_218">
     <path d="m864.36,474.18l-13.33,0c0.17,-0.3 0.41,-0.61 0.72,-0.93c0.83,-0.88 2.17,-2.05 3.99,-3.47l-0.02,-0.02c0.27,-0.18 0.58,-0.42 0.93,-0.71c2.56,-2.06 4.62,-4.09 6.1,-6.02c1.58,-2.06 2.38,-4.43 2.38,-7.05c0,-2.59 -0.94,-4.69 -2.76,-6.26c-1.8,-1.53 -4.22,-2.31 -7.16,-2.31c-2.07,0 -4.08,0.49 -6,1.45c-1.89,0.96 -3.51,2.3 -4.81,3.99c-0.36,0.47 -0.28,1.13 0.19,1.52l2.46,1.99c0.25,0.2 0.56,0.31 0.9,0.26c0.33,-0.03 0.62,-0.19 0.81,-0.44c0.95,-1.21 1.98,-2.14 3.06,-2.76c2.06,-1.19 4.95,-1.19 6.43,0.09c0.72,0.62 1.07,1.43 1.07,2.47c0,1.75 -0.46,3.24 -1.41,4.56c-1,1.41 -2.46,2.89 -4.34,4.4c-0.1,0.08 -0.59,0.47 -1.48,1.16c-1.55,1.21 -2.81,2.27 -3.76,3.15c-0.97,0.91 -1.8,1.96 -2.47,3.11c-0.7,1.23 -1.06,2.58 -1.06,4.01l0,1.83c0,0.62 0.53,1.12 1.18,1.12l18.38,0c0.64,0 1.17,-0.5 1.17,-1.12l0,-2.89c0,-0.62 -0.53,-1.13 -1.17,-1.13z" fill="#FCFDFF" id="svg_219"/>
    </g>
   </g>
   <g id="svg_223">
    <g id="svg_224">
     <path d="m778.68,683.78c-0.69,-0.92 -1.51,-1.67 -2.44,-2.25c0.64,-0.5 1.19,-1.11 1.65,-1.82c0.87,-1.34 1.31,-2.91 1.31,-4.65c0,-1.67 -0.4,-3.18 -1.21,-4.5c-0.81,-1.32 -1.95,-2.38 -3.39,-3.12c-1.42,-0.74 -3.04,-1.12 -4.82,-1.12c-2.34,0 -4.42,0.62 -6.2,1.85c-1.75,1.21 -3.11,2.86 -4.07,4.9c-0.24,0.54 -0.02,1.16 0.52,1.44l2.46,1.28c0.29,0.14 0.62,0.18 0.92,0.08c0.31,-0.09 0.56,-0.3 0.7,-0.57c0.7,-1.34 1.53,-2.39 2.46,-3.09c0.87,-0.65 1.92,-0.96 3.21,-0.96c1.14,0 2.04,0.34 2.75,1.04c0.73,0.71 1.09,1.61 1.09,2.77c0,1.31 -0.38,2.34 -1.16,3.14c-0.76,0.77 -1.77,1.15 -3.09,1.15l-1.97,0c-0.64,0 -1.18,0.5 -1.18,1.12l0,2.64c0,0.62 0.54,1.12 1.18,1.12l2.16,0c1.53,0 2.75,0.44 3.73,1.37c0.97,0.93 1.44,2.09 1.44,3.55c0,1.41 -0.46,2.52 -1.41,3.42c-0.96,0.9 -2.14,1.34 -3.59,1.34c-1.23,0 -2.28,-0.33 -3.19,-1.02c-0.96,-0.72 -1.78,-1.74 -2.41,-3.02c-0.15,-0.29 -0.41,-0.5 -0.73,-0.59c-0.31,-0.1 -0.65,-0.06 -0.94,0.1l-2.69,1.49c-0.5,0.28 -0.71,0.87 -0.5,1.39c0.87,2 2.19,3.63 3.95,4.83c1.79,1.21 3.92,1.83 6.37,1.83c1.95,0 3.77,-0.42 5.42,-1.24c1.66,-0.83 2.99,-2.01 3.95,-3.49c0.97,-1.5 1.45,-3.19 1.45,-5.03c0,-2.03 -0.58,-3.84 -1.73,-5.38z" fill="#FCFDFF" id="svg_225"/>
    </g>
   </g>
   <g id="svg_226">
    <g id="svg_227">
     <path d="m676.13,821.68l13.92,-12.71l-18.54,-5.1l4.62,17.81z" fill="#59595C" id="svg_228"/>
    </g>
   </g>
   <g id="svg_229">
    <g id="svg_230">
     <path d="m996.18,821.95l-13.92,-12.71l18.54,-5.1l-4.62,17.81z" fill="#59595C" id="svg_231"/>
    </g>
   </g>
  </g>
 </g>
</svg>