<?xml version="1.0"?>
<svg width="2000" height="2000" xmlns="http://www.w3.org/2000/svg" xmlns:svg="http://www.w3.org/2000/svg" enable-background="new 0 0 2000 2000" version="1.1" xml:space="preserve">
 <g class="layer">
  <title>Layer 1</title>
  <g id="svg_147">
   <path d="m1103.48,873.66c-23.67,0 -42.92,-19.24 -42.92,-42.9l0,-467.61c0,-23.66 19.25,-42.9 42.92,-42.9l5.06,0c23.65,0 42.91,19.24 42.91,42.9l0,189.77c0.79,-0.43 1.57,-0.85 2.36,-1.28c19.83,-10.5 41.84,-15.82 65.4,-15.82c30.15,0 57.59,7.4 81.56,22c23.93,14.59 42.83,34.96 56.19,60.53c13.11,25.1 19.75,53.76 19.75,85.15c0,31.82 -6.75,60.78 -20.06,86.07c-13.58,25.79 -32.7,46.24 -56.83,60.8c-24.15,14.57 -51.65,21.95 -81.75,21.95c-23.23,0 -44.98,-5.34 -64.66,-15.89c-2.58,-1.38 -5.13,-2.85 -7.62,-4.38c-7.41,12.9 -21.34,21.61 -37.25,21.61l-5.06,0zm115.73,-250.4c-13.23,0 -24.55,3.11 -34.57,9.53c-10.19,6.52 -18.02,15.54 -23.9,27.58c-6.16,12.63 -9.29,27.33 -9.29,43.7c0,16.38 3.13,31.08 9.29,43.71c5.88,12.03 13.7,21.04 23.9,27.57c10.03,6.42 21.33,9.53 34.57,9.53c12.78,0 23.77,-3.09 33.57,-9.45c10.08,-6.53 17.85,-15.58 23.75,-27.65c6.17,-12.63 9.29,-27.53 9.29,-44.28c0,-16.33 -3.11,-30.91 -9.24,-43.32c-5.9,-11.93 -13.68,-20.92 -23.8,-27.48c-9.81,-6.35 -20.79,-9.44 -33.57,-9.44z" fill="#FFFFFF" id="svg_148"/>
   <g id="svg_149">
    <defs>
     <rect height="564.11" id="SVGID_00000046304234240512574400000013787290148656292534_" width="326.59" x="1055.34" y="314.89"/>
    </defs>
    <clipPath id="SVGID_00000058571381186750680200000008973724151373727363_">
     <use href="#SVGID_00000046304234240512574400000013787290148656292534_" id="svg_150" overflow="visible"/>
    </clipPath>
    <g clip-path="url(#SVGID_00000058571381186750680200000008973724151373727363_)" id="svg_151">
     <path d="m1108.54,320.24c23.65,0 42.91,19.25 42.91,42.91l0,189.77c0.79,-0.43 1.57,-0.86 2.36,-1.28c19.83,-10.5 41.84,-15.82 65.4,-15.82c30.15,0 57.59,7.4 81.56,22c23.93,14.59 42.83,34.96 56.19,60.53c13.11,25.1 19.75,53.76 19.75,85.15c0,31.82 -6.75,60.78 -20.06,86.07c-13.58,25.79 -32.7,46.24 -56.83,60.8c-24.15,14.56 -51.65,21.95 -81.75,21.95c-23.23,0 -44.98,-5.35 -64.66,-15.89c-2.58,-1.38 -5.13,-2.85 -7.62,-4.39c-7.41,12.91 -21.34,21.62 -37.25,21.62l-5.06,0c-23.67,0 -42.92,-19.24 -42.92,-42.9l0,-467.61c0,-23.66 19.25,-42.9 42.92,-42.9l5.06,0m110.67,464.63c12.78,0 23.77,-3.09 33.57,-9.45c10.08,-6.53 17.85,-15.58 23.75,-27.65c6.17,-12.63 9.29,-27.53 9.29,-44.28c0,-16.33 -3.11,-30.91 -9.24,-43.31c-5.9,-11.93 -13.68,-20.93 -23.8,-27.49c-9.81,-6.35 -20.79,-9.44 -33.57,-9.44c-13.23,0 -24.54,3.12 -34.57,9.53c-10.19,6.52 -18.02,15.54 -23.9,27.58c-6.16,12.63 -9.29,27.33 -9.29,43.7c0,16.38 3.13,31.08 9.29,43.71c5.88,12.03 13.7,21.04 23.9,27.57c10.03,6.42 21.33,9.53 34.57,9.53m-110.67,-469.85l-5.06,0c-26.54,0 -48.14,21.58 -48.14,48.12l0,467.61c0,26.54 21.6,48.12 48.14,48.12l5.06,0c8.62,0 17.08,-2.32 24.47,-6.7c5.65,-3.34 10.56,-7.82 14.42,-13.09c1.16,0.66 2.34,1.31 3.51,1.94c20.45,10.96 43.03,16.51 67.12,16.51c31.07,0 59.48,-7.63 84.46,-22.7c24.95,-15.06 44.72,-36.19 58.74,-62.83c13.72,-26.06 20.67,-55.83 20.67,-88.51c0,-32.24 -6.84,-61.71 -20.33,-87.57c-13.81,-26.42 -33.36,-47.47 -58.12,-62.56c-24.79,-15.11 -53.15,-22.77 -84.27,-22.77c-22.34,0 -43.35,4.62 -62.54,13.76l0,-181.21c-0.01,-26.54 -21.59,-48.12 -48.13,-48.12zm110.67,464.63c-12.21,0 -22.6,-2.85 -31.76,-8.71c-9.36,-5.99 -16.57,-14.32 -22.02,-25.46c-5.81,-11.91 -8.76,-25.85 -8.76,-41.42s2.95,-29.51 8.76,-41.41c5.45,-11.15 12.66,-19.49 22.02,-25.48c9.16,-5.86 19.56,-8.7 31.76,-8.7c11.75,0 21.8,2.81 30.73,8.6c9.31,6.04 16.49,14.35 21.96,25.41c5.77,11.69 8.7,25.49 8.7,41.01c0,15.95 -2.94,30.08 -8.76,41.99c-5.47,11.19 -12.64,19.56 -21.9,25.57c-8.93,5.79 -18.98,8.6 -30.73,8.6z" id="svg_152"/>
    </g>
   </g>
   <path d="m1107.12,824.92l-2.61,0l0,-1.32l2.61,0l0,1.32zm0,-11.76l-2.61,0l0,-10.43l2.61,0l0,10.43zm0,-20.87l-2.61,0l0,-10.44l2.61,0l0,10.44zm0,-20.88l-2.61,0l0,-10.43l2.61,0l0,10.43zm0,-20.87l-2.61,0l0,-10.43l2.61,0l0,10.43zm0,-20.87l-2.61,0l0,-10.44l2.61,0l0,10.44zm0,-20.88l-2.61,0l0,-10.43l2.61,0l0,10.43zm0,-20.87l-2.61,0l0,-10.44l2.61,0l0,10.44zm0,-20.88l-2.61,0l0,-10.43l2.61,0l0,10.43zm0,-20.87l-2.61,0l0,-10.44l2.61,0l0,10.44zm0,-20.88l-2.61,0l0,-10.44l2.61,0l0,10.44zm0,-20.87l-2.61,0l0,-10.43l2.61,0l0,10.43zm0,-20.87l-2.61,0l0,-10.44l2.61,0l0,10.44zm0,-20.88l-2.61,0l0,-10.44l2.61,0l0,10.44zm0,-20.87l-2.61,0l0,-10.44l2.61,0l0,10.44zm0,-20.88l-2.61,0l0,-10.44l2.61,0l0,10.44zm0,-20.87l-2.61,0l0,-10.44l2.61,0l0,10.44zm0,-20.88l-2.61,0l0,-10.44l2.61,0l0,10.44zm0,-20.88l-2.61,0l0,-10.43l2.61,0l0,10.43zm0,-20.87l-2.61,0l0,-10.44l2.61,0l0,10.44zm0,-20.87l-2.61,0l0,-10.44l2.61,0l0,10.44zm0,-20.87l-2.61,0l0,-10.44l2.61,0l0,10.44z" fill="#59595C" id="svg_153"/>
   <path d="m1219.48,829.45l-0.38,0l0.01,-2.62l0.37,0c3.38,0 6.72,-0.12 9.96,-0.36l0.2,2.6c-3.3,0.25 -6.72,0.38 -10.16,0.38zm-10.93,-0.47c-3.51,-0.31 -7.03,-0.78 -10.46,-1.38l0.45,-2.57c3.35,0.59 6.8,1.05 10.24,1.35l-0.23,2.6zm31.56,-1.16l-0.42,-2.57c3.42,-0.57 6.81,-1.3 10.07,-2.17l0.68,2.53c-3.35,0.88 -6.82,1.63 -10.33,2.21zm-52.33,-2.52c-3.41,-0.92 -6.79,-2.02 -10.05,-3.25l0.92,-2.44c3.18,1.2 6.48,2.27 9.82,3.17l-0.69,2.52zm72.71,-2.93l-0.92,-2.44c3.19,-1.21 6.37,-2.61 9.43,-4.14l1.17,2.33c-3.14,1.58 -6.4,3.01 -9.68,4.25zm-92.45,-4.53c-3.17,-1.57 -6.27,-3.31 -9.22,-5.18l1.39,-2.2c2.88,1.82 5.9,3.52 8.99,5.04l-1.16,2.34zm111.33,-4.92l-1.4,-2.21c2.93,-1.84 5.76,-3.83 8.44,-5.92l1.6,2.07c-2.74,2.13 -5.65,4.17 -8.64,6.06zm-129.17,-6.37c-2.76,-2.2 -5.41,-4.57 -7.89,-7.03l1.84,-1.85c2.41,2.4 4.99,4.7 7.67,6.84l-1.62,2.04zm145.81,-6.59l-1.8,-1.89c2.47,-2.35 4.85,-4.87 7.08,-7.48l1.99,1.7c-2.3,2.67 -4.74,5.26 -7.27,7.67zm-160.78,-8.31c-2.19,-2.73 -4.26,-5.62 -6.14,-8.6l2.2,-1.4c1.83,2.9 3.84,5.72 5.98,8.37l-2.04,1.63zm174.52,-7.7l-2.13,-1.5c1.93,-2.76 3.8,-5.69 5.55,-8.71l2.26,1.31c-1.79,3.08 -3.7,6.07 -5.68,8.9zm10.58,-18.23l-2.36,-1.12c1.45,-3.08 2.81,-6.28 4.01,-9.51l2.45,0.91c-1.23,3.3 -2.61,6.58 -4.1,9.72zm7.38,-19.74l-2.51,-0.71c0.93,-3.26 1.76,-6.65 2.44,-10.05l2.56,0.53c-0.7,3.46 -1.54,6.91 -2.49,10.23zm4.23,-20.62l-2.59,-0.35c0.44,-3.35 0.78,-6.82 1.02,-10.29l2.6,0.17c-0.23,3.53 -0.58,7.05 -1.03,10.47zm1.4,-20.98l-2.6,-0.02c0,-0.34 0,-0.69 0,-1.04c0,-3.13 -0.09,-6.26 -0.26,-9.31l2.61,-0.14c0.17,3.1 0.26,6.27 0.26,9.45c0,0.36 -0.01,0.7 -0.01,1.06zm-3.77,-20.67c-0.43,-3.45 -0.97,-6.89 -1.63,-10.22l2.56,-0.5c0.67,3.38 1.23,6.89 1.66,10.4l-2.59,0.32zm-4,-20.27c-0.93,-3.33 -1.99,-6.63 -3.16,-9.83l2.45,-0.89c1.19,3.25 2.28,6.62 3.22,10.02l-2.51,0.7zm-7.14,-19.35c-0.79,-1.7 -1.63,-3.41 -2.51,-5.06c-0.73,-1.38 -1.49,-2.76 -2.26,-4.1l2.26,-1.3c0.78,1.36 1.56,2.76 2.31,4.18c0.89,1.69 1.76,3.43 2.57,5.17l-2.37,1.11zm-10.3,-17.86c-1.98,-2.84 -4.1,-5.59 -6.3,-8.17l1.99,-1.69c2.25,2.64 4.42,5.46 6.45,8.36l-2.14,1.5zm-13.35,-15.68c-2.45,-2.36 -5.08,-4.63 -7.77,-6.75l1.61,-2.06c2.77,2.18 5.45,4.51 7.97,6.93l-1.81,1.88zm-141.3,-4.43l-1.59,-2.08c2.87,-2.18 5.76,-4.24 8.56,-6.12l1.46,2.17c-2.77,1.85 -5.61,3.88 -8.43,6.03zm125.12,-8.29c-0.76,-0.49 -1.54,-0.98 -2.33,-1.46c-2.16,-1.31 -4.39,-2.55 -6.61,-3.68l1.19,-2.33c2.28,1.17 4.56,2.43 6.78,3.78c0.79,0.49 1.6,0.99 2.38,1.49l-1.41,2.2zm-107.89,-3.16l-1.28,-2.27c3.12,-1.76 6.29,-3.36 9.41,-4.78l1.07,2.38c-3.04,1.38 -6.14,2.95 -9.2,4.67zm89.55,-6.2c-3.17,-1.23 -6.46,-2.31 -9.78,-3.22l0.69,-2.51c3.4,0.92 6.78,2.04 10.04,3.3l-0.95,2.43zm-70.76,-2.25l-0.83,-2.47c3.36,-1.13 6.78,-2.08 10.19,-2.83l0.55,2.55c-3.31,0.73 -6.64,1.66 -9.91,2.75zm50.91,-3.21c-3.31,-0.57 -6.76,-1 -10.23,-1.28l0.21,-2.6c3.55,0.29 7.07,0.73 10.47,1.32l-0.45,2.56zm-30.84,-1.19l-0.27,-2.59c3.34,-0.36 6.77,-0.54 10.18,-0.54l0.38,0l-0.01,2.61l-0.37,0c-3.33,0 -6.66,0.18 -9.91,0.52z" fill="#59595C" id="svg_154"/>
   <path d="m1105.82,841.01l-10.68,-18.49l21.37,0l-10.69,18.49z" fill="#59595C" id="svg_155"/>
   <path d="m1118.84,782.61l0,-21.36l18.5,10.68l-18.5,10.68z" fill="#59595C" id="svg_156"/>
   <path d="m1108.55,348.54l-3.03,0c-0.34,0 -0.67,0.15 -0.9,0.41l-8.92,10.44c-0.4,0.47 -0.38,1.16 0.06,1.59l1.69,1.7c0.47,0.45 1.2,0.45 1.67,0.01l5.22,-5.17l0,22.62c0,0.65 0.53,1.18 1.18,1.18l3.03,0c0.65,0 1.17,-0.53 1.17,-1.18l0,-30.43c0,-0.65 -0.52,-1.17 -1.17,-1.17z" fill="#FCFDFF" id="svg_158"/>
   <path d="m1147.86,625.52l-13.28,0c0.17,-0.33 0.41,-0.65 0.71,-0.99c0.84,-0.92 2.18,-2.15 3.99,-3.63l-0.02,-0.02c0.27,-0.19 0.57,-0.45 0.92,-0.75c2.56,-2.16 4.61,-4.29 6.08,-6.31c1.57,-2.16 2.37,-4.64 2.37,-7.39c0,-2.71 -0.93,-4.92 -2.75,-6.56c-1.8,-1.61 -4.2,-2.42 -7.13,-2.42c-2.06,0 -4.07,0.51 -5.97,1.52c-1.89,1 -3.5,2.41 -4.8,4.18c-0.36,0.5 -0.28,1.19 0.19,1.58l2.45,2.11c0.25,0.2 0.56,0.31 0.9,0.27c0.33,-0.04 0.62,-0.2 0.8,-0.47c0.96,-1.27 1.98,-2.24 3.05,-2.89c2.06,-1.24 4.93,-1.24 6.41,0.09c0.72,0.65 1.07,1.5 1.07,2.59c0,1.84 -0.47,3.4 -1.41,4.79c-1,1.47 -2.44,3.01 -4.32,4.61c-0.1,0.08 -0.59,0.48 -1.48,1.2c-1.54,1.28 -2.8,2.39 -3.74,3.31c-0.97,0.96 -1.79,2.06 -2.46,3.27c-0.7,1.28 -1.06,2.69 -1.06,4.19l0,1.92c0,0.65 0.53,1.18 1.18,1.18l18.3,0c0.65,0 1.17,-0.53 1.17,-1.18l0,-3.03c0,-0.65 -0.52,-1.17 -1.17,-1.17z" fill="#FCFDFF" id="svg_160"/>
  </g>
 </g>
</svg>