<?xml version="1.0"?>
<svg width="2000" height="2000" xmlns="http://www.w3.org/2000/svg" xmlns:svg="http://www.w3.org/2000/svg" enable-background="new 0 0 2000 2000" version="1.1" xml:space="preserve">
 <g class="layer">
  <title>Layer 1</title>
  <g id="svg_147">
   <g id="svg_162">
    <defs>
     <rect height="563.77" id="SVGID_00000123416462951034967230000010263061797154881951_" width="399.33" x="610.72" y="315.23"/>
    </defs>
    <clipPath id="SVGID_00000093177877537883473580000005586358198258591364_">
     <use href="#SVGID_00000123416462951034967230000010263061797154881951_" id="svg_163" overflow="visible"/>
    </clipPath>
    <g clip-path="url(#SVGID_00000093177877537883473580000005586358198258591364_)" id="svg_164">
     <path d="m808.95,320.49c51.47,0 93.16,14.28 123.94,42.43c31.62,28.92 47.65,67.39 47.65,114.31c0,30.39 -7.2,57.23 -21.39,79.78c-3.5,5.55 -7.38,10.79 -11.64,15.68c10.73,7.96 20.14,17.37 28.14,28.11c19.4,26.11 29.23,59.8 29.23,100.12c0,52.35 -16.57,94.76 -49.26,126.01c-32.3,30.85 -76.1,46.5 -130.2,46.5l-154.03,0c-30.6,0 -55.5,-24.94 -55.5,-55.58l0,-441.78c0,-30.64 24.9,-55.58 55.5,-55.58l137.56,0m-75.45,208.63l81.9,0c28.29,0 44.67,-8.49 44.67,-51.89c0,-16.45 -3.84,-27.7 -12.09,-35.43c-8.73,-8.18 -21.73,-12.15 -39.75,-12.15l-74.73,0l0,99.47m0,235.87l84.76,0c22.02,0 38.22,-5.43 49.53,-16.59c11.34,-11.2 16.62,-26.29 16.62,-47.48c0,-21.11 -5.23,-36.03 -16.46,-46.97c-11.34,-11.03 -27.59,-16.39 -49.69,-16.39l-84.76,0l0,127.43m75.45,-449.68l-137.56,0c-33.45,0 -60.67,27.26 -60.67,60.76l0,441.78c0,33.5 27.22,60.76 60.67,60.76l154.03,0c55.48,0 100.48,-16.13 133.77,-47.93c33.75,-32.28 50.86,-75.94 50.86,-129.76c0,-41.47 -10.18,-76.19 -30.26,-103.21c-7.17,-9.65 -15.52,-18.32 -24.87,-25.84c3.08,-3.85 5.97,-7.91 8.6,-12.1c14.73,-23.39 22.19,-51.16 22.19,-82.54c0,-48.45 -16.6,-88.19 -49.32,-118.13c-31.77,-29.06 -74.64,-43.79 -127.44,-43.79zm-70.28,119.52l69.57,0c16.63,0 28.48,3.52 36.21,10.75c7.12,6.67 10.45,16.73 10.45,31.65c0,19.15 -3.34,31.75 -10.19,38.53c-5.79,5.73 -14.56,8.18 -29.31,8.18l-76.73,0l0,-89.11zm0,207.9l79.59,0c20.69,0 35.75,4.88 46.08,14.93c10.16,9.89 14.9,23.64 14.9,43.26c0,19.71 -4.8,33.63 -15.08,43.79c-10.29,10.16 -25.31,15.1 -45.9,15.1l-79.59,0l0,-117.08z" id="svg_165"/>
    </g>
   </g>
   <path d="m676.21,832.81l-2.58,0l0,-3.83l2.58,0l0,3.83zm0,-14.19l-2.58,0l0,-10.36l2.58,0l0,10.36zm0,-20.72l-2.58,0l0,-10.36l2.58,0l0,10.36zm0,-20.72l-2.58,0l0,-10.36l2.58,0l0,10.36zm0,-20.72l-2.58,0l0,-10.36l2.58,0l0,10.36zm0,-20.72l-2.58,0l0,-10.37l2.58,0l0,10.37zm0,-20.73l-2.58,0l0,-10.36l2.58,0l0,10.36zm0,-20.72l-2.58,0l0,-10.36l2.58,0l0,10.36zm0,-20.72l-2.58,0l0,-10.36l2.58,0l0,10.36zm0,-20.72l-2.58,0l0,-10.36l2.58,0l0,10.36zm0,-20.72l-2.58,0l0,-10.37l2.58,0l0,10.37zm0,-20.73l-2.58,0l0,-10.36l2.58,0l0,10.36zm0,-20.72l-2.58,0l0,-10.36l2.58,0l0,10.36zm0,-20.72l-2.58,0l0,-10.36l2.58,0l0,10.36zm0,-20.72l-2.58,0l0,-10.37l2.58,0l0,10.37zm0,-20.73l-2.58,0l0,-10.36l2.58,0l0,10.36zm0,-20.72l-2.58,0l0,-10.37l2.58,0l0,10.37zm0,-20.73l-2.58,0l0,-10.36l2.58,0l0,10.36zm0,-20.72l-2.58,0l0,-10.36l2.58,0l0,10.36zm0,-20.72l-2.58,0l0,-10.36l2.58,0l0,10.36zm0,-20.72l-2.58,0l0,-10.36l2.58,0l0,10.36zm0,-20.73l-2.58,0l0,-10.36l2.58,0l0,10.36z" fill="#59595C" id="svg_166"/>
   <path d="m819.28,821.95l-10.34,0l0,-2.59l10.34,0l0,2.59zm-20.69,0l-10.35,0l0,-2.59l10.35,0l0,2.59zm-20.7,0l-10.35,0l0,-2.59l10.35,0l0,2.59zm-20.7,0l-10.34,0l0,-2.59l10.34,0l0,2.59zm-20.69,0l-10.35,0l0,-2.59l10.35,0l0,2.59zm-20.7,0l-2.84,0l0,-2.59l2.84,0l0,2.59zm113.88,-0.17l-0.1,-2.58c3.48,-0.14 6.94,-0.37 10.25,-0.69l0.24,2.59c-3.36,0.31 -6.85,0.55 -10.39,0.68zm20.74,-2l-0.4,-2.56c3.43,-0.54 6.82,-1.21 10.06,-1.97l0.58,2.52c-3.3,0.78 -6.75,1.46 -10.24,2.01zm20.31,-4.81l-0.79,-2.45c3.28,-1.07 6.5,-2.27 9.58,-3.58l1.01,2.38c-3.14,1.34 -6.44,2.57 -9.8,3.65zm19.22,-8.23l-1.24,-2.27c2.98,-1.64 5.9,-3.45 8.67,-5.38l1.48,2.14c-2.85,1.97 -5.85,3.82 -8.91,5.51zm17.19,-11.93l-1.69,-1.97c1.66,-1.43 3.29,-2.93 4.86,-4.48c0.86,-0.84 1.71,-1.72 2.52,-2.58l1.89,1.78c-0.85,0.89 -1.71,1.77 -2.59,2.64c-1.61,1.59 -3.29,3.14 -4.99,4.61zm14.36,-15.25l-2.06,-1.57c2.06,-2.69 3.99,-5.53 5.75,-8.43l2.21,1.34c-1.8,2.98 -3.79,5.89 -5.9,8.66zm10.86,-17.9l-2.34,-1.11c1.43,-3.03 2.75,-6.21 3.92,-9.45l2.43,0.88c-1.19,3.32 -2.54,6.57 -4.01,9.68zm7.09,-19.69l-2.5,-0.65c0.85,-3.23 1.58,-6.59 2.19,-10.02l2.55,0.46c-0.62,3.48 -1.37,6.92 -2.24,10.21zm3.7,-20.56l-2.57,-0.28c0.35,-3.3 0.61,-6.75 0.77,-10.24l2.58,0.11c-0.16,3.55 -0.42,7.05 -0.78,10.41zm-1.61,-20.81c-0.03,-3.5 -0.14,-6.96 -0.35,-10.29l2.58,-0.16c0.21,3.37 0.33,6.88 0.36,10.43l-2.59,0.02zm-1.32,-20.51c-0.44,-3.46 -0.99,-6.86 -1.65,-10.12l2.53,-0.52c0.68,3.32 1.24,6.79 1.69,10.31l-2.57,0.33zm-4.09,-20.08c-0.96,-3.32 -2.08,-6.58 -3.3,-9.69l2.41,-0.95c1.25,3.18 2.39,6.52 3.38,9.92l-2.49,0.72zm-7.52,-18.99c-1.57,-3.04 -3.31,-6 -5.16,-8.81l2.15,-1.43c1.91,2.89 3.7,5.93 5.31,9.05l-2.3,1.19zm-11.25,-17.01c-2.15,-2.59 -4.48,-5.11 -6.93,-7.5l1.8,-1.86c2.52,2.45 4.91,5.04 7.13,7.7l-2,1.66z" fill="#59595C" id="svg_167"/>
   <path d="m822.62,585.52c-0.01,0 -0.03,0 -0.03,0l-5.66,0l0,-2.59l5.66,0c1.54,0 3.13,-0.02 4.66,-0.05l0.06,2.59c-1.53,0.03 -3.11,0.05 -4.69,0.05zm-16.04,0l-10.34,0l0,-2.59l10.34,0l0,2.59zm-20.7,0l-10.34,0l0,-2.59l10.34,0l0,2.59zm-20.7,0l-10.34,0l0,-2.59l10.35,0l0,2.59l-0.01,0zm-20.69,0l-10.35,0l0,-2.59l10.35,0l0,2.59zm-20.69,0l-8.99,0l0,-2.59l8.99,0l0,2.59zm113.92,-0.63l-0.23,-2.58c3.5,-0.3 6.92,-0.73 10.16,-1.27l0.43,2.56c-3.31,0.54 -6.8,0.98 -10.36,1.29zm20.58,-3.45l-0.65,-2.51c3.38,-0.89 6.64,-1.93 9.7,-3.11l0.93,2.41c-3.15,1.22 -6.51,2.29 -9.98,3.21zm19.51,-7.62l-1.24,-2.27c3,-1.65 5.86,-3.5 8.51,-5.52l1.56,2.07c-2.74,2.09 -5.72,4.01 -8.83,5.72zm16.69,-12.73l-1.87,-1.8c2.31,-2.4 4.47,-5.04 6.44,-7.83l2.12,1.49c-2.05,2.9 -4.3,5.64 -6.69,8.14zm12.12,-17.14l-2.3,-1.19c1.51,-2.92 2.9,-6.05 4.13,-9.31l2.42,0.91c-1.26,3.35 -2.7,6.59 -4.25,9.59zm7.45,-19.56l-2.49,-0.68c0.86,-3.17 1.63,-6.53 2.27,-9.99l2.54,0.48c-0.65,3.52 -1.43,6.95 -2.32,10.19zm3.91,-20.51l-2.58,-0.31c0.41,-3.29 0.72,-6.73 0.96,-10.24l2.58,0.17c-0.23,3.56 -0.56,7.06 -0.96,10.38zm1.42,-20.78l-2.58,-0.06c0.04,-1.93 0.06,-3.92 0.06,-5.9c0,-1.49 -0.02,-2.96 -0.05,-4.39l2.58,-0.07c0.04,1.45 0.05,2.96 0.05,4.46c0,2 -0.01,4.01 -0.06,5.96zm-3.16,-20.61c-0.32,-3.49 -0.76,-6.91 -1.31,-10.17l2.54,-0.44c0.57,3.33 1.03,6.82 1.35,10.37l-2.58,0.24zm-3.5,-20.17c-0.9,-3.36 -1.97,-6.63 -3.17,-9.71l2.42,-0.94c1.23,3.17 2.32,6.53 3.25,9.98l-2.5,0.67zm-7.42,-18.97c-1.61,-3 -3.43,-5.91 -5.4,-8.62l2.1,-1.53c2.03,2.82 3.9,5.82 5.58,8.93l-2.28,1.22zm-11.9,-16.45c-0.99,-1.06 -2.05,-2.1 -3.13,-3.11c-1.4,-1.31 -2.86,-2.59 -4.34,-3.79l1.63,-2.01c1.52,1.24 3.04,2.56 4.47,3.91c1.12,1.04 2.21,2.12 3.25,3.22l-1.88,1.78zm-15.76,-12.83c-2.84,-1.77 -5.85,-3.41 -8.95,-4.88l1.11,-2.34c3.19,1.51 6.29,3.2 9.21,5.03l-1.37,2.19zm-18.39,-8.75c-3.13,-1.1 -6.42,-2.08 -9.8,-2.92l0.62,-2.51c3.46,0.85 6.83,1.86 10.03,2.99l-0.85,2.44zm-19.83,-4.99c-3.27,-0.54 -6.69,-0.99 -10.17,-1.32l0.25,-2.58c3.53,0.34 7.02,0.8 10.35,1.35l-0.43,2.55zm-20.42,-2.01c-2.53,-0.09 -5.16,-0.14 -7.81,-0.14l-2.49,0l0,-2.59l2.49,0c2.68,0 5.34,0.05 7.91,0.15l-0.1,2.58zm-20.64,-0.14l-10.36,0l0,-2.59l10.36,0l0,2.59zm-20.7,0l-10.35,0l0,-2.59l10.35,0l0,2.59zm-20.7,0l-10.35,0l0,-2.59l10.35,0l0,2.59z" fill="#59595C" id="svg_168"/>
   <path d="m674.92,845.06l10.58,-18.37l-21.17,0l10.59,18.37z" fill="#59595C" id="svg_169"/>
   <path d="m699.63,584.23l18.35,-10.6l0,21.2l-18.35,-10.6z" fill="#59595C" id="svg_170"/>
   <path d="m699.63,820.66l18.35,-10.6l0,21.2l-18.35,-10.6z" fill="#59595C" id="svg_171"/>
   <path d="m676.06,356.1l-3.34,0c-0.38,0 -0.73,0.17 -0.98,0.45l-9.84,11.52c-0.43,0.51 -0.41,1.28 0.07,1.76l1.88,1.87c0.51,0.5 1.32,0.5 1.82,0.01l5.76,-5.7l0,24.96c0,0.71 0.58,1.29 1.29,1.29l3.34,0c0.72,0 1.3,-0.58 1.3,-1.29l0,-33.58c0,-0.71 -0.58,-1.29 -1.3,-1.29z" fill="#FCFDFF" id="svg_173"/>
   <path d="m748.51,386.32l-14.62,0c0.2,-0.36 0.45,-0.72 0.79,-1.08c0.92,-1.02 2.4,-2.37 4.39,-4.01l-0.03,-0.03c0.31,-0.21 0.64,-0.49 1.02,-0.82c2.82,-2.38 5.07,-4.73 6.7,-6.96c1.72,-2.38 2.61,-5.12 2.61,-8.15c0,-3 -1.02,-5.43 -3.03,-7.24c-1.98,-1.77 -4.62,-2.67 -7.85,-2.67c-2.27,0 -4.48,0.57 -6.58,1.68c-2.08,1.11 -3.86,2.66 -5.28,4.61c-0.41,0.55 -0.31,1.31 0.21,1.75l2.69,2.32c0.27,0.23 0.62,0.34 0.99,0.3c0.36,-0.04 0.68,-0.23 0.89,-0.52c1.05,-1.4 2.17,-2.47 3.35,-3.19c2.27,-1.37 5.43,-1.36 7.06,0.11c0.79,0.71 1.17,1.65 1.17,2.86c0,2.01 -0.5,3.74 -1.54,5.27c-1.11,1.62 -2.7,3.33 -4.77,5.09c-0.1,0.09 -0.64,0.53 -1.62,1.33c-1.7,1.4 -3.08,2.63 -4.12,3.65c-1.07,1.05 -1.98,2.26 -2.71,3.59c-0.77,1.42 -1.16,2.98 -1.16,4.63l0,2.12c0,0.72 0.58,1.3 1.29,1.3l20.15,0c0.72,0 1.3,-0.58 1.3,-1.3l0,-3.35c0,-0.71 -0.58,-1.29 -1.3,-1.29z" fill="#FCFDFF" id="svg_175"/>
   <path d="m911.41,611.3c-0.75,-1.05 -1.65,-1.92 -2.68,-2.58c0.71,-0.59 1.32,-1.29 1.81,-2.11c0.96,-1.55 1.45,-3.37 1.45,-5.38c0,-1.92 -0.44,-3.68 -1.33,-5.2c-0.89,-1.53 -2.15,-2.75 -3.72,-3.61c-1.56,-0.86 -3.34,-1.29 -5.29,-1.29c-2.56,0 -4.85,0.72 -6.8,2.14c-1.92,1.4 -3.42,3.3 -4.46,5.67c-0.27,0.61 -0.02,1.33 0.56,1.66l2.71,1.47c0.31,0.17 0.68,0.21 1.01,0.1c0.33,-0.1 0.61,-0.34 0.77,-0.66c0.76,-1.55 1.66,-2.76 2.68,-3.56c0.96,-0.76 2.12,-1.13 3.53,-1.13c1.25,0 2.24,0.39 3.02,1.21c0.81,0.82 1.19,1.86 1.19,3.2c0,1.52 -0.41,2.7 -1.27,3.63c-0.84,0.9 -1.94,1.33 -3.38,1.33l-2.17,0c-0.71,0 -1.29,0.58 -1.29,1.3l0,3.04c0,0.72 0.58,1.3 1.29,1.3l2.36,0c1.7,0 3.03,0.52 4.1,1.59c1.07,1.07 1.59,2.42 1.59,4.1c0,1.63 -0.51,2.92 -1.56,3.96c-1.05,1.04 -2.33,1.54 -3.93,1.54c-1.35,0 -2.5,-0.39 -3.51,-1.17c-1.05,-0.84 -1.94,-2.01 -2.64,-3.5c-0.16,-0.32 -0.45,-0.57 -0.79,-0.68c-0.35,-0.11 -0.72,-0.07 -1.04,0.12l-2.95,1.72c-0.56,0.33 -0.79,1.01 -0.54,1.6c0.94,2.33 2.4,4.21 4.33,5.59c1.96,1.4 4.3,2.11 6.99,2.11c2.14,0 4.13,-0.48 5.94,-1.43c1.82,-0.96 3.28,-2.31 4.34,-4.03c1.05,-1.74 1.59,-3.69 1.59,-5.83c0,-2.33 -0.65,-4.42 -1.91,-6.22z" fill="#FCFDFF" id="svg_177"/>
  </g>
 </g>
</svg>