<?xml version="1.0"?>
<svg width="2000" height="2000" xmlns="http://www.w3.org/2000/svg" xmlns:svg="http://www.w3.org/2000/svg" enable-background="new 0 0 2000 2000" version="1.1" xml:space="preserve">
 <g class="layer">
  <title>Layer 1</title>
  <g id="svg_147">
   <g id="svg_158">
    <defs>
     <rect height="329.38" id="SVGID_00000124129866156639332420000010357461496002944939_" width="280.11" x="1018.06" y="514.3"/>
    </defs>
    <clipPath id="SVGID_00000048491677573665079510000005318774078624482731_">
     <use href="#SVGID_00000124129866156639332420000010357461496002944939_" id="svg_159" overflow="visible"/>
    </clipPath>
    <g clip-path="url(#SVGID_00000048491677573665079510000005318774078624482731_)" id="svg_160">
     <path d="m1172.49,519.26c28.56,0 54.66,7.01 77.57,20.84c10.72,6.48 20.51,14.28 29.11,23.19c9.43,9.77 13.6,23.04 11.46,36.41c-2.13,13.29 -10.17,24.51 -22.08,30.8c-5.99,3.17 -12.75,4.84 -19.52,4.84c-12.04,0 -23.73,-5.2 -32.08,-14.26c-3.46,-3.76 -7.28,-6.95 -11.67,-9.76c-9.51,-6.09 -20.24,-9.05 -32.79,-9.05c-12.14,0 -22.56,2.93 -31.86,8.97c-9.6,6.22 -16.98,14.75 -22.58,26.09c-5.82,11.78 -8.77,25.62 -8.77,41.12c0,15.9 2.97,30.05 8.82,42.03c5.59,11.47 12.97,20.05 22.53,26.25c9.29,6.04 19.72,8.97 31.86,8.97c12.56,0 23.28,-2.96 32.79,-9.05c4.42,-2.82 8.25,-6.03 11.72,-9.81c8.34,-9.08 20.03,-14.28 32.08,-14.28c6.73,0 13.44,1.65 19.41,4.77c12.29,6.44 20.37,17.62 22.56,30.89c2.2,13.34 -1.91,26.61 -11.27,36.41c-8.5,8.92 -18.21,16.72 -28.82,23.19c-22.75,13.86 -48.79,20.9 -77.39,20.9c-28.57,0 -54.67,-7.02 -77.57,-20.84c-22.93,-13.83 -41.08,-33.37 -53.96,-58.07c-12.61,-24.15 -19,-51.53 -19,-81.36s6.31,-57.03 18.73,-80.83c12.67,-24.28 30.61,-43.62 53.33,-57.47c22.75,-13.86 48.78,-20.89 77.39,-20.89m0,-4.96c-29.53,0 -56.44,7.28 -79.97,21.62c-23.49,14.33 -42.04,34.31 -55.13,59.4c-12.81,24.52 -19.3,52.49 -19.3,83.13s6.58,58.78 19.56,83.66c13.3,25.51 32.08,45.7 55.79,60.01c23.69,14.3 50.64,21.55 80.13,21.55c29.53,0 56.43,-7.27 79.96,-21.62c11,-6.7 21.03,-14.77 29.84,-24c10.44,-10.94 15.02,-25.75 12.56,-40.64c-1.21,-7.39 -4.03,-14.15 -8.37,-20.11c-4.35,-5.98 -9.99,-10.8 -16.77,-14.35c-6.68,-3.5 -14.19,-5.35 -21.71,-5.35c-13.43,0 -26.45,5.79 -35.72,15.89c-3.18,3.46 -6.7,6.4 -10.75,9c-8.69,5.56 -18.54,8.26 -30.12,8.26c-11.15,0 -20.69,-2.67 -29.17,-8.17c-8.78,-5.7 -15.58,-13.64 -20.77,-24.27c-5.52,-11.31 -8.32,-24.72 -8.32,-39.86c0,-14.73 2.78,-27.83 8.26,-38.93c5.19,-10.51 12.01,-18.4 20.84,-24.12c8.46,-5.5 18.01,-8.18 29.16,-8.18c11.58,0 21.43,2.71 30.12,8.27c4.03,2.58 7.52,5.51 10.69,8.95c9.29,10.08 22.31,15.86 35.73,15.86c7.57,0 15.12,-1.88 21.84,-5.42c13.29,-7.02 22.28,-19.55 24.65,-34.39c2.39,-14.93 -2.27,-29.74 -12.79,-40.63c-8.89,-9.23 -19.03,-17.3 -30.11,-24c-23.69,-14.3 -50.65,-21.56 -80.13,-21.56z" id="svg_161"/>
    </g>
   </g>
   <path d="m1178.6,796.42l-0.06,-2.47c3.27,-0.09 6.56,-0.33 9.77,-0.7l0.28,2.46c-3.28,0.38 -6.64,0.62 -9.99,0.71zm-10,-0.12c-3.36,-0.18 -6.71,-0.49 -9.96,-0.93l0.33,-2.46c3.19,0.44 6.47,0.74 9.76,0.91l-0.13,2.48zm29.87,-2.21l-0.5,-2.42c3.18,-0.67 6.37,-1.5 9.47,-2.46l0.73,2.37c-3.17,0.98 -6.43,1.83 -9.7,2.51zm-49.68,-0.51c-3.27,-0.74 -6.52,-1.64 -9.65,-2.68l0.77,-2.35c3.07,1.01 6.24,1.89 9.43,2.62l-0.55,2.41zm68.8,-5.42l-0.95,-2.28c2.36,-0.99 4.72,-2.07 7.02,-3.24c0.62,-0.31 1.23,-0.62 1.84,-0.94l1.15,2.19c-0.62,0.33 -1.24,0.65 -1.87,0.96c-2.35,1.2 -4.77,2.31 -7.19,3.31zm-87.81,-0.84c-3.05,-1.34 -6.07,-2.84 -8.97,-4.48l1.22,-2.16c2.83,1.59 5.78,3.07 8.75,4.38l-1,2.26zm105.52,-8.45l-1.32,-2.09c2.75,-1.75 5.46,-3.65 8.03,-5.61l1.5,1.96c-2.63,2.01 -5.39,3.95 -8.21,5.74zm-122.97,-1.36c-2.74,-1.9 -5.41,-3.96 -7.95,-6.1l1.61,-1.89c2.47,2.1 5.08,4.1 7.75,5.96l-1.41,2.03zm-15.27,-12.95c-2.3,-2.38 -4.53,-4.91 -6.62,-7.52l1.93,-1.54c2.04,2.54 4.22,5.01 6.48,7.34l-1.79,1.72zm-12.52,-15.62c-1.81,-2.75 -3.54,-5.64 -5.14,-8.59l2.17,-1.18c1.57,2.89 3.26,5.72 5.04,8.41l-2.07,1.36zm-9.54,-17.59c-1.31,-3.04 -2.52,-6.18 -3.59,-9.35l2.34,-0.79c1.05,3.1 2.24,6.18 3.53,9.15l-2.28,0.99zm-6.4,-18.95c-0.79,-3.2 -1.47,-6.49 -2.03,-9.8l2.44,-0.41c0.54,3.25 1.21,6.48 1.99,9.61l-2.4,0.6zm-3.31,-19.72c-0.3,-3.26 -0.5,-6.62 -0.59,-9.98l2.49,-0.06c0.07,3.3 0.26,6.61 0.57,9.81l-2.47,0.23zm1.97,-19.86l-2.47,-0.1c0.14,-3.35 0.38,-6.71 0.74,-9.97l2.46,0.28c-0.35,3.2 -0.6,6.49 -0.73,9.79zm2.15,-19.5l-2.43,-0.45c0.61,-3.29 1.35,-6.58 2.19,-9.75l2.4,0.63c-0.84,3.12 -1.56,6.34 -2.16,9.57zm5.06,-18.93l-2.33,-0.83c1.12,-3.15 2.37,-6.27 3.74,-9.28l2.26,1.03c-1.34,2.94 -2.58,6 -3.67,9.08zm8.1,-17.82l-2.16,-1.21c1.65,-2.92 3.43,-5.79 5.3,-8.5l2.04,1.4c-1.83,2.66 -3.57,5.45 -5.18,8.31zm11.1,-16.1l-1.9,-1.59c2.14,-2.56 4.43,-5.03 6.8,-7.37l1.73,1.77c-2.31,2.27 -4.54,4.69 -6.63,7.19zm148.32,-9.26c-2.4,-2.26 -4.9,-4.42 -7.41,-6.43l1.55,-1.93c2.56,2.05 5.1,4.25 7.56,6.56l-1.7,1.8zm-134.38,-4.43l-1.56,-1.93c2.58,-2.08 5.31,-4.07 8.1,-5.91l1.36,2.07c-2.73,1.8 -5.38,3.74 -7.9,5.77zm119.06,-7.77c-1.82,-1.21 -3.7,-2.38 -5.57,-3.46c-0.93,-0.53 -1.87,-1.05 -2.82,-1.55l1.14,-2.19c0.98,0.51 1.96,1.05 2.91,1.59c1.92,1.11 3.84,2.3 5.71,3.55l-1.37,2.06zm-102.74,-2.99l-1.16,-2.19c2.94,-1.55 6,-2.99 9.08,-4.25l0.94,2.29c-3.01,1.24 -5.99,2.63 -8.86,4.15zm85.46,-6.01c-3,-1.14 -6.13,-2.13 -9.31,-2.95l0.62,-2.4c3.27,0.84 6.49,1.86 9.56,3.03l-0.87,2.32zm-67.38,-1.41l-0.72,-2.37c3.17,-0.95 6.44,-1.78 9.72,-2.44l0.49,2.43c-3.21,0.65 -6.4,1.45 -9.49,2.38zm48.49,-3.47c-3.16,-0.47 -6.43,-0.8 -9.74,-0.98l0.14,-2.47c3.38,0.18 6.73,0.52 9.96,1l-0.36,2.45zm-29.32,-0.43l-0.28,-2.45c3.27,-0.37 6.63,-0.61 9.99,-0.7l0.07,2.48c-3.29,0.09 -6.58,0.32 -9.78,0.67z" fill="#59595C" id="svg_162"/>
   <path d="m1253.68,775.51l5.67,-19.47l-19.7,4.83l14.03,14.64z" fill="#59595C" id="svg_163"/>
   <path d="m1249.81,575.49l-2.88,0c-0.33,0 -0.64,0.14 -0.85,0.39l-8.47,9.91c-0.38,0.45 -0.36,1.1 0.06,1.52l1.61,1.61c0.44,0.43 1.14,0.43 1.57,0l4.96,-4.9l0,21.48c0,0.61 0.5,1.11 1.11,1.11l2.89,0c0.6,0 1.11,-0.5 1.11,-1.11l0,-28.89c0,-0.62 -0.5,-1.12 -1.11,-1.12z" fill="#FCFDFF" id="svg_165"/>
  </g>
 </g>
</svg>