<?xml version="1.0"?>
<svg width="2000" height="2000" xmlns="http://www.w3.org/2000/svg" xmlns:svg="http://www.w3.org/2000/svg" enable-background="new 0 0 2000 2000" version="1.1" xml:space="preserve">
 <g class="layer">
  <title>Layer 1</title>
  <g id="svg_147">
   <path d="m1282.19,847.19c-14.73,0 -27.61,-8.07 -34.46,-20.01c-2.31,1.42 -4.66,2.78 -7.06,4.06c-18.2,9.76 -38.32,14.7 -59.8,14.7c-27.86,0 -53.3,-6.83 -75.62,-20.32c-22.31,-13.47 -40.01,-32.39 -52.57,-56.27c-12.32,-23.4 -18.56,-50.22 -18.56,-79.68c0,-29.09 6.14,-55.61 18.26,-78.82c12.35,-23.67 29.84,-42.52 51.99,-56.03c22.17,-13.52 47.55,-20.37 75.45,-20.37c21.78,0 42.13,4.93 60.49,14.65c0.73,0.38 1.46,0.78 2.18,1.18l0,-175.68c0,-21.89 17.81,-39.71 39.7,-39.71l4.68,0c21.89,0 39.7,17.82 39.7,39.71l0,432.87c0,21.9 -17.81,39.71 -39.7,39.71l-4.68,0l0,0.01zm-102.37,-231.8c-11.84,0 -22,2.86 -31.06,8.74c-9.36,6.07 -16.56,14.4 -22.02,25.44c-5.67,11.49 -8.55,24.98 -8.55,40.1c0,15.51 2.9,29.3 8.6,40.98c5.46,11.18 12.64,19.56 21.96,25.61c9.07,5.88 19.23,8.74 31.07,8.74c12.24,0 22.7,-2.89 31.97,-8.82c9.43,-6.04 16.67,-14.39 22.1,-25.52c5.71,-11.69 8.6,-25.3 8.6,-40.46c0,-15.16 -2.89,-28.77 -8.6,-40.47c-5.44,-11.12 -12.67,-19.47 -22.1,-25.52c-9.27,-5.94 -19.73,-8.82 -31.97,-8.82z" fill="#FFFFFF" id="svg_161"/>
   <g id="svg_162">
    <defs>
     <rect height="521.93" id="SVGID_00000149376458775917665960000009767422913515417008_" width="302.17" x="1029.25" y="330.06"/>
    </defs>
    <clipPath id="SVGID_00000119102407844010145910000008668232254542635185_">
     <use href="#SVGID_00000149376458775917665960000009767422913515417008_" id="svg_163" overflow="visible"/>
    </clipPath>
    <g clip-path="url(#SVGID_00000119102407844010145910000008668232254542635185_)" id="svg_164">
     <path d="m1286.87,334.89c21.89,0 39.7,17.82 39.7,39.71l0,432.87c0,21.9 -17.81,39.71 -39.7,39.71l-4.68,0c-14.73,0 -27.61,-8.06 -34.46,-20c-2.31,1.42 -4.67,2.78 -7.06,4.06c-18.2,9.76 -38.32,14.7 -59.8,14.7c-27.86,0 -53.3,-6.83 -75.62,-20.32c-22.32,-13.47 -40.01,-32.4 -52.57,-56.27c-12.32,-23.41 -18.56,-50.22 -18.56,-79.68c0,-29.09 6.14,-55.61 18.26,-78.82c12.35,-23.68 29.84,-42.53 51.99,-56.03c22.17,-13.52 47.55,-20.38 75.45,-20.38c21.78,0 42.13,4.93 60.49,14.66c0.73,0.38 1.46,0.78 2.18,1.18l0,-175.68c0,-21.89 17.81,-39.71 39.7,-39.71l4.68,0m-107.05,430.11c12.24,0 22.7,-2.89 31.97,-8.82c9.43,-6.04 16.67,-14.39 22.1,-25.52c5.71,-11.69 8.6,-25.3 8.6,-40.46c0,-15.16 -2.89,-28.77 -8.6,-40.47c-5.44,-11.13 -12.67,-19.48 -22.1,-25.52c-9.27,-5.94 -19.73,-8.83 -31.97,-8.83c-11.84,0 -22,2.87 -31.06,8.75c-9.36,6.07 -16.56,14.4 -22.02,25.44c-5.67,11.49 -8.55,24.98 -8.55,40.1c0,15.51 2.9,29.29 8.6,40.98c5.46,11.18 12.64,19.56 21.96,25.61c9.07,5.88 19.23,8.74 31.07,8.74m107.05,-434.94l-4.68,0c-24.55,0 -44.53,19.99 -44.53,44.54l0,167.76c-17.75,-8.46 -37.19,-12.75 -57.84,-12.75c-28.8,0 -55.02,7.1 -77.96,21.08c-22.91,13.97 -40.99,33.46 -53.76,57.92c-12.48,23.91 -18.81,51.18 -18.81,81.06c0,30.26 6.43,57.82 19.12,81.93c12.98,24.67 31.26,44.23 54.34,58.16c23.09,13.94 49.38,21.02 78.12,21.02c22.28,0 43.17,-5.15 62.09,-15.28c1.08,-0.58 2.17,-1.18 3.25,-1.81c3.57,4.89 8.11,9.03 13.33,12.12c6.84,4.06 14.67,6.2 22.65,6.2l4.68,0c24.56,0 44.53,-19.98 44.53,-44.53l0,-432.88c0,-24.55 -19.98,-44.54 -44.53,-44.54zm-107.05,430.11c-10.88,0 -20.18,-2.61 -28.44,-7.96c-8.57,-5.56 -15.19,-13.3 -20.25,-23.68c-5.38,-11.02 -8.11,-24.1 -8.11,-38.86c0,-14.37 2.71,-27.14 8.05,-37.96c5.06,-10.24 11.71,-17.94 20.32,-23.53c8.26,-5.36 17.56,-7.96 28.43,-7.96c11.29,0 20.9,2.63 29.37,8.06c8.66,5.55 15.33,13.26 20.36,23.57c5.38,11.03 8.11,23.93 8.11,38.35c0,14.41 -2.73,27.32 -8.11,38.33c-5.03,10.32 -11.69,18.03 -20.36,23.58c-8.48,5.42 -18.08,8.06 -29.37,8.06z" id="svg_165"/>
    </g>
   </g>
   <path d="m1285.71,802.07l-2.41,0l0,-9.66l2.41,0l0,9.66zm0,-19.32l-2.41,0l0,-9.66l2.41,0l0,9.66zm0,-19.33l-2.41,0l0,-9.66l2.41,0l0,9.66zm0,-19.32l-2.41,0l0,-9.66l2.41,0l0,9.66zm0,-19.32l-2.41,0l0,-9.67l2.41,0l0,9.67zm0,-19.33l-2.41,0l0,-9.66l2.41,0l0,9.66zm0,-19.32l-2.41,0l0,-9.66l2.41,0l0,9.66zm0,-19.33l-2.41,0l0,-9.65l2.41,0l0,9.65zm0,-19.32l-2.41,0l0,-9.66l2.41,0l0,9.66zm0,-19.32l-2.41,0l0,-9.66l2.41,0l0,9.66zm0,-19.32l-2.41,0l0,-9.67l2.41,0l0,9.67zm0,-19.33l-2.41,0l0,-9.66l2.41,0l0,9.66zm0,-19.32l-2.41,0l0,-9.66l2.41,0l0,9.66zm0,-19.33l-2.41,0l0,-9.66l2.41,0l0,9.66zm0,-19.32l-2.41,0l0,-9.66l2.41,0l0,9.66zm0,-19.32l-2.41,0l0,-9.66l2.41,0l0,9.66zm0,-19.33l-2.41,0l0,-9.66l2.41,0l0,9.66zm0,-19.32l-2.41,0l0,-9.66l2.41,0l0,9.66zm0,-19.32l-2.41,0l0,-9.66l2.41,0l0,9.66zm0,-19.33l-2.41,0l0,-9.66l2.41,0l0,9.66zm0,-19.32l-2.41,0l0,-9.66l2.41,0l0,9.66zm0,-19.32l-2.41,0l0,-1.22l2.41,0l0,1.22z" fill="#59595C" id="svg_166"/>
   <path d="m1179.6,806.25l0,-2.41c3.19,-0.01 6.4,-0.15 9.55,-0.42l0.2,2.41c-3.21,0.27 -6.48,0.42 -9.75,0.42zm-9.74,-0.35c-3.28,-0.26 -6.55,-0.65 -9.69,-1.17l0.4,-2.38c3.07,0.51 6.26,0.89 9.48,1.14l-0.19,2.41zm29.17,-1.33l-0.42,-2.38c3.14,-0.55 6.27,-1.25 9.31,-2.07l0.63,2.33c-3.11,0.85 -6.31,1.56 -9.52,2.12zm-48.41,-1.9c-3.15,-0.85 -6.28,-1.86 -9.3,-3.01l0.85,-2.26c2.95,1.13 6,2.11 9.08,2.94l-0.63,2.33zm67.23,-3.21l-0.85,-2.26c2.99,-1.12 5.93,-2.39 8.74,-3.78l1.07,2.16c-2.89,1.43 -5.9,2.73 -8.96,3.88zm-85.48,-3.74c-2.28,-1.16 -4.57,-2.42 -6.79,-3.77c-0.58,-0.35 -1.15,-0.7 -1.71,-1.06l1.29,-2.04c0.55,0.35 1.11,0.69 1.67,1.03c2.17,1.32 4.39,2.56 6.62,3.68l-1.08,2.16zm102.98,-4.91l-1.29,-2.05c2.69,-1.69 5.3,-3.55 7.77,-5.5l1.5,1.9c-2.54,2.01 -5.22,3.9 -7.98,5.65zm-119.47,-5.54c-2.57,-2 -5.06,-4.16 -7.4,-6.39l1.67,-1.75c2.28,2.18 4.71,4.28 7.21,6.23l-1.48,1.91zm134.77,-6.61l-1.7,-1.72c2.25,-2.22 4.39,-4.6 6.38,-7.07l1.88,1.51c-2.04,2.54 -4.25,4.98 -6.56,7.28zm-148.88,-6.9c-2.08,-2.43 -4.09,-5.03 -5.97,-7.72l1.97,-1.39c1.84,2.62 3.81,5.16 5.84,7.55l-1.84,1.56zm161.14,-8.33l-2.04,-1.3c1.69,-2.65 3.25,-5.45 4.66,-8.3l2.17,1.07c-1.45,2.94 -3.06,5.8 -4.79,8.53zm-172.36,-7.63c-0.85,-1.48 -1.69,-3.01 -2.49,-4.55c-0.7,-1.34 -1.38,-2.71 -2.03,-4.09l2.18,-1.03c0.63,1.35 1.3,2.69 1.99,3.99c0.78,1.52 1.61,3.02 2.45,4.47l-2.1,1.21zm-8.3,-17.64c-1.12,-3 -2.14,-6.12 -3.03,-9.26l2.33,-0.66c0.87,3.08 1.86,6.14 2.96,9.09l-2.26,0.83zm-5.32,-18.73c-0.64,-3.14 -1.18,-6.37 -1.61,-9.62l2.4,-0.31c0.41,3.19 0.94,6.37 1.57,9.44l-2.36,0.49zm-2.55,-19.31c-0.21,-3.18 -0.32,-6.45 -0.34,-9.72l2.41,-0.02c0.02,3.23 0.13,6.45 0.34,9.58l-2.41,0.16zm2.31,-19.32l-2.41,-0.13c0.18,-3.28 0.48,-6.54 0.86,-9.71l2.4,0.3c-0.38,3.11 -0.66,6.33 -0.85,9.54zm2.36,-19l-2.37,-0.47c0.64,-3.21 1.39,-6.4 2.25,-9.48l2.33,0.64c-0.84,3.03 -1.59,6.16 -2.21,9.31zm5.14,-18.41l-2.26,-0.84c1.13,-3.06 2.39,-6.08 3.76,-9l2.19,1.02c-1.35,2.85 -2.58,5.82 -3.69,8.82zm8.11,-17.28l-2.09,-1.21c1.65,-2.86 3.41,-5.63 5.24,-8.24l1.98,1.38c-1.79,2.55 -3.51,5.27 -5.13,8.07zm10.96,-15.62l-1.84,-1.57c2.12,-2.48 4.37,-4.88 6.7,-7.11l1.68,1.74c-2.28,2.18 -4.47,4.52 -6.54,6.94zm13.73,-13.19l-1.48,-1.9c2.52,-1.99 5.2,-3.89 7.96,-5.65l1.31,2.03c-2.7,1.73 -5.32,3.58 -7.79,5.52zm115.72,-3.3c-2.72,-1.82 -5.45,-3.5 -8.13,-5.01l1.19,-2.11c2.73,1.54 5.52,3.26 8.29,5.12l-1.35,2zm-99.66,-6.97l-1.1,-2.14c2.9,-1.48 5.91,-2.83 8.93,-3.99l0.87,2.25c-2.94,1.14 -5.88,2.45 -8.7,3.88zm83.02,-2.38c-2.93,-1.33 -5.91,-2.51 -8.86,-3.5l0.77,-2.29c3.03,1.02 6.08,2.23 9.09,3.59l-1,2.2zm-65.27,-4.48l-0.64,-2.32c3.09,-0.85 6.31,-1.56 9.54,-2.11l0.41,2.38c-3.16,0.54 -6.29,1.23 -9.31,2.05zm47.24,-1.59c-3.09,-0.69 -6.25,-1.2 -9.4,-1.54l0.26,-2.4c3.24,0.35 6.48,0.88 9.66,1.58l-0.52,2.36zm-28.45,-1.65l-0.2,-2.4c3.16,-0.26 6.44,-0.39 9.74,-0.4l0.01,2.42c-3.25,0 -6.46,0.13 -9.55,0.38z" fill="#59595C" id="svg_167"/>
   <path d="m1284.51,816.96l9.88,-17.12l-19.76,0l9.88,17.12z" fill="#59595C" id="svg_168"/>
   <path d="m1272.46,762.9l0,-19.77l-17.11,9.88l17.11,9.89z" fill="#59595C" id="svg_169"/>
   <path d="m1257.09,592.02l-2.8,0c-0.32,0 -0.62,0.14 -0.83,0.38l-8.26,9.66c-0.36,0.43 -0.34,1.08 0.06,1.48l1.57,1.57c0.43,0.42 1.11,0.42 1.54,0l4.83,-4.78l0,20.95c0,0.59 0.49,1.08 1.09,1.08l2.8,0c0.6,0 1.09,-0.49 1.09,-1.08l0,-28.18c0,-0.59 -0.49,-1.08 -1.09,-1.08z" fill="#FCFDFF" id="svg_171"/>
   <path d="m1293.26,386.65l-12.28,0c0.16,-0.29 0.38,-0.59 0.66,-0.91c0.78,-0.85 2.01,-1.99 3.69,-3.36l-0.02,-0.02c0.25,-0.17 0.53,-0.42 0.85,-0.69c2.37,-2 4.26,-3.97 5.63,-5.85c1.45,-1.99 2.19,-4.29 2.19,-6.83c0,-2.51 -0.86,-4.56 -2.55,-6.07c-1.66,-1.49 -3.88,-2.24 -6.6,-2.24c-1.89,0 -3.75,0.47 -5.52,1.41c-1.74,0.92 -3.24,2.22 -4.43,3.86c-0.34,0.46 -0.26,1.1 0.17,1.47l2.27,1.94c0.23,0.19 0.51,0.29 0.83,0.25c0.3,-0.03 0.57,-0.18 0.75,-0.43c0.87,-1.17 1.81,-2.07 2.81,-2.67c1.91,-1.15 4.56,-1.15 5.93,0.08c0.66,0.6 0.99,1.39 0.99,2.4c0,1.69 -0.43,3.15 -1.31,4.43c-0.92,1.36 -2.26,2.79 -4,4.27c-0.09,0.08 -0.54,0.45 -1.36,1.11c-1.43,1.18 -2.59,2.22 -3.46,3.07c-0.9,0.88 -1.66,1.9 -2.27,3.02c-0.65,1.19 -0.98,2.5 -0.98,3.89l0,1.77c0,0.6 0.48,1.09 1.09,1.09l16.92,0c0.6,0 1.09,-0.49 1.09,-1.09l0,-2.81c0,-0.6 -0.49,-1.09 -1.09,-1.09z" fill="#FCFDFF" id="svg_173"/>
  </g>
 </g>
</svg>