<?xml version="1.0"?>
<svg width="2000" height="2000" xmlns="http://www.w3.org/2000/svg" xmlns:svg="http://www.w3.org/2000/svg" enable-background="new 0 0 2000 2000" version="1.1" xml:space="preserve">
 <g class="layer">
  <title>Layer 1</title>
  <g id="svg_147">
   <path d="m664.84,847.15c-28.4,0 -51.5,-23.09 -51.5,-51.48l0,-409.25c0,-28.39 23.1,-51.48 51.5,-51.48l90.46,0c51.22,0 96.38,10.22 134.23,30.38c38.9,20.72 69,51.18 89.46,90.52c19.85,38.22 29.92,83.94 29.92,135.86c0,78.6 -22.78,141.47 -67.71,186.88c-45.03,45.5 -107.57,68.57 -185.9,68.57l-90.46,0zm89.13,-104.43c45.82,0 81.57,-12.15 106.28,-36.12c24.46,-23.73 36.85,-62.38 36.85,-114.89c0,-52.94 -12.4,-91.82 -36.85,-115.55c-24.71,-23.97 -60.47,-36.13 -106.28,-36.13l-31.48,0l0,302.69l31.48,0z" fill="#FFFFFF" id="svg_148"/>
   <g id="svg_149">
    <defs>
     <rect height="521.93" id="SVGID_00000108293280634047850040000013602258429357915067_" width="405.19" x="608.53" y="330.06"/>
    </defs>
    <clipPath id="SVGID_00000087405376628135275060000000627488500003733659_">
     <use href="#SVGID_00000108293280634047850040000013602258429357915067_" id="svg_150" overflow="visible"/>
    </clipPath>
    <g clip-path="url(#SVGID_00000087405376628135275060000000627488500003733659_)" id="svg_151">
     <path d="m755.3,334.94c51.22,0 96.38,10.22 134.23,30.38c38.9,20.72 69,51.18 89.46,90.52c19.85,38.22 29.92,83.94 29.92,135.86c0,78.6 -22.78,141.47 -67.71,186.88c-45.03,45.5 -107.57,68.57 -185.9,68.57l-90.46,0c-28.4,0 -51.5,-23.09 -51.5,-51.48l0,-409.25c0,-28.39 23.1,-51.48 51.5,-51.48l90.46,0m-32.81,407.78l31.48,0c45.82,0 81.57,-12.15 106.28,-36.12c24.46,-23.73 36.85,-62.38 36.85,-114.89c0,-52.94 -12.4,-91.82 -36.85,-115.55c-24.71,-23.97 -60.47,-36.13 -106.28,-36.13l-31.48,0l0,302.69m32.81,-412.58l-90.46,0c-31.04,0 -56.31,25.24 -56.31,56.27l0,409.26c0,31.03 25.27,56.28 56.31,56.28l90.46,0c79.66,0 143.35,-23.55 189.31,-69.99c45.86,-46.35 69.11,-110.36 69.11,-190.26c0,-52.7 -10.25,-99.16 -30.46,-138.07c-20.92,-40.23 -51.7,-71.36 -91.47,-92.55c-38.55,-20.53 -84.47,-30.94 -136.49,-30.94zm-28.01,114.69l26.68,0c44.52,0 79.15,11.7 102.93,34.77c23.49,22.8 35.4,60.52 35.4,112.1c0,51.17 -11.91,88.67 -35.4,111.45c-23.77,23.07 -58.4,34.77 -102.93,34.77l-26.68,0l0,-293.09z" id="svg_152"/>
    </g>
   </g>
   <path d="m749.44,799.47l-9.6,0l0,-2.4l9.6,0l0,2.4zm-19.2,0l-9.61,0l0,-2.4l9.61,0l0,2.4zm-19.21,0l-9.61,0l0,-2.4l9.61,0l0,2.4zm48.05,-0.16l-0.07,-2.39c3.2,-0.1 6.41,-0.25 9.55,-0.45l0.15,2.39c-3.16,0.2 -6.4,0.35 -9.63,0.45zm19.24,-1.22l-0.23,-2.39c3.19,-0.31 6.38,-0.68 9.5,-1.09l0.32,2.37c-3.15,0.42 -6.37,0.79 -9.59,1.11zm19.13,-2.58l-0.42,-2.36c3.16,-0.55 6.32,-1.16 9.38,-1.83l0.51,2.35c-3.1,0.67 -6.29,1.29 -9.47,1.84zm18.86,-4.08l-0.61,-2.33c3.08,-0.8 6.18,-1.68 9.18,-2.62l0.71,2.3c-3.04,0.94 -6.16,1.83 -9.28,2.65zm18.43,-5.74l-0.82,-2.26c3,-1.09 5.99,-2.26 8.89,-3.48l0.93,2.21c-2.94,1.24 -5.96,2.42 -9,3.53zm17.8,-7.51l-1.05,-2.16c2.87,-1.39 5.72,-2.86 8.47,-4.38l1.17,2.1c-2.8,1.54 -5.69,3.03 -8.59,4.44zm16.91,-9.34l-1.27,-2.04c2.69,-1.68 5.36,-3.46 7.93,-5.28l1.39,1.96c-2.62,1.85 -5.32,3.65 -8.05,5.36zm15.79,-11.16l-1.5,-1.88c2.48,-1.97 4.92,-4.03 7.29,-6.14l1.6,1.79c-2.4,2.14 -4.88,4.23 -7.39,6.23zm14.42,-12.86l-1.71,-1.7c0.25,-0.25 0.51,-0.5 0.76,-0.75c1.97,-2 3.93,-4.08 5.8,-6.17l1.79,1.6c-1.9,2.12 -3.88,4.23 -5.89,6.26c-0.25,0.25 -0.5,0.51 -0.75,0.76zm12.89,-14.4l-1.88,-1.49c1.98,-2.47 3.91,-5.03 5.74,-7.61l1.96,1.39c-1.87,2.62 -3.82,5.22 -5.82,7.71zm11.2,-15.74l-2.03,-1.28c1.69,-2.66 3.32,-5.42 4.87,-8.19l2.1,1.17c-1.57,2.81 -3.23,5.6 -4.94,8.3zm9.41,-16.86l-2.15,-1.06c1.38,-2.81 2.72,-5.73 3.97,-8.66l2.21,0.94c-1.27,2.97 -2.62,5.92 -4.03,8.78zm7.61,-17.74l-2.25,-0.84c1.08,-2.95 2.13,-5.98 3.09,-9.02l2.29,0.73c-0.97,3.07 -2.03,6.14 -3.13,9.13zm5.85,-18.4l-2.32,-0.62c0.81,-3.03 1.58,-6.15 2.28,-9.27l2.34,0.53c-0.7,3.15 -1.48,6.3 -2.3,9.36zm4.22,-18.82l-2.37,-0.43c0.56,-3.09 1.08,-6.26 1.52,-9.43l2.38,0.34c-0.46,3.2 -0.97,6.4 -1.53,9.52zm2.71,-19.09l-2.39,-0.25c0.33,-3.11 0.62,-6.32 0.85,-9.52l2.39,0.17c-0.23,3.23 -0.51,6.46 -0.85,9.6zm1.38,-19.22l-2.4,-0.09c0.13,-3.13 0.2,-6.35 0.24,-9.56l2.39,0.02c-0.03,3.24 -0.11,6.47 -0.23,9.63zm-2.22,-19.21c-0.07,-3.2 -0.17,-6.42 -0.34,-9.55l2.4,-0.12c0.16,3.16 0.28,6.4 0.34,9.63l-2.4,0.04zm-0.97,-19.09c-0.28,-3.19 -0.6,-6.39 -0.96,-9.51l2.38,-0.28c0.37,3.15 0.7,6.38 0.97,9.59l-2.39,0.2zm-2.26,-18.98c-0.49,-3.16 -1.04,-6.32 -1.64,-9.4l2.35,-0.46c0.61,3.11 1.17,6.31 1.66,9.5l-2.37,0.36zm-3.66,-18.74c-0.74,-3.11 -1.54,-6.22 -2.4,-9.24l2.31,-0.65c0.86,3.05 1.68,6.19 2.43,9.34l-2.34,0.55zm-5.2,-18.36c-1,-3.03 -2.09,-6.06 -3.21,-9l2.24,-0.85c1.14,2.97 2.24,6.03 3.25,9.1l-2.28,0.75zm-6.86,-17.82c-1.29,-2.91 -2.65,-5.81 -4.07,-8.62l2.14,-1.08c1.44,2.84 2.82,5.78 4.13,8.73l-2.2,0.97zm-8.59,-17.02c-1.58,-2.76 -3.25,-5.5 -4.96,-8.15l2.02,-1.3c1.73,2.68 3.42,5.46 5.03,8.26l-2.09,1.19zm-10.35,-16.01c-1.87,-2.57 -3.83,-5.11 -5.83,-7.55l1.86,-1.52c2.03,2.47 4.02,5.05 5.91,7.65l-1.94,1.42zm-12.07,-14.75c-2.15,-2.33 -4.39,-4.62 -6.66,-6.82l1.67,-1.72c2.3,2.22 4.58,4.55 6.75,6.92l-1.76,1.62zm-13.7,-13.25c-2.38,-2.05 -4.87,-4.08 -7.39,-6l1.46,-1.91c2.56,1.96 5.08,4 7.51,6.09l-1.58,1.82zm-15.11,-11.58c-2.61,-1.78 -5.3,-3.5 -8.03,-5.15l1.25,-2.05c2.75,1.67 5.49,3.42 8.13,5.21l-1.35,1.99zm-16.32,-9.84c-2.78,-1.48 -5.65,-2.91 -8.53,-4.26l1.01,-2.17c2.92,1.36 5.83,2.81 8.65,4.31l-1.13,2.12zm-17.27,-8.07c-2.92,-1.18 -5.91,-2.32 -8.92,-3.37l0.8,-2.27c3.03,1.07 6.08,2.22 9.02,3.42l-0.9,2.22zm-18,-6.32c-3.01,-0.9 -6.11,-1.76 -9.21,-2.53l0.59,-2.33c3.13,0.79 6.26,1.65 9.31,2.56l-0.69,2.3zm-18.52,-4.67c-3.07,-0.64 -6.24,-1.23 -9.39,-1.75l0.39,-2.37c3.19,0.53 6.38,1.13 9.49,1.77l-0.49,2.35zm-18.85,-3.13c-3.12,-0.39 -6.31,-0.74 -9.5,-1.03l0.21,-2.39c3.22,0.29 6.45,0.64 9.59,1.04l-0.3,2.38zm-19.04,-1.72c-3.14,-0.18 -6.36,-0.3 -9.56,-0.38l0.06,-2.4c3.23,0.08 6.47,0.21 9.64,0.38l-0.14,2.4zm-19.13,-0.46l-9.61,0l0,-2.41l9.61,0l0,2.41z" fill="#59595C" id="svg_153"/>
   <path d="m691.05,798.27l17.03,-9.82l0,19.64l-17.03,-9.82z" fill="#59595C" id="svg_154"/>
   <path d="m668.31,809.53l-2.4,0l0,-3.54l2.4,0l0,3.54zm0,-13.14l-2.4,0l0,-9.6l2.4,0l0,9.6zm0,-19.2l-2.4,0l0,-9.6l2.4,0l0,9.6zm0,-19.2l-2.4,0l0,-9.59l2.4,0l0,9.59zm0,-19.19l-2.4,0l0,-9.6l2.4,0l0,9.6zm0,-19.2l-2.4,0l0,-9.59l2.4,0l0,9.59zm0,-19.19l-2.4,0l0,-9.6l2.4,0l0,9.6zm0,-19.2l-2.4,0l0,-9.6l2.4,0l0,9.6zm0,-19.2l-2.4,0l0,-9.6l2.4,0l0,9.6zm0,-19.19l-2.4,0l0,-9.6l2.4,0l0,9.6zm0,-19.2l-2.4,0l0,-9.6l2.4,0l0,9.6zm0,-19.2l-2.4,0l0,-9.6l2.4,0l0,9.6zm0,-19.2l-2.4,0l0,-9.6l2.4,0l0,9.6zm0,-19.19l-2.4,0l0,-9.6l2.4,0l0,9.6zm0,-19.2l-2.4,0l0,-9.59l2.4,0l0,9.59zm0,-19.19l-2.4,0l0,-9.6l2.4,0l0,9.6zm0,-19.2l-2.4,0l0,-9.6l2.4,0l0,9.6zm0,-19.2l-2.4,0l0,-9.6l2.4,0l0,9.6zm0,-19.19l-2.4,0l0,-9.6l2.4,0l0,9.6zm0,-19.2l-2.4,0l0,-9.6l2.4,0l0,9.6zm0,-19.2l-2.4,0l0,-9.6l2.4,0l0,9.6zm0,-19.2l-2.4,0l0,-9.6l2.4,0l0,9.6z" fill="#59595C" id="svg_155"/>
   <path d="m667.11,820.87l9.83,-17.01l-19.66,0l9.83,17.01z" fill="#59595C" id="svg_156"/>
   <path d="m668.18,367.92l-3.1,0c-0.35,0 -0.69,0.15 -0.92,0.42l-9.13,10.67c-0.4,0.48 -0.37,1.18 0.07,1.63l1.74,1.73c0.46,0.47 1.22,0.47 1.69,0l5.35,-5.27l0,23.11c0,0.67 0.53,1.21 1.2,1.21l3.1,0c0.66,0 1.2,-0.54 1.2,-1.21l0,-31.09c0,-0.66 -0.54,-1.2 -1.2,-1.2z" fill="#FCFDFF" id="svg_158"/>
   <path d="m735.42,395.92l-13.57,0c0.18,-0.33 0.42,-0.67 0.73,-1.01c0.85,-0.95 2.23,-2.19 4.07,-3.71l-0.02,-0.03c0.28,-0.19 0.59,-0.46 0.94,-0.76c2.62,-2.21 4.71,-4.37 6.22,-6.45c1.6,-2.2 2.42,-4.74 2.42,-7.55c0,-2.77 -0.94,-5.03 -2.81,-6.71c-1.84,-1.63 -4.29,-2.46 -7.29,-2.46c-2.1,0 -4.15,0.52 -6.1,1.55c-1.94,1.02 -3.58,2.46 -4.9,4.27c-0.38,0.51 -0.29,1.21 0.19,1.62l2.5,2.15c0.25,0.21 0.58,0.32 0.92,0.28c0.33,-0.05 0.63,-0.22 0.83,-0.48c0.97,-1.3 2.01,-2.29 3.1,-2.95c2.11,-1.28 5.05,-1.27 6.56,0.09c0.73,0.66 1.08,1.53 1.08,2.64c0,1.88 -0.46,3.47 -1.43,4.89c-1.02,1.51 -2.5,3.09 -4.42,4.71c-0.1,0.09 -0.6,0.51 -1.51,1.24c-1.57,1.3 -2.86,2.43 -3.82,3.38c-0.99,0.98 -1.84,2.1 -2.51,3.33c-0.72,1.32 -1.08,2.76 -1.08,4.3l0,1.96c0,0.65 0.53,1.2 1.2,1.2l18.7,0c0.66,0 1.2,-0.55 1.2,-1.2l0,-3.11c0,-0.66 -0.54,-1.19 -1.2,-1.19z" fill="#FCFDFF" id="svg_160"/>
  </g>
 </g>
</svg>