<?xml version="1.0"?>
<svg width="2000" height="2000" xmlns="http://www.w3.org/2000/svg" xmlns:svg="http://www.w3.org/2000/svg" enable-background="new 0 0 2000 2000" version="1.1" xml:space="preserve">
 <g class="layer">
  <title>Layer 1</title>
  <g id="svg_147">
   <path d="m1202.72,869.94c-31.13,0 -76.69,-7.26 -103.15,-23.22c-25.58,-15.42 -45.85,-37.19 -60.22,-64.72c-14.07,-26.92 -21.2,-57.43 -21.2,-90.67s7.03,-63.56 20.91,-90.09c14.14,-27.05 34.16,-48.6 59.51,-64.04c25.37,-15.45 54.44,-23.28 86.36,-23.28c31.88,0 61.01,7.81 86.57,23.22c25.56,15.43 45.81,37.07 60.16,64.32c7.26,13.76 12.74,28.79 16.3,44.67c0.51,2.27 0.97,4.2 1.38,5.93c2.28,9.68 3.21,14.15 3.21,27.59c-0.01,28.68 -23.19,51.82 -51.67,51.82l-179.57,0c0.9,2.31 1.87,4.55 2.92,6.7c6.25,12.78 14.47,22.35 25.14,29.27c8.69,5.63 35.16,9.99 52.14,9.99c17.31,0 44.31,-4.41 53.18,-10.08c2.34,-1.49 4.56,-3.11 6.64,-4.82c8.26,-6.84 18.78,-10.61 29.61,-10.61c9.78,0 19.21,2.97 27.25,8.57c12.35,8.61 19.96,22.74 20.36,37.81c0.39,15.03 -6.15,28.91 -17.94,38.07c-4.74,3.68 -9.77,7.14 -14.94,10.29c-26.29,15.99 -71.79,23.28 -102.95,23.28zm38.13,-234.6c-5.29,-7.73 -11.67,-13.93 -19.32,-18.83c-10.61,-6.78 -22.59,-10.08 -36.6,-10.08c-13.55,0 -25.18,3.27 -35.55,9.99c-7.62,4.94 -14,11.18 -19.29,18.92l110.76,0z" fill="#FFFFFF" id="svg_169"/>
   <g id="svg_170">
    <defs>
     <rect height="367.08" id="SVGID_00000101789841819887189660000017467704444436182966_" width="345.49" x="1012.61" y="508.4"/>
    </defs>
    <clipPath id="SVGID_00000007387477768564723120000002560040697604440972_">
     <use href="#SVGID_00000101789841819887189660000017467704444436182966_" id="svg_171" overflow="visible"/>
    </clipPath>
    <g clip-path="url(#SVGID_00000007387477768564723120000002560040697604440972_)" id="svg_172">
     <path d="m1184.93,513.92c31.88,0 61.01,7.81 86.57,23.22c25.56,15.43 45.81,37.07 60.16,64.32c7.26,13.76 12.74,28.79 16.3,44.67c0.51,2.27 0.97,4.2 1.38,5.93c2.28,9.68 3.21,14.14 3.21,27.59c-0.01,28.68 -23.19,51.82 -51.67,51.82l-179.57,0c0.9,2.31 1.87,4.55 2.92,6.7c6.24,12.78 14.47,22.35 25.14,29.27c8.69,5.63 35.16,9.99 52.14,9.99c17.3,0 44.31,-4.41 53.18,-10.08c2.34,-1.49 4.56,-3.12 6.64,-4.82c8.26,-6.84 18.78,-10.61 29.61,-10.61c9.78,0 19.21,2.97 27.25,8.57c12.35,8.61 19.96,22.74 20.35,37.81c0.4,15.03 -6.14,28.91 -17.94,38.07c-4.73,3.68 -9.76,7.14 -14.93,10.29c-26.29,15.99 -71.8,23.28 -102.96,23.28c-31.12,0 -76.68,-7.26 -103.14,-23.22c-25.59,-15.42 -45.85,-37.19 -60.22,-64.71c-14.07,-26.93 -21.2,-57.44 -21.2,-90.68s7.03,-63.56 20.91,-90.09c14.14,-27.05 34.16,-48.6 59.51,-64.04c25.37,-15.45 54.43,-23.28 86.36,-23.28m-54.84,121.42l110.76,0c-5.29,-7.73 -11.67,-13.93 -19.32,-18.83c-10.61,-6.78 -22.59,-10.08 -36.6,-10.08c-13.55,0 -25.18,3.27 -35.55,9.99c-7.62,4.94 -14,11.18 -19.29,18.92m54.84,-126.94c-32.95,0 -62.98,8.1 -89.24,24.09c-26.22,15.97 -46.92,38.23 -61.54,66.2c-14.29,27.32 -21.53,58.5 -21.53,92.64s7.35,65.51 21.83,93.23c14.85,28.43 35.8,50.94 62.26,66.89c16,9.65 36.88,15.26 51.57,18.28c18.06,3.69 37.39,5.73 54.44,5.73c17.07,0 36.4,-2.04 54.42,-5.75c14.67,-3.02 35.51,-8.66 51.41,-18.34c5.35,-3.26 10.56,-6.84 15.45,-10.64c13.19,-10.26 20.51,-25.77 20.07,-42.57c-0.44,-16.82 -8.93,-32.58 -22.71,-42.19c-8.99,-6.26 -19.51,-9.56 -30.42,-9.56c-12.12,0 -23.89,4.21 -33.14,11.87c-1.9,1.56 -3.94,3.05 -6.08,4.42c-7.14,4.56 -32.47,9.21 -50.2,9.21c-17.38,0 -42.18,-4.6 -49.14,-9.11c-9.46,-6.12 -16.85,-14.58 -22.56,-25.8l171.06,0c15.27,0 29.62,-5.96 40.43,-16.78c10.8,-10.83 16.76,-25.24 16.76,-40.57c0,-14.03 -1.02,-18.98 -3.35,-28.86l-0.02,-0.08c-0.39,-1.68 -0.84,-3.58 -1.34,-5.79c-3.67,-16.35 -9.32,-31.84 -16.8,-46.03c-14.83,-28.15 -35.76,-50.51 -62.2,-66.47c-26.44,-15.94 -56.53,-24.02 -89.43,-24.02zm-43.25,121.42c3.22,-3.31 6.77,-6.22 10.71,-8.77c9.45,-6.12 20.09,-9.1 32.54,-9.1c12.92,0 23.91,3.02 33.62,9.22c3.93,2.51 7.46,5.37 10.67,8.65l-87.54,0z" id="svg_173"/>
    </g>
   </g>
   <path d="m1284.9,620.23c-0.91,-1.57 -1.88,-3.13 -2.86,-4.65l2.31,-1.51c1.02,1.56 2,3.16 2.94,4.77l-2.39,1.39z" fill="#59595C" id="svg_174"/>
   <path d="m1204.08,827.84c-0.6,0 -1.21,0 -1.81,-0.01l0.04,-2.77c3.7,0.05 7.43,-0.05 11.08,-0.29l0.19,2.75c-3.14,0.21 -6.33,0.32 -9.5,0.32zm-13.09,-0.59c-3.73,-0.34 -7.5,-0.82 -11.22,-1.43l0.46,-2.72c3.64,0.6 7.35,1.07 11,1.4l-0.24,2.75zm33.83,-0.95l-0.41,-2.73c0.89,-0.14 1.79,-0.28 2.68,-0.44c2.64,-0.45 5.41,-1.01 8.22,-1.65l0.61,2.69c-2.85,0.65 -5.67,1.22 -8.37,1.69c-0.91,0.15 -1.82,0.3 -2.73,0.44zm-56.12,-2.74c-3.65,-0.88 -7.31,-1.92 -10.87,-3.07l0.84,-2.63c3.51,1.14 7.1,2.15 10.69,3.02l-0.66,2.68zm78.14,-2.26l-0.79,-2.65c3.52,-1.03 7.08,-2.2 10.58,-3.44l0.93,2.6c-3.56,1.26 -7.16,2.44 -10.72,3.49zm-99.63,-4.67c-3.49,-1.42 -6.96,-2.98 -10.3,-4.64l1.23,-2.48c3.28,1.64 6.68,3.17 10.11,4.56l-1.04,2.56zm120.86,-2.89l-1.07,-2.55c3.49,-1.46 6.89,-3.01 10.12,-4.59l1.22,2.47c-3.28,1.61 -6.73,3.19 -10.27,4.67zm-141.08,-7.18c-3.23,-1.94 -6.41,-4.03 -9.45,-6.19l1.61,-2.25c2.97,2.13 6.09,4.17 9.27,6.07l-1.43,2.37zm-18.36,-13.15c-2.88,-2.45 -5.66,-5.05 -8.27,-7.71l1.97,-1.93c2.55,2.6 5.28,5.14 8.1,7.54l-1.8,2.1zm-15.82,-16.14c-2.38,-2.94 -4.64,-6.01 -6.7,-9.12l2.31,-1.52c2.01,3.03 4.21,6.03 6.54,8.9l-2.15,1.74zm-12.46,-18.88c-1.73,-3.31 -3.34,-6.75 -4.79,-10.23l2.55,-1.06c1.42,3.41 3,6.77 4.69,10.02l-2.45,1.27zm-8.68,-20.85c-1.13,-3.54 -2.13,-7.21 -2.98,-10.89l2.7,-0.62c0.83,3.61 1.81,7.2 2.91,10.68l-2.63,0.83zm-5.07,-21.99c-0.55,-3.66 -0.97,-7.44 -1.26,-11.22l2.76,-0.2c0.28,3.71 0.69,7.41 1.22,11.01l-2.72,0.41zm-1.71,-22.49c0,-0.38 0,-0.76 0,-1.13c0,-3.41 0.09,-6.82 0.3,-10.15l2.75,0.17c-0.19,3.27 -0.29,6.63 -0.29,9.98c0,0.37 0,0.74 0,1.11l-2.76,0.02zm4.1,-22.15l-2.74,-0.36c0.49,-3.75 1.13,-7.49 1.9,-11.12l2.7,0.57c-0.75,3.56 -1.37,7.23 -1.86,10.91zm4.56,-21.64l-2.64,-0.79c1.06,-3.61 2.29,-7.21 3.65,-10.68l2.57,0.99c-1.32,3.41 -2.53,6.93 -3.58,10.48zm8.05,-20.6l-2.48,-1.22c0.36,-0.74 0.74,-1.48 1.11,-2.21c1.36,-2.63 2.81,-5.21 4.33,-7.69l2.36,1.43c-1.48,2.43 -2.9,4.96 -4.23,7.53c-0.37,0.71 -0.74,1.44 -1.09,2.16zm11.49,-18.87l-2.22,-1.64c2.26,-3.04 4.67,-5.98 7.18,-8.75l2.05,1.85c-2.45,2.71 -4.8,5.58 -7.01,8.54zm182.49,-3.2c-2.28,-2.89 -4.74,-5.69 -7.28,-8.32l1.99,-1.91c2.61,2.69 5.12,5.56 7.46,8.51l-2.17,1.72zm-167.67,-13.16l-1.86,-2.05c2.78,-2.52 5.73,-4.94 8.76,-7.18l1.64,2.22c-2.95,2.19 -5.83,4.54 -8.54,7.01zm152.32,-2.71c-2.79,-2.36 -5.73,-4.63 -8.76,-6.73l1.57,-2.27c3.11,2.15 6.13,4.48 8.98,6.9l-1.79,2.1zm-134.58,-10.45l-1.43,-2.36c3.23,-1.94 6.59,-3.73 9.99,-5.34l1.18,2.5c-3.31,1.56 -6.59,3.31 -9.74,5.2zm116.44,-2.14c-3.22,-1.79 -6.55,-3.44 -9.91,-4.89l1.09,-2.53c3.45,1.49 6.87,3.17 10.17,5.01l-1.35,2.41zm-96.47,-7.26l-0.92,-2.6c3.52,-1.25 7.17,-2.35 10.85,-3.26l0.66,2.68c-3.59,0.89 -7.15,1.96 -10.59,3.18zm76.2,-1.49c-3.48,-1.1 -7.08,-2.04 -10.69,-2.8l0.56,-2.7c3.71,0.77 7.4,1.74 10.96,2.87l-0.83,2.63zm-54.75,-3.84l-0.41,-2.73c3.67,-0.56 7.46,-0.96 11.25,-1.19l0.17,2.75c-3.71,0.23 -7.42,0.63 -11.01,1.17zm33.14,-0.69c-3.61,-0.4 -7.33,-0.64 -11.05,-0.72l0.06,-2.76c3.8,0.08 7.6,0.32 11.29,0.74l-0.3,2.74z" fill="#59595C" id="svg_175"/>
   <path d="m1288.34,803.67l-1.41,-2.37c1.62,-0.95 3.17,-1.92 4.64,-2.88l1.52,2.3c-1.51,0.99 -3.11,1.98 -4.75,2.95z" fill="#59595C" id="svg_176"/>
   <path d="m1305.29,686.43l-0.99,0l0,-2.76l0.99,0l0,2.76zm-12.04,0l-11.06,0l0,-2.76l11.06,0l0,2.76zm-22.12,0l-11.05,0l0,-2.76l11.05,0l0,2.76zm-22.11,0l-11.05,0l0,-2.76l11.05,0l0,2.76zm-22.11,0l-11.06,0l0,-2.76l11.06,0l0,2.76zm-22.11,0l-11.06,0l0,-2.76l11.06,0l0,2.76zm-22.12,0l-11.05,0l0,-2.76l11.05,0l0,2.76zm-22.11,0l-11.06,0l0,-2.76l11.06,0l0,2.76zm-22.11,0l-11.06,0l0,-2.76l11.06,0l0,2.76zm-22.12,0l-11.05,0l0,-2.76l11.05,0l0,2.76z" fill="#59595C" id="svg_177"/>
   <path d="m1317.53,685.05l-19.6,-11.3l0,22.6l19.6,-11.3z" fill="#59595C" id="svg_178"/>
   <path d="m1105.69,666.96l-3.2,0c-0.37,0 -0.72,0.16 -0.95,0.44l-9.45,11.04c-0.42,0.49 -0.4,1.23 0.06,1.69l1.8,1.8c0.48,0.48 1.27,0.48 1.75,0l5.54,-5.46l0,23.93c0,0.68 0.56,1.24 1.25,1.24l3.21,0c0.69,0 1.24,-0.56 1.24,-1.24l0,-32.19c0,-0.69 -0.56,-1.25 -1.25,-1.25z" fill="#FCFDFF" id="svg_180"/>
   <path d="m1304.66,651.94l-14.06,0c0.19,-0.33 0.43,-0.69 0.77,-1.04c0.87,-0.97 2.3,-2.27 4.21,-3.84l-0.02,-0.03c0.29,-0.19 0.6,-0.47 0.97,-0.78c2.71,-2.29 4.88,-4.54 6.44,-6.68c1.66,-2.28 2.51,-4.92 2.51,-7.82c0,-2.87 -0.98,-5.21 -2.91,-6.95c-1.91,-1.69 -4.44,-2.55 -7.55,-2.55c-2.18,0 -4.31,0.54 -6.32,1.61c-2.01,1.05 -3.71,2.55 -5.08,4.42c-0.39,0.53 -0.3,1.25 0.2,1.67l2.6,2.23c0.25,0.22 0.58,0.33 0.94,0.29c0.35,-0.04 0.65,-0.22 0.86,-0.5c1,-1.34 2.08,-2.37 3.22,-3.05c2.18,-1.32 5.23,-1.32 6.79,0.1c0.75,0.68 1.13,1.58 1.13,2.73c0,1.94 -0.49,3.59 -1.49,5.06c-1.06,1.56 -2.59,3.2 -4.58,4.88c-0.1,0.09 -0.62,0.51 -1.56,1.28c-1.64,1.35 -2.97,2.53 -3.96,3.5c-1.03,1.01 -1.91,2.17 -2.61,3.45c-0.74,1.36 -1.12,2.86 -1.12,4.45l0,2.03c0,0.68 0.56,1.23 1.24,1.23l19.39,0c0.68,0 1.24,-0.55 1.24,-1.23l0,-3.22c0,-0.68 -0.56,-1.24 -1.25,-1.24z" fill="#FCFDFF" id="svg_182"/>
   <path d="m1306.09,789.67l-22.23,4.21l14.77,17.12l7.46,-21.33z" fill="#59595C" id="svg_183"/>
  </g>
 </g>
</svg>