<?xml version="1.0"?>
<svg width="2000" height="2000" xmlns="http://www.w3.org/2000/svg" xmlns:svg="http://www.w3.org/2000/svg" enable-background="new 0 0 2000 2000" version="1.1" xml:space="preserve">
 <g class="layer">
  <title>Layer 1</title>
  <g id="svg_147">
   <path d="m708,870.86c-28.79,0 -52.22,-23.46 -52.22,-52.28l0,-432.15c0,-28.83 23.43,-52.28 52.22,-52.28l223.17,0c28.8,0 52.22,23.45 52.22,52.28l0,1.39c0,28.82 -23.42,52.27 -52.22,52.27l-161.21,0l0,103.52l114.63,0c28.8,0 52.23,23.45 52.23,52.28c0,28.83 -23.43,52.28 -52.23,52.28l-114.63,0l0,117.44l163.29,0c28.8,0 52.23,23.45 52.23,52.28l0,0.69c0,28.82 -23.43,52.28 -52.23,52.28l-225.25,0z" fill="#FFFFFF" id="svg_148"/>
   <g id="svg_149">
    <defs>
     <rect height="547.02" id="SVGID_00000078739064063904784100000004270427679053054104_" width="339.73" x="650.76" y="328.98"/>
    </defs>
    <clipPath id="SVGID_00000037669588225622646930000009250894328520524973_">
     <use href="#SVGID_00000078739064063904784100000004270427679053054104_" id="svg_150" overflow="visible"/>
    </clipPath>
    <g clip-path="url(#SVGID_00000037669588225622646930000009250894328520524973_)" id="svg_151">
     <path d="m931.17,334.14c28.8,0 52.22,23.46 52.22,52.28l0,1.4c0,28.82 -23.42,52.27 -52.22,52.27l-161.21,0l0,103.52l114.63,0c28.8,0 52.23,23.45 52.23,52.28c0,28.83 -23.43,52.28 -52.23,52.28l-114.63,0l0,117.44l163.29,0c28.8,0 52.23,23.45 52.23,52.28l0,0.69c0,28.82 -23.43,52.28 -52.23,52.28l-225.25,0c-28.79,0 -52.22,-23.46 -52.22,-52.28l0,-432.15c0,-28.83 23.43,-52.28 52.22,-52.28l223.17,0m0,-5.04l-223.17,0c-31.56,0 -57.24,25.71 -57.24,57.31l0,432.16c0,31.6 25.68,57.31 57.24,57.31l225.25,0c31.57,0 57.25,-25.71 57.25,-57.31l0,-0.69c0,-31.61 -25.68,-57.32 -57.25,-57.32l-158.26,0l0,-107.38l109.6,0c31.57,0 57.25,-25.7 57.25,-57.3c0,-31.6 -25.68,-57.3 -57.25,-57.3l-109.6,0l0,-93.47l156.18,0c31.56,0 57.25,-25.71 57.25,-57.3l0,-1.4c0,-31.6 -25.69,-57.31 -57.25,-57.31z" id="svg_152"/>
    </g>
   </g>
   <path d="m938.23,387.42l-10.05,0l0,-2.51l10.05,0l0,2.51zm-20.09,0l-10.06,0l0,-2.51l10.06,0l0,2.51zm-20.1,0l-10.05,0l0,-2.51l10.05,0l0,2.51zm-20.1,0l-10.05,0l0,-2.51l10.05,0l0,2.51zm-20.09,0l-10.05,0l0,-2.51l10.05,0l0,2.51zm-20.1,0l-10.04,0l0,-2.51l10.04,0l0,2.51zm-20.09,0l-10.05,0l0,-2.51l10.05,0l0,2.51zm-20.1,0l-10.05,0l0,-2.51l10.05,0l0,2.51z" fill="#59595C" id="svg_153"/>
   <path d="m954.25,385.89l-17.81,-10.28l0,20.58l17.81,-10.3z" fill="#59595C" id="svg_154"/>
   <path d="m714.36,831.44l-2.51,0l0,-3.72l2.51,0l0,3.72zm0,-13.77l-2.51,0l0,-10.06l2.51,0l0,10.06zm0,-20.12l-2.51,0l0,-10.06l2.51,0l0,10.06zm0,-20.11l-2.51,0l0,-10.06l2.51,0l0,10.06zm0,-20.12l-2.51,0l0,-10.05l2.51,0l0,10.05zm0,-20.11l-2.51,0l0,-10.06l2.51,0l0,10.06zm0,-20.11l-2.51,0l0,-10.07l2.51,0l0,10.07zm0,-20.12l-2.51,0l0,-10.06l2.51,0l0,10.06zm0,-20.11l-2.51,0l0,-10.07l2.51,0l0,10.07zm0,-20.12l-2.51,0l0,-10.05l2.51,0l0,10.05zm0,-20.12l-2.51,0l0,-10.05l2.51,0l0,10.05zm0,-20.11l-2.51,0l0,-10.06l2.51,0l0,10.06zm0,-20.12l-2.51,0l0,-10.05l2.51,0l0,10.05zm0,-20.11l-2.51,0l0,-10.06l2.51,0l0,10.06zm0,-20.11l-2.51,0l0,-10.06l2.51,0l0,10.06zm0,-20.12l-2.51,0l0,-10.06l2.51,0l0,10.06zm0,-20.11l-2.51,0l0,-10.06l2.51,0l0,10.06zm0,-20.12l-2.51,0l0,-10.05l2.51,0l0,10.05zm0,-20.12l-2.51,0l0,-10.05l2.51,0l0,10.05zm0,-20.11l-2.51,0l0,-10.06l2.51,0l0,10.06zm0,-20.11l-2.51,0l0,-10.06l2.51,0l0,10.06zm0,-20.12l-2.51,0l0,-10.06l2.51,0l0,10.06z" fill="#59595C" id="svg_155"/>
   <path d="m713.1,843.33l10.28,-17.83l-20.56,0l10.28,17.83z" fill="#59595C" id="svg_156"/>
   <path d="m714.22,368.7l-3.25,0c-0.36,0 -0.71,0.17 -0.95,0.44l-9.55,11.18c-0.42,0.5 -0.4,1.25 0.07,1.71l1.82,1.82c0.48,0.48 1.27,0.48 1.77,0l5.59,-5.53l0,24.23c0,0.69 0.56,1.26 1.25,1.26l3.25,0c0.69,0 1.25,-0.57 1.25,-1.26l0,-32.59c0,-0.69 -0.56,-1.26 -1.25,-1.26z" fill="#FCFDFF" id="svg_158"/>
   <path d="m784.56,398.04l-14.19,0c0.18,-0.35 0.43,-0.7 0.76,-1.05c0.89,-0.99 2.33,-2.3 4.26,-3.89l-0.03,-0.03c0.3,-0.2 0.62,-0.47 0.99,-0.8c2.74,-2.31 4.93,-4.59 6.5,-6.76c1.68,-2.3 2.53,-4.96 2.53,-7.9c0,-2.91 -0.99,-5.27 -2.94,-7.04c-1.91,-1.71 -4.49,-2.58 -7.62,-2.58c-2.2,0 -4.35,0.55 -6.39,1.63c-2.01,1.07 -3.74,2.57 -5.13,4.47c-0.38,0.53 -0.29,1.28 0.21,1.7l2.62,2.25c0.26,0.22 0.6,0.33 0.96,0.29c0.35,-0.04 0.66,-0.22 0.86,-0.5c1.01,-1.36 2.11,-2.4 3.26,-3.09c2.2,-1.34 5.27,-1.33 6.85,0.09c0.76,0.7 1.14,1.61 1.14,2.78c0,1.95 -0.5,3.63 -1.5,5.12c-1.07,1.58 -2.62,3.23 -4.63,4.93c-0.1,0.1 -0.63,0.53 -1.58,1.3c-1.64,1.36 -2.99,2.55 -3.99,3.54c-1.04,1.02 -1.92,2.2 -2.64,3.49c-0.75,1.38 -1.13,2.89 -1.13,4.5l0,2.05c0,0.69 0.56,1.26 1.26,1.26l19.57,0c0.69,0 1.25,-0.57 1.25,-1.26l0,-3.25c0.01,-0.69 -0.56,-1.25 -1.25,-1.25z" fill="#FCFDFF" id="svg_160"/>
   <path d="m935.37,820.73l-10.04,0l0,-2.51l10.04,0l0,2.51zm-20.09,0l-10.05,0l0,-2.51l10.05,0l0,2.51zm-20.09,0l-10.05,0l0,-2.51l10.05,0l0,2.51zm-20.1,0l-10.05,0l0,-2.51l10.05,0l0,2.51zm-20.1,0l-10.05,0l0,-2.51l10.05,0l0,2.51zm-20.09,0l-10.05,0l0,-2.51l10.05,0l0,2.51zm-20.1,0l-10.04,0l0,-2.51l10.04,0l0,2.51zm-20.09,0l-10.05,0l0,-2.51l10.05,0l0,2.51zm-20.09,0l-10.06,0l0,-2.51l10.06,0l0,2.51z" fill="#59595C" id="svg_161"/>
   <path d="m954.25,819.21l-17.81,-10.3l0,20.58l17.81,-10.28z" fill="#59595C" id="svg_162"/>
   <path d="m885.88,598.93l-10.05,0l0,-2.52l10.05,0l0,2.52zm-20.1,0l-10.05,0l0,-2.52l10.05,0l0,2.52zm-20.09,0l-10.05,0l0,-2.52l10.05,0l0,2.52zm-20.1,0l-10.04,0l0,-2.52l10.04,0l0,2.52zm-20.09,0l-10.05,0l0,-2.52l10.05,0l0,2.52zm-20.09,0l-10.05,0l0,-2.52l10.05,0l0,2.52zm-20.1,0l-10.05,0l0,-2.52l10.05,0l0,2.52z" fill="#59595C" id="svg_163"/>
   <path d="m906.73,597.4l-17.81,-10.29l0,20.58l17.81,-10.29z" fill="#59595C" id="svg_164"/>
   <path d="m759.83,598.97c-0.73,-1.03 -1.6,-1.87 -2.61,-2.51c0.69,-0.57 1.28,-1.25 1.77,-2.05c0.93,-1.51 1.4,-3.27 1.4,-5.22c0,-1.88 -0.43,-3.57 -1.29,-5.06s-2.08,-2.66 -3.61,-3.5c-1.52,-0.83 -3.24,-1.25 -5.13,-1.25c-2.49,0 -4.72,0.7 -6.61,2.08c-1.87,1.36 -3.32,3.21 -4.32,5.5c-0.27,0.6 -0.03,1.3 0.54,1.61l2.62,1.44c0.31,0.16 0.66,0.19 0.98,0.09c0.33,-0.1 0.6,-0.33 0.75,-0.64c0.74,-1.52 1.62,-2.68 2.61,-3.46c0.93,-0.74 2.05,-1.09 3.42,-1.09c1.22,0 2.18,0.38 2.94,1.17c0.78,0.79 1.15,1.81 1.15,3.11c0,1.47 -0.4,2.62 -1.23,3.52c-0.81,0.87 -1.89,1.29 -3.29,1.29l-2.1,0c-0.69,0 -1.25,0.57 -1.25,1.25l0,2.97c0,0.69 0.56,1.26 1.25,1.26l2.3,0c1.63,0 2.94,0.5 3.98,1.54c1.03,1.04 1.53,2.34 1.53,3.98c0,1.58 -0.49,2.84 -1.51,3.83c-1.02,1.01 -2.26,1.51 -3.82,1.51c-1.31,0 -2.42,-0.38 -3.4,-1.14c-1.03,-0.81 -1.89,-1.96 -2.57,-3.4c-0.15,-0.31 -0.43,-0.55 -0.77,-0.66c-0.33,-0.11 -0.69,-0.06 -1,0.12l-2.87,1.67c-0.54,0.31 -0.76,0.98 -0.53,1.56c0.92,2.25 2.33,4.08 4.21,5.42c1.89,1.35 4.18,2.05 6.79,2.05c2.07,0 4.01,-0.47 5.77,-1.39c1.77,-0.93 3.18,-2.24 4.21,-3.92c1.02,-1.68 1.54,-3.58 1.54,-5.65c0,-2.26 -0.63,-4.29 -1.85,-6.03z" fill="#FCFDFF" id="svg_166"/>
   <path d="m763.78,824.24l-2.9,0l0,-20.82c0,-0.69 -0.57,-1.25 -1.26,-1.25l-3.24,0c-0.4,0 -0.78,0.19 -1.02,0.51l-16.32,22.07c-0.16,0.21 -0.24,0.48 -0.24,0.75l0,3.24c0,0.7 0.57,1.26 1.26,1.26l15.06,0l0,6.01c0,0.7 0.57,1.26 1.26,1.26l3.24,0c0.69,0 1.26,-0.56 1.26,-1.26l0,-6.01l2.9,0c0.69,0 1.25,-0.56 1.25,-1.26l0,-3.24c0,-0.69 -0.56,-1.26 -1.25,-1.26zm-17.77,0l9.11,-12.01l0,12.01l-9.11,0z" fill="#FCFDFF" id="svg_168"/>
  </g>
 </g>
</svg>