<?xml version="1.0"?>
<svg width="2000" height="2000" xmlns="http://www.w3.org/2000/svg" xmlns:svg="http://www.w3.org/2000/svg" enable-background="new 0 0 2000 2000" version="1.1" xml:space="preserve">
 <g class="layer">
  <title>Layer 1</title>
  <g id="svg_147">
   <path d="m1092.39,892.95c-22.75,0 -41.26,-18.51 -41.26,-41.26l0,-180.78l-25.05,0c-22.75,0 -41.26,-18.51 -41.26,-41.27l0,-1.58c0,-22.75 18.51,-41.26 41.26,-41.26l25.05,0l0,-98.36c0,-24.03 5.81,-45.45 17.26,-63.67c10.17,-16.19 24.54,-29.77 41.56,-39.27c18.26,-10.19 37.65,-15.36 57.62,-15.36c57.06,0 107.08,42.86 113.9,97.57l0.08,0.67l0.12,6.81c0.2,11.16 -4,21.68 -11.82,29.65c-7.82,7.96 -18.27,12.34 -29.43,12.34l-1.63,0c-20.44,0 -37.58,-14.7 -40.75,-34.94c-1.87,-11.91 -5.76,-20.11 -11.56,-24.37c-4.45,-3.27 -10.93,-5.14 -17.78,-5.14c-8.45,0 -16.39,2.76 -21.24,7.4c-9.01,8.61 -8.97,27.18 -8.94,42.11l0.01,84.57l42.46,0c22.75,0 41.27,18.5 41.27,41.25l0,1.59c0,22.75 -18.52,41.26 -41.27,41.26l-42.46,0l0,180.78c0,22.75 -18.52,41.26 -41.27,41.26l-4.87,0z" fill="#FFFFFF" id="svg_165"/>
   <g id="svg_166">
    <defs>
     <rect height="532.93" id="SVGID_00000150100699397484884840000017374140933582678659_" width="307.13" x="979.8" y="365.07"/>
    </defs>
    <clipPath id="SVGID_00000143617089636765384340000016589055257508118687_">
     <use href="#SVGID_00000150100699397484884840000017374140933582678659_" id="svg_167" overflow="visible"/>
    </clipPath>
    <g clip-path="url(#SVGID_00000143617089636765384340000016589055257508118687_)" id="svg_168">
     <path d="m1167.57,370.14c57.06,0 107.08,42.86 113.9,97.57l0.08,0.67l0.12,6.81c0.2,11.16 -4,21.68 -11.82,29.65c-7.82,7.96 -18.27,12.34 -29.43,12.34l-1.63,0c-20.44,0 -37.58,-14.7 -40.75,-34.94c-1.87,-11.91 -5.76,-20.11 -11.56,-24.37c-4.45,-3.27 -10.93,-5.14 -17.79,-5.14c-8.44,0 -16.38,2.76 -21.23,7.4c-9.01,8.61 -8.97,27.18 -8.94,42.11l0.01,84.57l42.46,0c22.75,0 41.27,18.5 41.27,41.25l0,1.59c0,22.75 -18.52,41.26 -41.27,41.26l-42.46,0l0,180.78c0,22.75 -18.52,41.26 -41.27,41.26l-4.87,0c-22.75,0 -41.26,-18.51 -41.26,-41.26l0,-180.78l-25.05,0c-22.76,0 -41.27,-18.51 -41.27,-41.27l0,-1.58c0,-22.75 18.51,-41.26 41.27,-41.26l25.05,0l0,-98.36c0,-24.03 5.81,-45.45 17.25,-63.67c10.18,-16.19 24.55,-29.77 41.56,-39.27c18.27,-10.19 37.66,-15.36 57.63,-15.36m0,-5.02c-20.84,0 -41.05,5.39 -60.07,16c-17.75,9.91 -32.74,24.08 -43.37,40.98c-11.95,19.03 -18.02,41.35 -18.02,66.34l0,93.35l-20.03,0c-25.52,0 -46.28,20.76 -46.28,46.27l0,1.59c0,25.52 20.76,46.28 46.28,46.28l20.03,0l0,175.76c0,25.51 20.77,46.27 46.28,46.27l4.88,0c25.51,0 46.28,-20.76 46.28,-46.27l0,-175.77l37.44,0c25.52,0 46.29,-20.75 46.29,-46.28l0,-1.58c0,-25.52 -20.77,-46.27 -46.29,-46.27l-37.44,0l-0.01,-79.55c-0.01,-7.26 -0.03,-15.48 1.03,-22.69c1.11,-7.61 3.19,-12.77 6.36,-15.8c3.88,-3.71 10.69,-6.01 17.77,-6.01c5.72,0 11.26,1.56 14.81,4.17c4.63,3.4 7.94,10.7 9.57,21.1c3.56,22.71 22.79,39.19 45.71,39.19l1.63,0c12.52,0 24.24,-4.92 33.01,-13.85c8.78,-8.93 13.49,-20.74 13.26,-33.25l-0.12,-6.81l0,-0.27l-0.04,-0.27l-0.08,-0.67c-3.45,-27.69 -17.59,-53.44 -39.82,-72.48c-22.19,-19.01 -50.27,-29.48 -79.06,-29.48z" id="svg_169"/>
    </g>
   </g>
   <path d="m1097.28,857.25l-2.51,0l0,-1.73l2.51,0l0,1.73zm0,-11.77l-2.51,0l0,-10.07l2.51,0l0,10.07zm0,-20.11l-2.51,0l0,-10.07l2.51,0l0,10.07zm0,-20.13l-2.51,0l0,-10.05l2.51,0l0,10.05zm0,-20.09l-2.51,0l0,-10.02l2.51,0l0,10.02zm0,-20.03l-2.51,0l0,-10.04l2.51,0l0,10.04zm0,-20.1l-2.51,0l0,-10.04l2.51,0l0,10.04zm0,-20.08l-2.51,0l0,-10.05l2.51,0l0,10.05zm0,-20.09l-2.51,0l0,-10.05l2.51,0l0,10.05zm0,-20.09l-2.51,0l0,-10.05l2.51,0l0,10.05zm0,-20.1l-2.51,0l0,-10.04l2.51,0l0,10.04zm0,-20.08l-2.51,0l0,-10.06l2.51,0l0,10.06zm0,-20.1l-2.51,0l0,-10.05l2.51,0l0,10.05zm0,-20.1l-2.51,0l0,-10.05l2.51,0l0,10.05zm0,-20.1l-2.51,0l0,-10.05l2.51,0l0,10.05zm0,-20.11l-2.51,0l0,-10.05l2.51,0l0,10.05zm0,-20.1l-2.51,0l0,-10.07l2.51,0l0,10.07zm0,-20.14l-2.51,0l0,-4.3c0,-1.89 -0.01,-3.81 -0.02,-5.76l2.51,-0.02c0.01,1.95 0.02,3.88 0.02,5.78l0,4.3zm-0.06,-20.1l-2.51,-0.01c0.01,-3.83 0.05,-7.03 0.14,-10.07l2.51,0.07c-0.09,3.02 -0.14,6.2 -0.14,10.01zm141.18,-15.16c-0.33,-3.4 -0.75,-6.73 -1.24,-9.9l2.48,-0.38c0.49,3.21 0.92,6.58 1.26,10.03l-2.5,0.25zm-140.53,-4.82l-2.5,-0.19c0.28,-3.6 0.63,-6.88 1.1,-10.07l2.48,0.37c-0.45,3.12 -0.81,6.36 -1.08,9.89zm137.45,-14.86c-0.75,-3.33 -1.62,-6.56 -2.57,-9.6l2.39,-0.75c0.98,3.1 1.86,6.4 2.63,9.8l-2.45,0.55zm-134.49,-4.77l-2.44,-0.6c0.84,-3.42 1.85,-6.69 3,-9.73l2.35,0.9c-1.12,2.93 -2.1,6.11 -2.91,9.43zm128.47,-14.11c-1.35,-3.12 -2.86,-6.08 -4.48,-8.79l2.15,-1.29c1.68,2.81 3.24,5.87 4.63,9.08l-2.3,1zm-121.39,-4.23l-2.18,-1.24c1.71,-3.01 3.68,-5.84 5.83,-8.42l1.92,1.61c-2.06,2.46 -3.93,5.17 -5.57,8.05zm111.23,-12.59c-2.13,-2.54 -4.46,-4.87 -6.92,-6.93l1.6,-1.92c2.58,2.14 5.02,4.58 7.24,7.24l-1.92,1.61zm-98.71,-2.37l-1.61,-1.93c2.54,-2.11 5.34,-4.12 8.32,-5.92l1.31,2.14c-2.88,1.74 -5.57,3.67 -8.02,5.71zm83.7,-10.05c-2.79,-1.53 -5.82,-2.84 -9,-3.91l0.8,-2.38c3.32,1.12 6.48,2.49 9.4,4.08l-1.2,2.21zm-66.92,-0.21l-1.02,-2.3c3.06,-1.35 6.28,-2.54 9.56,-3.55l0.73,2.4c-3.18,0.98 -6.3,2.13 -9.27,3.45zm18.88,-5.81l-0.46,-2.47c3.34,-0.62 6.73,-1.06 10.09,-1.3l0.18,2.5c-3.27,0.23 -6.57,0.67 -9.81,1.27zm29.5,-0.32c-3.16,-0.56 -6.46,-0.93 -9.8,-1.09l0.11,-2.5c3.45,0.16 6.86,0.54 10.14,1.12l-0.45,2.47z" fill="#59595C" id="svg_170"/>
   <path d="m1095.97,871.59l-10.28,-17.8l20.55,0l-10.27,17.8z" fill="#59595C" id="svg_171"/>
   <path d="m1180.83,631.77l-10.04,0l0,-2.51l10.04,0l0,2.51zm-20.08,0l-10.04,0l0,-2.51l10.04,0l0,2.51zm-20.08,0l-10.04,0l0,-2.51l10.04,0l0,2.51zm-20.08,0l-10.04,0l0,-2.51l10.04,0l0,2.51zm-20.08,0l-10.04,0l0,-2.51l10.04,0l0,2.51zm-20.08,0l-10.04,0l0,-2.51l10.04,0l0,2.51zm-20.08,0l-10.04,0l0,-2.51l10.04,0l0,2.51zm-20.08,0l-10.04,0l0,-2.51l10.04,0l0,2.51z" fill="#59595C" id="svg_172"/>
   <path d="m1196.31,630.51l-17.8,-10.27l0,20.54l17.8,-10.27z" fill="#59595C" id="svg_173"/>
   <path d="m1241.24,456.46l-2.91,0c-0.34,0 -0.65,0.14 -0.86,0.4l-8.59,10.03c-0.38,0.46 -0.36,1.12 0.06,1.55l1.63,1.62c0.45,0.44 1.16,0.44 1.59,0l5.04,-4.96l0,21.76c0,0.62 0.5,1.13 1.13,1.13l2.91,0c0.62,0 1.13,-0.51 1.13,-1.13l0,-29.27c0,-0.62 -0.51,-1.13 -1.13,-1.13z" fill="#FCFDFF" id="svg_175"/>
   <path d="m1037.08,640.41l-12.78,0c0.17,-0.31 0.4,-0.62 0.7,-0.94c0.8,-0.89 2.09,-2.06 3.83,-3.49l-0.03,-0.02c0.27,-0.19 0.56,-0.44 0.89,-0.72c2.46,-2.08 4.43,-4.13 5.85,-6.08c1.51,-2.07 2.28,-4.46 2.28,-7.1c0,-2.61 -0.89,-4.73 -2.65,-6.32c-1.73,-1.54 -4.04,-2.32 -6.85,-2.32c-1.98,0 -3.91,0.5 -5.75,1.46c-1.81,0.97 -3.36,2.32 -4.61,4.03c-0.35,0.47 -0.27,1.14 0.19,1.52l2.36,2.02c0.23,0.2 0.53,0.3 0.86,0.26c0.3,-0.03 0.59,-0.19 0.77,-0.45c0.91,-1.21 1.89,-2.15 2.92,-2.77c1.99,-1.2 4.75,-1.2 6.17,0.08c0.69,0.63 1.02,1.44 1.02,2.49c0,1.76 -0.44,3.27 -1.34,4.61c-0.97,1.41 -2.35,2.9 -4.16,4.43c-0.1,0.08 -0.57,0.47 -1.42,1.16c-1.49,1.23 -2.69,2.29 -3.6,3.18c-0.93,0.93 -1.73,1.98 -2.36,3.14c-0.68,1.24 -1.02,2.6 -1.02,4.04l0,1.85c0,0.62 0.51,1.12 1.13,1.12l17.6,0c0.62,0 1.13,-0.5 1.13,-1.12l0,-2.93c-0.01,-0.62 -0.51,-1.13 -1.13,-1.13z" fill="#FCFDFF" id="svg_177"/>
  </g>
 </g>
</svg>