<?xml version="1.0"?>
<svg width="2000" height="2000" xmlns="http://www.w3.org/2000/svg" xmlns:svg="http://www.w3.org/2000/svg" enable-background="new 0 0 2000 2000" version="1.1" xml:space="preserve">
 <g class="layer">
  <title>Layer 1</title>
  <g id="svg_147">
   <path d="m698.36,893.12c-30.69,0 -55.65,-24.99 -55.65,-55.7l0,-416.49c0,-28.09 22.84,-50.96 50.91,-50.96l210.75,0c28.07,0 50.91,22.87 50.91,50.96l0,1.36c0,28.1 -22.84,50.95 -50.91,50.95l-150.36,0l0,100.91l98.18,0c28.07,0 50.91,22.86 50.91,50.96c0,28.09 -22.84,50.95 -50.91,50.95l-98.18,0l0,161.36c0,30.71 -24.96,55.7 -55.65,55.7z" fill="#FFFFFF" id="svg_148"/>
   <g id="svg_149">
    <defs>
     <rect height="532.93" id="SVGID_00000173846820918940907900000003399801156498232759_" width="322.56" x="637.7" y="365.07"/>
    </defs>
    <clipPath id="SVGID_00000012438428700183825740000007922370572707914660_">
     <use href="#SVGID_00000173846820918940907900000003399801156498232759_" id="svg_150" overflow="visible"/>
    </clipPath>
    <g clip-path="url(#SVGID_00000012438428700183825740000007922370572707914660_)" id="svg_151">
     <path d="m904.37,369.97c28.07,0 50.91,22.87 50.91,50.96l0,1.36c0,28.1 -22.84,50.95 -50.91,50.95l-150.36,0l0,100.91l98.18,0c28.07,0 50.91,22.86 50.91,50.96c0,28.09 -22.84,50.95 -50.91,50.95l-98.18,0l0,161.36c0,30.71 -24.96,55.7 -55.65,55.7c-30.69,0 -55.65,-24.99 -55.65,-55.7l0,-416.49c0,-28.09 22.84,-50.96 50.91,-50.96l210.75,0m0,-4.9l-210.75,0c-30.77,0 -55.81,25.06 -55.81,55.86l0,416.49c0,33.42 27.17,60.6 60.55,60.6c33.39,0 60.55,-27.19 60.55,-60.6l0,-156.45l93.28,0c30.77,0 55.81,-25.07 55.81,-55.86c0,-30.8 -25.04,-55.87 -55.81,-55.87l-93.28,0l0,-91.1l145.46,0c30.78,0 55.81,-25.05 55.81,-55.85l0,-1.36c0,-30.8 -25.03,-55.86 -55.81,-55.86z" id="svg_152"/>
    </g>
   </g>
   <path d="m918.31,421.91l-9.8,0l0,-2.46l9.8,0l0,2.46zm-19.59,0l-9.79,0l0,-2.46l9.79,0l0,2.46zm-19.58,0l-9.8,0l0,-2.46l9.8,0l0,2.46zm-19.59,0l-9.8,0l0,-2.46l9.8,0l0,2.46zm-19.59,0l-9.79,0l0,-2.46l9.79,0l0,2.46zm-19.59,0l-9.79,0l0,-2.46l9.79,0l0,2.46zm-19.59,0l-9.79,0l0,-2.46l9.79,0l0,2.46zm-19.59,0l-9.79,0l0,-2.46l9.79,0l0,2.46z" fill="#59595C" id="svg_153"/>
   <path d="m925.24,420.42l-17.35,-10.03l0,20.06l17.35,-10.03z" fill="#59595C" id="svg_154"/>
   <path d="m700.09,854.7l-2.45,0l0,-3.62l2.45,0l0,3.62zm0,-13.43l-2.45,0l0,-9.8l2.45,0l0,9.8zm0,-19.6l-2.45,0l0,-9.8l2.45,0l0,9.8zm0,-19.61l-2.45,0l0,-9.8l2.45,0l0,9.8zm0,-19.6l-2.45,0l0,-9.81l2.45,0l0,9.81zm0,-19.61l-2.45,0l0,-9.81l2.45,0l0,9.81zm0,-19.61l-2.45,0l0,-9.8l2.45,0l0,9.8zm0,-19.6l-2.45,0l0,-9.81l2.45,0l0,9.81zm0,-19.61l-2.45,0l0,-9.8l2.45,0l0,9.8zm0,-19.6l-2.45,0l0,-9.81l2.45,0l0,9.81zm0,-19.61l-2.45,0l0,-9.81l2.45,0l0,9.81zm0,-19.61l-2.45,0l0,-9.8l2.45,0l0,9.8zm0,-19.6l-2.45,0l0,-9.81l2.45,0l0,9.81zm0,-19.61l-2.45,0l0,-9.8l2.45,0l0,9.8zm0,-19.61l-2.45,0l0,-9.8l2.45,0l0,9.8zm0,-19.61l-2.45,0l0,-9.8l2.45,0l0,9.8zm0,-19.6l-2.45,0l0,-9.8l2.45,0l0,9.8zm0,-19.61l-2.45,0l0,-9.8l2.45,0l0,9.8zm0,-19.6l-2.45,0l0,-9.8l2.45,0l0,9.8zm0,-19.61l-2.45,0l0,-9.81l2.45,0l0,9.81zm0,-19.61l-2.45,0l0,-9.8l2.45,0l0,9.8zm0,-19.6l-2.45,0l0,-9.81l2.45,0l0,9.81z" fill="#59595C" id="svg_155"/>
   <path d="m698.86,866.28l10.03,-17.37l-20.05,0l10.02,17.37z" fill="#59595C" id="svg_156"/>
   <path d="m699.95,403.66l-3.16,0c-0.36,0 -0.69,0.15 -0.93,0.43l-9.31,10.89c-0.41,0.49 -0.39,1.22 0.07,1.67l1.77,1.77c0.47,0.48 1.25,0.48 1.72,0l5.46,-5.39l0,23.62c0,0.67 0.55,1.22 1.22,1.22l3.16,0c0.67,0 1.22,-0.55 1.22,-1.22l0,-31.76c0.01,-0.68 -0.55,-1.23 -1.22,-1.23z" fill="#FCFDFF" id="svg_158"/>
   <path d="m768.52,432.25l-13.83,0c0.18,-0.34 0.42,-0.67 0.74,-1.02c0.87,-0.97 2.26,-2.24 4.15,-3.79l-0.02,-0.03c0.28,-0.19 0.6,-0.46 0.95,-0.78c2.68,-2.25 4.81,-4.47 6.34,-6.59c1.64,-2.25 2.47,-4.84 2.47,-7.7c0,-2.84 -0.96,-5.14 -2.87,-6.85c-1.87,-1.68 -4.37,-2.53 -7.42,-2.53c-2.15,0 -4.24,0.53 -6.23,1.59c-1.96,1.04 -3.64,2.51 -5,4.36c-0.38,0.52 -0.29,1.24 0.2,1.65l2.56,2.19c0.25,0.22 0.58,0.33 0.93,0.29c0.34,-0.04 0.65,-0.21 0.84,-0.48c0.99,-1.33 2.06,-2.35 3.17,-3.02c2.15,-1.31 5.15,-1.3 6.69,0.1c0.74,0.67 1.11,1.55 1.11,2.7c0,1.91 -0.48,3.54 -1.47,4.99c-1.05,1.54 -2.55,3.15 -4.5,4.81c-0.11,0.09 -0.61,0.51 -1.54,1.27c-1.61,1.32 -2.92,2.48 -3.9,3.44c-1.02,1 -1.88,2.15 -2.57,3.41c-0.73,1.34 -1.1,2.82 -1.1,4.38l0,2c0,0.68 0.55,1.23 1.22,1.23l19.08,0c0.67,0 1.23,-0.55 1.23,-1.23l0,-3.16c0,-0.68 -0.55,-1.23 -1.23,-1.23z" fill="#FCFDFF" id="svg_160"/>
   <path d="m863.99,628.06l-6.5,0l0,-2.45l6.5,0l0,2.45zm-16.3,0l-9.79,0l0,-2.45l9.79,0l0,2.45zm-19.58,0l-9.8,0l0,-2.45l9.8,0l0,2.45zm-19.59,0l-9.8,0l0,-2.45l9.8,0l0,2.45zm-19.59,0l-9.79,0l0,-2.45l9.79,0l0,2.45zm-19.59,0l-9.79,0l0,-2.45l9.79,0l0,2.45zm-19.59,0l-9.79,0l0,-2.45l9.79,0l0,2.45z" fill="#59595C" id="svg_161"/>
   <path d="m873.8,626.58l-17.36,-10.03l0,20.06l17.36,-10.03z" fill="#59595C" id="svg_162"/>
   <path d="m744.41,628.1c-0.7,-1 -1.56,-1.82 -2.54,-2.44c0.67,-0.56 1.25,-1.22 1.72,-2c0.91,-1.47 1.37,-3.18 1.37,-5.09c0,-1.83 -0.42,-3.48 -1.26,-4.92c-0.84,-1.46 -2.03,-2.6 -3.52,-3.42c-1.48,-0.81 -3.16,-1.22 -5.01,-1.22c-2.42,0 -4.58,0.69 -6.43,2.03c-1.82,1.32 -3.24,3.13 -4.22,5.36c-0.26,0.59 -0.03,1.27 0.53,1.57l2.56,1.4c0.3,0.16 0.64,0.19 0.95,0.09c0.32,-0.1 0.59,-0.33 0.73,-0.63c0.73,-1.47 1.58,-2.6 2.55,-3.37c0.9,-0.72 2,-1.07 3.33,-1.07c1.19,0 2.13,0.38 2.87,1.15c0.76,0.77 1.12,1.77 1.12,3.03c0,1.43 -0.39,2.56 -1.21,3.43c-0.78,0.85 -1.83,1.26 -3.19,1.26l-2.05,0c-0.68,0 -1.23,0.55 -1.23,1.23l0,2.88c0,0.68 0.55,1.23 1.23,1.23l2.23,0c1.6,0 2.87,0.49 3.88,1.5c1.01,1.01 1.5,2.28 1.5,3.88c0,1.54 -0.48,2.76 -1.47,3.74c-1,0.99 -2.22,1.46 -3.72,1.46c-1.28,0 -2.37,-0.35 -3.32,-1.11c-1,-0.79 -1.84,-1.9 -2.5,-3.3c-0.15,-0.31 -0.43,-0.55 -0.75,-0.65c-0.32,-0.1 -0.68,-0.06 -0.98,0.11l-2.79,1.63c-0.53,0.31 -0.75,0.96 -0.52,1.52c0.9,2.2 2.27,3.98 4.1,5.29c1.85,1.32 4.07,1.99 6.61,1.99c2.03,0 3.92,-0.45 5.63,-1.35c1.72,-0.91 3.1,-2.19 4.1,-3.82c1,-1.64 1.51,-3.49 1.51,-5.51c0,-2.2 -0.61,-4.18 -1.81,-5.88z" fill="#FCFDFF" id="svg_164"/>
  </g>
 </g>
</svg>