<?xml version="1.0"?>
<svg width="2000" height="2000" xmlns="http://www.w3.org/2000/svg" xmlns:svg="http://www.w3.org/2000/svg" enable-background="new 0 0 2000 2000" version="1.1" xml:space="preserve">
 <g class="layer">
  <title>Layer 1</title>
  <g id="svg_147" transform="matrix(1 0 0 1 0 0) matrix(1 0 0 1 0 0)">
   <path d="m1195.87,843.78c-31.67,0 -74.35,-9.59 -99.15,-36.5c-3.13,-3.39 -6.21,-7.27 -9.41,-11.84c-5.5,-7.87 -7.56,-17.37 -5.8,-26.75c1.73,-9.27 6.99,-17.26 14.82,-22.49l2.65,-1.76c5.81,-3.89 12.58,-5.94 19.57,-5.94c11,0 21.06,4.99 27.59,13.69c4.34,5.78 8.42,9.55 13.22,12.21c10.05,5.55 22.64,8.37 37.43,8.37c16.56,0 28.55,-5.09 37.74,-16.02c8.23,-9.78 13.31,-20.86 15.54,-33.87c0.16,-2 0.32,-4.25 0.45,-6.7c-0.31,0.16 -0.61,0.33 -0.92,0.5c-15.93,8.55 -33.54,12.89 -52.35,12.89c-24.38,0 -46.65,-5.99 -66.2,-17.82c-19.53,-11.82 -35.01,-28.42 -46.01,-49.37c-10.79,-20.53 -16.25,-44.05 -16.25,-69.9c0,-25.51 5.38,-48.78 15.99,-69.15c10.81,-20.77 26.12,-37.3 45.51,-49.14c19.41,-11.87 41.63,-17.88 66.04,-17.88c19.07,0 36.89,4.32 52.96,12.85c2.2,1.17 4.36,2.41 6.49,3.73c6.01,-10.55 17.35,-17.67 30.31,-17.67l3.8,0c19.25,0 34.9,15.69 34.9,34.99l0,216.94c0,25.53 -5.47,48.9 -16.25,69.44c-11,20.94 -26.47,37.55 -46.01,49.37c-19.55,11.83 -41.97,17.82 -66.66,17.82zm0.45,-316.47c-10.35,0 -19.25,2.52 -27.18,7.68c-8.19,5.32 -14.49,12.62 -19.27,22.31c-4.97,10.08 -7.48,21.92 -7.48,35.17c0,13.61 2.52,25.71 7.52,35.96c4.78,9.81 11.07,17.16 19.23,22.47c7.93,5.15 16.82,7.67 27.18,7.67c10.73,0 19.88,-2.54 27.99,-7.74c8.27,-5.3 14.6,-12.63 19.35,-22.39c5,-10.26 7.53,-22.2 7.53,-35.5c0,-13.29 -2.53,-25.24 -7.53,-35.5c-4.75,-9.76 -11.08,-17.09 -19.35,-22.38c-8.12,-5.21 -17.26,-7.75 -27.99,-7.75z" fill="#FFFFFF" id="svg_161"/>
   <g id="svg_162">
    <defs>
     <rect height="397.02" id="SVGID_00000012440400199550328670000005855591852248753315_" width="264.68" x="1064.45" y="450.98"/>
    </defs>
    <clipPath id="SVGID_00000057118817659280514420000012024931646485564847_">
     <use href="#SVGID_00000012440400199550328670000005855591852248753315_" id="svg_163" overflow="visible"/>
    </clipPath>
    <g clip-path="url(#SVGID_00000057118817659280514420000012024931646485564847_)" id="svg_164">
     <path d="m1289.89,455.22c19.24,0 34.9,15.69 34.9,34.98l0,216.95c0,25.53 -5.47,48.9 -16.25,69.44c-11,20.94 -26.48,37.55 -46.01,49.37c-19.54,11.82 -41.97,17.82 -66.66,17.82c-31.67,0 -74.35,-9.58 -99.15,-36.49c-3.13,-3.4 -6.21,-7.28 -9.41,-11.85c-5.5,-7.86 -7.56,-17.37 -5.8,-26.75c1.73,-9.27 6.99,-17.26 14.82,-22.48l2.65,-1.77c5.81,-3.89 12.58,-5.94 19.57,-5.94c11,0 21.06,4.99 27.59,13.69c4.34,5.78 8.42,9.55 13.22,12.21c10.05,5.55 22.64,8.37 37.43,8.37c16.56,0 28.55,-5.09 37.74,-16.02c8.23,-9.78 13.31,-20.86 15.54,-33.87c0.16,-2 0.32,-4.24 0.45,-6.7c-0.31,0.16 -0.61,0.33 -0.92,0.5c-15.93,8.56 -33.54,12.89 -52.35,12.89c-24.38,0 -46.65,-5.99 -66.2,-17.82c-19.53,-11.82 -35.01,-28.42 -46.01,-49.36c-10.79,-20.54 -16.25,-44.06 -16.25,-69.91c0,-25.51 5.38,-48.78 15.99,-69.15c10.81,-20.77 26.12,-37.3 45.51,-49.14c19.41,-11.87 41.62,-17.88 66.03,-17.88c19.07,0 36.9,4.32 52.97,12.85c2.2,1.17 4.36,2.42 6.49,3.73c6.01,-10.55 17.35,-17.67 30.31,-17.67l3.8,0m-93.57,203.34c10.73,0 19.88,-2.53 27.99,-7.73c8.27,-5.31 14.6,-12.63 19.35,-22.39c5,-10.26 7.53,-22.2 7.53,-35.5c0,-13.29 -2.53,-25.24 -7.53,-35.5c-4.76,-9.76 -11.08,-17.09 -19.35,-22.38c-8.12,-5.21 -17.26,-7.75 -27.99,-7.75c-10.35,0 -19.25,2.52 -27.18,7.68c-8.19,5.32 -14.49,12.62 -19.27,22.31c-4.97,10.08 -7.48,21.92 -7.48,35.17c0,13.62 2.52,25.71 7.52,35.97c4.78,9.8 11.07,17.14 19.23,22.46c7.93,5.15 16.82,7.66 27.18,7.66m93.57,-207.58l-3.8,0c-7.02,0 -13.9,1.89 -19.92,5.48c-4.59,2.73 -8.59,6.39 -11.73,10.71c-1.05,-0.61 -2.11,-1.19 -3.18,-1.76c-16.69,-8.85 -35.16,-13.34 -54.94,-13.34c-25.19,0 -48.16,6.22 -68.23,18.49c-20.06,12.26 -35.89,29.35 -47.06,50.81c-10.93,20.98 -16.47,44.9 -16.47,71.11c0,26.54 5.63,50.72 16.74,71.87c11.36,21.64 27.37,38.81 47.57,51.02c20.21,12.24 43.22,18.44 68.38,18.44c17.21,0 33.47,-3.51 48.44,-10.45c-2.2,11.73 -6.92,21.77 -14.39,30.66c-8.33,9.9 -19.3,14.51 -34.51,14.51c-14.07,0 -25.98,-2.64 -35.39,-7.85c-4.25,-2.36 -7.92,-5.76 -11.89,-11.04c-7.33,-9.77 -18.62,-15.38 -30.96,-15.38c-7.83,0 -15.41,2.3 -21.92,6.65l-2.65,1.77c-8.78,5.87 -14.69,14.82 -16.63,25.22c-1.97,10.52 0.34,21.16 6.5,29.97c3.31,4.73 6.51,8.75 9.76,12.29c6.2,6.73 13.76,12.73 22.48,17.84c7.86,4.61 16.72,8.53 26.32,11.65c16.6,5.4 35.59,8.37 53.46,8.37c25.47,0 48.63,-6.2 68.84,-18.43c20.2,-12.23 36.21,-29.39 47.57,-51.02c11.11,-21.16 16.74,-45.19 16.74,-71.42l0,-216.95c0,-21.62 -17.55,-39.22 -39.13,-39.22zm-93.57,203.35c-9.51,0 -17.65,-2.29 -24.88,-6.99c-7.5,-4.88 -13.3,-11.67 -17.73,-20.76c-4.71,-9.68 -7.1,-21.15 -7.1,-34.11c0,-12.6 2.37,-23.8 7.05,-33.29c4.43,-8.99 10.25,-15.74 17.78,-20.64c7.23,-4.7 15.37,-6.99 24.88,-6.99c9.89,0 18.3,2.32 25.72,7.07c7.58,4.88 13.41,11.64 17.83,20.69c4.7,9.67 7.09,20.99 7.09,33.63c0,12.65 -2.39,23.96 -7.09,33.64c-4.41,9.04 -10.25,15.81 -17.83,20.67c-7.42,4.77 -15.83,7.08 -25.72,7.08z" id="svg_165"/>
    </g>
   </g>
   <path d="m1192.79,808.22c-2.87,-0.06 -5.73,-0.21 -8.5,-0.44l0.16,-2.11c2.74,0.23 5.56,0.37 8.39,0.43l-0.05,2.12zm8.52,-0.09l-0.09,-2.11c2.8,-0.13 5.62,-0.36 8.35,-0.68l0.25,2.1c-2.78,0.33 -5.65,0.57 -8.51,0.69zm-25.5,-1.3c-2.83,-0.43 -5.66,-0.95 -8.38,-1.55l0.45,-2.07c2.68,0.59 5.45,1.1 8.25,1.51l-0.32,2.11zm42.44,-0.76l-0.42,-2.07c2.74,-0.56 5.47,-1.23 8.12,-2.01l0.59,2.03c-2.7,0.79 -5.49,1.48 -8.29,2.05zm-59.08,-2.96c-2.74,-0.84 -5.45,-1.79 -8.05,-2.82l0.78,-1.97c2.54,1.01 5.21,1.95 7.88,2.76l-0.61,2.03zm75.46,-1.86l-0.77,-1.97c2.59,-1.02 5.16,-2.17 7.64,-3.41l0.94,1.9c-2.54,1.26 -5.16,2.44 -7.81,3.48zm-91.3,-4.47c-0.93,-0.47 -1.86,-0.96 -2.77,-1.46c-1.66,-0.9 -3.23,-1.83 -4.68,-2.75l1.12,-1.79c1.42,0.9 2.96,1.8 4.56,2.68c0.89,0.49 1.81,0.97 2.71,1.42l-0.94,1.9zm106.58,-3.19l-1.13,-1.8c2.3,-1.44 4.56,-3.08 6.73,-4.88l1.35,1.63c-2.23,1.86 -4.57,3.56 -6.95,5.05zm-120.98,-6.08c-2.13,-1.79 -4.16,-3.74 -6.18,-5.96l1.55,-1.43c1.97,2.15 3.93,4.03 5.99,5.77l-1.36,1.62zm134.19,-4.84l-1.53,-1.46c1.87,-1.97 3.69,-4.11 5.41,-6.36l1.68,1.3c-1.77,2.3 -3.64,4.5 -5.56,6.52zm-145.85,-7.68c-1.56,-2.02 -3.16,-4.17 -5.09,-6.8l1.7,-1.25c1.92,2.61 3.51,4.75 5.06,6.75l-1.67,1.3zm156.28,-5.89l-1.79,-1.13c1.46,-2.32 2.84,-4.78 4.12,-7.29l1.88,0.97c-1.31,2.57 -2.72,5.07 -4.21,7.45zm7.78,-15.23l-1.95,-0.81c1.06,-2.57 2.02,-5.22 2.88,-7.88l2.01,0.65c-0.88,2.71 -1.86,5.41 -2.94,8.04zm5.23,-16.29l-2.05,-0.48c0.46,-1.94 0.86,-3.9 1.2,-5.82c0.13,-0.81 0.27,-1.62 0.4,-2.42l2.09,0.32c-0.13,0.82 -0.27,1.65 -0.41,2.46c-0.35,1.97 -0.76,3.97 -1.23,5.94zm2.7,-16.87l-2.11,-0.2c0.26,-2.66 0.46,-5.49 0.6,-8.4l2.11,0.1c-0.14,2.94 -0.34,5.8 -0.6,8.5zm0.87,-17.01l-2.12,-0.03c0.02,-1.47 0.04,-3.03 0.04,-4.62l0,-3.84l2.1,0l0,3.84c0,1.61 0,3.17 -0.02,4.65zm0.02,-16.96l-2.1,0l0,-8.48l2.1,0l0,8.48zm0,-16.96l-2.1,0l0,-8.48l2.1,0l0,8.48zm0,-16.95l-2.1,0l0,-8.47l2.1,0l0,8.47zm0,-16.95l-2.1,0l0,-8.47l2.1,0l0,8.47zm0,-16.95l-2.1,0l0,-8.48l2.1,0l0,8.48zm0,-16.95l-2.1,0l0,-8.48l2.1,0l0,8.48zm0,-16.96l-2.1,0l0,-8.47l2.1,0l0,8.47zm0,-16.95l-2.1,0l0,-8.47l2.1,0l0,8.47zm0,-16.94l-2.1,0l0,-8.49l2.1,0l0,8.49zm0,-16.96l-2.1,0l0,-8.48l2.1,0l0,8.48zm0,-16.95l-2.1,0l0,-8.47l2.1,0l0,8.47z" fill="#59595C" id="svg_166"/>
   <path d="m1197.84,694.76l0,-2.13c2.79,0 5.61,-0.12 8.36,-0.36l0.18,2.11c-2.82,0.25 -5.68,0.37 -8.54,0.38zm-8.53,-0.31c-2.87,-0.23 -5.73,-0.58 -8.48,-1.03l0.35,-2.09c2.69,0.45 5.48,0.78 8.3,1l-0.17,2.12zm25.53,-1.17l-0.36,-2.09c2.75,-0.48 5.49,-1.1 8.15,-1.81l0.55,2.04c-2.72,0.73 -5.52,1.36 -8.34,1.86zm-42.37,-1.67c-2.76,-0.74 -5.5,-1.63 -8.15,-2.64l0.76,-1.98c2.57,0.98 5.25,1.85 7.94,2.57l-0.55,2.05zm58.85,-2.81l-0.74,-1.99c2.61,-0.98 5.18,-2.1 7.65,-3.32l0.94,1.9c-2.54,1.25 -5.17,2.4 -7.85,3.41zm-74.82,-3.29c-2.01,-1.01 -4,-2.12 -5.95,-3.3c-0.5,-0.31 -1,-0.62 -1.49,-0.93l1.12,-1.8c0.49,0.31 0.97,0.62 1.47,0.92c1.89,1.15 3.85,2.24 5.8,3.22l-0.95,1.89zm90.13,-4.31l-1.12,-1.79c2.36,-1.49 4.64,-3.11 6.8,-4.83l1.31,1.67c-2.22,1.76 -4.56,3.43 -6.99,4.95zm-104.57,-4.86c-2.25,-1.75 -4.43,-3.64 -6.48,-5.61l1.47,-1.52c1.99,1.91 4.12,3.75 6.31,5.46l-1.3,1.67zm117.98,-5.8l-1.49,-1.5c1.97,-1.96 3.84,-4.04 5.58,-6.2l1.64,1.33c-1.78,2.22 -3.71,4.37 -5.73,6.37zm-130.33,-6.04c-1.83,-2.14 -3.58,-4.42 -5.23,-6.78l1.73,-1.21c1.61,2.3 3.33,4.52 5.11,6.61l-1.61,1.38zm141.06,-7.31l-1.79,-1.14c1.48,-2.33 2.85,-4.78 4.08,-7.29l1.9,0.95c-1.26,2.56 -2.68,5.08 -4.19,7.48zm-150.88,-6.7c-0.74,-1.29 -1.48,-2.63 -2.18,-3.99c-0.62,-1.18 -1.22,-2.38 -1.78,-3.58l1.91,-0.91c0.55,1.18 1.14,2.36 1.74,3.5c0.69,1.34 1.41,2.66 2.14,3.92l-1.83,1.06zm-7.27,-15.47c-0.98,-2.64 -1.87,-5.37 -2.65,-8.13l2.03,-0.58c0.77,2.71 1.64,5.39 2.6,7.97l-1.98,0.74zm-4.66,-16.44c-0.55,-2.75 -1.03,-5.58 -1.4,-8.43l2.09,-0.28c0.37,2.8 0.83,5.59 1.38,8.29l-2.07,0.42zm-2.23,-16.93c-0.18,-2.79 -0.28,-5.66 -0.29,-8.53l2.11,-0.01c0.01,2.83 0.11,5.65 0.29,8.4l-2.11,0.14zm2.03,-16.95l-2.11,-0.12c0.16,-2.87 0.41,-5.73 0.75,-8.51l2.1,0.26c-0.33,2.74 -0.59,5.55 -0.74,8.37zm2.06,-16.66l-2.07,-0.41c0.55,-2.82 1.22,-5.62 1.97,-8.33l2.03,0.56c-0.74,2.66 -1.38,5.41 -1.93,8.18zm4.5,-16.16l-1.98,-0.73c0.99,-2.69 2.09,-5.35 3.29,-7.91l1.91,0.91c-1.16,2.5 -2.25,5.1 -3.22,7.73zm7.1,-15.16l-1.83,-1.07c1.44,-2.5 2.99,-4.93 4.58,-7.22l1.74,1.22c-1.57,2.23 -3.08,4.61 -4.49,7.07zm9.6,-13.7l-1.62,-1.37c1.85,-2.18 3.83,-4.29 5.87,-6.25l1.46,1.53c-1.99,1.92 -3.91,3.96 -5.71,6.09zm12.01,-11.57l-1.3,-1.67c2.21,-1.74 4.56,-3.41 6.98,-4.95l1.14,1.78c-2.36,1.51 -4.65,3.14 -6.82,4.84zm101.31,-2.89c-2.39,-1.6 -4.78,-3.08 -7.13,-4.41l1.04,-1.84c2.4,1.35 4.84,2.86 7.26,4.49l-1.17,1.76zm-87.25,-6.12l-0.96,-1.88c2.54,-1.3 5.16,-2.48 7.81,-3.5l0.77,1.97c-2.59,1.01 -5.15,2.15 -7.62,3.41zm72.67,-2.09c-2.57,-1.16 -5.18,-2.2 -7.75,-3.08l0.67,-2c2.65,0.9 5.33,1.95 7.96,3.15l-0.88,1.93zm-57.13,-3.92l-0.56,-2.05c2.71,-0.74 5.52,-1.36 8.35,-1.85l0.36,2.09c-2.77,0.47 -5.51,1.08 -8.15,1.81zm41.35,-1.41c-2.71,-0.6 -5.47,-1.05 -8.22,-1.35l0.22,-2.1c2.83,0.3 5.67,0.77 8.46,1.38l-0.46,2.07zm-24.9,-1.44l-0.18,-2.11c2.77,-0.22 5.64,-0.34 8.53,-0.35l0.01,2.13c-2.84,0 -5.66,0.12 -8.36,0.33z" fill="#59595C" id="svg_167"/>
   <path d="m1279.13,656.72l0,-17.35l-14.99,8.68l14.99,8.67z" fill="#59595C" id="svg_168"/>
   <path d="m1110.81,764.9l3.27,17.03l13.08,-11.36l-16.35,-5.67z" fill="#59595C" id="svg_169"/>
   <path d="m1246.55,494.4l-2.46,0c-0.28,0 -0.54,0.12 -0.72,0.33l-7.23,8.48c-0.32,0.38 -0.3,0.94 0.05,1.3l1.38,1.37c0.37,0.37 0.97,0.37 1.34,0l4.24,-4.19l0,18.37c0,0.53 0.42,0.95 0.94,0.95l2.46,0c0.52,0 0.95,-0.42 0.95,-0.95l0,-24.71c0,-0.53 -0.43,-0.95 -0.95,-0.95z" fill="#FCFDFF" id="svg_171"/>
   <path d="m1296.76,504.89l-10.75,0c0.14,-0.25 0.33,-0.52 0.58,-0.79c0.67,-0.75 1.76,-1.75 3.22,-2.95l-0.02,-0.02c0.23,-0.16 0.48,-0.36 0.75,-0.6c2.07,-1.76 3.73,-3.49 4.93,-5.13c1.27,-1.75 1.92,-3.77 1.92,-6c0,-2.2 -0.75,-4 -2.24,-5.33c-1.44,-1.3 -3.39,-1.96 -5.76,-1.96c-1.67,0 -3.29,0.41 -4.84,1.23c-1.53,0.81 -2.83,1.96 -3.89,3.4c-0.29,0.4 -0.22,0.96 0.16,1.29l1.99,1.69c0.19,0.18 0.44,0.26 0.72,0.23c0.26,-0.03 0.5,-0.17 0.66,-0.38c0.76,-1.03 1.59,-1.82 2.45,-2.34c1.68,-1.02 4,-1.01 5.2,0.07c0.58,0.52 0.86,1.21 0.86,2.11c0,1.48 -0.37,2.75 -1.14,3.88c-0.81,1.2 -1.98,2.45 -3.49,3.74c-0.09,0.07 -0.48,0.4 -1.2,0.99c-1.25,1.03 -2.27,1.93 -3.03,2.68c-0.79,0.78 -1.46,1.67 -1.99,2.65c-0.57,1.05 -0.86,2.19 -0.86,3.41l0,1.56c0,0.53 0.43,0.95 0.95,0.95l14.82,0c0.52,0 0.95,-0.42 0.95,-0.95l0,-2.47c0.01,-0.52 -0.43,-0.96 -0.95,-0.96z" fill="#FCFDFF" id="svg_173"/>
  </g>
 </g>
</svg>