<?xml version="1.0"?>
<svg width="2000" height="2000" xmlns="http://www.w3.org/2000/svg" xmlns:svg="http://www.w3.org/2000/svg" enable-background="new 0 0 2000 2000" version="1.1" xml:space="preserve">
 <g class="layer">
  <title>Layer 1</title>
  <g id="svg_147" transform="matrix(1 0 0 1 0 0)">
   <path d="m847.84,843.13c-41.13,0 -77.43,-10.52 -107.9,-31.26c-30.28,-20.61 -53.71,-50.25 -69.63,-88.09c-15.25,-36.21 -22.97,-79.67 -22.97,-129.19c0,-49.87 7.72,-93.72 22.93,-130.31c15.92,-38.29 39.36,-68.18 69.67,-88.82c30.47,-20.75 66.78,-31.26 107.9,-31.26c37.79,0 71.24,8.82 99.42,26.23c16.39,10.14 31.59,23.26 45.16,39c9.3,10.79 13.49,25.13 11.49,39.34c-2.02,14.45 -10.17,27.32 -22.35,35.31c-8.15,5.34 -17.6,8.17 -27.32,8.17c-14.86,0 -29,-6.55 -38.78,-17.98c-18.15,-21.18 -40.26,-31.49 -67.61,-31.49c-29.64,0 -51.13,11.2 -67.61,35.25c-18.32,26.72 -27.61,65.73 -27.61,115.94c0,49.76 9.37,88.53 27.85,115.22c16.68,24.11 38.09,35.34 67.37,35.34c16.43,0 30.64,-3.75 43.43,-11.47c12.54,-7.56 22.3,-18.73 29.85,-34.17c4.74,-9.69 8.1,-21.04 10.03,-33.9l-50.46,0c-26.12,0 -47.37,-21.28 -47.37,-47.43c0,-26.16 21.25,-47.44 47.37,-47.44l107.26,0c26.13,0 47.38,21.28 47.38,47.44l0,19.23c0,42.81 -7.92,80.02 -23.54,110.6c-16.18,31.65 -39.1,55.87 -68.14,72.02c-28.3,15.74 -60.54,23.72 -95.82,23.72z" fill="#FFFFFF" id="svg_148"/>
   <g id="svg_149">
    <defs>
     <rect height="507.97" id="SVGID_00000174597400347785532060000015325014662677606556_" width="397.02" x="642.82" y="339.69"/>
    </defs>
    <clipPath id="SVGID_00000099632057582987394250000009519463807342778024_">
     <use href="#SVGID_00000174597400347785532060000015325014662677606556_" id="svg_150" overflow="visible"/>
    </clipPath>
    <g clip-path="url(#SVGID_00000099632057582987394250000009519463807342778024_)" id="svg_151">
     <path d="m847.84,344.2c37.79,0 71.24,8.82 99.42,26.23c16.39,10.14 31.59,23.26 45.16,39c9.3,10.79 13.49,25.13 11.49,39.34c-2.02,14.45 -10.17,27.32 -22.35,35.31c-8.15,5.34 -17.6,8.17 -27.32,8.17c-14.86,0 -29,-6.55 -38.78,-17.98c-18.15,-21.18 -40.26,-31.49 -67.61,-31.49c-29.64,0 -51.13,11.2 -67.61,35.25c-18.32,26.72 -27.61,65.73 -27.61,115.94c0,49.76 9.37,88.53 27.85,115.22c16.68,24.11 38.09,35.34 67.37,35.34c16.43,0 30.64,-3.75 43.43,-11.47c12.54,-7.56 22.3,-18.73 29.85,-34.17c4.74,-9.69 8.1,-21.04 10.03,-33.9l-50.46,0c-26.12,0 -47.37,-21.28 -47.37,-47.43c0,-26.16 21.25,-47.44 47.37,-47.44l107.26,0c26.13,0 47.38,21.28 47.38,47.44l0,19.23c0,42.81 -7.92,80.02 -23.54,110.6c-16.18,31.65 -39.1,55.87 -68.14,72.02c-28.3,15.74 -60.54,23.72 -95.81,23.72c-41.14,0 -77.44,-10.52 -107.91,-31.26c-30.28,-20.61 -53.71,-50.25 -69.63,-88.09c-15.25,-36.21 -22.97,-79.67 -22.97,-129.19c0,-49.87 7.72,-93.72 22.93,-130.31c15.92,-38.29 39.36,-68.18 69.67,-88.82c30.47,-20.75 66.78,-31.26 107.9,-31.26m0,-4.51c-42.04,0 -79.2,10.77 -110.43,32.04c-31.05,21.15 -55.05,51.71 -71.3,90.81c-15.45,37.15 -23.28,81.58 -23.28,132.05c0,50.12 7.85,94.17 23.33,130.94c16.27,38.66 40.24,68.96 71.25,90.07c31.22,21.26 68.38,32.04 110.44,32.04c36.05,0 69.02,-8.17 98,-24.29c29.83,-16.58 53.36,-41.44 69.95,-73.9c15.96,-31.22 24.05,-69.12 24.05,-112.65l0,-19.24c0,-28.64 -23.29,-51.95 -51.89,-51.95l-107.26,0c-28.6,0 -51.88,23.31 -51.88,51.95s23.28,51.94 51.88,51.94l45.13,0c-1.93,10.27 -4.87,19.47 -8.75,27.4c-7.15,14.64 -16.35,25.21 -28.12,32.3c-12.08,7.28 -25.53,10.83 -41.12,10.83c-27.67,0 -47.9,-10.62 -63.66,-33.41c-17.94,-25.92 -27.04,-63.82 -27.04,-112.65c0,-49.28 9.02,-87.42 26.82,-113.39c15.56,-22.7 35.86,-33.28 63.88,-33.28c25.96,0 46.96,9.78 64.2,29.91c10.64,12.42 26.03,19.55 42.2,19.55c10.6,0 20.9,-3.08 29.79,-8.91c13.27,-8.7 22.14,-22.72 24.34,-38.45c2.18,-15.51 -2.39,-31.15 -12.54,-42.92c-13.87,-16.09 -29.42,-29.5 -46.2,-39.89c-28.91,-17.85 -63.15,-26.9 -101.79,-26.9z" id="svg_152"/>
    </g>
   </g>
   <path d="m846.85,794.51c-2.06,0 -4.14,-0.03 -6.16,-0.09l0.07,-2.25c2.94,0.08 5.98,0.11 8.96,0.06l0.03,2.26c-0.96,0.01 -1.93,0.02 -2.9,0.02zm11.97,-0.39l-0.15,-2.25c2.99,-0.2 5.99,-0.48 8.91,-0.83l0.27,2.24c-2.96,0.35 -6,0.64 -9.03,0.84zm-27.19,-0.18c-3.04,-0.23 -6.07,-0.53 -9.02,-0.91l0.29,-2.23c2.9,0.37 5.9,0.66 8.91,0.89l-0.18,2.25zm45.2,-1.99l-0.39,-2.22c2.94,-0.52 5.89,-1.13 8.76,-1.81l0.52,2.19c-2.92,0.69 -5.9,1.31 -8.89,1.84zm-63.19,-0.3c-3,-0.55 -5.99,-1.19 -8.87,-1.9l0.54,-2.19c2.83,0.7 5.78,1.32 8.74,1.87l-0.41,2.22zm80.84,-3.9l-0.64,-2.16c2.84,-0.86 5.7,-1.82 8.47,-2.85l0.79,2.12c-2.82,1.04 -5.72,2.02 -8.62,2.89zm-98.46,-0.46c-2.91,-0.93 -5.8,-1.95 -8.55,-3.05l0.82,-2.1c2.71,1.08 5.55,2.09 8.41,3l-0.68,2.15zm115.49,-5.86l-0.92,-2.06c2.71,-1.2 5.42,-2.5 8.05,-3.88l1.05,2c-2.68,1.39 -5.43,2.73 -8.18,3.94zm-132.36,-0.89c-2.74,-1.35 -5.43,-2.82 -7.99,-4.36l1.16,-1.93c2.51,1.51 5.14,2.94 7.82,4.27l-0.99,2.02zm148.43,-7.59l-1.21,-1.9c2.47,-1.59 4.88,-3.35 7.17,-5.23l1.42,1.74c-2.35,1.93 -4.83,3.74 -7.38,5.39zm-164.01,-1.81c-2.05,-1.5 -4.04,-3.1 -5.94,-4.73c-0.39,-0.33 -0.78,-0.66 -1.15,-1l1.49,-1.69c0.37,0.33 0.74,0.66 1.12,0.98c1.86,1.6 3.81,3.15 5.81,4.61l-1.33,1.83zm178.12,-9.75l-1.61,-1.58c2.01,-2.05 4,-4.28 5.92,-6.65l1.75,1.42c-1.97,2.42 -4,4.71 -6.06,6.81zm-191.8,-2.26c-2.08,-2.15 -4.13,-4.42 -6.09,-6.75l1.72,-1.46c1.93,2.3 3.95,4.53 5.99,6.63l-1.62,1.58zm203.29,-11.85l-1.85,-1.28c1.62,-2.35 3.21,-4.81 4.85,-7.52l1.93,1.17c-1.67,2.75 -3.28,5.24 -4.93,7.63zm-215,-2.05c-1.76,-2.41 -3.5,-4.93 -5.15,-7.49l1.91,-1.23c1.62,2.53 3.32,5.02 5.06,7.38l-1.82,1.34zm224.47,-13.42l-1.97,-1.09c1.33,-2.4 2.72,-4.99 4.26,-7.92l2,1.04c-1.55,2.96 -2.95,5.56 -4.29,7.97zm-234.29,-1.86c-1.47,-2.6 -2.89,-5.3 -4.23,-8.04l2.02,-0.99c1.32,2.69 2.73,5.36 4.17,7.92l-1.96,1.11zm242.7,-14.16l-2.02,-0.99c1.29,-2.64 2.5,-5.39 3.6,-8.17l2.1,0.84c-1.13,2.83 -2.36,5.63 -3.68,8.32zm-250.72,-2.12c-1.18,-2.76 -2.31,-5.6 -3.36,-8.44l2.12,-0.78c1.03,2.81 2.15,5.61 3.31,8.33l-2.07,0.89zm257.44,-14.78l-2.14,-0.68c0.87,-2.77 1.68,-5.67 2.41,-8.61l2.19,0.54c-0.74,3 -1.57,5.94 -2.46,8.75zm-263.73,-2.23c-0.92,-2.86 -1.82,-5.77 -2.67,-8.66l2.17,-0.63c0.84,2.87 1.73,5.76 2.64,8.59l-2.14,0.7zm268.11,-15.39l-2.21,-0.42c0.53,-2.84 1.02,-5.82 1.44,-8.85l2.23,0.31c-0.43,3.07 -0.92,6.08 -1.46,8.96zm-273.21,-1.98c-0.78,-2.9 -1.52,-5.85 -2.23,-8.78l2.2,-0.52c0.69,2.91 1.43,5.84 2.2,8.71l-2.17,0.59zm275.74,-15.98l-2.24,-0.22c0.28,-2.86 0.53,-5.87 0.74,-8.96l2.24,0.15c-0.2,3.11 -0.46,6.15 -0.74,9.03zm-279.96,-1.63c-0.62,-2.94 -1.22,-5.92 -1.77,-8.88l2.21,-0.41c0.55,2.93 1.14,5.91 1.76,8.82l-2.2,0.47zm281.18,-16.44l-2.25,-0.08c0.11,-2.86 0.2,-5.89 0.26,-9l2.25,0.05c-0.06,3.12 -0.15,6.16 -0.26,9.03zm-284.5,-1.36c-0.48,-2.96 -0.93,-5.98 -1.32,-8.95l2.23,-0.3c0.4,2.95 0.84,5.95 1.31,8.9l-2.22,0.35zm-2.42,-17.93c-0.33,-2.99 -0.61,-6.02 -0.86,-9.01l2.24,-0.19c0.25,2.98 0.53,5.99 0.86,8.96l-2.24,0.24zm-1.5,-18.04c-0.17,-3 -0.3,-6.04 -0.4,-9.04l2.25,-0.07c0.09,2.98 0.23,6 0.4,8.98l-2.25,0.13zm-0.56,-18.09l0,-1.25c0,-2.59 0.04,-5.22 0.1,-7.8l2.25,0.05c-0.06,2.57 -0.09,5.17 -0.09,7.76l0,1.23l-2.26,0.01zm2.69,-17.98l-2.25,-0.12c0.16,-3.01 0.35,-6.04 0.6,-9.03l2.24,0.18c-0.24,2.97 -0.44,5.98 -0.59,8.97zm1.44,-17.92l-2.23,-0.25c0.32,-2.99 0.71,-6.01 1.13,-8.98l2.22,0.31c-0.41,2.95 -0.79,5.94 -1.12,8.92zm2.52,-17.79l-2.22,-0.38c0.52,-2.99 1.09,-5.98 1.69,-8.9l2.21,0.46c-0.6,2.9 -1.17,5.87 -1.68,8.82zm3.65,-17.59l-2.2,-0.53c0.71,-2.94 1.48,-5.89 2.29,-8.77l2.17,0.61c-0.8,2.86 -1.56,5.78 -2.26,8.69zm4.82,-17.3l-2.14,-0.68c0.91,-2.88 1.89,-5.77 2.9,-8.59l2.12,0.77c-1,2.78 -1.97,5.64 -2.88,8.5zm6.07,-16.89l-2.09,-0.84c1.13,-2.81 2.33,-5.62 3.55,-8.34l2.06,0.92c-1.21,2.7 -2.4,5.48 -3.52,8.26zm7.37,-16.36l-2.02,-1.01c1.36,-2.71 2.78,-5.41 4.22,-8.02l1.97,1.09c-1.43,2.58 -2.84,5.26 -4.17,7.94zm8.69,-15.69l-1.93,-1.18c0.59,-0.95 1.17,-1.89 1.76,-2.82c1.03,-1.62 2.12,-3.23 3.22,-4.79l1.84,1.31c-1.09,1.52 -2.14,3.1 -3.15,4.68c-0.59,0.93 -1.17,1.86 -1.74,2.8zm10.34,-14.54l-1.72,-1.46c1.94,-2.31 4.01,-4.57 6.14,-6.72l1.59,1.59c-2.08,2.1 -4.11,4.32 -6.01,6.59zm201.92,-5.57c-2.2,-2.03 -4.47,-4 -6.75,-5.86l1.42,-1.75c2.31,1.89 4.62,3.89 6.86,5.95l-1.53,1.66zm-189.37,-7.08l-1.46,-1.72c2.29,-1.96 4.69,-3.85 7.15,-5.63l1.32,1.83c-2.41,1.74 -4.77,3.6 -7.01,5.52zm175.53,-4.23c-2.43,-1.75 -4.93,-3.43 -7.43,-4.99l1.2,-1.92c2.54,1.6 5.08,3.3 7.54,5.08l-1.31,1.83zm-161.1,-6.24l-1.18,-1.92c2.57,-1.57 5.23,-3.06 7.94,-4.45l1.02,2.01c-2.65,1.36 -5.27,2.83 -7.78,4.36zm145.95,-3.23c-2.61,-1.38 -5.3,-2.71 -8.03,-3.92l0.92,-2.06c2.77,1.23 5.52,2.58 8.17,3.99l-1.06,1.99zm-130.07,-4.91l-0.88,-2.08c2.75,-1.17 5.6,-2.27 8.48,-3.26l0.74,2.13c-2.84,0.98 -5.64,2.06 -8.34,3.21zm113.77,-2.37c-2.77,-1.02 -5.62,-1.96 -8.48,-2.8l0.64,-2.16c2.9,0.85 5.81,1.81 8.62,2.84l-0.78,2.12zm-96.9,-3.5l-0.6,-2.18c2.88,-0.79 5.85,-1.51 8.82,-2.14l0.47,2.21c-2.93,0.62 -5.85,1.33 -8.69,2.11zm79.77,-1.56c-2.87,-0.66 -5.82,-1.24 -8.77,-1.73l0.37,-2.23c2.99,0.5 5.99,1.1 8.9,1.76l-0.5,2.2zm-62.28,-2.15l-0.33,-2.23c2.95,-0.45 5.98,-0.82 9,-1.1l0.22,2.24c-2.98,0.29 -5.97,0.65 -8.89,1.09zm44.64,-0.8c-2.92,-0.32 -5.92,-0.58 -8.91,-0.75l0.12,-2.25c3.04,0.17 6.08,0.43 9.04,0.75l-0.25,2.25zm-26.82,-0.9l-0.09,-2.25c2.98,-0.13 6.05,-0.18 9.06,-0.15l-0.02,2.26c-2.98,-0.03 -6,0.02 -8.95,0.14z" fill="#59595C" id="svg_153"/>
   <path d="m958.17,426.9l-2.91,0c-0.33,0 -0.64,0.15 -0.86,0.4l-8.56,10.03c-0.38,0.45 -0.36,1.11 0.06,1.53l1.63,1.63c0.44,0.44 1.15,0.44 1.59,0l5.02,-4.96l0,21.73c0,0.62 0.5,1.13 1.12,1.13l2.91,0c0.62,0 1.13,-0.51 1.13,-1.13l0,-29.23c0,-0.62 -0.51,-1.13 -1.13,-1.13z" fill="#FCFDFF" id="svg_155"/>
   <path d="m992.75,617.6l-9.01,0l0,-2.25l9.01,0l0,2.25zm-18.02,0l-9.01,0l0,-2.25l9.01,0l0,2.25zm-18.02,0l-9.01,0l0,-2.25l9.01,0l0,2.25zm-18.02,0l-9.01,0l0,-2.25l9.01,0l0,2.25zm-18.03,0l-9.01,0l0,-2.25l9.01,0l0,2.25zm-18.02,0l-9.01,0l0,-2.25l9.01,0l0,2.25z" fill="#59595C" id="svg_156"/>
   <path d="m1008.42,616.24l-15.98,-9.24l0,18.46l15.98,-9.22z" fill="#59595C" id="svg_157"/>
   <path d="m985.07,626.86l-9.22,16l18.45,0l-9.23,-16z" fill="#59595C" id="svg_158"/>
   <path d="m890.98,627.13l-12.73,0c0.16,-0.31 0.39,-0.63 0.69,-0.95c0.8,-0.89 2.08,-2.06 3.81,-3.48l-0.02,-0.03c0.27,-0.18 0.56,-0.43 0.89,-0.71c2.45,-2.08 4.41,-4.12 5.83,-6.07c1.5,-2.07 2.27,-4.46 2.27,-7.09c0,-2.61 -0.89,-4.73 -2.64,-6.31c-1.72,-1.54 -4.02,-2.32 -6.84,-2.32c-1.97,0 -3.9,0.49 -5.73,1.46c-1.8,0.96 -3.35,2.31 -4.59,4.02c-0.35,0.48 -0.27,1.14 0.18,1.51l2.35,2.02c0.24,0.21 0.54,0.31 0.86,0.27c0.31,-0.04 0.59,-0.2 0.78,-0.45c0.9,-1.22 1.88,-2.15 2.91,-2.77c1.97,-1.2 4.73,-1.2 6.15,0.08c0.68,0.63 1.02,1.44 1.02,2.49c0,1.76 -0.44,3.26 -1.35,4.59c-0.96,1.42 -2.34,2.9 -4.15,4.43c-0.09,0.08 -0.56,0.47 -1.41,1.16c-1.48,1.22 -2.69,2.29 -3.58,3.17c-0.94,0.92 -1.73,1.98 -2.36,3.14c-0.68,1.24 -1.02,2.59 -1.02,4.04l0,1.83c0,0.63 0.51,1.13 1.13,1.13l17.55,0c0.62,0 1.12,-0.5 1.12,-1.13l0,-2.91c0.01,-0.62 -0.5,-1.12 -1.12,-1.12z" fill="#FCFDFF" id="svg_160"/>
  </g>
 </g>
</svg>