<?xml version="1.0"?>
<svg width="2000" height="2000" xmlns="http://www.w3.org/2000/svg" xmlns:svg="http://www.w3.org/2000/svg" enable-background="new 0 0 2000 2000" version="1.1" xml:space="preserve">
 <g class="layer">
  <title>Layer 1</title>
  <g id="svg_147">
   <path d="m1258.62,850.59c-20.63,0 -37.4,-16.82 -37.4,-37.49l0,-125.96c0,-38.53 -14.83,-46.27 -38.74,-46.27c-16.32,0 -27.42,4.99 -34.96,15.7c-9.08,12.89 -13.69,31.37 -13.69,54.93l0,101.6c0,20.67 -16.77,37.49 -37.4,37.49l-4.42,0c-20.62,0 -37.4,-16.82 -37.4,-37.49l0,-399.54c0,-20.68 16.78,-37.49 37.4,-37.49l4.42,0c20.63,0 37.4,16.81 37.4,37.49l0,164.55c15.9,-9.06 34.08,-13.65 54.1,-13.65c19.56,0 37.98,4.1 54.75,12.19c17.58,8.5 31.75,21.19 42.12,37.74c10.37,16.56 15.63,36.02 15.63,57.85l0,140.86c0,20.67 -16.77,37.49 -37.4,37.49l-4.41,0l0,0z" fill="#FFFFFF" id="svg_165"/>
   <g id="svg_166">
    <defs>
     <rect height="484.1" id="SVGID_00000153669178000553802540000017011075404490951336_" width="254.94" x="1050.06" y="371.41"/>
    </defs>
    <clipPath id="SVGID_00000164496771662445240640000009754527751364705725_">
     <use href="#SVGID_00000153669178000553802540000017011075404490951336_" id="svg_167" overflow="visible"/>
    </clipPath>
    <g clip-path="url(#SVGID_00000164496771662445240640000009754527751364705725_)" id="svg_168">
     <path d="m1096.43,376.07c20.63,0 37.4,16.81 37.4,37.49l0,164.55c15.9,-9.06 34.08,-13.65 54.1,-13.65c19.56,0 37.98,4.1 54.75,12.19c17.58,8.5 31.75,21.19 42.12,37.74c10.37,16.56 15.63,36.02 15.63,57.85l0,140.86c0,20.67 -16.78,37.49 -37.4,37.49l-4.41,0c-20.63,0 -37.4,-16.82 -37.4,-37.49l0,-125.96c0,-38.53 -14.83,-46.27 -38.74,-46.27c-16.31,0 -27.42,4.99 -34.96,15.7c-9.08,12.89 -13.69,31.37 -13.69,54.93l0,101.6c0,20.67 -16.77,37.49 -37.4,37.49l-4.42,0c-20.62,0 -37.4,-16.82 -37.4,-37.49l0,-399.54c0,-20.68 16.78,-37.49 37.4,-37.49l4.42,0m0,-4.57l-4.42,0c-23.13,0 -41.95,18.87 -41.95,42.06l0,399.54c0,23.18 18.82,42.05 41.95,42.05l4.42,0c23.14,0 41.96,-18.87 41.96,-42.05l0,-101.6c0,-22.6 4.32,-40.2 12.85,-52.31c6.7,-9.52 16.34,-13.76 31.24,-13.76c12.33,0 20.07,2.27 25.11,7.34c6.1,6.17 9.07,17.41 9.07,34.37l0,125.96c0,23.18 18.82,42.05 41.96,42.05l4.41,0c23.14,0 41.96,-18.87 41.96,-42.05l0,-140.86c0,-22.71 -5.5,-42.99 -16.34,-60.28c-10.83,-17.28 -25.63,-30.54 -43.99,-39.42c-17.4,-8.39 -36.48,-12.65 -56.73,-12.65c-18.01,0 -34.64,3.6 -49.54,10.71l0,-157.05c0,-23.18 -18.82,-42.05 -41.96,-42.05z" id="svg_169"/>
    </g>
   </g>
   <path d="m1261.7,815.69l-2.28,0l0,-9.21l2.28,0l0,9.21zm0,-18.36l-2.28,0l0,-9.16l2.28,0l0,9.16zm0,-18.31l-2.28,0l0,-9.15l2.28,0l0,9.15zm0,-18.3l-2.28,0l0,-9.15l2.28,0l0,9.15zm0,-18.31l-2.28,0l0,-9.14l2.28,0l0,9.14zm0,-18.29l-2.28,0l0,-9.15l2.28,0l0,9.15zm0,-18.31l-2.28,0l0,-9.15l2.28,0l0,9.15zm0,-18.31l-2.28,0l0,-9.17l2.28,0l0,9.17zm-2.6,-18.21c-0.29,-2.95 -0.75,-5.93 -1.4,-8.87l2.22,-0.49c0.67,3.02 1.15,6.1 1.44,9.14l-2.26,0.22zm-3.84,-17.51c-0.98,-2.81 -2.12,-5.6 -3.43,-8.3l2.05,-0.99c1.34,2.77 2.53,5.64 3.53,8.54l-2.15,0.75zm-7.78,-16.15c-1.6,-2.53 -3.36,-4.99 -5.23,-7.31l1.77,-1.43c1.93,2.39 3.74,4.91 5.38,7.51l-1.92,1.23zm-112.74,-13.02l-1.47,-1.73c1.06,-0.91 2.16,-1.79 3.26,-2.64l1.39,1.81c-1.08,0.83 -2.15,1.69 -3.18,2.56zm101.48,-0.93c-2.14,-2.09 -4.42,-4.07 -6.78,-5.87l1.38,-1.81c2.43,1.86 4.78,3.89 6.99,6.05l-1.59,1.63zm-90.91,-6.75l-1.2,-1.94c2.6,-1.62 5.32,-3.12 8.07,-4.47l0.99,2.05c-2.68,1.31 -5.32,2.78 -7.86,4.36zm76.7,-4.11c-0.76,-0.44 -1.54,-0.87 -2.31,-1.29c-1.76,-0.93 -3.54,-1.77 -5.32,-2.5l-0.38,-0.16l0.84,-2.12l0.41,0.17c1.84,0.75 3.7,1.63 5.52,2.6c0.8,0.43 1.59,0.88 2.38,1.33l-1.14,1.97zm-60.58,-3.78l-0.78,-2.15c2.9,-1.06 5.86,-1.97 8.81,-2.71l0.55,2.21c-2.87,0.72 -5.76,1.61 -8.58,2.65zm44.06,-2.94c-2.86,-0.72 -5.83,-1.26 -8.8,-1.6l0.27,-2.27c3.06,0.36 6.12,0.91 9.09,1.66l-0.56,2.21zm-26.67,-1.4l-0.3,-2.26c3.07,-0.41 6.17,-0.64 9.21,-0.68l0.02,2.29c-2.94,0.03 -5.95,0.25 -8.93,0.65z" fill="#59595C" id="svg_170"/>
   <path d="m1095.69,821.02l-2.28,0l0,-5.06l2.28,0l0,5.06zm0,-14.18l-2.28,0l0,-9.12l2.28,0l0,9.12zm0,-18.24l-2.28,0l0,-9.12l2.28,0l0,9.12zm0,-18.25l-2.28,0l0,-9.12l2.28,0l0,9.12zm0,-18.23l-2.28,0l0,-9.13l2.28,0l0,9.13zm0,-18.25l-2.28,0l0,-9.12l2.28,0l0,9.12zm0,-18.24l-2.28,0l0,-9.13l2.28,0l0,9.13zm0,-18.25l-2.28,0l0,-9.12l2.28,0l0,9.12zm0,-18.24l-2.28,0l0,-9.12l2.28,0l0,9.12zm0,-18.25l-2.28,0l0,-9.12l2.28,0l0,9.12zm0,-18.24l-2.28,0l0,-9.11l2.28,0l0,9.11zm0,-18.24l-2.28,0l0,-9.12l2.28,0l0,9.12zm0,-18.24l-2.28,0l0,-9.12l2.28,0l0,9.12zm0,-18.25l-2.28,0l0,-9.12l2.28,0l0,9.12zm0,-18.24l-2.28,0l0,-9.12l2.28,0l0,9.12zm0,-18.24l-2.28,0l0,-9.12l2.28,0l0,9.12zm0,-18.25l-2.28,0l0,-9.12l2.28,0l0,9.12zm0,-18.23l-2.28,0l0,-9.13l2.28,0l0,9.13zm0,-18.25l-2.28,0l0,-9.12l2.28,0l0,9.12zm0,-18.24l-2.28,0l0,-9.13l2.28,0l0,9.13zm0,-18.25l-2.28,0l0,-9.12l2.28,0l0,9.12zm0,-18.24l-2.28,0l0,-9.12l2.28,0l0,9.12z" fill="#59595C" id="svg_171"/>
   <path d="m1094.56,831.18l-9.32,-16.17l18.62,0l-9.3,16.17z" fill="#59595C" id="svg_172"/>
   <path d="m1260.57,831.18l-9.32,-16.17l18.62,0l-9.3,16.17z" fill="#59595C" id="svg_173"/>
   <path d="m1096.94,400.78l-2.65,0c-0.3,0 -0.58,0.14 -0.78,0.37l-7.78,9.12c-0.34,0.41 -0.32,1.02 0.06,1.4l1.48,1.48c0.39,0.39 1.04,0.39 1.44,0l4.56,-4.51l0,19.77c0,0.56 0.46,1.02 1.02,1.02l2.64,0c0.57,0 1.03,-0.46 1.03,-1.02l0,-26.6c0,-0.56 -0.46,-1.03 -1.02,-1.03z" fill="#FCFDFF" id="svg_175"/>
   <path d="m1131.2,637.64l-11.57,0c0.15,-0.27 0.35,-0.56 0.62,-0.85c0.72,-0.8 1.89,-1.87 3.47,-3.17l-0.02,-0.02c0.24,-0.17 0.51,-0.4 0.8,-0.65c2.24,-1.89 4.02,-3.75 5.31,-5.52c1.37,-1.89 2.06,-4.06 2.06,-6.45c0,-2.38 -0.81,-4.31 -2.4,-5.75c-1.57,-1.4 -3.66,-2.11 -6.21,-2.11c-1.79,0 -3.54,0.45 -5.21,1.33c-1.64,0.87 -3.05,2.1 -4.17,3.66c-0.32,0.43 -0.25,1.03 0.15,1.38l2.15,1.84c0.21,0.18 0.48,0.27 0.78,0.23c0.27,-0.03 0.53,-0.17 0.7,-0.41c0.82,-1.11 1.72,-1.95 2.66,-2.52c1.79,-1.09 4.29,-1.09 5.58,0.08c0.62,0.56 0.93,1.31 0.93,2.27c0,1.6 -0.4,2.96 -1.22,4.18c-0.88,1.29 -2.14,2.63 -3.78,4.02c-0.08,0.08 -0.51,0.43 -1.28,1.06c-1.34,1.11 -2.44,2.08 -3.26,2.89c-0.85,0.84 -1.57,1.79 -2.15,2.85c-0.61,1.13 -0.92,2.36 -0.92,3.67l0,1.68c0,0.56 0.46,1.02 1.02,1.02l15.96,0c0.56,0 1.02,-0.46 1.02,-1.02l0,-2.66c0,-0.56 -0.46,-1.03 -1.02,-1.03z" fill="#FCFDFF" id="svg_177"/>
  </g>
 </g>
</svg>