<?xml version="1.0"?>
<svg width="2000" height="2000" xmlns="http://www.w3.org/2000/svg" xmlns:svg="http://www.w3.org/2000/svg" enable-background="new 0 0 2000 2000" version="1.1" xml:space="preserve">
 <g class="layer">
  <title>Layer 1</title>
  <g id="svg_147">
   <path d="m963.42,850.87c-27.94,0 -50.66,-22.69 -50.66,-50.58l0,-149.62l-167.03,0l0,149.62c0,27.89 -22.73,50.58 -50.67,50.58c-27.93,0 -50.67,-22.69 -50.67,-50.58l0,-373.92c0,-27.89 22.73,-50.58 50.67,-50.58c27.94,0 50.67,22.69 50.67,50.58l0,131.13l167.03,0l0,-131.13c0,-27.89 22.72,-50.58 50.66,-50.58c27.93,0 50.67,22.69 50.67,50.58l0,373.92c-0.01,27.89 -22.74,50.58 -50.67,50.58z" fill="#FFFFFF" id="svg_148"/>
   <g id="svg_149">
    <defs>
     <rect height="484.38" id="SVGID_00000023974159496997029230000008054823555720815257_" width="378.58" x="639.94" y="371.13"/>
    </defs>
    <clipPath id="SVGID_00000072241042731084490490000015632071911517903550_">
     <use href="#SVGID_00000023974159496997029230000008054823555720815257_" id="svg_150" overflow="visible"/>
    </clipPath>
    <g clip-path="url(#SVGID_00000072241042731084490490000015632071911517903550_)" id="svg_151">
     <path d="m963.42,375.79c27.93,0 50.66,22.69 50.66,50.58l0,373.92c0,27.89 -22.73,50.58 -50.66,50.58c-27.94,0 -50.66,-22.69 -50.66,-50.58l0,-149.62l-167.03,0l0,149.62c0,27.89 -22.73,50.58 -50.67,50.58c-27.93,0 -50.67,-22.69 -50.67,-50.58l0,-373.92c0,-27.89 22.73,-50.58 50.67,-50.58c27.94,0 50.67,22.69 50.67,50.58l0,131.13l167.03,0l0,-131.13c0,-27.89 22.72,-50.58 50.66,-50.58m0,-4.46c-30.39,0 -55.12,24.69 -55.12,55.04l0,126.69l-158.11,0l0,-126.69c0,-30.35 -24.73,-55.04 -55.13,-55.04c-30.4,0 -55.12,24.69 -55.12,55.04l0,373.92c0,30.34 24.73,55.04 55.13,55.04c30.39,0 55.12,-24.7 55.12,-55.04l0,-145.16l158.11,0l0,145.16c0,30.34 24.73,55.04 55.12,55.04c30.4,0 55.12,-24.7 55.12,-55.04l0,-373.92c0,-30.35 -24.72,-55.04 -55.12,-55.04z" id="svg_152"/>
    </g>
   </g>
   <path d="m695.27,815.98l-2.23,0l0,-3.29l2.23,0l0,3.29zm0,-12.19l-2.23,0l0,-8.9l2.23,0l0,8.9zm0,-17.8l-2.23,0l0,-8.91l2.23,0l0,8.91zm0,-17.81l-2.23,0l0,-8.9l2.23,0l0,8.9zm0,-17.8l-2.23,0l0,-8.91l2.23,0l0,8.91zm0,-17.81l-2.23,0l0,-8.9l2.23,0l0,8.9zm0,-17.81l-2.23,0l0,-8.9l2.23,0l0,8.9zm0,-17.8l-2.23,0l0,-8.91l2.23,0l0,8.91zm0,-17.81l-2.23,0l0,-8.9l2.23,0l0,8.9zm0,-17.8l-2.23,0l0,-8.91l2.23,0l0,8.91zm0,-17.81l-2.23,0l0,-8.9l2.23,0l0,8.9zm0,-17.8l-2.23,0l0,-8.9l2.23,0l0,8.9zm0,-17.81l-2.23,0l0,-8.9l2.23,0l0,8.9zm0,-17.8l-2.23,0l0,-8.9l2.23,0l0,8.9zm0,-17.81l-2.23,0l0,-8.9l2.23,0l0,8.9zm0,-17.8l-2.23,0l0,-8.91l2.23,0l0,8.91zm0,-17.81l-2.23,0l0,-8.9l2.23,0l0,8.9zm0,-17.81l-2.23,0l0,-8.9l2.23,0l0,8.9zm0,-17.8l-2.23,0l0,-8.9l2.23,0l0,8.9zm0,-17.81l-2.23,0l0,-8.9l2.23,0l0,8.9zm0,-17.8l-2.23,0l0,-8.9l2.23,0l0,8.9zm0,-17.8l-2.23,0l0,-8.91l2.23,0l0,8.91z" fill="#59595C" id="svg_153"/>
   <path d="m694.15,826.5l9.13,-15.78l-18.25,0l9.12,15.78z" fill="#59595C" id="svg_154"/>
   <path d="m695.14,406.38l-2.87,0c-0.33,0 -0.64,0.14 -0.85,0.39l-8.47,9.89c-0.38,0.45 -0.36,1.11 0.06,1.52l1.6,1.61c0.44,0.43 1.15,0.43 1.58,0l4.96,-4.9l0,21.45c0,0.61 0.5,1.11 1.11,1.11l2.88,0c0.61,0 1.12,-0.5 1.12,-1.11l0,-28.85c0,-0.61 -0.51,-1.11 -1.12,-1.11z" fill="#FCFDFF" id="svg_156"/>
   <path d="m964.36,815.98l-2.23,0l0,-3.29l2.23,0l0,3.29zm0,-12.19l-2.23,0l0,-8.9l2.23,0l0,8.9zm0,-17.8l-2.23,0l0,-8.91l2.23,0l0,8.91zm0,-17.81l-2.23,0l0,-8.9l2.23,0l0,8.9zm0,-17.8l-2.23,0l0,-8.91l2.23,0l0,8.91zm0,-17.81l-2.23,0l0,-8.9l2.23,0l0,8.9zm0,-17.81l-2.23,0l0,-8.9l2.23,0l0,8.9zm0,-17.8l-2.23,0l0,-8.91l2.23,0l0,8.91zm0,-17.81l-2.23,0l0,-8.9l2.23,0l0,8.9zm0,-17.8l-2.23,0l0,-8.91l2.23,0l0,8.91zm0,-17.81l-2.23,0l0,-8.9l2.23,0l0,8.9zm0,-17.8l-2.23,0l0,-8.9l2.23,0l0,8.9zm0,-17.81l-2.23,0l0,-8.9l2.23,0l0,8.9zm0,-17.8l-2.23,0l0,-8.9l2.23,0l0,8.9zm0,-17.81l-2.23,0l0,-8.9l2.23,0l0,8.9zm0,-17.8l-2.23,0l0,-8.91l2.23,0l0,8.91zm0,-17.81l-2.23,0l0,-8.9l2.23,0l0,8.9zm0,-17.81l-2.23,0l0,-8.9l2.23,0l0,8.9zm0,-17.8l-2.23,0l0,-8.9l2.23,0l0,8.9zm0,-17.81l-2.23,0l0,-8.9l2.23,0l0,8.9zm0,-17.8l-2.23,0l0,-8.9l2.23,0l0,8.9zm0,-17.8l-2.23,0l0,-8.91l2.23,0l0,8.91z" fill="#59595C" id="svg_157"/>
   <path d="m963.25,826.5l9.12,-15.78l-18.24,0l9.12,15.78z" fill="#59595C" id="svg_158"/>
   <path d="m972.23,432.35l-12.6,0c0.17,-0.31 0.38,-0.62 0.68,-0.94c0.79,-0.88 2.06,-2.03 3.78,-3.44l-0.02,-0.02c0.25,-0.18 0.55,-0.42 0.87,-0.71c2.43,-2.04 4.37,-4.06 5.77,-5.99c1.49,-2.03 2.25,-4.39 2.25,-6.99c0,-2.57 -0.88,-4.66 -2.61,-6.22c-1.71,-1.52 -3.98,-2.29 -6.76,-2.29c-1.96,0 -3.86,0.48 -5.67,1.44c-1.79,0.95 -3.32,2.28 -4.55,3.96c-0.35,0.47 -0.27,1.12 0.18,1.5l2.33,1.99c0.22,0.2 0.52,0.3 0.84,0.26c0.31,-0.03 0.58,-0.19 0.77,-0.44c0.9,-1.21 1.87,-2.12 2.89,-2.74c1.95,-1.18 4.67,-1.18 6.08,0.09c0.68,0.61 1.01,1.41 1.01,2.45c0,1.74 -0.44,3.22 -1.33,4.53c-0.95,1.4 -2.33,2.86 -4.11,4.37c-0.09,0.09 -0.56,0.46 -1.4,1.15c-1.46,1.21 -2.65,2.26 -3.54,3.13c-0.93,0.91 -1.71,1.95 -2.34,3.1c-0.66,1.22 -1,2.56 -1,3.97l0,1.82c0,0.62 0.49,1.12 1.11,1.12l17.36,0c0.62,0 1.12,-0.5 1.12,-1.12l0,-2.87c0,-0.62 -0.5,-1.11 -1.11,-1.11z" fill="#FCFDFF" id="svg_160"/>
   <path d="m937.01,606.34l-7.29,0l0,-2.23l7.29,0l0,2.23zm-16.21,0l-8.91,0l0,-2.23l8.91,0l0,2.23zm-17.82,0l-8.92,0l0,-2.23l8.92,0l0,2.23zm-17.83,0l-8.92,0l0,-2.23l8.92,0l0,2.23zm-17.83,0l-8.92,0l0,-2.23l8.92,0l0,2.23zm-17.84,0l-8.91,0l0,-2.23l8.91,0l0,2.23zm-17.83,0l-8.92,0l0,-2.23l8.92,0l0,2.23zm-17.83,0l-8.92,0l0,-2.23l8.92,0l0,2.23zm-17.83,0l-8.92,0l0,-2.23l8.92,0l0,2.23zm-17.83,0l-8.92,0l0,-2.23l8.92,0l0,2.23zm-17.83,0l-8.92,0l0,-2.23l8.92,0l0,2.23zm-17.84,0l-8.91,0l0,-2.23l8.91,0l0,2.23z" fill="#59595C" id="svg_161"/>
   <path d="m947.54,604.99l-15.8,-9.11l0,18.22l15.8,-9.11z" fill="#59595C" id="svg_162"/>
   <path d="m737.63,606.38c-0.65,-0.92 -1.42,-1.66 -2.31,-2.22c0.61,-0.51 1.13,-1.11 1.57,-1.82c0.82,-1.34 1.24,-2.89 1.24,-4.62c0,-1.66 -0.38,-3.16 -1.14,-4.47c-0.77,-1.32 -1.85,-2.37 -3.21,-3.1c-1.34,-0.74 -2.88,-1.11 -4.56,-1.11c-2.21,0 -4.18,0.62 -5.86,1.84c-1.65,1.19 -2.95,2.83 -3.83,4.87c-0.24,0.53 -0.03,1.15 0.47,1.42l2.33,1.27c0.28,0.15 0.59,0.18 0.87,0.09c0.3,-0.1 0.53,-0.3 0.67,-0.57c0.66,-1.34 1.44,-2.37 2.31,-3.06c0.83,-0.66 1.82,-0.97 3.04,-0.97c1.08,0 1.94,0.34 2.61,1.04c0.69,0.7 1.02,1.61 1.02,2.75c0,1.3 -0.36,2.32 -1.1,3.11c-0.71,0.77 -1.67,1.15 -2.91,1.15l-1.86,0c-0.62,0 -1.11,0.5 -1.11,1.11l0,2.62c0,0.62 0.49,1.12 1.11,1.12l2.03,0c1.46,0 2.61,0.44 3.53,1.36c0.92,0.92 1.37,2.08 1.37,3.53c0,1.39 -0.44,2.5 -1.34,3.39c-0.91,0.9 -2.02,1.33 -3.38,1.33c-1.17,0 -2.16,-0.33 -3.03,-1.01c-0.91,-0.72 -1.68,-1.72 -2.28,-3c-0.13,-0.28 -0.38,-0.5 -0.68,-0.59c-0.29,-0.09 -0.62,-0.05 -0.89,0.11l-2.54,1.48c-0.48,0.27 -0.68,0.86 -0.48,1.37c0.82,2 2.08,3.61 3.74,4.8c1.68,1.21 3.71,1.82 6.02,1.82c1.84,0 3.56,-0.42 5.12,-1.23c1.57,-0.82 2.82,-1.99 3.74,-3.47c0.9,-1.49 1.36,-3.17 1.36,-5c0,-2.01 -0.55,-3.81 -1.64,-5.34z" fill="#FCFDFF" id="svg_164"/>
  </g>
 </g>
</svg>