<?xml version="1.0"?>
<svg width="2000" height="2000" xmlns="http://www.w3.org/2000/svg" xmlns:svg="http://www.w3.org/2000/svg" enable-background="new 0 0 2000 2000" version="1.1" xml:space="preserve">
 <g class="layer">
  <title>Layer 1</title>
  <g id="svg_147">
   <path d="m757.34,885.75c-28.46,0 -51.61,-23.19 -51.61,-51.68c0,-28.5 23.15,-51.68 51.61,-51.68l48.81,0l0,-306.78l-48.81,0c-28.46,0 -51.61,-23.18 -51.61,-51.67c0,-28.5 23.15,-51.68 51.61,-51.68l202.4,0c28.46,0 51.61,23.18 51.61,51.68c0,28.5 -23.15,51.67 -51.61,51.67l-44.36,0l0,306.78l44.36,0c28.46,0 51.61,23.18 51.61,51.67c0,28.5 -23.15,51.68 -51.61,51.68l-202.4,0l0,0.01z" fill="#FFFFFF" id="svg_167"/>
   <g id="svg_168">
    <defs>
     <rect height="523.1" id="SVGID_00000088120264340099004560000013428888056186927807_" width="315.24" x="700.92" y="367.44"/>
    </defs>
    <clipPath id="SVGID_00000002380659695268618080000017541051827333744828_">
     <use href="#SVGID_00000088120264340099004560000013428888056186927807_" id="svg_169" overflow="visible"/>
    </clipPath>
    <g clip-path="url(#SVGID_00000002380659695268618080000017541051827333744828_)" id="svg_170">
     <path d="m959.74,372.26c28.46,0 51.61,23.18 51.61,51.68c0,28.49 -23.15,51.67 -51.61,51.67l-44.36,0l0,306.77l44.36,0c28.46,0 51.61,23.18 51.61,51.68c0,28.5 -23.15,51.68 -51.61,51.68l-202.4,0c-28.46,0 -51.61,-23.18 -51.61,-51.68c0,-28.5 23.15,-51.68 51.61,-51.68l48.81,0l0,-306.77l-48.81,0c-28.46,0 -51.61,-23.18 -51.61,-51.67c0,-28.5 23.15,-51.68 51.61,-51.68l202.4,0m0,-4.81l-202.4,0c-31.11,0 -56.42,25.34 -56.42,56.49c0,31.15 25.31,56.48 56.42,56.48l44.01,0l0,297.15l-44.01,0c-31.11,0 -56.42,25.34 -56.42,56.49c0,31.15 25.31,56.49 56.42,56.49l202.4,0c31.1,0 56.41,-25.34 56.41,-56.49c0,-31.15 -25.3,-56.49 -56.41,-56.49l-39.56,0l0,-297.15l39.56,0c31.1,0 56.41,-25.33 56.41,-56.49c0,-31.14 -25.31,-56.48 -56.41,-56.48z" id="svg_171"/>
    </g>
   </g>
   <path d="m861.47,814.74l-2.41,0l0,-6.05l2.41,0l0,6.05zm0,-15.67l-2.41,0l0,-9.62l2.41,0l0,9.62zm0,-19.24l-2.41,0l0,-9.63l2.41,0l0,9.63zm0,-19.25l-2.41,0l0,-9.62l2.41,0l0,9.62zm0,-19.24l-2.41,0l0,-9.62l2.41,0l0,9.62zm0,-19.24l-2.41,0l0,-9.63l2.41,0l0,9.63zm0,-19.25l-2.41,0l0,-9.62l2.41,0l0,9.62zm0,-19.24l-2.41,0l0,-9.62l2.41,0l0,9.62zm0,-19.24l-2.41,0l0,-9.63l2.41,0l0,9.63zm0,-19.25l-2.41,0l0,-9.62l2.41,0l0,9.62zm0,-19.24l-2.41,0l0,-9.63l2.41,0l0,9.63zm0,-19.25l-2.41,0l0,-9.63l2.41,0l0,9.63zm0,-19.25l-2.41,0l0,-9.62l2.41,0l0,9.62zm0,-19.24l-2.41,0l0,-9.62l2.41,0l0,9.62zm0,-19.24l-2.41,0l0,-9.63l2.41,0l0,9.63zm0,-19.25l-2.41,0l0,-9.62l2.41,0l0,9.62zm0,-19.24l-2.41,0l0,-9.62l2.41,0l0,9.62zm0,-19.24l-2.41,0l0,-9.63l2.41,0l0,9.63z" fill="#59595C" id="svg_172"/>
   <path d="m860.27,825.27l9.83,-17.04l-19.67,0l9.84,17.04z" fill="#59595C" id="svg_173"/>
   <path d="m861.33,446.52l-3.1,0c-0.35,0 -0.68,0.16 -0.91,0.42l-9.13,10.69c-0.41,0.48 -0.39,1.19 0.06,1.64l1.74,1.73c0.46,0.48 1.22,0.48 1.69,0.01l5.35,-5.29l0,23.18c0,0.66 0.54,1.2 1.2,1.2l3.1,0c0.67,0 1.21,-0.54 1.21,-1.2l0,-31.18c-0.01,-0.66 -0.54,-1.2 -1.21,-1.2z" fill="#FCFDFF" id="svg_175"/>
   <path d="m970.12,836.58l-0.84,0l0,-2.41l0.84,0l0,2.41zm-10.45,0l-9.61,0l0,-2.41l9.61,0l0,2.41zm-19.22,0l-9.61,0l0,-2.41l9.61,0l0,2.41zm-19.22,0l-9.61,0l0,-2.41l9.61,0l0,2.41zm-19.23,0l-9.6,0l0,-2.41l9.6,0l0,2.41zm-19.22,0l-9.6,0l0,-2.41l9.6,0l0,2.41zm-19.22,0l-9.61,0l0,-2.41l9.61,0l0,2.41zm-19.22,0l-9.61,0l0,-2.41l9.61,0l0,2.41zm-19.22,0l-9.61,0l0,-2.41l9.61,0l0,2.41zm-19.23,0l-9.6,0l0,-2.41l9.6,0l0,2.41zm-19.22,0l-9.61,0l0,-2.41l9.61,0l0,2.41zm-19.22,0l-9.61,0l0,-2.41l9.61,0l0,2.41z" fill="#59595C" id="svg_176"/>
   <path d="m979.98,835.12l-17.03,-9.85l0,19.69l17.03,-9.84z" fill="#59595C" id="svg_177"/>
   <path d="m769.21,836.63c-0.69,-0.99 -1.52,-1.8 -2.49,-2.41c0.66,-0.54 1.23,-1.2 1.69,-1.96c0.9,-1.44 1.35,-3.13 1.35,-5c0,-1.78 -0.42,-3.41 -1.24,-4.83s-1.99,-2.55 -3.45,-3.35c-1.46,-0.8 -3.11,-1.2 -4.92,-1.2c-2.38,0 -4.5,0.67 -6.32,1.99c-1.77,1.3 -3.17,3.07 -4.13,5.27c-0.25,0.57 -0.02,1.24 0.52,1.53l2.51,1.38c0.29,0.16 0.63,0.19 0.94,0.09c0.31,-0.1 0.56,-0.33 0.71,-0.62c0.71,-1.44 1.55,-2.56 2.5,-3.31c0.89,-0.7 1.96,-1.04 3.27,-1.04c1.17,0 2.08,0.36 2.81,1.12c0.75,0.76 1.1,1.73 1.1,2.97c0,1.41 -0.38,2.51 -1.19,3.37c-0.76,0.83 -1.79,1.23 -3.13,1.23l-2.01,0c-0.66,0 -1.2,0.55 -1.2,1.21l0,2.83c0,0.67 0.54,1.21 1.2,1.21l2.2,0c1.56,0 2.81,0.48 3.8,1.47c0.99,1 1.47,2.25 1.47,3.82c0,1.5 -0.47,2.7 -1.44,3.66c-0.98,0.97 -2.18,1.44 -3.65,1.44c-1.26,0 -2.33,-0.36 -3.26,-1.09c-0.98,-0.78 -1.81,-1.87 -2.46,-3.25c-0.14,-0.31 -0.41,-0.54 -0.73,-0.64c-0.32,-0.1 -0.67,-0.06 -0.96,0.11l-2.75,1.61c-0.51,0.29 -0.73,0.93 -0.5,1.49c0.88,2.15 2.23,3.9 4.02,5.18c1.82,1.31 4,1.97 6.49,1.97c1.99,0 3.85,-0.45 5.52,-1.34c1.7,-0.89 3.05,-2.15 4.03,-3.75c0.98,-1.6 1.47,-3.42 1.47,-5.4c0.01,-2.17 -0.58,-4.11 -1.77,-5.76z" fill="#FCFDFF" id="svg_179"/>
   <path d="m970.12,425.82l-0.84,0l0,-2.41l0.84,0l0,2.41zm-10.45,0l-9.61,0l0,-2.41l9.61,0l0,2.41zm-19.22,0l-9.61,0l0,-2.41l9.61,0l0,2.41zm-19.22,0l-9.61,0l0,-2.41l9.61,0l0,2.41zm-19.23,0l-9.6,0l0,-2.41l9.6,0l0,2.41zm-19.22,0l-9.6,0l0,-2.41l9.6,0l0,2.41zm-19.22,0l-9.61,0l0,-2.41l9.61,0l0,2.41zm-19.22,0l-9.61,0l0,-2.41l9.61,0l0,2.41zm-19.22,0l-9.61,0l0,-2.41l9.61,0l0,2.41zm-19.23,0l-9.6,0l0,-2.41l9.6,0l0,2.41zm-19.22,0l-9.61,0l0,-2.41l9.61,0l0,2.41zm-19.22,0l-9.61,0l0,-2.41l9.61,0l0,2.41z" fill="#59595C" id="svg_180"/>
   <path d="m979.98,424.36l-17.03,-9.85l0,19.69l17.03,-9.84z" fill="#59595C" id="svg_181"/>
   <path d="m769.42,436.12l-13.58,0c0.18,-0.33 0.42,-0.66 0.73,-1c0.85,-0.95 2.23,-2.2 4.07,-3.72l-0.02,-0.03c0.28,-0.19 0.6,-0.46 0.95,-0.76c2.61,-2.22 4.71,-4.4 6.22,-6.47c1.6,-2.21 2.42,-4.75 2.42,-7.56c0,-2.78 -0.95,-5.05 -2.81,-6.73c-1.84,-1.64 -4.3,-2.48 -7.3,-2.48c-2.1,0 -4.15,0.52 -6.11,1.56c-1.92,1.03 -3.58,2.47 -4.9,4.28c-0.37,0.51 -0.29,1.22 0.19,1.62l2.51,2.16c0.25,0.21 0.57,0.32 0.91,0.28c0.33,-0.04 0.64,-0.21 0.84,-0.48c0.96,-1.3 2,-2.29 3.11,-2.96c2.11,-1.27 5.04,-1.27 6.55,0.09c0.73,0.67 1.09,1.54 1.09,2.66c0,1.88 -0.47,3.47 -1.44,4.89c-1.02,1.52 -2.49,3.09 -4.42,4.73c-0.1,0.09 -0.6,0.5 -1.51,1.24c-1.58,1.3 -2.86,2.44 -3.82,3.38c-1,0.99 -1.84,2.11 -2.52,3.34c-0.71,1.32 -1.08,2.77 -1.08,4.31l0,1.96c0,0.67 0.54,1.21 1.2,1.21l18.72,0c0.66,0 1.2,-0.54 1.2,-1.21l0,-3.1c0.01,-0.67 -0.53,-1.21 -1.2,-1.21z" fill="#FCFDFF" id="svg_183"/>
  </g>
 </g>
</svg>