<svg version="1.2" xmlns="http://www.w3.org/2000/svg" viewBox="0 0 2000 2000" width="2000" height="2000">
	<defs>
		<clipPath clipPathUnits="userSpaceOnUse" id="cp1">
			<path d="m975.55 706.26h95.83v95.59h-95.83z"/>
		</clipPath>
		<clipPath clipPathUnits="userSpaceOnUse" id="cp2">
			<path d="m893.51 815.54h170.05v367.46h-170.05z"/>
		</clipPath>
	</defs>
	<style>
		.s0 { fill: #ffffff } 
		.s1 { fill: #000000 } 
		.s2 { fill: #59595c } 
		.s3 { fill: #fcfdff } 
	</style>
	<g id="Layer 1">
		<g>
			<g>
				<g>
					<g>
					</g>
				</g>
				<g>
					<g id="Clip-Path">
						<g>
							<g>
								<g>
									<g>
									</g>
								</g>
							</g>
						</g>
					</g>
				</g>
				<g>
					<g>
						<g>
						</g>
					</g>
				</g>
				<g>
					<g>
						<g>
							<g>
							</g>
						</g>
						<g>
							<g>
							</g>
						</g>
						<g>
							<g>
							</g>
						</g>
						<g>
							<g>
							</g>
						</g>
					</g>
					<g>
						<g>
							<g>
							</g>
						</g>
						<g>
							<g>
							</g>
						</g>
						<g>
							<g>
							</g>
						</g>
						<g>
							<g>
							</g>
						</g>
					</g>
					<g>
						<g>
							<g>
							</g>
						</g>
						<g>
							<g>
							</g>
						</g>
						<g>
							<g>
							</g>
						</g>
						<g>
							<g>
							</g>
						</g>
					</g>
					<g>
						<g>
							<g>
							</g>
						</g>
						<g>
							<g>
							</g>
						</g>
						<g>
							<g>
							</g>
						</g>
						<g>
							<g>
							</g>
						</g>
					</g>
					<g>
						<g>
							<g>
							</g>
						</g>
						<g>
							<g>
							</g>
						</g>
						<g>
							<g>
							</g>
						</g>
						<g>
							<g>
							</g>
						</g>
					</g>
					<g>
						<g>
							<g>
							</g>
						</g>
						<g>
							<g>
							</g>
						</g>
						<g>
							<g>
							</g>
						</g>
						<g>
							<g>
							</g>
						</g>
					</g>
					<g>
						<g>
							<g>
							</g>
						</g>
						<g>
							<g>
							</g>
						</g>
						<g>
							<g>
							</g>
						</g>
						<g>
							<g>
							</g>
						</g>
					</g>
				</g>
			</g>
			<g>
			</g>
		</g>
		<g>
			<path class="s0" d="m1023.33 797.25c-12.06 0-22.79-4.5-31.04-13.04-8.08-8.34-12.36-19.03-12.36-30.89 0-11.69 4.35-22.22 12.58-30.46 8.22-8.25 18.88-12.6 30.82-12.6 11.53 0 22.04 4.28 30.38 12.37 8.53 8.29 13.03 19.05 13.03 31.12 0 11.69-4.43 22.3-12.8 30.68-8.37 8.39-18.95 12.82-30.61 12.82z"/>
			<g>
				<g id="Clip-Path" clip-path="url(#cp1)">
					<g>
						<path class="s1" d="m1023.33 706.26c-13.01 0-24.65 4.76-33.64 13.77-8.99 9.01-13.75 20.52-13.75 33.29 0 12.92 4.66 24.57 13.49 33.67 9.01 9.33 20.73 14.26 33.9 14.26 12.74 0 24.3-4.84 33.43-13.99 9.14-9.15 13.96-20.73 13.96-33.5 0-13.19-4.92-24.94-14.24-34-9.1-8.83-20.56-13.5-33.15-13.5zm0 4c11.53 0 22.04 4.28 30.38 12.37 8.53 8.29 13.03 19.05 13.03 31.12 0 11.69-4.43 22.3-12.8 30.68-8.37 8.39-18.95 12.82-30.61 12.82-12.06 0-22.79-4.5-31.04-13.04-8.08-8.34-12.36-19.03-12.36-30.89 0-11.69 4.35-22.22 12.58-30.46 8.22-8.25 18.88-12.6 30.82-12.6z"/>
					</g>
				</g>
			</g>
			<path class="s0" d="m967.39 1179c-20.81 0-41.34-7.71-57.8-21.7-7.75-6.59-11.97-16.19-11.6-26.35 0.37-10.13 5.27-19.36 13.44-25.34l0.56-0.4c5.66-4.13 12.35-6.33 19.35-6.33 7.79 0 15.33 2.81 21.21 7.89 4.22 3.63 10.18 5.9 15.55 5.9q2.17-0.01 4.11-0.48c13.73-3.35 16.41-17.2 16.41-39.98v-218.46c0-18.11 14.7-32.85 32.78-32.85h3.87c18.07 0 32.78 14.74 32.78 32.85l-0.01 231.53c0 19.13-4.61 36.18-13.7 50.69-8.09 12.89-19.5 23.7-33.02 31.27-13.95 7.8-28.73 11.76-43.93 11.76z"/>
			<g>
				<g id="Clip-Path" clip-path="url(#cp2)">
					<g>
						<path class="s1" d="m1025.27 816.9h-3.87c-20.28 0-36.77 16.53-36.77 36.85v218.46c0 12.43-0.87 20.42-2.83 25.94-2.04 5.74-5.28 8.88-10.53 10.16q-1.48 0.36-3.17 0.36c-4.4 0-9.48-1.94-12.95-4.93-6.6-5.7-15.06-8.85-23.81-8.85-7.85 0-15.36 2.45-21.7 7.09l-0.56 0.4c-9.16 6.7-14.66 17.06-15.08 28.42-0.42 11.4 4.33 22.16 13.01 29.54 17.18 14.62 38.62 22.66 60.38 22.66 15.89 0 31.33-4.13 45.87-12.27 14.1-7.89 26.02-19.17 34.45-32.63 9.51-15.16 14.32-32.93 14.32-52.82v-231.53c0-20.32-16.49-36.85-36.76-36.85zm0 4c18.07 0 32.77 14.74 32.77 32.85v231.53c0 19.13-4.61 36.18-13.7 50.69-8.09 12.89-19.5 23.7-33.02 31.27-13.95 7.8-28.73 11.76-43.92 11.76-20.82 0-41.35-7.71-57.81-21.7-7.75-6.59-11.97-16.19-11.6-26.35 0.37-10.13 5.27-19.36 13.44-25.34l0.56-0.4c5.66-4.13 12.35-6.33 19.35-6.33 7.79 0 15.33 2.81 21.21 7.89 4.22 3.63 10.18 5.9 15.55 5.9q2.17-0.01 4.11-0.48c13.73-3.35 16.41-17.2 16.41-39.98v-218.46c0-18.11 14.7-32.85 32.78-32.85z"/>
					</g>
				</g>
			</g>
			<path class="s2" d="m921.82 1124.6l15.77 4.23-11.55 11.57z"/>
			<g>
				<g id="Clip-Path">
					<g>
					</g>
				</g>
			</g>
			<path class="s3" d="m1105.57 762.35h-10.14q0.19-0.35 0.54-0.75 0.98-1.07 3.05-2.78l-0.02-0.01q0.32-0.22 0.7-0.57c1.96-1.66 3.53-3.29 4.66-4.84q1.79-2.49 1.8-5.65 0-3.14-2.1-5.03c-1.37-1.23-3.2-1.86-5.44-1.86q-2.37 0.01-4.57 1.17-2.17 1.15-3.66 3.2c-0.28 0.38-0.21 0.91 0.14 1.22l1.88 1.6c0.18 0.16 0.42 0.25 0.68 0.21 0.25-0.03 0.47-0.16 0.62-0.35q1.09-1.47 2.33-2.22c1.57-0.96 3.76-0.96 4.89 0.07q0.82 0.73 0.81 1.98c0 1.4-0.35 2.6-1.07 3.66q-1.15 1.71-3.3 3.53-0.11 0.1-1.13 0.94-1.78 1.46-2.85 2.53-1.13 1.1-1.89 2.49-0.8 1.49-0.8 3.22v1.48c0 0.48 0.4 0.89 0.89 0.89h13.98c0.5 0 0.9-0.41 0.9-0.89v-2.34c0-0.49-0.4-0.9-0.9-0.9z"/>
			<path class="s2" d="m965.03 1146.79q-2.84 0-5.62-0.26l0.18-1.98c2.56 0.23 5.2 0.3 7.84 0.19l0.08 2q-1.24 0.05-2.48 0.05zm10.53-0.84l-0.31-1.98c2.57-0.42 5.15-0.99 7.66-1.7l0.55 1.92c-2.58 0.74-5.24 1.33-7.9 1.76zm-24.16-0.69c-2.68-0.63-5.29-1.45-7.74-2.45l0.75-1.85c2.36 0.96 4.86 1.75 7.45 2.35zm39.69-3.76l-0.77-1.84q3.67-1.55 7.01-3.52l1 1.72c-2.28 1.35-4.72 2.58-7.24 3.64zm-54.68-2.41q-1.26-0.8-2.46-1.68-2.07-1.53-4-3.29l1.35-1.47q1.84 1.69 3.84 3.15 1.13 0.84 2.33 1.6zm68.61-5.85l-1.25-1.55q1.61-1.3 3.06-2.7 1.35-1.29 2.58-2.69l1.49 1.32q-1.28 1.47-2.69 2.82-1.52 1.45-3.19 2.8zm10.67-12.23l-1.72-1.02c1.3-2.17 2.46-4.53 3.45-7.02l1.85 0.74c-1.03 2.59-2.24 5.05-3.58 7.3zm6.09-15.01l-1.94-0.51c0.62-2.41 1.16-5.01 1.58-7.73l1.97 0.31c-0.43 2.78-0.98 5.44-1.61 7.93zm2.56-15.94l-1.99-0.17c0.2-2.47 0.36-5.07 0.45-7.93l1.99 0.07c-0.1 2.89-0.24 5.52-0.45 8.03zm0.6-16.05l-2-0.01q0-0.9 0-1.81 0-3.02-0.02-5.98v-0.19l2-0.02v0.21q0.02 2.95 0.02 5.98 0 0.9 0 1.82zm-0.05-16.02h-1.99v-8h1.99zm0-16.01h-1.99v-8.01h1.99zm0-16.01h-1.99v-8h1.99zm0-16.01h-1.99v-8h1.99zm0-16h-1.99v-8h1.99zm0-15.99h-1.99v-8h1.99zm0-16h-1.99v-8h1.99zm0-16h-1.99v-8h1.99zm0-16h-1.99v-8h1.99zm0-15.99h-1.99v-8h1.99zm0-15.99h-1.99v-8h1.99zm0-15.99h-1.99v-8h1.99zm0-15.99h-1.99v-7.99h1.99z"/>
			<path class="s3" d="m1025.66 842.77h-2.33c-0.26 0-0.51 0.11-0.68 0.32l-6.82 7.99c-0.3 0.36-0.28 0.88 0.05 1.22l1.29 1.3c0.35 0.35 0.92 0.35 1.27 0l4-3.95v17.33c0 0.49 0.4 0.89 0.89 0.89h2.32c0.49 0 0.9-0.4 0.9-0.89v-23.31c0-0.5-0.41-0.9-0.89-0.9z"/>
			<g>
				<g id="Clip-Path">
					<g>
					</g>
				</g>
			</g>
		</g>
	</g>
</svg>