<?xml version="1.0"?>
<svg width="2000" height="2000" xmlns="http://www.w3.org/2000/svg" xmlns:svg="http://www.w3.org/2000/svg" enable-background="new 0 0 2000 2000" version="1.1" xml:space="preserve">
 <g class="layer">
  <title>Layer 1</title>
  <g id="svg_147">
   <g id="svg_149">
    <defs>
     <rect height="118.69" id="SVGID_00000132788067574820068620000000616017350138251687_" width="118.28" x="1096.35" y="443.61"/>
    </defs>
    <clipPath id="SVGID_00000013167105852969630230000014525661675915303847_">
     <use href="#SVGID_00000132788067574820068620000000616017350138251687_" id="svg_150" overflow="visible"/>
    </clipPath>
    <g clip-path="url(#SVGID_00000013167105852969630230000014525661675915303847_)" id="svg_151">
     <path d="m1155.12,448.55c14.29,0 27.31,5.28 37.65,15.28c10.56,10.23 16.13,23.51 16.13,38.42c0,14.42 -5.48,27.52 -15.85,37.87c-10.36,10.35 -23.47,15.83 -37.93,15.83c-14.95,0 -28.25,-5.58 -38.47,-16.12c-10,-10.31 -15.29,-23.49 -15.29,-38.12c0,-14.42 5.38,-27.43 15.58,-37.6c10.19,-10.18 23.39,-15.56 38.18,-15.56m0,-4.94c-16.13,0 -30.55,5.88 -41.67,17.01c-11.15,11.12 -17.03,25.33 -17.03,41.09c0,15.94 5.76,30.31 16.68,41.56c11.16,11.52 25.7,17.61 42.02,17.61c15.79,0 30.12,-5.97 41.42,-17.27c11.32,-11.31 17.3,-25.6 17.3,-41.36c0,-16.27 -6.1,-30.78 -17.63,-41.97c-11.28,-10.9 -25.48,-16.67 -41.09,-16.67z" id="svg_152"/>
    </g>
   </g>
   <path d="m1152.74,886.09c-22.39,0 -40.61,-18.2 -40.61,-40.56l0,-219.84c0,-22.36 18.22,-40.55 40.61,-40.55l4.78,0c22.4,0 40.62,18.19 40.62,40.55l0,219.84c0,22.36 -18.22,40.56 -40.62,40.56l-4.78,0z" fill="#FFFFFF" id="svg_153"/>
   <g id="svg_154">
    <defs>
     <rect height="312.18" id="SVGID_00000057853876280839322640000007393924374312126594_" width="97.28" x="1106.34" y="578.82"/>
    </defs>
    <clipPath id="SVGID_00000088135335243294327140000000641364122783820182_">
     <use href="#SVGID_00000057853876280839322640000007393924374312126594_" id="svg_155" overflow="visible"/>
    </clipPath>
    <g clip-path="url(#SVGID_00000088135335243294327140000000641364122783820182_)" id="svg_156">
     <path d="m1157.52,585.14c22.4,0 40.62,18.19 40.62,40.55l0,219.84c0,22.36 -18.22,40.56 -40.62,40.56l-4.78,0c-22.39,0 -40.61,-18.2 -40.61,-40.56l0,-219.84c0,-22.36 18.22,-40.55 40.61,-40.55l4.78,0m0,-4.93l-4.78,0c-25.12,0 -45.56,20.4 -45.56,45.48l0,219.84c0,25.08 20.44,45.49 45.56,45.49l4.78,0c25.12,0 45.56,-20.41 45.56,-45.49l0,-219.84c0,-25.08 -20.44,-45.48 -45.56,-45.48z" id="svg_157"/>
    </g>
   </g>
   <path d="m1156.46,854.1l-2.47,0l0,-7.38l2.47,0l0,7.38zm0,-17.25l-2.47,0l0,-9.87l2.47,0l0,9.87zm0,-19.73l-2.47,0l0,-9.88l2.47,0l0,9.88zm0,-19.74l-2.47,0l0,-9.87l2.47,0l0,9.87zm0,-19.74l-2.47,0l0,-9.87l2.47,0l0,9.87zm0,-19.73l-2.47,0l0,-9.88l2.47,0l0,9.88zm0,-19.74l-2.47,0l0,-9.87l2.47,0l0,9.87zm0,-19.74l-2.47,0l0,-9.86l2.47,0l0,9.86zm0,-19.73l-2.47,0l0,-9.87l2.47,0l0,9.87zm0,-19.74l-2.47,0l0,-9.86l2.47,0l0,9.86zm0,-19.74l-2.47,0l0,-9.86l2.47,0l0,9.86zm0,-19.73l-2.47,0l0,-9.87l2.47,0l0,9.87z" fill="#59595C" id="svg_158"/>
   <path d="m1155.22,865.09l-10.1,-17.49l20.22,0l-10.12,17.49z" fill="#59595C" id="svg_159"/>
   <path d="m1157.81,612.14l-2.86,0c-0.33,0 -0.64,0.14 -0.85,0.39l-8.45,9.87c-0.38,0.44 -0.35,1.1 0.06,1.51l1.61,1.6c0.43,0.43 1.13,0.43 1.56,0l4.95,-4.88l0,21.39c0,0.61 0.5,1.11 1.12,1.11l2.86,0c0.61,0 1.11,-0.5 1.11,-1.11l0,-28.78c0,-0.61 -0.49,-1.1 -1.11,-1.1z" fill="#FCFDFF" id="svg_161"/>
   <g id="svg_162" transform="matrix(1 0 0 1 -95 -1)">
    <defs>
     <rect height="45.89" id="SVGID_00000090992894127644718470000008918900840890885769_" width="45.08" x="1227.48" y="479.71"/>
    </defs>
    <clipPath id="SVGID_00000172438748081869263500000005111876396102314682_">
     <use href="#SVGID_00000090992894127644718470000008918900840890885769_" id="svg_163" overflow="visible"/>
    </clipPath>
    <g clip-path="url(#SVGID_00000172438748081869263500000005111876396102314682_)" id="svg_164">
     <path d="m1272.5,502.25c0,1.46 -0.14,2.92 -0.43,4.35c-0.29,1.44 -0.71,2.83 -1.27,4.19c-0.57,1.35 -1.25,2.64 -2.07,3.86c-0.81,1.22 -1.74,2.35 -2.78,3.38c-1.04,1.04 -2.16,1.97 -3.39,2.77c-1.22,0.82 -2.5,1.51 -3.85,2.07c-1.37,0.56 -2.76,0.98 -4.2,1.27c-1.44,0.29 -2.89,0.43 -4.36,0.43c-1.47,0 -2.92,-0.14 -4.36,-0.43c-1.44,-0.29 -2.84,-0.71 -4.19,-1.27c-1.35,-0.56 -2.65,-1.25 -3.86,-2.07c-1.22,-0.8 -2.36,-1.73 -3.4,-2.77c-1.03,-1.03 -1.96,-2.16 -2.77,-3.38c-0.82,-1.22 -1.51,-2.51 -2.07,-3.86c-0.56,-1.36 -0.99,-2.75 -1.27,-4.19c-0.29,-1.43 -0.43,-2.89 -0.43,-4.35c0,-1.47 0.14,-2.92 0.43,-4.36c0.28,-1.43 0.71,-2.83 1.27,-4.19c0.56,-1.34 1.25,-2.63 2.07,-3.85c0.81,-1.22 1.74,-2.35 2.77,-3.39c1.04,-1.03 2.18,-1.95 3.4,-2.77c1.21,-0.81 2.5,-1.5 3.86,-2.06c1.36,-0.57 2.75,-0.99 4.19,-1.28c1.44,-0.28 2.89,-0.42 4.36,-0.42c1.47,0 2.92,0.14 4.36,0.42c1.44,0.29 2.83,0.71 4.2,1.28c1.35,0.56 2.63,1.25 3.85,2.06c1.23,0.81 2.35,1.74 3.39,2.77c1.04,1.04 1.97,2.17 2.78,3.39c0.82,1.22 1.51,2.51 2.07,3.85c0.56,1.36 0.98,2.76 1.27,4.19c0.29,1.44 0.43,2.89 0.43,4.36z" fill="#424143" id="svg_165"/>
    </g>
   </g>
   <path d="m1259.11,512.87l-12.57,0c0.16,-0.3 0.38,-0.61 0.68,-0.93c0.79,-0.87 2.06,-2.03 3.76,-3.43l-0.02,-0.02c0.27,-0.18 0.55,-0.43 0.88,-0.71c2.42,-2.05 4.35,-4.05 5.75,-5.98c1.49,-2.03 2.24,-4.38 2.24,-6.97c0,-2.57 -0.87,-4.65 -2.6,-6.21c-1.7,-1.51 -3.97,-2.29 -6.74,-2.29c-1.95,0 -3.85,0.49 -5.66,1.44c-1.78,0.95 -3.31,2.28 -4.54,3.95c-0.34,0.48 -0.26,1.12 0.18,1.5l2.32,1.99c0.23,0.19 0.53,0.3 0.85,0.26c0.31,-0.04 0.58,-0.2 0.77,-0.45c0.89,-1.2 1.86,-2.11 2.87,-2.72c1.95,-1.19 4.67,-1.18 6.07,0.08c0.68,0.61 1.01,1.42 1.01,2.45c0,1.73 -0.44,3.21 -1.33,4.52c-0.94,1.39 -2.31,2.86 -4.09,4.36c-0.09,0.08 -0.55,0.46 -1.4,1.14c-1.45,1.21 -2.64,2.26 -3.54,3.13c-0.92,0.91 -1.7,1.94 -2.32,3.08c-0.67,1.22 -1.01,2.56 -1.01,3.97l0,1.82c0,0.61 0.5,1.11 1.11,1.11l17.33,0c0.6,0 1.11,-0.5 1.11,-1.11l0,-2.87c0,-0.61 -0.5,-1.11 -1.11,-1.11z" fill="#FCFDFF" id="svg_166" transform="matrix(1 0 0 1 -95 -1)"/>
  </g>
 </g>
</svg>