<?xml version="1.0"?>
<svg width="2000" height="2000" xmlns="http://www.w3.org/2000/svg" xmlns:svg="http://www.w3.org/2000/svg" enable-background="new 0 0 2000 2000" version="1.1" xml:space="preserve">
 <g class="layer">
  <title>Layer 1</title>
  <g id="svg_147">
   <path d="m761.09,888.35c-38.84,0 -73.52,-10.71 -103.07,-31.83c-15.6,-11.16 -29.45,-24.94 -41.16,-40.95c-9.89,-13.53 -13.03,-30.56 -8.62,-46.74c4.42,-16.14 15.75,-29.19 31.11,-35.8c6.85,-2.94 14.09,-4.44 21.51,-4.44c17.23,0 33.61,8.28 43.84,22.13c3.91,5.29 8.47,9.82 13.95,13.84c12.18,8.96 24.77,13.12 39.66,13.12c20.43,0 34.28,-5.19 43.57,-16.33c10.42,-12.48 15.7,-31.86 15.7,-57.61l0,-254.64l-52.11,0c-29.71,0 -53.89,-24.2 -53.89,-53.95c0,-29.74 24.18,-53.95 53.89,-53.95l211.32,0c29.72,0 53.89,24.21 53.89,53.95c0,29.75 -24.17,53.95 -53.89,53.95l-45.16,0l0,254.64c0,56.02 -15.39,101.09 -45.71,133.98c-30.99,33.6 -72.99,50.63 -124.83,50.63z" fill="#FFFFFF" id="svg_167"/>
   <g id="svg_168">
    <defs>
     <rect height="557.42" id="SVGID_00000143604189720118634000000012234037216415021221_" width="435.76" x="599.95" y="336.08"/>
    </defs>
    <clipPath id="SVGID_00000139264875945739210880000002089294994343760270_">
     <use href="#SVGID_00000143604189720118634000000012234037216415021221_" id="svg_169" overflow="visible"/>
    </clipPath>
    <g clip-path="url(#SVGID_00000139264875945739210880000002089294994343760270_)" id="svg_170">
     <path d="m976.79,341.2c29.72,0 53.89,24.21 53.89,53.95c0,29.75 -24.17,53.95 -53.89,53.95l-45.17,0l0,254.64c0,56.02 -15.38,101.09 -45.7,133.98c-30.99,33.6 -73,50.64 -124.83,50.64c-38.85,0 -73.52,-10.72 -103.07,-31.84c-15.6,-11.15 -29.45,-24.94 -41.16,-40.95c-9.89,-13.53 -13.03,-30.56 -8.62,-46.74c4.42,-16.14 15.75,-29.19 31.11,-35.8c6.84,-2.94 14.09,-4.44 21.51,-4.44c17.22,0 33.61,8.28 43.83,22.13c3.92,5.29 8.48,9.82 13.96,13.84c12.18,8.96 24.77,13.12 39.65,13.12c20.43,0 34.29,-5.19 43.58,-16.32c10.42,-12.49 15.7,-31.87 15.7,-57.62l0,-254.64l-52.11,0c-29.71,0 -53.89,-24.2 -53.89,-53.95c0,-29.74 24.18,-53.95 53.89,-53.95l211.32,0m0,-5.01l-211.32,0c-32.48,0 -58.9,26.44 -58.9,58.96s26.42,58.98 58.9,58.98l47.1,0l0,249.61c0,24.54 -4.89,42.84 -14.54,54.4c-8.27,9.91 -20.89,14.52 -39.73,14.52c-13.76,0 -25.41,-3.86 -36.68,-12.15c-5.07,-3.71 -9.29,-7.9 -12.88,-12.77c-11.17,-15.14 -29.07,-24.17 -47.88,-24.17c-8.11,0 -16.02,1.63 -23.5,4.85c-16.77,7.21 -29.15,21.46 -33.96,39.09c-4.82,17.65 -1.39,36.25 9.41,51.02c12.02,16.45 26.25,30.6 42.29,42.08c30.42,21.74 66.07,32.77 105.98,32.77c53.31,0 96.54,-17.58 128.52,-52.25c31.21,-33.85 47.04,-80.07 47.04,-137.39l0,-249.62l40.15,0c32.48,0 58.91,-26.45 58.91,-58.97s-26.43,-58.96 -58.91,-58.96z" id="svg_171"/>
    </g>
   </g>
   <path d="m759.96,832.78c-1,0 -1.98,-0.01 -2.96,-0.02l0.03,-2.51c3.29,0.04 6.7,0.02 9.97,-0.11l0.09,2.52c-2.34,0.08 -4.73,0.12 -7.13,0.12zm-13.05,-0.37c-3.49,-0.23 -6.88,-0.54 -10.06,-0.95l0.31,-2.49c3.14,0.4 6.47,0.72 9.91,0.92l-0.16,2.52zm30.27,-0.39l-0.23,-2.5c3.35,-0.31 6.68,-0.72 9.88,-1.22l0.38,2.48c-3.26,0.51 -6.63,0.92 -10.03,1.24zm-50.33,-2.26c-3.35,-0.71 -6.65,-1.58 -9.81,-2.57l0.75,-2.4c3.08,0.98 6.3,1.82 9.58,2.52l-0.52,2.45zm70.3,-0.89l-0.57,-2.45c3.28,-0.75 6.5,-1.63 9.58,-2.61l0.77,2.4c-3.15,0.99 -6.44,1.9 -9.78,2.66zm-89.63,-5.24c-3.05,-1.32 -6.12,-2.83 -9.1,-4.49l1.22,-2.19c2.91,1.61 5.9,3.09 8.88,4.38l-1,2.3zm108.93,-0.92l-0.97,-2.31c3.08,-1.3 6.09,-2.74 8.93,-4.29l1.2,2.21c-2.92,1.59 -6,3.07 -9.16,4.39zm-126.66,-8.9c-0.83,-0.56 -1.65,-1.13 -2.48,-1.73c-2,-1.43 -3.91,-2.86 -5.68,-4.27l1.56,-1.97c1.74,1.38 3.61,2.8 5.58,4.2c0.81,0.58 1.62,1.14 2.43,1.69l-1.41,2.08zm144.47,-0.83l-1.43,-2.07c2.72,-1.88 5.33,-3.93 7.77,-6.09l1.66,1.88c-2.51,2.22 -5.21,4.34 -8,6.28zm-160.28,-11.84c-2.49,-2.4 -4.76,-4.83 -6.92,-7.45l1.93,-1.6c2.1,2.54 4.3,4.91 6.73,7.24l-1.74,1.81zm175.5,-1.62l-1.87,-1.67c1.21,-1.35 2.38,-2.75 3.5,-4.18c0.92,-1.17 1.81,-2.37 2.66,-3.56l2.05,1.45c-0.87,1.23 -1.79,2.46 -2.74,3.66c-1.15,1.47 -2.36,2.92 -3.6,4.3zm-188.47,-13.99c-1.74,-2.62 -3.48,-5.43 -5.29,-8.64l2.18,-1.24c1.79,3.15 3.48,5.92 5.2,8.49l-2.09,1.39zm200.24,-2.55l-2.19,-1.23c1.59,-2.85 3.06,-5.83 4.37,-8.89l2.3,0.99c-1.34,3.14 -2.85,6.2 -4.48,9.13zm7.99,-18.65l-2.39,-0.76c0.96,-3.05 1.83,-6.28 2.57,-9.59l2.46,0.55c-0.77,3.38 -1.65,6.68 -2.64,9.8zm4.51,-19.75l-2.49,-0.39c0.49,-3.11 0.91,-6.44 1.26,-9.89l2.49,0.25c-0.35,3.49 -0.77,6.86 -1.26,10.03zm2.05,-20.09l-2.5,-0.15c0.19,-3.14 0.34,-6.41 0.45,-10l2.51,0.08c-0.11,3.61 -0.27,6.9 -0.46,10.07zm0.67,-20.13l-2.51,-0.03c0.04,-3.03 0.05,-6.31 0.05,-10.03l2.52,0c0,3.72 -0.03,7.02 -0.06,10.06zm0.06,-20.11l-2.52,0l0,-10.04l2.52,0l0,10.04zm0,-20.09l-2.52,0l0,-10.04l2.52,0l0,10.04zm0,-20.09l-2.52,0l0,-10.04l2.52,0l0,10.04zm0,-20.08l-2.52,0l0,-10.05l2.52,0l0,10.05zm0,-20.09l-2.52,0l0,-10.05l2.52,0l0,10.05zm0,-20.09l-2.52,0l0,-10.05l2.52,0l0,10.05zm0,-20.09l-2.52,0l0,-10.05l2.52,0l0,10.05zm0,-20.09l-2.52,0l0,-10.05l2.52,0l0,10.05zm0,-20.09l-2.52,0l0,-10.04l2.52,0l0,10.04zm0,-20.09l-2.52,0l0,-10.04l2.52,0l0,10.04zm0,-20.09l-2.52,0l0,-10.04l2.52,0l0,10.04zm0,-20.09l-2.52,0l0,-10.04l2.52,0l0,10.04z" fill="#59595C" id="svg_172"/>
   <path d="m649.97,763.01l-1.54,20.5l18.5,-8.91l-16.96,-11.59z" fill="#59595C" id="svg_173"/>
   <path d="m876.54,418.73l-3.24,0c-0.36,0 -0.71,0.16 -0.95,0.43l-9.54,11.16c-0.42,0.51 -0.39,1.25 0.07,1.72l1.81,1.81c0.49,0.49 1.28,0.49 1.78,0l5.58,-5.52l0,24.19c0,0.69 0.56,1.26 1.25,1.26l3.24,0c0.69,0 1.26,-0.57 1.26,-1.26l0,-32.54c0,-0.69 -0.57,-1.25 -1.26,-1.25z" fill="#FCFDFF" id="svg_175"/>
   <path d="m990.12,397.11l-0.87,0l0,-2.5l0.87,0l0,2.5zm-10.9,0l-10.04,0l0,-2.5l10.04,0l0,2.5zm-20.07,0l-10.04,0l0,-2.5l10.04,0l0,2.5zm-20.07,0l-10.04,0l0,-2.5l10.04,0l0,2.5zm-20.07,0l-10.03,0l0,-2.5l10.03,0l0,2.5zm-20.07,0l-10.03,0l0,-2.5l10.03,0l0,2.5zm-20.07,0l-10.03,0l0,-2.5l10.03,0l0,2.5zm-20.08,0l-10.03,0l0,-2.5l10.03,0l0,2.5zm-20.06,0l-10.04,0l0,-2.5l10.04,0l0,2.5zm-20.07,0l-10.04,0l0,-2.5l10.04,0l0,2.5zm-20.07,0l-10.03,0l0,-2.5l10.03,0l0,2.5zm-20.07,0l-10.03,0l0,-2.5l10.03,0l0,2.5z" fill="#59595C" id="svg_176"/>
   <path d="m1000.42,395.59l-17.78,-10.28l0,20.56l17.78,-10.28z" fill="#59595C" id="svg_177"/>
   <path d="m780.58,407.87l-14.18,0c0.19,-0.34 0.44,-0.69 0.77,-1.05c0.88,-0.99 2.32,-2.3 4.25,-3.88l-0.03,-0.03c0.3,-0.2 0.62,-0.48 0.99,-0.79c2.73,-2.32 4.92,-4.59 6.49,-6.76c1.68,-2.3 2.53,-4.96 2.53,-7.89c0,-2.91 -0.98,-5.27 -2.94,-7.02c-1.91,-1.72 -4.48,-2.59 -7.61,-2.59c-2.19,0 -4.34,0.55 -6.38,1.63c-2.01,1.07 -3.73,2.57 -5.12,4.47c-0.38,0.53 -0.29,1.26 0.2,1.69l2.63,2.25c0.26,0.22 0.59,0.33 0.96,0.29c0.34,-0.04 0.65,-0.22 0.86,-0.5c1.01,-1.36 2.1,-2.4 3.25,-3.09c2.2,-1.33 5.26,-1.33 6.84,0.1c0.77,0.69 1.13,1.59 1.13,2.76c0,1.97 -0.49,3.64 -1.49,5.12c-1.08,1.58 -2.62,3.23 -4.62,4.93c-0.11,0.09 -0.63,0.53 -1.58,1.3c-1.64,1.35 -2.99,2.54 -3.99,3.53c-1.04,1.02 -1.92,2.2 -2.63,3.49c-0.75,1.37 -1.13,2.89 -1.13,4.49l0,2.05c0,0.69 0.57,1.26 1.25,1.26l19.55,0c0.69,0 1.26,-0.56 1.26,-1.26l0,-3.25c0,-0.68 -0.57,-1.25 -1.26,-1.25z" fill="#FCFDFF" id="svg_179"/>
  </g>
 </g>
</svg>