<?xml version="1.0"?>
<svg width="2000" height="2000" xmlns="http://www.w3.org/2000/svg" xmlns:svg="http://www.w3.org/2000/svg" enable-background="new 0 0 2000 2000" version="1.1" xml:space="preserve">
 <g class="layer">
  <title>Layer 1</title>
  <g id="svg_147" transform="matrix(1 0 0 1 0 0)">
   <path d="m1292.12,881.8c-14.3,0 -27.62,-7.07 -35.66,-18.89l-71.22,-104.76l-2.17,2.1l0,78.37c0,23.81 -19.35,43.18 -43.14,43.18l-5.08,0c-23.79,0 -43.13,-19.37 -43.13,-43.18l0,-460.1c0,-23.8 19.34,-43.17 43.13,-43.17l5.08,0c23.79,0 43.14,19.37 43.14,43.17l0,259.92l67.94,-65.02c8.05,-7.72 18.64,-11.97 29.8,-11.97l1.63,0c17.96,0 33.29,10.35 40,27.03c6.71,16.67 2.85,34.77 -10.09,47.24l-61.99,59.75l80.24,119.01c8.94,13.26 9.83,30.28 2.32,44.41c-7.49,14.13 -22.09,22.91 -38.08,22.91l-2.72,0z" fill="#FFFFFF" id="svg_165"/>
   <g id="svg_166">
    <defs>
     <rect height="557.13" id="SVGID_00000165229987822775761940000009831599190307097510_" width="257.43" x="1086.47" y="330"/>
    </defs>
    <clipPath id="SVGID_00000008839518918681848530000012100175847443916195_">
     <use href="#SVGID_00000165229987822775761940000009831599190307097510_" id="svg_167" overflow="visible"/>
    </clipPath>
    <g clip-path="url(#SVGID_00000008839518918681848530000012100175847443916195_)" id="svg_168">
     <path d="m1139.93,335.35c23.79,0 43.14,19.37 43.14,43.17l0,259.92l67.94,-65.02c8.05,-7.72 18.64,-11.97 29.8,-11.97l1.63,0c17.96,0 33.29,10.35 40,27.03c6.71,16.67 2.85,34.77 -10.08,47.24l-61.99,59.75l80.23,119.01c8.94,13.26 9.83,30.28 2.33,44.41c-7.5,14.13 -22.09,22.91 -38.08,22.91l-2.73,0c-14.3,0 -27.62,-7.07 -35.66,-18.89l-71.22,-104.76l-2.17,2.1l0,78.37c0,23.81 -19.35,43.18 -43.14,43.18l-5.08,0c-23.79,0 -43.13,-19.37 -43.13,-43.18l0,-460.1c0,-23.8 19.34,-43.17 43.13,-43.17l5.08,0m0,-5.25l-5.08,0c-26.68,0 -48.38,21.72 -48.38,48.42l0,460.1c0,26.71 21.7,48.43 48.38,48.43l5.08,0c26.68,0 48.39,-21.72 48.39,-48.43l0,-66.61l63.8,93.86c9.02,13.26 23.97,21.18 40,21.18l2.73,0c17.93,0 34.3,-9.85 42.71,-25.7c8.42,-15.85 7.42,-34.94 -2.61,-49.81l-77.77,-115.35l58.82,-56.69c14.51,-13.98 18.84,-34.28 11.31,-52.98c-7.53,-18.7 -24.73,-30.33 -44.87,-30.33l-1.63,0c-12.52,0 -24.4,4.78 -33.43,13.44l-59.06,56.52l0,-247.63c0,-26.7 -21.71,-48.42 -48.39,-48.42z" id="svg_169"/>
    </g>
   </g>
   <path d="m1164.87,719.14l-1.81,-1.89l7.56,-7.28l1.81,1.89l-7.56,7.28zm15.12,-14.57l-1.82,-1.89l7.56,-7.29l1.82,1.9l-7.56,7.28zm15.12,-14.57l-1.82,-1.89l7.56,-7.29l1.82,1.9l-7.56,7.28zm15.12,-14.58l-1.82,-1.88l7.56,-7.29l1.82,1.89l-7.56,7.28zm15.11,-14.56l-1.81,-1.9l7.56,-7.28l1.81,1.89l-7.56,7.29zm15.12,-14.57l-1.82,-1.9l7.56,-7.28l1.82,1.89l-7.56,7.29zm15.12,-14.58l-1.82,-1.89l7.56,-7.28l1.82,1.88l-7.56,7.29zm15.12,-14.57l-1.82,-1.89l3.07,-2.96l1.81,1.89l-3.06,2.96z" fill="#59595C" id="svg_170"/>
   <path d="m1298.72,846.63l-5.87,-8.71l2.18,-1.47l5.87,8.71l-2.18,1.47zm-11.73,-17.41l-5.87,-8.71l2.17,-1.47l5.87,8.71l-2.17,1.47zm-11.75,-17.42l-5.87,-8.71l2.18,-1.46l5.87,8.7l-2.18,1.47zm-11.73,-17.41l-5.87,-8.71l2.17,-1.47l5.87,8.7l-2.17,1.48zm-11.75,-17.42l-5.86,-8.71l2.17,-1.46l5.87,8.7l-2.18,1.47zm-11.73,-17.41l-5.88,-8.71l2.18,-1.47l5.87,8.7l-2.17,1.48zm-11.75,-17.42l-5.86,-8.7l2.17,-1.47l5.87,8.7l-2.18,1.47zm-11.73,-17.41l-5.88,-8.7l2.18,-1.48l5.87,8.71l-2.17,1.47zm-11.74,-17.42l-2.47,-3.66l2.17,-1.47l2.47,3.67l-2.17,1.46z" fill="#59595C" id="svg_171"/>
   <path d="m1139.22,847.75l-2.62,0l0,-5.83l2.62,0l0,5.83zm0,-16.34l-2.62,0l0,-10.5l2.62,0l0,10.5zm0,-21l-2.62,0l0,-10.5l2.62,0l0,10.5zm0,-21.01l-2.62,0l0,-10.51l2.62,0l0,10.51zm0,-21.01l-2.62,0l0,-10.5l2.62,0l0,10.5zm0,-21l-2.62,0l0,-10.51l2.62,0l0,10.51zm0,-21.01l-2.62,0l0,-10.51l2.62,0l0,10.51zm0,-21.01l-2.62,0l0,-10.5l2.62,0l0,10.5zm0,-21.01l-2.62,0l0,-10.5l2.62,0l0,10.5zm0,-21.01l-2.62,0l0,-10.5l2.62,0l0,10.5zm0,-21l-2.62,0l0,-10.51l2.62,0l0,10.51zm0,-21.01l-2.62,0l0,-10.51l2.62,0l0,10.51zm0,-21.01l-2.62,0l0,-10.5l2.62,0l0,10.5zm0,-21.01l-2.62,0l0,-10.5l2.62,0l0,10.5zm0,-21.01l-2.62,0l0,-10.5l2.62,0l0,10.5zm0,-21.01l-2.62,0l0,-10.5l2.62,0l0,10.5zm0,-21l-2.62,0l0,-10.51l2.62,0l0,10.51zm0,-21.01l-2.62,0l0,-10.51l2.62,0l0,10.51zm0,-21.01l-2.62,0l0,-10.5l2.62,0l0,10.5zm0,-21.01l-2.62,0l0,-10.5l2.62,0l0,10.5zm0,-21.01l-2.62,0l0,-10.5l2.62,0l0,10.5zm0,-21.01l-2.62,0l0,-10.5l2.62,0l0,10.5z" fill="#59595C" id="svg_172"/>
   <path d="m1137.91,859.45l-10.74,-18.62l21.48,0l-10.74,18.62z" fill="#59595C" id="svg_173"/>
   <path d="m1306.56,856.03l-19.13,-9.77l18.02,-11.7l1.11,21.47z" fill="#59595C" id="svg_174"/>
   <path d="m1151.62,729.85l5.55,-20.76l15.19,15.19l-20.74,5.57z" fill="#59595C" id="svg_175"/>
   <path d="m1140.66,363.82l-3.05,0c-0.35,0 -0.68,0.15 -0.9,0.41l-8.97,10.51c-0.4,0.47 -0.37,1.17 0.06,1.6l1.7,1.71c0.47,0.46 1.21,0.46 1.67,0l5.26,-5.19l0,22.76c0,0.66 0.53,1.19 1.17,1.19l3.06,0c0.65,0 1.17,-0.53 1.17,-1.19l0,-30.62c0.01,-0.65 -0.52,-1.18 -1.17,-1.18z" fill="#FCFDFF" id="svg_177"/>
   <path d="m1289.68,617.69l-13.34,0c0.17,-0.32 0.4,-0.65 0.71,-0.99c0.84,-0.93 2.19,-2.16 4.01,-3.65l-0.03,-0.03c0.28,-0.19 0.58,-0.45 0.93,-0.75c2.57,-2.17 4.63,-4.31 6.11,-6.35c1.58,-2.17 2.39,-4.67 2.39,-7.43c0,-2.73 -0.94,-4.95 -2.77,-6.61c-1.81,-1.61 -4.21,-2.43 -7.16,-2.43c-2.07,0 -4.09,0.51 -6.01,1.53c-1.9,1.01 -3.51,2.42 -4.82,4.2c-0.36,0.51 -0.28,1.2 0.19,1.6l2.47,2.11c0.24,0.21 0.55,0.32 0.9,0.27c0.32,-0.03 0.62,-0.2 0.81,-0.46c0.95,-1.28 1.98,-2.26 3.06,-2.9c2.07,-1.26 4.96,-1.26 6.44,0.08c0.71,0.66 1.06,1.5 1.06,2.61c0,1.84 -0.45,3.41 -1.4,4.81c-1.01,1.48 -2.46,3.04 -4.35,4.65c-0.1,0.08 -0.59,0.48 -1.48,1.21c-1.55,1.28 -2.81,2.4 -3.76,3.33c-0.98,0.96 -1.81,2.07 -2.48,3.28c-0.7,1.29 -1.06,2.72 -1.06,4.23l0,1.93c0,0.65 0.53,1.18 1.19,1.18l18.39,0c0.65,0 1.18,-0.53 1.18,-1.18l0,-3.06c0,-0.65 -0.53,-1.18 -1.18,-1.18z" fill="#FCFDFF" id="svg_179"/>
   <path d="m1223.44,722.55c-0.68,-0.97 -1.5,-1.76 -2.44,-2.36c0.65,-0.54 1.2,-1.18 1.65,-1.93c0.88,-1.42 1.33,-3.07 1.33,-4.91c0,-1.76 -0.41,-3.36 -1.22,-4.75c-0.81,-1.39 -1.95,-2.5 -3.4,-3.29c-1.42,-0.78 -3.04,-1.17 -4.82,-1.17c-2.34,0 -4.43,0.65 -6.21,1.95c-1.75,1.27 -3.12,3.01 -4.06,5.17c-0.25,0.56 -0.02,1.22 0.51,1.51l2.47,1.35c0.28,0.16 0.61,0.19 0.91,0.09c0.31,-0.1 0.57,-0.31 0.71,-0.6c0.7,-1.42 1.52,-2.52 2.45,-3.26c0.87,-0.69 1.93,-1.03 3.22,-1.03c1.14,0 2.04,0.36 2.76,1.11c0.73,0.75 1.09,1.7 1.09,2.92c0,1.38 -0.39,2.46 -1.17,3.31c-0.76,0.82 -1.77,1.21 -3.08,1.21l-1.98,0c-0.65,0 -1.17,0.53 -1.17,1.19l0,2.78c0,0.66 0.52,1.18 1.17,1.18l2.16,0c1.54,0 2.76,0.47 3.74,1.45c0.97,0.98 1.45,2.2 1.45,3.74c0,1.49 -0.47,2.67 -1.42,3.61c-0.97,0.95 -2.14,1.41 -3.59,1.41c-1.24,0 -2.28,-0.35 -3.2,-1.07c-0.97,-0.76 -1.78,-1.84 -2.42,-3.19c-0.15,-0.3 -0.41,-0.53 -0.72,-0.62c-0.31,-0.1 -0.66,-0.07 -0.95,0.1l-2.68,1.57c-0.52,0.3 -0.73,0.93 -0.51,1.47c0.86,2.12 2.19,3.83 3.96,5.1c1.78,1.28 3.92,1.93 6.38,1.93c1.95,0 3.77,-0.45 5.41,-1.31c1.67,-0.87 3.01,-2.12 3.97,-3.69c0.96,-1.57 1.45,-3.36 1.45,-5.31c0,-2.12 -0.59,-4.03 -1.75,-5.66z" fill="#FCFDFF" id="svg_181"/>
  </g>
 </g>
</svg>