<?xml version="1.0"?>
<svg width="2000" height="2000" xmlns="http://www.w3.org/2000/svg" xmlns:svg="http://www.w3.org/2000/svg" enable-background="new 0 0 2000 2000" version="1.1" xml:space="preserve">
 <g class="layer">
  <title>Layer 1</title>
  <g id="svg_147">
   <path d="m995.04,881.85c-18.05,0 -35.09,-8.77 -45.56,-23.47l-134.92,-189.14l-17.26,20.38l0,134.04c0,32.08 -26.1,58.19 -58.19,58.19s-58.18,-26.11 -58.18,-58.19l0,-430.17c0,-32.08 26.1,-58.19 58.18,-58.19s58.19,26.11 58.19,58.19l0,130.7l141.44,-169.47c10.3,-12.34 25.42,-19.42 41.5,-19.42c21.27,0 40.06,12 49.02,31.29c8.96,19.31 6,41.4 -7.73,57.66l-133.54,158.19l152.39,210.62c12.39,17.12 14.11,39.45 4.5,58.28c-9.61,18.82 -28.71,30.51 -49.84,30.51z" fill="#FFFFFF" id="svg_148"/>
   <g id="svg_149">
    <defs>
     <rect height="557.13" id="SVGID_00000127044457837490868580000000111899966242650264_" width="380.73" x="675.81" y="330"/>
    </defs>
    <clipPath id="SVGID_00000018943971767240350440000009853946886071153558_">
     <use href="#SVGID_00000127044457837490868580000000111899966242650264_" id="svg_150" overflow="visible"/>
    </clipPath>
    <g clip-path="url(#SVGID_00000018943971767240350440000009853946886071153558_)" id="svg_151">
     <path d="m980.24,335.3c21.27,0 40.06,11.99 49.02,31.29c8.96,19.31 6,41.4 -7.73,57.65l-133.54,158.2l152.39,210.62c12.39,17.12 14.11,39.45 4.5,58.28c-9.61,18.82 -28.7,30.51 -49.84,30.51c-18.05,0 -35.09,-8.77 -45.56,-23.47l-134.92,-189.14l-17.26,20.38l0,134.04c0,32.08 -26.1,58.19 -58.19,58.19s-58.18,-26.11 -58.18,-58.19l0,-430.17c0,-32.08 26.1,-58.19 58.18,-58.19s58.19,26.11 58.19,58.19l0,130.7l141.44,-169.47c10.3,-12.34 25.43,-19.42 41.5,-19.42m0,-5.12c-17.6,0 -34.16,7.75 -45.43,21.25l-132.39,158.64l0,-116.58c0,-34.91 -28.4,-63.31 -63.3,-63.31c-34.91,0 -63.31,28.4 -63.31,63.31l0,430.17c0,34.91 28.4,63.31 63.31,63.31c34.9,0 63.3,-28.4 63.3,-63.31l0,-132.16l11.8,-13.93l131.08,183.79c11.44,16.04 30.04,25.62 49.74,25.62c23.07,0 43.91,-12.77 54.41,-33.32c10.48,-20.54 8.6,-44.92 -4.92,-63.6l-150.04,-207.38l130.96,-155.13c15.02,-17.8 18.27,-41.98 8.46,-63.11c-9.82,-21.13 -30.38,-34.26 -53.67,-34.26z" id="svg_152"/>
    </g>
   </g>
   <path d="m1000.58,832.83l-6.01,-8.3l2.07,-1.5l6,8.29l-2.06,1.51zm-12.01,-16.6l-6.01,-8.3l2.08,-1.49l6,8.29l-2.07,1.5zm-12.01,-16.59l-6,-8.3l2.07,-1.5l6.01,8.3l-2.08,1.5zm-12,-16.59l-6.01,-8.3l2.07,-1.51l6.01,8.3l-2.07,1.51zm-12.02,-16.6l-6,-8.3l2.08,-1.5l6,8.3l-2.08,1.5zm-12,-16.6l-6,-8.29l2.07,-1.5l6.01,8.3l-2.08,1.49zm-12,-16.59l-6.01,-8.29l2.07,-1.51l6,8.3l-2.06,1.5zm-12.02,-16.59l-6,-8.3l2.08,-1.5l6,8.29l-2.08,1.51zm-12,-16.6l-6,-8.3l2.07,-1.49l6.01,8.29l-2.08,1.5zm-12,-16.59l-6.01,-8.3l2.07,-1.5l6.01,8.3l-2.07,1.5zm-12.01,-16.59l-6.01,-8.3l2.08,-1.5l6,8.29l-2.07,1.51zm-12.01,-16.6l-6,-8.29l2.07,-1.51l6,8.3l-2.07,1.5zm-12,-16.59l-4.15,-5.73l2.07,-1.5l4.15,5.73l-2.07,1.5z" fill="#59595C" id="svg_153"/>
   <path d="m766.39,645.54l-1.95,-1.64l6.6,-7.83l1.96,1.65l-6.61,7.82zm13.21,-15.64l-1.95,-1.66l6.6,-7.83l1.96,1.66l-6.61,7.83zm13.21,-15.65l-1.95,-1.65l6.6,-7.83l1.96,1.65l-6.61,7.83zm13.21,-15.66l-1.95,-1.65l6.6,-7.82l1.96,1.65l-6.61,7.82zm13.22,-15.64l-1.95,-1.65l6.6,-7.83l1.96,1.65l-6.61,7.83zm13.21,-15.66l-1.95,-1.65l6.6,-7.82l1.96,1.65l-6.61,7.82zm13.21,-15.65l-1.95,-1.64l6.6,-7.83l1.96,1.65l-6.61,7.82zm13.22,-15.65l-1.96,-1.65l6.6,-7.83l1.97,1.65l-6.61,7.83zm13.21,-15.65l-1.95,-1.65l6.6,-7.82l1.96,1.65l-6.61,7.82zm13.21,-15.65l-1.95,-1.65l6.6,-7.83l1.96,1.65l-6.61,7.83zm13.21,-15.65l-1.95,-1.65l6.6,-7.83l1.96,1.66l-6.61,7.82zm13.22,-15.65l-1.96,-1.65l6.61,-7.83l1.96,1.65l-6.61,7.83zm13.21,-15.65l-1.95,-1.65l6.6,-7.83l1.96,1.66l-6.61,7.82zm13.21,-15.65l-1.96,-1.66l6.61,-7.82l1.95,1.65l-6.6,7.83zm13.22,-15.65l-1.96,-1.65l6.6,-7.83l1.96,1.65l-6.6,7.83zm13.21,-15.65l-1.96,-1.66l5.42,-6.4l1.95,1.65l-5.41,6.41z" fill="#59595C" id="svg_154"/>
   <path d="m739.61,841.71l-2.56,0l0,-3.78l2.56,0l0,3.78zm0,-14.02l-2.56,0l0,-10.24l2.56,0l0,10.24zm0,-20.49l-2.56,0l0,-10.24l2.56,0l0,10.24zm0,-20.48l-2.56,0l0,-10.24l2.56,0l0,10.24zm0,-20.49l-2.56,0l0,-10.24l2.56,0l0,10.24zm0,-20.48l-2.56,0l0,-10.24l2.56,0l0,10.24zm0,-20.48l-2.56,0l0,-10.24l2.56,0l0,10.24zm0,-20.48l-2.56,0l0,-10.24l2.56,0l0,10.24zm0,-20.48l-2.56,0l0,-10.25l2.56,0l0,10.25zm0,-20.49l-2.56,0l0,-10.24l2.56,0l0,10.24zm0,-20.48l-2.56,0l0,-10.25l2.56,0l0,10.25zm0,-20.49l-2.56,0l0,-10.24l2.56,0l0,10.24zm0,-20.48l-2.56,0l0,-10.25l2.56,0l0,10.25zm0,-20.49l-2.56,0l0,-10.24l2.56,0l0,10.24zm0,-20.48l-2.56,0l0,-10.25l2.56,0l0,10.25zm0,-20.48l-2.56,0l0,-10.24l2.56,0l0,10.24zm0,-20.48l-2.56,0l0,-10.24l2.56,0l0,10.24zm0,-20.49l-2.56,0l0,-10.24l2.56,0l0,10.24zm0,-20.48l-2.56,0l0,-10.24l2.56,0l0,10.24zm0,-20.49l-2.56,0l0,-10.24l2.56,0l0,10.24zm0,-20.48l-2.56,0l0,-10.24l2.56,0l0,10.24zm0,-20.49l-2.56,0l0,-10.24l2.56,0l0,10.24z" fill="#59595C" id="svg_155"/>
   <path d="m738.32,853.81l10.48,-18.15l-20.95,0l10.47,18.15z" fill="#59595C" id="svg_156"/>
   <path d="m755.29,654.85l20.24,-5.43l-14.82,-14.82l-5.42,20.25z" fill="#59595C" id="svg_157"/>
   <path d="m1008.1,842.92l-0.89,-20.94l-17.68,11.24l18.57,9.7z" fill="#59595C" id="svg_158"/>
   <path d="m741.3,370.49l-3.3,0c-0.38,0 -0.73,0.17 -0.98,0.46l-9.72,11.38c-0.44,0.5 -0.41,1.26 0.07,1.74l1.84,1.85c0.51,0.5 1.31,0.5 1.8,0l5.71,-5.63l0,24.67c0,0.71 0.57,1.28 1.27,1.28l3.31,0c0.71,0 1.28,-0.57 1.28,-1.28l0,-33.18c0,-0.71 -0.57,-1.29 -1.28,-1.29z" fill="#FCFDFF" id="svg_160"/>
   <path d="m856.28,615.85c-0.74,-1.06 -1.62,-1.91 -2.65,-2.56c0.71,-0.58 1.3,-1.28 1.8,-2.09c0.95,-1.54 1.43,-3.32 1.43,-5.32c0,-1.91 -0.44,-3.63 -1.32,-5.14c-0.88,-1.52 -2.12,-2.72 -3.68,-3.57c-1.54,-0.85 -3.3,-1.28 -5.23,-1.28c-2.53,0 -4.8,0.71 -6.73,2.13c-1.9,1.37 -3.39,3.26 -4.41,5.59c-0.27,0.62 -0.03,1.33 0.55,1.65l2.68,1.45c0.3,0.17 0.66,0.2 1,0.1c0.33,-0.1 0.6,-0.34 0.76,-0.65c0.76,-1.54 1.65,-2.73 2.66,-3.53c0.95,-0.75 2.09,-1.11 3.48,-1.11c1.25,0 2.22,0.39 3,1.19c0.79,0.81 1.17,1.85 1.17,3.17c0,1.5 -0.41,2.67 -1.26,3.58c-0.82,0.89 -1.92,1.32 -3.34,1.32l-2.14,0c-0.7,0 -1.28,0.58 -1.28,1.28l0,3.02c0,0.71 0.58,1.28 1.28,1.28l2.34,0c1.66,0 2.99,0.51 4.05,1.56c1.05,1.07 1.57,2.39 1.57,4.07c0,1.6 -0.51,2.88 -1.54,3.9c-1.05,1.03 -2.31,1.53 -3.89,1.53c-1.34,0 -2.48,-0.38 -3.47,-1.16c-1.05,-0.82 -1.93,-1.99 -2.62,-3.46c-0.15,-0.32 -0.44,-0.57 -0.78,-0.68c-0.34,-0.1 -0.71,-0.06 -1.03,0.13l-2.92,1.7c-0.55,0.32 -0.78,0.99 -0.54,1.59c0.94,2.29 2.38,4.14 4.29,5.52c1.94,1.38 4.26,2.08 6.92,2.08c2.12,0 4.09,-0.47 5.87,-1.41c1.81,-0.95 3.26,-2.29 4.29,-3.99c1.05,-1.72 1.58,-3.65 1.58,-5.75c0.01,-2.31 -0.63,-4.38 -1.89,-6.14z" fill="#FCFDFF" id="svg_162"/>
   <path d="m990.59,400.61l-14.47,0c0.19,-0.34 0.44,-0.7 0.78,-1.07c0.9,-1.01 2.36,-2.34 4.33,-3.95l-0.02,-0.03c0.3,-0.21 0.63,-0.49 1.01,-0.81c2.78,-2.36 5.02,-4.68 6.63,-6.89c1.71,-2.35 2.58,-5.06 2.58,-8.05c0,-2.96 -1.02,-5.37 -3,-7.16c-1.96,-1.74 -4.58,-2.64 -7.77,-2.64c-2.24,0 -4.43,0.56 -6.51,1.66c-2.06,1.09 -3.81,2.63 -5.23,4.56c-0.39,0.54 -0.3,1.3 0.21,1.73l2.67,2.29c0.27,0.22 0.61,0.34 0.98,0.29c0.35,-0.03 0.67,-0.22 0.88,-0.5c1.03,-1.38 2.14,-2.44 3.31,-3.15c2.25,-1.36 5.38,-1.36 6.99,0.09c0.78,0.71 1.16,1.64 1.16,2.83c0,2 -0.5,3.7 -1.54,5.21c-1.08,1.62 -2.66,3.3 -4.7,5.03c-0.11,0.1 -0.64,0.53 -1.61,1.32c-1.68,1.38 -3.05,2.6 -4.08,3.6c-1.06,1.05 -1.96,2.25 -2.68,3.56c-0.76,1.41 -1.15,2.95 -1.15,4.58l0,2.09c0,0.71 0.57,1.28 1.27,1.28l19.95,0c0.71,0 1.28,-0.57 1.28,-1.28l0,-3.31c0,-0.7 -0.57,-1.28 -1.27,-1.28z" fill="#FCFDFF" id="svg_164"/>
  </g>
 </g>
</svg>