<?xml version="1.0"?>
<svg width="2000" height="2000" xmlns="http://www.w3.org/2000/svg" xmlns:svg="http://www.w3.org/2000/svg" enable-background="new 0 0 2000 2000" version="1.1" xml:space="preserve">
 <g class="layer">
  <title>Layer 1</title>
  <g id="svg_147">
   <path d="m1181.58,868.66c-22.93,0 -41.57,-18.52 -41.57,-41.28l0,-439.89c0,-22.76 18.64,-41.28 41.57,-41.28l4.91,0c22.92,0 41.57,18.52 41.57,41.28l0,439.89c0,22.76 -18.65,41.28 -41.57,41.28l-4.91,0z" fill="#FFFFFF" id="svg_148"/>
   <g id="svg_149">
    <defs>
     <rect height="532.86" id="SVGID_00000101103596228573046210000012113590294926096013_" width="98.16" x="1134.95" y="341"/>
    </defs>
    <clipPath id="SVGID_00000155839593583892557950000002639844284140783534_">
     <use href="#SVGID_00000101103596228573046210000012113590294926096013_" id="svg_150" overflow="visible"/>
    </clipPath>
    <g clip-path="url(#SVGID_00000155839593583892557950000002639844284140783534_)" id="svg_151">
     <path d="m1186.49,346.21c22.91,0 41.57,18.52 41.57,41.28l0,439.89c0,22.76 -18.66,41.28 -41.57,41.28l-4.91,0c-22.93,0 -41.57,-18.52 -41.57,-41.28l0,-439.89c0,-22.76 18.64,-41.28 41.57,-41.28l4.91,0m0,-5.02l-4.91,0c-25.72,0 -46.63,20.77 -46.63,46.3l0,439.89c0,25.54 20.91,46.3 46.63,46.3l4.91,0c25.71,0 46.63,-20.76 46.63,-46.3l0,-439.89c-0.01,-25.53 -20.93,-46.3 -46.63,-46.3z" id="svg_152"/>
    </g>
   </g>
   <path d="m1185.55,836.11l-2.53,0l0,-5.57l2.53,0l0,5.57zm0,-15.61l-2.53,0l0,-10.05l2.53,0l0,10.05zm0,-20.09l-2.53,0l0,-10.05l2.53,0l0,10.05zm0,-20.09l-2.53,0l0,-10.04l2.53,0l0,10.04zm0,-20.08l-2.53,0l0,-10.05l2.53,0l0,10.05zm0,-20.09l-2.53,0l0,-10.04l2.53,0l0,10.04zm0,-20.08l-2.53,0l0,-10.04l2.53,0l0,10.04zm0,-20.09l-2.53,0l0,-10.04l2.53,0l0,10.04zm0,-20.08l-2.53,0l0,-10.04l2.53,0l0,10.04zm0,-20.09l-2.53,0l0,-10.04l2.53,0l0,10.04zm0,-20.09l-2.53,0l0,-10.04l2.53,0l0,10.04zm0,-20.08l-2.53,0l0,-10.04l2.53,0l0,10.04zm0,-20.09l-2.53,0l0,-10.04l2.53,0l0,10.04zm0,-20.08l-2.53,0l0,-10.04l2.53,0l0,10.04zm0,-20.08l-2.53,0l0,-10.05l2.53,0l0,10.05zm0,-20.09l-2.53,0l0,-10.05l2.53,0l0,10.05zm0,-20.09l-2.53,0l0,-10.04l2.53,0l0,10.04zm0,-20.08l-2.53,0l0,-10.05l2.53,0l0,10.05zm0,-20.09l-2.53,0l0,-10.04l2.53,0l0,10.04zm0,-20.08l-2.53,0l0,-10.04l2.53,0l0,10.04zm0,-20.09l-2.53,0l0,-10.04l2.53,0l0,10.04zm0,-20.08l-2.53,0l0,-10.05l2.53,0l0,10.05z" fill="#59595C" id="svg_153"/>
   <path d="m1184.28,847.29l-10.35,-17.79l20.71,0l-10.36,17.79z" fill="#59595C" id="svg_154"/>
   <path d="m1186.93,373.43l-2.93,0c-0.34,0 -0.65,0.14 -0.87,0.4l-8.65,10.04c-0.39,0.45 -0.36,1.12 0.06,1.54l1.64,1.63c0.45,0.44 1.16,0.44 1.61,0l5.07,-4.97l0,21.78c0,0.62 0.51,1.12 1.14,1.12l2.93,0c0.63,0 1.14,-0.5 1.14,-1.12l0,-29.29c0,-0.62 -0.51,-1.13 -1.14,-1.13z" fill="#FCFDFF" id="svg_156"/>
  </g>
 </g>
</svg>