<?xml version="1.0"?>
<svg width="2000" height="2000" xmlns="http://www.w3.org/2000/svg" xmlns:svg="http://www.w3.org/2000/svg" enable-background="new 0 0 2000 2000" version="1.1" xml:space="preserve">
 <g class="layer">
  <title>Layer 1</title>
  <g id="svg_147">
   <path d="m798.31,868.98c-28.28,0 -51.3,-23.01 -51.3,-51.29l0,-416.09c0,-30.72 24.99,-55.7 55.71,-55.7c30.71,0 55.7,24.98 55.7,55.7l0,364.8l156.95,0c28.28,0 51.3,23.01 51.3,51.29c0,28.28 -23.02,51.29 -51.3,51.29l-217.06,0z" fill="#FFFFFF" id="svg_157"/>
   <g id="svg_158">
    <defs>
     <rect height="532.86" id="SVGID_00000155858598608974321200000003576757509869770148_" width="329.53" x="742.08" y="341"/>
    </defs>
    <clipPath id="SVGID_00000096018890288834844760000001458350321821369753_">
     <use href="#SVGID_00000155858598608974321200000003576757509869770148_" id="svg_159" overflow="visible"/>
    </clipPath>
    <g clip-path="url(#SVGID_00000096018890288834844760000001458350321821369753_)" id="svg_160">
     <path d="m802.72,345.9c30.71,0 55.7,24.99 55.7,55.7l0,364.8l156.95,0c28.28,0 51.3,23.01 51.3,51.29c0,28.28 -23.02,51.29 -51.3,51.29l-217.06,0c-28.28,0 -51.3,-23.01 -51.3,-51.29l0,-416.09c0,-30.72 24.99,-55.7 55.71,-55.7m0,-4.9c-33.42,0 -60.61,27.18 -60.61,60.6l0,416.09c0,30.98 25.21,56.19 56.2,56.19l217.06,0c30.99,0 56.2,-25.21 56.2,-56.19c0,-30.99 -25.21,-56.19 -56.2,-56.19l-152.05,0l0,-359.9c0,-33.42 -27.18,-60.6 -60.6,-60.6z" id="svg_161"/>
    </g>
   </g>
   <path d="m804.33,830.56l-2.45,0l0,-3.62l2.45,0l0,3.62zm0,-13.42l-2.45,0l0,-9.8l2.45,0l0,9.8zm0,-19.61l-2.45,0l0,-9.8l2.45,0l0,9.8zm0,-19.6l-2.45,0l0,-9.8l2.45,0l0,9.8zm0,-19.6l-2.45,0l0,-9.8l2.45,0l0,9.8zm0,-19.6l-2.45,0l0,-9.81l2.45,0l0,9.81zm0,-19.61l-2.45,0l0,-9.8l2.45,0l0,9.8zm0,-19.6l-2.45,0l0,-9.81l2.45,0l0,9.81zm0,-19.61l-2.45,0l0,-9.8l2.45,0l0,9.8zm0,-19.6l-2.45,0l0,-9.8l2.45,0l0,9.8zm0,-19.6l-2.45,0l0,-9.81l2.45,0l0,9.81zm0,-19.61l-2.45,0l0,-9.8l2.45,0l0,9.8zm0,-19.6l-2.45,0l0,-9.8l2.45,0l0,9.8zm0,-19.61l-2.45,0l0,-9.8l2.45,0l0,9.8zm0,-19.6l-2.45,0l0,-9.8l2.45,0l0,9.8zm0,-19.6l-2.45,0l0,-9.81l2.45,0l0,9.81zm0,-19.61l-2.45,0l0,-9.8l2.45,0l0,9.8zm0,-19.6l-2.45,0l0,-9.8l2.45,0l0,9.8zm0,-19.6l-2.45,0l0,-9.81l2.45,0l0,9.81zm0,-19.61l-2.45,0l0,-9.8l2.45,0l0,9.8zm0,-19.6l-2.45,0l0,-9.81l2.45,0l0,9.81zm0,-19.61l-2.45,0l0,-9.8l2.45,0l0,9.8z" fill="#59595C" id="svg_162"/>
   <path d="m803.1,842.14l10.03,-17.37l-20.05,0l10.02,17.37z" fill="#59595C" id="svg_163"/>
   <path d="m804.19,379.58l-3.16,0c-0.36,0 -0.7,0.17 -0.94,0.43l-9.31,10.9c-0.41,0.48 -0.39,1.21 0.07,1.67l1.77,1.76c0.48,0.48 1.24,0.48 1.73,0l5.45,-5.38l0,23.61c0,0.67 0.55,1.22 1.23,1.22l3.16,0c0.67,0 1.23,-0.55 1.23,-1.22l0,-31.76c0,-0.68 -0.56,-1.23 -1.23,-1.23z" fill="#FCFDFF" id="svg_165"/>
   <path d="m1027.53,820.01l-7.1,0l0,-2.45l7.1,0l0,2.45zm-16.9,0l-9.81,0l0,-2.45l9.81,0l0,2.45zm-19.61,0l-9.8,0l0,-2.45l9.8,0l0,2.45zm-19.61,0l-9.8,0l0,-2.45l9.8,0l0,2.45zm-19.6,0l-9.8,0l0,-2.45l9.8,0l0,2.45zm-19.61,0l-9.8,0l0,-2.45l9.8,0l0,2.45zm-19.6,0l-9.81,0l0,-2.45l9.81,0l0,2.45zm-19.61,0l-9.81,0l0,-2.45l9.81,0l0,2.45zm-19.61,0l-9.8,0l0,-2.45l9.8,0l0,2.45zm-19.61,0l-9.8,0l0,-2.45l9.8,0l0,2.45z" fill="#59595C" id="svg_166"/>
   <path d="m1038.35,818.52l-17.37,-10.02l0,20.05l17.37,-10.03z" fill="#59595C" id="svg_167"/>
   <path d="m855.78,830.51l-13.84,0c0.18,-0.34 0.42,-0.67 0.74,-1.02c0.87,-0.97 2.27,-2.24 4.16,-3.79l-0.03,-0.03c0.29,-0.19 0.6,-0.47 0.96,-0.78c2.67,-2.25 4.81,-4.47 6.35,-6.59c1.63,-2.24 2.47,-4.84 2.47,-7.7c0,-2.83 -0.97,-5.14 -2.87,-6.85c-1.87,-1.67 -4.38,-2.53 -7.44,-2.53c-2.14,0 -4.24,0.54 -6.23,1.59c-1.96,1.04 -3.65,2.52 -5,4.36c-0.38,0.52 -0.29,1.24 0.19,1.66l2.57,2.19c0.25,0.22 0.58,0.33 0.93,0.28c0.33,-0.03 0.64,-0.21 0.84,-0.48c0.99,-1.33 2.05,-2.34 3.17,-3.02c2.16,-1.3 5.15,-1.3 6.69,0.1c0.75,0.67 1.11,1.56 1.11,2.7c0,1.91 -0.48,3.54 -1.47,4.99c-1.04,1.54 -2.54,3.15 -4.5,4.81c-0.1,0.09 -0.61,0.51 -1.54,1.26c-1.61,1.33 -2.92,2.49 -3.9,3.45c-1.02,1 -1.88,2.15 -2.57,3.4c-0.73,1.35 -1.11,2.82 -1.11,4.39l0,2c0,0.68 0.55,1.22 1.23,1.22l19.09,0c0.68,0 1.23,-0.54 1.23,-1.22l0,-3.16c0,-0.68 -0.55,-1.23 -1.23,-1.23z" fill="#FCFDFF" id="svg_169"/>
  </g>
 </g>
</svg>