<?xml version="1.0"?>
<svg width="2000" height="2000" xmlns="http://www.w3.org/2000/svg" xmlns:svg="http://www.w3.org/2000/svg" enable-background="new 0 0 2000 2000" version="1.1" xml:space="preserve">
 <g class="layer">
  <title>Layer 1</title>
  <g id="svg_147">
   <path d="m1415.23,868.02c-21.55,0 -39.09,-17.58 -39.09,-39.19l0,-131.65c0,-25.74 -5.48,-35.96 -8.74,-39.77c-5.11,-5.94 -11.23,-8.6 -19.81,-8.6c-11.27,0 -18.97,3.74 -24.98,12.13c-7.77,10.87 -12.46,26.66 -13.94,46.95l0,120.94c0,21.61 -17.52,39.19 -39.07,39.19l-4.62,0c-21.55,0 -39.08,-17.58 -39.08,-39.19l0,-131.65c0,-25.73 -5.49,-35.96 -8.76,-39.77c-5.1,-5.94 -11.21,-8.6 -19.8,-8.6c-12.87,0 -20.69,4.31 -26.99,14.88c-8.26,13.83 -12.44,33.66 -12.44,58.94l0,106.21c0,21.6 -17.53,39.18 -39.08,39.18l-4.61,0c-21.55,0 -39.09,-17.58 -39.09,-39.18l0,-221.94c0,-21.61 17.53,-39.19 39.09,-39.19l4.22,0c12.3,0 25.51,6.46 33.11,16.98c16.11,-10.46 34.66,-15.76 55.13,-15.76c22.62,0 42.82,6.33 60.03,18.81c5.63,4.09 10.75,8.76 15.32,13.99c4.68,-5.05 9.76,-9.6 15.18,-13.61c17.26,-12.73 37.34,-19.19 59.7,-19.19c29.14,0 53.78,10.46 73.24,31.09c19.1,20.28 28.77,47.72 28.77,81.58l0,147.23c0,21.61 -17.53,39.19 -39.09,39.19l-4.6,0z" fill="#FFFFFF" id="svg_148"/>
   <g id="svg_149">
    <defs>
     <rect height="309.83" id="SVGID_00000176038435329893252310000008494586826764663188_" width="393.44" x="1070.31" y="562.94"/>
    </defs>
    <clipPath id="SVGID_00000027593420201160706500000006145100792517562507_">
     <use href="#SVGID_00000176038435329893252310000008494586826764663188_" id="svg_150" overflow="visible"/>
    </clipPath>
    <g clip-path="url(#SVGID_00000027593420201160706500000006145100792517562507_)" id="svg_151">
     <path d="m1118.44,567.71c12.3,0 25.52,6.46 33.12,16.98c16.11,-10.46 34.65,-15.76 55.11,-15.76c22.63,0 42.84,6.33 60.04,18.81c5.64,4.09 10.75,8.76 15.31,13.99c4.69,-5.05 9.78,-9.6 15.2,-13.61c17.24,-12.73 37.34,-19.18 59.7,-19.18c29.13,0 53.77,10.45 73.23,31.08c19.1,20.28 28.77,47.72 28.77,81.58l0,147.23c0,21.61 -17.53,39.19 -39.09,39.19l-4.6,0c-21.55,0 -39.09,-17.58 -39.09,-39.19l0,-131.65c0,-25.74 -5.48,-35.96 -8.74,-39.77c-5.11,-5.94 -11.23,-8.6 -19.81,-8.6c-11.27,0 -18.97,3.74 -24.98,12.13c-7.77,10.87 -12.46,26.66 -13.93,46.95l0,120.94c0,21.61 -17.53,39.19 -39.08,39.19l-4.61,0c-21.55,0 -39.09,-17.58 -39.09,-39.19l0,-131.65c0,-25.73 -5.48,-35.96 -8.75,-39.77c-5.11,-5.94 -11.22,-8.6 -19.8,-8.6c-12.88,0 -20.7,4.31 -27,14.88c-8.26,13.83 -12.43,33.66 -12.43,58.94l0,106.21c0,21.6 -17.54,39.18 -39.09,39.18l-4.61,0c-21.55,0 -39.09,-17.58 -39.09,-39.18l0,-221.94c0,-21.61 17.54,-39.19 39.09,-39.19l4.22,0m0,-4.77l-4.22,0c-24.17,0 -43.85,19.72 -43.85,43.96l0,221.93c0,24.24 19.68,43.96 43.85,43.96l4.61,0c24.17,0 43.84,-19.72 43.84,-43.96l0,-106.2c0,-24.41 3.96,-43.42 11.76,-56.49c5.46,-9.16 11.67,-12.57 22.92,-12.57c7.17,0 12.01,2.09 16.2,6.95c2.28,2.66 7.6,11.57 7.6,36.66l0,131.65c0,24.24 19.66,43.95 43.84,43.95l4.61,0c24.17,0 43.83,-19.71 43.83,-43.95l0,-120.77c1.43,-19.32 5.82,-34.23 13.05,-44.33c5.09,-7.11 11.4,-10.16 21.11,-10.16c7.18,0 12.03,2.09 16.21,6.95c2.28,2.66 7.59,11.56 7.59,36.66l0,131.65c0,24.24 19.67,43.95 43.84,43.95l4.61,0c24.18,0 43.84,-19.71 43.84,-43.95l0,-147.23c0,-35.11 -10.12,-63.66 -30.07,-84.85c-20.4,-21.62 -46.19,-32.59 -76.69,-32.59c-23.41,0 -44.44,6.77 -62.52,20.13c-4.29,3.17 -8.41,6.69 -12.29,10.52c-3.87,-4 -8.1,-7.66 -12.61,-10.93c-18.04,-13.08 -39.17,-19.72 -62.83,-19.72c-19.87,0 -38.04,4.8 -54.06,14.27c-8.53,-9.52 -21.5,-15.49 -34.17,-15.49z" id="svg_152"/>
    </g>
   </g>
   <path d="m1418.96,834.54l-2.38,0l0,-9.53l2.38,0l0,9.53zm0,-19.06l-2.38,0l0,-9.54l2.38,0l0,9.54zm0,-19.08l-2.38,0l0,-9.53l2.38,0l0,9.53zm0,-19.06l-2.38,0l0,-9.54l2.38,0l0,9.54zm0,-19.07l-2.38,0l0,-9.54l2.38,0l0,9.54zm0,-19.07l-2.38,0l0,-9.53l2.38,0l0,9.53zm0,-19.07l-2.38,0l0,-9.54l2.38,0l0,9.54zm0,-19.08l-2.38,0l0,-9.52l2.38,0l0,9.52zm-2.41,-19.04c-0.07,-3.24 -0.25,-6.41 -0.54,-9.42l2.36,-0.23c0.3,3.07 0.48,6.3 0.56,9.6l-2.38,0.05zm-1.87,-18.75c-0.6,-3.16 -1.37,-6.23 -2.27,-9.11l2.27,-0.71c0.93,2.97 1.71,6.12 2.34,9.37l-2.34,0.45zm-5.62,-17.85c-1.33,-2.86 -2.87,-5.59 -4.57,-8.13l1.97,-1.34c1.77,2.65 3.37,5.49 4.75,8.46l-2.15,1.01zm-10.35,-15.45l-0.28,-0.3c-2.08,-2.2 -4.29,-4.21 -6.59,-5.99l1.45,-1.88c2.4,1.84 4.7,3.93 6.86,6.22l0.3,0.33l-1.74,1.62zm-93.52,-0.46l-1.42,-1.91c2.22,-1.66 4.87,-3.63 7.79,-5.57l1.32,1.98c-2.87,1.92 -5.5,3.86 -7.69,5.5zm15.74,-10.34l-1.11,-2.11c2.93,-1.56 5.9,-2.9 8.81,-3.97l0.82,2.23c-2.81,1.04 -5.68,2.34 -8.52,3.85zm63.08,-0.47c-2.7,-1.4 -5.59,-2.6 -8.59,-3.57l0.72,-2.26c3.14,1 6.15,2.25 8.96,3.71l-1.09,2.12zm-17.67,-5.77c-2.92,-0.51 -6.05,-0.87 -9.31,-1.08l0.15,-2.37c3.35,0.2 6.57,0.58 9.57,1.1l-0.41,2.35zm-27.94,-0.17l-0.46,-2.33c3.16,-0.64 6.39,-1.01 9.62,-1.13l0.08,2.38c-3.1,0.11 -6.2,0.48 -9.24,1.08z" fill="#59595C" id="svg_153"/>
   <path d="m1269.37,834.54l-2.39,0l0,-9.53l2.39,0l0,9.53zm0,-19.06l-2.39,0l0,-9.54l2.39,0l0,9.54zm0,-19.08l-2.39,0l0,-9.53l2.39,0l0,9.53zm0,-19.06l-2.39,0l0,-9.54l2.39,0l0,9.54zm0,-19.07l-2.39,0l0,-9.54l2.39,0l0,9.54zm0,-19.07l-2.39,0l0,-9.53l2.39,0l0,9.53zm0,-19.07l-2.39,0l0,-9.54l2.39,0l0,9.54zm0,-19.08l-2.39,0l0,-9.52l2.39,0l0,9.52zm-2.42,-19.03c-0.09,-3.21 -0.3,-6.37 -0.64,-9.4l2.36,-0.27c0.35,3.1 0.57,6.34 0.65,9.61l-2.37,0.06zm-2.14,-18.69c-0.67,-3.12 -1.51,-6.17 -2.49,-9.05l2.25,-0.77c1.01,2.98 1.87,6.11 2.56,9.31l-2.32,0.51zm-6.06,-17.71c-1.38,-2.83 -2.96,-5.54 -4.69,-8.09l1.95,-1.35c1.8,2.64 3.44,5.46 4.88,8.38l-2.14,1.06zm-10.51,-15.41c-0.17,-0.18 -0.34,-0.37 -0.51,-0.55c-2,-2.12 -4.11,-4.1 -6.26,-5.89l1.51,-1.84c2.24,1.86 4.41,3.9 6.47,6.09c0.18,0.2 0.36,0.38 0.54,0.58l-1.75,1.61zm-14.37,-11.87c-2.65,-1.62 -5.45,-3.04 -8.31,-4.24l0.93,-2.2c2.96,1.25 5.86,2.72 8.62,4.4l-1.24,2.04zm-62.9,-3.46l-0.98,-2.17c2.92,-1.33 5.98,-2.46 9.08,-3.35l0.65,2.29c-2.99,0.86 -5.93,1.95 -8.75,3.23zm45.75,-3.72c-2.96,-0.75 -6.05,-1.32 -9.19,-1.67l0.27,-2.36c3.24,0.36 6.44,0.94 9.51,1.71l-0.59,2.32zm-27.86,-1.44l-0.33,-2.35c3.12,-0.45 6.36,-0.69 9.63,-0.72l0.02,2.38c-3.16,0.04 -6.3,0.26 -9.32,0.69z" fill="#59595C" id="svg_154"/>
   <path d="m1173.38,630.38l-12.1,0c0.16,-0.28 0.37,-0.58 0.66,-0.89c0.76,-0.85 1.98,-1.96 3.62,-3.31l-0.02,-0.03c0.25,-0.17 0.53,-0.41 0.84,-0.67c2.33,-1.98 4.2,-3.92 5.54,-5.78c1.43,-1.97 2.16,-4.24 2.16,-6.74c0,-2.49 -0.85,-4.5 -2.51,-6c-1.63,-1.46 -3.82,-2.21 -6.49,-2.21c-1.87,0 -3.7,0.47 -5.44,1.39c-1.72,0.91 -3.19,2.2 -4.36,3.82c-0.34,0.46 -0.26,1.09 0.17,1.45l2.23,1.92c0.23,0.18 0.51,0.29 0.81,0.24c0.29,-0.03 0.57,-0.18 0.74,-0.42c0.86,-1.16 1.79,-2.05 2.77,-2.64c1.87,-1.14 4.49,-1.14 5.84,0.08c0.65,0.59 0.97,1.37 0.97,2.37c0,1.67 -0.42,3.1 -1.28,4.37c-0.91,1.35 -2.23,2.76 -3.94,4.21c-0.09,0.08 -0.53,0.44 -1.34,1.1c-1.41,1.16 -2.55,2.18 -3.41,3.02c-0.88,0.88 -1.63,1.88 -2.24,2.98c-0.64,1.18 -0.97,2.47 -0.97,3.84l0,1.76c0,0.59 0.49,1.07 1.08,1.07l16.67,0c0.59,0 1.06,-0.48 1.06,-1.07l0,-2.78c0.01,-0.59 -0.47,-1.08 -1.06,-1.08z" fill="#FCFDFF" id="svg_156"/>
   <path d="m1118.66,837.12l-2.38,0l0,-7.14l2.38,0l0,7.14zm0,-16.67l-2.38,0l0,-9.53l2.38,0l0,9.53zm0,-19.07l-2.38,0l0,-9.54l2.38,0l0,9.54zm0,-19.07l-2.38,0l0,-9.53l2.38,0l0,9.53zm0,-19.07l-2.38,0l0,-9.53l2.38,0l0,9.53zm0,-19.07l-2.38,0l0,-9.53l2.38,0l0,9.53zm0,-19.07l-2.38,0l0,-9.53l2.38,0l0,9.53zm0,-19.07l-2.38,0l0,-9.53l2.38,0l0,9.53zm0,-19.06l-2.38,0l0,-9.54l2.38,0l0,9.54zm0,-19.08l-2.38,0l0,-9.53l2.38,0l0,9.53zm0,-19.06l-2.38,0l0,-9.54l2.38,0l0,9.54zm0,-19.08l-2.38,0l0,-9.53l2.38,0l0,9.53z" fill="#59595C" id="svg_157"/>
   <path d="m1117.47,847.73l-9.72,-16.89l19.45,0l-9.73,16.89z" fill="#59595C" id="svg_158"/>
   <path d="m1268.18,847.73l-9.74,-16.89l19.46,0l-9.72,16.89z" fill="#59595C" id="svg_159"/>
   <path d="m1417.77,847.73l-9.73,-16.89l19.46,0l-9.73,16.89z" fill="#59595C" id="svg_160"/>
   <path d="m1119.96,598.56l-2.76,0c-0.31,0 -0.61,0.14 -0.81,0.38l-8.14,9.54c-0.36,0.42 -0.33,1.05 0.06,1.46l1.54,1.54c0.42,0.42 1.1,0.42 1.52,0.01l4.76,-4.72l0,20.67c0,0.59 0.48,1.07 1.07,1.07l2.76,0c0.59,0 1.07,-0.48 1.07,-1.07l0,-27.8c0,-0.6 -0.48,-1.08 -1.07,-1.08z" fill="#FCFDFF" id="svg_162"/>
   <path d="m1299.39,645.49c-0.62,-0.87 -1.36,-1.59 -2.22,-2.14c0.59,-0.48 1.09,-1.07 1.51,-1.75c0.79,-1.28 1.19,-2.79 1.19,-4.45c0,-1.6 -0.37,-3.05 -1.1,-4.31c-0.73,-1.28 -1.77,-2.28 -3.07,-2.99c-1.29,-0.71 -2.77,-1.07 -4.38,-1.07c-2.12,0 -4.01,0.6 -5.62,1.78c-1.59,1.15 -2.84,2.73 -3.69,4.69c-0.23,0.51 -0.03,1.1 0.46,1.37l2.24,1.23c0.26,0.13 0.56,0.16 0.83,0.07c0.29,-0.08 0.52,-0.28 0.64,-0.54c0.64,-1.29 1.38,-2.29 2.22,-2.96c0.8,-0.62 1.75,-0.93 2.92,-0.93c1.04,0 1.86,0.33 2.51,1c0.65,0.68 0.98,1.55 0.98,2.66c0,1.25 -0.35,2.23 -1.06,2.99c-0.68,0.75 -1.61,1.11 -2.79,1.11l-1.8,0c-0.58,0 -1.06,0.48 -1.06,1.07l0,2.53c0,0.6 0.48,1.07 1.06,1.07l1.96,0c1.4,0 2.5,0.43 3.39,1.32c0.88,0.89 1.31,2 1.31,3.4c0,1.35 -0.42,2.41 -1.28,3.27c-0.88,0.86 -1.94,1.28 -3.26,1.28c-1.12,0 -2.06,-0.32 -2.9,-0.97c-0.87,-0.69 -1.61,-1.67 -2.19,-2.9c-0.12,-0.27 -0.36,-0.48 -0.65,-0.56c-0.29,-0.1 -0.59,-0.05 -0.86,0.09l-2.44,1.44c-0.45,0.26 -0.65,0.82 -0.44,1.32c0.77,1.93 1.98,3.48 3.57,4.63c1.63,1.16 3.56,1.75 5.78,1.75c1.77,0 3.43,-0.4 4.92,-1.19c1.51,-0.79 2.72,-1.91 3.59,-3.34c0.87,-1.43 1.31,-3.06 1.31,-4.82c0,-1.93 -0.54,-3.67 -1.58,-5.15z" fill="#FCFDFF" id="svg_164"/>
  </g>
 </g>
</svg>