<?xml version="1.0"?>
<svg width="2000" height="2000" xmlns="http://www.w3.org/2000/svg" xmlns:svg="http://www.w3.org/2000/svg" enable-background="new 0 0 2000 2000" version="1.1" xml:space="preserve">
 <g class="layer">
  <title>Layer 1</title>
  <g id="svg_147">
   <path d="m990.35,867.16c-29.94,0 -54.29,-24.37 -54.29,-54.33l0,-190.18l-85.68,204.94c-10.04,24.04 -33.36,39.57 -59.39,39.57c-26.45,0 -49.9,-15.87 -59.75,-40.42l-79.03,-197.01l0,183.1c0,29.96 -24.36,54.33 -54.3,54.33l-0.67,0c-29.94,0 -54.29,-24.37 -54.29,-54.33l0,-392.81c0,-36.51 29.68,-66.21 66.17,-66.21c27.22,0 51.33,16.34 61.44,41.63l122.86,307.62l129.68,-310.4c9.86,-23.6 32.75,-38.85 58.32,-38.85c34.85,0 63.22,28.38 63.22,63.27l0,395.75c0,29.96 -24.35,54.33 -54.29,54.33z" fill="#FFFFFF" id="svg_165"/>
   <g id="svg_166">
    <defs>
     <rect height="522.95" id="SVGID_00000120560414687129996830000002095130078697394847_" width="511.47" x="538.05" y="349"/>
    </defs>
    <clipPath id="SVGID_00000101092149507078326790000017550853839805965736_">
     <use href="#SVGID_00000120560414687129996830000002095130078697394847_" id="svg_167" overflow="visible"/>
    </clipPath>
    <g clip-path="url(#SVGID_00000101092149507078326790000017550853839805965736_)" id="svg_168">
     <path d="m981.42,353.81c34.86,0 63.22,28.38 63.22,63.27l0,395.75c0,29.96 -24.35,54.33 -54.29,54.33c-29.93,0 -54.28,-24.37 -54.28,-54.33l0,-190.18l-85.69,204.94c-10.04,24.04 -33.36,39.57 -59.39,39.57c-26.45,0 -49.9,-15.87 -59.75,-40.42l-79.03,-197.01l0,183.1c0,29.96 -24.36,54.33 -54.3,54.33l-0.67,0c-29.94,0 -54.29,-24.37 -54.29,-54.33l0,-392.81c0,-36.51 29.68,-66.21 66.17,-66.21c27.22,0 51.33,16.34 61.44,41.63l122.86,307.62l129.68,-310.4c9.86,-23.6 32.75,-38.85 58.32,-38.85m0,-4.81c-27.52,0 -52.15,16.41 -62.76,41.81l-125.14,299.55l-118.5,-296.71c-10.84,-27.12 -36.71,-44.65 -65.9,-44.65c-39.14,0 -70.97,31.86 -70.97,71.02l0,392.81c0,32.61 26.51,59.13 59.09,59.13l0.67,0c32.59,0 59.1,-26.52 59.1,-59.13l0,-158.21l69.77,173.9c10.59,26.39 35.79,43.44 64.21,43.44c27.98,0 53.04,-16.68 63.83,-42.51l76.44,-182.84l0,166.22c0,32.61 26.5,59.13 59.09,59.13c32.59,0 59.1,-26.52 59.1,-59.13l0,-395.76c0,-37.54 -30.52,-68.07 -68.03,-68.07z" id="svg_169"/>
    </g>
   </g>
   <path d="m787.74,827.22l-3.57,-8.94l2.23,-0.89l3.57,8.93l-2.23,0.9zm-7.14,-17.87l-3.56,-8.94l2.23,-0.88l3.57,8.93l-2.24,0.89zm-7.12,-17.87l-3.57,-8.93l2.23,-0.89l3.56,8.93l-2.22,0.89zm-7.14,-17.86l-3.57,-8.93l2.23,-0.9l3.56,8.93l-2.22,0.9zm-7.14,-17.87l-3.57,-8.93l2.24,-0.89l3.57,8.93l-2.24,0.89zm-7.14,-17.86l-3.56,-8.93l2.23,-0.9l3.57,8.93l-2.24,0.9zm-7.13,-17.86l-3.57,-8.94l2.23,-0.89l3.57,8.93l-2.23,0.9zm-7.14,-17.87l-3.56,-8.93l2.23,-0.89l3.56,8.93l-2.23,0.89zm-7.13,-17.87l-3.57,-8.93l2.23,-0.89l3.57,8.93l-2.23,0.89zm-7.13,-17.87l-3.57,-8.93l2.22,-0.89l3.57,8.94l-2.22,0.88zm-7.14,-17.86l-3.57,-8.93l2.24,-0.9l3.56,8.94l-2.23,0.89zm-7.14,-17.86l-3.57,-8.94l2.24,-0.89l3.57,8.94l-2.24,0.89zm-7.13,-17.87l-3.57,-8.93l2.23,-0.89l3.57,8.93l-2.23,0.89zm-7.14,-17.86l-3.57,-8.93l2.23,-0.9l3.57,8.93l-2.23,0.9zm-7.13,-17.87l-3.57,-8.93l2.23,-0.89l3.57,8.93l-2.23,0.89zm-7.13,-17.86l-3.57,-8.94l2.23,-0.89l3.56,8.94l-2.22,0.89zm-7.14,-17.87l-3.57,-8.93l2.23,-0.89l3.57,8.93l-2.23,0.89zm-7.14,-17.87l-3.57,-8.93l2.24,-0.89l3.57,8.94l-2.24,0.88zm-7.13,-17.86l-3.57,-8.93l2.23,-0.9l3.57,8.94l-2.23,0.89zm-7.14,-17.86l-3.57,-8.94l2.23,-0.89l3.57,8.93l-2.23,0.9zm-7.14,-17.87l-2.91,-7.31l2.23,-0.9l2.92,7.32l-2.24,0.89z" fill="#59595C" id="svg_170"/>
   <path d="m816.23,780.35l-2.21,-0.93l1.7,-4.06l2.22,0.92l-1.71,4.07zm5.42,-12.94l-2.22,-0.94l3.71,-8.87l2.21,0.93l-3.7,8.88zm7.41,-17.76l-2.21,-0.93l3.7,-8.87l2.22,0.92l-3.71,8.88zm7.42,-17.75l-2.22,-0.93l3.71,-8.87l2.21,0.92l-3.7,8.88zm7.42,-17.75l-2.22,-0.93l3.7,-8.87l2.22,0.92l-3.7,8.88zm7.41,-17.75l-2.21,-0.93l3.7,-8.87l2.21,0.93l-3.7,8.87zm7.42,-17.75l-2.22,-0.93l3.71,-8.87l2.22,0.93l-3.71,8.87zm7.41,-17.75l-2.21,-0.93l3.7,-8.87l2.22,0.93l-3.71,8.87zm7.42,-17.75l-2.22,-0.92l3.71,-8.88l2.22,0.93l-3.71,8.87zm7.41,-17.75l-2.21,-0.92l3.71,-8.88l2.22,0.93l-3.72,8.87zm7.42,-17.75l-2.22,-0.92l3.71,-8.88l2.22,0.93l-3.71,8.87zm7.41,-17.75l-2.21,-0.92l3.71,-8.88l2.22,0.93l-3.72,8.87zm7.42,-17.75l-2.22,-0.93l3.72,-8.88l2.21,0.93l-3.71,8.88zm7.41,-17.76l-2.21,-0.92l3.71,-8.88l2.22,0.93l-3.72,8.87zm7.42,-17.74l-2.22,-0.93l3.72,-8.88l2.21,0.93l-3.71,8.88zm7.42,-17.75l-2.22,-0.93l3.71,-8.88l2.22,0.93l-3.71,8.88zm7.41,-17.75l-2.22,-0.93l3.72,-8.87l2.21,0.92l-3.71,8.88zm7.42,-17.75l-2.22,-0.93l3.71,-8.87l2.22,0.92l-3.71,8.88zm7.41,-17.75l-2.21,-0.93l3.71,-8.87l2.21,0.92l-3.71,8.88zm7.42,-17.75l-2.22,-0.93l3.71,-8.87l2.22,0.92l-3.71,8.88z" fill="#59595C" id="svg_171"/>
   <path d="m597.89,829.45l-2.39,0l0,-3.55l2.39,0l0,3.55zm0,-13.17l-2.39,0l0,-9.62l2.39,0l0,9.62zm0,-19.24l-2.39,0l0,-9.61l2.39,0l0,9.61zm0,-19.24l-2.39,0l0,-9.62l2.39,0l0,9.62zm0,-19.23l-2.39,0l0,-9.62l2.39,0l0,9.62zm0,-19.25l-2.39,0l0,-9.61l2.39,0l0,9.61zm0,-19.23l-2.39,0l0,-9.62l2.39,0l0,9.62zm0,-19.24l-2.39,0l0,-9.62l2.39,0l0,9.62zm0,-19.24l-2.39,0l0,-9.62l2.39,0l0,9.62zm0,-19.24l-2.39,0l0,-9.62l2.39,0l0,9.62zm0,-19.24l-2.39,0l0,-9.62l2.39,0l0,9.62zm0,-19.24l-2.39,0l0,-9.62l2.39,0l0,9.62zm0,-19.24l-2.39,0l0,-9.62l2.39,0l0,9.62zm0,-19.24l-2.39,0l0,-9.62l2.39,0l0,9.62zm0,-19.24l-2.39,0l0,-9.62l2.39,0l0,9.62zm0,-19.24l-2.39,0l0,-9.62l2.39,0l0,9.62zm0,-19.23l-2.39,0l0,-9.63l2.39,0l0,9.63zm0,-19.25l-2.39,0l0,-9.61l2.39,0l0,9.61zm0,-19.24l-2.39,0l0,-9.62l2.39,0l0,9.62zm0,-19.23l-2.39,0l0,-9.62l2.39,0l0,9.62zm0,-19.25l-2.39,0l0,-9.61l2.39,0l0,9.61zm0,-19.23l-2.39,0l0,-9.63l2.39,0l0,9.63z" fill="#59595C" id="svg_172"/>
   <path d="m596.7,840.82l9.84,-17.05l-19.68,0l9.84,17.05z" fill="#59595C" id="svg_173"/>
   <path d="m793.15,839.08l3.07,-19.45l-18.37,7.07l15.3,12.38z" fill="#59595C" id="svg_174"/>
   <path d="m599.6,393.5l-3.11,0c-0.35,0 -0.69,0.15 -0.92,0.43l-9.13,10.69c-0.4,0.48 -0.38,1.19 0.07,1.63l1.74,1.74c0.47,0.46 1.22,0.46 1.69,0l5.35,-5.28l0,23.16c0,0.67 0.54,1.2 1.2,1.2l3.1,0c0.66,0 1.21,-0.53 1.21,-1.2l0,-31.16c0,-0.67 -0.55,-1.21 -1.2,-1.21z" fill="#FCFDFF" id="svg_176"/>
   <path d="m991.55,829.45l-2.4,0l0,-3.55l2.4,0l0,3.55zm0,-13.17l-2.4,0l0,-9.62l2.4,0l0,9.62zm0,-19.24l-2.4,0l0,-9.61l2.4,0l0,9.61zm0,-19.24l-2.4,0l0,-9.62l2.4,0l0,9.62zm0,-19.23l-2.4,0l0,-9.62l2.4,0l0,9.62zm0,-19.25l-2.4,0l0,-9.61l2.4,0l0,9.61zm0,-19.23l-2.4,0l0,-9.62l2.4,0l0,9.62zm0,-19.24l-2.4,0l0,-9.62l2.4,0l0,9.62zm0,-19.24l-2.4,0l0,-9.62l2.4,0l0,9.62zm0,-19.24l-2.4,0l0,-9.62l2.4,0l0,9.62zm0,-19.24l-2.4,0l0,-9.62l2.4,0l0,9.62zm0,-19.24l-2.4,0l0,-9.62l2.4,0l0,9.62zm0,-19.24l-2.4,0l0,-9.62l2.4,0l0,9.62zm0,-19.24l-2.4,0l0,-9.62l2.4,0l0,9.62zm0,-19.24l-2.4,0l0,-9.62l2.4,0l0,9.62zm0,-19.24l-2.4,0l0,-9.62l2.4,0l0,9.62zm0,-19.23l-2.4,0l0,-9.63l2.4,0l0,9.63zm0,-19.25l-2.4,0l0,-9.61l2.4,0l0,9.61zm0,-19.24l-2.4,0l0,-9.62l2.4,0l0,9.62zm0,-19.23l-2.4,0l0,-9.62l2.4,0l0,9.62zm0,-19.25l-2.4,0l0,-9.61l2.4,0l0,9.61zm0,-19.23l-2.4,0l0,-9.63l2.4,0l0,9.63z" fill="#59595C" id="svg_177"/>
   <path d="m990.35,840.82l9.83,-17.05l-19.67,0l9.84,17.05z" fill="#59595C" id="svg_178"/>
   <path d="m821.05,789.45c-0.7,-0.98 -1.53,-1.78 -2.49,-2.4c0.65,-0.54 1.22,-1.19 1.69,-1.96c0.89,-1.45 1.34,-3.13 1.34,-5c0,-1.78 -0.41,-3.41 -1.24,-4.82c-0.82,-1.43 -1.99,-2.55 -3.45,-3.36c-1.45,-0.79 -3.11,-1.19 -4.92,-1.19c-2.38,0 -4.51,0.66 -6.32,1.99c-1.78,1.29 -3.17,3.06 -4.14,5.26c-0.24,0.57 -0.02,1.24 0.52,1.53l2.51,1.38c0.29,0.16 0.64,0.19 0.94,0.09c0.32,-0.1 0.58,-0.32 0.72,-0.62c0.71,-1.44 1.55,-2.55 2.5,-3.3c0.89,-0.7 1.96,-1.05 3.27,-1.05c1.16,0 2.09,0.36 2.81,1.12c0.74,0.76 1.1,1.74 1.1,2.97c0,1.41 -0.38,2.51 -1.18,3.37c-0.77,0.84 -1.8,1.24 -3.14,1.24l-2,0c-0.67,0 -1.21,0.54 -1.21,1.2l0,2.84c0,0.66 0.54,1.2 1.21,1.2l2.19,0c1.56,0 2.81,0.48 3.8,1.47c0.99,1 1.48,2.24 1.48,3.82c0,1.51 -0.48,2.7 -1.45,3.66c-0.98,0.97 -2.17,1.44 -3.65,1.44c-1.26,0 -2.32,-0.36 -3.26,-1.09c-0.98,-0.78 -1.81,-1.87 -2.46,-3.25c-0.15,-0.3 -0.41,-0.53 -0.73,-0.64c-0.32,-0.09 -0.66,-0.06 -0.96,0.11l-2.74,1.61c-0.52,0.3 -0.74,0.93 -0.52,1.49c0.88,2.16 2.24,3.9 4.03,5.19c1.81,1.29 4,1.95 6.49,1.95c1.99,0 3.85,-0.44 5.52,-1.32c1.7,-0.89 3.06,-2.15 4.04,-3.75c0.97,-1.6 1.47,-3.42 1.47,-5.4c0.01,-2.18 -0.59,-4.11 -1.77,-5.78z" fill="#FCFDFF" id="svg_180"/>
   <path d="m998.74,412.78l-2.78,0l0,-19.9c0,-0.67 -0.53,-1.21 -1.19,-1.21l-3.11,0c-0.38,0 -0.73,0.18 -0.96,0.49l-15.62,21.11c-0.15,0.21 -0.24,0.46 -0.24,0.71l0,3.11c0,0.67 0.55,1.2 1.2,1.2l14.42,0l0,5.75c0,0.66 0.54,1.2 1.2,1.2l3.11,0c0.65,0 1.19,-0.54 1.19,-1.2l0,-5.75l2.78,0c0.66,0 1.2,-0.53 1.2,-1.2l0,-3.11c0,-0.66 -0.54,-1.2 -1.2,-1.2zm-16.99,0l8.71,-11.48l0,11.48l-8.71,0z" fill="#FCFDFF" id="svg_182"/>
   <path d="m650.16,460.15l-13.59,0c0.18,-0.32 0.42,-0.66 0.74,-1c0.85,-0.95 2.22,-2.2 4.07,-3.72l-0.02,-0.03c0.28,-0.19 0.58,-0.45 0.94,-0.76c2.62,-2.21 4.72,-4.39 6.23,-6.47c1.6,-2.2 2.41,-4.75 2.41,-7.56c0,-2.78 -0.94,-5.04 -2.81,-6.72c-1.84,-1.64 -4.29,-2.48 -7.29,-2.48c-2.11,0 -4.16,0.53 -6.11,1.56c-1.93,1.03 -3.59,2.47 -4.91,4.28c-0.37,0.51 -0.28,1.21 0.2,1.62l2.51,2.15c0.24,0.22 0.57,0.33 0.91,0.29c0.33,-0.05 0.63,-0.22 0.83,-0.48c0.96,-1.3 2.01,-2.3 3.11,-2.97c2.11,-1.27 5.04,-1.27 6.55,0.1c0.74,0.66 1.1,1.54 1.1,2.65c0,1.87 -0.47,3.48 -1.44,4.9c-1.02,1.51 -2.5,3.09 -4.42,4.72c-0.1,0.09 -0.6,0.5 -1.51,1.24c-1.58,1.3 -2.87,2.44 -3.83,3.39c-1,0.98 -1.84,2.1 -2.52,3.33c-0.71,1.33 -1.08,2.77 -1.08,4.31l0,1.96c0,0.67 0.54,1.2 1.2,1.2l18.73,0c0.66,0 1.19,-0.53 1.19,-1.2l0,-3.11c0.01,-0.65 -0.53,-1.2 -1.19,-1.2z" fill="#FCFDFF" id="svg_184"/>
   <path d="m963.45,426.02l-15.85,11.66l18.01,7.9l-2.16,-19.56z" fill="#59595C" id="svg_185"/>
  </g>
 </g>
</svg>