<?xml version="1.0"?>
<svg width="2000" height="2000" xmlns="http://www.w3.org/2000/svg" xmlns:svg="http://www.w3.org/2000/svg" enable-background="new 0 0 2000 2000" version="1.1" xml:space="preserve">
 <g class="layer">
  <title>Layer 1</title>
  <g id="svg_147" transform="matrix(1 0 0 1 0 0)">
   <path d="m1295.14,866.37c-23.07,0 -41.83,-18.72 -41.83,-41.73l0,-140.19c0,-42.89 -16.57,-51.51 -43.31,-51.51c-18.24,0 -30.67,5.55 -39.09,17.46c-10.16,14.36 -15.3,34.93 -15.3,61.15l0,113.09c0,23.01 -18.77,41.73 -41.83,41.73l-4.94,0c-23.06,0 -41.83,-18.72 -41.83,-41.73l0,-236.33c0,-23.01 18.77,-41.73 41.83,-41.73l5.26,0c15.08,0 28.31,8.07 35.58,20.11c0.76,-0.48 1.52,-0.97 2.28,-1.44c18.62,-11.52 40.2,-17.37 64.14,-17.37c21.87,0 42.46,4.57 61.21,13.58c19.66,9.46 35.5,23.59 47.1,42c11.6,18.43 17.48,40.09 17.48,64.39l0,156.79c0,23.01 -18.76,41.73 -41.82,41.73l-4.93,0z" fill="#FFFFFF" id="svg_165"/>
   <g id="svg_166">
    <defs>
     <rect height="330.23" id="SVGID_00000080189949018122042700000001201851241995463046_" width="285.07" x="1061.93" y="541.35"/>
    </defs>
    <clipPath id="SVGID_00000041999773588379137730000002741526443693441717_">
     <use href="#SVGID_00000080189949018122042700000001201851241995463046_" id="svg_167" overflow="visible"/>
    </clipPath>
    <g clip-path="url(#SVGID_00000041999773588379137730000002741526443693441717_)" id="svg_168">
     <path d="m1114.09,546.58c15.09,0 28.32,8.07 35.59,20.11c0.76,-0.48 1.52,-0.97 2.28,-1.44c18.62,-11.52 40.2,-17.37 64.14,-17.37c21.87,0 42.46,4.57 61.21,13.58c19.66,9.46 35.5,23.59 47.09,42c11.61,18.43 17.49,40.09 17.49,64.39l0,156.79c0,23.01 -18.76,41.73 -41.82,41.73l-4.93,0c-23.07,0 -41.83,-18.72 -41.83,-41.73l0,-140.19c0,-42.89 -16.57,-51.51 -43.31,-51.51c-18.24,0 -30.67,5.55 -39.09,17.46c-10.16,14.36 -15.3,34.93 -15.3,61.15l0,113.09c0,23.01 -18.77,41.73 -41.83,41.73l-4.94,0c-23.06,0 -41.83,-18.72 -41.83,-41.73l0,-236.33c0,-23.01 18.77,-41.73 41.83,-41.73l5.25,0m0,-5.08l-5.25,0c-25.87,0 -46.91,21 -46.91,46.81l0,236.33c0,25.81 21.04,46.8 46.91,46.8l4.94,0c25.87,0 46.91,-20.99 46.91,-46.8l0,-113.09c0,-25.14 4.84,-44.73 14.38,-58.22c7.49,-10.58 18.27,-15.31 34.93,-15.31c13.79,0 22.45,2.52 28.08,8.17c6.82,6.85 10.14,19.37 10.14,38.26l0,140.19c0,25.81 21.05,46.8 46.92,46.8l4.93,0c25.86,0 46.91,-20.99 46.91,-46.8l0,-156.78c0,-25.27 -6.14,-47.85 -18.26,-67.1c-12.11,-19.23 -28.67,-33.99 -49.2,-43.87c-19.44,-9.34 -40.78,-14.08 -63.42,-14.08c-24.11,0 -45.95,5.72 -64.97,17c-3.73,-4.88 -8.42,-9 -13.76,-12.08c-7.06,-4.07 -15.1,-6.23 -23.28,-6.23z" id="svg_169"/>
    </g>
   </g>
   <path d="m1299.81,827.52l-2.54,0l0,-10.25l2.54,0l0,10.25zm0,-20.44l-2.54,0l0,-10.19l2.54,0l0,10.19zm0,-20.38l-2.54,0l0,-10.18l2.54,0l0,10.18zm0,-20.37l-2.54,0l0,-10.18l2.54,0l0,10.18zm0,-20.36l-2.54,0l0,-10.18l2.54,0l0,10.18zm0,-20.37l-2.54,0l0,-10.18l2.54,0l0,10.18zm0,-20.37l-2.54,0l0,-10.19l2.54,0l0,10.19zm0,-20.38l-2.54,0l0,-10.22l2.54,0l0,10.22zm-2.91,-20.27c-0.31,-3.3 -0.84,-6.62 -1.56,-9.87l2.49,-0.55c0.74,3.36 1.28,6.79 1.61,10.18l-2.54,0.24zm-4.28,-19.5c-1.1,-3.13 -2.39,-6.24 -3.84,-9.24l2.29,-1.1c1.49,3.09 2.82,6.29 3.95,9.51l-2.4,0.83zm-8.71,-17.97c-1.78,-2.82 -3.75,-5.55 -5.84,-8.13l1.98,-1.6c2.15,2.65 4.17,5.47 6.01,8.37l-2.15,1.36zm-126.06,-14.49l-1.65,-1.94c1.19,-0.99 2.41,-1.99 3.65,-2.93l1.55,2.01c-1.21,0.92 -2.4,1.89 -3.55,2.86zm113.47,-1.03c-2.39,-2.34 -4.94,-4.54 -7.58,-6.53l1.55,-2.03c2.71,2.07 5.34,4.34 7.8,6.74l-1.77,1.82zm-101.66,-7.53l-1.34,-2.16c2.91,-1.8 5.95,-3.47 9.02,-4.97l1.12,2.29c-3,1.45 -5.95,3.08 -8.8,4.84zm85.76,-4.56c-0.84,-0.49 -1.71,-0.98 -2.58,-1.43c-1.96,-1.05 -3.95,-1.99 -5.94,-2.8l-0.43,-0.17l0.95,-2.36l0.45,0.19c2.05,0.84 4.13,1.81 6.17,2.89c0.9,0.48 1.79,0.97 2.67,1.49l-1.29,2.19zm-67.73,-4.21l-0.87,-2.39c3.24,-1.19 6.55,-2.21 9.84,-3.02l0.62,2.46c-3.2,0.79 -6.43,1.79 -9.59,2.95zm49.27,-3.28c-3.21,-0.8 -6.51,-1.4 -9.84,-1.78l0.29,-2.52c3.43,0.39 6.86,1.01 10.17,1.84l-0.62,2.46zm-29.83,-1.55l-0.33,-2.52c3.43,-0.46 6.9,-0.71 10.29,-0.75l0.04,2.53c-3.3,0.05 -6.66,0.29 -10,0.74z" fill="#59595C" id="svg_170"/>
   <path d="m1298.54,844.76l-10.41,-17.99l20.83,0l-10.42,17.99z" fill="#59595C" id="svg_171"/>
   <path d="m1176.91,613.33l-12.95,0c0.17,-0.32 0.4,-0.63 0.7,-0.95c0.82,-0.91 2.12,-2.09 3.88,-3.54l-0.02,-0.02c0.27,-0.19 0.57,-0.44 0.9,-0.72c2.5,-2.11 4.49,-4.18 5.93,-6.15c1.53,-2.1 2.31,-4.51 2.31,-7.18c0,-2.64 -0.91,-4.79 -2.68,-6.39c-1.75,-1.56 -4.09,-2.35 -6.95,-2.35c-2.01,0 -3.96,0.49 -5.82,1.48c-1.84,0.97 -3.41,2.35 -4.68,4.07c-0.35,0.48 -0.27,1.15 0.19,1.54l2.39,2.04c0.24,0.2 0.54,0.3 0.87,0.27c0.32,-0.04 0.6,-0.2 0.79,-0.46c0.92,-1.23 1.92,-2.18 2.97,-2.81c2,-1.21 4.8,-1.21 6.24,0.09c0.7,0.63 1.04,1.46 1.04,2.52c0,1.78 -0.45,3.3 -1.37,4.65c-0.97,1.44 -2.39,2.94 -4.22,4.49c-0.09,0.08 -0.56,0.47 -1.43,1.18c-1.51,1.23 -2.73,2.31 -3.64,3.21c-0.95,0.93 -1.76,2 -2.4,3.17c-0.69,1.25 -1.04,2.63 -1.04,4.09l0,1.87c0,0.62 0.52,1.13 1.15,1.13l17.84,0c0.63,0 1.15,-0.51 1.15,-1.13l0,-2.96c-0.01,-0.63 -0.53,-1.14 -1.15,-1.14z" fill="#FCFDFF" id="svg_173"/>
   <path d="m1113.43,833.46l-2.55,0l0,-7.6l2.55,0l0,7.6zm0,-17.75l-2.55,0l0,-10.15l2.55,0l0,10.15zm0,-20.31l-2.55,0l0,-10.15l2.55,0l0,10.15zm0,-20.3l-2.55,0l0,-10.16l2.55,0l0,10.16zm0,-20.31l-2.55,0l0,-10.15l2.55,0l0,10.15zm0,-20.3l-2.55,0l0,-10.16l2.55,0l0,10.16zm0,-20.31l-2.55,0l0,-10.15l2.55,0l0,10.15zm0,-20.3l-2.55,0l0,-10.16l2.55,0l0,10.16zm0,-20.31l-2.55,0l0,-10.15l2.55,0l0,10.15zm0,-20.31l-2.55,0l0,-10.15l2.55,0l0,10.15zm0,-20.3l-2.55,0l0,-10.15l2.55,0l0,10.15zm0,-20.31l-2.55,0l0,-10.15l2.55,0l0,10.15z" fill="#59595C" id="svg_174"/>
   <path d="m1112.16,844.76l-10.42,-17.99l20.83,0l-10.41,17.99z" fill="#59595C" id="svg_175"/>
   <path d="m1114.82,579.44l-2.95,0c-0.34,0 -0.66,0.15 -0.88,0.4l-8.7,10.15c-0.39,0.46 -0.36,1.14 0.06,1.55l1.66,1.66c0.45,0.44 1.17,0.44 1.61,0l5.1,-5.02l0,22.01c0,0.62 0.51,1.13 1.15,1.13l2.95,0c0.63,0 1.15,-0.51 1.15,-1.13l0,-29.61c0,-0.63 -0.52,-1.14 -1.15,-1.14z" fill="#FCFDFF" id="svg_177"/>
  </g>
 </g>
</svg>