<?xml version="1.0"?>
<svg width="2000" height="2000" xmlns="http://www.w3.org/2000/svg" xmlns:svg="http://www.w3.org/2000/svg" enable-background="new 0 0 2000 2000" version="1.1" xml:space="preserve">
 <g class="layer">
  <title>Layer 1</title>
  <g id="svg_147" transform="matrix(1 0 0 1 0 0)">
   <path d="m947.87,866.78c-22.62,0 -44.01,-11.98 -55.81,-31.28l-170.14,-278.08l0,253.31c0,30.91 -25.14,56.05 -56.04,56.05c-30.9,0 -56.04,-25.14 -56.04,-56.05l0,-404.95c0,-36.07 29.34,-65.43 65.41,-65.43c22.65,0 44.05,12.02 55.84,31.36l170.13,279.05l0,-254.36c0,-30.9 25.14,-56.05 56.04,-56.05c30.9,0 56.04,25.15 56.04,56.05l0,404.94c0,36.08 -29.36,65.44 -65.43,65.44z" fill="#FFFFFF" id="svg_148"/>
   <g id="svg_149">
    <defs>
     <rect height="536.27" id="SVGID_00000034083140098411769250000012499266726240178868_" width="413.5" x="604.83" y="335.42"/>
    </defs>
    <clipPath id="SVGID_00000080908532748963290070000005461577028636997551_">
     <use href="#SVGID_00000034083140098411769250000012499266726240178868_" id="svg_150" overflow="visible"/>
    </clipPath>
    <g clip-path="url(#SVGID_00000080908532748963290070000005461577028636997551_)" id="svg_151">
     <path d="m957.26,340.35c30.9,0 56.04,25.15 56.04,56.05l0,404.94c0,36.09 -29.36,65.44 -65.43,65.44c-22.62,0 -44.01,-11.98 -55.81,-31.28l-170.14,-278.08l0,253.31c0,30.91 -25.14,56.05 -56.04,56.05c-30.9,0 -56.04,-25.14 -56.04,-56.05l0,-404.95c0,-36.07 29.34,-65.43 65.41,-65.43c22.65,0 44.05,12.02 55.84,31.36l170.13,279.05l0,-254.36c0,-30.9 25.14,-56.05 56.04,-56.05m0,-4.93c-33.62,0 -60.97,27.36 -60.97,60.98l0,236.8l-160.99,-264.06c-12.68,-20.8 -35.7,-33.72 -60.05,-33.72c-38.79,0 -70.35,31.56 -70.35,70.36l0,404.95c0,33.63 27.36,60.99 60.98,60.99c33.62,0 60.97,-27.36 60.97,-60.99l0,-235.8l160.99,263.14c12.71,20.76 35.7,33.64 60.03,33.64c38.79,0 70.36,-31.56 70.36,-70.37l0,-404.94c0,-33.63 -27.35,-60.98 -60.97,-60.98z" id="svg_152"/>
    </g>
   </g>
   <path d="m921.58,786.78l-5.13,-8.42l2.1,-1.28l5.14,8.42l-2.11,1.28zm-10.27,-16.85l-5.13,-8.41l2.11,-1.29l5.13,8.43l-2.11,1.27zm-10.27,-16.83l-5.13,-8.43l2.11,-1.28l5.13,8.42l-2.11,1.29zm-10.26,-16.85l-5.14,-8.42l2.11,-1.28l5.13,8.41l-2.1,1.29zm-10.27,-16.85l-5.14,-8.41l2.1,-1.29l5.14,8.42l-2.1,1.28zm-10.28,-16.84l-5.13,-8.42l2.1,-1.29l5.14,8.43l-2.11,1.28zm-10.26,-16.84l-5.13,-8.43l2.1,-1.28l5.14,8.42l-2.11,1.29zm-10.27,-16.85l-5.14,-8.42l2.11,-1.28l5.13,8.42l-2.1,1.28zm-10.27,-16.84l-5.14,-8.42l2.11,-1.29l5.13,8.42l-2.1,1.29zm-10.27,-16.85l-5.14,-8.42l2.1,-1.29l5.14,8.43l-2.1,1.28zm-10.28,-16.84l-5.13,-8.43l2.11,-1.28l5.13,8.43l-2.11,1.28zm-10.26,-16.84l-5.13,-8.43l2.1,-1.28l5.14,8.42l-2.11,1.29zm-10.27,-16.85l-5.13,-8.42l2.1,-1.29l5.14,8.42l-2.11,1.29zm-10.27,-16.85l-5.14,-8.42l2.11,-1.28l5.13,8.42l-2.1,1.28zm-10.27,-16.84l-5.14,-8.42l2.1,-1.28l5.14,8.42l-2.1,1.28zm-10.27,-16.84l-5.14,-8.43l2.11,-1.28l5.13,8.42l-2.1,1.29zm-10.27,-16.85l-5.13,-8.42l2.1,-1.28l5.14,8.42l-2.11,1.28zm-10.27,-16.84l-5.13,-8.42l2.1,-1.29l5.14,8.42l-2.11,1.29zm-10.27,-16.85l-5.14,-8.42l2.11,-1.28l5.13,8.42l-2.1,1.28zm-10.27,-16.84l-5.14,-8.43l2.11,-1.27l5.13,8.42l-2.1,1.28zm-10.27,-16.84l-5.13,-8.42l2.1,-1.29l5.14,8.42l-2.11,1.29zm-10.27,-16.85l-1.82,-2.98l2.1,-1.29l1.83,2.98l-2.11,1.29z" fill="#59595C" id="svg_153"/>
   <path d="m668.01,828.12l-2.46,0l0,-3.65l2.46,0l0,3.65zm0,-13.51l-2.46,0l0,-9.86l2.46,0l0,9.86zm0,-19.73l-2.46,0l0,-9.86l2.46,0l0,9.86zm0,-19.73l-2.46,0l0,-9.86l2.46,0l0,9.86zm0,-19.72l-2.46,0l0,-9.87l2.46,0l0,9.87zm0,-19.73l-2.46,0l0,-9.87l2.46,0l0,9.87zm0,-19.74l-2.46,0l0,-9.86l2.46,0l0,9.86zm0,-19.73l-2.46,0l0,-9.86l2.46,0l0,9.86zm0,-19.72l-2.46,0l0,-9.87l2.46,0l0,9.87zm0,-19.73l-2.46,0l0,-9.87l2.46,0l0,9.87zm0,-19.73l-2.46,0l0,-9.87l2.46,0l0,9.87zm0,-19.73l-2.46,0l0,-9.87l2.46,0l0,9.87zm0,-19.73l-2.46,0l0,-9.87l2.46,0l0,9.87zm0,-19.73l-2.46,0l0,-9.87l2.46,0l0,9.87zm0,-19.73l-2.46,0l0,-9.86l2.46,0l0,9.86zm0,-19.73l-2.46,0l0,-9.87l2.46,0l0,9.87zm0,-19.73l-2.46,0l0,-9.87l2.46,0l0,9.87zm0,-19.73l-2.46,0l0,-9.86l2.46,0l0,9.86zm0,-19.73l-2.46,0l0,-9.86l2.46,0l0,9.86zm0,-19.73l-2.46,0l0,-9.86l2.46,0l0,9.86zm0,-19.73l-2.46,0l0,-9.87l2.46,0l0,9.87zm0,-19.73l-2.46,0l0,-9.86l2.46,0l0,9.86z" fill="#59595C" id="svg_154"/>
   <path d="m666.78,839.78l10.09,-17.49l-20.18,0l10.09,17.49z" fill="#59595C" id="svg_155"/>
   <path d="m929.42,797.36l0,-20.18l-17.48,10.09l17.48,10.09z" fill="#59595C" id="svg_156"/>
   <path d="m667.87,379.18l-3.18,0c-0.36,0 -0.71,0.16 -0.94,0.44l-9.37,10.96c-0.41,0.49 -0.39,1.22 0.07,1.68l1.78,1.78c0.49,0.47 1.26,0.47 1.74,0l5.48,-5.42l0,23.76c0,0.67 0.56,1.23 1.24,1.23l3.18,0c0.69,0 1.24,-0.56 1.24,-1.23l0,-31.96c0,-0.69 -0.55,-1.24 -1.24,-1.24z" fill="#FCFDFF" id="svg_158"/>
   <path d="m716.97,445.27l-13.94,0c0.18,-0.34 0.43,-0.69 0.75,-1.04c0.87,-0.97 2.28,-2.25 4.18,-3.81l-0.02,-0.03c0.29,-0.19 0.6,-0.47 0.96,-0.77c2.69,-2.28 4.84,-4.51 6.39,-6.64c1.64,-2.27 2.48,-4.87 2.48,-7.76c0,-2.85 -0.97,-5.16 -2.89,-6.89c-1.88,-1.68 -4.4,-2.54 -7.48,-2.54c-2.15,0 -4.26,0.54 -6.27,1.6c-1.98,1.05 -3.67,2.53 -5.03,4.39c-0.38,0.53 -0.29,1.25 0.2,1.66l2.57,2.21c0.26,0.22 0.59,0.33 0.95,0.29c0.33,-0.04 0.64,-0.22 0.84,-0.5c0.99,-1.33 2.07,-2.35 3.19,-3.02c2.17,-1.32 5.18,-1.31 6.73,0.08c0.75,0.69 1.12,1.58 1.12,2.72c0,1.93 -0.48,3.58 -1.48,5.03c-1.05,1.55 -2.56,3.17 -4.53,4.84c-0.1,0.09 -0.62,0.51 -1.55,1.27c-1.62,1.34 -2.94,2.51 -3.93,3.48c-1.02,1 -1.89,2.16 -2.58,3.42c-0.73,1.35 -1.11,2.84 -1.11,4.41l0,2.02c0,0.68 0.55,1.23 1.23,1.23l19.21,0c0.68,0 1.23,-0.55 1.23,-1.23l0,-3.19c0.01,-0.68 -0.55,-1.23 -1.22,-1.23z" fill="#FCFDFF" id="svg_160"/>
   <path d="m957.11,796.05l-2.47,0l0,-9.86l2.47,0l0,9.86zm0,-19.73l-2.47,0l0,-9.87l2.47,0l0,9.87zm0,-19.73l-2.47,0l0,-9.87l2.47,0l0,9.87zm0,-19.73l-2.47,0l0,-9.86l2.47,0l0,9.86zm0,-19.73l-2.47,0l0,-9.86l2.47,0l0,9.86zm0,-19.73l-2.47,0l0,-9.86l2.47,0l0,9.86zm0,-19.73l-2.47,0l0,-9.87l2.47,0l0,9.87zm0,-19.73l-2.47,0l0,-9.87l2.47,0l0,9.87zm0,-19.73l-2.47,0l0,-9.86l2.47,0l0,9.86zm0,-19.73l-2.47,0l0,-9.86l2.47,0l0,9.86zm0,-19.73l-2.47,0l0,-9.86l2.47,0l0,9.86zm0,-19.73l-2.47,0l0,-9.86l2.47,0l0,9.86zm0,-19.73l-2.47,0l0,-9.86l2.47,0l0,9.86zm0,-19.73l-2.47,0l0,-9.86l2.47,0l0,9.86zm0,-19.72l-2.47,0l0,-9.87l2.47,0l0,9.87zm0,-19.73l-2.47,0l0,-9.87l2.47,0l0,9.87zm0,-19.74l-2.47,0l0,-9.86l2.47,0l0,9.86zm0,-19.73l-2.47,0l0,-9.86l2.47,0l0,9.86zm0,-19.72l-2.47,0l0,-9.87l2.47,0l0,9.87zm0,-19.73l-2.47,0l0,-9.87l2.47,0l0,9.87zm0,-19.73l-2.47,0l0,-9.86l2.47,0l0,9.86zm0,-19.74l-2.47,0l0,-3.63l2.47,0l0,3.63z" fill="#59595C" id="svg_161"/>
   <path d="m955.87,366.43l-10.09,17.48l20.18,0l-10.09,-17.48z" fill="#59595C" id="svg_162"/>
   <path d="m967.37,812.88c-0.72,-1.01 -1.58,-1.83 -2.55,-2.47c0.66,-0.56 1.25,-1.22 1.72,-2c0.91,-1.48 1.38,-3.21 1.38,-5.13c0,-1.83 -0.42,-3.5 -1.27,-4.95c-0.84,-1.46 -2.04,-2.62 -3.54,-3.43c-1.49,-0.83 -3.18,-1.24 -5.04,-1.24c-2.44,0 -4.62,0.69 -6.48,2.04c-1.83,1.33 -3.27,3.15 -4.25,5.4c-0.26,0.59 -0.02,1.27 0.53,1.58l2.58,1.4c0.3,0.17 0.64,0.19 0.96,0.1c0.32,-0.1 0.59,-0.33 0.74,-0.63c0.72,-1.49 1.59,-2.63 2.56,-3.4c0.91,-0.72 2.01,-1.07 3.36,-1.07c1.19,0 2.14,0.38 2.88,1.15c0.76,0.78 1.13,1.78 1.13,3.05c0,1.44 -0.39,2.58 -1.22,3.45c-0.78,0.86 -1.84,1.27 -3.21,1.27l-2.06,0c-0.68,0 -1.24,0.55 -1.24,1.24l0,2.9c0,0.68 0.56,1.23 1.24,1.23l2.24,0c1.61,0 2.89,0.5 3.91,1.52c1.02,1.01 1.51,2.29 1.51,3.9c0,1.55 -0.48,2.78 -1.48,3.76c-1.01,1 -2.23,1.47 -3.74,1.47c-1.3,0 -2.39,-0.36 -3.35,-1.11c-1.01,-0.8 -1.86,-1.91 -2.52,-3.32c-0.15,-0.32 -0.43,-0.56 -0.76,-0.66c-0.32,-0.1 -0.68,-0.06 -0.98,0.11l-2.81,1.64c-0.54,0.31 -0.76,0.96 -0.52,1.53c0.9,2.21 2.28,4.01 4.12,5.32c1.87,1.33 4.1,2.02 6.67,2.02c2.03,0 3.94,-0.47 5.66,-1.37c1.73,-0.91 3.13,-2.21 4.13,-3.85c1.01,-1.64 1.51,-3.51 1.51,-5.53c0.01,-2.23 -0.61,-4.22 -1.81,-5.92z" fill="#FCFDFF" id="svg_164"/>
  </g>
 </g>
</svg>