<?xml version="1.0"?>
<svg width="2000" height="2000" xmlns="http://www.w3.org/2000/svg" xmlns:svg="http://www.w3.org/2000/svg" enable-background="new 0 0 2000 2000" version="1.1" xml:space="preserve">
 <g class="layer">
  <title>Layer 1</title>
  <g id="svg_147" transform="matrix(1 0 0 1 0 0)">
   <path d="m1205.47,865.31c-30.1,0 -57.6,-7.39 -81.72,-21.97c-24.15,-14.59 -43.28,-35.2 -56.86,-61.25c-13.28,-25.48 -20.01,-54.35 -20.01,-85.82c0,-31.47 6.64,-60.15 19.74,-85.26c13.35,-25.6 32.25,-46 56.18,-60.61c23.96,-14.62 51.39,-22.04 81.53,-22.04c30.1,0 57.59,7.4 81.73,21.99c24.13,14.6 43.24,35.08 56.8,60.87c13.31,25.32 20.06,54.13 20.06,85.62c0,31.4 -6.62,60.15 -19.69,85.45c-13.37,25.86 -32.28,46.38 -56.23,60.99c-23.96,14.62 -51.39,22.03 -81.53,22.03zm-1.14,-249.39c-12.79,0 -23.77,3.1 -33.56,9.46c-10.11,6.57 -17.9,15.57 -23.8,27.52c-6.13,12.43 -9.23,27.02 -9.23,43.37c0,16.77 3.13,31.69 9.29,44.34c5.89,12.09 13.66,21.14 23.73,27.69c9.8,6.37 20.78,9.46 33.57,9.46c13.23,0 24.53,-3.12 34.55,-9.54c10.2,-6.54 18.01,-15.57 23.88,-27.61c6.18,-12.65 9.31,-27.37 9.31,-43.77c0,-16.39 -3.13,-31.11 -9.31,-43.77c-5.87,-12.03 -13.68,-21.07 -23.88,-27.6c-10.02,-6.42 -21.32,-9.55 -34.55,-9.55z" fill="#FFFFFF" id="svg_148"/>
   <g id="svg_149">
    <defs>
     <rect height="347.41" id="SVGID_00000087375036931372687910000006756248335870167685_" width="326.57" x="1041.61" y="523.14"/>
    </defs>
    <clipPath id="SVGID_00000011721478188871228270000009179033552342184863_">
     <use href="#SVGID_00000087375036931372687910000006756248335870167685_" id="svg_150" overflow="visible"/>
    </clipPath>
    <g clip-path="url(#SVGID_00000011721478188871228270000009179033552342184863_)" id="svg_151">
     <path d="m1204.33,528.37c30.1,0 57.59,7.39 81.73,21.98c24.13,14.6 43.24,35.08 56.8,60.87c13.31,25.32 20.06,54.13 20.06,85.62c0,31.4 -6.62,60.15 -19.69,85.45c-13.37,25.86 -32.28,46.38 -56.23,60.99c-23.96,14.62 -51.39,22.03 -81.53,22.03c-30.1,0 -57.59,-7.39 -81.72,-21.97c-24.15,-14.59 -43.28,-35.2 -56.85,-61.25c-13.29,-25.48 -20.02,-54.35 -20.02,-85.82c0,-31.47 6.64,-60.15 19.74,-85.26c13.35,-25.61 32.25,-46 56.18,-60.61c23.96,-14.62 51.39,-22.03 81.53,-22.03m0,249.39c13.23,0 24.53,-3.12 34.55,-9.54c10.2,-6.54 18.01,-15.57 23.88,-27.61c6.18,-12.65 9.31,-27.37 9.31,-43.77c0,-16.4 -3.13,-31.12 -9.31,-43.77c-5.87,-12.03 -13.68,-21.07 -23.88,-27.6c-10.02,-6.43 -21.32,-9.55 -34.55,-9.55c-12.79,0 -23.77,3.1 -33.56,9.46c-10.11,6.56 -17.9,15.57 -23.8,27.52c-6.13,12.42 -9.23,27.02 -9.23,43.37c0,16.77 3.13,31.69 9.29,44.34c5.89,12.09 13.66,21.14 23.73,27.69c9.81,6.37 20.78,9.46 33.57,9.46m0,-254.62c-31.11,0 -59.45,7.67 -84.24,22.81c-24.76,15.1 -44.3,36.18 -58.09,62.65c-13.5,25.86 -20.34,55.36 -20.34,87.67c0,32.31 6.94,62 20.61,88.24c14.02,26.91 33.79,48.2 58.78,63.3c24.95,15.08 53.36,22.73 84.42,22.73c31.11,0 59.46,-7.67 84.25,-22.8c24.77,-15.11 44.33,-36.32 58.15,-63.04c13.45,-26.05 20.27,-55.61 20.27,-87.86c0,-32.35 -6.96,-61.97 -20.67,-88.06c-14,-26.64 -33.75,-47.8 -58.72,-62.91c-24.96,-15.08 -53.36,-22.73 -84.42,-22.73zm0,249.39c-11.75,0 -21.8,-2.81 -30.73,-8.62c-9.26,-6.01 -16.41,-14.38 -21.88,-25.6c-5.82,-11.92 -8.76,-26.06 -8.76,-42.04c0,-15.54 2.92,-29.35 8.7,-41.06c5.47,-11.08 12.65,-19.41 21.95,-25.45c8.92,-5.79 18.97,-8.61 30.72,-8.61c12.2,0 22.58,2.85 31.74,8.72c9.37,6 16.57,14.34 22,25.5c5.82,11.92 8.77,25.88 8.77,41.47c0,15.59 -2.95,29.55 -8.77,41.48c-5.43,11.15 -12.63,19.49 -22,25.5c-9.16,5.86 -19.53,8.71 -31.74,8.71z" id="svg_152"/>
    </g>
   </g>
   <path d="m1191.36,576.99l-0.27,-2.6c1.73,-0.18 3.49,-0.33 5.25,-0.44l0.16,2.61c-1.71,0.1 -3.44,0.25 -5.14,0.43z" fill="#59595C" id="svg_153"/>
   <path d="m1201.68,819.93c-3.56,-0.1 -7.1,-0.35 -10.56,-0.73l0.29,-2.6c3.38,0.38 6.86,0.62 10.34,0.72l-0.07,2.61zm10.56,-0.13l-0.13,-2.61c3.48,-0.18 6.94,-0.52 10.31,-0.99l0.36,2.59c-3.44,0.48 -6.98,0.82 -10.54,1.01zm-31.56,-2.24c-3.47,-0.7 -6.93,-1.58 -10.26,-2.59l0.75,-2.51c3.26,0.99 6.64,1.85 10.02,2.54l-0.51,2.56zm52.51,-0.7l-0.59,-2.55c3.36,-0.79 6.71,-1.75 9.93,-2.84l0.84,2.48c-3.3,1.12 -6.74,2.09 -10.18,2.91zm-72.75,-5.47c-3.25,-1.35 -6.47,-2.87 -9.57,-4.52l1.22,-2.31c3.03,1.62 6.17,3.1 9.35,4.42l-1,2.41zm92.78,-1.35l-1.07,-2.37c3.12,-1.42 6.21,-3.02 9.18,-4.74l1.31,2.26c-3.04,1.77 -6.21,3.4 -9.42,4.85zm-111.44,-8.62c-2.94,-1.96 -5.81,-4.07 -8.53,-6.29l1.65,-2.03c2.66,2.17 5.45,4.23 8.32,6.14l-1.44,2.18zm129.76,-1.99l-1.52,-2.12c2.79,-2.02 5.51,-4.19 8.08,-6.45l1.72,1.97c-2.63,2.31 -5.42,4.53 -8.28,6.6zm-146.16,-11.4c-2.48,-2.48 -4.88,-5.12 -7.13,-7.84l2.01,-1.67c2.2,2.66 4.55,5.24 6.97,7.65l-1.85,1.86zm162.04,-2.59l-1.9,-1.78c2.33,-2.51 4.58,-5.16 6.68,-7.91l2.07,1.59c-2.15,2.81 -4.45,5.53 -6.85,8.1zm-175.53,-13.73c-1.96,-2.88 -3.83,-5.91 -5.56,-9.02l2.28,-1.27c1.69,3.03 3.52,6 5.44,8.82l-2.16,1.47zm188.43,-3.06l-2.21,-1.4c1.76,-2.79 3.44,-5.73 4.99,-8.72l0.14,-0.28l2.32,1.19l-0.14,0.29c-1.59,3.06 -3.3,6.06 -5.1,8.92zm-198.76,-15.41c-1.43,-3.2 -2.75,-6.5 -3.93,-9.83l2.47,-0.87c1.14,3.25 2.43,6.5 3.84,9.62l-2.38,1.08zm208.42,-3.41l-2.41,-1c1.29,-3.16 2.47,-6.44 3.51,-9.74l2.49,0.78c-1.06,3.37 -2.27,6.72 -3.59,9.96zm-215.45,-16.55c-0.88,-3.37 -1.65,-6.85 -2.28,-10.34l2.57,-0.46c0.61,3.42 1.37,6.83 2.23,10.14l-2.52,0.66zm221.79,-3.63l-2.55,-0.58c0.75,-3.32 1.39,-6.75 1.9,-10.2l2.58,0.38c-0.52,3.51 -1.17,7.01 -1.93,10.4zm-225.55,-17.18c-0.36,-3.45 -0.61,-7 -0.73,-10.55l2.61,-0.1c0.12,3.49 0.36,6.99 0.72,10.38l-2.6,0.27zm228.64,-3.72l-2.59,-0.2c0.25,-3.4 0.39,-6.89 0.42,-10.38l2.61,0.02c-0.03,3.55 -0.18,7.1 -0.44,10.56zm-226.78,-17.32l-2.6,-0.08c0.11,-3.55 0.34,-7.1 0.68,-10.55l2.6,0.26c-0.34,3.39 -0.57,6.88 -0.68,10.37zm224.36,-3.65c-0.21,-3.48 -0.54,-6.97 -0.98,-10.35l2.59,-0.34c0.45,3.44 0.78,6.99 0.99,10.54l-2.6,0.15zm-222.28,-17.01l-2.57,-0.44c0.62,-3.5 1.37,-6.98 2.23,-10.35l2.53,0.65c-0.85,3.31 -1.59,6.72 -2.19,10.14zm219.57,-3.58c-0.71,-3.4 -1.56,-6.78 -2.52,-10.06l2.5,-0.74c0.98,3.35 1.85,6.8 2.58,10.27l-2.56,0.53zm-214.39,-16.48l-2.46,-0.86c1.17,-3.34 2.48,-6.64 3.91,-9.84l2.38,1.08c-1.4,3.12 -2.68,6.36 -3.83,9.62zm208.51,-3.39c-1.25,-3.22 -2.65,-6.42 -4.16,-9.49l2.33,-1.16c1.55,3.15 2.99,6.41 4.27,9.7l-2.44,0.95zm-200.02,-15.49l-2.28,-1.28c1.73,-3.09 3.61,-6.13 5.57,-9l2.16,1.47c-1.93,2.82 -3.76,5.78 -5.45,8.81zm190.77,-2.98c-1.77,-2.71 -3.82,-5.53 -6.08,-8.38l2.05,-1.63c2.3,2.91 4.4,5.8 6.21,8.58l-2.18,1.43zm-179.09,-14.09l-2.01,-1.67c2.26,-2.71 4.67,-5.34 7.16,-7.81l1.84,1.85c-2.44,2.41 -4.79,4.98 -6.99,7.63zm166.26,-2.19c-2.31,-2.53 -4.76,-5.02 -7.26,-7.43l1.8,-1.89c2.55,2.44 5.03,4.98 7.38,7.55l-1.92,1.77zm-151.58,-12.34l-1.64,-2.03c2.72,-2.21 5.59,-4.32 8.54,-6.27l1.44,2.18c-2.87,1.9 -5.68,3.96 -8.34,6.12zm136.59,-2.04c-2.74,-2.3 -5.49,-4.45 -8.19,-6.38l1.52,-2.12c2.75,1.97 5.56,4.16 8.35,6.5l-1.68,2zm-119.36,-9.37l-1.22,-2.31c3.1,-1.65 6.33,-3.17 9.59,-4.5l0.99,2.42c-3.19,1.3 -6.34,2.77 -9.36,4.39zm19.11,-7.82l-0.74,-2.51c3.34,-0.99 6.8,-1.84 10.28,-2.53l0.5,2.56c-3.39,0.68 -6.77,1.51 -10.04,2.48z" fill="#59595C" id="svg_154"/>
   <path d="m1254.42,586.17c-1.55,-0.89 -3.07,-1.69 -4.54,-2.39l1.13,-2.36c1.52,0.73 3.11,1.56 4.7,2.48l-1.29,2.27z" fill="#59595C" id="svg_155"/>
   <path d="m1246.67,593.86l-11.77,-17.84l21.32,-1.29l-9.55,19.13z" fill="#59595C" id="svg_156"/>
   <path d="m1205.65,556.03l-3.03,0c-0.35,0 -0.67,0.16 -0.9,0.42l-8.92,10.46c-0.4,0.46 -0.37,1.15 0.06,1.59l1.7,1.7c0.46,0.46 1.2,0.46 1.65,0.01l5.23,-5.18l0,22.66c0,0.64 0.53,1.17 1.18,1.17l3.03,0c0.65,0 1.17,-0.53 1.17,-1.17l0,-30.48c0,-0.65 -0.52,-1.18 -1.17,-1.18z" fill="#FCFDFF" id="svg_158"/>
  </g>
 </g>
</svg>