<?xml version="1.0"?>
<svg width="2000" height="2000" xmlns="http://www.w3.org/2000/svg" xmlns:svg="http://www.w3.org/2000/svg" enable-background="new 0 0 2000 2000" version="1.1" xml:space="preserve">
 <g class="layer">
  <title>Layer 1</title>
  <g id="svg_147" transform="matrix(1 0 0 1 0 0)">
   <path d="m807.16,865.38c-42.38,0 -80.8,-11.6 -114.22,-34.46c-32.86,-22.48 -58.81,-53.94 -77.1,-93.49c-17.86,-38.57 -26.91,-82.68 -26.91,-131.08c0,-48.37 9.04,-92.56 26.87,-131.35c18.31,-39.78 44.26,-71.36 77.14,-93.87c33.42,-22.86 71.84,-34.46 114.22,-34.46c42.36,0 80.78,11.6 114.21,34.46c32.9,22.53 58.85,54.11 77.14,93.87c17.84,38.77 26.88,83.18 26.88,132c0,48.45 -9.06,92.47 -26.94,130.83c-18.29,39.29 -44.23,70.61 -77.08,93.09c-33.43,22.86 -71.85,34.46 -114.21,34.46zm0,-417.04c-20.51,0 -38.44,5.95 -54.81,18.18c-17.1,12.79 -30.83,31.21 -40.8,54.75c-10.49,24.73 -15.81,53.36 -15.81,85.08c0,31.71 5.31,60.2 15.77,84.67c9.96,23.32 23.65,41.51 40.69,54.07c16.39,12.1 34.36,17.97 54.96,17.97c20.59,0 38.56,-5.87 54.96,-17.96c17.03,-12.57 30.72,-30.76 40.68,-54.08c10.47,-24.5 15.78,-52.98 15.78,-84.67c0,-31.71 -5.32,-60.33 -15.81,-85.07c-9.99,-23.55 -23.72,-41.97 -40.81,-54.76c-16.37,-12.23 -34.29,-18.18 -54.8,-18.18z" fill="#FFFFFF" id="svg_159"/>
   <g id="svg_160">
    <defs>
     <rect height="528.07" id="SVGID_00000127046128085419685130000003363019662486464906_" width="446.08" x="584.13" y="342"/>
    </defs>
    <clipPath id="SVGID_00000155131918383879565570000002448157442028219273_">
     <use href="#SVGID_00000127046128085419685130000003363019662486464906_" id="svg_161" overflow="visible"/>
    </clipPath>
    <g clip-path="url(#SVGID_00000155131918383879565570000002448157442028219273_)" id="svg_162">
     <path d="m807.16,346.68c42.36,0 80.78,11.59 114.21,34.45c32.9,22.53 58.85,54.11 77.14,93.87c17.84,38.77 26.88,83.19 26.88,132c0,48.45 -9.07,92.47 -26.94,130.83c-18.29,39.29 -44.23,70.61 -77.08,93.09c-33.43,22.86 -71.85,34.46 -114.21,34.46c-42.38,0 -80.8,-11.6 -114.22,-34.46c-32.86,-22.48 -58.81,-53.94 -77.1,-93.48c-17.86,-38.58 -26.91,-82.69 -26.91,-131.09c0,-48.37 9.04,-92.56 26.87,-131.35c18.31,-39.78 44.26,-71.35 77.14,-93.86c33.42,-22.87 71.84,-34.46 114.22,-34.46m0,416.38c20.59,0 38.56,-5.87 54.96,-17.96c17.03,-12.57 30.72,-30.76 40.68,-54.07c10.47,-24.5 15.78,-52.99 15.78,-84.68c0,-31.71 -5.32,-60.33 -15.81,-85.07c-9.99,-23.55 -23.72,-41.97 -40.81,-54.76c-16.37,-12.23 -34.3,-18.18 -54.8,-18.18c-20.51,0 -38.44,5.95 -54.81,18.18c-17.1,12.79 -30.83,31.21 -40.8,54.75c-10.49,24.73 -15.81,53.36 -15.81,85.08c0,31.71 5.31,60.2 15.77,84.67c9.96,23.32 23.65,41.51 40.69,54.07c16.39,12.1 34.36,17.97 54.96,17.97m0,-421.06c-43.33,0 -82.65,11.87 -116.85,35.28c-33.6,22.99 -60.09,55.21 -78.75,95.77c-18.12,39.4 -27.3,84.25 -27.3,133.3c0,49.08 9.2,93.85 27.34,133.05c18.65,40.33 45.14,72.41 78.71,95.38c34.2,23.4 73.51,35.27 116.85,35.27c43.32,0 82.63,-11.87 116.84,-35.27c33.56,-22.97 60.03,-54.92 78.68,-94.98c18.17,-38.98 27.38,-83.67 27.38,-132.8c0,-49.5 -9.19,-94.57 -27.31,-133.95c-18.65,-40.54 -45.14,-72.76 -78.75,-95.77c-34.21,-23.41 -73.52,-35.28 -116.84,-35.28zm0,416.39c-19.56,0 -36.63,-5.58 -52.18,-17.05c-16.37,-12.08 -29.55,-29.62 -39.17,-52.15c-10.22,-23.9 -15.4,-51.77 -15.4,-82.84c0,-31.09 5.2,-59.1 15.44,-83.25c9.65,-22.77 22.87,-40.54 39.3,-52.83c15.53,-11.61 32.54,-17.25 52.01,-17.25c19.46,0 36.47,5.64 52,17.25c16.42,12.27 29.64,30.05 39.31,52.83c10.24,24.16 15.44,52.17 15.44,83.25c0,31.05 -5.18,58.92 -15.4,82.84c-9.64,22.54 -22.82,40.08 -39.17,52.15c-15.56,11.47 -32.62,17.05 -52.18,17.05z" id="svg_163"/>
    </g>
   </g>
   <path d="m810.16,816.51l-0.04,-2.33c3.11,-0.05 6.23,-0.21 9.27,-0.44l0.18,2.33c-3.09,0.24 -6.26,0.39 -9.41,0.44zm-9.4,-0.09c-3.14,-0.12 -6.31,-0.34 -9.39,-0.64l0.23,-2.33c3.04,0.3 6.15,0.52 9.25,0.63l-0.09,2.34zm28.17,-1.36l-0.32,-2.32c3.06,-0.42 6.13,-0.94 9.13,-1.56l0.47,2.29c-3.05,0.62 -6.17,1.16 -9.28,1.59zm-46.88,-0.5c-3.1,-0.51 -6.21,-1.11 -9.24,-1.81l0.52,-2.27c2.98,0.68 6.05,1.28 9.09,1.77l-0.37,2.31zm65.32,-3.29l-0.62,-2.25c2.98,-0.81 5.95,-1.73 8.85,-2.74l0.76,2.21c-2.94,1.02 -5.97,1.96 -8.99,2.78zm-83.66,-0.92c-3,-0.9 -6,-1.91 -8.92,-3l0.81,-2.19c2.88,1.08 5.83,2.07 8.78,2.95l-0.67,2.24zm101.45,-5.24l-0.91,-2.16c2.82,-1.19 5.64,-2.5 8.39,-3.89l1.06,2.08c-2.8,1.41 -5.68,2.74 -8.54,3.97zm-119.08,-1.35c-2.84,-1.29 -5.69,-2.69 -8.44,-4.17l1.1,-2.05c2.71,1.45 5.5,2.83 8.3,4.09l-0.96,2.13zm135.88,-7.13l-1.19,-2.01c2.63,-1.55 5.26,-3.22 7.82,-4.96l1.31,1.94c-2.6,1.75 -5.27,3.45 -7.94,5.03zm-152.48,-1.74c-2.64,-1.64 -5.29,-3.4 -7.84,-5.23l1.35,-1.9c2.52,1.79 5.12,3.52 7.72,5.14l-1.23,1.99zm168.04,-8.82l-1.43,-1.85c2.43,-1.87 4.85,-3.85 7.17,-5.88l1.54,1.77c-2.37,2.05 -4.81,4.06 -7.28,5.96zm-183.38,-2.1c-2.42,-1.95 -4.83,-4.01 -7.15,-6.11l1.57,-1.73c2.28,2.07 4.66,4.1 7.04,6.03l-1.46,1.81zm197.58,-10.23l-1.63,-1.67c2.19,-2.14 4.36,-4.38 6.45,-6.66l1.72,1.58c-2.11,2.31 -4.32,4.58 -6.54,6.75zm-211.52,-2.4c-2.18,-2.22 -4.33,-4.54 -6.4,-6.9l1.75,-1.54c2.05,2.33 4.17,4.61 6.32,6.8l-1.67,1.64zm224.22,-11.45l-1.8,-1.49c1.94,-2.36 3.86,-4.83 5.69,-7.31l1.88,1.38c-1.86,2.52 -3.8,5.02 -5.77,7.42zm-236.63,-2.68c-1.92,-2.44 -3.81,-4.98 -5.63,-7.55l1.92,-1.35c1.78,2.54 3.65,5.05 5.54,7.45l-1.83,1.45zm247.78,-12.44l-1.95,-1.29c1.69,-2.56 3.34,-5.2 4.93,-7.87l2,1.2c-1.6,2.69 -3.28,5.37 -4.98,7.96zm-258.63,-2.93c-1.66,-2.61 -3.29,-5.32 -4.84,-8.06l2.03,-1.15c1.53,2.7 3.14,5.38 4.78,7.96l-1.97,1.25zm268.22,-13.23l-2.06,-1.1c1.44,-2.69 2.85,-5.48 4.18,-8.29l2.12,1c-1.36,2.85 -2.79,5.66 -4.24,8.39zm-277.51,-3.1c-1.41,-2.75 -2.78,-5.59 -4.09,-8.46l2.12,-0.97c1.29,2.84 2.65,5.65 4.04,8.37l-2.07,1.06zm285.61,-13.83l-2.15,-0.92c1.21,-2.83 2.38,-5.73 3.47,-8.62l2.18,0.82c-1.1,2.93 -2.28,5.86 -3.5,8.72zm-293.43,-3.25c-1.17,-2.87 -2.3,-5.82 -3.37,-8.77l2.2,-0.79c1.05,2.92 2.17,5.84 3.33,8.69l-2.16,0.87zm300.06,-14.31l-2.21,-0.73c0.96,-2.92 1.89,-5.9 2.74,-8.89l2.24,0.65c-0.86,3.01 -1.79,6.03 -2.77,8.97zm-306.43,-3.36c-0.93,-2.95 -1.82,-5.99 -2.64,-9.01l2.25,-0.62c0.82,3 1.7,6 2.62,8.93l-2.23,0.7zm311.63,-14.67l-2.27,-0.56c0.73,-2.97 1.42,-6.02 2.05,-9.06l2.29,0.48c-0.64,3.06 -1.33,6.14 -2.07,9.14zm-316.57,-3.46c-0.7,-3.01 -1.37,-6.1 -1.97,-9.18l2.29,-0.44c0.6,3.05 1.25,6.11 1.95,9.1l-2.27,0.52zm320.38,-14.9l-2.3,-0.4c0.52,-3.03 0.99,-6.12 1.41,-9.19l2.32,0.31c-0.42,3.1 -0.91,6.22 -1.43,9.28zm-323.99,-3.52c-0.48,-3.06 -0.92,-6.19 -1.31,-9.3l2.31,-0.29c0.39,3.09 0.83,6.19 1.31,9.22l-2.31,0.37zm326.53,-15.08l-2.32,-0.24c0.31,-3.04 0.59,-6.16 0.8,-9.27l2.33,0.17c-0.22,3.12 -0.5,6.27 -0.81,9.34zm-328.86,-3.54c-0.29,-3.09 -0.53,-6.24 -0.72,-9.36l2.33,-0.14c0.19,3.1 0.43,6.22 0.72,9.28l-2.33,0.22zm330.2,-15.17l-2.33,-0.09c0.13,-3.06 0.21,-6.2 0.25,-9.3l2.34,0.03c-0.05,3.12 -0.13,6.28 -0.26,9.36zm-331.36,-3.56c-0.1,-3.09 -0.15,-6.24 -0.16,-9.37l2.33,-0.01c0.01,3.11 0.07,6.24 0.16,9.31l-2.33,0.07zm329.26,-15.15c-0.04,-3.09 -0.13,-6.23 -0.26,-9.3l2.33,-0.1c0.13,3.09 0.22,6.25 0.27,9.37l-2.34,0.03zm-326.99,-3.54l-2.33,-0.06c0.07,-3.13 0.19,-6.28 0.36,-9.37l2.34,0.13c-0.17,3.06 -0.29,6.19 -0.37,9.3zm326.18,-15.05c-0.23,-3.11 -0.5,-6.23 -0.82,-9.27l2.32,-0.25c0.32,3.08 0.6,6.22 0.83,9.35l-2.33,0.17zm-325.17,-3.54l-2.33,-0.2c0.26,-3.12 0.58,-6.26 0.94,-9.33l2.32,0.27c-0.36,3.05 -0.67,6.16 -0.93,9.26zm323.23,-14.97c-0.42,-3.09 -0.89,-6.19 -1.41,-9.21l2.31,-0.39c0.52,3.05 0.99,6.17 1.42,9.28l-2.32,0.32zm-321.08,-3.52l-2.31,-0.34c0.47,-3.09 0.99,-6.21 1.55,-9.25l2.3,0.43c-0.56,3.01 -1.07,6.1 -1.54,9.16zm317.94,-14.83c-0.63,-3.04 -1.32,-6.1 -2.05,-9.09l2.27,-0.55c0.74,3.01 1.43,6.09 2.07,9.16l-2.29,0.48zm-314.55,-3.44l-2.28,-0.51c0.68,-3.05 1.42,-6.12 2.2,-9.11l2.26,0.59c-0.78,2.96 -1.51,6 -2.18,9.03zm310.11,-14.64c-0.86,-2.99 -1.77,-5.98 -2.73,-8.89l2.22,-0.73c0.96,2.94 1.9,5.96 2.76,8.98l-2.25,0.64zm-305.41,-3.34l-2.24,-0.67c0.91,-3 1.88,-6 2.89,-8.93l2.21,0.76c-1.01,2.9 -1.97,5.87 -2.86,8.84zm299.6,-14.33c-1.08,-2.91 -2.24,-5.81 -3.43,-8.64l2.15,-0.91c1.2,2.85 2.38,5.79 3.47,8.73l-2.19,0.82zm-293.54,-3.23l-2.17,-0.85c1.01,-2.58 2.07,-5.16 3.17,-7.67l0.43,-1l2.14,0.94l-0.43,0.98c-1.08,2.5 -2.14,5.05 -3.14,7.6zm286.32,-13.9c-1.33,-2.81 -2.72,-5.6 -4.15,-8.31l2.07,-1.09c1.44,2.73 2.85,5.56 4.19,8.41l-2.11,0.99zm-278.83,-3.1l-2.1,-1.03c1.39,-2.82 2.85,-5.63 4.33,-8.34l2.05,1.13c-1.47,2.67 -2.91,5.45 -4.28,8.24zm270.17,-13.33c-1.57,-2.68 -3.22,-5.34 -4.89,-7.9l1.95,-1.27c1.7,2.59 3.36,5.27 4.96,7.99l-2.02,1.18zm-261.24,-2.95l-1.99,-1.22c1.63,-2.69 3.35,-5.34 5.08,-7.9l1.94,1.31c-1.72,2.53 -3.41,5.16 -5.03,7.81zm251.08,-12.59c-1.82,-2.51 -3.73,-4.99 -5.66,-7.36l1.81,-1.48c1.96,2.41 3.89,4.92 5.74,7.46l-1.89,1.38zm-240.64,-2.76l-1.86,-1.41c1.89,-2.5 3.87,-4.97 5.87,-7.34l1.78,1.51c-1.97,2.33 -3.92,4.77 -5.79,7.24zm228.94,-11.65c-2.08,-2.29 -4.24,-4.54 -6.43,-6.69l1.64,-1.67c2.21,2.18 4.41,4.46 6.52,6.79l-1.73,1.57zm-216.97,-2.5l-1.69,-1.61c2.15,-2.27 4.38,-4.51 6.65,-6.64l1.6,1.7c-2.23,2.1 -4.44,4.31 -6.56,6.55zm203.75,-10.51c-2.33,-2.03 -4.73,-4.01 -7.16,-5.9l1.44,-1.84c2.46,1.91 4.9,3.92 7.26,5.99l-1.54,1.75zm-190.26,-2.21l-1.51,-1.78c2.4,-2.02 4.89,-3.98 7.39,-5.84l1.39,1.88c-2.47,1.84 -4.91,3.77 -7.27,5.74zm175.61,-9.15c-2.55,-1.75 -5.18,-3.42 -7.81,-4.99l1.2,-2c2.67,1.58 5.34,3.28 7.93,5.06l-1.32,1.93zm-160.73,-1.88l-1.28,-1.96c2.63,-1.71 5.34,-3.35 8.05,-4.87l1.15,2.03c-2.67,1.5 -5.34,3.12 -7.92,4.8zm144.81,-7.57c-2.75,-1.4 -5.57,-2.72 -8.4,-3.93l0.92,-2.15c2.87,1.23 5.74,2.57 8.54,3.99l-1.06,2.09zm-128.68,-1.5l-1.01,-2.11c2.83,-1.34 5.73,-2.62 8.63,-3.78l0.86,2.17c-2.85,1.14 -5.7,2.39 -8.48,3.72zm111.65,-5.78c-0.89,-0.31 -1.78,-0.61 -2.68,-0.9l0.73,-2.22c0.91,0.29 1.82,0.6 2.73,0.91l-0.78,2.21zm-94.45,-1.08l-0.72,-2.22c2.97,-0.95 6.01,-1.83 9.05,-2.6l0.57,2.27c-2.99,0.75 -5.99,1.61 -8.9,2.55zm17.95,-4.51l-0.42,-2.31c3.06,-0.55 6.19,-1.03 9.32,-1.4l0.27,2.32c-3.07,0.37 -6.15,0.84 -9.17,1.39zm18.41,-2.2l-0.14,-2.33c3.09,-0.18 6.25,-0.27 9.41,-0.27l0,2.33c-3.1,0 -6.22,0.09 -9.27,0.27z" fill="#59595C" id="svg_164"/>
   <path d="m855.6,414.47l7,-17.8l-18.9,2.84l11.9,14.96z" fill="#59595C" id="svg_165"/>
   <path d="m811.34,381.76l-3.01,0c-0.34,0 -0.67,0.15 -0.89,0.41l-8.88,10.39c-0.4,0.46 -0.37,1.15 0.06,1.58l1.69,1.69c0.46,0.45 1.19,0.45 1.65,0l5.2,-5.14l0,22.51c0,0.64 0.52,1.16 1.17,1.16l3.01,0c0.64,0 1.17,-0.52 1.17,-1.16l0,-30.28c0,-0.63 -0.53,-1.16 -1.17,-1.16z" fill="#FCFDFF" id="svg_167"/>
  </g>
 </g>
</svg>