<?xml version="1.0"?>
<svg width="2000" height="2000" xmlns="http://www.w3.org/2000/svg" xmlns:svg="http://www.w3.org/2000/svg" enable-background="new 0 0 2000 2000" version="1.1" xml:space="preserve">
 <g class="layer">
  <title>Layer 1</title>
  <g id="svg_147">
   <path d="m1127.85,871.7c-18.96,0 -34.38,-15.44 -34.38,-34.42l0,-314.31c0,-18.97 15.42,-34.41 34.38,-34.41l4.05,0c12.75,0 23.9,6.99 29.83,17.34c2,-1.24 4.04,-2.41 6.11,-3.52c15.76,-8.46 33.18,-12.75 51.78,-12.75c24.12,0 46.15,5.93 65.48,17.61c19.34,11.7 34.65,28.11 45.52,48.78c10.66,20.29 16.07,43.52 16.07,69.05c0,25.2 -5.32,48.18 -15.81,68.31c-10.71,20.53 -25.85,36.86 -45.02,48.56c-19.2,11.71 -41.18,17.65 -65.32,17.65c-18.87,0 -36.49,-4.27 -52.39,-12.69c-0.62,-0.34 -1.26,-0.68 -1.88,-1.03l0,91.41c0,18.98 -15.42,34.42 -34.37,34.42l-4.05,0zm92.69,-311.92c-10.6,0 -19.65,2.51 -27.69,7.65c-8.16,5.23 -14.43,12.47 -19.14,22.13c-4.93,10.13 -7.44,21.92 -7.44,35.05c0,13.14 2.51,24.94 7.44,35.07c4.72,9.64 10.98,16.88 19.14,22.11c8.04,5.16 17.09,7.66 27.69,7.66c10.24,0 19.04,-2.48 26.89,-7.58c8.11,-5.27 14.34,-12.48 19.06,-22.04c4.92,-9.96 7.4,-21.65 7.4,-34.75c0,-13.44 -2.5,-25.4 -7.44,-35.53c-4.66,-9.54 -11.06,-17.01 -19.02,-22.19c-7.85,-5.1 -16.65,-7.58 -26.89,-7.58z" fill="#FFFFFF" id="svg_161"/>
   <g id="svg_162">
    <defs>
     <rect height="391.65" id="SVGID_00000178903835742074841750000013702085807968608139_" width="261.57" x="1089.3" y="484.31"/>
    </defs>
    <clipPath id="SVGID_00000032612249982070128130000010151043686298820263_">
     <use href="#SVGID_00000178903835742074841750000013702085807968608139_" id="svg_163" overflow="visible"/>
    </clipPath>
    <g clip-path="url(#SVGID_00000032612249982070128130000010151043686298820263_)" id="svg_164">
     <path d="m1131.9,488.56c12.75,0 23.9,6.99 29.83,17.34c2,-1.23 4.04,-2.41 6.11,-3.52c15.76,-8.46 33.18,-12.75 51.78,-12.75c24.12,0 46.15,5.93 65.48,17.61c19.34,11.7 34.65,28.11 45.52,48.78c10.66,20.29 16.07,43.52 16.07,69.06c0,25.19 -5.32,48.17 -15.81,68.3c-10.71,20.53 -25.85,36.87 -45.01,48.56c-19.21,11.71 -41.19,17.65 -65.33,17.65c-18.86,0 -36.49,-4.26 -52.39,-12.69c-0.62,-0.34 -1.26,-0.68 -1.88,-1.03l0,91.41c0,18.98 -15.42,34.42 -34.37,34.42l-4.05,0c-18.96,0 -34.38,-15.44 -34.38,-34.42l0,-314.31c0,-18.97 15.42,-34.41 34.38,-34.41l4.05,0m88.64,200.89c10.24,0 19.04,-2.48 26.89,-7.58c8.11,-5.27 14.34,-12.48 19.06,-22.04c4.92,-9.96 7.4,-21.65 7.4,-34.75c0,-13.44 -2.5,-25.4 -7.44,-35.53c-4.66,-9.55 -11.06,-17.01 -19.02,-22.19c-7.85,-5.09 -16.65,-7.57 -26.89,-7.57c-10.6,0 -19.66,2.5 -27.69,7.64c-8.16,5.24 -14.43,12.47 -19.14,22.13c-4.93,10.13 -7.44,21.92 -7.44,35.05c0,13.14 2.51,24.94 7.44,35.07c4.71,9.65 10.97,16.88 19.14,22.12c8.04,5.14 17.09,7.65 27.69,7.65m-88.64,-205.08l-4.05,0c-21.26,0 -38.55,17.32 -38.55,38.6l0,314.31c0,21.29 17.29,38.6 38.55,38.6l4.05,0c21.26,0 38.55,-17.31 38.55,-38.6l0,-84.55c15.38,7.34 32.2,11.05 50.09,11.05c24.92,0 47.63,-6.15 67.5,-18.27c19.82,-12.09 35.48,-28.98 46.54,-50.2c10.81,-20.73 16.29,-44.36 16.29,-70.24c0,-26.22 -5.57,-50.11 -16.55,-71c-11.23,-21.35 -27.06,-38.31 -47.05,-50.41c-20.01,-12.08 -42.77,-18.21 -67.65,-18.21c-19.29,0 -37.38,4.45 -53.76,13.24c-0.94,0.5 -1.88,1.02 -2.82,1.56c-3.08,-4.23 -7.02,-7.82 -11.53,-10.5c-5.93,-3.52 -12.71,-5.38 -19.61,-5.38zm88.64,200.89c-9.78,0 -18.1,-2.29 -25.43,-6.99c-7.5,-4.81 -13.27,-11.49 -17.64,-20.43c-4.66,-9.55 -7.02,-20.73 -7.02,-33.23c0,-12.49 2.36,-23.66 7.02,-33.21c4.37,-8.95 10.14,-15.64 17.64,-20.44c7.33,-4.7 15.65,-6.99 25.43,-6.99c9.41,0 17.46,2.26 24.61,6.9c7.32,4.76 13.22,11.66 17.54,20.52c4.66,9.55 7.02,20.89 7.02,33.69c0,12.45 -2.34,23.52 -6.97,32.89c-4.37,8.87 -10.13,15.54 -17.59,20.39c-7.14,4.64 -15.2,6.9 -24.61,6.9z" id="svg_165"/>
    </g>
   </g>
   <path d="m1220.23,725.2l-0.3,0l0.01,-2.09l0.29,0c2.71,0 5.39,-0.1 7.98,-0.3l0.15,2.09c-2.63,0.2 -5.37,0.3 -8.13,0.3zm-8.74,-0.38c-2.82,-0.25 -5.64,-0.62 -8.39,-1.1l0.36,-2.07c2.69,0.48 5.45,0.84 8.2,1.08l-0.17,2.09zm25.27,-0.93l-0.34,-2.07c2.74,-0.45 5.46,-1.03 8.07,-1.73l0.54,2.02c-2.68,0.72 -5.47,1.31 -8.27,1.78zm-41.91,-2.02c-2.73,-0.74 -5.44,-1.62 -8.06,-2.61l0.74,-1.95c2.55,0.96 5.2,1.81 7.86,2.54l-0.54,2.02zm58.24,-2.35l-0.75,-1.96c2.56,-0.97 5.1,-2.08 7.56,-3.32l0.94,1.88c-2.53,1.26 -5.13,2.41 -7.75,3.4zm-74.06,-3.64c-2.53,-1.25 -5.02,-2.65 -7.38,-4.14l1.12,-1.78c2.3,1.46 4.72,2.83 7.19,4.05l-0.93,1.87zm89.17,-3.94l-1.12,-1.77c2.34,-1.49 4.62,-3.08 6.76,-4.75l1.28,1.66c-2.19,1.7 -4.52,3.34 -6.92,4.86zm-103.45,-5.12c-2.21,-1.75 -4.34,-3.65 -6.33,-5.63l1.48,-1.48c1.93,1.92 4,3.76 6.14,5.47l-1.29,1.64zm116.78,-5.28l-1.44,-1.51c1.97,-1.89 3.88,-3.91 5.67,-6l1.6,1.36c-1.84,2.14 -3.8,4.21 -5.83,6.15zm-128.77,-6.66c-1.76,-2.19 -3.41,-4.52 -4.92,-6.91l1.76,-1.11c1.47,2.32 3.08,4.58 4.79,6.71l-1.63,1.31zm139.78,-6.18l-1.72,-1.21c1.55,-2.21 3.05,-4.56 4.45,-6.98l1.81,1.05c-1.43,2.48 -2.96,4.87 -4.54,7.14zm8.47,-14.62l-1.89,-0.9c1.17,-2.47 2.25,-5.04 3.21,-7.64l1.96,0.74c-0.99,2.65 -2.09,5.27 -3.28,7.8zm5.91,-15.84l-2.01,-0.57c0.74,-2.62 1.4,-5.33 1.96,-8.07l2.04,0.43c-0.56,2.77 -1.23,5.55 -1.99,8.21zm3.39,-16.55l-2.07,-0.27c0.35,-2.7 0.62,-5.48 0.81,-8.26l2.08,0.13c-0.18,2.84 -0.46,5.66 -0.82,8.4zm1.12,-16.82l-2.09,-0.02c0,-0.27 0.01,-0.56 0.01,-0.84c0,-2.51 -0.08,-5.02 -0.21,-7.46l2.09,-0.12c0.13,2.49 0.2,5.04 0.2,7.58c0,0.28 0,0.57 0,0.86zm-3.02,-16.59c-0.34,-2.77 -0.78,-5.53 -1.31,-8.2l2.06,-0.4c0.53,2.72 0.97,5.52 1.32,8.34l-2.07,0.26zm-3.2,-16.26c-0.75,-2.67 -1.6,-5.32 -2.54,-7.88l1.96,-0.73c0.96,2.62 1.83,5.33 2.59,8.05l-2.01,0.56zm-5.72,-15.52c-0.63,-1.37 -1.32,-2.73 -2.02,-4.07c-0.58,-1.11 -1.19,-2.21 -1.8,-3.28l1.81,-1.04c0.62,1.08 1.24,2.22 1.85,3.35c0.71,1.35 1.4,2.75 2.06,4.15l-1.9,0.89zm-8.25,-14.33c-1.59,-2.28 -3.29,-4.48 -5.04,-6.55l1.59,-1.36c1.8,2.12 3.53,4.37 5.16,6.7l-1.71,1.21zm-10.7,-12.58c-1.96,-1.9 -4.06,-3.72 -6.22,-5.42l1.29,-1.64c2.22,1.74 4.37,3.61 6.38,5.56l-1.45,1.5zm-113.17,-3.56l-1.27,-1.66c2.3,-1.75 4.6,-3.41 6.86,-4.91l1.16,1.74c-2.22,1.48 -4.49,3.11 -6.75,4.83zm100.21,-6.65c-0.61,-0.39 -1.23,-0.78 -1.86,-1.16c-1.73,-1.06 -3.51,-2.05 -5.29,-2.96l0.95,-1.87c1.83,0.94 3.65,1.96 5.42,3.03c0.65,0.4 1.29,0.8 1.91,1.2l-1.13,1.76zm-86.41,-2.52l-1.02,-1.83c2.5,-1.41 5.03,-2.7 7.54,-3.83l0.86,1.9c-2.44,1.11 -4.93,2.37 -7.38,3.76zm71.73,-4.98c-2.54,-0.99 -5.18,-1.86 -7.84,-2.59l0.55,-2.02c2.73,0.76 5.44,1.64 8.04,2.66l-0.75,1.95zm-56.68,-1.81l-0.67,-1.98c2.7,-0.9 5.44,-1.67 8.16,-2.27l0.45,2.04c-2.65,0.59 -5.31,1.33 -7.94,2.21zm40.78,-2.57c-2.66,-0.46 -5.41,-0.81 -8.2,-1.03l0.17,-2.09c2.85,0.24 5.67,0.59 8.39,1.06l-0.36,2.06zm-24.7,-0.96l-0.22,-2.08c2.68,-0.28 5.42,-0.43 8.15,-0.43l0.3,0l0,2.1l-0.3,0c-2.66,0 -5.33,0.13 -7.93,0.41z" fill="#59595C" id="svg_166"/>
   <path d="m1139.63,687.62l0,-17.13l14.82,8.56l-14.82,8.57z" fill="#59595C" id="svg_167"/>
   <path d="m1181.79,548.09l-10.64,0c0.14,-0.25 0.33,-0.51 0.58,-0.79c0.67,-0.74 1.74,-1.72 3.19,-2.91l-0.02,-0.01c0.22,-0.16 0.46,-0.37 0.73,-0.61c2.06,-1.73 3.7,-3.44 4.88,-5.06c1.26,-1.73 1.9,-3.72 1.9,-5.93c0,-2.18 -0.75,-3.95 -2.21,-5.26c-1.44,-1.29 -3.36,-1.94 -5.71,-1.94c-1.64,0 -3.26,0.41 -4.78,1.22c-1.51,0.8 -2.81,1.93 -3.84,3.35c-0.29,0.4 -0.23,0.95 0.15,1.27l1.97,1.68c0.19,0.18 0.44,0.26 0.71,0.23c0.26,-0.03 0.49,-0.17 0.65,-0.37c0.75,-1.02 1.57,-1.81 2.43,-2.33c1.66,-1 3.96,-1 5.14,0.08c0.57,0.52 0.85,1.2 0.85,2.07c0,1.48 -0.36,2.73 -1.12,3.84c-0.81,1.19 -1.96,2.42 -3.47,3.7c-0.08,0.07 -0.46,0.39 -1.18,0.97c-1.24,1.02 -2.24,1.92 -2.99,2.65c-0.78,0.77 -1.45,1.66 -1.98,2.62c-0.55,1.03 -0.84,2.17 -0.84,3.37l0,1.54c0,0.52 0.42,0.94 0.94,0.94l14.66,0c0.51,0 0.94,-0.42 0.94,-0.94l0,-2.44c0,-0.52 -0.43,-0.94 -0.94,-0.94z" fill="#FCFDFF" id="svg_169"/>
   <path d="m1131.81,844.49l-2.1,0l0,-8.38l2.1,0l0,8.38zm0,-16.74l-2.1,0l0,-8.38l2.1,0l0,8.38zm0,-16.75l-2.1,0l0,-8.38l2.1,0l0,8.38zm0,-16.75l-2.1,0l0,-8.37l2.1,0l0,8.37zm0,-16.75l-2.1,0l0,-8.37l2.1,0l0,8.37zm0,-16.74l-2.1,0l0,-8.38l2.1,0l0,8.38zm0,-16.75l-2.1,0l0,-8.38l2.1,0l0,8.38zm0,-16.74l-2.1,0l0,-8.38l2.1,0l0,8.38zm0,-16.75l-2.1,0l0,-8.37l2.1,0l0,8.37zm0,-16.75l-2.1,0l0,-8.37l2.1,0l0,8.37zm0,-16.75l-2.1,0l0,-8.37l2.1,0l0,8.37zm0,-16.74l-2.1,0l0,-8.38l2.1,0l0,8.38zm0,-16.75l-2.1,0l0,-8.37l2.1,0l0,8.37zm0,-16.74l-2.1,0l0,-8.38l2.1,0l0,8.38zm0,-16.75l-2.1,0l0,-8.37l2.1,0l0,8.37zm0,-16.75l-2.1,0l0,-8.37l2.1,0l0,8.37zm0,-16.75l-2.1,0l0,-8.37l2.1,0l0,8.37zm0,-16.74l-2.1,0l0,-8.38l2.1,0l0,8.38zm0,-16.75l-2.1,0l0,-8.37l2.1,0l0,8.37z" fill="#59595C" id="svg_170"/>
   <path d="m1130.76,853.72l-8.56,-14.84l17.12,0l-8.56,14.84z" fill="#59595C" id="svg_171"/>
   <path d="m1132.95,515.66l-2.43,0c-0.28,0 -0.54,0.12 -0.72,0.33l-7.15,8.37c-0.31,0.38 -0.3,0.93 0.05,1.28l1.36,1.37c0.37,0.36 0.96,0.36 1.33,0l4.19,-4.14l0,18.15c0,0.51 0.42,0.94 0.94,0.94l2.43,0c0.52,0 0.94,-0.43 0.94,-0.94l0,-24.42c0,-0.52 -0.42,-0.94 -0.94,-0.94z" fill="#FCFDFF" id="svg_173"/>
  </g>
 </g>
</svg>