<?xml version="1.0"?>
<svg width="2000" height="2000" xmlns="http://www.w3.org/2000/svg" xmlns:svg="http://www.w3.org/2000/svg" enable-background="new 0 0 2000 2000" version="1.1" xml:space="preserve">
 <g class="layer">
  <title>Layer 1</title>
  <g id="svg_147">
   <path d="m731.71,871.11c-31.29,0 -56.73,-25.46 -56.73,-56.76l0,-422.7c0,-29.54 24.01,-53.57 53.55,-53.57l134.81,0c50.75,0 92.32,16.12 123.56,47.93c31.08,31.67 46.84,74.99 46.84,128.74c0,53.57 -16.51,96.82 -49.06,128.53c-32.31,31.48 -75,47.44 -126.87,47.44l-69.36,0l0,123.63c0.01,31.3 -25.45,56.76 -56.74,56.76zm124.72,-284.92c22.13,0 37.81,-5.27 47.94,-16.12c10.54,-11.31 15.88,-29.92 15.88,-55.32c0,-25.49 -5.39,-44.28 -16.04,-55.84c-10.1,-10.97 -25.74,-16.31 -47.78,-16.31l-67.97,0l0,143.6l67.97,0l0,-0.01z" fill="#FFFFFF" id="svg_148"/>
   <g id="svg_149">
    <defs>
     <rect height="543.16" id="SVGID_00000129920719385008545940000005199229018913882271_" width="368.78" x="669.98" y="333"/>
    </defs>
    <clipPath id="SVGID_00000036948941718556785790000000631137342422771639_">
     <use href="#SVGID_00000129920719385008545940000005199229018913882271_" id="svg_150" overflow="visible"/>
    </clipPath>
    <g clip-path="url(#SVGID_00000036948941718556785790000000631137342422771639_)" id="svg_151">
     <path d="m863.34,338.08c50.75,0 92.32,16.12 123.56,47.92c31.08,31.68 46.84,75 46.84,128.75c0,53.57 -16.51,96.82 -49.06,128.53c-32.31,31.48 -75,47.44 -126.87,47.44l-69.36,0l0,123.63c0,31.3 -25.45,56.76 -56.74,56.76s-56.73,-25.46 -56.73,-56.76l0,-422.7c0,-29.54 24.01,-53.57 53.54,-53.57l134.82,0m-74.88,248.11l67.97,0c22.13,0 37.81,-5.27 47.94,-16.12c10.54,-11.31 15.89,-29.92 15.89,-55.32c0,-25.49 -5.4,-44.28 -16.05,-55.84c-10.1,-10.97 -25.74,-16.31 -47.78,-16.31l-67.97,0l0,143.59m74.88,-253.11l-134.82,0c-32.27,0 -58.54,26.27 -58.54,58.57l0,422.7c0,34.06 27.69,61.76 61.73,61.76c34.05,0 61.74,-27.7 61.74,-61.76l0,-118.63l64.36,0c53.22,0 97.08,-16.44 130.36,-48.86c33.55,-32.69 50.57,-77.14 50.57,-132.11c0,-55.11 -16.25,-99.61 -48.28,-132.24c-32.21,-32.8 -74.98,-49.43 -127.12,-49.43zm-69.89,114.52l62.98,0c20.57,0 35,4.8 44.11,14.7c9.77,10.61 14.72,28.25 14.72,52.45c0,24.1 -4.89,41.57 -14.54,51.91c-9.14,9.79 -23.62,14.54 -44.29,14.54l-62.98,0l0,-133.6z" id="svg_152"/>
    </g>
   </g>
   <path d="m847.3,641.34l-9.98,0l0,-2.5l9.98,0l0,2.5zm-19.97,0l-9.98,0l0,-2.5l9.98,0l0,2.5zm-19.97,0l-9.99,0l0,-2.5l9.99,0l0,2.5zm-19.97,0l-9.98,0l0,-2.5l9.98,0l0,2.5zm-19.97,0l-9.99,0l0,-2.5l9.99,0l0,2.5zm89.91,-0.11l-0.09,-2.5c3.34,-0.12 6.67,-0.34 9.89,-0.64l0.24,2.48c-3.28,0.32 -6.65,0.53 -10.04,0.66zm20.02,-1.95l-0.4,-2.47c3.28,-0.53 6.54,-1.19 9.7,-1.94l0.57,2.44c-3.21,0.76 -6.53,1.42 -9.87,1.97zm19.58,-4.69l-0.76,-2.38c3.15,-1.01 6.27,-2.16 9.28,-3.41l0.95,2.31c-3.06,1.27 -6.25,2.44 -9.47,3.48zm18.62,-7.74l-1.16,-2.22c2.92,-1.52 5.8,-3.18 8.55,-4.95l1.35,2.11c-2.82,1.8 -5.76,3.5 -8.74,5.06zm16.99,-10.87l-1.53,-1.97c2.58,-2 5.12,-4.14 7.54,-6.37l1.69,1.83c-2.47,2.29 -5.06,4.48 -7.7,6.51zm14.81,-13.68l-1.86,-1.67c2.2,-2.44 4.32,-5 6.28,-7.62l1.99,1.5c-2,2.68 -4.16,5.3 -6.41,7.79zm12.08,-16.15l-2.13,-1.31c1.7,-2.77 3.3,-5.69 4.75,-8.63l2.25,1.1c-1.49,3.02 -3.13,5.99 -4.87,8.84zm8.93,-18.08l-2.33,-0.9c1.18,-3.02 2.25,-6.17 3.19,-9.35l2.4,0.71c-0.97,3.24 -2.06,6.46 -3.26,9.54zm5.76,-19.3l-2.45,-0.53c0.69,-3.17 1.28,-6.45 1.75,-9.75l2.48,0.36c-0.49,3.36 -1.08,6.69 -1.78,9.92zm2.88,-19.92l-2.48,-0.2c0.26,-3.23 0.42,-6.56 0.5,-9.9l2.49,0.05c-0.07,3.39 -0.25,6.77 -0.51,10.05zm-2.03,-20.02c-0.09,-3.35 -0.29,-6.68 -0.56,-9.9l2.48,-0.22c0.29,3.27 0.48,6.65 0.58,10.04l-2.5,0.08zm-1.7,-19.75c-0.49,-3.3 -1.09,-6.58 -1.77,-9.74l2.44,-0.53c0.7,3.22 1.3,6.54 1.79,9.91l-2.46,0.36zm-4.22,-19.32c-0.95,-3.19 -2.01,-6.34 -3.18,-9.36l2.33,-0.9c1.19,3.08 2.28,6.3 3.24,9.54l-2.39,0.72zm-7.12,-18.42c-1.45,-2.96 -3.04,-5.88 -4.72,-8.67l2.13,-1.29c1.72,2.85 3.35,5.83 4.83,8.87l-2.24,1.09zm-10.22,-16.86c-1.95,-2.64 -4.05,-5.21 -6.23,-7.64l1.85,-1.67c2.24,2.49 4.39,5.12 6.39,7.82l-2.01,1.49zm-13.17,-14.68c-2.41,-2.23 -4.95,-4.37 -7.53,-6.36l1.52,-1.98c2.64,2.03 5.24,4.23 7.71,6.51l-1.7,1.83zm-15.62,-12c-2.76,-1.75 -5.65,-3.38 -8.58,-4.87l1.13,-2.23c3,1.53 5.95,3.2 8.78,4.98l-1.33,2.12zm-17.57,-8.93c-3.01,-1.21 -6.15,-2.3 -9.32,-3.26l0.72,-2.39c3.24,0.98 6.45,2.1 9.52,3.33l-0.92,2.32zm-18.89,-5.73c-3.15,-0.69 -6.43,-1.28 -9.73,-1.74l0.34,-2.47c3.37,0.47 6.7,1.07 9.93,1.76l-0.54,2.45zm-19.58,-2.78c-3.22,-0.23 -6.55,-0.36 -9.89,-0.4l0.02,-2.49c3.4,0.03 6.78,0.17 10.05,0.4l-0.18,2.49zm-19.87,-0.41l-9.98,0l0,-2.49l9.98,0l0,2.49zm-19.96,0l-9.99,0l0,-2.49l9.99,0l0,2.49zm-19.98,0l-9.47,0l0,-2.49l9.47,0l0,2.49z" fill="#59595C" id="svg_153"/>
   <path d="m746.57,640.09l17.7,-10.22l0,20.44l-17.7,-10.22z" fill="#59595C" id="svg_154"/>
   <path d="m799.29,401.53l-14.1,0c0.18,-0.34 0.43,-0.69 0.76,-1.04c0.88,-0.99 2.3,-2.29 4.23,-3.87l-0.03,-0.02c0.29,-0.2 0.62,-0.48 0.99,-0.79c2.71,-2.3 4.89,-4.56 6.46,-6.72c1.67,-2.29 2.51,-4.93 2.51,-7.85c0,-2.89 -0.98,-5.24 -2.92,-6.98c-1.91,-1.71 -4.46,-2.57 -7.57,-2.57c-2.19,0 -4.32,0.54 -6.35,1.62c-2.01,1.06 -3.73,2.56 -5.1,4.44c-0.38,0.53 -0.29,1.26 0.21,1.68l2.6,2.24c0.26,0.22 0.59,0.33 0.95,0.29c0.35,-0.04 0.65,-0.22 0.86,-0.5c1.01,-1.35 2.09,-2.39 3.23,-3.07c2.19,-1.33 5.24,-1.33 6.81,0.1c0.76,0.68 1.14,1.58 1.14,2.75c0,1.94 -0.49,3.61 -1.49,5.09c-1.07,1.57 -2.61,3.21 -4.6,4.9c-0.11,0.09 -0.62,0.52 -1.57,1.28c-1.64,1.36 -2.98,2.54 -3.97,3.52c-1.04,1.02 -1.92,2.19 -2.62,3.47c-0.74,1.37 -1.12,2.87 -1.12,4.46l0,2.04c0,0.7 0.56,1.25 1.24,1.25l19.46,0c0.68,0 1.24,-0.55 1.24,-1.25l0,-3.22c0,-0.69 -0.56,-1.25 -1.25,-1.25z" fill="#FCFDFF" id="svg_156"/>
   <path d="m733.37,831.96l-2.5,0l0,-3.68l2.5,0l0,3.68zm0,-13.68l-2.5,0l0,-9.99l2.5,0l0,9.99zm0,-19.97l-2.5,0l0,-9.99l2.5,0l0,9.99zm0,-19.98l-2.5,0l0,-9.99l2.5,0l0,9.99zm0,-19.97l-2.5,0l0,-10l2.5,0l0,10zm0,-19.99l-2.5,0l0,-9.98l2.5,0l0,9.98zm0,-19.97l-2.5,0l0,-9.99l2.5,0l0,9.99zm0,-19.98l-2.5,0l0,-9.98l2.5,0l0,9.98zm0,-19.97l-2.5,0l0,-10l2.5,0l0,10zm0,-19.98l-2.5,0l0,-9.99l2.5,0l0,9.99zm0,-19.98l-2.5,0l0,-9.99l2.5,0l0,9.99zm0,-19.97l-2.5,0l0,-10l2.5,0l0,10zm0,-19.99l-2.5,0l0,-9.98l2.5,0l0,9.98zm0,-19.97l-2.5,0l0,-9.99l2.5,0l0,9.99zm0,-19.97l-2.5,0l0,-9.99l2.5,0l0,9.99zm0,-19.98l-2.5,0l0,-10l2.5,0l0,10zm0,-19.98l-2.5,0l0,-9.99l2.5,0l0,9.99zm0,-19.98l-2.5,0l0,-9.98l2.5,0l0,9.98zm0,-19.97l-2.5,0l0,-9.99l2.5,0l0,9.99zm0,-19.99l-2.5,0l0,-9.98l2.5,0l0,9.98zm0,-19.97l-2.5,0l0,-9.99l2.5,0l0,9.99zm0,-19.97l-2.5,0l0,-9.99l2.5,0l0,9.99z" fill="#59595C" id="svg_157"/>
   <path d="m732.12,843.76l10.22,-17.7l-20.43,0l10.21,17.7z" fill="#59595C" id="svg_158"/>
   <path d="m733.23,372.4l-3.22,0c-0.37,0 -0.72,0.16 -0.96,0.44l-9.48,11.1c-0.43,0.5 -0.4,1.23 0.07,1.69l1.8,1.81c0.49,0.48 1.27,0.48 1.76,0l5.56,-5.49l0,24.06c0,0.68 0.56,1.24 1.25,1.24l3.22,0c0.69,0 1.25,-0.56 1.25,-1.24l0,-32.36c0,-0.7 -0.57,-1.25 -1.25,-1.25z" fill="#FCFDFF" id="svg_160"/>
  </g>
 </g>
</svg>