<?xml version="1.0"?>
<svg width="2000" height="2000" xmlns="http://www.w3.org/2000/svg" xmlns:svg="http://www.w3.org/2000/svg" enable-background="new 0 0 2000 2000" version="1.1" xml:space="preserve">
 <g class="layer" display="inline">
  <title>Layer 1</title>
  <g id="svg_147" transform="matrix(1 0 0 1 0 0)">
   <path d="m1312.13,881.98c-26.44,0 -47.96,-21.49 -47.96,-47.9l0,-82.91c-0.65,0.36 -1.3,0.72 -1.96,1.06c-16.57,8.76 -34.94,13.2 -54.61,13.2c-25.17,0 -48.08,-6.17 -68.09,-18.35c-19.99,-12.17 -35.78,-29.15 -46.93,-50.49c-10.94,-20.9 -16.48,-44.8 -16.48,-71.01c0,-26.54 5.64,-50.69 16.76,-71.79c11.32,-21.49 27.28,-38.55 47.44,-50.7c20.14,-12.15 43.11,-18.31 68.25,-18.31c19.4,0 37.56,4.46 53.99,13.26c2.15,1.15 4.28,2.37 6.36,3.66c6.18,-10.76 17.81,-18.04 31.1,-18.04l4.22,0c19.76,0 35.83,16.06 35.83,35.78l0,259.24c6.5,-5.55 14.75,-8.61 23.31,-8.61c10.43,0 20.32,4.52 27.14,12.4l1.47,1.69c6.25,7.25 9.3,16.48 8.6,26.02c-0.7,9.54 -5.09,18.23 -12.35,24.47l-41.52,35.72c-8.7,7.48 -19.82,11.6 -31.3,11.6l-3.27,0l0,0.01zm-104.53,-324.27c-10.68,0 -19.85,2.58 -28.03,7.88c-8.41,5.44 -14.89,12.99 -19.82,23.07c-5.15,10.53 -7.76,22.96 -7.76,36.92c0,13.63 2.59,25.78 7.71,36.13c4.93,9.95 11.42,17.45 19.86,22.92c8.19,5.3 17.36,7.88 28.04,7.88c11.05,0 20.5,-2.6 28.86,-7.95c8.53,-5.45 15.05,-12.97 19.95,-22.99c5.15,-10.54 7.77,-22.81 7.77,-36.46c0,-13.66 -2.62,-25.92 -7.77,-36.46c-4.91,-10.03 -11.43,-17.55 -19.95,-22.99c-8.37,-5.35 -17.81,-7.95 -28.86,-7.95z" fill="#FFFFFF" id="svg_148"/>
   <g id="svg_149">
    <defs>
     <rect height="407.03" id="SVGID_00000061430963232167175820000012189170847752104118_" width="334.24" x="1071.62" y="479.31"/>
    </defs>
    <clipPath id="SVGID_00000001648070757137499060000011162484776006752946_">
     <use href="#SVGID_00000061430963232167175820000012189170847752104118_" id="svg_150" overflow="visible"/>
    </clipPath>
    <g clip-path="url(#SVGID_00000001648070757137499060000011162484776006752946_)" id="svg_151">
     <path d="m1304.22,483.66c19.76,0 35.83,16.06 35.83,35.78l0,259.24c6.5,-5.55 14.75,-8.61 23.31,-8.61c10.43,0 20.32,4.52 27.14,12.4l1.47,1.69c6.25,7.25 9.3,16.48 8.6,26.02c-0.7,9.54 -5.09,18.23 -12.35,24.47l-41.52,35.72c-8.7,7.48 -19.82,11.6 -31.3,11.6l-3.26,0c-26.45,0 -47.96,-21.48 -47.96,-47.89l0,-82.91c-0.66,0.36 -1.31,0.72 -1.97,1.06c-16.57,8.76 -34.94,13.2 -54.61,13.2c-25.17,0 -48.07,-6.17 -68.09,-18.35c-19.98,-12.17 -35.78,-29.15 -46.93,-50.49c-10.94,-20.91 -16.48,-44.8 -16.48,-71.01c0,-26.54 5.64,-50.69 16.76,-71.79c11.32,-21.49 27.28,-38.55 47.44,-50.7c20.14,-12.15 43.11,-18.31 68.25,-18.31c19.4,0 37.56,4.46 53.99,13.26c2.15,1.15 4.28,2.37 6.36,3.66c6.18,-10.77 17.81,-18.04 31.1,-18.04l4.22,0m-96.62,208.85c11.05,0 20.5,-2.6 28.86,-7.95c8.53,-5.45 15.05,-12.97 19.95,-22.99c5.15,-10.54 7.76,-22.81 7.76,-36.46c0,-13.66 -2.61,-25.92 -7.76,-36.46c-4.91,-10.03 -11.43,-17.55 -19.95,-22.99c-8.37,-5.35 -17.81,-7.95 -28.86,-7.95c-10.68,0 -19.85,2.58 -28.03,7.88c-8.41,5.44 -14.89,12.99 -19.82,23.07c-5.15,10.53 -7.76,22.96 -7.76,36.92c0,13.63 2.59,25.78 7.71,36.12c4.93,9.96 11.42,17.46 19.86,22.93c8.19,5.3 17.36,7.88 28.04,7.88m96.62,-213.2l-4.22,0c-7.2,0 -14.26,1.94 -20.44,5.59c-4.71,2.79 -8.81,6.52 -12.03,10.92c-0.97,-0.55 -1.95,-1.09 -2.93,-1.62c-17.07,-9.14 -35.93,-13.77 -56.05,-13.77c-25.95,0 -49.67,6.37 -70.51,18.94c-20.84,12.56 -37.34,30.19 -49.04,52.39c-11.45,21.73 -17.26,46.56 -17.26,73.82c0,26.93 5.72,51.49 16.98,73.02c11.52,22.05 27.85,39.61 48.52,52.2c20.7,12.6 44.38,18.98 70.36,18.98c18.65,0 36.19,-3.86 52.21,-11.48l0,75.78c0,28.81 23.47,52.24 52.32,52.24l3.27,0c12.53,0 24.65,-4.49 34.13,-12.65l41.54,-35.73c8.14,-6.99 13.05,-16.74 13.85,-27.44c0.78,-10.69 -2.64,-21.06 -9.66,-29.17l-1.47,-1.71c-7.64,-8.84 -18.73,-13.91 -30.43,-13.91c-6.65,0 -13.16,1.66 -18.95,4.75l0,-251.01c0,-22.13 -18.02,-40.14 -40.19,-40.14zm-96.62,208.84c-9.81,0 -18.21,-2.34 -25.66,-7.17c-7.77,-5.03 -13.77,-11.97 -18.33,-21.2c-4.82,-9.74 -7.27,-21.25 -7.27,-34.2c0,-13.3 2.46,-25.07 7.32,-35.01c4.58,-9.35 10.56,-16.33 18.28,-21.33c7.46,-4.83 15.85,-7.18 25.66,-7.18c10.19,0 18.86,2.38 26.52,7.27c7.82,4.99 13.83,11.94 18.37,21.23c4.86,9.94 7.33,21.56 7.33,34.55s-2.47,24.61 -7.33,34.55c-4.54,9.29 -10.55,16.24 -18.37,21.23c-7.66,4.88 -16.32,7.26 -26.52,7.26z" id="svg_152"/>
    </g>
   </g>
   <path d="m1301.82,533.64l2.18,0l0,4.35l-2.18,0l0,-4.35z" fill="#59595C" id="svg_153"/>
   <path d="m1304,842.27l-2.18,0l0,-8.95l2.18,0l0,8.95zm0,-17.9l-2.18,0l0,-8.95l2.18,0l0,8.95zm0,-17.9l-2.18,0l0,-8.95l2.18,0l0,8.95zm0,-17.89l-2.18,0l0,-8.96l2.18,0l0,8.96zm0,-17.91l-2.18,0l0,-8.94l2.18,0l0,8.94zm0,-17.89l-2.18,0l0,-8.95l2.18,0l0,8.95zm0,-17.9l-2.18,0l0,-8.95l2.18,0l0,8.95zm0,-17.9l-2.18,0l0,-8.95l2.18,0l0,8.95zm0,-17.9l-2.18,0l0,-8.95l2.18,0l0,8.95zm0,-17.9l-2.18,0l0,-8.94l2.18,0l0,8.94zm0,-17.9l-2.18,0l0,-8.95l2.18,0l0,8.95zm0,-17.89l-2.18,0l0,-8.95l2.18,0l0,8.95zm0,-17.91l-2.18,0l0,-8.94l2.18,0l0,8.94zm0,-17.89l-2.18,0l0,-8.95l2.18,0l0,8.95zm0,-17.9l-2.18,0l0,-8.95l2.18,0l0,8.95zm0,-17.9l-2.18,0l0,-8.95l2.18,0l0,8.95zm0,-17.9l-2.18,0l0,-8.95l2.18,0l0,8.95z" fill="#59595C" id="svg_154"/>
   <path d="m1301.82,857.81l0,-6.6l2.18,0l0,2.12l1.67,-1.3l1.34,1.71l-5.19,4.07z" fill="#59595C" id="svg_155"/>
   <path d="m1313.29,848.8l-1.35,-1.71l6.28,-4.94l1.34,1.71l-6.27,4.94zm12.56,-9.87l-1.36,-1.71l6.28,-4.93l1.35,1.71l-6.27,4.93zm12.54,-9.87l-1.34,-1.71l6.27,-4.93l1.35,1.71l-6.28,4.93zm12.55,-9.86l-1.34,-1.71l6.27,-4.94l1.36,1.71l-6.29,4.94z" fill="#59595C" id="svg_156"/>
   <path d="m1362.15,807.62l3.43,-2.7l1.35,1.71l-3.42,2.7l-1.36,-1.71z" fill="#59595C" id="svg_157"/>
   <path d="m1370.77,813.4l-11.48,-13.64l17.57,-3.11l-6.09,16.75z" fill="#59595C" id="svg_158"/>
   <path d="m1207.52,729.67l0,-2.17c2.87,-0.01 5.77,-0.13 8.61,-0.38l0.18,2.17c-2.89,0.25 -5.85,0.38 -8.79,0.38zm-8.79,-0.31c-2.97,-0.23 -5.91,-0.59 -8.75,-1.06l0.35,-2.15c2.78,0.47 5.66,0.81 8.56,1.03l-0.16,2.18zm26.32,-1.2l-0.38,-2.15c2.84,-0.49 5.66,-1.12 8.4,-1.86l0.57,2.1c-2.8,0.75 -5.69,1.4 -8.59,1.91zm-43.69,-1.72c-2.85,-0.76 -5.67,-1.67 -8.4,-2.71l0.78,-2.03c2.65,1.01 5.4,1.9 8.18,2.64l-0.56,2.1zm60.67,-2.89l-0.77,-2.03c2.7,-1.02 5.36,-2.16 7.9,-3.41l0.96,1.95c-2.6,1.28 -5.33,2.46 -8.09,3.49zm-77.15,-3.37c-2.06,-1.04 -4.13,-2.18 -6.13,-3.39c-0.51,-0.31 -1.03,-0.64 -1.54,-0.96l1.17,-1.84c0.49,0.32 1,0.63 1.51,0.94c1.95,1.18 3.96,2.3 5.98,3.31l-0.99,1.94zm92.94,-4.43l-1.16,-1.84c2.43,-1.52 4.79,-3.19 7.02,-4.95l1.35,1.71c-2.29,1.81 -4.71,3.51 -7.21,5.08zm-107.82,-4.99c-2.32,-1.8 -4.57,-3.74 -6.68,-5.76l1.51,-1.57c2.06,1.97 4.25,3.86 6.51,5.62l-1.34,1.71zm121.64,-5.94l-1.53,-1.55c2.03,-2.01 3.96,-4.16 5.75,-6.38l1.7,1.36c-1.84,2.29 -3.83,4.5 -5.92,6.57zm-134.37,-6.22c-1.88,-2.2 -3.7,-4.54 -5.4,-6.96l1.79,-1.25c1.66,2.36 3.43,4.65 5.27,6.8l-1.66,1.41zm145.43,-7.51l-1.84,-1.17c1.53,-2.39 2.94,-4.9 4.21,-7.48l1.96,0.97c-1.31,2.63 -2.76,5.23 -4.33,7.68zm-155.56,-6.87c-0.76,-1.33 -1.53,-2.72 -2.25,-4.11c-0.63,-1.21 -1.25,-2.44 -1.83,-3.68l1.97,-0.93c0.58,1.22 1.17,2.42 1.79,3.61c0.71,1.36 1.46,2.71 2.21,4.02l-1.89,1.09zm-7.49,-15.89c-1.01,-2.71 -1.93,-5.52 -2.73,-8.35l2.09,-0.6c0.79,2.78 1.69,5.54 2.68,8.19l-2.04,0.76zm-4.81,-16.88c-0.57,-2.83 -1.06,-5.74 -1.44,-8.67l2.16,-0.28c0.38,2.88 0.85,5.74 1.42,8.51l-2.14,0.44zm-2.29,-17.4c-0.19,-2.87 -0.3,-5.81 -0.31,-8.76l2.18,-0.01c0.01,2.9 0.11,5.81 0.3,8.63l-2.17,0.14zm2.08,-17.41l-2.17,-0.12c0.16,-2.95 0.43,-5.89 0.78,-8.73l2.16,0.26c-0.35,2.81 -0.6,5.69 -0.77,8.59zm2.13,-17.11l-2.13,-0.43c0.57,-2.89 1.25,-5.77 2.02,-8.54l2.1,0.58c-0.76,2.73 -1.42,5.55 -1.99,8.39zm4.64,-16.59l-2.04,-0.76c1.02,-2.75 2.16,-5.48 3.39,-8.11l1.97,0.93c-1.2,2.57 -2.32,5.24 -3.32,7.94zm7.32,-15.57l-1.88,-1.09c1.48,-2.58 3.07,-5.08 4.72,-7.43l1.79,1.25c-1.62,2.3 -3.17,4.75 -4.63,7.27zm9.89,-14.08l-1.65,-1.4c1.91,-2.24 3.94,-4.4 6.05,-6.42l1.5,1.57c-2.05,1.97 -4.04,4.07 -5.9,6.25zm12.4,-11.88l-1.34,-1.71c2.28,-1.79 4.69,-3.5 7.19,-5.09l1.17,1.83c-2.43,1.56 -4.8,3.23 -7.02,4.97zm104.44,-2.97c-2.45,-1.63 -4.92,-3.16 -7.35,-4.52l1.08,-1.89c2.47,1.39 4.98,2.94 7.48,4.61l-1.21,1.8zm-89.95,-6.28l-0.99,-1.93c2.62,-1.34 5.33,-2.54 8.05,-3.6l0.79,2.04c-2.66,1.02 -5.3,2.2 -7.85,3.49zm74.93,-2.15c-2.65,-1.19 -5.34,-2.26 -8,-3.15l0.7,-2.07c2.73,0.93 5.49,2.01 8.2,3.24l-0.9,1.98zm-58.91,-4.03l-0.57,-2.09c2.79,-0.76 5.68,-1.4 8.61,-1.91l0.36,2.15c-2.84,0.49 -5.68,1.11 -8.4,1.85zm42.64,-1.44c-2.79,-0.61 -5.65,-1.08 -8.48,-1.38l0.23,-2.17c2.92,0.32 5.85,0.8 8.72,1.43l-0.47,2.12zm-25.69,-1.47l-0.17,-2.17c2.85,-0.23 5.81,-0.36 8.79,-0.36l0.01,2.18c-2.93,0.01 -5.83,0.12 -8.63,0.35z" fill="#59595C" id="svg_159"/>
   <path d="m1291.33,690.61l0,-17.81l-15.45,8.9l15.45,8.91z" fill="#59595C" id="svg_160"/>
   <path d="m1257.74,523.9l-2.53,0c-0.29,0 -0.56,0.13 -0.75,0.34l-7.45,8.71c-0.34,0.39 -0.31,0.97 0.05,1.34l1.42,1.4c0.38,0.38 0.99,0.38 1.38,0.01l4.37,-4.31l0,18.87c0,0.54 0.44,0.98 0.98,0.98l2.53,0c0.54,0 0.98,-0.44 0.98,-0.98l0,-25.38c0,-0.54 -0.44,-0.98 -0.98,-0.98z" fill="#FCFDFF" id="svg_162"/>
   <path d="m1309.51,534.69l-11.08,0c0.14,-0.27 0.34,-0.55 0.59,-0.82c0.7,-0.78 1.81,-1.8 3.33,-3.03l-0.02,-0.02c0.23,-0.16 0.48,-0.37 0.77,-0.62c2.14,-1.8 3.85,-3.58 5.08,-5.27c1.3,-1.8 1.98,-3.88 1.98,-6.16c0,-2.27 -0.78,-4.11 -2.3,-5.48c-1.5,-1.33 -3.51,-2.02 -5.95,-2.02c-1.72,0 -3.4,0.44 -4.99,1.27c-1.58,0.84 -2.93,2.02 -4,3.49c-0.31,0.42 -0.24,0.99 0.15,1.33l2.05,1.75c0.2,0.17 0.47,0.26 0.75,0.22c0.27,-0.02 0.51,-0.16 0.67,-0.39c0.79,-1.05 1.65,-1.86 2.55,-2.4c1.71,-1.05 4.11,-1.04 5.34,0.07c0.61,0.55 0.89,1.25 0.89,2.16c0,1.53 -0.38,2.83 -1.17,3.99c-0.83,1.23 -2.04,2.52 -3.61,3.84c-0.08,0.08 -0.49,0.41 -1.23,1.02c-1.28,1.06 -2.34,1.98 -3.13,2.75c-0.81,0.8 -1.5,1.72 -2.05,2.72c-0.58,1.08 -0.88,2.25 -0.88,3.51l0,1.6c0,0.53 0.44,0.97 0.98,0.97l15.28,0c0.54,0 0.98,-0.44 0.98,-0.97l0,-2.54c0,-0.53 -0.44,-0.97 -0.98,-0.97z" fill="#FCFDFF" id="svg_164"/>
  </g>
 </g>
</svg>