<?xml version="1.0"?>
<svg width="2000" height="2000" xmlns="http://www.w3.org/2000/svg" xmlns:svg="http://www.w3.org/2000/svg" enable-background="new 0 0 2000 2000" version="1.1" xml:space="preserve">
 <g class="layer">
  <title>Layer 1</title>
  <g id="svg_147">
   <path d="m972.91,881.49c-13.89,0 -26.96,-5.4 -36.78,-15.22l-10.15,-10.14c-31.01,16.58 -65.45,24.97 -102.57,24.97c-45.33,0 -86.42,-12.39 -122.16,-36.8c-35.14,-24.01 -62.9,-57.6 -82.48,-99.84c-19.09,-41.22 -28.77,-88.32 -28.77,-140c0,-51.66 9.66,-98.86 28.74,-140.29c19.57,-42.47 47.33,-76.21 82.51,-100.25c35.74,-24.42 76.84,-36.81 122.16,-36.81c45.31,0 86.4,12.39 122.15,36.81c35.19,24.05 62.95,57.78 82.51,100.25c19.08,41.41 28.75,88.84 28.75,140.98c0,40.6 -6.16,78.76 -18.32,113.42c-8.82,25.12 -20.48,48.06 -34.75,68.37l5.63,5.54c10.05,9.86 15.57,23.05 15.55,37.13c-0.01,14.07 -5.58,27.24 -15.66,37.08c-9.78,9.55 -22.69,14.8 -36.35,14.8c-0.01,0 -0.01,0 -0.01,0zm-149.5,-445.79c-21.94,0 -41.11,6.35 -58.62,19.42c-18.28,13.66 -32.96,33.33 -43.64,58.48c-11.22,26.41 -16.91,56.98 -16.91,90.86c0,33.85 5.68,64.28 16.88,90.43c10.64,24.89 25.28,44.32 43.51,57.75c17.52,12.91 36.75,19.19 58.78,19.19c5.38,0 10.57,-0.38 15.62,-1.16l-10.02,-10.01c-20.29,-20.25 -20.29,-53.22 0,-73.48l0.56,-0.55c9.83,-9.83 22.89,-15.24 36.79,-15.24c13.78,0 26.77,5.33 36.58,15.01l18.15,17.93c4.01,-8.12 7.54,-16.88 10.56,-26.17c7.26,-22.36 10.93,-47.15 10.93,-73.71c0,-33.86 -5.69,-64.43 -16.9,-90.85c-10.69,-25.15 -25.37,-44.83 -43.65,-58.48c-17.51,-13.07 -36.69,-19.42 -58.62,-19.42z" fill="#FFFFFF" id="svg_165"/>
   <g id="svg_166">
    <defs>
     <rect height="564.49" id="SVGID_00000100383243643050258670000016169479617678169782_" width="476.85" x="585" y="322.06"/>
    </defs>
    <clipPath id="SVGID_00000179629678497379635760000000565112279709983149_">
     <use href="#SVGID_00000100383243643050258670000016169479617678169782_" id="svg_167" overflow="visible"/>
    </clipPath>
    <g clip-path="url(#SVGID_00000179629678497379635760000000565112279709983149_)" id="svg_168">
     <path d="m823.41,327.11c45.31,0 86.4,12.39 122.15,36.81c35.19,24.05 62.95,57.78 82.51,100.25c19.08,41.41 28.75,88.84 28.75,140.98c0,40.6 -6.16,78.76 -18.32,113.42c-8.82,25.12 -20.48,48.06 -34.75,68.37l5.63,5.54c10.05,9.86 15.57,23.05 15.55,37.13c-0.01,14.07 -5.58,27.24 -15.66,37.08c-9.78,9.55 -22.69,14.8 -36.35,14.8c-0.01,0 -0.01,0 -0.01,0c-13.9,0 -26.96,-5.4 -36.78,-15.22l-10.15,-10.13c-31.01,16.57 -65.45,24.96 -102.57,24.96c-45.33,0 -86.43,-12.38 -122.16,-36.8c-35.15,-24.01 -62.9,-57.6 -82.48,-99.84c-19.09,-41.21 -28.77,-88.32 -28.77,-140c0,-51.66 9.66,-98.86 28.74,-140.29c19.57,-42.47 47.33,-76.21 82.51,-100.25c35.74,-24.42 76.84,-36.81 122.16,-36.81m0,444.72c5.37,0 10.57,-0.38 15.62,-1.16l-10.02,-10.01c-20.29,-20.25 -20.29,-53.22 0,-73.49l0.56,-0.54c9.83,-9.83 22.89,-15.24 36.79,-15.24c13.78,0 26.77,5.33 36.58,15.01l18.15,17.93c4,-8.13 7.54,-16.88 10.56,-26.18c7.25,-22.35 10.93,-47.14 10.93,-73.7c0,-33.86 -5.69,-64.43 -16.91,-90.85c-10.68,-25.16 -25.37,-44.83 -43.64,-58.48c-17.51,-13.07 -36.69,-19.42 -58.62,-19.42c-21.94,0 -41.11,6.35 -58.62,19.42c-18.28,13.66 -32.96,33.33 -43.64,58.48c-11.22,26.41 -16.91,56.98 -16.91,90.85c0,33.86 5.68,64.29 16.88,90.43c10.64,24.9 25.28,44.33 43.51,57.76c17.52,12.91 36.75,19.19 58.78,19.19m0,-449.71c-46.34,0 -88.39,12.68 -124.98,37.68c-35.94,24.57 -64.28,58.98 -84.23,102.29c-19.37,42.08 -29.2,89.97 -29.2,142.37c0,52.4 9.83,100.22 29.24,142.1c19.96,43.06 48.28,77.33 84.19,101.86c36.58,25 78.63,37.67 124.98,37.67c36.6,0 70.77,-8.01 101.64,-23.84l7.54,7.55c10.77,10.75 25.09,16.68 40.32,16.68c14.99,0 29.14,-5.76 39.85,-16.23c11.05,-10.77 17.15,-25.21 17.17,-40.64s-6.03,-29.88 -17.04,-40.69l-2.64,-2.6c13.44,-19.8 24.52,-42.01 32.96,-66.09c12.35,-35.21 18.61,-73.92 18.61,-115.08c0,-52.86 -9.82,-100.99 -29.21,-143.06c-19.94,-43.3 -48.28,-77.72 -84.23,-102.29c-36.59,-25 -78.64,-37.68 -124.97,-37.68zm0,444.72c-20.92,0 -39.18,-5.96 -55.81,-18.22c-17.51,-12.9 -31.61,-31.63 -41.9,-55.7c-10.92,-25.53 -16.47,-55.29 -16.47,-88.46c0,-33.21 5.56,-63.13 16.51,-88.91c10.33,-24.33 24.48,-43.31 42.05,-56.43c16.61,-12.4 34.81,-18.43 55.62,-18.43c20.82,0 39.02,6.03 55.63,18.42c17.55,13.12 31.69,32.11 42.03,56.44c10.96,25.8 16.51,55.71 16.51,88.91c0,26.03 -3.59,50.31 -10.68,72.16c-2.18,6.67 -4.63,13.1 -7.34,19.19l-13.11,-12.95c-10.75,-10.61 -24.98,-16.46 -40.09,-16.46c-15.23,0 -29.55,5.94 -40.33,16.7l-0.56,0.56c-10.74,10.73 -16.67,25.03 -16.67,40.26c0,15.23 5.93,29.53 16.68,40.27l2.55,2.54c-1.54,0.07 -3.07,0.11 -4.62,0.11z" id="svg_169"/>
    </g>
   </g>
   <path d="m976.93,834.52l-7.09,-7.02l1.75,-1.77l7.1,7.02l-1.76,1.77zm-14.19,-14.04l-7.09,-7.03l1.75,-1.77l7.1,7.02l-1.76,1.78zm-14.19,-14.06l-7.09,-7.03l1.75,-1.77l7.1,7.02l-1.76,1.78zm-14.19,-14.05l-7.1,-7.03l1.76,-1.77l7.1,7.02l-1.76,1.78zm-14.2,-14.05l-7.09,-7.03l1.76,-1.77l7.09,7.02l-1.76,1.78zm-14.18,-14.05l-7.1,-7.03l1.76,-1.77l7.09,7.02l-1.75,1.78zm-14.19,-14.05l-7.1,-7.03l1.76,-1.77l7.09,7.02l-1.75,1.78zm-14.2,-14.06l-7.1,-7.03l1.77,-1.77l7.09,7.03l-1.76,1.77z" fill="#59595C" id="svg_170"/>
   <path d="m826.63,828.92l-0.05,-2.49c3.32,-0.07 6.65,-0.23 9.91,-0.48l0.19,2.49c-3.3,0.25 -6.69,0.41 -10.05,0.48zm-10.06,-0.1c-3.37,-0.14 -6.75,-0.37 -10.05,-0.69l0.25,-2.49c3.25,0.32 6.58,0.55 9.89,0.68l-0.09,2.5zm30.13,-1.46l-0.34,-2.47c3.27,-0.45 6.56,-1.02 9.76,-1.68l0.5,2.45c-3.26,0.66 -6.6,1.24 -9.92,1.7zm-50.15,-0.53c-3.31,-0.55 -6.64,-1.19 -9.88,-1.93l0.56,-2.44c3.19,0.74 6.46,1.37 9.72,1.91l-0.4,2.46zm69.87,-3.51l-0.66,-2.4c3.18,-0.88 6.36,-1.86 9.46,-2.94l0.82,2.36c-3.16,1.09 -6.39,2.09 -9.62,2.98zm-89.48,-0.99c-3.21,-0.96 -6.42,-2.03 -9.55,-3.2l0.88,-2.34c3.07,1.15 6.23,2.21 9.38,3.15l-0.71,2.39zm108.5,-5.6l-0.97,-2.3c3.01,-1.28 6.04,-2.68 8.98,-4.16l1.13,2.23c-2.99,1.51 -6.07,2.93 -9.14,4.23zm-127.36,-1.44c-3.04,-1.37 -6.08,-2.87 -9.03,-4.45l1.17,-2.19c2.91,1.55 5.9,3.02 8.89,4.37l-1.03,2.27zm145.33,-7.61l-1.27,-2.15c2.81,-1.66 5.63,-3.44 8.37,-5.29l1.4,2.06c-2.78,1.88 -5.64,3.69 -8.5,5.38zm-163.09,-1.87c-2.82,-1.75 -5.64,-3.63 -8.38,-5.57l1.45,-2.03c2.69,1.91 5.47,3.76 8.25,5.48l-1.32,2.12zm179.74,-9.41l-1.53,-1.97c2.6,-2.01 5.19,-4.12 7.68,-6.28l1.63,1.88c-2.53,2.2 -5.14,4.33 -7.78,6.37zm-196.14,-2.24c-2.59,-2.09 -5.17,-4.28 -7.65,-6.53l1.67,-1.85c2.45,2.22 4.99,4.38 7.55,6.44l-1.57,1.94zm211.33,-10.93l-1.75,-1.79c2.35,-2.28 4.67,-4.67 6.9,-7.11l1.85,1.69c-2.27,2.47 -4.63,4.9 -7,7.21zm-226.23,-2.57c-2.33,-2.37 -4.64,-4.84 -6.86,-7.36l1.88,-1.65c2.18,2.49 4.46,4.93 6.75,7.26l-1.77,1.75zm239.81,-12.22l-1.93,-1.59c2.08,-2.52 4.13,-5.15 6.09,-7.81l2.01,1.47c-1.99,2.7 -4.07,5.37 -6.17,7.93zm-253.1,-2.87c-2.05,-2.6 -4.08,-5.31 -6.01,-8.06l2.04,-1.44c1.91,2.71 3.91,5.39 5.94,7.96l-1.97,1.54zm265.02,-13.28l-2.09,-1.38c1.81,-2.73 3.59,-5.55 5.28,-8.4l2.14,1.27c-1.71,2.88 -3.5,5.75 -5.33,8.51zm-276.62,-3.13c-1.78,-2.79 -3.52,-5.68 -5.18,-8.61l2.17,-1.23c1.64,2.89 3.37,5.75 5.12,8.51l-2.11,1.33zm286.88,-14.12l-2.2,-1.18c1.54,-2.88 3.05,-5.86 4.48,-8.86l2.25,1.08c-1.45,3.03 -2.97,6.04 -4.53,8.96zm-296.83,-3.32c-1.5,-2.94 -2.97,-5.97 -4.37,-9.02l2.28,-1.05c1.38,3.03 2.84,6.04 4.32,8.94l-2.23,1.13zm305.5,-14.78l-2.3,-0.98c1.29,-3.01 2.54,-6.11 3.71,-9.2l2.33,0.88c-1.18,3.12 -2.44,6.26 -3.74,9.3zm-313.85,-3.46c-1.26,-3.06 -2.46,-6.22 -3.6,-9.37l2.35,-0.84c1.12,3.12 2.32,6.23 3.56,9.28l-2.31,0.93zm320.94,-15.29l-2.37,-0.79c1.03,-3.1 2.02,-6.29 2.94,-9.47l2.4,0.68c-0.92,3.22 -1.92,6.44 -2.97,9.58zm-327.75,-3.58c-1,-3.16 -1.95,-6.4 -2.83,-9.63l2.4,-0.66c0.88,3.2 1.82,6.4 2.81,9.54l-2.38,0.75zm333.31,-15.68l-2.43,-0.59c0.79,-3.17 1.52,-6.43 2.2,-9.68l2.45,0.51c-0.69,3.27 -1.43,6.56 -2.22,9.76zm-338.6,-3.68c-0.75,-3.22 -1.47,-6.52 -2.11,-9.81l2.46,-0.48c0.63,3.26 1.33,6.53 2.08,9.73l-2.43,0.56zm342.68,-15.93l-2.46,-0.42c0.55,-3.23 1.06,-6.53 1.51,-9.82l2.47,0.34c-0.45,3.31 -0.96,6.65 -1.52,9.9zm-346.54,-3.75c-0.51,-3.27 -0.99,-6.61 -1.4,-9.94l2.47,-0.3c0.41,3.29 0.88,6.61 1.4,9.85l-2.47,0.39zm349.25,-16.1l-2.48,-0.26c0.34,-3.25 0.62,-6.59 0.86,-9.9l2.49,0.18c-0.24,3.34 -0.53,6.7 -0.87,9.98zm-351.74,-3.79c-0.31,-3.29 -0.56,-6.65 -0.77,-9.99l2.49,-0.15c0.21,3.31 0.46,6.65 0.77,9.91l-2.49,0.23zm353.18,-16.2l-2.5,-0.1c0.14,-3.27 0.22,-6.61 0.27,-9.93l2.49,0.03c-0.04,3.34 -0.13,6.71 -0.26,10zm-354.42,-3.8c-0.1,-3.29 -0.16,-6.66 -0.17,-10.01l2.5,-0.01c0,3.33 0.07,6.67 0.17,9.94l-2.5,0.08zm352.18,-16.17c-0.06,-3.32 -0.15,-6.67 -0.3,-9.95l2.5,-0.1c0.14,3.3 0.24,6.67 0.3,10.01l-2.5,0.04zm-349.75,-3.79l-2.5,-0.07c0.08,-3.35 0.21,-6.71 0.39,-10l2.49,0.13c-0.17,3.27 -0.3,6.61 -0.38,9.94zm348.87,-16.08c-0.24,-3.31 -0.53,-6.64 -0.87,-9.9l2.48,-0.26c0.34,3.29 0.64,6.65 0.88,9.98l-2.49,0.18zm-347.8,-3.78l-2.49,-0.21c0.29,-3.33 0.62,-6.68 1.01,-9.96l2.48,0.29c-0.39,3.25 -0.72,6.58 -1,9.88zm345.74,-15.99c-0.46,-3.3 -0.96,-6.6 -1.52,-9.83l2.46,-0.42c0.56,3.26 1.08,6.59 1.53,9.91l-2.47,0.34zm-343.43,-3.74l-2.47,-0.38c0.5,-3.3 1.05,-6.63 1.66,-9.87l2.45,0.45c-0.6,3.23 -1.15,6.52 -1.64,9.8zm340.06,-15.86c-0.67,-3.25 -1.42,-6.5 -2.2,-9.7l2.43,-0.59c0.79,3.21 1.53,6.51 2.22,9.78l-2.45,0.51zm-336.44,-3.66l-2.44,-0.55c0.73,-3.27 1.52,-6.54 2.35,-9.74l2.43,0.64c-0.83,3.16 -1.62,6.4 -2.34,9.65zm331.69,-15.64c-0.91,-3.2 -1.9,-6.39 -2.92,-9.5l2.38,-0.78c1.03,3.14 2.02,6.37 2.95,9.59l-2.41,0.69zm-326.67,-3.57l-2.39,-0.72c0.97,-3.2 2.01,-6.41 3.09,-9.54l2.36,0.82c-1.07,3.09 -2.1,6.27 -3.06,9.44zm320.46,-15.31c-1.16,-3.1 -2.4,-6.2 -3.67,-9.22l2.3,-0.98c1.29,3.06 2.54,6.19 3.71,9.34l-2.34,0.86zm-313.97,-3.44l-2.32,-0.91c1.08,-2.75 2.22,-5.51 3.39,-8.2l0.46,-1.06l2.29,1.01l-0.46,1.04c-1.16,2.66 -2.29,5.4 -3.36,8.12zm306.25,-14.85c-1.43,-3 -2.92,-5.99 -4.45,-8.87l2.22,-1.17c1.54,2.92 3.05,5.94 4.48,8.98l-2.25,1.06zm-298.24,-3.31l-2.24,-1.1c1.49,-3.02 3.04,-6.01 4.63,-8.9l2.19,1.2c-1.57,2.86 -3.11,5.82 -4.58,8.8zm288.98,-14.24c-1.68,-2.86 -3.45,-5.7 -5.23,-8.43l2.08,-1.37c1.81,2.77 3.59,5.64 5.3,8.54l-2.15,1.26zm-279.43,-3.15l-2.13,-1.3c1.75,-2.87 3.58,-5.71 5.45,-8.44l2.06,1.4c-1.84,2.7 -3.64,5.5 -5.38,8.34zm268.55,-13.45c-1.95,-2.68 -3.99,-5.32 -6.05,-7.86l1.94,-1.57c2.09,2.57 4.15,5.25 6.13,7.96l-2.02,1.47zm-257.38,-2.94l-1.99,-1.51c2.03,-2.67 4.14,-5.31 6.28,-7.84l1.91,1.62c-2.12,2.49 -4.2,5.09 -6.2,7.73zm244.87,-12.44c-2.22,-2.45 -4.54,-4.85 -6.87,-7.15l1.75,-1.78c2.37,2.33 4.72,4.77 6.97,7.25l-1.85,1.68zm-232.07,-2.67l-1.81,-1.72c2.3,-2.43 4.7,-4.82 7.11,-7.1l1.72,1.82c-2.38,2.24 -4.74,4.6 -7.02,7zm217.92,-11.23c-2.48,-2.17 -5.05,-4.29 -7.64,-6.3l1.53,-1.97c2.63,2.04 5.24,4.19 7.76,6.4l-1.65,1.87zm-203.5,-2.36l-1.6,-1.91c2.56,-2.14 5.22,-4.24 7.9,-6.22l1.49,2c-2.64,1.96 -5.26,4.02 -7.79,6.13zm187.84,-9.78c-2.73,-1.86 -5.54,-3.65 -8.35,-5.32l1.27,-2.14c2.87,1.69 5.72,3.51 8.5,5.41l-1.42,2.05zm-171.92,-2l-1.36,-2.1c2.81,-1.82 5.71,-3.57 8.61,-5.2l1.22,2.18c-2.85,1.6 -5.7,3.32 -8.47,5.12zm154.89,-8.09c-2.94,-1.49 -5.95,-2.9 -8.98,-4.19l0.98,-2.29c3.08,1.31 6.15,2.74 9.13,4.26l-1.13,2.22zm-137.63,-1.6l-1.07,-2.25c3.01,-1.44 6.12,-2.8 9.22,-4.03l0.93,2.31c-3.05,1.22 -6.11,2.56 -9.08,3.97zm119.42,-6.17c-0.95,-0.33 -1.91,-0.65 -2.87,-0.97l0.78,-2.36c0.98,0.31 1.94,0.64 2.91,0.98l-0.82,2.35zm-101.03,-1.15l-0.76,-2.37c3.17,-1.02 6.42,-1.96 9.67,-2.77l0.62,2.41c-3.2,0.81 -6.41,1.73 -9.53,2.73zm19.21,-4.82l-0.45,-2.46c3.27,-0.6 6.62,-1.1 9.96,-1.5l0.3,2.48c-3.29,0.39 -6.59,0.89 -9.81,1.48zm19.69,-2.35l-0.15,-2.49c3.31,-0.19 6.69,-0.29 10.06,-0.29l0,2.5c-3.32,0 -6.66,0.09 -9.91,0.28z" fill="#59595C" id="svg_171"/>
   <path d="m875.23,399.52l7.48,-19l-20.22,3.03l12.74,15.97z" fill="#59595C" id="svg_172"/>
   <path d="m827.89,364.58l-3.23,0c-0.37,0 -0.71,0.16 -0.95,0.44l-9.49,11.1c-0.43,0.49 -0.4,1.23 0.07,1.69l1.8,1.81c0.49,0.48 1.27,0.48 1.75,0l5.57,-5.49l0,24.04c0,0.68 0.56,1.24 1.25,1.24l3.23,0c0.68,0 1.24,-0.56 1.24,-1.24l0,-32.33c0,-0.69 -0.56,-1.26 -1.24,-1.26z" fill="#FCFDFF" id="svg_174"/>
   <path d="m988.3,843.81l-4.47,-19.92l-15.04,13.82l19.51,6.1z" fill="#59595C" id="svg_175"/>
   <path d="m878.39,735.21l-14.12,0c0.19,-0.34 0.44,-0.68 0.76,-1.04c0.89,-0.98 2.31,-2.27 4.24,-3.85l-0.03,-0.03c0.29,-0.2 0.62,-0.48 0.98,-0.79c2.73,-2.3 4.9,-4.56 6.47,-6.71c1.67,-2.29 2.52,-4.93 2.52,-7.85c0,-2.88 -0.99,-5.23 -2.93,-6.97c-1.9,-1.71 -4.46,-2.57 -7.57,-2.57c-2.19,0 -4.33,0.55 -6.36,1.61c-2,1.06 -3.72,2.56 -5.1,4.44c-0.38,0.54 -0.29,1.27 0.21,1.69l2.6,2.23c0.27,0.22 0.6,0.33 0.95,0.29c0.35,-0.04 0.66,-0.22 0.86,-0.49c1.01,-1.36 2.1,-2.38 3.24,-3.07c2.19,-1.33 5.24,-1.33 6.81,0.09c0.77,0.69 1.13,1.59 1.13,2.75c0,1.95 -0.48,3.61 -1.49,5.09c-1.06,1.56 -2.6,3.2 -4.59,4.89c-0.11,0.1 -0.62,0.52 -1.58,1.29c-1.63,1.34 -2.97,2.53 -3.97,3.51c-1.03,1.02 -1.91,2.18 -2.62,3.47c-0.74,1.37 -1.12,2.87 -1.12,4.45l0,2.05c0,0.69 0.56,1.24 1.25,1.24l19.46,0c0.68,0 1.25,-0.55 1.25,-1.24l0,-3.23c0,-0.69 -0.56,-1.25 -1.25,-1.25z" fill="#FCFDFF" id="svg_177"/>
  </g>
 </g>
</svg>