<?xml version="1.0"?>
<svg width="2000" height="2000" xmlns="http://www.w3.org/2000/svg" xmlns:svg="http://www.w3.org/2000/svg" enable-background="new 0 0 2000 2000" version="1.1" xml:space="preserve">
 <g class="layer">
  <title>Layer 1</title>
  <g id="svg_147">
   <path d="m1132.6,886.13c-29.57,0 -53.62,-24.1 -53.62,-53.71l0,-304.15c0,-29.61 24.05,-53.7 53.62,-53.7l6.33,0c20.37,0 38.12,11.44 47.19,28.22c23.42,-14.1 50.12,-21.68 77.23,-21.68c16.97,0 33.4,3.01 48.84,8.96l0.81,0.3l7.89,4.05c12.9,6.62 22.39,17.89 26.73,31.75c4.33,13.86 2.96,28.55 -3.88,41.35l-1,1.88c-9.32,17.49 -27.43,28.35 -47.26,28.35c-6.05,0 -12.01,-1.02 -17.74,-3.02c-8.29,-2.89 -15.7,-4.36 -22.04,-4.36c-4.99,0 -9.24,0.87 -12.98,2.66c-5.23,2.51 -51.12,26.67 -50.18,100.76l0,138.63c0,29.61 -24.05,53.7 -53.61,53.7l-6.33,0l0,0.01z" fill="#FFFFFF" id="svg_165"/>
   <g id="svg_166">
    <defs>
     <rect height="424.6" id="SVGID_00000103256233867539408950000001837926649361780356_" width="285.78" x="1072.24" y="468.04"/>
    </defs>
    <clipPath id="SVGID_00000015338884908779293740000001551534404869108912_">
     <use href="#SVGID_00000103256233867539408950000001837926649361780356_" id="svg_167" overflow="visible"/>
    </clipPath>
    <g clip-path="url(#SVGID_00000015338884908779293740000001551534404869108912_)" id="svg_168">
     <path d="m1138.93,474.57c20.37,0 38.12,11.44 47.19,28.23c23.42,-14.11 50.12,-21.69 77.23,-21.69c16.97,0 33.4,3.01 48.84,8.96l0.81,0.3l7.89,4.05c12.9,6.62 22.39,17.89 26.73,31.75c4.33,13.86 2.96,28.55 -3.88,41.35l-1,1.88c-9.32,17.49 -27.43,28.35 -47.26,28.35c-6.05,0 -12.01,-1.02 -17.74,-3.02c-8.29,-2.89 -15.7,-4.36 -22.04,-4.36c-4.99,0 -9.24,0.87 -12.98,2.66c-5.23,2.51 -51.12,26.67 -50.18,100.76l0,138.63c0,29.61 -24.05,53.7 -53.61,53.7l-6.33,0c-29.56,0 -53.62,-24.09 -53.62,-53.7l0,-304.15c0,-29.61 24.06,-53.7 53.62,-53.7l6.33,0m0,-6.53l-6.33,0c-33.16,0 -60.14,27.02 -60.14,60.23l0,304.15c0,33.21 26.98,60.23 60.14,60.23l6.33,0c33.16,0 60.13,-27.02 60.13,-60.23l0,-138.71c-0.38,-29.57 6.83,-54.18 21.42,-73.15c11.16,-14.51 22.83,-20.56 25.06,-21.62c2.84,-1.37 6.17,-2.04 10.16,-2.04c5.61,0 12.3,1.35 19.89,4c6.42,2.24 13.11,3.38 19.89,3.38c22.24,0 42.56,-12.19 53.02,-31.8l1,-1.87c7.66,-14.38 9.21,-30.85 4.35,-46.39c-4.87,-15.55 -15.51,-28.2 -29.99,-35.62l-7.89,-4.04l-0.31,-0.16l-0.32,-0.13l-0.81,-0.3c-16.19,-6.23 -33.41,-9.4 -51.18,-9.4c-26.03,0 -51.83,6.69 -75,19.41c-11.18,-16.15 -29.57,-25.94 -49.42,-25.94z" id="svg_169"/>
    </g>
   </g>
   <path d="m1216.34,549.75l-1.75,-2.76c2.46,-1.56 4.98,-3.07 7.51,-4.5c1.34,-0.75 2.65,-1.46 3.91,-2.12l1.5,2.91c-1.23,0.63 -2.51,1.32 -3.8,2.06c-2.48,1.39 -4.96,2.88 -7.37,4.41z" fill="#59595C" id="svg_170"/>
   <path d="m1295.09,540.83c-0.95,-0.26 -1.91,-0.55 -2.89,-0.82c-3.1,-0.89 -6.29,-1.82 -9.63,-2.65l0.79,-3.18c3.4,0.85 6.62,1.79 9.75,2.69c0.97,0.28 1.93,0.56 2.87,0.82l-0.89,3.14zm-62.43,-0.07l-1.35,-2.97c4.44,-2.04 8.43,-3.47 12.54,-4.49l0.79,3.17c-3.91,0.97 -7.72,2.34 -11.98,4.29zm37.31,-5.76c-4.3,-0.49 -8.56,-0.62 -12.75,-0.38l-0.18,-3.26c4.37,-0.25 8.81,-0.11 13.3,0.39l-0.37,3.25z" fill="#59595C" id="svg_171"/>
   <path d="m1137.35,843.78l-3.27,0l0,-9.79l3.27,0l0,9.79zm0,-22.85l-3.27,0l0,-13.07l3.27,0l0,13.07zm0,-26.14l-3.27,0l0,-13.06l3.27,0l0,13.06zm0,-26.12l-3.27,0l0,-13.07l3.27,0l0,13.07zm0,-26.14l-3.27,0l0,-13.06l3.27,0l0,13.06zm0,-26.13l-3.27,0l0,-13.07l3.27,0l0,13.07zm0,-26.13l-3.27,0l0,-13.07l3.27,0l0,13.07zm0,-26.14l-3.27,0l0,-13.06l3.27,0l0,13.06zm0,-26.13l-3.27,0l0,-13.07l3.27,0l0,13.07zm0,-26.13l-3.27,0l0,-13.06l3.27,0l0,13.06zm0,-26.13l-3.27,0l0,-13.07l3.27,0l0,13.07zm0,-26.13l-3.27,0l0,-13.07l3.27,0l0,13.07z" fill="#59595C" id="svg_172"/>
   <path d="m1135.71,858.32l-13.34,-23.16l26.7,0l-13.36,23.16z" fill="#59595C" id="svg_173"/>
   <path d="m1310.49,544.52l-25.65,7.4l6.42,-25.94l19.23,18.54z" fill="#59595C" id="svg_174"/>
   <path d="m1139.13,516.86l-3.79,0c-0.43,0 -0.84,0.19 -1.12,0.51l-11.15,13.07c-0.49,0.59 -0.47,1.45 0.08,2l2.12,2.12c0.57,0.58 1.49,0.58 2.07,0.01l6.53,-6.47l0,28.33c0,0.81 0.66,1.47 1.47,1.47l3.79,0c0.81,0 1.47,-0.66 1.47,-1.47l0,-38.1c0,-0.81 -0.66,-1.47 -1.47,-1.47z" fill="#FCFDFF" id="svg_176"/>
   <path d="m1209.07,576.82l-16.58,0c0.21,-0.39 0.5,-0.81 0.89,-1.22c1.04,-1.17 2.71,-2.69 4.97,-4.55l-0.02,-0.03c0.34,-0.24 0.72,-0.57 1.15,-0.94c3.2,-2.7 5.75,-5.36 7.6,-7.91c1.96,-2.69 2.96,-5.8 2.96,-9.24c0,-3.4 -1.16,-6.16 -3.44,-8.21c-2.24,-2.01 -5.24,-3.03 -8.91,-3.03c-2.56,0 -5.07,0.64 -7.46,1.9c-2.35,1.25 -4.37,3.01 -5.99,5.23c-0.45,0.62 -0.35,1.49 0.23,1.99l3.08,2.63c0.3,0.26 0.68,0.4 1.11,0.34c0.4,-0.05 0.77,-0.26 1.01,-0.58c1.18,-1.59 2.46,-2.81 3.8,-3.62c2.58,-1.56 6.17,-1.56 8.01,0.12c0.89,0.8 1.33,1.87 1.33,3.23c0,2.3 -0.57,4.25 -1.75,5.99c-1.25,1.85 -3.06,3.79 -5.4,5.77c-0.13,0.11 -0.74,0.61 -1.85,1.52c-1.93,1.59 -3.49,2.98 -4.67,4.14c-1.22,1.2 -2.25,2.57 -3.08,4.08c-0.87,1.62 -1.32,3.38 -1.32,5.26l0,2.4c0,0.81 0.66,1.47 1.47,1.47l22.86,0c0.82,0 1.47,-0.66 1.47,-1.47l0,-3.8c0,-0.81 -0.65,-1.47 -1.47,-1.47z" fill="#FCFDFF" id="svg_178"/>
  </g>
 </g>
</svg>