<?xml version="1.0"?>
<svg width="2000" height="2000" xmlns="http://www.w3.org/2000/svg" xmlns:svg="http://www.w3.org/2000/svg" enable-background="new 0 0 2000 2000" version="1.1" xml:space="preserve">
 <g class="layer">
  <title>Layer 1</title>
  <g id="svg_147">
   <path d="m963.09,887.28c-21.05,0 -40.65,-11.35 -51.13,-29.63l-112.42,-195.82l-48.3,0l0,163.94c0,33.91 -27.56,61.51 -61.44,61.51c-33.88,0 -61.43,-27.6 -61.43,-61.51l0,-458.11c0,-32.01 26.01,-58.06 57.99,-58.06l145.96,0c36.1,0 68.64,7.28 96.72,21.64c29.2,14.92 51.95,36.34 67.63,63.67c15.36,26.76 23.15,57.44 23.15,91.18c0,41.92 -12.97,78.54 -38.57,108.84c-16.01,18.96 -35.56,34.13 -58.29,45.23l91.25,158.59c10.63,18.49 10.62,40.56 -0.04,59.03c-10.67,18.47 -29.76,29.5 -51.08,29.5zm-138.24,-338.74c24.01,0 41.18,-5.43 52.49,-16.59c11.33,-11.2 16.61,-25.77 16.61,-45.86c0,-20.19 -5.34,-34.93 -16.79,-46.41c-11.29,-11.3 -28.41,-16.8 -52.31,-16.8l-73.61,0l0,125.66l73.61,0z" fill="#FFFFFF" id="svg_148"/>
   <g id="svg_149">
    <defs>
     <rect height="588.86" id="SVGID_00000084493717989083744240000002805439895438695815_" width="406.53" x="622.96" y="304"/>
    </defs>
    <clipPath id="SVGID_00000080924014262909501600000016887615506682321340_">
     <use href="#SVGID_00000084493717989083744240000002805439895438695815_" id="svg_150" overflow="visible"/>
    </clipPath>
    <g clip-path="url(#SVGID_00000080924014262909501600000016887615506682321340_)" id="svg_151">
     <path d="m832.32,309.6c36.1,0 68.64,7.28 96.72,21.64c29.2,14.92 51.95,36.34 67.63,63.67c15.36,26.76 23.15,57.44 23.15,91.18c0,41.92 -12.97,78.54 -38.57,108.83c-16.01,18.97 -35.57,34.14 -58.29,45.23l91.25,158.6c10.63,18.49 10.62,40.56 -0.05,59.03c-10.66,18.47 -29.75,29.5 -51.07,29.5c-21.05,0 -40.65,-11.35 -51.13,-29.63l-112.42,-195.82l-48.3,0l0,163.94c0,33.91 -27.56,61.51 -61.44,61.51c-33.88,0 -61.43,-27.6 -61.43,-61.51l0,-458.11c0,-32.01 26.01,-58.06 57.99,-58.06l145.96,0m-81.08,238.94l73.61,0c24.01,0 41.18,-5.43 52.49,-16.59c11.33,-11.2 16.61,-25.77 16.61,-45.86c0,-20.19 -5.33,-34.93 -16.79,-46.41c-11.29,-11.3 -28.41,-16.8 -52.31,-16.8l-73.61,0l0,125.66m81.08,-244.35l-145.96,0c-34.96,0 -63.4,28.48 -63.4,63.47l0,458.11c0,36.9 29.98,66.92 66.84,66.92c36.86,0 66.85,-30.02 66.85,-66.92l0,-158.53l39.75,0l110.87,193.11c11.45,19.95 32.84,32.34 55.82,32.34c23.27,0 44.11,-12.04 55.75,-32.21c11.65,-20.16 11.66,-44.25 0.05,-64.44l-88.4,-153.63c21.2,-11.16 39.65,-25.94 54.9,-43.99c26.43,-31.3 39.83,-69.1 39.83,-112.33c0,-34.69 -8.03,-66.28 -23.86,-93.87c-16.22,-28.26 -39.72,-50.39 -69.86,-65.81c-28.85,-14.74 -62.22,-22.22 -99.18,-22.22zm-75.67,124.11l68.2,0c22.4,0 38.26,4.97 48.49,15.21c10.38,10.39 15.2,23.92 15.2,42.58c0,18.55 -4.77,31.9 -15,42.01c-10.24,10.11 -26.17,15.03 -48.69,15.03l-68.2,0l0,-114.83z" id="svg_152"/>
    </g>
   </g>
   <path d="m971.58,844.15l-5.39,-9.39l2.34,-1.35l5.4,9.38l-2.35,1.36zm-10.79,-18.77l-5.4,-9.38l2.35,-1.34l5.39,9.38l-2.34,1.34zm-10.79,-18.75l-5.4,-9.38l2.35,-1.36l5.39,9.38l-2.34,1.36zm-10.8,-18.77l-5.39,-9.38l2.34,-1.35l5.39,9.38l-2.34,1.35zm-10.79,-18.76l-5.4,-9.37l2.35,-1.36l5.39,9.39l-2.34,1.34zm-10.8,-18.75l-5.39,-9.39l2.34,-1.35l5.4,9.38l-2.35,1.36zm-10.79,-18.77l-5.4,-9.38l2.35,-1.34l5.39,9.37l-2.34,1.35zm-10.79,-18.75l-5.4,-9.38l2.34,-1.36l5.4,9.38l-2.34,1.36zm-10.8,-18.77l-5.39,-9.38l2.34,-1.34l5.4,9.37l-2.35,1.35zm-10.79,-18.76l-5.4,-9.37l2.34,-1.36l5.4,9.39l-2.34,1.34zm-10.79,-18.75l-5.4,-9.38l2.34,-1.36l5.4,9.38l-2.34,1.36zm-10.8,-18.77l-2.68,-4.65l2.34,-1.35l2.68,4.65l-2.34,1.35z" fill="#59595C" id="svg_153"/>
   <path d="m814.54,605.8l-10.81,0l0,-2.7l10.81,0l0,2.7zm-21.62,0l-10.81,0l0,-2.7l10.81,0l0,2.7zm-21.62,0l-10.82,0l0,-2.7l10.82,0l0,2.7zm-21.63,0l-10.81,0l0,-2.7l10.81,0l0,2.7zm-21.63,0l-10.8,0l0,-2.7l10.8,0l0,2.7zm97.35,-0.04l-0.06,-2.71c3.62,-0.08 7.22,-0.24 10.73,-0.49l0.19,2.7c-3.55,0.25 -7.21,0.42 -10.86,0.5zm21.69,-1.57l-0.34,-2.68c3.59,-0.46 7.15,-1.02 10.6,-1.66l0.5,2.65c-3.49,0.67 -7.12,1.23 -10.76,1.69zm21.4,-4.05l-0.67,-2.62c3.48,-0.9 6.94,-1.93 10.27,-3.04l0.86,2.57c-3.39,1.14 -6.91,2.18 -10.46,3.09zm20.67,-6.96l-1.06,-2.49c3.3,-1.4 6.56,-2.93 9.68,-4.57l1.26,2.4c-3.19,1.67 -6.52,3.24 -9.88,4.66zm19.34,-10.14l-1.46,-2.28c3,-1.91 5.95,-3.98 8.75,-6.13l1.65,2.14c-2.87,2.21 -5.88,4.31 -8.94,6.27zm17.3,-13.32l-1.83,-1.98c2.63,-2.44 5.14,-5.01 7.46,-7.64l2.02,1.79c-2.38,2.7 -4.95,5.34 -7.65,7.83zm14.47,-16.4l-2.2,-1.57c2.06,-2.89 3.98,-5.92 5.72,-9.01l2.36,1.32c-1.79,3.17 -3.76,6.29 -5.88,9.26zm10.73,-19.07l-2.49,-1.07c1.4,-3.23 2.65,-6.61 3.72,-10.01l2.58,0.8c-1.1,3.51 -2.38,6.96 -3.81,10.28zm6.6,-20.86l-2.65,-0.56c0.74,-3.42 1.33,-6.98 1.78,-10.56l2.69,0.34c-0.46,3.66 -1.08,7.29 -1.82,10.78zm2.74,-21.67l-2.71,-0.13c0.11,-2.25 0.15,-4.56 0.15,-6.87c0,-1.29 0,-2.59 -0.04,-3.85l2.71,-0.07c0.02,1.29 0.04,2.61 0.04,3.92c0,2.35 -0.05,4.7 -0.15,7zm-3.23,-21.55c-0.34,-3.61 -0.83,-7.18 -1.44,-10.62l2.66,-0.47c0.62,3.51 1.12,7.16 1.47,10.83l-2.69,0.26zm-3.76,-21.06c-0.94,-3.47 -2.05,-6.9 -3.27,-10.18l2.52,-0.95c1.27,3.36 2.39,6.87 3.35,10.42l-2.6,0.71zm-7.53,-19.97c-1.59,-3.19 -3.35,-6.31 -5.25,-9.3l2.28,-1.45c1.95,3.06 3.76,6.27 5.39,9.54l-2.42,1.21zm-11.45,-17.97c-2.19,-2.76 -4.58,-5.44 -7.08,-7.99l1.93,-1.9c2.57,2.61 5.01,5.37 7.27,8.19l-2.12,1.7zm-14.93,-15.23c-2.72,-2.27 -5.58,-4.45 -8.5,-6.47l1.53,-2.23c3,2.07 5.92,4.3 8.7,6.62l-1.73,2.08zm-17.55,-12.14c-3.07,-1.74 -6.27,-3.36 -9.54,-4.85l1.12,-2.47c3.33,1.52 6.61,3.19 9.74,4.96l-1.32,2.36zm-19.45,-8.87c-3.3,-1.19 -6.74,-2.27 -10.21,-3.22l0.72,-2.61c3.54,0.97 7.04,2.07 10.4,3.28l-0.91,2.55zm-20.64,-5.69c-3.43,-0.69 -6.99,-1.28 -10.57,-1.75l0.36,-2.69c3.64,0.49 7.25,1.09 10.75,1.79l-0.54,2.65zm-21.25,-2.86c-3.49,-0.26 -7.1,-0.43 -10.72,-0.51l0.06,-2.7c3.67,0.08 7.32,0.25 10.87,0.52l-0.21,2.69zm-21.51,-0.55l-10.81,0l0,-2.71l10.82,0l0,2.71l-0.01,0zm-21.62,0l-10.81,0l0,-2.71l10.81,0l0,2.71zm-21.62,0l-10.81,0l0,-2.71l10.81,0l0,2.71z" fill="#59595C" id="svg_154"/>
   <path d="m705.47,604.45l19.17,-11.07l0,22.15l-19.17,-11.08z" fill="#59595C" id="svg_155"/>
   <path d="m762.55,378.37l-15.27,0c0.2,-0.37 0.47,-0.74 0.83,-1.13c0.96,-1.06 2.5,-2.47 4.57,-4.18l-0.02,-0.03c0.32,-0.22 0.66,-0.52 1.06,-0.85c2.94,-2.5 5.3,-4.95 7,-7.28c1.81,-2.49 2.72,-5.36 2.72,-8.52c0,-3.12 -1.06,-5.67 -3.16,-7.56c-2.07,-1.85 -4.83,-2.79 -8.2,-2.79c-2.37,0 -4.68,0.59 -6.88,1.76c-2.17,1.15 -4.02,2.77 -5.51,4.81c-0.42,0.58 -0.32,1.37 0.22,1.83l2.81,2.42c0.29,0.23 0.65,0.36 1.04,0.31c0.37,-0.04 0.71,-0.23 0.93,-0.54c1.09,-1.46 2.26,-2.58 3.5,-3.32c2.37,-1.45 5.67,-1.44 7.38,0.1c0.82,0.75 1.21,1.72 1.21,2.98c0,2.12 -0.52,3.91 -1.61,5.51c-1.15,1.71 -2.81,3.48 -4.97,5.32c-0.11,0.1 -0.68,0.56 -1.7,1.39c-1.77,1.47 -3.22,2.75 -4.31,3.81c-1.11,1.1 -2.06,2.37 -2.82,3.76c-0.81,1.48 -1.23,3.11 -1.23,4.84l0,2.21c0,0.75 0.61,1.36 1.36,1.36l21.05,0c0.75,0 1.36,-0.61 1.36,-1.36l0,-3.5c0,-0.74 -0.6,-1.35 -1.36,-1.35z" fill="#FCFDFF" id="svg_157"/>
   <path d="m691.18,844.85l-2.71,0l0,-3.99l2.71,0l0,3.99zm0,-14.82l-2.71,0l0,-10.82l2.71,0l0,10.82zm0,-21.65l-2.71,0l0,-10.83l2.71,0l0,10.83zm0,-21.65l-2.71,0l0,-10.82l2.71,0l0,10.82zm0,-21.65l-2.71,0l0,-10.83l2.71,0l0,10.83zm0,-21.65l-2.71,0l0,-10.82l2.71,0l0,10.82zm0,-21.65l-2.71,0l0,-10.83l2.71,0l0,10.83zm0,-21.65l-2.71,0l0,-10.82l2.71,0l0,10.82zm0,-21.65l-2.71,0l0,-10.83l2.71,0l0,10.83zm0,-21.65l-2.71,0l0,-10.82l2.71,0l0,10.82zm0,-21.65l-2.71,0l0,-10.83l2.71,0l0,10.83zm0,-21.65l-2.71,0l0,-10.82l2.71,0l0,10.82zm0,-21.65l-2.71,0l0,-10.83l2.71,0l0,10.83zm0,-21.65l-2.71,0l0,-10.83l2.71,0l0,10.83zm0,-21.65l-2.71,0l0,-10.82l2.71,0l0,10.82zm0,-21.65l-2.71,0l0,-10.83l2.71,0l0,10.83zm0,-21.65l-2.71,0l0,-10.82l2.71,0l0,10.82zm0,-21.65l-2.71,0l0,-10.83l2.71,0l0,10.83zm0,-21.65l-2.71,0l0,-10.82l2.71,0l0,10.82zm0,-21.65l-2.71,0l0,-10.83l2.71,0l0,10.83zm0,-21.65l-2.71,0l0,-10.82l2.71,0l0,10.82zm0,-21.65l-2.71,0l0,-10.83l2.71,0l0,10.83z" fill="#59595C" id="svg_158"/>
   <path d="m689.83,857.64l11.06,-19.18l-22.13,0l11.07,19.18z" fill="#59595C" id="svg_159"/>
   <path d="m979.83,855.92l0.66,-22.14l-19.49,10.5l18.83,11.64z" fill="#59595C" id="svg_160"/>
   <path d="m691.02,346.8l-3.48,0c-0.4,0 -0.77,0.18 -1.03,0.48l-10.27,12.03c-0.46,0.54 -0.43,1.33 0.07,1.84l1.95,1.95c0.53,0.53 1.37,0.53 1.91,0l6.02,-5.95l0,26.07c0,0.75 0.6,1.36 1.35,1.36l3.48,0c0.75,0 1.36,-0.61 1.36,-1.36l0,-35.06c0,-0.75 -0.61,-1.36 -1.36,-1.36z" fill="#FCFDFF" id="svg_162"/>
   <path d="m868.38,643.61c-0.78,-1.11 -1.73,-2.01 -2.8,-2.7c0.73,-0.62 1.37,-1.35 1.9,-2.21c1,-1.62 1.51,-3.52 1.51,-5.62c0,-2.01 -0.47,-3.84 -1.39,-5.43c-0.93,-1.6 -2.25,-2.88 -3.89,-3.77c-1.63,-0.9 -3.49,-1.35 -5.53,-1.35c-2.67,0 -5.07,0.75 -7.1,2.23c-2.01,1.46 -3.58,3.45 -4.66,5.93c-0.28,0.64 -0.02,1.39 0.59,1.73l2.82,1.55c0.33,0.17 0.71,0.21 1.05,0.09c0.36,-0.11 0.65,-0.35 0.81,-0.69c0.8,-1.62 1.74,-2.88 2.81,-3.72c1,-0.79 2.2,-1.18 3.68,-1.18c1.32,0 2.35,0.41 3.16,1.27c0.83,0.85 1.25,1.95 1.25,3.35c0,1.57 -0.44,2.81 -1.34,3.77c-0.87,0.95 -2.02,1.4 -3.53,1.4l-2.26,0c-0.74,0 -1.35,0.6 -1.35,1.35l0,3.19c0,0.74 0.61,1.35 1.35,1.35l2.47,0c1.76,0 3.16,0.55 4.28,1.66c1.11,1.13 1.66,2.53 1.66,4.29c0,1.7 -0.53,3.05 -1.63,4.13c-1.11,1.08 -2.45,1.62 -4.11,1.62c-1.41,0 -2.6,-0.41 -3.66,-1.23c-1.1,-0.87 -2.04,-2.11 -2.76,-3.65c-0.17,-0.35 -0.47,-0.6 -0.83,-0.72c-0.36,-0.11 -0.74,-0.07 -1.08,0.12l-3.09,1.8c-0.58,0.34 -0.82,1.06 -0.56,1.68c0.98,2.43 2.5,4.39 4.52,5.84c2.04,1.47 4.5,2.21 7.31,2.21c2.23,0 4.32,-0.51 6.2,-1.5c1.9,-1 3.43,-2.42 4.53,-4.22c1.1,-1.8 1.66,-3.85 1.66,-6.07c0.01,-2.45 -0.66,-4.63 -1.99,-6.5z" fill="#FCFDFF" id="svg_164"/>
  </g>
 </g>
</svg>