<?xml version="1.0"?>
<svg width="1999.9999999999998" height="1999.9999999999998" xmlns="http://www.w3.org/2000/svg" xmlns:svg="http://www.w3.org/2000/svg" enable-background="new 0 0 2000 2000" version="1.1" xml:space="preserve">
 <g class="layer">
  <title>Layer 1</title>
  <g id="svg_147">
   <path d="m1169.36,855.44c-32.72,0 -62.14,-7.23 -87.48,-21.5c-7.95,-4.47 -13.26,-7.76 -17.74,-10.99c-12.5,-9.01 -19.75,-23.61 -19.39,-39.06c0.36,-15.57 8.35,-29.96 21.38,-38.47l4.69,-3.06c7.69,-5.03 16.6,-7.68 25.77,-7.68c10.46,0 20.79,3.54 29.09,9.98c9.11,7.06 24.98,15.58 48.89,16.07l2.36,0.03c14.37,-0.01 27.01,-2.82 36.53,-8.14c4.38,-2.45 6.47,-4.82 6.47,-11.67c0,-10.85 -3.59,-13.47 -5.31,-14.73c-2.48,-1.8 -13.08,-7.9 -45.25,-10.7c-45.77,-3.81 -78.64,-14.62 -100.48,-33.05c-23.61,-19.91 -35.59,-46.45 -35.59,-78.88c0,-35.83 13.47,-64.31 40.03,-84.65c24.25,-18.57 56.76,-27.99 96.64,-27.99c36.73,0 76.56,9.85 106.54,26.36c14,7.71 23.17,21.8 24.5,37.69c1.33,15.78 -5.29,31.09 -17.69,40.95c-8.64,6.86 -19.52,10.64 -30.64,10.64c-7.71,0 -15.47,-1.81 -22.45,-5.24c-30.35,-14.9 -63.28,-15.68 -63.61,-15.69c-18.91,0 -28.22,3.64 -32.64,6.69c-3.2,2.22 -4.73,4.28 -4.73,10.01c0,3.15 0.44,5.87 6.02,9.73c3.6,2.51 15.53,8.61 48.75,11.38c42.85,3.86 74.6,14.67 97.13,33.06c24.69,20.14 37.19,46.89 37.19,79.49c0,25.84 -7.7,48.49 -22.89,67.33c-14.22,17.65 -33.19,31.05 -56.36,39.8c-21.61,8.16 -45.06,12.29 -69.73,12.29z" fill="#FFFFFF" id="svg_148"/>
   <g id="svg_149">
    <defs>
     <rect height="375.93" id="SVGID_00000145774640718405113110000010417057341372715966_" width="296.35" x="1027.65" y="485.24"/>
    </defs>
    <clipPath id="SVGID_00000115476749421196700520000009415834776473901444_">
     <use href="#SVGID_00000145774640718405113110000010417057341372715966_" id="svg_150" overflow="visible"/>
    </clipPath>
    <g clip-path="url(#SVGID_00000115476749421196700520000009415834776473901444_)" id="svg_151">
     <path d="m1169.97,490.95c36.73,0 76.56,9.85 106.54,26.36c14.01,7.71 23.17,21.8 24.5,37.69c1.33,15.78 -5.29,31.09 -17.69,40.95c-8.64,6.86 -19.52,10.64 -30.64,10.64c-7.71,0 -15.47,-1.81 -22.45,-5.24c-30.35,-14.9 -63.28,-15.69 -63.61,-15.69c-18.91,0 -28.22,3.64 -32.64,6.69c-3.2,2.22 -4.73,4.28 -4.73,10.01c0,3.15 0.44,5.86 6.02,9.73c3.6,2.51 15.53,8.61 48.75,11.38c42.86,3.86 74.6,14.67 97.13,33.06c24.68,20.14 37.19,46.89 37.19,79.49c0,25.84 -7.7,48.49 -22.89,67.33c-14.22,17.65 -33.19,31.04 -56.36,39.8c-21.6,8.16 -45.07,12.29 -69.74,12.29c-32.7,0 -62.13,-7.23 -87.47,-21.5c-7.95,-4.47 -13.26,-7.76 -17.74,-10.99c-12.5,-9.01 -19.75,-23.61 -19.39,-39.06c0.36,-15.57 8.35,-29.96 21.38,-38.47l4.69,-3.06c7.69,-5.03 16.6,-7.68 25.78,-7.68c10.45,0 20.78,3.54 29.08,9.98c9.11,7.06 24.98,15.58 48.89,16.07l2.36,0.03c14.37,-0.01 27.01,-2.82 36.53,-8.14c4.38,-2.45 6.47,-4.82 6.47,-11.67c0,-10.85 -3.59,-13.47 -5.31,-14.73c-2.48,-1.8 -13.08,-7.9 -45.25,-10.7c-45.76,-3.81 -78.64,-14.62 -100.48,-33.05c-23.61,-19.91 -35.59,-46.45 -35.59,-78.87c0,-35.84 13.47,-64.32 40.03,-84.66c24.25,-18.57 56.76,-27.99 96.64,-27.99m0,-5.66c-41.15,0 -74.82,9.82 -100.08,29.16c-13.94,10.68 -24.59,23.66 -31.65,38.59c-7.02,14.87 -10.59,31.87 -10.59,50.55c0,16.95 3.17,32.58 9.44,46.46c6.28,13.93 15.76,26.29 28.15,36.74c22.76,19.21 56.67,30.45 103.65,34.36c32.17,2.8 41.45,8.95 42.41,9.65c0.96,0.7 2.98,2.17 2.98,10.15c0,4.74 -0.97,5.28 -3.58,6.73c-8.67,4.85 -20.34,7.42 -33.75,7.42l-2.3,-0.02c-22.34,-0.47 -37.08,-8.36 -45.51,-14.89c-9.29,-7.2 -20.84,-11.17 -32.55,-11.17c-10.27,0 -20.25,2.98 -28.87,8.61l-4.68,3.06c-14.59,9.54 -23.54,25.64 -23.94,43.06c-0.4,17.32 7.72,33.68 21.73,43.79c4.65,3.35 10.12,6.74 18.28,11.34c26.19,14.74 56.56,22.21 90.25,22.21c25.35,0 49.48,-4.26 71.73,-12.65c24.13,-9.11 43.9,-23.09 58.76,-41.55c16.02,-19.86 24.15,-43.71 24.15,-70.87c0,-17.06 -3.32,-32.81 -9.87,-46.81c-6.56,-14.02 -16.46,-26.49 -29.4,-37.06c-23.44,-19.12 -56.21,-30.35 -100.2,-34.32l-0.04,0c-32.75,-2.73 -43.49,-8.63 -45.99,-10.38c-3.6,-2.49 -3.6,-3.36 -3.6,-5.09c0,-3.77 0.58,-4.17 2.3,-5.36c3.07,-2.12 10.97,-5.68 29.35,-5.69c1.39,0.04 32.72,1.14 61.19,15.11c7.75,3.81 16.37,5.82 24.94,5.82c12.39,0 24.52,-4.22 34.16,-11.86c13.89,-11.04 21.3,-28.19 19.8,-45.86c-1.49,-17.78 -11.74,-33.54 -27.41,-42.16c-30.78,-16.95 -71.62,-27.07 -109.26,-27.07z" id="svg_152"/>
    </g>
   </g>
   <path d="m1238.31,554.17c-1.65,-0.8 -3.37,-1.55 -5.1,-2.27l1.08,-2.61c1.78,0.73 3.54,1.52 5.23,2.33l-1.21,2.55z" fill="#59595C" id="svg_153"/>
   <path d="m1173.81,809.85c-1.25,0 -2.51,-0.01 -3.74,-0.04l0.06,-2.83c3.58,0.08 7.28,0.05 11.07,-0.19l0.17,2.82c-2.56,0.16 -5.1,0.24 -7.56,0.24zm-15.01,-0.72c-3.78,-0.36 -7.55,-0.88 -11.19,-1.53l0.5,-2.78c3.56,0.64 7.26,1.14 10.96,1.5l-0.27,2.81zm33.82,-0.7l-0.41,-2.8c3.64,-0.53 7.3,-1.23 10.88,-2.05l0.64,2.76c-3.66,0.84 -7.4,1.54 -11.11,2.09zm-56.05,-3.29c-3.66,-0.99 -7.29,-2.14 -10.77,-3.44l0.98,-2.65c3.4,1.27 6.94,2.4 10.53,3.36l-0.74,2.73zm78.06,-1.78l-0.85,-2.69c3.57,-1.14 7.06,-2.42 10.38,-3.82l1.1,2.6c-3.39,1.43 -6.97,2.75 -10.63,3.91zm-99.24,-6.13c-3.4,-1.66 -6.74,-3.52 -9.9,-5.51l1.51,-2.39c3.07,1.93 6.31,3.74 9.64,5.36l-1.25,2.54zm120.07,-2.71l-1.37,-2.47c3.31,-1.82 6.44,-3.8 9.3,-5.89l1.66,2.29c-2.95,2.15 -6.18,4.19 -9.59,6.07zm18.28,-13.44l-1.99,-2c2.65,-2.64 5.01,-5.45 7.02,-8.35l2.32,1.6c-2.1,3.05 -4.57,5.99 -7.35,8.75zm12.84,-18.79l-2.6,-1.08c1.38,-3.33 2.4,-6.83 3.03,-10.4l2.78,0.49c-0.67,3.78 -1.75,7.48 -3.21,10.99zm4.19,-22.34l-2.82,-0.04c0,-0.28 0,-0.55 0,-0.83c0,-3.44 -0.25,-6.84 -0.72,-10.09l2.79,-0.42c0.5,3.39 0.76,6.93 0.76,10.51c0,0.29 0,0.58 -0.01,0.87zm-6.1,-21.57c-1.19,-3.48 -2.72,-6.8 -4.55,-9.88l2.44,-1.44c1.92,3.24 3.52,6.74 4.78,10.41l-2.67,0.91zm-11.04,-18.58c-2.44,-2.61 -5.2,-5.01 -8.2,-7.14l1.63,-2.3c3.16,2.23 6.07,4.76 8.63,7.52l-2.06,1.92zm-17.67,-12.64c-1.83,-0.91 -3.76,-1.81 -5.73,-2.64c-1.43,-0.62 -2.9,-1.21 -4.39,-1.77l0.99,-2.64c1.53,0.57 3.05,1.18 4.51,1.81c2.02,0.86 4,1.77 5.87,2.71l-1.25,2.53zm-20.63,-7.82c-3.43,-0.95 -7.06,-1.81 -10.79,-2.55l0.55,-2.78c3.81,0.76 7.5,1.63 10.99,2.61l-0.75,2.72zm-21.73,-4.37c-3.53,-0.49 -7.14,-0.9 -11.06,-1.26l0.26,-2.82c3.96,0.37 7.61,0.78 11.18,1.27l-0.38,2.81zm-22.19,-2.28c-3.96,-0.35 -7.62,-0.75 -11.18,-1.23l0.38,-2.8c3.52,0.47 7.13,0.87 11.05,1.21l-0.25,2.82zm-22.3,-3.03c-3.81,-0.73 -7.51,-1.58 -11,-2.52l0.74,-2.73c3.42,0.92 7.05,1.76 10.79,2.48l-0.53,2.77zm-21.78,-5.93c-1.84,-0.68 -3.67,-1.41 -5.43,-2.16c-1.71,-0.72 -3.39,-1.49 -4.99,-2.27l1.23,-2.54c1.56,0.75 3.21,1.51 4.87,2.21c1.71,0.74 3.49,1.45 5.29,2.1l-0.97,2.66zm-20.33,-10.01c-3.18,-2.14 -6.17,-4.57 -8.86,-7.22l1.98,-2.01c2.57,2.52 5.41,4.84 8.46,6.88l-1.58,2.35zm-16.23,-15.96c-2.17,-3.13 -4.05,-6.48 -5.58,-9.98l2.59,-1.13c1.46,3.32 3.25,6.52 5.31,9.51l-2.32,1.6zm-9.18,-20.83c-0.85,-3.68 -1.37,-7.49 -1.55,-11.32l2.83,-0.14c0.17,3.67 0.67,7.31 1.48,10.82l-2.76,0.64zm1.7,-22.38l-2.81,-0.35c0.49,-3.88 1.33,-7.63 2.51,-11.15l2.68,0.89c-1.12,3.35 -1.93,6.92 -2.38,10.61zm6.91,-20.45l-2.42,-1.46c1.95,-3.23 4.28,-6.29 6.94,-9.11l2.06,1.95c-2.52,2.66 -4.74,5.57 -6.58,8.62zm14.8,-15.77l-1.65,-2.3c2.96,-2.14 6.23,-4.12 9.74,-5.9l1.27,2.52c-3.36,1.71 -6.51,3.62 -9.36,5.68zm19.48,-10.02l-0.96,-2.66c3.43,-1.24 7.08,-2.34 10.85,-3.27l0.67,2.75c-3.66,0.9 -7.22,1.98 -10.56,3.18zm98.33,-0.13c-3.42,-1.05 -7.02,-2 -10.7,-2.81l0.6,-2.76c3.76,0.83 7.44,1.8 10.93,2.87l-0.83,2.7zm-21.6,-4.81c-3.55,-0.54 -7.26,-0.98 -11.03,-1.32l0.26,-2.81c3.81,0.34 7.58,0.79 11.18,1.33l-0.41,2.8zm-55.31,-0.43l-0.44,-2.79c3.64,-0.58 7.41,-1.02 11.21,-1.33l0.23,2.82c-3.73,0.3 -7.43,0.74 -11,1.3zm33.2,-1.6c-3.61,-0.14 -7.34,-0.21 -11.12,-0.19l-0.02,-2.82c3.82,-0.04 7.59,0.04 11.25,0.19l-0.11,2.82z" fill="#59595C" id="svg_154"/>
   <path d="m1096.12,785.08c-1.49,-1.19 -2.96,-2.44 -4.38,-3.7l1.88,-2.11c1.38,1.23 2.81,2.45 4.26,3.6l-1.76,2.21z" fill="#59595C" id="svg_155"/>
   <path d="m1079.91,766.21l21.39,8.8l-18.33,14.13l-3.06,-22.93z" fill="#59595C" id="svg_156"/>
   <path d="m1254.29,539.98l-3.29,0c-0.37,0 -0.72,0.16 -0.97,0.44l-9.66,11.32c-0.43,0.5 -0.41,1.25 0.06,1.72l1.84,1.83c0.5,0.5 1.3,0.5 1.79,0.01l5.67,-5.59l0,24.51c0,0.7 0.57,1.27 1.27,1.27l3.29,0c0.7,0 1.27,-0.57 1.27,-1.27l0,-32.97c0,-0.7 -0.57,-1.27 -1.27,-1.27z" fill="#FCFDFF" id="svg_158"/>
  </g>
 </g>
</svg>