<?xml version="1.0"?>
<svg width="1999.9999999999998" height="1999.9999999999998" xmlns="http://www.w3.org/2000/svg" xmlns:svg="http://www.w3.org/2000/svg" enable-background="new 0 0 2000 2000" version="1.1" xml:space="preserve">
 <g class="layer">
  <title>Layer 1</title>
  <g id="svg_147">
   <path d="m827.62,856.73c-36.43,0 -72.23,-9.17 -106.42,-27.24c-20.35,-10.75 -38.98,-24.07 -55.35,-39.58c-10.62,-10.05 -16.39,-24.25 -15.8,-38.95c0.58,-14.88 7.55,-28.78 19.12,-38.13l3.17,-2.56c9.13,-7.37 20.6,-11.43 32.32,-11.43c14.02,0 27.07,5.54 36.74,15.61c8.92,9.28 19.02,17.32 30.03,23.92c19.21,11.5 40.26,17.34 62.57,17.34c23.11,0 40.08,-4.48 50.45,-13.31c9.26,-7.9 13.58,-18.35 13.58,-32.89c0,-16.34 -4.6,-27.62 -14.48,-35.5c-13.53,-10.8 -37.72,-21.26 -69.96,-30.26c-105.08,-25.79 -158.59,-77.15 -158.59,-152.55c0,-46.6 15.93,-83.41 47.32,-109.4c29.78,-24.68 70.43,-37.18 120.83,-37.18c35.94,0 68.88,6.92 97.91,20.58c15.76,7.42 30.83,17.12 44.81,28.84c11.76,9.86 18.46,24.33 18.38,39.69c-0.09,15.38 -6.96,29.78 -18.83,39.51l-1.32,1.09c-9.09,7.44 -20.54,11.53 -32.27,11.53c-13.18,0 -25.85,-4.99 -35.68,-14.06c-6.76,-6.25 -13.82,-11.39 -20.96,-15.3c-13.96,-7.63 -31.47,-11.51 -52.04,-11.51c-20.44,0 -36.86,4.47 -48.8,13.27c-9.77,7.22 -13.95,15.73 -13.95,28.47c0,13.49 4.21,23.23 13.25,30.68c8.43,6.97 27.12,17.33 68.23,27.15c48.76,13.13 87.28,31.66 114.86,55.18c30.99,26.41 46.69,63.35 46.69,109.78c0,29 -7.62,55.14 -22.63,77.71c-14.9,22.34 -36.24,39.84 -63.41,52.01c-25.92,11.6 -56.12,17.49 -89.77,17.49z" fill="#FFFFFF" id="svg_159"/>
   <g id="svg_160">
    <defs>
     <rect height="521.36" id="SVGID_00000115496661800098524270000013557226753459097738_" width="363.47" x="644.76" y="340"/>
    </defs>
    <clipPath id="SVGID_00000047756628594098079250000007479525121045921455_">
     <use href="#SVGID_00000115496661800098524270000013557226753459097738_" id="svg_161" overflow="visible"/>
    </clipPath>
    <g clip-path="url(#SVGID_00000047756628594098079250000007479525121045921455_)" id="svg_162">
     <path d="m823.15,344.62c35.95,0 68.88,6.92 97.91,20.58c15.76,7.42 30.83,17.12 44.81,28.84c11.76,9.86 18.46,24.33 18.38,39.69c-0.09,15.38 -6.96,29.78 -18.83,39.51l-1.32,1.09c-9.09,7.44 -20.54,11.53 -32.27,11.53c-13.18,0 -25.85,-4.99 -35.68,-14.06c-6.76,-6.25 -13.82,-11.39 -20.95,-15.3c-13.97,-7.63 -31.48,-11.51 -52.05,-11.51c-20.44,0 -36.86,4.47 -48.8,13.27c-9.77,7.22 -13.94,15.73 -13.94,28.47c0,13.48 4.2,23.23 13.24,30.68c8.44,6.97 27.12,17.33 68.23,27.15c48.76,13.13 87.28,31.66 114.86,55.18c30.99,26.41 46.69,63.35 46.69,109.77c0,29 -7.61,55.15 -22.63,77.71c-14.9,22.35 -36.23,39.85 -63.41,52.02c-25.92,11.61 -56.12,17.49 -89.77,17.49c-36.43,0 -72.23,-9.16 -106.42,-27.24c-20.35,-10.76 -38.98,-24.07 -55.36,-39.58c-10.61,-10.05 -16.37,-24.25 -15.79,-38.95c0.57,-14.88 7.55,-28.78 19.12,-38.13l3.17,-2.56c9.13,-7.37 20.6,-11.43 32.32,-11.43c14.02,0 27.07,5.54 36.74,15.61c8.91,9.28 19.02,17.32 30.03,23.92c19.21,11.5 40.26,17.34 62.58,17.34c23.1,0 40.07,-4.48 50.44,-13.31c9.26,-7.9 13.58,-18.35 13.58,-32.89c0,-16.34 -4.6,-27.62 -14.48,-35.5c-13.54,-10.8 -37.72,-21.26 -69.96,-30.26c-105.08,-25.79 -158.59,-77.15 -158.59,-152.55c0,-46.6 15.93,-83.41 47.32,-109.4c29.78,-24.68 70.43,-37.18 120.83,-37.18m0,-4.62c-51.5,0 -93.14,12.87 -123.77,38.24c-32.5,26.91 -48.98,64.92 -48.98,112.96c0,38.81 13.9,71.86 41.3,98.2c13.55,13.03 30.63,24.6 50.77,34.38c19.99,9.72 43.53,17.94 69.96,24.42c31.6,8.84 55.21,19.01 68.25,29.42c8.69,6.93 12.74,17.07 12.74,31.89c0,13.27 -3.69,22.33 -11.96,29.37c-9.52,8.11 -25.48,12.22 -47.46,12.22c-21.47,0 -41.72,-5.62 -60.2,-16.69c-10.66,-6.38 -20.45,-14.18 -29.08,-23.16c-10.55,-10.98 -24.77,-17.03 -40.06,-17.03c-12.76,0 -25.27,4.43 -35.21,12.46l-3.17,2.56c-12.62,10.19 -20.21,25.33 -20.84,41.54c-0.64,16.03 5.65,31.51 17.24,42.48c16.68,15.8 35.64,29.36 56.37,40.31c34.85,18.42 71.38,27.76 108.57,27.76c34.3,0 65.13,-6.01 91.65,-17.88c27.99,-12.53 49.98,-30.59 65.36,-53.67c15.54,-23.34 23.41,-50.34 23.41,-80.27c0,-47.84 -16.25,-85.95 -48.3,-113.29c-28.12,-23.96 -67.37,-42.85 -116.66,-56.12l-0.13,-0.03c-40.25,-9.62 -58.31,-19.57 -66.37,-26.22c-8,-6.6 -11.56,-14.96 -11.56,-27.13c0,-11.24 3.5,-18.42 12.07,-24.75c11.12,-8.2 26.62,-12.37 46.06,-12.37c19.79,0 36.56,3.68 49.84,10.94c6.81,3.73 13.56,8.66 20.04,14.65c10.68,9.85 24.46,15.28 38.81,15.28c12.78,0 25.28,-4.47 35.18,-12.58l1.32,-1.09c12.95,-10.6 20.42,-26.29 20.51,-43.04c0.1,-16.74 -7.2,-32.51 -20.02,-43.25c-14.28,-11.98 -29.69,-21.9 -45.8,-29.49c-29.66,-13.95 -63.26,-21.02 -99.88,-21.02z" id="svg_163"/>
    </g>
   </g>
   <path d="m843.64,811.63c-0.01,0 -0.01,0 -0.01,0c-0.74,0 -1.47,0 -2.21,-0.01l0.03,-2.3c0.73,0.01 1.47,0.03 2.19,0.01c2.35,0 4.69,-0.05 6.96,-0.15l0.11,2.3c-2.31,0.11 -4.69,0.15 -7.07,0.15zm-11.48,-0.37c-3.01,-0.19 -6.11,-0.46 -9.24,-0.8l0.25,-2.3c3.09,0.34 6.16,0.61 9.13,0.8l-0.14,2.3zm27.81,-0.5l-0.26,-2.29c3.07,-0.34 6.11,-0.79 9.03,-1.34l0.43,2.26c-2.98,0.57 -6.07,1.02 -9.2,1.37zm-46.24,-1.48l-0.4,-0.07c-2.9,-0.43 -5.84,-0.93 -8.73,-1.5l0.44,-2.26c2.86,0.55 5.76,1.06 8.64,1.48l0.39,0.06l-0.34,2.29zm64.5,-1.97l-0.6,-2.22c2.95,-0.82 5.86,-1.75 8.66,-2.79l0.8,2.15c-2.85,1.07 -5.84,2.03 -8.86,2.86zm-82.69,-1.57c-2.99,-0.73 -6.01,-1.53 -8.96,-2.39l0.64,-2.22c2.93,0.85 5.91,1.64 8.86,2.37l-0.54,2.24zm100.13,-4.95l-1.01,-2.07c2.73,-1.33 5.42,-2.8 7.99,-4.38l1.21,1.97c-2.64,1.61 -5.4,3.12 -8.19,4.48zm-117.93,-0.24c-2.91,-1 -5.84,-2.08 -8.7,-3.21l0.85,-2.14c2.82,1.12 5.71,2.18 8.59,3.17l-0.74,2.18zm-17.24,-6.81c-2.82,-1.27 -5.63,-2.62 -8.36,-4.01l1.04,-2.06c2.7,1.38 5.48,2.71 8.26,3.96l-0.94,2.11zm151.06,-2.68l-1.39,-1.84c2.4,-1.81 4.76,-3.77 7.01,-5.83l1.55,1.71c-2.3,2.1 -4.72,4.11 -7.17,5.96zm-167.58,-5.74c-2.69,-1.54 -5.36,-3.15 -7.94,-4.81l1.24,-1.94c2.55,1.63 5.19,3.23 7.84,4.75l-1.14,2zm181.34,-6.81l-1.7,-1.55c2.02,-2.2 4,-4.55 5.88,-6.98l1.82,1.42c-1.92,2.48 -3.95,4.87 -6,7.11zm-196.96,-3.2c-2.52,-1.81 -5,-3.68 -7.41,-5.6l1.44,-1.8c2.36,1.89 4.82,3.74 7.31,5.52l-1.34,1.88zm208.39,-11.46l-1.92,-1.28c1.29,-1.93 2.57,-3.96 3.79,-6.03c0.34,-0.58 0.68,-1.16 1,-1.74l2.02,1.13c-0.34,0.6 -0.68,1.2 -1.03,1.78c-1.25,2.1 -2.55,4.17 -3.86,6.14zm-222.89,-0.12c-2.32,-2.07 -4.59,-4.21 -6.76,-6.37l1.63,-1.63c2.13,2.13 4.38,4.24 6.66,6.27l-1.53,1.73zm-13.15,-13.1c-0.78,-0.87 -1.56,-1.76 -2.32,-2.65l1.75,-1.5c0.75,0.88 1.51,1.74 2.29,2.61l-1.72,1.54zm245.02,-3.11l-2.13,-0.9c1.17,-2.75 2.2,-5.63 3.09,-8.56l2.21,0.68c-0.92,3 -1.98,5.95 -3.17,8.78zm5.44,-17.84l-2.27,-0.45c0.6,-2.95 1.05,-5.98 1.38,-9.02l2.29,0.25c-0.33,3.1 -0.8,6.2 -1.4,9.22zm1.96,-18.53l-2.3,-0.03c0,-0.54 0.01,-1.08 0.01,-1.61c0,-2.5 -0.09,-5.02 -0.28,-7.51l2.3,-0.17c0.19,2.54 0.28,5.13 0.28,7.68c0,0.54 0,1.09 -0.01,1.64zm-3.63,-18.21c-0.48,-3 -1.11,-6.01 -1.86,-8.93l2.24,-0.58c0.76,2.99 1.4,6.06 1.9,9.14l-2.28,0.37zm-4.53,-17.64c-1.03,-2.88 -2.2,-5.71 -3.49,-8.41l2.08,-0.99c1.32,2.77 2.52,5.67 3.58,8.62l-2.17,0.78zm-7.81,-16.41c-1.6,-2.61 -3.33,-5.13 -5.16,-7.49l1.82,-1.41c1.89,2.42 3.67,5.01 5.3,7.69l-1.96,1.21zm-11.14,-14.32c-2.13,-2.15 -4.41,-4.19 -6.76,-6.03l1.42,-1.82c2.43,1.9 4.77,4 6.98,6.23l-1.64,1.62zm-14.25,-11.21c-2.58,-1.62 -5.22,-3.23 -7.84,-4.78l1.17,-1.99c2.64,1.56 5.3,3.19 7.9,4.82l-1.23,1.95zm-15.82,-9.36c-2.66,-1.48 -5.38,-2.94 -8.09,-4.34l1.06,-2.05c2.73,1.42 5.47,2.89 8.16,4.38l-1.13,2.01zm-16.31,-8.45c-2.75,-1.32 -5.56,-2.63 -8.33,-3.86l0.94,-2.1c2.79,1.24 5.62,2.55 8.39,3.88l-1,2.08zm-16.77,-7.48c-2.83,-1.15 -5.71,-2.28 -8.55,-3.36l0.81,-2.15c2.87,1.08 5.76,2.21 8.61,3.38l-0.87,2.13zm-17.19,-6.44c-2.9,-0.99 -5.83,-1.93 -8.73,-2.82l0.64,-2.21l0.08,0.03c2.88,0.87 5.83,1.82 8.75,2.81l-0.74,2.19zm-17.57,-5.56c-3.04,-0.97 -5.99,-1.93 -8.79,-2.86l0.73,-2.19c2.78,0.93 5.73,1.89 8.76,2.85l-0.7,2.2zm-17.53,-5.87c-2.98,-1.05 -5.9,-2.12 -8.69,-3.18l0.81,-2.16c2.78,1.06 5.69,2.13 8.64,3.17l-0.76,2.17zm-17.31,-6.56c-2.92,-1.18 -5.78,-2.41 -8.53,-3.62l0.93,-2.11c2.73,1.21 5.58,2.42 8.47,3.6l-0.87,2.13zm-16.94,-7.5c-2.84,-1.37 -5.62,-2.77 -8.26,-4.18l1.07,-2.04c2.63,1.4 5.38,2.79 8.19,4.15l-1,2.07zm-16.36,-8.7c-2.72,-1.6 -5.37,-3.26 -7.88,-4.91l1.27,-1.93c2.47,1.63 5.09,3.26 7.78,4.85l-1.17,1.99zm-15.48,-10.26c-2.53,-1.89 -4.97,-3.85 -7.25,-5.81l1.5,-1.76c2.24,1.94 4.64,3.86 7.13,5.73l-1.38,1.84zm-14.07,-12.16c-2.22,-2.25 -4.32,-4.57 -6.25,-6.91l1.78,-1.47c1.88,2.28 3.93,4.56 6.11,6.76l-1.64,1.62zm-11.82,-14.4c-1.73,-2.61 -3.33,-5.32 -4.73,-8.05l2.05,-1.05c1.36,2.65 2.91,5.28 4.6,7.82l-1.92,1.28zm-8.49,-16.59c-1.08,-2.91 -2,-5.93 -2.71,-8.94l2.24,-0.54c0.7,2.93 1.58,5.85 2.62,8.68l-2.15,0.8zm-4.31,-18.15c-0.35,-3.03 -0.53,-6.16 -0.54,-9.31l2.31,0c0,3.06 0.18,6.11 0.51,9.06l-2.28,0.25zm2.22,-18.4l-2.29,-0.23c0.07,-0.79 0.16,-1.58 0.26,-2.38c0.29,-2.3 0.69,-4.61 1.19,-6.86l2.25,0.5c-0.49,2.18 -0.88,4.42 -1.15,6.65c-0.1,0.77 -0.18,1.55 -0.26,2.32zm3.97,-17.66l-2.16,-0.8c1.06,-2.89 2.34,-5.77 3.78,-8.56l2.04,1.06c-1.4,2.7 -2.63,5.49 -3.66,8.3zm8.33,-16.08l-1.91,-1.31c1.72,-2.52 3.63,-5.01 5.68,-7.41l1.75,1.5c-1.99,2.34 -3.85,4.76 -5.52,7.22zm11.78,-13.84l-1.59,-1.66c2.19,-2.11 4.55,-4.18 7.01,-6.16l1.44,1.8c-2.41,1.93 -4.71,3.96 -6.86,6.02zm193.31,-1.39c-2.4,-1.95 -4.83,-3.82 -7.25,-5.59l1.35,-1.87c2.45,1.79 4.93,3.7 7.35,5.67l-1.45,1.79zm-179.1,-10.05l-1.3,-1.91c2.53,-1.71 5.18,-3.37 7.89,-4.94l1.15,2c-2.66,1.53 -5.27,3.17 -7.74,4.85zm164.3,-0.73c-1.44,-0.93 -2.91,-1.84 -4.37,-2.71c-1.14,-0.69 -2.3,-1.36 -3.47,-2.02l1.14,-2.01c1.18,0.67 2.35,1.36 3.51,2.05c1.47,0.88 2.97,1.81 4.44,2.76l-1.25,1.93zm-148.49,-8.43l-1.01,-2.06c2.74,-1.36 5.58,-2.65 8.46,-3.84l0.88,2.13c-2.83,1.18 -5.63,2.44 -8.33,3.77zm132.55,-0.55c-2.73,-1.33 -5.54,-2.59 -8.34,-3.75l0.88,-2.13c2.84,1.18 5.69,2.46 8.46,3.81l-1,2.07zm-115.67,-6.48l-0.76,-2.18c2.92,-1.02 5.9,-1.96 8.86,-2.8l0.63,2.22c-2.92,0.83 -5.85,1.75 -8.73,2.76zm98.77,-0.5c-2.88,-0.99 -5.81,-1.9 -8.74,-2.71l0.61,-2.22c2.98,0.82 5.96,1.74 8.88,2.74l-0.75,2.19zm-81.18,-4.5l-0.49,-2.25c3.01,-0.67 6.08,-1.25 9.12,-1.73l0.36,2.28c-2.99,0.47 -6.02,1.05 -8.99,1.7zm63.55,-0.38c-2.97,-0.62 -6,-1.16 -9,-1.6l0.34,-2.29c3.04,0.45 6.12,1 9.14,1.64l-0.48,2.25zm-45.49,-2.49l-0.22,-2.29c3.07,-0.3 6.19,-0.52 9.27,-0.63l0.07,2.31c-3.03,0.1 -6.09,0.31 -9.12,0.61zm27.4,-0.17c-3.01,-0.27 -6.08,-0.43 -9.13,-0.5l0.06,-2.31c3.09,0.07 6.21,0.24 9.27,0.51l-0.2,2.3z" fill="#59595C" id="svg_164"/>
   <path d="m691.13,735.85l3.18,18.6l14.52,-12.06l-17.7,-6.54z" fill="#59595C" id="svg_165"/>
   <path d="m936.38,419.73l-2.98,0c-0.34,0 -0.65,0.15 -0.88,0.4l-8.76,10.26c-0.38,0.45 -0.36,1.13 0.07,1.56l1.66,1.67c0.45,0.45 1.17,0.45 1.62,0l5.14,-5.07l0,22.22c0,0.63 0.52,1.15 1.15,1.15l2.98,0c0.63,0 1.15,-0.52 1.15,-1.15l0,-29.89c0,-0.63 -0.52,-1.15 -1.15,-1.15z" fill="#FCFDFF" id="svg_167"/>
  </g>
 </g>
</svg>