<?xml version="1.0"?>
<svg width="2000" height="2000" xmlns="http://www.w3.org/2000/svg" xmlns:svg="http://www.w3.org/2000/svg" enable-background="new 0 0 2000 2000" version="1.1" xml:space="preserve">
 <g class="layer">
  <title>Layer 1</title>
  <rect fill="#FFFFFF" height="2000" id="svg_1" width="2000"/>
  <g id="svg_147">
   <path d="m1176.03,840.96c-23.25,0 -42.18,-18.89 -42.18,-42.11l0,-184.49l-42.25,0c-23.26,0 -42.17,-18.89 -42.17,-42.11l0,-1.62c0,-23.22 18.91,-42.1 42.17,-42.1l42.25,0l0,-121.24c0,-23.22 18.93,-42.11 42.18,-42.11l4.97,0c23.25,0 42.17,18.89 42.17,42.11l0,121.24l37.37,0c23.26,0 42.18,18.88 42.18,42.1l0,1.62c0,23.22 -18.92,42.11 -42.18,42.11l-37.37,0l0,184.49c0,23.22 -18.92,42.11 -42.17,42.11l-4.97,0z" fill="#FFFFFF" id="svg_161"/>
   <g id="svg_162">
    <defs>
     <rect height="486.13" id="SVGID_00000151525842695654426840000008214692851967795126_" width="263.53" x="1044.3" y="360"/>
    </defs>
    <clipPath id="SVGID_00000112623597851528023370000002655485918908512648_">
     <use href="#SVGID_00000151525842695654426840000008214692851967795126_" id="svg_163" overflow="visible"/>
    </clipPath>
    <g clip-path="url(#SVGID_00000112623597851528023370000002655485918908512648_)" id="svg_164">
     <path d="m1181,365.18c23.25,0 42.17,18.89 42.17,42.11l0,121.24l37.37,0c23.26,0 42.18,18.89 42.18,42.1l0,1.62c0,23.22 -18.92,42.11 -42.18,42.11l-37.37,0l0,184.49c0,23.22 -18.92,42.11 -42.17,42.11l-4.97,0c-23.25,0 -42.18,-18.89 -42.18,-42.11l0,-184.49l-42.25,0c-23.26,0 -42.17,-18.89 -42.17,-42.11l0,-1.62c0,-23.22 18.91,-42.1 42.17,-42.1l42.25,0l0,-121.24c0,-23.22 18.93,-42.11 42.18,-42.11l4.97,0m0,-5.12l-4.97,0c-26.09,0 -47.31,21.18 -47.31,47.23l0,116.12l-37.12,0c-26.08,0 -47.3,21.19 -47.3,47.22l0,1.62c0,26.04 21.22,47.23 47.3,47.23l37.12,0l0,179.37c0,26.04 21.22,47.23 47.31,47.23l4.97,0c26.08,0 47.3,-21.19 47.3,-47.23l0,-179.37l32.24,0c26.09,0 47.31,-21.19 47.31,-47.23l0,-1.62c0,-26.03 -21.22,-47.22 -47.31,-47.22l-32.24,0l0,-116.12c0,-26.05 -21.22,-47.23 -47.3,-47.23z" id="svg_165"/>
    </g>
   </g>
   <path d="m1179.59,804.53l-2.57,0l0,-6.36l2.57,0l0,6.36zm0,-16.61l-2.57,0l0,-10.25l2.57,0l0,10.25zm0,-20.5l-2.57,0l0,-10.25l2.57,0l0,10.25zm0,-20.51l-2.57,0l0,-10.24l2.57,0l0,10.24zm0,-20.5l-2.57,0l0,-10.25l2.57,0l0,10.25zm0,-20.53l-2.57,0l0,-10.27l2.57,0l0,10.27zm0,-20.52l-2.57,0l0,-10.24l2.57,0l0,10.24zm0,-20.47l-2.57,0l0,-10.26l2.57,0l0,10.26zm0,-20.5l-2.57,0l0,-10.26l2.57,0l0,10.26zm0,-20.51l-2.57,0l0,-10.25l2.57,0l0,10.25zm0,-20.5l-2.57,0l0,-10.26l2.57,0l0,10.26zm0,-20.51l-2.57,0l0,-10.26l2.57,0l0,10.26zm0,-20.51l-2.57,0l0,-10.25l2.57,0l0,10.25zm0,-20.51l-2.57,0l0,-10.25l2.57,0l0,10.25zm0,-20.51l-2.57,0l0,-10.25l2.57,0l0,10.25zm0,-20.51l-2.57,0l0,-10.26l2.57,0l0,10.26zm0,-20.52l-2.57,0l0,-10.26l2.57,0l0,10.26zm0,-20.52l-2.57,0l0,-10.27l2.57,0l0,10.27zm0,-20.54l-2.57,0l0,-10.28l2.57,0l0,10.28z" fill="#59595C" id="svg_166"/>
   <path d="m1178.24,819.16l-10.5,-18.16l21,0l-10.5,18.16z" fill="#59595C" id="svg_167"/>
   <path d="m1269.11,574.42l-7.36,0l0,-2.57l7.36,0l0,2.57zm-17.62,0l-10.26,0l0,-2.57l10.26,0l0,2.57zm-20.52,0l-10.27,0l0,-2.57l10.27,0l0,2.57zm-20.53,0l-10.26,0l0,-2.57l10.26,0l0,2.57zm-20.52,0l-10.26,0l0,-2.57l10.26,0l0,2.57zm-20.52,0l-10.26,0l0,-2.57l10.26,0l0,2.57zm-20.52,0l-10.26,0l0,-2.57l10.26,0l0,2.57zm-20.52,0l-10.26,0l0,-2.57l10.26,0l0,2.57zm-20.52,0l-10.27,0l0,-2.57l10.27,0l0,2.57z" fill="#59595C" id="svg_168"/>
   <path d="m1280.28,573.13l-18.19,-10.48l0,20.97l18.19,-10.49z" fill="#59595C" id="svg_169"/>
   <path d="m1180.99,393.36l-2.98,0c-0.34,0 -0.66,0.15 -0.88,0.41l-8.78,10.24c-0.38,0.46 -0.36,1.14 0.07,1.57l1.67,1.66c0.45,0.45 1.18,0.45 1.62,0.01l5.15,-5.07l0,22.2c0,0.64 0.52,1.16 1.15,1.16l2.98,0c0.64,0 1.16,-0.52 1.16,-1.16l0,-29.87c0,-0.64 -0.52,-1.15 -1.16,-1.15z" fill="#FCFDFF" id="svg_171"/>
   <path d="m1104.57,583.24l-13.05,0c0.17,-0.31 0.4,-0.63 0.7,-0.97c0.82,-0.9 2.13,-2.1 3.91,-3.56l-0.02,-0.02c0.27,-0.19 0.57,-0.44 0.91,-0.73c2.51,-2.12 4.52,-4.21 5.98,-6.21c1.54,-2.11 2.32,-4.55 2.32,-7.24c0,-2.66 -0.9,-4.83 -2.7,-6.44c-1.76,-1.57 -4.12,-2.37 -7.01,-2.37c-2.01,0 -3.99,0.5 -5.87,1.49c-1.85,0.98 -3.43,2.36 -4.71,4.1c-0.36,0.49 -0.27,1.16 0.19,1.55l2.41,2.06c0.24,0.21 0.55,0.32 0.88,0.27c0.32,-0.03 0.6,-0.2 0.8,-0.45c0.92,-1.25 1.93,-2.2 2.98,-2.84c2.03,-1.23 4.85,-1.22 6.3,0.09c0.7,0.64 1.05,1.47 1.05,2.54c0,1.8 -0.45,3.33 -1.38,4.7c-0.99,1.44 -2.4,2.96 -4.25,4.52c-0.1,0.09 -0.57,0.48 -1.45,1.19c-1.52,1.24 -2.75,2.34 -3.67,3.24c-0.96,0.94 -1.77,2.02 -2.42,3.21c-0.69,1.26 -1.04,2.65 -1.04,4.12l0,1.88c0,0.64 0.52,1.16 1.15,1.16l17.99,0c0.63,0 1.15,-0.52 1.15,-1.16l0,-2.98c0,-0.63 -0.52,-1.15 -1.15,-1.15z" fill="#FCFDFF" id="svg_173"/>
  </g>
 </g>
</svg>