<?xml version="1.0"?>
<svg width="2000" height="2000" xmlns="http://www.w3.org/2000/svg" xmlns:svg="http://www.w3.org/2000/svg" enable-background="new 0 0 2000 2000" version="1.1" xml:space="preserve">
 <g class="layer">
  <title>Layer 1</title>
  <rect fill="#FFFFFF" height="2000" id="svg_1" width="2000"/>
  <g id="svg_147">
   <path d="m856.2,841.67c-27.85,0 -50.51,-22.65 -50.51,-50.49l0,-333.13l-86.23,0c-25.79,0 -46.78,-20.99 -46.78,-46.79c0,-25.79 20.99,-46.79 46.78,-46.79l273.47,0c25.8,0 46.78,21 46.78,46.79c0,25.8 -20.98,46.79 -46.78,46.79l-86.23,0l0,333.13c0,27.84 -22.66,50.49 -50.5,50.49z" fill="#FFFFFF" id="svg_148"/>
   <g id="svg_149">
    <defs>
     <rect height="486.13" id="SVGID_00000028293540460497687410000016630984294920322440_" width="376.11" x="668.14" y="360"/>
    </defs>
    <clipPath id="SVGID_00000178898938813139032760000007421769562392365979_">
     <use href="#SVGID_00000028293540460497687410000016630984294920322440_" id="svg_150" overflow="visible"/>
    </clipPath>
    <g clip-path="url(#SVGID_00000178898938813139032760000007421769562392365979_)" id="svg_151">
     <path d="m992.93,364.47c25.8,0 46.78,21 46.78,46.79c0,25.8 -20.98,46.79 -46.78,46.79l-86.23,0l0,333.13c0,27.84 -22.66,50.49 -50.5,50.49c-27.85,0 -50.51,-22.65 -50.51,-50.49l0,-333.13l-86.23,0c-25.79,0 -46.78,-20.99 -46.78,-46.79c0,-25.79 20.99,-46.79 46.78,-46.79l273.47,0m0,-4.47l-273.47,0c-28.26,0 -51.25,22.99 -51.25,51.26c0,28.27 22.99,51.26 51.25,51.26l81.76,0l0,328.66c0,30.31 24.66,54.97 54.98,54.97c30.31,0 54.97,-24.66 54.97,-54.97l0,-328.66l81.76,0c28.26,0 51.26,-22.99 51.26,-51.26c-0.01,-28.27 -23,-51.26 -51.26,-51.26z" id="svg_152"/>
    </g>
   </g>
   <path d="m857.31,806.63l-2.23,0l0,-3.3l2.23,0l0,3.3zm0,-12.25l-2.23,0l0,-8.94l2.23,0l0,8.94zm0,-17.88l-2.23,0l0,-8.94l2.23,0l0,8.94zm0,-17.88l-2.23,0l0,-8.95l2.23,0l0,8.95zm0,-17.89l-2.23,0l0,-8.94l2.23,0l0,8.94zm0,-17.88l-2.23,0l0,-8.94l2.23,0l0,8.94zm0,-17.89l-2.23,0l0,-8.94l2.23,0l0,8.94zm0,-17.88l-2.23,0l0,-8.95l2.23,0l0,8.95zm0,-17.89l-2.23,0l0,-8.94l2.23,0l0,8.94zm0,-17.88l-2.23,0l0,-8.94l2.23,0l0,8.94zm0,-17.88l-2.23,0l0,-8.95l2.23,0l0,8.95zm0,-17.89l-2.23,0l0,-8.95l2.23,0l0,8.95zm0,-17.89l-2.23,0l0,-8.94l2.23,0l0,8.94zm0,-17.88l-2.23,0l0,-8.94l2.23,0l0,8.94zm0,-17.88l-2.23,0l0,-8.95l2.23,0l0,8.95zm0,-17.89l-2.23,0l0,-8.94l2.23,0l0,8.94zm0,-17.89l-2.23,0l0,-8.94l2.23,0l0,8.94zm0,-17.88l-2.23,0l0,-8.94l2.23,0l0,8.94zm0,-17.88l-2.23,0l0,-8.95l2.23,0l0,8.95zm0,-17.89l-2.23,0l0,-8.94l2.23,0l0,8.94zm0,-17.88l-2.23,0l0,-8.95l2.23,0l0,8.95zm0,-17.89l-2.23,0l0,-8.94l2.23,0l0,8.94z" fill="#59595C" id="svg_153"/>
   <path d="m856.19,817.2l9.16,-15.86l-18.31,0l9.15,15.86z" fill="#59595C" id="svg_154"/>
   <path d="m858.34,429.81l-2.89,0c-0.33,0 -0.64,0.14 -0.85,0.39l-8.5,9.93c-0.38,0.45 -0.35,1.11 0.06,1.53l1.61,1.61c0.45,0.44 1.14,0.44 1.58,0l4.98,-4.91l0,21.54c0,0.61 0.5,1.12 1.12,1.12l2.88,0c0.62,0 1.12,-0.51 1.12,-1.12l0,-28.97c0,-0.62 -0.5,-1.12 -1.11,-1.12z" fill="#FCFDFF" id="svg_156"/>
   <path d="m997.26,411.7l-8.95,0l0,-2.23l8.95,0l0,2.23zm-17.89,0l-8.93,0l0,-2.23l8.93,0l0,2.23zm-17.87,0l-8.94,0l0,-2.23l8.94,0l0,2.23zm-17.89,0l-8.94,0l0,-2.23l8.94,0l0,2.23zm-17.88,0l-8.94,0l0,-2.23l8.94,0l0,2.23zm-17.88,0l-8.94,0l0,-2.23l8.94,0l0,2.23zm-17.88,0l-8.95,0l0,-2.23l8.95,0l0,2.23zm-17.89,0l-8.94,0l0,-2.23l8.94,0l0,2.23zm-17.88,0l-8.94,0l0,-2.23l8.94,0l0,2.23zm-17.88,0l-8.95,0l0,-2.23l8.95,0l0,2.23zm-17.89,0l-8.94,0l0,-2.23l8.94,0l0,2.23zm-17.88,0l-8.94,0l0,-2.23l8.94,0l0,2.23zm-17.89,0l-8.94,0l0,-2.23l8.94,0l0,2.23zm-17.88,0l-8.93,0l0,-2.23l8.93,0l0,2.23zm-17.88,0l-8.94,0l0,-2.23l8.94,0l0,2.23zm-17.88,0l-8.94,0l0,-2.23l8.94,0l0,2.23z" fill="#59595C" id="svg_157"/>
   <path d="m1013.25,410.35l-15.85,-9.15l0,18.3l15.85,-9.15z" fill="#59595C" id="svg_158"/>
   <path d="m729.08,421.28l-12.63,0c0.17,-0.3 0.38,-0.61 0.68,-0.93c0.79,-0.88 2.07,-2.05 3.79,-3.46l-0.02,-0.02c0.26,-0.18 0.55,-0.43 0.87,-0.72c2.44,-2.05 4.39,-4.07 5.79,-6.01c1.49,-2.05 2.25,-4.41 2.25,-7.02c0,-2.59 -0.87,-4.69 -2.61,-6.25c-1.71,-1.53 -3.99,-2.3 -6.79,-2.3c-1.95,0 -3.86,0.48 -5.68,1.44c-1.79,0.96 -3.33,2.3 -4.56,3.98c-0.34,0.47 -0.27,1.13 0.18,1.51l2.34,2c0.23,0.2 0.52,0.3 0.85,0.26c0.3,-0.04 0.58,-0.2 0.76,-0.44c0.9,-1.21 1.88,-2.14 2.9,-2.76c1.96,-1.18 4.69,-1.18 6.1,0.09c0.68,0.62 1.01,1.43 1.01,2.47c0,1.74 -0.44,3.23 -1.34,4.55c-0.95,1.4 -2.32,2.87 -4.11,4.39c-0.09,0.08 -0.56,0.46 -1.4,1.15c-1.47,1.21 -2.67,2.27 -3.56,3.15c-0.93,0.91 -1.71,1.95 -2.34,3.1c-0.67,1.23 -1.01,2.58 -1.01,4l0,1.83c0,0.61 0.5,1.11 1.12,1.11l17.41,0c0.62,0 1.12,-0.5 1.12,-1.11l0,-2.89c0,-0.61 -0.5,-1.12 -1.12,-1.12z" fill="#FCFDFF" id="svg_160"/>
  </g>
 </g>
</svg>