<?xml version="1.0"?>
<svg width="2000" height="2000" xmlns="http://www.w3.org/2000/svg" xmlns:svg="http://www.w3.org/2000/svg" enable-background="new 0 0 2000 2000" version="1.1" xml:space="preserve">
 <g class="layer">
  <title>Layer 1</title>
  <g id="svg_147">
   <path d="m1309.66,878.48c-15.23,0 -28.59,-8.14 -35.93,-20.3c-0.76,0.51 -1.53,0.99 -2.3,1.47c-18.8,11.63 -40.59,17.52 -64.76,17.52c-22.09,0 -42.89,-4.62 -61.81,-13.71c-19.83,-9.52 -35.83,-23.77 -47.54,-42.38c-11.71,-18.57 -17.65,-40.43 -17.65,-64.96l0,-158.52c0,-23.04 18.8,-41.78 41.91,-41.78l5.62,0c23.11,0 41.91,18.74 41.91,41.78l0,141.78c0,43.27 16.73,51.97 43.72,51.97c18.42,0 30.96,-5.61 39.47,-17.63c10.26,-14.48 15.46,-35.23 15.46,-61.69l0,-114.43c0,-23.04 18.8,-41.78 41.91,-41.78l5.61,0c23.11,0 41.91,18.74 41.91,41.78l0,239.09c0,23.05 -18.8,41.79 -41.91,41.79l-5.62,0z" fill="#FFFFFF" id="svg_157"/>
   <g id="svg_158">
    <defs>
     <rect height="333.19" id="SVGID_00000093890237666285014240000015636469242436787373_" width="287.82" x="1074.53" y="550.55"/>
    </defs>
    <clipPath id="SVGID_00000057846356512747812600000001338643701619443110_">
     <use href="#SVGID_00000093890237666285014240000015636469242436787373_" id="svg_159" overflow="visible"/>
    </clipPath>
    <g clip-path="url(#SVGID_00000057846356512747812600000001338643701619443110_)" id="svg_160">
     <path d="m1315.28,555.82c23.11,0 41.91,18.74 41.91,41.78l0,239.09c0,23.05 -18.8,41.79 -41.91,41.79l-5.62,0c-15.23,0 -28.59,-8.14 -35.93,-20.3c-0.76,0.51 -1.53,0.99 -2.3,1.47c-18.8,11.63 -40.59,17.52 -64.76,17.52c-22.09,0 -42.89,-4.62 -61.81,-13.71c-19.83,-9.52 -35.83,-23.78 -47.54,-42.38c-11.71,-18.58 -17.65,-40.43 -17.65,-64.96l0,-158.52c0,-23.04 18.8,-41.78 41.91,-41.78l5.61,0c23.12,0 41.92,18.74 41.92,41.78l0,141.78c0,43.27 16.73,51.97 43.72,51.97c18.42,0 30.96,-5.61 39.47,-17.63c10.26,-14.48 15.46,-35.23 15.46,-61.69l0,-114.43c0,-23.04 18.8,-41.78 41.9,-41.78l5.62,0m0,-5.12l-5.62,0c-25.94,0 -47.04,21.04 -47.04,46.9l0,114.43c0,25.38 -4.88,45.14 -14.51,58.74c-7.57,10.68 -18.45,15.45 -35.28,15.45c-13.92,0 -22.65,-2.54 -28.34,-8.24c-6.89,-6.92 -10.24,-19.55 -10.24,-38.6l0,-141.78c0,-25.86 -21.11,-46.9 -47.06,-46.9l-5.61,0c-25.95,0 -47.05,21.04 -47.05,46.9l0,158.52c0,25.5 6.2,48.28 18.44,67.69c12.23,19.43 28.94,34.32 49.67,44.27c19.61,9.43 41.16,14.21 64.03,14.21c24.35,0 46.41,-5.77 65.6,-17.16c3.77,4.92 8.51,9.09 13.9,12.2c7.12,4.11 15.25,6.28 23.49,6.28l5.62,0c25.95,0 47.05,-21.05 47.05,-46.91l0,-239.1c0,-25.86 -21.1,-46.9 -47.05,-46.9z" id="svg_161"/>
    </g>
   </g>
   <path d="m1211.38,834.85c-3.07,0 -6.16,-0.13 -9.17,-0.38l0.23,-2.55c3.32,0.28 6.74,0.4 10.13,0.37l0.03,2.55c-0.4,0.01 -0.81,0.01 -1.22,0.01zm11.61,-0.68l-0.31,-2.54c3.39,-0.41 6.74,-1.02 9.96,-1.8l0.6,2.49c-3.31,0.8 -6.76,1.43 -10.25,1.85zm-31.08,-1.11c-3.42,-0.64 -6.81,-1.47 -10.1,-2.47l0.75,-2.45c3.19,0.96 6.5,1.78 9.83,2.4l-0.48,2.52zm51.29,-3.87l-0.93,-2.38c3.13,-1.22 6.21,-2.65 9.14,-4.27l1.25,2.24c-3.03,1.67 -6.21,3.16 -9.46,4.41zm-71.17,-2.16c-1.27,-0.54 -2.54,-1.12 -3.78,-1.71c-1.9,-0.91 -3.76,-1.9 -5.54,-2.94l1.28,-2.21c1.73,1 3.54,1.96 5.37,2.83c1.21,0.59 2.44,1.15 3.68,1.67l-1.01,2.36zm89.64,-7.11l-1.22,-2.24c2.82,-1.54 5.56,-3.35 8.36,-5.54l1.59,2.02c-2.92,2.28 -5.77,4.16 -8.73,5.76zm-107.62,-3.34c-2.75,-2.12 -5.37,-4.45 -7.8,-6.92l1.83,-1.79c2.35,2.39 4.88,4.64 7.54,6.69l-1.57,2.02zm124.14,-9.29l-1.79,-1.83c2.26,-2.22 4.61,-4.71 6.95,-7.39l1.94,1.69c-2.39,2.73 -4.78,5.26 -7.1,7.53zm-138.74,-5.54c-1.3,-1.73 -2.55,-3.56 -3.72,-5.42c-0.68,-1.08 -1.34,-2.18 -1.96,-3.3l2.24,-1.25c0.6,1.07 1.23,2.15 1.89,3.19c1.14,1.8 2.36,3.57 3.61,5.25l-2.06,1.53zm152.41,-9.95l-2.02,-1.58c1.65,-2.09 3.33,-4.33 5.01,-6.64l2.08,1.5c-1.7,2.34 -3.41,4.6 -5.07,6.72zm-162.53,-8.2c-1.24,-3.18 -2.3,-6.52 -3.13,-9.92l2.5,-0.61c0.81,3.29 1.83,6.53 3.02,9.61l-2.39,0.92zm-4.98,-20.15c-0.4,-3.35 -0.63,-6.83 -0.68,-10.35l2.57,-0.04c0.05,3.43 0.27,6.82 0.67,10.08l-2.56,0.31zm1.88,-20.62l-2.57,0l0,-10.24l2.57,0l0,10.24zm0,-20.48l-2.57,0l0,-10.25l2.57,0l0,10.25zm0,-20.49l-2.57,0l0,-10.25l2.57,0l0,10.25zm0,-20.49l-2.57,0l0,-10.25l2.57,0l0,10.25zm0,-20.49l-2.57,0l0,-10.24l2.57,0l0,10.24zm0,-20.49l-2.57,0l0,-10.25l2.57,0l0,10.25zm0,-20.49l-2.57,0l0,-10.24l2.57,0l0,10.24z" fill="#59595C" id="svg_162"/>
   <path d="m1313.59,835.03l-2.57,0l0,-7.66l2.57,0l0,7.66zm0,-17.9l-2.57,0l0,-10.25l2.57,0l0,10.25zm0,-20.49l-2.57,0l0,-10.25l2.57,0l0,10.25zm0,-20.49l-2.57,0l0,-10.24l2.57,0l0,10.24zm0,-20.49l-2.57,0l0,-10.24l2.57,0l0,10.24zm0,-20.49l-2.57,0l0,-10.24l2.57,0l0,10.24zm0,-20.49l-2.57,0l0,-10.24l2.57,0l0,10.24zm0,-20.48l-2.57,0l0,-10.24l2.57,0l0,10.24zm0,-20.49l-2.57,0l0,-10.25l2.57,0l0,10.25zm0,-20.49l-2.57,0l0,-10.25l2.57,0l0,10.25zm0,-20.49l-2.57,0l0,-10.24l2.57,0l0,10.24zm0,-20.48l-2.57,0l0,-10.25l2.57,0l0,10.25z" fill="#59595C" id="svg_163"/>
   <path d="m1312.3,846.44l-10.51,-18.16l21.03,0l-10.52,18.16z" fill="#59595C" id="svg_164"/>
   <path d="m1301.04,778.29l-3.02,20.75l-16.51,-12.98l19.53,-7.77z" fill="#59595C" id="svg_165"/>
   <path d="m1127.63,583.85l-2.98,0c-0.34,0 -0.66,0.14 -0.88,0.4l-8.79,10.25c-0.38,0.46 -0.36,1.14 0.07,1.57l1.67,1.66c0.45,0.45 1.18,0.45 1.63,0l5.15,-5.07l0,22.21c0,0.63 0.51,1.15 1.15,1.15l2.98,0c0.64,0 1.16,-0.52 1.16,-1.15l0,-29.87c0,-0.64 -0.52,-1.15 -1.16,-1.15z" fill="#FCFDFF" id="svg_167"/>
   <path d="m1321.61,610.74l-13.06,0c0.17,-0.32 0.4,-0.64 0.7,-0.97c0.82,-0.9 2.14,-2.1 3.92,-3.56l-0.02,-0.03c0.27,-0.18 0.57,-0.43 0.91,-0.72c2.52,-2.13 4.53,-4.21 5.99,-6.2c1.54,-2.12 2.32,-4.56 2.32,-7.25c0,-2.66 -0.9,-4.83 -2.71,-6.44c-1.76,-1.58 -4.12,-2.37 -7,-2.37c-2.03,0 -4.01,0.5 -5.88,1.49c-1.86,0.98 -3.45,2.36 -4.72,4.09c-0.36,0.5 -0.28,1.17 0.18,1.56l2.42,2.06c0.23,0.21 0.55,0.31 0.88,0.27c0.32,-0.04 0.6,-0.2 0.79,-0.46c0.94,-1.24 1.94,-2.19 3,-2.83c2.03,-1.22 4.85,-1.22 6.3,0.09c0.71,0.64 1.05,1.46 1.05,2.54c0,1.8 -0.45,3.33 -1.38,4.7c-0.98,1.45 -2.41,2.96 -4.25,4.52c-0.1,0.09 -0.58,0.48 -1.46,1.19c-1.51,1.24 -2.75,2.34 -3.68,3.24c-0.96,0.94 -1.77,2.02 -2.42,3.2c-0.68,1.27 -1.04,2.65 -1.04,4.12l0,1.89c0,0.63 0.52,1.16 1.15,1.16l18.02,0c0.64,0 1.15,-0.53 1.15,-1.16l0,-2.98c0,-0.63 -0.51,-1.15 -1.16,-1.15z" fill="#FCFDFF" id="svg_169"/>
  </g>
 </g>
</svg>