<?xml version="1.0"?>
<svg width="2000" height="2000" xmlns="http://www.w3.org/2000/svg" xmlns:svg="http://www.w3.org/2000/svg" enable-background="new 0 0 2000 2000" version="1.1" xml:space="preserve">
 <g class="layer">
  <title>Layer 1</title>
  <g id="svg_147">
   <path d="m845.29,878.93c-64.9,0 -115.02,-18.74 -149,-55.68c-33.32,-36.21 -50.23,-88.34 -50.23,-154.92l0,-262.91c0,-30.41 24.74,-55.14 55.16,-55.14c30.41,0 55.15,24.73 55.15,55.14l0,262.91c0,73.6 26.59,105.01 88.92,105.01c27.5,0 47.4,-7.92 62.61,-24.93c15.66,-17.5 23.61,-44.45 23.61,-80.08l0,-262.91c0,-30.41 24.74,-55.14 55.15,-55.14c30.41,0 55.16,24.73 55.16,55.14l0,262.91c0,65.81 -17.55,117.8 -52.15,154.51c-35.08,37.22 -83.65,56.09 -144.38,56.09z" fill="#FFFFFF" id="svg_148"/>
   <g id="svg_149">
    <defs>
     <rect height="538.77" id="SVGID_00000033339864107555831200000015737643593736240296_" width="405.49" x="641.21" y="345.23"/>
    </defs>
    <clipPath id="SVGID_00000178917967693206834520000002831230495719372215_">
     <use href="#SVGID_00000033339864107555831200000015737643593736240296_" id="svg_150" overflow="visible"/>
    </clipPath>
    <g clip-path="url(#SVGID_00000178917967693206834520000002831230495719372215_)" id="svg_151">
     <path d="m986.66,350.27c30.41,0 55.16,24.74 55.16,55.15l0,262.91c0,65.81 -17.55,117.8 -52.15,154.51c-35.08,37.22 -83.65,56.09 -144.38,56.09c-64.9,0 -115.02,-18.74 -149,-55.68c-33.33,-36.21 -50.23,-88.34 -50.23,-154.92l0,-262.91c0,-30.41 24.74,-55.14 55.16,-55.14c30.4,0 55.15,24.73 55.15,55.14l0,262.91c0,73.6 26.59,105.01 88.92,105.01c27.5,0 47.4,-7.92 62.61,-24.93c15.66,-17.5 23.61,-44.45 23.61,-80.08l0,-262.91c0,-30.41 24.74,-55.15 55.15,-55.15m0,-4.85c-33.09,0 -60,26.92 -60,60l0,262.91c0,34.4 -7.54,60.26 -22.38,76.85c-14.21,15.9 -32.96,23.31 -58.99,23.31c-29.94,0 -50.92,-7.59 -64.13,-23.19c-13.41,-15.84 -19.93,-41.02 -19.93,-76.97l0,-262.91c0,-33.08 -26.92,-60 -60.01,-60s-60.01,26.92 -60.01,60l0,262.91c0,67.83 17.33,121.07 51.51,158.2c34.93,37.99 86.26,57.26 152.57,57.26c62.12,0 111.88,-19.39 147.92,-57.62c35.47,-37.64 53.47,-90.75 53.47,-157.84l0,-262.91c-0.01,-33.08 -26.93,-60 -60.02,-60z" id="svg_152"/>
    </g>
   </g>
   <path d="m845.06,828.79c-1.35,0 -2.67,0 -3.97,-0.03l0.03,-2.42c3.18,0.05 6.5,0.04 9.65,-0.05l0.07,2.43c-1.89,0.05 -3.84,0.07 -5.78,0.07zm-13.72,-0.37c-3.33,-0.19 -6.6,-0.46 -9.73,-0.8l0.25,-2.41c3.1,0.33 6.33,0.59 9.62,0.79l-0.14,2.42zm29.25,-0.19l-0.19,-2.43c3.27,-0.25 6.49,-0.59 9.57,-1.02l0.33,2.41c-3.13,0.43 -6.4,0.78 -9.71,1.04zm-48.67,-1.93c-3.27,-0.54 -6.49,-1.18 -9.59,-1.92l0.56,-2.36c3.04,0.72 6.21,1.35 9.43,1.89l-0.4,2.39zm68.03,-0.76l-0.5,-2.37c3.19,-0.67 6.32,-1.44 9.33,-2.31l0.67,2.33c-3.06,0.89 -6.26,1.68 -9.5,2.35zm-87.06,-3.75c-3.14,-0.99 -6.24,-2.12 -9.21,-3.33l0.92,-2.25c2.91,1.19 5.94,2.29 9.03,3.27l-0.74,2.31zm105.85,-1.72l-0.86,-2.26c2.98,-1.15 5.94,-2.43 8.8,-3.83l1.06,2.18c-2.92,1.42 -5.95,2.74 -9,3.91zm-123.96,-5.73c-2.88,-1.49 -5.74,-3.14 -8.5,-4.88l1.3,-2.05c2.7,1.71 5.49,3.31 8.32,4.77l-1.12,2.16zm141.58,-2.86l-1.26,-2.08c2.7,-1.62 5.39,-3.4 8.02,-5.29l1.42,1.98c-2.68,1.92 -5.44,3.73 -8.18,5.39zm-158.13,-7.61c-2.54,-1.92 -5.09,-4.01 -7.58,-6.21l1.61,-1.82c2.44,2.16 4.95,4.21 7.43,6.1l-1.46,1.93zm174.04,-3.78l-1.56,-1.87c2.39,-1.98 4.8,-4.13 7.19,-6.39l1.67,1.76c-2.43,2.29 -4.89,4.48 -7.3,6.5zm-188.73,-9.14c-1.53,-1.54 -3.07,-3.17 -4.6,-4.83c-0.71,-0.76 -1.4,-1.54 -2.08,-2.31l1.82,-1.6c0.68,0.76 1.36,1.52 2.04,2.27c1.51,1.64 3.04,3.24 4.54,4.76l-1.72,1.71zm202.94,-4.25l-1.76,-1.68c0.32,-0.33 0.64,-0.67 0.95,-1c1.88,-1.98 3.71,-4.07 5.45,-6.18l1.88,1.54c-1.78,2.16 -3.65,4.28 -5.56,6.3c-0.31,0.34 -0.64,0.68 -0.96,1.02zm-215.77,-10.53c-1.92,-2.6 -3.78,-5.31 -5.52,-8.09l2.05,-1.29c1.71,2.72 3.54,5.4 5.42,7.94l-1.95,1.44zm228.22,-4.57l-1.98,-1.39c1.82,-2.6 3.59,-5.31 5.23,-8.06l2.08,1.25c-1.68,2.8 -3.47,5.57 -5.33,8.2zm-238.65,-12c-1.5,-2.83 -2.94,-5.79 -4.28,-8.79l2.22,-0.99c1.32,2.96 2.73,5.87 4.21,8.64l-2.15,1.14zm248.72,-4.78l-2.17,-1.09c1.43,-2.82 2.8,-5.75 4.06,-8.72l2.23,0.95c-1.29,3.02 -2.67,6.01 -4.12,8.86zm-256.68,-13.07c-1.12,-3 -2.17,-6.12 -3.13,-9.26l2.32,-0.71c0.95,3.1 1.98,6.17 3.08,9.12l-2.27,0.85zm264.34,-4.91l-2.28,-0.8c1.05,-2.98 2.04,-6.06 2.94,-9.17l2.33,0.67c-0.91,3.16 -1.92,6.29 -2.99,9.3zm-270.07,-13.77c-0.76,-3.1 -1.47,-6.31 -2.09,-9.53l2.37,-0.47c0.62,3.19 1.33,6.36 2.08,9.42l-2.36,0.58zm275.52,-4.98l-2.36,-0.55c0.72,-3.07 1.37,-6.25 1.94,-9.45l2.4,0.43c-0.6,3.24 -1.25,6.46 -1.98,9.57zm-279.26,-14.17c-0.47,-3.14 -0.89,-6.4 -1.23,-9.68l2.41,-0.26c0.35,3.25 0.75,6.47 1.22,9.58l-2.4,0.36zm282.74,-5.04l-2.41,-0.32c0.43,-3.12 0.79,-6.35 1.08,-9.59l2.42,0.22c-0.3,3.27 -0.67,6.54 -1.09,9.69zm-284.81,-14.35c-0.21,-3.17 -0.38,-6.45 -0.49,-9.74l2.43,-0.07c0.11,3.25 0.27,6.5 0.48,9.64l-2.42,0.17zm286.59,-5.06l-2.42,-0.14c0.16,-3.14 0.27,-6.39 0.32,-9.65l2.43,0.04c-0.06,3.28 -0.17,6.56 -0.33,9.75zm-284.8,-14.42l-2.43,0l0,-9.7l2.43,0l0,9.7zm285.17,-5.05l-2.43,0l0,-9.71l2.43,0l0,9.71zm-285.17,-14.36l-2.43,0l0,-9.7l2.43,0l0,9.7zm285.17,-5.05l-2.43,0l0,-9.71l2.43,0l0,9.71zm-285.17,-14.36l-2.43,0l0,-9.7l2.43,0l0,9.7zm285.17,-5.05l-2.43,0l0,-9.71l2.43,0l0,9.71zm-285.17,-14.35l-2.43,0l0,-9.72l2.43,0l0,9.72zm285.17,-5.06l-2.43,0l0,-9.71l2.43,0l0,9.71zm-285.17,-14.36l-2.43,0l0,-9.7l2.43,0l0,9.7zm285.17,-5.05l-2.43,0l0,-9.71l2.43,0l0,9.71zm-285.17,-14.36l-2.43,0l0,-9.71l2.43,0l0,9.71zm285.17,-5.05l-2.43,0l0,-9.71l2.43,0l0,9.71zm-285.17,-14.36l-2.43,0l0,-9.7l2.43,0l0,9.7zm285.17,-5.06l-2.43,0l0,-9.7l2.43,0l0,9.7zm-285.17,-14.35l-2.43,0l0,-9.71l2.43,0l0,9.71zm285.17,-5.05l-2.43,0l0,-9.71l2.43,0l0,9.71zm-285.17,-14.36l-2.43,0l0,-9.7l2.43,0l0,9.7zm285.17,-5.06l-2.43,0l0,-9.7l2.43,0l0,9.7zm-285.17,-14.34l-2.43,0l0,-9.72l2.43,0l0,9.72zm285.17,-5.06l-2.43,0l0,-9.71l2.43,0l0,9.71zm-285.17,-14.36l-2.43,0l0,-9.7l2.43,0l0,9.7zm285.17,-5.06l-2.43,0l0,-9.7l2.43,0l0,9.7zm-285.17,-14.34l-2.43,0l0,-9.72l2.43,0l0,9.72zm285.17,-5.06l-2.43,0l0,-9.71l2.43,0l0,9.71zm-285.17,-14.36l-2.43,0l0,-9.7l2.43,0l0,9.7zm285.17,-5.06l-2.43,0l0,-9.7l2.43,0l0,9.7zm0,-19.4l-2.43,0l0,-9.71l2.43,0l0,9.71zm0,-19.42l-2.43,0l0,-1.82l2.43,0l0,1.82z" fill="#59595C" id="svg_153"/>
   <path d="m986.52,377.83l-9.93,17.2l19.86,0l-9.93,-17.2z" fill="#59595C" id="svg_154"/>
   <path d="m704.18,383.62l-3.14,0c-0.36,0 -0.69,0.16 -0.92,0.43l-9.23,10.79c-0.4,0.48 -0.38,1.2 0.07,1.65l1.76,1.75c0.47,0.47 1.23,0.47 1.7,0l5.41,-5.34l0,23.38c0,0.67 0.54,1.22 1.21,1.22l3.14,0c0.66,0 1.21,-0.55 1.21,-1.22l0,-31.45c0,-0.66 -0.55,-1.21 -1.21,-1.21z" fill="#FCFDFF" id="svg_156"/>
  </g>
 </g>
</svg>