<?xml version="1.0"?>
<svg width="2000" height="2000" xmlns="http://www.w3.org/2000/svg" xmlns:svg="http://www.w3.org/2000/svg" enable-background="new 0 0 2000 2000" version="1.1" xml:space="preserve">
 <g class="layer">
  <title>Layer 1</title>
  <g id="svg_147" transform="matrix(1 0 0 1 0 0)">
   <path d="m1191.72,872.2c-23.43,0 -44.52,-14.77 -52.48,-36.73l-79.73,-220.16c-4.68,-12.93 -2.74,-27.37 5.18,-38.62c7.92,-11.25 20.88,-17.97 34.68,-17.97l4.45,0c17.99,0 34.06,11.37 40,28.31l49.1,140.18l48.34,-139.99c5.88,-17.05 21.98,-28.5 40.06,-28.5l3.23,0c13.8,0 26.77,6.73 34.69,18.01c7.93,11.27 9.84,25.72 5.13,38.66l-80.21,220.17c-7.98,21.92 -29.06,36.64 -52.44,36.64z" fill="#FFFFFF" id="svg_148"/>
   <g id="svg_149">
    <defs>
     <rect height="323.75" id="SVGID_00000174601121394444881360000002064228313863606192_" width="282.88" x="1050.49" y="553.58"/>
    </defs>
    <clipPath id="SVGID_00000052822465611235560590000010713292397159144880_">
     <use href="#SVGID_00000174601121394444881360000002064228313863606192_" id="svg_150" overflow="visible"/>
    </clipPath>
    <g clip-path="url(#SVGID_00000052822465611235560590000010713292397159144880_)" id="svg_151">
     <path d="m1284.55,558.72c13.8,0 26.77,6.73 34.69,18c7.93,11.28 9.84,25.73 5.13,38.67l-80.21,220.17c-7.98,21.92 -29.06,36.64 -52.44,36.64c-23.43,0 -44.52,-14.76 -52.48,-36.73l-79.72,-220.16c-4.69,-12.93 -2.75,-27.37 5.17,-38.62c7.92,-11.25 20.89,-17.97 34.68,-17.97l4.45,0c17.99,0 34.06,11.38 40,28.31l49.11,140.18l48.33,-139.99c5.88,-17.05 21.98,-28.5 40.06,-28.5l3.23,0m0,-5.14l-3.23,0c-20.28,0 -38.33,12.84 -44.94,31.96l-43.49,125.98l-44.21,-126.19c-6.66,-18.99 -24.68,-31.75 -44.86,-31.75l-4.45,0c-15.48,0 -30.01,7.53 -38.9,20.16c-8.88,12.61 -11.06,28.81 -5.81,43.32l79.73,220.15c8.69,24.01 31.73,40.13 57.33,40.13c25.54,0 48.57,-16.08 57.29,-40.02l80.2,-220.18c5.29,-14.51 3.14,-30.72 -5.75,-43.37c-8.88,-12.64 -23.43,-20.19 -38.91,-20.19z" id="svg_152"/>
    </g>
   </g>
   <path d="m1213.11,796.14l-2.43,-0.88l3.53,-9.66l2.41,0.87l-3.51,9.67zm7.04,-19.33l-2.43,-0.88l3.53,-9.66l2.41,0.88l-3.51,9.66zm7.04,-19.32l-2.43,-0.87l3.52,-9.67l2.42,0.88l-3.51,9.66zm7.04,-19.32l-2.43,-0.88l3.52,-9.66l2.42,0.87l-3.51,9.67zm7.04,-19.32l-2.43,-0.88l3.52,-9.66l2.42,0.87l-3.51,9.67zm7.03,-19.33l-2.42,-0.87l3.52,-9.67l2.42,0.88l-3.52,9.66zm7.04,-19.32l-2.42,-0.88l3.52,-9.66l2.42,0.87l-3.52,9.67zm7.04,-19.32l-2.42,-0.88l3.52,-9.66l2.42,0.87l-3.52,9.67zm7.04,-19.33l-2.42,-0.87l3.52,-9.67l2.42,0.88l-3.52,9.66zm7.04,-19.32l-2.43,-0.88l3.53,-9.66l2.41,0.87l-3.51,9.67zm7.04,-19.32l-2.43,-0.88l3.53,-9.66l2.41,0.87l-3.51,9.67z" fill="#59595C" id="svg_153"/>
   <path d="m1188.84,846.42l-3.5,-9.67l2.43,-0.87l3.5,9.67l-2.43,0.87zm-7,-19.34l-3.5,-9.67l2.42,-0.87l3.5,9.67l-2.42,0.87zm-7,-19.33l-3.5,-9.67l2.42,-0.87l3.5,9.66l-2.42,0.88zm-7.01,-19.34l-3.5,-9.67l2.43,-0.87l3.5,9.67l-2.43,0.87zm-7,-19.34l-3.5,-9.66l2.42,-0.88l3.5,9.67l-2.42,0.87zm-7,-19.33l-3.5,-9.67l2.42,-0.88l3.5,9.68l-2.42,0.87zm-7,-19.34l-3.5,-9.67l2.42,-0.87l3.5,9.67l-2.42,0.87zm-7,-19.33l-3.5,-9.67l2.42,-0.87l3.49,9.66l-2.41,0.88zm-7.01,-19.34l-3.5,-9.67l2.43,-0.87l3.5,9.66l-2.43,0.88zm-7,-19.34l-3.5,-9.66l2.42,-0.88l3.51,9.67l-2.43,0.87zm-7,-19.34l-3.5,-9.66l2.42,-0.88l3.5,9.68l-2.42,0.86zm-7,-19.33l-3.51,-9.67l2.43,-0.87l3.5,9.67l-2.42,0.87zm-7.01,-19.33l-3.5,-9.68l2.42,-0.86l3.51,9.66l-2.43,0.88z" fill="#59595C" id="svg_154"/>
   <path d="m1294.42,600.03l-19.93,-6.9l15.96,-13.77l3.97,20.67z" fill="#59595C" id="svg_155"/>
   <path d="m1191.37,850.33l-15.75,-14l20.04,-6.6l-4.29,20.6z" fill="#59595C" id="svg_156"/>
   <path d="m1105.22,586.84l-2.99,0c-0.34,0 -0.66,0.15 -0.88,0.41l-8.82,10.28c-0.39,0.46 -0.37,1.14 0.06,1.57l1.68,1.67c0.45,0.45 1.19,0.45 1.64,0l5.16,-5.08l0,22.28c0,0.64 0.52,1.16 1.16,1.16l2.99,0c0.64,0 1.16,-0.52 1.16,-1.16l0,-29.97c0,-0.63 -0.52,-1.16 -1.16,-1.16z" fill="#FCFDFF" id="svg_158"/>
   <path d="m1221.96,810.67l-13.11,0c0.17,-0.31 0.4,-0.63 0.71,-0.96c0.82,-0.91 2.14,-2.12 3.93,-3.58l-0.03,-0.03c0.27,-0.18 0.57,-0.44 0.91,-0.73c2.53,-2.13 4.55,-4.23 6.01,-6.22c1.55,-2.12 2.34,-4.57 2.34,-7.28c0,-2.66 -0.91,-4.84 -2.72,-6.46c-1.77,-1.58 -4.14,-2.38 -7.03,-2.38c-2.04,0 -4.02,0.51 -5.9,1.5c-1.87,0.98 -3.46,2.37 -4.74,4.12c-0.36,0.48 -0.27,1.17 0.19,1.55l2.42,2.07c0.24,0.21 0.55,0.32 0.89,0.27c0.31,-0.03 0.61,-0.2 0.79,-0.46c0.94,-1.24 1.95,-2.2 3.01,-2.84c2.03,-1.23 4.86,-1.22 6.33,0.09c0.7,0.64 1.05,1.47 1.05,2.55c0,1.8 -0.46,3.35 -1.39,4.71c-0.99,1.45 -2.41,2.97 -4.27,4.54c-0.1,0.09 -0.58,0.48 -1.46,1.19c-1.52,1.25 -2.76,2.35 -3.69,3.26c-0.95,0.94 -1.77,2.02 -2.43,3.21c-0.69,1.27 -1.04,2.66 -1.04,4.14l0,1.89c0,0.63 0.52,1.15 1.16,1.15l18.07,0c0.63,0 1.16,-0.52 1.16,-1.15l0,-2.99c0,-0.64 -0.53,-1.16 -1.16,-1.16z" fill="#FCFDFF" id="svg_160"/>
  </g>
 </g>
</svg>