<?xml version="1.0"?>
<svg width="2000" height="2000" xmlns="http://www.w3.org/2000/svg" xmlns:svg="http://www.w3.org/2000/svg" enable-background="new 0 0 2000 2000" version="1.1" xml:space="preserve">
 <g class="layer">
  <title>Layer 1</title>
  <g id="svg_147" transform="matrix(1 0 0 1 0 0)">
   <path d="m833.77,873.12c-28.85,0 -54.6,-18.34 -64.07,-45.63l-139.81,-402.95c-5.64,-16.23 -3.06,-34.28 6.88,-48.29c9.95,-14 26.13,-22.36 43.29,-22.36l1.3,0c22.82,0 43.04,14.54 50.33,36.19l102.28,303.73l103.87,-303.95c7.34,-21.52 27.54,-35.97 50.25,-35.97c17.17,0 33.36,8.37 43.3,22.39c9.94,14.03 12.5,32.1 6.84,48.33l-140.42,402.96c-9.49,27.25 -35.22,45.55 -64.04,45.55z" fill="#FFFFFF" id="svg_161"/>
   <g id="svg_162">
    <defs>
     <rect height="529.02" id="SVGID_00000078030720222296985580000015148034574272307877_" width="426.15" x="620.66" y="348.98"/>
    </defs>
    <clipPath id="SVGID_00000164480110488634430730000004091261858260735121_">
     <use href="#SVGID_00000078030720222296985580000015148034574272307877_" id="svg_163" overflow="visible"/>
    </clipPath>
    <g clip-path="url(#SVGID_00000164480110488634430730000004091261858260735121_)" id="svg_164">
     <path d="m988.08,353.89c17.17,0 33.37,8.37 43.31,22.39c9.94,14.03 12.5,32.1 6.83,48.33l-140.41,402.96c-9.49,27.25 -35.22,45.55 -64.04,45.55c-28.85,0 -54.6,-18.34 -64.07,-45.63l-139.81,-402.95c-5.64,-16.23 -3.06,-34.28 6.88,-48.29c9.95,-14 26.13,-22.36 43.29,-22.36l1.3,0c22.82,0 43.04,14.54 50.33,36.19l102.28,303.73l103.87,-303.95c7.34,-21.51 27.54,-35.97 50.24,-35.97m0,-4.87c-24.79,0 -46.82,15.78 -54.84,39.27l-99.25,290.4l-97.69,-290.16c-7.96,-23.63 -30.04,-39.51 -54.93,-39.51l-1.31,0c-18.73,0 -36.39,9.13 -47.25,24.41c-10.85,15.29 -13.66,34.99 -7.51,52.71l139.81,402.94c10.15,29.25 37.74,48.91 68.66,48.91c30.88,0 58.46,-19.62 68.63,-48.82l140.41,-402.95c6.18,-17.73 3.39,-37.45 -7.45,-52.75c-10.86,-15.31 -28.53,-24.45 -47.28,-24.45z" id="svg_165"/>
    </g>
   </g>
   <path d="m855.78,791.69l-2.29,-0.8l3.2,-9.19l2.3,0.8l-3.21,9.19zm6.41,-18.37l-2.3,-0.8l3.2,-9.19l2.3,0.81l-3.2,9.18zm6.4,-18.38l-2.3,-0.8l3.2,-9.18l2.3,0.8l-3.2,9.18zm6.4,-18.36l-2.29,-0.81l3.2,-9.18l2.29,0.79l-3.2,9.2zm6.4,-18.38l-2.29,-0.81l3.2,-9.18l2.3,0.8l-3.21,9.19zm6.4,-18.38l-2.29,-0.79l3.2,-9.2l2.3,0.81l-3.21,9.18zm6.41,-18.37l-2.3,-0.8l3.2,-9.18l2.3,0.79l-3.2,9.19zm6.4,-18.37l-2.29,-0.8l3.2,-9.19l2.29,0.8l-3.2,9.19zm6.4,-18.37l-2.29,-0.8l3.2,-9.19l2.29,0.8l-3.2,9.19zm6.4,-18.38l-2.29,-0.8l3.2,-9.18l2.29,0.8l-3.2,9.18zm6.4,-18.37l-2.29,-0.8l3.2,-9.18l2.29,0.79l-3.2,9.19zm6.4,-18.37l-2.29,-0.8l3.21,-9.19l2.28,0.81l-3.2,9.18zm6.41,-18.38l-2.29,-0.79l3.2,-9.2l2.29,0.81l-3.2,9.18zm6.4,-18.37l-2.29,-0.8l3.2,-9.18l2.29,0.79l-3.2,9.19zm6.4,-18.37l-2.29,-0.81l3.2,-9.18l2.29,0.8l-3.2,9.19zm6.4,-18.38l-2.29,-0.79l3.2,-9.2l2.29,0.81l-3.2,9.18zm6.4,-18.37l-2.29,-0.8l3.2,-9.18l2.3,0.8l-3.21,9.18zm6.41,-18.37l-2.3,-0.8l3.2,-9.19l2.3,0.8l-3.2,9.19zm6.4,-18.37l-2.3,-0.8l3.2,-9.19l2.3,0.8l-3.2,9.19zm6.4,-18.38l-2.29,-0.8l3.2,-9.18l2.29,0.8l-3.2,9.18zm6.4,-18.37l-2.29,-0.8l3.2,-9.18l2.3,0.79l-3.21,9.19zm6.41,-18.37l-2.3,-0.81l3.2,-9.18l2.3,0.8l-3.2,9.19z" fill="#59595C" id="svg_166"/>
   <path d="m826.83,830.4l-3.2,-9.19l2.3,-0.81l3.19,9.2l-2.29,0.8zm-6.38,-18.38l-3.19,-9.2l2.29,-0.79l3.19,9.19l-2.29,0.8zm-6.38,-18.39l-3.19,-9.19l2.29,-0.8l3.19,9.2l-2.29,0.79zm-6.38,-18.38l-3.19,-9.19l2.3,-0.8l3.19,9.19l-2.3,0.8zm-6.38,-18.38l-3.18,-9.19l2.29,-0.8l3.19,9.19l-2.3,0.8zm-6.38,-18.38l-3.18,-9.19l2.29,-0.8l3.19,9.19l-2.3,0.8zm-6.37,-18.38l-3.19,-9.19l2.29,-0.8l3.19,9.19l-2.29,0.8zm-6.38,-18.38l-3.19,-9.2l2.3,-0.79l3.18,9.19l-2.29,0.8zm-6.38,-18.39l-3.19,-9.18l2.3,-0.81l3.19,9.2l-2.3,0.79zm-6.38,-18.37l-3.19,-9.2l2.3,-0.79l3.19,9.18l-2.3,0.81zm-6.38,-18.39l-3.18,-9.19l2.29,-0.8l3.19,9.2l-2.3,0.79zm-6.37,-18.38l-3.19,-9.19l2.29,-0.8l3.19,9.19l-2.29,0.8zm-6.38,-18.38l-3.19,-9.19l2.3,-0.8l3.18,9.19l-2.29,0.8zm-6.38,-18.38l-3.19,-9.19l2.3,-0.81l3.19,9.2l-2.3,0.8zm-6.37,-18.38l-3.2,-9.19l2.3,-0.8l3.19,9.19l-2.29,0.8zm-6.38,-18.39l-3.19,-9.19l2.29,-0.79l3.19,9.19l-2.29,0.79zm-6.38,-18.38l-3.19,-9.19l2.29,-0.8l3.2,9.2l-2.3,0.79zm-6.38,-18.38l-3.19,-9.19l2.29,-0.8l3.2,9.19l-2.3,0.8zm-6.38,-18.38l-3.18,-9.19l2.29,-0.8l3.19,9.19l-2.3,0.8zm-6.38,-18.38l-3.18,-9.19l2.29,-0.8l3.19,9.19l-2.3,0.8zm-6.38,-18.38l-3.18,-9.2l2.29,-0.79l3.19,9.19l-2.3,0.8zm-6.38,-18.39l-3.18,-9.18l2.3,-0.81l3.18,9.2l-2.3,0.79zm-6.37,-18.37l-3.19,-9.2l2.3,-0.79l3.18,9.18l-2.29,0.81z" fill="#59595C" id="svg_167"/>
   <path d="m997.84,379.1l-15.17,12.87l18.72,6.72l-3.55,-19.59z" fill="#59595C" id="svg_168"/>
   <path d="m832.75,844.4l4.22,-19.45l-18.93,6.07l14.71,13.38z" fill="#59595C" id="svg_169"/>
   <path d="m682.41,387.32l-3.14,0c-0.36,0 -0.69,0.16 -0.92,0.43l-9.24,10.81c-0.41,0.49 -0.38,1.21 0.07,1.66l1.76,1.75c0.47,0.47 1.24,0.47 1.71,0.01l5.4,-5.36l0,23.44c0,0.67 0.55,1.22 1.22,1.22l3.14,0c0.67,0 1.21,-0.55 1.21,-1.22l0,-31.52c0,-0.67 -0.54,-1.22 -1.21,-1.22z" fill="#FCFDFF" id="svg_171"/>
   <path d="m864.42,807.12l-13.73,0c0.18,-0.34 0.43,-0.68 0.74,-1.02c0.86,-0.96 2.25,-2.23 4.12,-3.76l-0.02,-0.03c0.28,-0.2 0.6,-0.46 0.95,-0.77c2.64,-2.24 4.76,-4.44 6.29,-6.54c1.62,-2.24 2.45,-4.81 2.45,-7.65c0,-2.82 -0.96,-5.1 -2.84,-6.81c-1.86,-1.65 -4.35,-2.49 -7.37,-2.49c-2.13,0 -4.21,0.52 -6.18,1.57c-1.95,1.03 -3.62,2.5 -4.96,4.33c-0.37,0.51 -0.29,1.23 0.19,1.64l2.54,2.17c0.25,0.22 0.58,0.33 0.93,0.29c0.33,-0.04 0.63,-0.22 0.83,-0.49c0.98,-1.31 2.04,-2.32 3.15,-2.98c2.13,-1.3 5.1,-1.3 6.62,0.08c0.74,0.68 1.1,1.55 1.1,2.69c0,1.9 -0.47,3.52 -1.45,4.95c-1.03,1.53 -2.52,3.12 -4.47,4.78c-0.1,0.09 -0.6,0.5 -1.52,1.25c-1.6,1.31 -2.9,2.47 -3.86,3.42c-1.01,0.99 -1.86,2.14 -2.55,3.38c-0.73,1.34 -1.09,2.8 -1.09,4.35l0,1.99c0,0.67 0.54,1.22 1.21,1.22l18.92,0c0.67,0 1.21,-0.54 1.21,-1.22l0,-3.14c0,-0.67 -0.54,-1.21 -1.21,-1.21z" fill="#FCFDFF" id="svg_173"/>
  </g>
 </g>
</svg>