<?xml version="1.0"?>
<svg width="2000" height="2000" xmlns="http://www.w3.org/2000/svg" xmlns:svg="http://www.w3.org/2000/svg" enable-background="new 0 0 2000 2000" version="1.1" xml:space="preserve">
 <g class="layer">
  <title>Layer 1</title>
  <g id="svg_147">
   <path d="m1325.57,817.02c-20.44,0 -38.32,-13.06 -44.5,-32.49l-30.8,-96.75l-33.58,97.76c-6.47,18.83 -24.22,31.48 -44.18,31.48c-20.21,0 -38.04,-12.86 -44.36,-32.03l-65.42,-198.36c-3.84,-11.63 -1.92,-23.98 5.27,-33.9c7.21,-9.92 18.36,-15.61 30.64,-15.61l4.84,0c16.46,0 30.93,10.51 35.98,26.14l35.13,108.63l33.98,-103.36c6.18,-18.79 23.64,-31.41 43.45,-31.41c19.99,0 37.5,12.77 43.57,31.76l32.28,100.97l34.35,-106.56c5.05,-15.65 19.52,-26.17 36,-26.17l1.4,0c12.24,0 23.38,5.67 30.59,15.55c7.19,9.88 9.15,22.21 5.37,33.83l-64.57,198.33c-6.26,19.25 -24.12,32.19 -44.41,32.19l-1.03,0z" fill="#FFFFFF" id="svg_169"/>
   <g id="svg_170">
    <defs>
     <rect height="289.07" id="SVGID_00000081616548975337745610000015672719964367372700_" width="389.7" x="1054.3" y="532.53"/>
    </defs>
    <clipPath id="SVGID_00000141438239147352640220000006194456944032738234_">
     <use href="#SVGID_00000081616548975337745610000015672719964367372700_" id="svg_171" overflow="visible"/>
    </clipPath>
    <g clip-path="url(#SVGID_00000141438239147352640220000006194456944032738234_)" id="svg_172">
     <path d="m1399.62,537.12c12.24,0 23.39,5.66 30.59,15.55c7.19,9.88 9.15,22.21 5.37,33.83l-64.57,198.33c-6.26,19.25 -24.12,32.19 -44.41,32.19l-1.03,0c-20.44,0 -38.32,-13.06 -44.5,-32.49l-30.8,-96.75l-33.58,97.76c-6.47,18.83 -24.22,31.48 -44.18,31.48c-20.21,0 -38.04,-12.87 -44.36,-32.03l-65.42,-198.36c-3.84,-11.63 -1.92,-23.98 5.27,-33.9c7.21,-9.92 18.36,-15.61 30.64,-15.61l4.84,0c16.46,0 30.93,10.51 35.98,26.14l35.13,108.63l33.98,-103.36c6.18,-18.79 23.64,-31.41 43.45,-31.41c19.99,0 37.5,12.77 43.57,31.76l32.28,100.97l34.35,-106.56c5.05,-15.65 19.52,-26.17 36,-26.17l1.4,0m0,-4.59l-1.4,0c-18.49,0 -34.72,11.8 -40.37,29.36l-29.95,92.92l-27.92,-87.32c-6.69,-20.91 -25.96,-34.96 -47.96,-34.96c-21.8,0 -41.02,13.89 -47.82,34.57l-29.58,89.96l-30.78,-95.2c-5.67,-17.54 -21.89,-29.33 -40.36,-29.33l-4.84,0c-13.76,0 -26.29,6.38 -34.36,17.51c-8.07,11.13 -10.23,24.99 -5.93,38.03l65.44,198.36c6.94,21.05 26.52,35.18 48.73,35.18c21.92,0 41.42,-13.9 48.53,-34.59l29.05,-84.61l26.58,83.51c6.79,21.35 26.44,35.69 48.89,35.69l1.03,0c22.29,0 41.91,-14.22 48.79,-35.37l64.56,-198.33c4.24,-13.03 2.05,-26.86 -6.02,-37.94c-8.07,-11.08 -20.58,-17.44 -34.31,-17.44z" id="svg_173"/>
    </g>
   </g>
   <path d="m1343.61,752.56l-2.19,-0.71l2.85,-8.73l2.18,0.7l-2.84,8.74zm5.68,-17.46l-2.19,-0.71l2.84,-8.73l2.2,0.71l-2.85,8.73zm5.68,-17.46l-2.18,-0.71l2.84,-8.73l2.19,0.71l-2.85,8.73zm5.69,-17.46l-2.19,-0.71l2.84,-8.72l2.19,0.71l-2.84,8.72zm5.68,-17.45l-2.18,-0.72l2.84,-8.73l2.18,0.71l-2.84,8.74zm5.69,-17.46l-2.19,-0.71l2.84,-8.73l2.19,0.71l-2.84,8.73zm5.68,-17.47l-2.19,-0.7l2.85,-8.73l2.18,0.71l-2.84,8.72zm5.68,-17.45l-2.19,-0.71l2.85,-8.73l2.19,0.71l-2.85,8.73zm5.68,-17.46l-2.18,-0.71l2.84,-8.72l2.19,0.7l-2.85,8.73zm5.69,-17.45l-2.19,-0.71l2.84,-8.74l2.19,0.71l-2.84,8.74zm5.68,-17.47l-2.18,-0.7l2.84,-8.73l2.18,0.71l-2.84,8.72z" fill="#59595C" id="svg_174"/>
   <path d="m1168.79,782.13l-2.88,-8.72l2.18,-0.72l2.88,8.72l-2.18,0.72zm-5.76,-17.44l-2.87,-8.72l2.19,-0.71l2.87,8.71l-2.19,0.72zm-5.74,-17.44l-2.88,-8.71l2.18,-0.72l2.88,8.71l-2.18,0.72zm-5.76,-17.43l-2.88,-8.72l2.19,-0.72l2.87,8.73l-2.18,0.71zm-5.75,-17.44l-2.87,-8.72l2.18,-0.71l2.88,8.71l-2.19,0.72zm-5.75,-17.43l-2.88,-8.72l2.19,-0.72l2.87,8.72l-2.18,0.72zm-5.75,-17.44l-2.87,-8.72l2.18,-0.72l2.88,8.72l-2.19,0.72zm-5.75,-17.43l-2.88,-8.72l2.19,-0.72l2.87,8.72l-2.18,0.72zm-5.76,-17.45l-2.87,-8.71l2.19,-0.72l2.87,8.72l-2.19,0.71zm-5.74,-17.42l-2.88,-8.73l2.18,-0.71l2.88,8.72l-2.18,0.72zm-5.76,-17.45l-2.87,-8.71l2.18,-0.72l2.88,8.71l-2.19,0.72zm-5.75,-17.43l-2.87,-8.72l2.18,-0.72l2.88,8.73l-2.19,0.71z" fill="#59595C" id="svg_175"/>
   <path d="m1104.37,562.43l-2.67,0c-0.3,0 -0.59,0.14 -0.79,0.37l-7.87,9.17c-0.34,0.41 -0.33,1.02 0.06,1.41l1.5,1.49c0.4,0.4 1.05,0.4 1.45,0.01l4.61,-4.55l0,19.89c0,0.57 0.47,1.04 1.04,1.04l2.67,0c0.57,0 1.03,-0.47 1.03,-1.04l0,-26.75c0,-0.57 -0.46,-1.04 -1.03,-1.04z" fill="#FCFDFF" id="svg_177"/>
   <path d="m1175.28,797.49l-14.05,-12.5l17.88,-5.88l-3.83,18.38z" fill="#59595C" id="svg_178"/>
   <path d="m1322.17,782.13l-2.88,-8.72l2.18,-0.72l2.88,8.72l-2.18,0.72zm-5.76,-17.44l-2.87,-8.72l2.19,-0.71l2.87,8.71l-2.19,0.72zm-5.74,-17.44l-2.88,-8.71l2.18,-0.72l2.88,8.71l-2.18,0.72zm-5.76,-17.43l-2.87,-8.72l2.18,-0.72l2.88,8.73l-2.19,0.71zm-5.75,-17.44l-2.87,-8.72l2.18,-0.71l2.88,8.71l-2.19,0.72zm-5.75,-17.43l-2.88,-8.72l2.19,-0.72l2.87,8.72l-2.18,0.72zm-5.75,-17.44l-2.88,-8.72l2.19,-0.72l2.87,8.72l-2.18,0.72zm-5.75,-17.43l-2.88,-8.72l2.19,-0.72l2.87,8.72l-2.18,0.72zm-5.75,-17.45l-2.88,-8.71l2.18,-0.72l2.88,8.72l-2.18,0.71zm-5.76,-17.42l-2.87,-8.73l2.19,-0.71l2.87,8.72l-2.19,0.72zm-5.74,-17.45l-2.88,-8.71l2.18,-0.72l2.88,8.71l-2.18,0.72zm-5.76,-17.43l-2.88,-8.72l2.2,-0.72l2.86,8.73l-2.18,0.71z" fill="#59595C" id="svg_179"/>
   <path d="m1328.66,797.49l-14.04,-12.5l17.87,-5.88l-3.83,18.38z" fill="#59595C" id="svg_180"/>
   <path d="m1410.3,573.71l-18.19,-4.86l13.31,-13.29l4.88,18.15z" fill="#59595C" id="svg_181"/>
   <path d="m1192.99,747.43l-2.18,-0.7l2.84,-8.73l2.19,0.71l-2.85,8.72zm5.69,-17.46l-2.19,-0.71l2.84,-8.72l2.19,0.71l-2.84,8.72zm5.68,-17.45l-2.19,-0.71l2.85,-8.73l2.18,0.71l-2.84,8.73zm5.69,-17.46l-2.19,-0.71l2.84,-8.73l2.19,0.71l-2.84,8.73zm5.67,-17.46l-2.18,-0.71l2.85,-8.73l2.18,0.71l-2.85,8.73zm5.69,-17.46l-2.19,-0.71l2.85,-8.72l2.19,0.71l-2.85,8.72zm5.68,-17.45l-2.18,-0.71l2.84,-8.74l2.19,0.71l-2.85,8.74zm5.69,-17.46l-2.19,-0.71l2.84,-8.73l2.19,0.71l-2.84,8.73z" fill="#59595C" id="svg_182"/>
   <path d="m1242.93,619.23l-17.93,-5.74l13.95,-12.62l3.98,18.36z" fill="#59595C" id="svg_183"/>
   <path d="m1349.99,756.12l-2.39,0l0,-17.1c0,-0.56 -0.47,-1.03 -1.04,-1.03l-2.67,0c-0.33,0 -0.64,0.16 -0.84,0.41l-13.45,18.14c-0.12,0.17 -0.2,0.39 -0.2,0.61l0,2.67c0,0.57 0.47,1.03 1.04,1.03l12.41,0l0,4.93c0,0.57 0.47,1.04 1.04,1.04l2.67,0c0.57,0 1.03,-0.47 1.03,-1.04l0,-4.93l2.4,0c0.57,0 1.03,-0.46 1.03,-1.03l0,-2.67c0,-0.57 -0.46,-1.03 -1.03,-1.03zm-14.64,0l7.5,-9.87l0,9.87l-7.5,0z" fill="#FCFDFF" id="svg_186"/>
   <path d="m1196.92,762.08l-11.7,0c0.15,-0.28 0.36,-0.57 0.63,-0.87c0.73,-0.81 1.91,-1.88 3.51,-3.18l-0.02,-0.03c0.24,-0.17 0.51,-0.39 0.81,-0.65c2.25,-1.9 4.06,-3.77 5.36,-5.55c1.39,-1.9 2.09,-4.09 2.09,-6.5c0,-2.39 -0.82,-4.33 -2.43,-5.78c-1.58,-1.4 -3.69,-2.12 -6.28,-2.12c-1.81,0 -3.58,0.45 -5.26,1.34c-1.66,0.88 -3.09,2.11 -4.22,3.68c-0.32,0.43 -0.25,1.03 0.16,1.39l2.16,1.84c0.22,0.19 0.5,0.28 0.79,0.24c0.28,-0.03 0.54,-0.18 0.71,-0.4c0.83,-1.12 1.74,-1.98 2.68,-2.55c1.82,-1.09 4.35,-1.09 5.65,0.08c0.64,0.58 0.94,1.32 0.94,2.28c0,1.61 -0.4,2.99 -1.24,4.21c-0.88,1.3 -2.15,2.65 -3.81,4.05c-0.08,0.07 -0.52,0.43 -1.29,1.06c-1.37,1.12 -2.47,2.1 -3.3,2.91c-0.86,0.85 -1.59,1.81 -2.17,2.87c-0.62,1.13 -0.93,2.37 -0.93,3.69l0,1.69c0,0.57 0.46,1.04 1.03,1.04l16.13,0c0.57,0 1.03,-0.47 1.03,-1.04l0,-2.67c0,-0.57 -0.46,-1.03 -1.03,-1.03z" fill="#FCFDFF" id="svg_188"/>
   <path d="m1260.64,577.94c-0.6,-0.85 -1.32,-1.54 -2.14,-2.07c0.56,-0.47 1.05,-1.03 1.45,-1.68c0.77,-1.24 1.15,-2.68 1.15,-4.29c0,-1.54 -0.35,-2.94 -1.06,-4.15c-0.71,-1.22 -1.72,-2.19 -2.97,-2.88s-2.68,-1.02 -4.24,-1.02c-2.05,0 -3.88,0.57 -5.44,1.7c-1.54,1.11 -2.73,2.64 -3.56,4.53c-0.23,0.48 -0.03,1.06 0.44,1.32l2.17,1.17c0.25,0.14 0.54,0.17 0.8,0.08c0.28,-0.09 0.49,-0.27 0.62,-0.53c0.61,-1.24 1.34,-2.19 2.16,-2.84c0.76,-0.6 1.68,-0.9 2.81,-0.9c1,0 1.8,0.32 2.42,0.97c0.64,0.65 0.96,1.49 0.96,2.55c0,1.21 -0.34,2.15 -1.03,2.89c-0.66,0.72 -1.55,1.06 -2.7,1.06l-1.73,0c-0.57,0 -1.03,0.47 -1.03,1.04l0,2.43c0,0.57 0.46,1.03 1.03,1.03l1.89,0c1.35,0 2.42,0.42 3.27,1.26c0.86,0.86 1.28,1.93 1.28,3.28c0,1.3 -0.41,2.33 -1.25,3.15c-0.85,0.83 -1.87,1.23 -3.15,1.23c-1.07,0 -1.99,-0.3 -2.8,-0.93c-0.84,-0.67 -1.56,-1.61 -2.11,-2.79c-0.13,-0.27 -0.36,-0.46 -0.64,-0.55c-0.28,-0.08 -0.58,-0.05 -0.83,0.1l-2.36,1.37c-0.44,0.26 -0.63,0.81 -0.43,1.28c0.75,1.85 1.91,3.35 3.46,4.45c1.57,1.12 3.45,1.69 5.6,1.69c1.7,0 3.3,-0.38 4.75,-1.14c1.45,-0.76 2.62,-1.84 3.47,-3.22c0.84,-1.38 1.27,-2.94 1.27,-4.64c0,-1.87 -0.52,-3.53 -1.53,-4.95z" fill="#FCFDFF" id="svg_190"/>
  </g>
 </g>
</svg>