<?xml version="1.0"?>
<svg width="2000" height="2000" xmlns="http://www.w3.org/2000/svg" xmlns:svg="http://www.w3.org/2000/svg" enable-background="new 0 0 2000 2000" version="1.1" xml:space="preserve">
 <g class="layer">
  <title>Layer 1</title>
  <g id="svg_147">
   <path d="m887.62,817.46c-24.1,0 -45.15,-16.28 -51.19,-39.6l-50.07,-193.12l-51.57,193.47c-6.17,23.11 -27.18,39.25 -51.11,39.25c-23.91,0 -44.92,-16.13 -51.09,-39.22l-89.13,-333.84c-3.69,-13.78 -0.8,-28.18 7.89,-39.5c8.7,-11.32 21.87,-17.81 36.15,-17.81c20.87,0 39.04,14.12 44.18,34.33l53.89,211.78l55.93,-211.14c5.46,-20.59 24.16,-34.97 45.47,-34.97c21.32,0 40.01,14.4 45.47,35l56.5,213.71l54.75,-215.58c4.95,-19.5 22.48,-33.13 42.61,-33.13c13.78,0 26.49,6.26 34.87,17.18c8.4,10.91 11.17,24.8 7.62,38.1l-89.67,335.87c-6.16,23.09 -27.17,39.22 -51.09,39.22l-0.41,0z" fill="#FFFFFF" id="svg_148"/>
   <g id="svg_149">
    <defs>
     <rect height="438.42" id="SVGID_00000163769107117898237380000004095829474694172088_" width="498.91" x="536.12" y="383.06"/>
    </defs>
    <clipPath id="SVGID_00000078032676141803861790000014988832045174164384_">
     <use href="#SVGID_00000163769107117898237380000004095829474694172088_" id="svg_150" overflow="visible"/>
    </clipPath>
    <g clip-path="url(#SVGID_00000078032676141803861790000014988832045174164384_)" id="svg_151">
     <path d="m986.31,387.09c13.77,0 26.48,6.26 34.86,17.18c8.4,10.91 11.17,24.8 7.62,38.1l-89.67,335.87c-6.16,23.09 -27.17,39.22 -51.09,39.22l-0.41,0c-24.1,0 -45.15,-16.28 -51.19,-39.6l-50.07,-193.12l-51.57,193.47c-6.17,23.11 -27.18,39.25 -51.11,39.25c-23.91,0 -44.92,-16.13 -51.09,-39.22l-89.13,-333.84c-3.69,-13.78 -0.8,-28.18 7.89,-39.5c8.7,-11.32 21.87,-17.81 36.15,-17.81c20.87,0 39.04,14.12 44.18,34.33l53.89,211.78l55.93,-211.14c5.46,-20.59 24.16,-34.97 45.47,-34.97c21.32,0 40.01,14.4 45.47,35l56.5,213.71l54.75,-215.58c4.95,-19.5 22.48,-33.13 42.62,-33.13m0,-4.03c-21.99,0 -41.12,14.87 -46.53,36.18l-50.93,200.48l-52.51,-198.66c-5.92,-22.37 -26.22,-38 -49.37,-38c-23.13,0 -43.43,15.62 -49.36,37.98l-51.96,196.11l-50.06,-196.72c-5.6,-22 -25.37,-37.37 -48.09,-37.37c-15.54,0 -29.88,7.07 -39.34,19.38c-9.47,12.33 -12.61,28 -8.59,43l89.12,333.83c6.64,24.86 29.25,42.23 54.99,42.23c25.75,0 48.37,-17.38 55,-42.24l47.63,-178.65l46.21,178.26c6.51,25.1 29.16,42.63 55.1,42.63l0.41,0c25.74,0 48.35,-17.37 54.99,-42.23l89.67,-335.86c3.88,-14.52 0.85,-29.68 -8.31,-41.59c-9.16,-11.93 -23.04,-18.76 -38.07,-18.76z" id="svg_152"/>
    </g>
   </g>
   <path d="m700.59,750.02l-1.95,-0.52l2.09,-7.78l1.95,0.52l-2.09,7.78zm4.16,-15.58l-1.95,-0.52l2.08,-7.79l1.95,0.52l-2.08,7.79zm4.16,-15.58l-1.94,-0.52l2.08,-7.8l1.95,0.52l-2.09,7.8zm4.16,-15.58l-1.95,-0.52l2.09,-7.8l1.94,0.52l-2.08,7.8zm4.17,-15.59l-1.95,-0.52l2.07,-7.79l1.95,0.52l-2.07,7.79zm4.15,-15.59l-1.94,-0.52l2.08,-7.78l1.95,0.51l-2.09,7.79zm4.17,-15.58l-1.95,-0.52l2.07,-7.79l1.95,0.52l-2.07,7.79zm4.16,-15.58l-1.95,-0.52l2.08,-7.8l1.95,0.52l-2.08,7.8zm4.16,-15.58l-1.95,-0.52l2.08,-7.8l1.95,0.52l-2.08,7.8zm4.16,-15.59l-1.95,-0.52l2.08,-7.79l1.95,0.52l-2.08,7.79zm4.16,-15.59l-1.95,-0.52l2.08,-7.78l1.95,0.51l-2.08,7.79zm4.16,-15.58l-1.95,-0.52l2.09,-7.79l1.94,0.52l-2.08,7.79zm4.16,-15.58l-1.95,-0.52l2.08,-7.8l1.95,0.53l-2.08,7.79zm4.16,-15.59l-1.94,-0.51l2.07,-7.8l1.95,0.52l-2.08,7.79zm4.16,-15.58l-1.95,-0.52l2.09,-7.79l1.94,0.52l-2.08,7.79zm4.17,-15.58l-1.95,-0.53l2.07,-7.78l1.95,0.51l-2.07,7.8zm4.15,-15.59l-1.95,-0.52l2.09,-7.79l1.95,0.52l-2.09,7.79zm4.17,-15.58l-1.95,-0.52l2.07,-7.8l1.95,0.53l-2.07,7.79zm4.16,-15.59l-1.95,-0.51l2.08,-7.8l1.95,0.52l-2.08,7.79z" fill="#59595C" id="svg_153"/>
   <path d="m904.58,749.92l-1.95,-0.52l2.07,-7.79l1.95,0.52l-2.07,7.79zm4.16,-15.58l-1.95,-0.52l2.08,-7.79l1.95,0.52l-2.08,7.79zm4.16,-15.58l-1.95,-0.52l2.08,-7.8l1.94,0.52l-2.07,7.8zm4.16,-15.59l-1.95,-0.52l2.08,-7.79l1.95,0.52l-2.08,7.79zm4.15,-15.59l-1.94,-0.52l2.08,-7.78l1.95,0.52l-2.09,7.78zm4.17,-15.58l-1.95,-0.52l2.08,-7.79l1.95,0.53l-2.08,7.78zm4.16,-15.58l-1.95,-0.52l2.08,-7.79l1.95,0.52l-2.08,7.79zm4.16,-15.58l-1.95,-0.52l2.09,-7.8l1.94,0.52l-2.08,7.8zm4.16,-15.59l-1.95,-0.52l2.08,-7.79l1.95,0.52l-2.08,7.79zm4.16,-15.59l-1.94,-0.52l2.07,-7.78l1.96,0.52l-2.09,7.78zm4.16,-15.58l-1.95,-0.52l2.09,-7.79l1.94,0.52l-2.08,7.79zm4.17,-15.58l-1.95,-0.52l2.07,-7.79l1.95,0.52l-2.07,7.79zm4.15,-15.58l-1.94,-0.52l2.08,-7.8l1.95,0.52l-2.09,7.8zm4.17,-15.59l-1.95,-0.52l2.07,-7.79l1.95,0.52l-2.07,7.79zm4.16,-15.58l-1.95,-0.53l2.08,-7.78l1.95,0.52l-2.08,7.79zm4.15,-15.59l-1.95,-0.52l2.09,-7.79l1.95,0.52l-2.09,7.79zm4.17,-15.58l-1.95,-0.52l2.08,-7.8l1.95,0.53l-2.08,7.79zm4.16,-15.58l-1.95,-0.52l2.08,-7.8l1.95,0.52l-2.08,7.8zm4.16,-15.59l-1.95,-0.52l2.09,-7.79l1.94,0.52l-2.08,7.79zm4.16,-15.58l-1.95,-0.52l2.08,-7.79l1.95,0.52l-2.08,7.79zm4.16,-15.59l-1.95,-0.52l2.08,-7.79l1.95,0.52l-2.08,7.79zm4.16,-15.58l-1.95,-0.52l0.75,-2.79l1.94,0.52l-0.74,2.79z" fill="#59595C" id="svg_154"/>
   <path d="m679.33,781.67l-2.07,-7.79l1.95,-0.52l2.07,7.79l-1.95,0.52zm-4.16,-15.59l-2.08,-7.79l1.95,-0.51l2.08,7.78l-1.95,0.52zm-4.16,-15.58l-2.07,-7.79l1.94,-0.52l2.09,7.79l-1.96,0.52zm-4.16,-15.58l-2.08,-7.8l1.95,-0.52l2.08,7.8l-1.95,0.52zm-4.15,-15.58l-2.09,-7.8l1.95,-0.52l2.08,7.8l-1.94,0.52zm-4.17,-15.59l-2.08,-7.79l1.94,-0.52l2.09,7.79l-1.95,0.52zm-4.16,-15.59l-2.08,-7.78l1.95,-0.52l2.08,7.78l-1.95,0.52zm-4.16,-15.58l-2.09,-7.79l1.96,-0.52l2.07,7.79l-1.94,0.52zm-4.16,-15.58l-2.08,-7.79l1.95,-0.53l2.08,7.8l-1.95,0.52zm-4.17,-15.59l-2.07,-7.79l1.95,-0.52l2.07,7.79l-1.95,0.52zm-4.15,-15.58l-2.09,-7.79l1.95,-0.52l2.09,7.79l-1.95,0.52zm-4.17,-15.58l-2.07,-7.8l1.95,-0.51l2.07,7.78l-1.95,0.53zm-4.16,-15.59l-2.08,-7.79l1.95,-0.52l2.08,7.79l-1.95,0.52zm-4.15,-15.58l-2.08,-7.79l1.94,-0.53l2.09,7.8l-1.95,0.52zm-4.17,-15.59l-2.08,-7.79l1.95,-0.52l2.08,7.79l-1.95,0.52zm-4.15,-15.58l-2.09,-7.79l1.95,-0.52l2.09,7.79l-1.95,0.52zm-4.17,-15.58l-2.08,-7.8l1.95,-0.52l2.08,7.79l-1.95,0.53zm-4.16,-15.58l-2.08,-7.8l1.95,-0.52l2.08,7.79l-1.95,0.53zm-4.16,-15.59l-2.08,-7.79l1.95,-0.52l2.08,7.79l-1.95,0.52zm-4.16,-15.59l-2.08,-7.78l1.95,-0.53l2.08,7.79l-1.95,0.52zm-4.16,-15.58l-2.08,-7.79l1.95,-0.52l2.07,7.79l-1.94,0.52zm-4.16,-15.58l-2.08,-7.8l1.94,-0.52l2.09,7.8l-1.95,0.52zm-4.17,-15.58l-2.07,-7.8l1.95,-0.52l2.08,7.79l-1.96,0.53z" fill="#59595C" id="svg_155"/>
   <path d="m589.51,414.8l-2.61,0c-0.29,0 -0.57,0.14 -0.76,0.36l-7.67,8.96c-0.34,0.4 -0.32,1 0.06,1.37l1.45,1.46c0.39,0.39 1.03,0.39 1.42,0l4.5,-4.43l0,19.42c0,0.56 0.45,1.01 1,1.01l2.61,0c0.55,0 1,-0.45 1,-1.01l0,-26.12c0,-0.56 -0.45,-1.02 -1,-1.02z" fill="#FCFDFF" id="svg_157"/>
   <path d="m913.71,757.12l-2.32,0l0,-16.68c0,-0.56 -0.46,-1.01 -1.01,-1.01l-2.61,0c-0.32,0 -0.62,0.15 -0.81,0.41l-13.11,17.69c-0.12,0.18 -0.19,0.39 -0.19,0.61l0,2.6c0,0.56 0.45,1.01 1.01,1.01l12.1,0l0,4.82c0,0.55 0.45,1 1,1l2.61,0c0.56,0 1.01,-0.45 1.01,-1l0,-4.82l2.32,0c0.56,0 1.01,-0.45 1.01,-1.01l0,-2.6c0,-0.56 -0.45,-1.02 -1.01,-1.02zm-14.26,0l7.32,-9.62l0,9.62l-7.32,0z" fill="#FCFDFF" id="svg_159"/>
   <path d="m683.56,793.81l4.38,-15.92l-15.98,4.18l11.6,11.74z" fill="#59595C" id="svg_160"/>
   <path d="m710.36,762.75l-11.4,0c0.15,-0.27 0.35,-0.55 0.62,-0.84c0.71,-0.79 1.87,-1.84 3.41,-3.11l-0.01,-0.03c0.23,-0.16 0.49,-0.38 0.79,-0.63c2.19,-1.86 3.96,-3.68 5.22,-5.43c1.35,-1.85 2.03,-3.98 2.03,-6.33c0,-2.34 -0.79,-4.24 -2.36,-5.64c-1.54,-1.38 -3.6,-2.08 -6.12,-2.08c-1.76,0 -3.49,0.44 -5.13,1.31c-1.62,0.85 -3.01,2.07 -4.11,3.59c-0.32,0.42 -0.24,1.01 0.16,1.35l2.11,1.81c0.2,0.18 0.47,0.27 0.76,0.23c0.28,-0.03 0.53,-0.17 0.7,-0.4c0.81,-1.08 1.69,-1.92 2.61,-2.47c1.76,-1.08 4.23,-1.07 5.5,0.07c0.61,0.55 0.91,1.28 0.91,2.22c0,1.58 -0.39,2.92 -1.2,4.11c-0.86,1.27 -2.1,2.59 -3.71,3.96c-0.09,0.08 -0.51,0.42 -1.27,1.04c-1.33,1.08 -2.41,2.05 -3.21,2.83c-0.83,0.83 -1.55,1.77 -2.11,2.81c-0.61,1.1 -0.91,2.31 -0.91,3.6l0,1.65c0,0.56 0.45,1.01 1.01,1.01l15.71,0c0.55,0 1.01,-0.45 1.01,-1.01l0,-2.6c0,-0.56 -0.45,-1.02 -1.01,-1.02z" fill="#FCFDFF" id="svg_162"/>
   <path d="m882.31,781.67l-2.07,-7.79l1.95,-0.52l2.07,7.79l-1.95,0.52zm-4.15,-15.59l-2.09,-7.79l1.95,-0.51l2.08,7.78l-1.94,0.52zm-4.17,-15.58l-2.07,-7.79l1.95,-0.52l2.07,7.79l-1.95,0.52zm-4.16,-15.58l-2.08,-7.8l1.95,-0.52l2.08,7.8l-1.95,0.52zm-4.15,-15.58l-2.09,-7.8l1.95,-0.52l2.09,7.8l-1.95,0.52zm-4.17,-15.59l-2.08,-7.79l1.95,-0.52l2.08,7.79l-1.95,0.52zm-4.16,-15.59l-2.08,-7.78l1.95,-0.52l2.08,7.78l-1.95,0.52zm-4.16,-15.58l-2.08,-7.79l1.94,-0.52l2.09,7.79l-1.95,0.52zm-4.16,-15.58l-2.08,-7.79l1.95,-0.53l2.08,7.8l-1.95,0.52zm-4.16,-15.59l-2.08,-7.79l1.95,-0.52l2.07,7.79l-1.94,0.52zm-4.16,-15.58l-2.08,-7.79l1.94,-0.52l2.09,7.79l-1.95,0.52zm-4.17,-15.58l-2.07,-7.8l1.95,-0.51l2.07,7.78l-1.95,0.53zm-4.15,-15.59l-2.09,-7.79l1.95,-0.52l2.09,7.79l-1.95,0.52zm-4.17,-15.58l-2.07,-7.79l1.95,-0.53l2.07,7.8l-1.95,0.52zm-4.15,-15.59l-2.09,-7.79l1.95,-0.52l2.08,7.8l-1.94,0.51zm-4.16,-15.58l-2.08,-7.79l1.94,-0.52l2.09,7.79l-1.95,0.52zm-4.17,-15.58l-2.08,-7.8l1.95,-0.52l2.08,7.79l-1.95,0.53zm-4.15,-15.58l-2.09,-7.8l1.95,-0.52l2.08,7.79l-1.94,0.53zm-4.17,-15.59l-2.08,-7.79l1.95,-0.52l2.08,7.79l-1.95,0.52zm-4.16,-15.59l-2.08,-7.78l1.95,-0.53l2.08,7.79l-1.95,0.52zm-4.16,-15.58l-2.08,-7.79l1.95,-0.52l2.08,7.79l-1.95,0.52zm-4.16,-15.58l-2.08,-7.8l1.95,-0.52l2.08,7.8l-1.95,0.52zm-4.17,-15.58l-2.07,-7.8l1.95,-0.52l2.08,7.79l-1.96,0.53z" fill="#59595C" id="svg_163"/>
   <path d="m886.54,793.81l4.38,-15.92l-15.98,4.18l11.6,11.74z" fill="#59595C" id="svg_164"/>
   <path d="m778.68,453.07l4.37,15.91l-15.98,-4.17l11.61,-11.74z" fill="#59595C" id="svg_165"/>
   <path d="m993.97,410.03l4.38,15.91l-15.98,-4.17l11.6,-11.74z" fill="#59595C" id="svg_166"/>
   <path d="m795.3,429.94c-0.58,-0.82 -1.28,-1.49 -2.08,-2.01c0.55,-0.46 1.02,-1.01 1.41,-1.64c0.75,-1.22 1.12,-2.63 1.12,-4.19c0,-1.51 -0.34,-2.86 -1.03,-4.05c-0.69,-1.2 -1.67,-2.14 -2.9,-2.81c-1.22,-0.67 -2.6,-1 -4.12,-1c-2,0 -3.78,0.56 -5.31,1.66c-1.49,1.09 -2.66,2.57 -3.48,4.42c-0.2,0.47 -0.01,1.03 0.45,1.28l2.11,1.15c0.24,0.13 0.52,0.16 0.78,0.07c0.26,-0.08 0.48,-0.26 0.6,-0.51c0.6,-1.21 1.3,-2.15 2.09,-2.77c0.75,-0.59 1.65,-0.88 2.76,-0.88c0.97,0 1.74,0.31 2.36,0.94c0.61,0.64 0.92,1.46 0.92,2.5c0,1.18 -0.33,2.1 -1,2.82c-0.64,0.7 -1.51,1.03 -2.63,1.03l-1.69,0c-0.55,0 -1.01,0.46 -1.01,1.02l0,2.37c0,0.55 0.46,1 1.01,1l1.84,0c1.32,0 2.36,0.41 3.2,1.24c0.83,0.84 1.24,1.88 1.24,3.2c0,1.26 -0.4,2.26 -1.22,3.07c-0.82,0.81 -1.82,1.2 -3.07,1.2c-1.05,0 -1.94,-0.29 -2.73,-0.91c-0.82,-0.64 -1.51,-1.56 -2.06,-2.72c-0.12,-0.26 -0.35,-0.45 -0.62,-0.53c-0.27,-0.09 -0.56,-0.05 -0.8,0.09l-2.3,1.35c-0.44,0.25 -0.62,0.78 -0.43,1.24c0.74,1.81 1.87,3.27 3.37,4.35c1.53,1.09 3.37,1.64 5.46,1.64c1.66,0 3.22,-0.37 4.63,-1.11c1.42,-0.75 2.56,-1.8 3.38,-3.15c0.82,-1.34 1.24,-2.87 1.24,-4.52c0,-1.82 -0.49,-3.45 -1.49,-4.84z" fill="#FCFDFF" id="svg_168"/>
  </g>
 </g>
</svg>