<?xml version="1.0"?>
<svg width="2000" height="2000" xmlns="http://www.w3.org/2000/svg" xmlns:svg="http://www.w3.org/2000/svg" enable-background="new 0 0 2000 2000" version="1.1" xml:space="preserve">
 <g class="layer">
  <title>Layer 1</title>
  <g id="svg_147">
   <path d="m1273.79,843.22c-12.55,0 -24.53,-5.38 -32.86,-14.76l-68.05,-76.6l-68.03,76.6c-8.34,9.38 -20.31,14.76 -32.87,14.76c-17.53,0 -32.89,-9.93 -40.08,-25.92c-7.19,-15.98 -4.42,-34.06 7.22,-47.17l75,-84.42l-68.57,-77.18c-11.64,-13.11 -14.41,-31.18 -7.22,-47.17c7.19,-15.98 22.54,-25.92 40.08,-25.92c12.56,0 24.54,5.38 32.87,14.76l61.6,69.35l61.62,-69.35c8.33,-9.38 20.31,-14.76 32.86,-14.76c17.53,0 32.89,9.93 40.08,25.92s4.42,34.06 -7.22,47.17l-68.56,77.18l74.99,84.42c11.65,13.11 14.41,31.18 7.23,47.17c-7.19,15.99 -22.56,25.92 -40.09,25.92z" fill="#FFFFFF" id="svg_161"/>
   <g id="svg_162">
    <defs>
     <rect height="318.03" id="SVGID_00000155849147305824195280000004753978761871495063_" width="301.34" x="1021.58" y="530.3"/>
    </defs>
    <clipPath id="SVGID_00000117674476598929379610000011546474679692391818_">
     <use href="#SVGID_00000155849147305824195280000004753978761871495063_" id="svg_163" overflow="visible"/>
    </clipPath>
    <g clip-path="url(#SVGID_00000117674476598929379610000011546474679692391818_)" id="svg_164">
     <path d="m1267.36,535.44c17.53,0 32.89,9.93 40.08,25.92s4.42,34.06 -7.22,47.17l-68.57,77.18l75,84.42c11.65,13.11 14.41,31.18 7.23,47.17c-7.19,15.99 -22.56,25.92 -40.09,25.92c-12.55,0 -24.53,-5.38 -32.86,-14.76l-68.05,-76.6l-68.03,76.6c-8.34,9.38 -20.31,14.76 -32.87,14.76c-17.53,0 -32.89,-9.93 -40.08,-25.92c-7.18,-15.98 -4.42,-34.06 7.22,-47.17l75,-84.42l-68.57,-77.18c-11.64,-13.11 -14.41,-31.18 -7.22,-47.17c7.19,-15.98 22.54,-25.92 40.08,-25.92c12.56,0 24.54,5.38 32.87,14.76l61.6,69.35l61.62,-69.35c8.33,-9.38 20.31,-14.76 32.86,-14.76m0,-5.04c-13.99,0 -27.35,5.99 -36.64,16.45l-57.84,65.1l-57.83,-65.1c-9.29,-10.46 -22.64,-16.45 -36.64,-16.45c-19.54,0 -36.67,11.07 -44.69,28.89c-8.01,17.83 -4.92,37.98 8.06,52.59l65.59,73.83l-72.03,81.07c-12.97,14.62 -16.06,34.76 -8.04,52.59c8.01,17.82 25.13,28.9 44.68,28.9c13.99,0 27.35,-6 36.64,-16.46l64.26,-72.34l64.27,72.34c9.29,10.46 22.65,16.46 36.64,16.46c19.55,0 36.68,-11.08 44.69,-28.9s4.93,-37.97 -8.06,-52.59l-72.01,-81.07l65.58,-73.83c12.99,-14.61 16.07,-34.77 8.05,-52.59c-8.01,-17.82 -25.13,-28.89 -44.68,-28.89z" id="svg_165"/>
    </g>
   </g>
   <path d="m1272.11,797l-6.75,-7.51l1.87,-1.69l6.75,7.51l-1.87,1.69zm-13.5,-15.02l-6.75,-7.5l1.87,-1.69l6.75,7.51l-1.87,1.68zm-13.5,-15.01l-6.75,-7.51l1.87,-1.68l6.76,7.5l-1.88,1.69zm-13.5,-15.01l-6.75,-7.51l1.88,-1.69l6.75,7.51l-1.88,1.69zm-13.49,-15.02l-6.76,-7.51l1.88,-1.68l6.75,7.51l-1.87,1.68zm-13.5,-15.01l-6.76,-7.5l1.88,-1.69l6.75,7.5l-1.87,1.69zm-13.5,-15.01l-6.75,-7.51l1.87,-1.69l6.75,7.51l-1.87,1.69zm-13.5,-15.01l-6.75,-7.51l1.87,-1.68l6.76,7.5l-1.88,1.69zm-13.5,-15.02l-6.75,-7.5l1.88,-1.69l6.75,7.51l-1.88,1.68zm-13.5,-15.01l-6.75,-7.51l1.88,-1.68l6.75,7.51l-1.88,1.68zm-13.5,-15.01l-6.74,-7.51l1.87,-1.68l6.75,7.5l-1.88,1.69zm-13.5,-15.02l-6.74,-7.5l1.87,-1.69l6.76,7.51l-1.89,1.68zm-13.5,-15l-6.74,-7.51l1.87,-1.69l6.76,7.5l-1.89,1.7zm-13.49,-15.02l-6.75,-7.5l1.87,-1.69l6.76,7.51l-1.88,1.68z" fill="#59595C" id="svg_166"/>
   <path d="m1082.25,563.28l-2.93,0c-0.33,0 -0.65,0.14 -0.87,0.39l-8.63,10.1c-0.38,0.45 -0.36,1.12 0.06,1.54l1.64,1.64c0.45,0.44 1.16,0.44 1.6,0l5.06,-4.99l0,21.88c0,0.62 0.51,1.13 1.14,1.13l2.93,0c0.63,0 1.14,-0.51 1.14,-1.13l0,-29.43c0,-0.63 -0.51,-1.13 -1.14,-1.13z" fill="#FCFDFF" id="svg_168"/>
   <path d="m1284.34,809.26l-3.1,-20.42l-16.15,12.9l19.25,7.52z" fill="#59595C" id="svg_169"/>
   <path d="m1073.99,797l-1.88,-1.69l6.75,-7.51l1.88,1.69l-6.75,7.51zm13.5,-15.02l-1.88,-1.68l6.75,-7.51l1.88,1.69l-6.75,7.5zm13.5,-15.01l-1.88,-1.69l6.75,-7.5l1.87,1.68l-6.74,7.51zm13.5,-15.01l-1.88,-1.69l6.75,-7.51l1.87,1.69l-6.74,7.51zm13.49,-15.02l-1.88,-1.68l6.76,-7.51l1.87,1.68l-6.75,7.51zm13.5,-15.01l-1.88,-1.69l6.75,-7.5l1.88,1.69l-6.75,7.5zm13.5,-15.01l-1.88,-1.69l6.75,-7.51l1.88,1.69l-6.75,7.51zm13.5,-15.01l-1.88,-1.69l6.75,-7.5l1.87,1.68l-6.74,7.51zm13.5,-15.02l-1.88,-1.68l6.75,-7.51l1.87,1.69l-6.74,7.5zm13.49,-15.01l-1.88,-1.68l6.76,-7.51l1.87,1.68l-6.75,7.51zm13.5,-15.01l-1.88,-1.69l6.75,-7.5l1.88,1.68l-6.75,7.51zm13.5,-15.02l-1.88,-1.68l6.75,-7.51l1.88,1.69l-6.75,7.5zm13.5,-15l-1.88,-1.7l6.75,-7.5l1.87,1.69l-6.74,7.51zm13.5,-15.02l-1.88,-1.69l6.75,-7.5l1.87,1.69l-6.74,7.5z" fill="#59595C" id="svg_170"/>
   <path d="m1061.76,809.26l3.1,-20.42l16.14,12.9l-19.24,7.52z" fill="#59595C" id="svg_171"/>
   <path d="m1274.72,589.77l-12.85,0c0.17,-0.31 0.4,-0.63 0.69,-0.96c0.81,-0.89 2.11,-2.07 3.86,-3.51l-0.02,-0.02c0.26,-0.18 0.56,-0.43 0.89,-0.72c2.47,-2.09 4.45,-4.15 5.88,-6.11c1.52,-2.08 2.29,-4.48 2.29,-7.14c0,-2.62 -0.89,-4.76 -2.66,-6.34c-1.73,-1.55 -4.05,-2.34 -6.89,-2.34c-1.99,0 -3.93,0.49 -5.78,1.47c-1.82,0.97 -3.38,2.33 -4.64,4.04c-0.35,0.48 -0.26,1.15 0.19,1.53l2.37,2.03c0.24,0.2 0.54,0.31 0.86,0.27c0.31,-0.04 0.6,-0.2 0.78,-0.45c0.92,-1.23 1.91,-2.17 2.95,-2.79c1.99,-1.22 4.77,-1.21 6.2,0.08c0.69,0.63 1.03,1.45 1.03,2.5c0,1.78 -0.45,3.29 -1.36,4.63c-0.97,1.43 -2.37,2.92 -4.18,4.46c-0.1,0.08 -0.57,0.47 -1.43,1.17c-1.49,1.23 -2.71,2.3 -3.61,3.19c-0.95,0.93 -1.75,1.99 -2.39,3.16c-0.67,1.24 -1.02,2.62 -1.02,4.06l0,1.85c0,0.63 0.51,1.14 1.14,1.14l17.7,0c0.62,0 1.13,-0.51 1.13,-1.14l0,-2.93c0,-0.63 -0.51,-1.13 -1.13,-1.13z" fill="#FCFDFF" id="svg_173"/>
  </g>
 </g>
</svg>