<?xml version="1.0"?>
<svg width="2000" height="2000" xmlns="http://www.w3.org/2000/svg" xmlns:svg="http://www.w3.org/2000/svg" enable-background="new 0 0 2000 2000" version="1.1" xml:space="preserve">
 <g class="layer">
  <title>Layer 1</title>
  <g id="svg_147">
   <path d="m934.51,843.8c-17.88,0 -34.75,-9.5 -44.01,-24.79l-81.13,-133.93l-75.23,132.65c-9.11,16.09 -26.27,26.07 -44.76,26.07l-4.34,0c-18.66,0 -35.35,-9.66 -44.64,-25.84s-9.2,-35.46 0.22,-51.57l102.06,-174.56l-105.32,-179.84c-9.43,-16.12 -9.52,-35.4 -0.23,-51.59c9.29,-16.19 25.97,-25.86 44.64,-25.86l2.52,0c18.22,0 35.24,9.77 44.43,25.5l80.77,138.21l82.92,-138.66c9.24,-15.45 26.15,-25.05 44.16,-25.05c18.84,0 35.6,9.8 44.84,26.21s8.92,35.82 -0.84,51.92l-105.89,174.55l107.96,178.52c9.74,16.1 10.03,35.5 0.79,51.89c-9.25,16.39 -26,26.18 -44.82,26.18l-4.1,0l0,-0.01z" fill="#FFFFFF" id="svg_148"/>
   <g id="svg_149">
    <defs>
     <rect height="519.55" id="SVGID_00000092456519771262249890000011210527022424898702_" width="371.71" x="624.6" y="329.45"/>
    </defs>
    <clipPath id="SVGID_00000097491869118524804270000003379754367983524797_">
     <use href="#SVGID_00000092456519771262249890000011210527022424898702_" id="svg_150" overflow="visible"/>
    </clipPath>
    <g clip-path="url(#SVGID_00000097491869118524804270000003379754367983524797_)" id="svg_151">
     <path d="m936.57,334.54c18.84,0 35.6,9.8 44.84,26.21s8.92,35.82 -0.84,51.92l-105.89,174.55l107.96,178.52c9.74,16.1 10.03,35.5 0.79,51.89c-9.25,16.39 -26,26.18 -44.82,26.18l-4.1,0c-17.88,0 -34.75,-9.51 -44.01,-24.79l-81.13,-133.94l-75.23,132.65c-9.11,16.09 -26.27,26.08 -44.76,26.08l-4.34,0c-18.66,0 -35.35,-9.67 -44.64,-25.85s-9.2,-35.46 0.22,-51.57l102.06,-174.56l-105.32,-179.84c-9.43,-16.12 -9.52,-35.4 -0.23,-51.59c9.29,-16.19 25.97,-25.86 44.64,-25.86l2.52,0c18.22,0 35.24,9.77 44.43,25.5l80.77,138.21l82.92,-138.66c9.24,-15.45 26.15,-25.05 44.16,-25.05m0,-4.77c-19.67,0 -38.17,10.49 -48.26,27.36l-78.77,131.74l-76.7,-131.24c-10.04,-17.19 -28.64,-27.86 -48.55,-27.86l-2.52,0c-20.4,0 -38.64,10.56 -48.78,28.26c-10.14,17.69 -10.05,38.77 0.25,56.37l103.91,177.43l-100.66,172.16c-10.29,17.6 -10.37,38.66 -0.22,56.34c10.14,17.69 28.37,28.25 48.77,28.25l4.34,0c20.21,0 38.95,-10.92 48.91,-28.5l71.21,-125.57l76.91,126.97c10.13,16.72 28.56,27.1 48.1,27.1l4.1,0c20.57,0 38.87,-10.69 48.98,-28.6c10.1,-17.91 9.78,-39.11 -0.87,-56.7l-106.47,-176.06l104.4,-172.08c10.67,-17.6 11.02,-38.81 0.92,-56.73c-10.1,-17.93 -28.42,-28.64 -49,-28.64z" id="svg_152"/>
    </g>
   </g>
   <path d="m943.54,805.54l-2.46,-3.92l2.03,-1.26l2.46,3.91l-2.03,1.27zm-7.53,-12l-5.07,-8.08l2.02,-1.27l5.07,8.08l-2.02,1.27zm-10.14,-16.17l-5.08,-8.08l2.02,-1.27l5.08,8.08l-2.02,1.27zm-10.15,-16.17l-5.07,-8.07l2.02,-1.27l5.07,8.08l-2.02,1.26zm-10.15,-16.16l-5.07,-8.09l2.02,-1.26l5.08,8.08l-2.03,1.27zm-10.14,-16.17l-5.08,-8.08l2.03,-1.27l5.07,8.08l-2.02,1.27zm-10.15,-16.16l-5.08,-8.09l2.03,-1.27l5.07,8.09l-2.02,1.27zm-10.14,-16.17l-5.08,-8.09l2.02,-1.27l5.07,8.09l-2.01,1.27zm-10.15,-16.17l-5.08,-8.09l2.02,-1.27l5.08,8.09l-2.02,1.27zm-10.15,-16.16l-5.07,-8.09l2.02,-1.27l5.08,8.09l-2.03,1.27zm-10.15,-16.17l-5.06,-8.09l2.01,-1.27l5.08,8.09l-2.03,1.27zm-10.14,-16.17l-5.07,-8.09l2.02,-1.27l5.07,8.09l-2.02,1.27zm-10.15,-16.16l-5.07,-8.09l2.02,-1.27l5.07,8.09l-2.02,1.27zm-10.14,-16.17l-5.08,-8.09l2.03,-1.27l5.07,8.09l-2.02,1.27zm-10.15,-16.17l-5.07,-8.09l2.02,-1.26l5.07,8.08l-2.02,1.27zm-10.14,-16.17l-5.08,-8.08l2.02,-1.27l5.08,8.08l-2.02,1.27zm-10.15,-16.17l-5.07,-8.08l2.02,-1.27l5.07,8.08l-2.02,1.27zm-10.15,-16.16l-5.07,-8.08l2.02,-1.27l5.08,8.08l-2.03,1.27zm-10.14,-16.17l-5.08,-8.08l2.03,-1.27l5.06,8.08l-2.01,1.27zm-10.15,-16.17l-5.08,-8.08l2.03,-1.27l5.07,8.08l-2.02,1.27zm-10.14,-16.17l-5.08,-8.07l2.02,-1.27l5.08,8.07l-2.02,1.27zm-10.15,-16.16l-5.08,-8.08l2.02,-1.27l5.08,8.08l-2.02,1.27zm-10.15,-16.17l-5.07,-8.08l2.02,-1.27l5.08,8.08l-2.03,1.27zm-10.15,-16.17l-5.06,-8.08l2.01,-1.26l5.08,8.08l-2.03,1.26zm-10.14,-16.16l-5.07,-8.09l2.02,-1.26l5.07,8.08l-2.02,1.27zm-10.15,-16.17l-5.07,-8.09l2.02,-1.26l5.07,8.08l-2.02,1.27z" fill="#59595C" id="svg_153"/>
   <path d="m685.91,367.33l-3.08,0c-0.35,0 -0.68,0.16 -0.91,0.43l-9.06,10.6c-0.41,0.48 -0.39,1.18 0.06,1.62l1.73,1.72c0.46,0.46 1.21,0.46 1.67,0l5.32,-5.24l0,22.99c0,0.65 0.53,1.19 1.19,1.19l3.08,0c0.66,0 1.2,-0.54 1.2,-1.19l0,-30.93c0,-0.65 -0.54,-1.19 -1.2,-1.19z" fill="#FCFDFF" id="svg_155"/>
   <path d="m950.07,814.67l0,-19.53l-16.92,9.76l16.92,9.77z" fill="#59595C" id="svg_156"/>
   <path d="m677.57,805.54l-2.03,-1.27l2.46,-3.91l2.03,1.26l-2.46,3.92zm7.52,-12l-2.01,-1.27l5.06,-8.08l2.03,1.27l-5.08,8.08zm10.15,-16.17l-2.02,-1.27l5.08,-8.08l2.01,1.27l-5.07,8.08zm10.14,-16.17l-2.02,-1.27l5.08,-8.07l2.02,1.26l-5.08,8.08zm10.16,-16.16l-2.03,-1.27l5.08,-8.08l2.01,1.26l-5.06,8.09zm10.14,-16.17l-2.03,-1.27l5.08,-8.08l2.02,1.27l-5.07,8.08zm10.15,-16.17l-2.03,-1.26l5.08,-8.09l2.02,1.27l-5.07,8.08zm10.14,-16.16l-2.02,-1.27l5.07,-8.09l2.03,1.27l-5.08,8.09zm10.15,-16.17l-2.02,-1.27l5.07,-8.09l2.02,1.27l-5.07,8.09zm10.14,-16.16l-2.02,-1.27l5.08,-8.09l2.02,1.27l-5.08,8.09zm10.15,-16.17l-2.02,-1.27l5.07,-8.09l2.02,1.27l-5.07,8.09zm10.15,-16.17l-2.03,-1.27l5.08,-8.09l2.02,1.27l-5.07,8.09zm10.14,-16.16l-2.02,-1.27l5.07,-8.09l2.03,1.27l-5.08,8.09zm10.15,-16.17l-2.02,-1.27l5.07,-8.09l2.03,1.27l-5.08,8.09zm10.14,-16.17l-2.01,-1.27l5.07,-8.08l2.02,1.26l-5.08,8.09zm10.15,-16.17l-2.02,-1.27l5.08,-8.08l2.02,1.27l-5.08,8.08zm10.15,-16.17l-2.03,-1.27l5.08,-8.08l2.02,1.27l-5.07,8.08zm10.15,-16.16l-2.03,-1.27l5.08,-8.08l2.02,1.27l-5.07,8.08zm10.14,-16.17l-2.02,-1.27l5.07,-8.08l2.02,1.27l-5.07,8.08zm10.15,-16.17l-2.02,-1.27l5.07,-8.08l2.02,1.27l-5.07,8.08zm10.14,-16.17l-2.02,-1.27l5.07,-8.07l2.03,1.27l-5.08,8.07zm10.15,-16.16l-2.02,-1.27l5.07,-8.08l2.02,1.27l-5.07,8.08zm10.14,-16.17l-2.02,-1.27l5.08,-8.08l2.02,1.27l-5.08,8.08zm10.15,-16.17l-2.02,-1.26l5.07,-8.08l2.02,1.26l-5.07,8.08zm10.15,-16.16l-2.03,-1.27l5.08,-8.08l2.02,1.26l-5.07,8.09zm10.14,-16.17l-2.01,-1.27l5.06,-8.08l2.03,1.26l-5.08,8.09z" fill="#59595C" id="svg_157"/>
   <path d="m671.04,814.67l0,-19.53l16.92,9.76l-16.92,9.77z" fill="#59595C" id="svg_158"/>
   <path d="m947.58,395.4l-13.48,0c0.17,-0.32 0.41,-0.66 0.72,-1c0.85,-0.94 2.21,-2.18 4.05,-3.69l-0.03,-0.02c0.29,-0.19 0.59,-0.45 0.94,-0.76c2.6,-2.2 4.68,-4.35 6.18,-6.42c1.59,-2.18 2.41,-4.71 2.41,-7.5c0,-2.76 -0.94,-5 -2.8,-6.67c-1.82,-1.62 -4.26,-2.45 -7.23,-2.45c-2.1,0 -4.13,0.52 -6.07,1.54c-1.92,1.02 -3.56,2.45 -4.87,4.25c-0.37,0.51 -0.29,1.2 0.19,1.61l2.49,2.13c0.25,0.21 0.57,0.32 0.9,0.28c0.33,-0.04 0.63,-0.21 0.83,-0.48c0.96,-1.28 2,-2.27 3.09,-2.93c2.09,-1.27 5.01,-1.26 6.51,0.09c0.72,0.67 1.08,1.52 1.08,2.63c0,1.86 -0.47,3.46 -1.43,4.87c-1.01,1.49 -2.48,3.06 -4.39,4.68c-0.1,0.09 -0.59,0.5 -1.5,1.23c-1.56,1.29 -2.84,2.42 -3.8,3.35c-0.99,0.98 -1.82,2.1 -2.49,3.32c-0.72,1.31 -1.08,2.75 -1.08,4.27l0,1.94c0,0.67 0.53,1.2 1.19,1.2l18.59,0c0.67,0 1.2,-0.54 1.2,-1.2l0,-3.08c0,-0.65 -0.54,-1.19 -1.2,-1.19z" fill="#FCFDFF" id="svg_160"/>
  </g>
 </g>
</svg>