<?xml version="1.0"?>
<svg width="2000" height="2000" xmlns="http://www.w3.org/2000/svg" xmlns:svg="http://www.w3.org/2000/svg" enable-background="new 0 0 2000 2000" version="1.1" xml:space="preserve">
 <g class="layer">
  <title>Layer 1</title>
  <g id="svg_147">
   <path d="m1204.18,895.94c-12.8,0 -24.76,-6.32 -32.01,-16.89c-7.23,-10.58 -8.82,-24.05 -4.23,-36.02l38.42,-100.16l-86.32,-215.06c-4.82,-12.02 -3.38,-25.6 3.85,-36.33c7.23,-10.74 19.25,-17.14 32.17,-17.14l3.22,0c15.98,0 30.13,9.6 36.06,24.49l53.22,133.61l50.97,-133.13c5.72,-14.94 20.28,-24.97 36.24,-24.97c12.76,0 24.7,6.28 31.94,16.8c7.26,10.53 8.89,23.95 4.38,35.91l-129.7,343.73c-5.68,15.05 -20.27,25.16 -36.31,25.16l-1.9,0z" fill="#FFFFFF" id="svg_148"/>
   <g id="svg_149">
    <defs>
     <rect height="431.04" id="SVGID_00000040564068292618579250000011927132848330414750_" width="269.27" x="1110.73" y="469.63"/>
    </defs>
    <clipPath id="SVGID_00000034787337438629906400000009266868754881499071_">
     <use href="#SVGID_00000040564068292618579250000011927132848330414750_" id="svg_150" overflow="visible"/>
    </clipPath>
    <g clip-path="url(#SVGID_00000034787337438629906400000009266868754881499071_)" id="svg_151">
     <path d="m1335.78,474.34c12.75,0 24.69,6.28 31.94,16.8c7.25,10.53 8.88,23.95 4.37,35.91l-129.7,343.73c-5.68,15.05 -20.27,25.16 -36.31,25.16l-1.9,0c-12.8,0 -24.76,-6.32 -32.01,-16.89c-7.23,-10.58 -8.82,-24.05 -4.23,-36.02l38.42,-100.17l-86.32,-215.05c-4.82,-12.02 -3.38,-25.6 3.85,-36.33c7.23,-10.74 19.26,-17.14 32.17,-17.14l3.22,0c15.98,0 30.13,9.6 36.06,24.49l53.22,133.61l50.97,-133.13c5.73,-14.94 20.29,-24.97 36.25,-24.97m0,-4.71c-17.89,0 -34.22,11.25 -40.64,27.99l-46.67,121.91l-48.77,-122.45c-6.65,-16.68 -22.5,-27.45 -40.42,-27.45l-3.22,0c-14.48,0 -27.96,7.18 -36.06,19.21c-8.11,12.03 -9.72,27.26 -4.31,40.73l85.62,213.33l-37.75,98.44c-5.15,13.42 -3.37,28.52 4.74,40.38c8.13,11.85 21.53,18.93 35.88,18.93l1.9,0c17.98,0 34.34,-11.34 40.7,-28.2l129.7,-343.73c5.06,-13.41 3.23,-28.46 -4.9,-40.25c-8.13,-11.8 -21.51,-18.84 -35.8,-18.84z" id="svg_152"/>
    </g>
   </g>
   <path d="m1204.51,864.8l-2.2,-0.83l3.33,-8.81l2.19,0.83l-3.32,8.81zm6.64,-17.62l-2.19,-0.83l3.32,-8.81l2.19,0.83l-3.32,8.81zm6.65,-17.62l-2.19,-0.83l3.32,-8.81l2.19,0.83l-3.32,8.81zm6.65,-17.62l-2.2,-0.83l3.33,-8.82l2.19,0.84l-3.32,8.81zm6.65,-17.62l-2.2,-0.83l3.33,-8.81l2.19,0.83l-3.32,8.81zm6.65,-17.62l-2.2,-0.84l3.33,-8.8l2.19,0.83l-3.32,8.81zm6.65,-17.62l-2.2,-0.83l3.33,-8.82l2.19,0.84l-3.32,8.81zm6.65,-17.62l-2.2,-0.83l3.33,-8.82l2.19,0.84l-3.32,8.81zm6.64,-17.62l-2.19,-0.84l3.32,-8.8l2.19,0.83l-3.32,8.81zm6.65,-17.62l-2.19,-0.84l3.32,-8.8l2.19,0.83l-3.32,8.81zm6.65,-17.62l-2.2,-0.83l3.32,-8.82l2.2,0.83l-3.32,8.82zm6.65,-17.62l-2.2,-0.83l3.33,-8.81l2.19,0.83l-3.32,8.81zm6.65,-17.62l-2.2,-0.84l3.32,-8.8l2.2,0.83l-3.32,8.81zm6.65,-17.62l-2.2,-0.84l3.32,-8.81l2.2,0.84l-3.32,8.81zm6.65,-17.62l-2.2,-0.83l3.32,-8.82l2.2,0.84l-3.32,8.81zm6.64,-17.62l-2.19,-0.84l3.32,-8.8l2.19,0.83l-3.32,8.81zm6.65,-17.63l-2.19,-0.83l3.32,-8.8l2.19,0.83l-3.32,8.8zm6.65,-17.61l-2.2,-0.83l3.32,-8.82l2.2,0.83l-3.32,8.82zm6.65,-17.62l-2.2,-0.84l3.32,-8.81l2.2,0.84l-3.32,8.81zm6.65,-17.63l-2.2,-0.83l3.32,-8.8l2.2,0.83l-3.32,8.8z" fill="#59595C" id="svg_153"/>
   <path d="m1240.9,719.98l-3.5,-8.74l2.17,-0.88l3.51,8.74l-2.18,0.88zm-7.01,-17.48l-3.51,-8.74l2.18,-0.87l3.5,8.73l-2.17,0.88zm-7.02,-17.48l-3.5,-8.74l2.17,-0.88l3.51,8.74l-2.18,0.88zm-7.01,-17.47l-3.51,-8.74l2.17,-0.88l3.51,8.74l-2.17,0.88zm-7.02,-17.48l-3.51,-8.74l2.19,-0.88l3.5,8.74l-2.18,0.88zm-7.01,-17.48l-3.51,-8.73l2.18,-0.88l3.51,8.73l-2.18,0.88zm-7.01,-17.48l-3.51,-8.73l2.18,-0.88l3.51,8.73l-2.18,0.88zm-7.02,-17.47l-3.5,-8.74l2.17,-0.88l3.51,8.74l-2.18,0.88zm-7.01,-17.47l-3.51,-8.75l2.18,-0.88l3.5,8.75l-2.17,0.88zm-7.02,-17.49l-3.5,-8.73l2.17,-0.88l3.51,8.74l-2.18,0.87zm-7.01,-17.47l-3.51,-8.74l2.17,-0.88l3.51,8.74l-2.17,0.88zm-7.02,-17.48l-3.51,-8.74l2.19,-0.88l3.5,8.74l-2.18,0.88zm-7.01,-17.47l-3.51,-8.75l2.18,-0.88l3.51,8.75l-2.18,0.88z" fill="#59595C" id="svg_154"/>
   <path d="m1243.64,725.34l2.97,-19.04l-17.93,6.93l14.96,12.11z" fill="#59595C" id="svg_155"/>
   <path d="m1199.81,874.94l-3.87,-18.88l18.24,6.09l-14.37,12.79z" fill="#59595C" id="svg_156"/>
   <path d="m1160.28,500.31l-2.72,0c-0.32,0 -0.61,0.14 -0.81,0.38l-8.03,9.42c-0.35,0.42 -0.34,1.04 0.05,1.44l1.54,1.53c0.4,0.41 1.07,0.41 1.49,0l4.7,-4.66l0,20.42c0,0.59 0.48,1.06 1.06,1.06l2.72,0c0.58,0 1.06,-0.47 1.06,-1.06l0,-27.47c0,-0.58 -0.48,-1.06 -1.06,-1.06z" fill="#FCFDFF" id="svg_158"/>
   <path d="m1343.22,525.04l-11.95,0c0.16,-0.29 0.37,-0.58 0.64,-0.89c0.76,-0.83 1.97,-1.93 3.59,-3.27l-0.02,-0.03c0.25,-0.17 0.52,-0.4 0.83,-0.66c2.3,-1.96 4.14,-3.87 5.47,-5.71c1.41,-1.94 2.13,-4.18 2.13,-6.66c0,-2.45 -0.83,-4.45 -2.48,-5.92c-1.61,-1.45 -3.77,-2.18 -6.41,-2.18c-1.84,0 -3.65,0.45 -5.37,1.36c-1.69,0.9 -3.15,2.17 -4.31,3.78c-0.33,0.44 -0.26,1.07 0.17,1.43l2.2,1.9c0.22,0.18 0.51,0.28 0.81,0.24c0.29,-0.03 0.55,-0.19 0.72,-0.43c0.86,-1.13 1.78,-2.01 2.74,-2.6c1.86,-1.12 4.44,-1.12 5.77,0.09c0.65,0.58 0.96,1.35 0.96,2.33c0,1.65 -0.41,3.07 -1.26,4.31c-0.91,1.34 -2.21,2.73 -3.9,4.16c-0.08,0.08 -0.52,0.45 -1.32,1.1c-1.39,1.15 -2.52,2.15 -3.37,2.99c-0.87,0.86 -1.62,1.85 -2.21,2.94c-0.63,1.16 -0.95,2.43 -0.95,3.79l0,1.73c0,0.59 0.48,1.06 1.06,1.06l16.46,0c0.58,0 1.06,-0.47 1.06,-1.06l0,-2.74c0,-0.58 -0.48,-1.06 -1.06,-1.06z" fill="#FCFDFF" id="svg_160"/>
  </g>
 </g>
</svg>