<?xml version="1.0"?>
<svg width="2000" height="2000" xmlns="http://www.w3.org/2000/svg" xmlns:svg="http://www.w3.org/2000/svg" enable-background="new 0 0 2000 2000" version="1.1" xml:space="preserve">
 <g class="layer">
  <title>Layer 1</title>
  <g id="svg_147">
   <path d="m846.19,895.38c-33.09,0 -60.01,-26.98 -60.01,-60.13l0,-172.07l-138.96,-254.34c-9.42,-17.25 -9.08,-37.66 0.93,-54.57c10,-16.92 27.69,-27.02 47.31,-27.02l4.51,0c20.11,0 38.6,10.99 48.26,28.67l101.48,185.89l100.26,-185.67c9.62,-17.82 28.16,-28.89 48.37,-28.89c19.64,0 37.32,10.11 47.32,27.04c10,16.93 10.34,37.33 0.91,54.58l-140.39,256.53l0,169.85c0,33.15 -26.92,60.13 -59.99,60.13z" fill="#FFFFFF" id="svg_161"/>
   <g id="svg_162">
    <defs>
     <rect height="578.74" id="SVGID_00000078752631581979189890000017168611810435593398_" width="426.01" x="634.48" y="321.93"/>
    </defs>
    <clipPath id="SVGID_00000065054860630926019520000007796095599438462359_">
     <use href="#SVGID_00000078752631581979189890000017168611810435593398_" id="svg_163" overflow="visible"/>
    </clipPath>
    <g clip-path="url(#SVGID_00000065054860630926019520000007796095599438462359_)" id="svg_164">
     <path d="m998.34,327.25c19.64,0 37.32,10.11 47.32,27.03c10,16.94 10.34,37.34 0.9,54.59l-140.38,256.53l0,169.85c0,33.15 -26.92,60.13 -59.99,60.13c-33.09,0 -60.01,-26.98 -60.01,-60.13l0,-172.07l-138.96,-254.34c-9.42,-17.25 -9.08,-37.66 0.93,-54.57c10,-16.92 27.69,-27.02 47.31,-27.02l4.51,0c20.11,0 38.6,10.99 48.26,28.67l101.48,185.89l100.26,-185.67c9.62,-17.82 28.15,-28.89 48.37,-28.89m0,-5.32c-22.17,0 -42.49,12.13 -53.04,31.67l-95.63,177.07l-96.78,-177.3c-10.59,-19.39 -30.87,-31.44 -52.92,-31.44l-4.51,0c-21.52,0 -40.91,11.07 -51.88,29.62c-10.97,18.55 -11.36,40.92 -1.03,59.84l138.32,253.16l0,170.7c0,36.08 29.3,65.45 65.32,65.45s65.31,-29.37 65.31,-65.45l0,-168.48l139.72,-255.34c10.35,-18.92 9.98,-41.3 -0.99,-59.85c-10.97,-18.57 -30.36,-29.65 -51.89,-29.65z" id="svg_165"/>
    </g>
   </g>
   <path d="m826.74,618.21l-2.86,-5.23l2.33,-1.28l2.86,5.23l-2.33,1.28zm-7.96,-14.57l-5.11,-9.35l2.33,-1.27l5.11,9.34l-2.33,1.28zm-10.21,-18.68l-5.1,-9.34l2.33,-1.28l5.1,9.34l-2.33,1.28zm-10.2,-18.67l-5.11,-9.34l2.34,-1.28l5.1,9.34l-2.33,1.28zm-10.21,-18.68l-5.1,-9.34l2.33,-1.28l5.1,9.34l-2.33,1.28zm-10.2,-18.68l-5.1,-9.33l2.33,-1.28l5.1,9.33l-2.33,1.28zm-10.21,-18.67l-5.1,-9.34l2.33,-1.28l5.1,9.34l-2.33,1.28zm-10.19,-18.68l-5.11,-9.34l2.33,-1.28l5.1,9.34l-2.32,1.28zm-10.21,-18.67l-5.1,-9.34l2.32,-1.28l5.1,9.34l-2.32,1.28zm-10.2,-18.68l-5.1,-9.34l2.32,-1.28l5.1,9.34l-2.32,1.28zm-10.21,-18.68l-5.1,-9.33l2.32,-1.28l5.11,9.33l-2.33,1.28zm-10.2,-18.67l-5.1,-9.34l2.33,-1.28l5.1,9.34l-2.33,1.28zm-10.21,-18.68l-5.1,-9.34l2.33,-1.28l5.11,9.35l-2.34,1.27z" fill="#59595C" id="svg_166"/>
   <path d="m848.25,847.38l-2.65,0l0,-10.65l2.65,0l0,10.65zm0,-21.3l-2.65,0l0,-10.65l2.65,0l0,10.65zm0,-21.29l-2.65,0l0,-10.64l2.65,0l0,10.64zm0,-21.3l-2.65,0l0,-10.64l2.65,0l0,10.64zm0,-21.28l-2.65,0l0,-10.65l2.65,0l0,10.65zm0,-21.29l-2.65,0l0,-10.65l2.65,0l0,10.65zm0,-21.3l-2.65,0l0,-10.64l2.65,0l0,10.64zm0,-21.29l-2.65,0l0,-10.65l2.65,0l0,10.65zm0,-21.29l-2.65,0l0,-10.65l2.65,0l0,10.65z" fill="#59595C" id="svg_167"/>
   <path d="m846.92,866.22l10.88,-18.86l-21.75,0l10.87,18.86z" fill="#59595C" id="svg_168"/>
   <path d="m701.27,363.84l-3.43,0c-0.39,0 -0.76,0.17 -1.01,0.46l-10.09,11.84c-0.45,0.52 -0.43,1.31 0.07,1.8l1.91,1.93c0.52,0.51 1.36,0.51 1.88,0l5.91,-5.85l0,25.64c0,0.73 0.6,1.33 1.33,1.33l3.43,0c0.73,0 1.32,-0.6 1.32,-1.33l0,-34.5c0,-0.72 -0.59,-1.32 -1.32,-1.32z" fill="#FCFDFF" id="svg_170"/>
   <path d="m834.1,629.84l0.8,-21.78l-19.22,10.19l18.42,11.59z" fill="#59595C" id="svg_171"/>
   <path d="m872.33,618.21l-2.32,-1.28l2.86,-5.23l2.33,1.28l-2.87,5.23zm7.97,-14.57l-2.33,-1.28l5.1,-9.34l2.33,1.28l-5.1,9.34zm10.21,-18.68l-2.34,-1.28l5.11,-9.34l2.33,1.28l-5.1,9.34zm10.2,-18.67l-2.33,-1.28l5.1,-9.34l2.33,1.28l-5.1,9.34zm10.2,-18.68l-2.33,-1.28l5.11,-9.34l2.33,1.28l-5.11,9.34zm10.21,-18.68l-2.33,-1.28l5.1,-9.33l2.33,1.28l-5.1,9.33zm10.2,-18.67l-2.33,-1.28l5.1,-9.34l2.34,1.28l-5.11,9.34zm10.2,-18.68l-2.32,-1.28l5.1,-9.34l2.33,1.28l-5.11,9.34zm10.21,-18.67l-2.33,-1.28l5.1,-9.34l2.33,1.28l-5.1,9.34zm10.2,-18.68l-2.32,-1.28l5.1,-9.34l2.32,1.28l-5.1,9.34zm10.2,-18.68l-2.32,-1.28l5.1,-9.33l2.33,1.28l-5.11,9.33zm10.21,-18.67l-2.33,-1.28l5.1,-9.33l2.33,1.27l-5.1,9.34zm10.2,-18.68l-2.33,-1.27l5.1,-9.35l2.33,1.28l-5.1,9.34z" fill="#59595C" id="svg_172"/>
   <path d="m864.98,629.84l-0.8,-21.78l19.21,10.19l-18.41,11.59z" fill="#59595C" id="svg_173"/>
   <path d="m1009.45,395.14l-15.01,0c0.19,-0.36 0.46,-0.73 0.8,-1.11c0.95,-1.05 2.46,-2.43 4.51,-4.12l-0.02,-0.02c0.3,-0.21 0.65,-0.51 1.03,-0.85c2.9,-2.45 5.21,-4.86 6.88,-7.16c1.78,-2.44 2.68,-5.26 2.68,-8.37c0,-3.07 -1.05,-5.58 -3.11,-7.44c-2.03,-1.81 -4.74,-2.74 -8.06,-2.74c-2.32,0 -4.6,0.59 -6.76,1.73c-2.12,1.13 -3.95,2.73 -5.41,4.73c-0.41,0.57 -0.32,1.35 0.21,1.8l2.77,2.38c0.28,0.23 0.63,0.36 1.01,0.31c0.36,-0.04 0.7,-0.23 0.91,-0.53c1.08,-1.44 2.23,-2.54 3.45,-3.26c2.32,-1.43 5.57,-1.42 7.25,0.09c0.8,0.74 1.2,1.7 1.2,2.93c0,2.08 -0.52,3.86 -1.59,5.43c-1.13,1.67 -2.76,3.42 -4.89,5.22c-0.11,0.1 -0.66,0.56 -1.66,1.37c-1.75,1.45 -3.17,2.7 -4.23,3.75c-1.1,1.09 -2.04,2.33 -2.78,3.7c-0.8,1.45 -1.2,3.06 -1.2,4.76l0,2.17c0,0.73 0.59,1.34 1.32,1.34l20.69,0c0.74,0 1.34,-0.61 1.34,-1.34l0,-3.43c0,-0.74 -0.6,-1.34 -1.33,-1.34z" fill="#FCFDFF" id="svg_175"/>
   <path d="m857.4,664.27c-0.77,-1.1 -1.7,-1.98 -2.76,-2.66c0.73,-0.61 1.35,-1.33 1.87,-2.17c0.98,-1.6 1.48,-3.46 1.48,-5.53c0,-1.98 -0.46,-3.78 -1.36,-5.34c-0.92,-1.58 -2.2,-2.83 -3.83,-3.72c-1.6,-0.88 -3.43,-1.32 -5.43,-1.32c-2.63,0 -4.97,0.74 -6.98,2.2c-1.97,1.43 -3.51,3.39 -4.57,5.83c-0.28,0.62 -0.03,1.37 0.57,1.7l2.78,1.51c0.32,0.18 0.69,0.22 1.04,0.11c0.34,-0.11 0.63,-0.36 0.79,-0.69c0.78,-1.6 1.71,-2.83 2.76,-3.66c0.98,-0.78 2.16,-1.16 3.61,-1.16c1.29,0 2.31,0.41 3.11,1.24c0.82,0.85 1.22,1.93 1.22,3.3c0,1.55 -0.43,2.77 -1.31,3.72c-0.85,0.93 -1.99,1.37 -3.47,1.37l-2.22,0c-0.73,0 -1.32,0.6 -1.32,1.33l0,3.13c0,0.74 0.59,1.34 1.32,1.34l2.42,0c1.74,0 3.11,0.53 4.21,1.63c1.1,1.1 1.63,2.48 1.63,4.22c0,1.67 -0.52,2.99 -1.6,4.05c-1.08,1.08 -2.4,1.6 -4.03,1.6c-1.39,0 -2.57,-0.4 -3.6,-1.21c-1.09,-0.86 -2.01,-2.06 -2.72,-3.59c-0.16,-0.34 -0.46,-0.59 -0.81,-0.7c-0.35,-0.11 -0.74,-0.07 -1.06,0.12l-3.03,1.77c-0.57,0.33 -0.81,1.03 -0.57,1.65c0.98,2.38 2.47,4.31 4.45,5.73c2.01,1.45 4.42,2.18 7.18,2.18c2.2,0 4.25,-0.5 6.1,-1.47c1.87,-0.99 3.36,-2.39 4.45,-4.15c1.08,-1.78 1.63,-3.79 1.63,-5.98c0,-2.4 -0.66,-4.55 -1.95,-6.38z" fill="#FCFDFF" id="svg_177"/>
  </g>
 </g>
</svg>