<?xml version="1.0"?>
<svg width="2000" height="2000" xmlns="http://www.w3.org/2000/svg" xmlns:svg="http://www.w3.org/2000/svg" enable-background="new 0 0 2000 2000" version="1.1" xml:space="preserve">
 <g class="layer">
  <title>Layer 1</title>
  <g id="svg_147">
   <path d="m1071.39,851.38c-16.58,0 -31.39,-9.26 -38.64,-24.17c-7.26,-14.92 -5.42,-32.29 4.81,-45.34l123.4,-157.53l-95.29,0c-23.7,0 -42.99,-19.29 -42.99,-43c0,-23.71 19.29,-42.99 42.99,-42.99l183.48,0c16.57,0 31.37,9.25 38.64,24.15c7.26,14.89 5.43,32.26 -4.77,45.32l-123.12,157.57l95.34,0c23.71,0 42.99,19.29 42.99,43s-19.28,42.99 -42.99,42.99l-183.85,0z" fill="#FFFFFF" id="svg_165"/>
   <g id="svg_166">
    <defs>
     <rect height="323.48" id="SVGID_00000090262562609470731720000003586475785430146736_" width="285.8" x="1017.55" y="533.12"/>
    </defs>
    <clipPath id="SVGID_00000096023437640722430980000008458540762357185161_">
     <use href="#SVGID_00000090262562609470731720000003586475785430146736_" id="svg_167" overflow="visible"/>
    </clipPath>
    <g clip-path="url(#SVGID_00000096023437640722430980000008458540762357185161_)" id="svg_168">
     <path d="m1249.15,538.35c16.57,0 31.37,9.25 38.64,24.15c7.26,14.89 5.43,32.26 -4.77,45.32l-123.12,157.57l95.34,0c23.71,0 42.99,19.29 42.99,43s-19.28,42.99 -42.99,42.99l-183.85,0c-16.58,0 -31.39,-9.26 -38.64,-24.17c-7.26,-14.91 -5.42,-32.29 4.81,-45.34l123.4,-157.53l-95.29,0c-23.7,0 -42.99,-19.29 -42.99,-43c0,-23.71 19.29,-42.99 42.99,-42.99l183.48,0m0,-5.14l-183.48,0c-26.53,0 -48.12,21.59 -48.12,48.13c0,26.54 21.59,48.13 48.12,48.13l84.76,0l-116.91,149.23c-11.45,14.62 -13.52,34.06 -5.39,50.76c8.13,16.69 24.7,27.06 43.26,27.06l183.85,0c26.53,0 48.12,-21.6 48.12,-48.13s-21.59,-48.13 -48.12,-48.13l-84.82,0l116.64,-149.28c11.43,-14.62 13.47,-34.06 5.34,-50.73c-8.13,-16.68 -24.71,-27.04 -43.25,-27.04z" id="svg_169"/>
    </g>
   </g>
   <path d="m1245.72,583.13l-10.25,0l0,-2.56l10.25,0l0,2.56zm-20.52,0l-10.26,0l0,-2.56l10.26,0l0,2.56zm-20.52,0l-10.26,0l0,-2.56l10.26,0l0,2.56zm-20.53,0l-10.26,0l0,-2.56l10.26,0l0,2.56zm-20.52,0l-10.26,0l0,-2.56l10.26,0l0,2.56zm-20.53,0l-10.26,0l0,-2.56l10.26,0l0,2.56zm-20.52,0l-10.26,0l0,-2.56l10.26,0l0,2.56zm-20.52,0l-10.27,0l0,-2.56l10.27,0l0,2.56zm-20.53,0l-3.47,0l0,-2.56l3.47,0l0,2.56z" fill="#59595C" id="svg_170"/>
   <path d="m1251.76,809.93l-10.26,0l0,-2.57l10.26,0l0,2.57zm-20.52,0l-10.27,0l0,-2.57l10.27,0l0,2.57zm-20.53,0l-10.26,0l0,-2.57l10.26,0l0,2.57zm-20.52,0l-10.27,0l0,-2.57l10.27,0l0,2.57zm-20.53,0l-10.26,0l0,-2.57l10.26,0l0,2.57zm-20.52,0l-10.26,0l0,-2.57l10.26,0l0,2.57zm-20.53,0l-10.26,0l0,-2.57l10.26,0l0,2.57zm-20.52,0l-10.26,0l0,-2.57l10.26,0l0,2.57zm-20.53,0l-3.47,0l0,-2.57l3.47,0l0,2.57z" fill="#59595C" id="svg_171"/>
   <path d="m1097.4,779.01l-2.02,-1.58l6.31,-8.1l2.02,1.58l-6.31,8.1zm12.61,-16.19l-2.02,-1.58l6.31,-8.1l2.02,1.58l-6.31,8.1zm12.62,-16.2l-2.03,-1.58l6.31,-8.09l2.02,1.57l-6.3,8.1zm12.61,-16.2l-2.02,-1.57l6.3,-8.1l2.02,1.58l-6.3,8.09zm12.62,-16.19l-2.03,-1.58l6.31,-8.09l2.02,1.57l-6.3,8.1zm12.61,-16.2l-2.02,-1.57l6.3,-8.1l2.03,1.58l-6.31,8.09zm12.61,-16.19l-2.02,-1.58l6.31,-8.09l2.02,1.58l-6.31,8.09zm12.61,-16.19l-2.02,-1.58l6.31,-8.1l2.02,1.58l-6.31,8.1zm12.62,-16.2l-2.02,-1.57l6.31,-8.1l2.02,1.57l-6.31,8.1zm12.61,-16.19l-2.02,-1.58l6.31,-8.1l2.02,1.58l-6.31,8.1z" fill="#59595C" id="svg_172"/>
   <path d="m1262.46,581.85l-18.19,-10.5l0,21l18.19,-10.5z" fill="#59595C" id="svg_173"/>
   <path d="m1268.53,808.32l-18.19,-10.5l0,21l18.19,-10.5z" fill="#59595C" id="svg_174"/>
   <path d="m1112.59,773.04l-16.97,-12.39l-2.24,20.89l19.21,-8.5z" fill="#59595C" id="svg_175"/>
   <path d="m1071.72,565.74l-2.99,0c-0.33,0 -0.65,0.14 -0.88,0.39l-8.77,10.28c-0.39,0.46 -0.37,1.13 0.07,1.57l1.66,1.66c0.45,0.45 1.18,0.45 1.63,0.01l5.14,-5.08l0,22.24c0,0.64 0.52,1.16 1.15,1.16l2.99,0c0.63,0 1.15,-0.52 1.15,-1.16l0,-29.92c0,-0.64 -0.52,-1.15 -1.15,-1.15z" fill="#FCFDFF" id="svg_177"/>
   <path d="m1086.16,810.09c-0.66,-0.95 -1.47,-1.72 -2.38,-2.31c0.62,-0.53 1.17,-1.15 1.61,-1.88c0.86,-1.38 1.29,-3 1.29,-4.79c0,-1.72 -0.39,-3.29 -1.19,-4.65c-0.79,-1.36 -1.9,-2.45 -3.31,-3.22c-1.4,-0.76 -2.99,-1.15 -4.73,-1.15c-2.28,0 -4.32,0.65 -6.06,1.92c-1.72,1.24 -3.06,2.94 -3.98,5.05c-0.25,0.55 -0.02,1.19 0.5,1.48l2.41,1.31c0.28,0.15 0.61,0.19 0.9,0.09c0.31,-0.09 0.55,-0.31 0.69,-0.59c0.69,-1.39 1.49,-2.46 2.41,-3.18c0.85,-0.67 1.88,-1 3.14,-1c1.11,0 2,0.35 2.7,1.08c0.71,0.73 1.06,1.66 1.06,2.85c0,1.35 -0.37,2.41 -1.15,3.23c-0.73,0.81 -1.72,1.19 -3.01,1.19l-1.93,0c-0.63,0 -1.15,0.52 -1.15,1.15l0,2.73c0,0.64 0.52,1.15 1.15,1.15l2.11,0c1.51,0 2.7,0.47 3.66,1.42c0.95,0.95 1.41,2.15 1.41,3.66c0,1.45 -0.45,2.6 -1.38,3.52c-0.94,0.93 -2.09,1.38 -3.52,1.38c-1.2,0 -2.23,-0.35 -3.12,-1.05c-0.95,-0.74 -1.75,-1.79 -2.37,-3.11c-0.13,-0.3 -0.39,-0.52 -0.7,-0.62c-0.31,-0.09 -0.64,-0.05 -0.92,0.11l-2.64,1.54c-0.5,0.29 -0.7,0.9 -0.48,1.43c0.84,2.07 2.14,3.74 3.86,4.98c1.75,1.25 3.84,1.88 6.24,1.88c1.91,0 3.69,-0.42 5.3,-1.27c1.63,-0.86 2.93,-2.07 3.87,-3.61c0.95,-1.54 1.42,-3.28 1.42,-5.18c0,-2.08 -0.58,-3.95 -1.71,-5.54z" fill="#FCFDFF" id="svg_179"/>
   <path d="m1228.21,626.52l-13.05,0c0.17,-0.31 0.4,-0.64 0.7,-0.97c0.82,-0.91 2.14,-2.11 3.92,-3.57l-0.03,-0.02c0.28,-0.19 0.57,-0.44 0.91,-0.73c2.52,-2.13 4.53,-4.22 5.98,-6.22c1.55,-2.11 2.33,-4.56 2.33,-7.26c0,-2.67 -0.91,-4.84 -2.71,-6.46c-1.76,-1.57 -4.12,-2.37 -7,-2.37c-2.02,0 -4,0.5 -5.87,1.49c-1.86,0.98 -3.44,2.37 -4.71,4.12c-0.36,0.48 -0.28,1.16 0.18,1.55l2.42,2.07c0.24,0.2 0.54,0.31 0.88,0.27c0.31,-0.04 0.6,-0.21 0.79,-0.46c0.93,-1.25 1.94,-2.21 2.99,-2.84c2.02,-1.23 4.85,-1.23 6.3,0.08c0.7,0.65 1.05,1.48 1.05,2.55c0,1.8 -0.45,3.34 -1.38,4.71c-0.99,1.44 -2.41,2.97 -4.25,4.53c-0.1,0.09 -0.58,0.48 -1.45,1.19c-1.52,1.25 -2.75,2.34 -3.68,3.25c-0.95,0.95 -1.76,2.02 -2.41,3.21c-0.69,1.27 -1.05,2.66 -1.05,4.13l0,1.89c0,0.63 0.52,1.16 1.15,1.16l17.99,0c0.64,0 1.16,-0.53 1.16,-1.16l0,-2.99c0,-0.63 -0.52,-1.15 -1.16,-1.15z" fill="#FCFDFF" id="svg_181"/>
  </g>
 </g>
</svg>