<?xml version="1.0"?>
<svg width="2000" height="2000" xmlns="http://www.w3.org/2000/svg" xmlns:svg="http://www.w3.org/2000/svg" enable-background="new 0 0 2000 2000" version="1.1" xml:space="preserve">
 <g class="layer">
  <title>Layer 1</title>
  <g id="svg_147">
   <path d="m713.21,852.44c-32.63,0 -59.19,-26.56 -59.19,-59.19c0,-11.48 3.31,-22.63 9.56,-32.25l196.42,-302.24l-151.61,0c-26.48,0 -48.02,-21.53 -48.02,-48.01s21.54,-48.02 48.02,-48.02l214.11,0c35.86,0 65.03,29.18 65.03,65.03c0,12.66 -3.66,24.95 -10.59,35.56l-191.44,293.08l147.66,0c26.48,0 48.02,21.54 48.02,48.02s-21.54,48.02 -48.02,48.02l-219.95,0z" fill="#FFFFFF" id="svg_148"/>
   <g id="svg_149">
    <defs>
     <rect height="498.86" id="SVGID_00000042015364672936202060000006998122184666665146_" width="342.96" x="649.29" y="358.14"/>
    </defs>
    <clipPath id="SVGID_00000146475203974588863080000003552867214987896962_">
     <use href="#SVGID_00000042015364672936202060000006998122184666665146_" id="svg_150" overflow="visible"/>
    </clipPath>
    <g clip-path="url(#SVGID_00000146475203974588863080000003552867214987896962_)" id="svg_151">
     <path d="m922.5,362.73c35.86,0 65.03,29.18 65.03,65.03c0,12.66 -3.66,24.95 -10.59,35.56l-191.44,293.08l147.66,0c26.48,0 48.02,21.54 48.02,48.02s-21.54,48.02 -48.02,48.02l-219.95,0c-32.63,0 -59.19,-26.56 -59.19,-59.19c0,-11.48 3.31,-22.63 9.56,-32.25l196.42,-302.24l-151.61,0c-26.48,0 -48.02,-21.53 -48.02,-48.01s21.54,-48.02 48.02,-48.02l214.11,0m0,-4.59l-214.11,0c-29.01,0 -52.6,23.6 -52.6,52.61c0,29.01 23.59,52.6 52.6,52.6l143.16,0l-191.82,295.14c-6.73,10.37 -10.3,22.39 -10.3,34.76c0,35.16 28.61,63.78 63.78,63.78l219.95,0c29.01,0 52.61,-23.6 52.61,-52.61s-23.6,-52.61 -52.61,-52.61l-139.18,0l186.8,-285.98c7.42,-11.35 11.34,-24.52 11.34,-38.07c0,-38.38 -31.23,-69.62 -69.62,-69.62z" id="svg_152"/>
    </g>
   </g>
   <path d="m944.95,411.89l-9.17,0l0,-2.29l9.17,0l0,2.29zm-18.35,0l-9.18,0l0,-2.29l9.18,0l0,2.29zm-18.35,0l-9.18,0l0,-2.29l9.18,0l0,2.29zm-18.36,0l-9.17,0l0,-2.29l9.17,0l0,2.29zm-18.35,0l-9.17,0l0,-2.29l9.17,0l0,2.29zm-18.36,0l-9.17,0l0,-2.29l9.17,0l0,2.29zm-18.35,0l-9.17,0l0,-2.29l9.17,0l0,2.29zm-18.35,0l-9.18,0l0,-2.29l9.18,0l0,2.29zm-18.35,0l-9.18,0l0,-2.29l9.18,0l0,2.29zm-18.35,0l-9.18,0l0,-2.29l9.18,0l0,2.29zm-18.36,0l-9.17,0l0,-2.29l9.17,0l0,2.29zm-18.35,0l-9.17,0l0,-2.29l9.17,0l0,2.29zm-18.36,0l-9.17,0l0,-2.29l9.17,0l0,2.29zm-18.35,0l-4.1,0l0,-2.29l4.1,0l0,2.29z" fill="#59595C" id="svg_153"/>
   <path d="m725.24,760.64l-1.92,-1.26l5.01,-7.68l1.93,1.26l-5.02,7.68zm10.04,-15.37l-1.93,-1.25l5.02,-7.69l1.92,1.25l-5.01,7.69zm10.03,-15.37l-1.92,-1.25l5.02,-7.68l1.92,1.25l-5.02,7.68zm10.04,-15.36l-1.93,-1.26l5.02,-7.68l1.93,1.25l-5.02,7.69zm10.03,-15.37l-1.92,-1.26l5.02,-7.68l1.92,1.26l-5.02,7.68zm10.03,-15.36l-1.91,-1.26l5.01,-7.68l1.92,1.25l-5.02,7.69zm10.04,-15.37l-1.92,-1.26l5.02,-7.68l1.92,1.25l-5.02,7.69zm10.04,-15.37l-1.92,-1.26l5.01,-7.68l1.92,1.26l-5.01,7.68zm10.03,-15.36l-1.92,-1.26l5.02,-7.68l1.92,1.25l-5.02,7.69zm10.04,-15.37l-1.93,-1.26l5.03,-7.68l1.92,1.26l-5.02,7.68zm10.03,-15.37l-1.92,-1.25l5.02,-7.69l1.92,1.26l-5.02,7.68zm10.04,-15.37l-1.93,-1.25l5.02,-7.69l1.93,1.26l-5.02,7.68zm10.04,-15.36l-1.93,-1.25l5.02,-7.69l1.92,1.26l-5.01,7.68zm10.03,-15.37l-1.92,-1.25l5.01,-7.69l1.93,1.26l-5.02,7.68zm10.04,-15.37l-1.93,-1.25l5.02,-7.68l1.92,1.26l-5.01,7.67zm10.03,-15.36l-1.92,-1.25l5.02,-7.69l1.92,1.26l-5.02,7.68zm10.03,-15.37l-1.92,-1.25l5.02,-7.68l1.92,1.26l-5.02,7.67zm10.04,-15.36l-1.92,-1.25l5.02,-7.69l1.92,1.26l-5.02,7.68zm10.04,-15.37l-1.92,-1.25l5.01,-7.69l1.92,1.26l-5.01,7.68zm10.03,-15.36l-1.92,-1.26l5.01,-7.68l1.93,1.26l-5.02,7.68zm10.04,-15.37l-1.93,-1.26l5.02,-7.68l1.92,1.25l-5.01,7.69z" fill="#59595C" id="svg_154"/>
   <path d="m955.79,410.75l-16.26,-9.39l0,18.77l16.26,-9.38z" fill="#59595C" id="svg_155"/>
   <path d="m712.4,394.27l-2.96,0c-0.34,0 -0.65,0.15 -0.88,0.4l-8.72,10.2c-0.38,0.45 -0.36,1.13 0.07,1.56l1.66,1.65c0.44,0.45 1.17,0.45 1.61,0l5.11,-5.04l0,22.1c0,0.64 0.52,1.15 1.15,1.15l2.96,0c0.63,0 1.14,-0.51 1.14,-1.15l0,-29.73c0,-0.63 -0.51,-1.14 -1.14,-1.14z" fill="#FCFDFF" id="svg_157"/>
   <path d="m936.64,455.98l-12.97,0c0.17,-0.32 0.4,-0.64 0.7,-0.97c0.81,-0.9 2.13,-2.09 3.89,-3.54l-0.03,-0.03c0.28,-0.18 0.57,-0.44 0.9,-0.72c2.51,-2.12 4.5,-4.19 5.95,-6.17c1.53,-2.11 2.31,-4.54 2.31,-7.22c0,-2.65 -0.91,-4.81 -2.69,-6.41c-1.75,-1.57 -4.1,-2.36 -6.96,-2.36c-2,0 -3.97,0.5 -5.83,1.48c-1.84,0.98 -3.42,2.36 -4.68,4.09c-0.35,0.49 -0.27,1.16 0.18,1.55l2.4,2.05c0.24,0.2 0.54,0.3 0.88,0.26c0.31,-0.03 0.59,-0.2 0.78,-0.45c0.92,-1.24 1.92,-2.19 2.97,-2.82c2.02,-1.23 4.82,-1.22 6.26,0.09c0.7,0.62 1.04,1.46 1.04,2.53c0,1.78 -0.45,3.31 -1.37,4.67c-0.98,1.44 -2.39,2.95 -4.22,4.5c-0.1,0.08 -0.57,0.48 -1.45,1.19c-1.5,1.23 -2.73,2.32 -3.65,3.22c-0.95,0.94 -1.75,2.01 -2.4,3.19c-0.68,1.26 -1.04,2.64 -1.04,4.1l0,1.87c0,0.64 0.52,1.15 1.15,1.15l17.88,0c0.63,0 1.14,-0.51 1.14,-1.15l0,-2.96c0,-0.63 -0.51,-1.14 -1.14,-1.14z" fill="#FCFDFF" id="svg_159"/>
   <path d="m943.27,807.84l-9.18,0l0,-2.29l9.18,0l0,2.29zm-18.35,0l-9.18,0l0,-2.29l9.18,0l0,2.29zm-18.36,0l-9.17,0l0,-2.29l9.17,0l0,2.29zm-18.35,0l-9.17,0l0,-2.29l9.17,0l0,2.29zm-18.35,0l-9.18,0l0,-2.29l9.18,0l0,2.29zm-18.35,0l-9.18,0l0,-2.29l9.18,0l0,2.29zm-18.35,0l-9.19,0l0,-2.29l9.19,0l0,2.29zm-18.36,0l-9.18,0l0,-2.29l9.18,0l0,2.29zm-18.35,0l-9.18,0l0,-2.29l9.18,0l0,2.29zm-18.36,0l-9.17,0l0,-2.29l9.17,0l0,2.29zm-18.35,0l-9.17,0l0,-2.29l9.17,0l0,2.29zm-18.35,0l-9.18,0l0,-2.29l9.18,0l0,2.29zm-18.35,0l-9.18,0l0,-2.29l9.18,0l0,2.29zm-18.35,0l-9.19,0l0,-2.29l9.19,0l0,2.29z" fill="#59595C" id="svg_160"/>
   <path d="m952.83,806.69l-16.26,-9.39l0,18.79l16.26,-9.4z" fill="#59595C" id="svg_161"/>
   <path d="m730.4,767.38l-16.27,-9.38l0,18.77l16.27,-9.39z" fill="#59595C" id="svg_162"/>
   <path d="m715.89,807.43c-0.66,-0.93 -1.46,-1.7 -2.37,-2.29c0.62,-0.52 1.16,-1.14 1.61,-1.87c0.84,-1.37 1.27,-2.98 1.27,-4.76c0,-1.71 -0.39,-3.26 -1.17,-4.61c-0.79,-1.36 -1.9,-2.43 -3.3,-3.19c-1.38,-0.77 -2.96,-1.15 -4.69,-1.15c-2.28,0 -4.31,0.64 -6.03,1.9c-1.71,1.24 -3.04,2.92 -3.96,5.02c-0.24,0.55 -0.02,1.18 0.5,1.47l2.4,1.31c0.27,0.15 0.6,0.17 0.9,0.08c0.29,-0.1 0.54,-0.3 0.68,-0.59c0.68,-1.37 1.47,-2.44 2.38,-3.15c0.85,-0.67 1.87,-1 3.13,-1c1.11,0 1.99,0.35 2.68,1.07c0.71,0.73 1.05,1.65 1.05,2.84c0,1.34 -0.37,2.39 -1.14,3.2c-0.73,0.8 -1.71,1.19 -2.99,1.19l-1.91,0c-0.63,0 -1.15,0.51 -1.15,1.14l0,2.71c0,0.63 0.52,1.14 1.15,1.14l2.09,0c1.49,0 2.69,0.47 3.63,1.41c0.95,0.95 1.41,2.13 1.41,3.64c0,1.43 -0.45,2.57 -1.38,3.49c-0.93,0.92 -2.07,1.37 -3.48,1.37c-1.2,0 -2.22,-0.34 -3.12,-1.03c-0.93,-0.75 -1.72,-1.79 -2.34,-3.1c-0.14,-0.29 -0.4,-0.51 -0.7,-0.61c-0.31,-0.1 -0.64,-0.06 -0.92,0.11l-2.61,1.52c-0.5,0.29 -0.71,0.9 -0.49,1.43c0.84,2.05 2.13,3.72 3.84,4.94c1.73,1.24 3.82,1.87 6.2,1.87c1.9,0 3.67,-0.43 5.26,-1.27c1.62,-0.84 2.92,-2.05 3.85,-3.57s1.41,-3.27 1.41,-5.15c0,-2.07 -0.57,-3.93 -1.69,-5.51z" fill="#FCFDFF" id="svg_164"/>
  </g>
 </g>
</svg>